<?xml version="1.0" encoding="utf-8"?>
<!-- Generator: Adobe Illustrator 18.0.0, SVG Export Plug-In . SVG Version: 6.00 Build 0)  -->
<!DOCTYPE svg PUBLIC "-//W3C//DTD SVG 1.0//EN" "http://www.w3.org/TR/2001/REC-SVG-20010904/DTD/svg10.dtd">
<svg version="1.0" xmlns="http://www.w3.org/2000/svg" xmlns:xlink="http://www.w3.org/1999/xlink" x="0px" y="0px"
	 viewBox="0 0 1600 1150" enable-background="new 0 0 1600 1150" xml:space="preserve">
<g id="INTRO_SLIDE">
</g>
<g id="EMIT_1">
</g>
<g id="EMIT_2">
</g>
<g id="EMIT_3">
</g>
<g id="EMIT_4">
</g>
<g id="BIOACC">
</g>
<g id="HEALTH_RISKS">
	<rect x="0.5" y="0.428" fill="#103844" width="1600.459" height="1147.441"/>
	<g>
		<rect x="0.5" y="980.773" fill="#FFFFFF" width="1600" height="167.762"/>
		<text transform="matrix(1 0 0 1 340.207 1044.6216)"><tspan x="0" y="0" font-family="'Helvetica'" font-size="18">Re</tspan><tspan x="23.01" y="0" font-family="'Helvetica'" font-size="18">f</tspan><tspan x="27.849" y="0" font-family="'Helvetica'" font-size="18">erences</tspan></text>
		<g>
			<polygon fill="#2E2119" points="104.032,1044.389 104.032,1027.693 115.534,1027.693 115.534,1030.219 107.646,1030.219 
				107.646,1034.465 114.271,1034.465 114.271,1036.844 107.646,1036.844 107.646,1041.842 115.874,1041.842 115.874,1044.389 			
				"/>
			<path fill="#2E2119" d="M126.098,1044.389v-7.375c0-1.24-0.194-2.137-1.698-2.137c-0.801,0-1.917,0.414-2.718,0.896v8.615h-3.495
				v-11.914h3.301l0.049,1.09l0.097,0.051c1.382-0.924,3.058-1.432,4.198-1.432c3.154,0,3.736,1.869,3.736,4.102v8.104H126.098z"/>
			<path fill="#2E2119" d="M137.462,1042.084c0.121-0.314,0.776-3.082,1.164-4.32c0.535-1.553,1.53-4.949,1.651-5.289h3.494
				c-0.874,2.451-3.227,9.486-4.101,11.914h-4.732c-0.85-2.428-3.229-9.463-4.078-11.914h3.642l1.722,5.531
				c0.268,0.85,0.826,3.252,1.117,4.078H137.462z"/>
			<path fill="#2E2119" d="M147.314,1031.018c-1.287,0-1.99-0.824-1.99-1.842c0-1.068,0.729-1.871,1.99-1.871
				c1.335,0,2.061,0.803,2.061,1.871C149.375,1030.193,148.648,1031.018,147.314,1031.018 M145.59,1032.475h3.47v11.914h-3.47
				V1032.475z"/>
			<path fill="#2E2119" d="M155.582,1034.586c1.31-1.287,3.203-2.428,4.538-2.428c0.486,0,0.678,0.293,0.678,0.803
				c0,0.896-0.581,2.717-1.09,3.422l-4.053-0.049v8.055h-3.471v-11.914h3.422c0,0.557-0.072,1.48-0.145,2.039L155.582,1034.586z"/>
			<path fill="#2E2119" d="M167.593,1044.633c-4.416,0-5.945-2.766-5.945-6.188c0-3.35,1.699-6.238,6.092-6.238
				c4.439,0,5.969,2.889,5.969,6.213S172.132,1044.633,167.593,1044.633 M167.739,1034.658c-1.99,0-2.525,1.916-2.525,3.787
				c0,2.109,0.412,3.736,2.525,3.736c1.965,0,2.378-1.773,2.378-3.736C170.117,1036.551,169.729,1034.658,167.739,1034.658"/>
			<path fill="#2E2119" d="M183.583,1044.389v-7.375c0-1.24-0.195-2.137-1.699-2.137c-0.801,0-1.918,0.414-2.719,0.896v8.615h-3.494
				v-11.914h3.3l0.049,1.09l0.097,0.051c1.383-0.924,3.059-1.432,4.199-1.432c3.154,0,3.736,1.869,3.736,4.102v8.104H183.583z"/>
			<path fill="#2E2119" d="M204.571,1044.389v-7.545c0-1.312-0.34-1.943-1.578-1.943c-0.752,0-1.867,0.365-2.547,0.826
				c0.072,0.51,0.098,1.117,0.098,1.553v7.109h-3.424c0-2.598-0.023-5.193-0.023-7.789c0-1.117-0.509-1.674-1.432-1.674
				c-0.801,0-1.795,0.365-2.621,0.871v8.592h-3.47v-11.914h3.253l0.071,1.188l0.097,0.049c1.36-1.02,2.985-1.504,4.125-1.504
				c1.36,0,2.284,0.484,2.889,1.553c1.165-0.896,3.033-1.553,4.296-1.553c3.179,0,3.761,1.967,3.761,4.197v7.984H204.571z"/>
			<path fill="#2E2119" d="M221.359,1037.984v1.236h-7.788c0,1.82,0.85,2.789,2.985,2.789c1.286,0,2.596-0.289,3.833-0.752
				l0.705,2.137c-1.578,0.873-3.398,1.188-5.049,1.188c-4.805,0-5.969-2.861-5.969-6.137c0-2.621,1.117-6.287,5.823-6.287
				C221.02,1032.158,221.359,1035.846,221.359,1037.984 M213.62,1037.084h4.586c-0.023-1.576-0.51-2.717-2.16-2.717
				C214.324,1034.367,213.741,1035.654,213.62,1037.084"/>
			<path fill="#2E2119" d="M231.527,1044.389v-7.375c0-1.24-0.194-2.137-1.699-2.137c-0.801,0-1.917,0.414-2.718,0.896v8.615h-3.494
				v-11.914h3.299l0.049,1.09l0.098,0.051c1.384-0.924,3.057-1.432,4.198-1.432c3.155,0,3.737,1.869,3.737,4.102v8.104H231.527z"/>
			<path fill="#2E2119" d="M241.766,1029.174v3.277h3.471v2.279h-3.471v5.389c0,1.26,0.364,1.842,1.603,1.842
				c0.437,0,1.189-0.119,2.062-0.314l0.436,2.258c-1.019,0.461-2.377,0.678-3.396,0.678c-3.324,0-4.125-1.648-4.125-3.541v-6.311
				h-1.675v-1.893l1.893-0.559c0.171-0.412,0.704-2.449,0.85-2.863L241.766,1029.174z"/>
			<path fill="#2E2119" d="M257.853,1042.084h1.554l0.169,1.939c-0.776,0.365-1.893,0.609-2.911,0.609
				c-1.044,0-1.796-0.244-1.919-1.434c0-0.023-0.023-0.023-0.048-0.049c-1.674,1.459-3.444,1.482-4.124,1.482
				c-2.961,0-3.689-2.086-3.689-3.471c0-2.477,1.918-3.689,4.418-3.834c0.921-0.072,2.329-0.121,3.25-0.195v-0.289
				c0-1.361-0.436-2.062-2.207-2.062c-1.165,0-2.67,0.24-3.785,0.604c-0.171-0.727-0.365-1.455-0.559-2.156
				c1.406-0.609,3.469-0.996,5.168-0.996c2.863,0,4.684,1.066,4.684,4.15V1042.084z M252.149,1039.244
				c-1.141,0.098-1.674,0.68-1.674,1.625c0,0.998,0.484,1.531,1.627,1.531c0.728,0,1.674-0.391,2.449-1.068v-2.283L252.149,1039.244
				z"/>
			<polygon fill="#2E2119" points="264.791,1044.389 261.345,1044.389 261.345,1027.014 264.815,1027.014 			"/>
			<path fill="#2E2119" d="M110.657,1065.098h-3.034l0.025,6.406h-3.616v-16.695h6.333c3.811,0,5.727,1.99,5.727,5.121
				C116.092,1062.332,114.589,1065.098,110.657,1065.098 M107.623,1057.332v5.316h2.353c1.287,0,2.476-0.68,2.476-2.645
				c0-1.896-1.116-2.672-2.596-2.672H107.623z"/>
			<path fill="#2E2119" d="M128.344,1065.098v1.238h-7.788c0,1.82,0.85,2.789,2.985,2.789c1.285,0,2.597-0.291,3.833-0.752
				l0.703,2.137c-1.578,0.873-3.396,1.189-5.047,1.189c-4.805,0-5.969-2.865-5.969-6.141c0-2.621,1.115-6.283,5.823-6.283
				C128.005,1059.275,128.344,1062.963,128.344,1065.098 M120.604,1064.201h4.586c-0.024-1.578-0.51-2.719-2.16-2.719
				C121.308,1061.482,120.725,1062.768,120.604,1064.201"/>
			<path fill="#2E2119" d="M133.997,1061.699c1.311-1.283,3.203-2.424,4.538-2.424c0.485,0,0.681,0.289,0.681,0.799
				c0,0.896-0.584,2.717-1.094,3.422l-4.051-0.049v8.057H130.6v-11.914h3.423c0,0.557-0.073,1.479-0.146,2.037L133.997,1061.699z"/>
			<path fill="#2E2119" d="M142.222,1061.846h-1.675v-1.893l1.7-0.486v-1.479c0-2.281,0.994-4.078,4.512-4.078
				c0.826,0,2.16,0.098,3.277,0.412l-0.412,2.354c-0.68-0.145-1.555-0.217-2.063-0.217c-1.237,0-1.942,0.412-1.942,1.578v1.527
				h3.424v2.281h-3.424c0,1.043-0.023,8.615-0.023,9.658h-3.373V1061.846z"/>
			<path fill="#2E2119" d="M156.004,1071.746c-4.416,0-5.945-2.766-5.945-6.188c0-3.35,1.698-6.234,6.091-6.234
				c4.44,0,5.969,2.885,5.969,6.209C162.118,1068.859,160.541,1071.746,156.004,1071.746 M156.149,1061.773
				c-1.99,0-2.523,1.918-2.523,3.785c0,2.111,0.412,3.736,2.523,3.736c1.966,0,2.379-1.77,2.379-3.736
				C158.528,1063.666,158.14,1061.773,156.149,1061.773"/>
			<path fill="#2E2119" d="M167.528,1061.699c1.311-1.283,3.204-2.424,4.539-2.424c0.486,0,0.678,0.289,0.678,0.799
				c0,0.896-0.582,2.717-1.09,3.422l-4.054-0.049v8.057h-3.47v-11.914h3.422c0,0.557-0.072,1.479-0.145,2.037L167.528,1061.699z"/>
			<path fill="#2E2119" d="M189.249,1071.504v-7.547c0-1.309-0.34-1.939-1.578-1.939c-0.752,0-1.867,0.363-2.547,0.822
				c0.072,0.51,0.098,1.117,0.098,1.553v7.111h-3.424c0-2.598-0.023-5.193-0.023-7.791c0-1.113-0.509-1.674-1.432-1.674
				c-0.801,0-1.795,0.365-2.62,0.875v8.59h-3.47v-11.914h3.25l0.073,1.189l0.097,0.049c1.36-1.021,2.985-1.504,4.125-1.504
				c1.36,0,2.283,0.482,2.889,1.553c1.165-0.9,3.033-1.553,4.296-1.553c3.179,0,3.761,1.965,3.761,4.197v7.982H189.249z"/>
			<path fill="#2E2119" d="M205.626,1069.199h1.553l0.17,1.941c-0.775,0.363-1.893,0.605-2.912,0.605
				c-1.045,0-1.797-0.242-1.917-1.432c0-0.021-0.024-0.021-0.049-0.047c-1.675,1.455-3.446,1.479-4.125,1.479
				c-2.961,0-3.689-2.086-3.689-3.471c0-2.473,1.916-3.688,4.416-3.834c0.924-0.072,2.33-0.119,3.252-0.191v-0.293
				c0-1.357-0.438-2.062-2.209-2.062c-1.164,0-2.668,0.242-3.785,0.607c-0.17-0.729-0.363-1.455-0.558-2.162
				c1.408-0.604,3.471-0.992,5.17-0.992c2.863,0,4.684,1.068,4.684,4.148V1069.199z M199.923,1066.357
				c-1.141,0.1-1.674,0.682-1.674,1.629c0,0.994,0.484,1.527,1.625,1.527c0.729,0,1.674-0.389,2.451-1.066v-2.281L199.923,1066.357z
				"/>
			<path fill="#2E2119" d="M217.055,1071.504v-7.377c0-1.238-0.194-2.135-1.699-2.135c-0.801,0-1.917,0.412-2.718,0.896v8.615
				h-3.494v-11.914h3.299l0.049,1.092l0.098,0.049c1.383-0.924,3.057-1.434,4.198-1.434c3.155,0,3.737,1.869,3.737,4.102v8.105
				H217.055z"/>
			<path fill="#2E2119" d="M228.918,1069.053c1.115,0,2.136-0.242,3.204-0.605l0.654,2.305c-1.189,0.605-2.862,0.947-4.488,0.947
				c-4.562,0-5.752-2.719-5.752-6.02c0-2.814,1.067-6.355,5.896-6.355c1.02,0,2.354,0.094,3.714,0.582
				c-0.171,0.799-0.34,1.6-0.534,2.426c-1.02-0.293-1.893-0.34-2.596-0.34c-1.942,0-2.961,1.334-2.961,3.541
				C226.056,1067.719,226.759,1069.053,228.918,1069.053"/>
			<path fill="#2E2119" d="M245.276,1065.098v1.238h-7.788c0,1.82,0.849,2.789,2.984,2.789c1.285,0,2.597-0.291,3.833-0.752
				l0.705,2.137c-1.578,0.873-3.398,1.189-5.049,1.189c-4.803,0-5.969-2.865-5.969-6.141c0-2.621,1.117-6.283,5.824-6.283
				C244.936,1059.275,245.276,1062.963,245.276,1065.098 M237.536,1064.201h4.587c-0.024-1.578-0.511-2.719-2.161-2.719
				C238.24,1061.482,237.657,1062.768,237.536,1064.201"/>
			<rect x="104.251" y="1081.922" fill="#2E2119" width="3.541" height="16.697"/>
			<path fill="#2E2119" d="M118.858,1098.619v-7.379c0-1.238-0.195-2.135-1.699-2.135c-0.801,0-1.917,0.412-2.718,0.896v8.617
				h-3.495v-11.916h3.301l0.049,1.092l0.097,0.051c1.383-0.924,3.058-1.434,4.198-1.434c3.154,0,3.738,1.867,3.738,4.1v8.107
				H118.858z"/>
			<path fill="#2E2119" d="M132.833,1087.166v-5.898h3.471v17.352h-3.229l-0.072-1.068c-0.024-0.023-0.047-0.049-0.072-0.049
				c-1.164,0.945-2.646,1.285-3.664,1.285c-3.714,0-4.732-2.717-4.732-5.871c0-3.689,1.358-6.504,5.144-6.504
				C130.456,1086.412,131.839,1086.58,132.833,1087.166 M132.833,1089.59c-0.559-0.338-1.625-0.654-2.402-0.654
				c-1.188,0-2.402,0.703-2.402,3.955c0,2.816,1.043,3.471,2.354,3.471c0.704,0,1.893-0.484,2.451-0.896V1089.59z"/>
			<path fill="#2E2119" d="M149.405,1092.211v1.238h-7.79c0,1.82,0.852,2.791,2.985,2.791c1.287,0,2.597-0.291,3.835-0.754
				l0.703,2.137c-1.577,0.873-3.398,1.189-5.049,1.189c-4.804,0-5.968-2.863-5.968-6.139c0-2.623,1.115-6.285,5.824-6.285
				C149.065,1086.389,149.405,1090.076,149.405,1092.211 M141.664,1091.314h4.587c-0.024-1.578-0.51-2.719-2.161-2.719
				C142.368,1088.596,141.786,1089.881,141.664,1091.314"/>
			<polygon fill="#2E2119" points="156.708,1094.199 154.184,1098.619 150.472,1098.619 154.572,1092.406 150.787,1086.703 
				154.597,1086.703 156.757,1090.73 158.94,1086.703 162.653,1086.703 158.794,1092.381 162.848,1098.619 159.061,1098.619 			"/>
			<path fill="#F4C618" d="M74.088,1091.225c-1.936,0-3.503-1.566-3.503-3.5c0-1.936,1.567-3.504,3.503-3.504
				c1.933,0,3.503,1.568,3.503,3.504C77.591,1089.658,76.021,1091.225,74.088,1091.225"/>
			<path fill="#F4C618" d="M77.363,1082.205c-1.356,0-2.456-1.1-2.456-2.457s1.1-2.455,2.456-2.455c1.356,0,2.454,1.098,2.454,2.455
				S78.72,1082.205,77.363,1082.205"/>
			<path fill="#F4C618" d="M79.819,1075.457c-0.933,0-1.689-0.756-1.689-1.688c0-0.934,0.757-1.689,1.689-1.689
				c0.934,0,1.688,0.756,1.688,1.689C81.508,1074.701,80.753,1075.457,79.819,1075.457"/>
			<path fill="#F4C618" d="M81.457,1071.002c-0.673,0-1.22-0.545-1.22-1.221c0-0.674,0.547-1.219,1.22-1.219
				c0.673,0,1.22,0.545,1.22,1.219C82.677,1070.457,82.13,1071.002,81.457,1071.002"/>
			<path fill="#7D8FC7" d="M59.542,1076.711c-1.935,0-3.502-1.57-3.502-3.504c0-1.932,1.567-3.498,3.502-3.498
				c1.934,0,3.502,1.566,3.502,3.498C63.044,1075.141,61.476,1076.711,59.542,1076.711"/>
			<path fill="#7D8FC7" d="M67.485,1072.316c-1.355,0-2.451-1.1-2.451-2.455c0-1.352,1.096-2.451,2.451-2.451
				c1.354,0,2.453,1.1,2.453,2.451C69.938,1071.217,68.84,1072.316,67.485,1072.316"/>
			<path fill="#7D8FC7" d="M73.444,1069.035c-0.932,0-1.684-0.752-1.684-1.682s0.752-1.686,1.684-1.686
				c0.93,0,1.684,0.756,1.684,1.686S74.374,1069.035,73.444,1069.035"/>
			<path fill="#7D8FC7" d="M77.415,1066.891c-0.668,0-1.211-0.541-1.211-1.211s0.543-1.213,1.211-1.213
				c0.672,0,1.214,0.543,1.214,1.213S78.087,1066.891,77.415,1066.891"/>
			<path fill="#0C9ACC" d="M59.516,1056.164c-1.933,0-3.501-1.566-3.501-3.504c0-1.932,1.568-3.498,3.501-3.498
				c1.935,0,3.503,1.566,3.503,3.498C63.019,1054.598,61.45,1056.164,59.516,1056.164"/>
			<path fill="#0C9ACC" d="M67.5,1058.359c-1.351,0-2.448-1.094-2.448-2.447c0-1.352,1.098-2.449,2.448-2.449
				c1.352,0,2.448,1.098,2.448,2.449C69.948,1057.266,68.852,1058.359,67.5,1058.359"/>
			<path fill="#0C9ACC" d="M73.487,1060.025c-0.924,0-1.676-0.75-1.676-1.676c0-0.928,0.752-1.678,1.676-1.678
				c0.928,0,1.678,0.75,1.678,1.678C75.165,1059.275,74.415,1060.025,73.487,1060.025"/>
			<path fill="#0C9ACC" d="M77.481,1061.178c-0.666,0-1.205-0.541-1.205-1.205c0-0.662,0.539-1.203,1.205-1.203
				c0.664,0,1.203,0.541,1.203,1.203C78.685,1060.637,78.146,1061.178,77.481,1061.178"/>
			<path fill="#3EBBA3" d="M74.028,1041.619c-1.934,0-3.504-1.57-3.504-3.504c0-1.936,1.57-3.502,3.504-3.502
				c1.933,0,3.502,1.566,3.502,3.502C77.53,1040.049,75.961,1041.619,74.028,1041.619"/>
			<path fill="#3EBBA3" d="M77.353,1048.512c-1.35,0-2.444-1.092-2.444-2.443c0-1.35,1.095-2.445,2.444-2.445
				s2.445,1.096,2.445,2.445C79.798,1047.42,78.702,1048.512,77.353,1048.512"/>
			<path fill="#3EBBA3" d="M79.847,1053.705c-0.924,0-1.674-0.748-1.674-1.672s0.75-1.672,1.674-1.672
				c0.922,0,1.67,0.748,1.67,1.672S80.769,1053.705,79.847,1053.705"/>
			<path fill="#3EBBA3" d="M81.508,1057.207c-0.661,0-1.196-0.535-1.196-1.195s0.535-1.197,1.196-1.197
				c0.661,0,1.196,0.537,1.196,1.197S82.169,1057.207,81.508,1057.207"/>
			<path fill="#F79523" d="M84.407,1110.918c-2.389,0-4.326-1.936-4.326-4.326c0-2.389,1.938-4.324,4.326-4.324
				c2.389,0,4.326,1.936,4.326,4.324C88.733,1108.982,86.796,1110.918,84.407,1110.918"/>
			<path fill="#F79523" d="M84.373,1098.596c-1.833,0-3.318-1.486-3.318-3.318c0-1.83,1.485-3.318,3.318-3.318
				s3.317,1.488,3.317,3.318C87.69,1097.109,86.206,1098.596,84.373,1098.596"/>
			<path fill="#F79523" d="M84.347,1089.211c-1.408,0-2.551-1.145-2.551-2.553c0-1.406,1.143-2.551,2.551-2.551
				c1.408,0,2.551,1.145,2.551,2.551C86.897,1088.066,85.755,1089.211,84.347,1089.211"/>
			<path fill="#F79523" d="M84.322,1080.459c-1.041,0-1.882-0.844-1.882-1.881c0-1.039,0.841-1.885,1.882-1.885
				c1.038,0,1.882,0.846,1.882,1.885C86.204,1079.615,85.36,1080.459,84.322,1080.459"/>
			<path fill="#F26E2C" d="M53.555,1098.18c-2.39,0-4.325-1.938-4.325-4.326c0-2.391,1.936-4.326,4.325-4.326
				c2.39,0,4.325,1.936,4.325,4.326C57.88,1096.242,55.944,1098.18,53.555,1098.18"/>
			<path fill="#F26E2C" d="M61.496,1089.109c-1.831,0-3.315-1.482-3.315-3.316c0-1.83,1.484-3.312,3.315-3.312
				c1.83,0,3.313,1.482,3.313,3.312C64.81,1087.627,63.326,1089.109,61.496,1089.109"/>
			<path fill="#F26E2C" d="M67.546,1082.199c-1.406,0-2.545-1.137-2.545-2.545c0-1.406,1.139-2.545,2.545-2.545
				c1.405,0,2.545,1.139,2.545,2.545C70.091,1081.062,68.951,1082.199,67.546,1082.199"/>
			<path fill="#F26E2C" d="M73.219,1075.771c-1.036,0-1.876-0.836-1.876-1.873c0-1.035,0.84-1.875,1.876-1.875
				c1.036,0,1.876,0.84,1.876,1.875C75.095,1074.936,74.255,1075.771,73.219,1075.771"/>
			<path fill="#3575BA" d="M40.743,1067.357c-2.39,0-4.326-1.938-4.326-4.328c0-2.387,1.937-4.326,4.326-4.326
				c2.389,0,4.325,1.939,4.325,4.326C45.068,1065.42,43.132,1067.357,40.743,1067.357"/>
			<path fill="#3575BA" d="M52.056,1066.252c-1.828,0-3.31-1.482-3.31-3.311s1.481-3.311,3.31-3.311c1.828,0,3.31,1.482,3.31,3.311
				S53.884,1066.252,52.056,1066.252"/>
			<path fill="#3575BA" d="M60.676,1065.408c-1.4,0-2.536-1.137-2.536-2.533c0-1.402,1.136-2.537,2.536-2.537
				c1.4,0,2.534,1.135,2.534,2.537C63.21,1064.271,62.076,1065.408,60.676,1065.408"/>
			<path fill="#3575BA" d="M68.757,1064.672c-1.029,0-1.863-0.832-1.863-1.863c0-1.027,0.834-1.863,1.863-1.863
				c1.029,0,1.862,0.836,1.862,1.863C70.619,1063.84,69.786,1064.672,68.757,1064.672"/>
			<path fill="#018C8C" d="M53.481,1036.506c-2.389,0-4.326-1.939-4.326-4.326c0-2.391,1.938-4.328,4.326-4.328
				c2.389,0,4.326,1.938,4.326,4.328C57.808,1034.566,55.87,1036.506,53.481,1036.506"/>
			<path fill="#018C8C" d="M61.517,1043.447c-1.825,0-3.305-1.479-3.305-3.305c0-1.824,1.479-3.305,3.305-3.305
				c1.826,0,3.307,1.48,3.307,3.305C64.823,1041.969,63.343,1043.447,61.517,1043.447"/>
			<path fill="#018C8C" d="M67.64,1048.74c-1.396,0-2.527-1.131-2.527-2.527s1.132-2.529,2.527-2.529
				c1.396,0,2.527,1.133,2.527,2.529S69.036,1048.74,67.64,1048.74"/>
			<path fill="#018C8C" d="M73.379,1053.754c-1.022,0-1.853-0.83-1.853-1.852c0-1.025,0.83-1.854,1.853-1.854
				c1.023,0,1.853,0.828,1.853,1.854C75.231,1052.924,74.402,1053.754,73.379,1053.754"/>
			<path fill="#2CB35F" d="M84.304,1023.693c-2.391,0-4.326-1.936-4.326-4.326c0-2.387,1.936-4.326,4.326-4.326
				c2.39,0,4.325,1.94,4.325,4.326C88.629,1021.758,86.693,1023.693,84.304,1023.693"/>
			<path fill="#2CB35F" d="M84.291,1033.984c-1.825,0-3.305-1.479-3.305-3.303s1.479-3.305,3.305-3.305s3.304,1.48,3.304,3.305
				S86.116,1033.984,84.291,1033.984"/>
			<path fill="#2CB35F" d="M84.28,1041.826c-1.395,0-2.524-1.129-2.524-2.523s1.13-2.527,2.524-2.527
				c1.396,0,2.526,1.133,2.526,2.527S85.676,1041.826,84.28,1041.826"/>
			<path fill="#2CB35F" d="M84.272,1049.234c-1.023,0-1.852-0.83-1.852-1.852s0.828-1.852,1.852-1.852
				c1.021,0,1.851,0.83,1.851,1.852S85.294,1049.234,84.272,1049.234"/>
		</g>
	</g>
	<g>
		<path fill="#F26E2A" d="M1210.362,197.781c0,6.885-5.58,12.464-12.465,12.464H1045.2c-6.883,0-12.465-5.579-12.465-12.464V56.509
			c0-6.884,5.582-12.466,12.465-12.466h152.697c6.885,0,12.465,5.582,12.465,12.466V197.781z"/>
		<rect x="1049.087" y="62.448" fill="none" width="112.171" height="141.058"/>
		<text transform="matrix(1 0 0 1 1049.0869 80.4473)"><tspan x="0" y="0" fill="#FFFFFF" font-family="'Helvetica'" font-size="25.0341">80</tspan><tspan x="-2.889" y="51.326" fill="#FFFFFF" font-family="'Helvetica'" font-size="57.771">Hg</tspan><tspan x="0" y="88.685" fill="#FFFFFF" font-family="'Helvetica'" font-size="23.1084">Mercury</tspan><tspan x="0" y="110.638" fill="#FFFFFF" font-family="'Helvetica'" font-size="13.4799">200.59</tspan></text>
	</g>
	<g>
		<path fill-rule="evenodd" clip-rule="evenodd" fill="#FEFEFE" d="M256.728,373.713c0.219,45.48-27.547,88.653-66.594,103.734
			c-12.478,4.817-25.385,6.613-38.603,3.974c-26.609-5.312-40.008-28.142-31.921-54.071c3.514-11.265,9.609-21.137,17.299-29.898
			c5.631-6.419,9.285-13.647,11.969-21.599c3.625-10.749,7.42-21.45,13.52-31.13c15.403-24.445,44.705-32.692,69.932-19.715
			c15.223,7.83,23.256,20.366,24.361,37.359C256.938,366.133,256.728,369.931,256.728,373.713z"/>
		<path fill-rule="evenodd" clip-rule="evenodd" fill="#103844" d="M137.791,424.427c3.91-4.94,7.582-10.325,12.393-14.734
			c11.104-10.174,17.771-8.467,22.104,5.715c0.283,0.934,0.699,1.826,1.046,2.716c1.974,0.192,1.888-1.489,2.549-2.292
			c2.98-3.612,5.673-6.813-1.509-9.371c-3.865-1.377-6.009-5.485-5.506-9.956c0.844-7.512,1.705-15.045,3.129-22.461
			c0.891-4.628,4.408-5.816,8.713-4.151c5.461,2.112,8.16,0.319,8.266-5.616c0.291-16.403,6.104-23.664,22.43-28.016
			c11.58-3.086,24.846,2.505,30.554,12.879c5.334,9.692,3.366,20.816-6.091,29.316c-5.332,4.791-6.61,9.371-3.577,15.933
			c4.271,9.238,3.741,18.846-0.845,27.775c-11.234,21.873-25.758,40.009-52.527,43.04c-4.543,0.514-9.067,0.408-13.562-0.525
			c-9.551-1.982-14.402-7.379-14.944-17.275c-0.312-5.708-0.057-11.447-0.057-17.531c-4.149,3.656-8.212,7.626-12.679,11.069
			c-5.18,3.993-8.988,2.309-9.594-4.365c-0.366-4.039-0.723-8.038-1.926-11.884c-1.444-4.613,0.572-7.63,4.577-8.925
			c5.665-1.832,2.286,4.207,4.401,5.742C136.03,422.156,135.848,423.944,137.791,424.427z"/>
	</g>
	<g>
		<path fill-rule="evenodd" clip-rule="evenodd" fill="#FDFDFD" d="M1353.448,416.522c1.257,0.599,3.057,1.135,3.561-0.215
			c0.968-2.591-1.7-3.434-3.157-3.201c-7.431,1.188-6.818-3.91-6.106-8.105c1.291-7.621-3.803-16.742,5.055-22.707
			c0.391-0.263,0.439-1.919,0.285-1.979c-7.658-2.935-3.131-9.559-4.26-14.395c-0.583-2.501-0.301-5.432,3.21-6.31
			c3.013-0.755,5.208,0.479,6.858,2.833c0.908,1.295,1.637,2.734,2.304,4.175c0.674,1.452,2.092,2.418,2.907,1.093
			c1.075-1.75,3.954-0.417,4.146-2.956c0.123-1.624-0.859-2.565-2.178-2.917c-5.204-1.387-8.125-8.311-14.837-6.064
			c-1.075,0.36-2.327-0.179-2.237-1.456c0.312-4.447-0.957-9.337,2.016-13.154c2.619-3.364,6.602-2.666,10.393-2.071
			c8.195,1.282,16.571,1.975,19.66,11.892c0.636,2.042,3.984,2.377,4.655,0.901c3.538-7.778,6.193-0.642,7.344,0.864
			c5.481,7.176,13.319,13.35,11.77,24.111c-0.325,2.26,0.868,3.208,2.86,1.768c1.951-1.409,2.211-0.432,2.559,0.561
			c3.153,8.972,9.69,17.476,3.789,27.761c-0.941,1.641-0.183,4.64,1.078,5.072c7.239,2.491,3.172,8.188,3.585,12.372
			c0.19,1.933-1.448,5.129-3.967,5.163c-2.241,0.029-4.252-1.851-4.563-4.713c-0.137-1.251-0.504-2.655-3.824-3.408
			c1.055,3.727-2.687,7.002,3.047,10.13c3.351,1.824,3.225,6.357-1.528,6.442c-6.093,0.11-10.94,4.093-16.87,4.14
			c-2.922-3.939,2.969-5.675,2.205-9.645c-2.809,0.414-4.82,1.392-6.1,4.037c-5.003,10.354-6.722,10.904-17.676,5.981
			c-4.545-3.014-3.125-6.412-0.079-9.184c2.695-2.453,5.724-5.096,9.603-5.257c7.195-0.299,10.633-6.549,16.035-9.651
			c2.291-1.314-0.17-3.524,0.343-5.355c-3.29,8.052-8.253,13.735-17.283,14.935c-3.544,0.472-5.967,3.295-8.976,4.915
			c-5.102,2.744-10.395,3.824-16.11,2.478c-2.048-0.922-3.681-2.292-4.748-4.297c-1.626-3.821-0.026-7.715-0.22-11.583
			C1347.789,415.416,1350.749,415.951,1353.448,416.522z"/>
		<path fill-rule="evenodd" clip-rule="evenodd" fill="#FEFEFE" d="M1321.572,441.3c-7.823,6.617-14.162,5.46-17.504-3.704
			c-1.218-3.339-3.157-4.319-5.831-4.988c-1.361,1.316-0.689,2.261,0.005,3.013c1.497,1.624,3.409,3.815,2.245,5.555
			c-1.674,2.508-4.434,0.32-6.448-0.405c-3.499-1.259-6.833-2.729-10.697-2.536c-1.545,0.076-3.182-0.436-3.663-2.416
			c-0.421-1.73-0.171-3.748,1.369-4.178c6.231-1.739,2.793-6.214,3.451-9.506c-2.574-0.777-3.399,0.632-3.696,2.288
			c-0.528,2.958-2.398,5.662-4.97,5.174c-2.297-0.436-4.553-3.985-3.881-6.333c1.031-3.603-3.328-9.042,3.536-10.948
			c1.718-0.478,2.238-3.622,1.475-4.928c-6.015-10.27-2.159-22.007,4.137-26.998c7.718-6.117,2.692-16.411,10.986-20.718
			c2.566-1.333,3.812-5.034,5.985-7.347c1.96-2.086,3.762-5.763,7.084-0.587c1.449,2.262,4.348,0.665,5.443-2.079
			c4.604-11.522,15.287-10.323,24.42-10.672c7.71-0.294,6.068,6.997,6.971,12.043c1.134,6.335-3.493,3.615-6.146,4.686
			c-4.322,1.746-8.325,4.378-12.255,6.953c-1.486,0.975-1.531,3.468,0.488,3.48c1.922,0.015,3.409,4.852,5.65,0.538
			c1.084-2.089,2.259-4.348,3.988-5.838c3.627-3.128,8.656-1.202,8.167,3.412c-0.569,5.358,4.1,12.398-3.977,15.996
			c-0.216,0.095-0.204,1.688,0.173,1.985c9.716,7.675,3.494,18.338,5.1,27.504c0.986,5.624-4.127,1.915-6.125,3.175
			c-1.439,0.909-4.102,0.81-3.153,3.39c0.497,1.352,2.302,0.816,3.559,0.214c3.88-1.173,5.923-0.047,5.597,4.315
			c-0.211,2.802,0.113,5.608,0.162,8.416c-0.733,3.054-2.713,5.012-5.51,6.24c-5.992,1.121-11.615,0.301-16.755-3.19
			c-3.75-2.544-7.706-4.496-12.245-5.473c-7.432-1.599-10.129-7.948-12.994-13.938c-0.393,5.179,6.072,12.583,13.223,14.258
			c4.536,1.061,8.667,2.726,12.126,5.682C1323.88,435.245,1325.884,438.22,1321.572,441.3z"/>
		<path fill-rule="evenodd" clip-rule="evenodd" fill="#F26E2A" d="M1367.149,442.692c1.268,6.044-5.043,6.013-7.363,9.182
			c-8.092,5.973-16.722,5.144-25.533,2.02c-4.22-3.024-13.061-1.753-10.389-11.18c-0.154-10.533,7.614-7.031,13.168-7.439
			c3.187-0.8,5.182-2.822,6.068-5.974c4.344-3.845,4.314,1.47,6.132,2.924c1.085,1.736,2.834,2.455,4.669,3.053
			C1359.627,435.42,1366.951,432.695,1367.149,442.692z"/>
		<path fill-rule="evenodd" clip-rule="evenodd" fill="#F26E2A" d="M1358.239,455.326c-0.461,9.301-4.176,18.079-4.231,27.486
			c-0.027,4.37-3.477,5.499-7.315,5.565c-4.969,0.086-10.548-0.083-11.848-5.746c-1.891-8.234-2.458-16.776-3.48-25.2
			c-0.256-2.102,1.73-1.392,2.797-1.802C1342.187,455.441,1350.204,454.783,1358.239,455.326z"/>
		<path fill-rule="evenodd" clip-rule="evenodd" fill="#103844" d="M1339.02,435.791c-1.544,0.307-3.231,1.173-4.606,0.819
			c-5.674-1.454-8.889,0.863-10.549,6.103c-0.764-0.472-1.527-0.941-2.292-1.414c4.421-7.078-2.757-8.123-5.993-9.782
			c-6.356-3.262-14.621-2.94-18.426-10.865c-0.381-0.796-3.47-0.151-5.25-0.462c-1.573-0.275-3.641-2.338-1.901-2.824
			c5.568-1.551,3.798-4.15,1.981-7.224c-0.612-1.034-0.527-2.049,0.659-2.587c1.177-0.532,2.364,0.186,2.657,1.077
			c3.828,11.645,13.111,16.36,23.661,20.79c5.933,2.489,11.528,4.517,17.843,4.83C1338.333,433.626,1339.093,434.11,1339.02,435.791
			z"/>
		<path fill-rule="evenodd" clip-rule="evenodd" fill="#103844" d="M1367.149,442.692c-1.812-9.512-10.188-4.528-15.234-6.898
			c-0.086-1.517,0.391-2.27,2.006-1.476c10.21,1.913,16.859-7.413,25.812-8.424c11.653-1.317,10.565-14.237,18.416-18.835
			c3.212,3.158-6.001,8.992,2.936,10.536c1.354,0.235-1.024,2.872-2.281,2.576c-4.666-1.103-6.621,1.868-8.754,4.98
			c-2.559,3.726-6.863,3.645-10.674,4.638c-9.136,2.383-12.236,6.379-9.945,12.734
			C1368.671,442.581,1367.91,442.637,1367.149,442.692z"/>
		<path fill-rule="evenodd" clip-rule="evenodd" fill="#103844" d="M1348.5,433.306c-2.276-0.308-0.491-6.044-4.819-3.605
			c-0.366,0.532-0.757,0.551-1.173,0.057c-2.599-2.646,0.385-5.15,0.363-7.774c-0.036-4.164-1.433-5.777-5.412-5.457
			c4.815-1.051,4.815-1.051,7.992,8.875c3.243-9.901,3.243-9.901,7.997-8.878c-4.044-0.324-5.902,1.382-5.176,5.533
			c0.541,3.1,1.046,6.205,1.567,9.309C1349.636,432.178,1349.522,433.057,1348.5,433.306z"/>
		<path fill-rule="evenodd" clip-rule="evenodd" fill="#103844" d="M1358.239,455.326c-8.018,0.825-16.017,3.039-24.078,0.303
			c0.03-0.578,0.062-1.156,0.092-1.735c8.619,0.697,17.181,0.637,25.533-2.02C1359.832,453.276,1359.655,454.579,1358.239,455.326z"
			/>
		<path fill-rule="evenodd" clip-rule="evenodd" fill="#103844" d="M1371.512,358.7c6.116,0.299,7.977,3.869,10.101,6.604
			c2.975,3.835,4.52,8.809,10.188,10.09c1.589,0.357,3.616,2.479,2.479,4.31c-1.634,2.631-2.983-0.146-4.312-1.041
			c-1.943-1.31-3.715-2.172-5.037,0.765c-0.846,1.881-2.577,2.998-4.463,2.672c-2.355-0.404-5.863,2.81-6.791-0.678
			c-0.818-3.072,2.888-2.782,5.134-3.121c4.971-0.75,3.069-3.955,2.196-6.588C1379.417,366.908,1374.596,364.247,1371.512,358.7z"/>
		<path fill-rule="evenodd" clip-rule="evenodd" fill="#103844" d="M1372.506,414.397c4.384-8.706,9.076-17.273,16.582-24.429
			C1390.239,396.526,1386.651,402.084,1372.506,414.397z"/>
		<path fill-rule="evenodd" clip-rule="evenodd" fill="#121214" d="M1348.5,433.306c0.447-0.648,0.893-1.294,1.34-1.941
			c1.36,0.983,2.722,1.969,4.081,2.954c-0.669,0.492-1.338,0.983-2.006,1.476C1350.354,435.542,1349.076,434.907,1348.5,433.306z"/>
		<path fill-rule="evenodd" clip-rule="evenodd" fill="#103844" d="M1318.835,357.694c-1.59,6.479-6.728,8.489-8.416,12.784
			c-1.545,3.928-3.604,7.901,3.549,7.978c1.937,0.022,4.011,0.77,3.447,3.196c-0.555,2.372-2.541,0.882-3.941,0.733
			c-2.313-0.245-5.262,0.481-6.564-1.876c-2.311-4.187-4.528-3.508-7.261-0.662c-0.722,0.749-1.765,1.448-2.647,0.297
			c-0.395-0.513-0.49-2.017-0.346-2.069C1306.178,374.516,1308.084,362.44,1318.835,357.694z"/>
		<path fill-rule="evenodd" clip-rule="evenodd" fill="#103844" d="M1318.165,414.628c-7.746-6.556-14.143-13.997-17.008-23.758
			C1309.465,397.058,1314.271,405.542,1318.165,414.628z"/>
		<path fill-rule="evenodd" clip-rule="evenodd" fill="#103844" d="M1342.508,429.757c0.392-0.001,0.782-0.021,1.173-0.057
			c0.218,3.386-1.51,5.282-4.661,6.091c-0.738-0.513-1.476-1.024-2.216-1.537C1338.706,432.754,1340.606,431.257,1342.508,429.757z"
			/>
	</g>
	<g>
		<path fill-rule="evenodd" clip-rule="evenodd" fill="#F26E2A" d="M433.513,377.026c-0.143,4.01-0.427,8.025-0.361,12.033
			c0.025,1.666-0.126,2.991-1.392,4.137c-0.693,0.627-0.251,1.304,0.311,1.714c0.882,0.646,0.994,1.471,0.972,2.464
			c-0.154,6.914-0.391,13.833-0.354,20.748c0.018,3.692,0.572,7.379,0.799,11.073c0.118,1.915-0.043,3.847,0.074,5.762
			c0.226,3.656,0.687,7.303,0.808,10.961c0.093,2.805-0.185,5.617-0.299,8.424c-0.012,0.263-0.082,0.525-0.07,0.786
			c0.137,2.943-0.646,5.745-1.571,8.467c-1.018,2.998-2.623,5.757-5.747,6.994c-1.781,0.704-3.746,0.995-5.653,1.323
			c-2.17,0.373-4.366,0.582-6.552,0.858c-0.26,0.031-0.523,0.04-0.786,0.066c-2.786,0.288-5.581,0.521-8.357,0.882
			c-2.555,0.33-5.142,0.609-7.623,1.255c-3.8,0.987-7.547,2.197-11.271,3.45c-2.839,0.955-5.592,2.162-8.408,3.19
			c-2.14,0.782-4.318,1.459-6.48,2.182c-2.305,0.773-4.592,1.602-6.916,2.306c-3.691,1.121-6.699-1.134-6.634-5.021
			c0.088-5.219,0.308-10.435,0.417-15.651c0.02-0.961-0.207-1.926-0.327-2.891c-0.335-2.706-0.699-5.409-1.002-8.118
			c-0.292-2.611,0.361-5.114,1.071-7.576c0.737-2.561,1.632-5.079,2.506-7.599c1.179-3.395,2.473-6.749,3.586-10.165
			c0.764-2.352,1.223-4.8,1.961-7.16c0.879-2.803,1.831-5.59,2.898-8.325c1.029-2.636,2.145-5.245,3.406-7.777
			c1.254-2.518,2.703-4.946,4.135-7.374c2.328-3.952,5.752-6.959,8.877-10.233c1.387-1.452,2.547-3.119,3.828-4.674
			c1.508-1.833,3.018-3.664,4.558-5.467c2.765-3.24,5.499-6.51,8.354-9.669c2.087-2.314,4.285-4.536,6.544-6.684
			c2.121-2.018,4.595-3.553,7.287-4.729c4.307-1.881,9.544-0.901,12.474,3.18c2.192,3.055,3.521,6.473,4.391,10.046
			c0.534,2.194,0.523,4.524,0.757,6.792C433.651,377.011,433.582,377.02,433.513,377.026"/>
		<path fill-rule="evenodd" clip-rule="evenodd" fill="#F26E2A" d="M452.21,377.026c0.143,4.01,0.427,8.025,0.361,12.033
			c-0.026,1.666,0.127,2.991,1.393,4.137c0.692,0.627,0.25,1.304-0.312,1.714c-0.881,0.646-0.994,1.471-0.971,2.464
			c0.154,6.914,0.391,13.833,0.354,20.748c-0.018,3.692-0.573,7.379-0.798,11.073c-0.117,1.915,0.043,3.847-0.074,5.762
			c-0.227,3.656-0.686,7.303-0.809,10.961c-0.092,2.805,0.185,5.617,0.3,8.424c0.012,0.263,0.081,0.525,0.069,0.786
			c-0.137,2.943,0.646,5.745,1.572,8.467c1.018,2.998,2.622,5.757,5.745,6.994c1.783,0.704,3.746,0.995,5.655,1.323
			c2.168,0.373,4.365,0.582,6.551,0.858c0.26,0.031,0.523,0.04,0.785,0.066c2.787,0.288,5.582,0.521,8.359,0.882
			c2.553,0.33,5.139,0.609,7.622,1.255c3.8,0.987,7.547,2.197,11.271,3.45c2.838,0.955,5.592,2.162,8.406,3.19
			c2.143,0.782,4.32,1.459,6.483,2.182c2.304,0.773,4.591,1.602,6.915,2.306c3.691,1.121,6.699-1.134,6.633-5.021
			c-0.087-5.219-0.307-10.435-0.415-15.651c-0.021-0.961,0.207-1.926,0.326-2.891c0.335-2.706,0.699-5.409,1.001-8.118
			c0.293-2.611-0.36-5.114-1.069-7.576c-0.738-2.561-1.633-5.079-2.507-7.599c-1.178-3.395-2.474-6.749-3.585-10.165
			c-0.765-2.352-1.224-4.8-1.961-7.16c-0.88-2.803-1.833-5.59-2.9-8.325c-1.027-2.636-2.144-5.245-3.404-7.777
			c-1.257-2.518-2.704-4.946-4.136-7.374c-2.329-3.952-5.751-6.959-8.877-10.233c-1.387-1.452-2.547-3.119-3.828-4.674
			c-1.509-1.833-3.018-3.664-4.558-5.467c-2.766-3.24-5.5-6.51-8.353-9.669c-2.088-2.314-4.286-4.536-6.545-6.684
			c-2.123-2.018-4.595-3.553-7.287-4.729c-4.306-1.881-9.543-0.901-12.475,3.18c-2.192,3.055-3.519,6.473-4.39,10.046
			c-0.534,2.194-0.522,4.524-0.757,6.792C452.072,377.011,452.141,377.02,452.21,377.026"/>
		<path fill-rule="evenodd" clip-rule="evenodd" fill="#FFFFFF" d="M502.196,466.29c0.035-2.24-0.488-4.307-1.889-6.098
			c-0.169-0.218-0.383-0.4-0.594-0.583c-0.853-0.732-1.713-1.457-2.502-2.127c-1.577,1.812-2.594,3.801-0.503,6.076
			c-0.841,0.134-0.841,0.134-2.149-3.012c-1,0.328-2,0.657-3.001,0.987c-0.06-0.11-0.12-0.22-0.18-0.33
			c0.144-0.158,0.261-0.403,0.434-0.452c2.729-0.805,3.893-2.775,4.351-5.452c0.599-3.509-0.312-6.577-2.339-9.388
			c-1.039-1.439-2.163-2.82-3.239-4.236c-0.377-0.497-0.721-1.021-1.105-1.567c-0.178,1.608-0.344,3.104-0.508,4.6
			c-0.161,0.018-0.32,0.037-0.483,0.055c-0.122-0.28-0.324-0.55-0.355-0.839c-0.155-1.498-0.33-3.001-0.378-4.505
			c-0.029-0.929-0.603-1.225-1.297-1.42c-1.989-0.558-3.997-1.041-5.982-1.614c-2.72-0.785-5.372-1.737-7.671-3.46
			c-0.122-0.09-0.295-0.111-0.735-0.266c0.151,1.468,0.122,2.813,0.454,4.065c0.607,2.299,2.461,3.477,4.518,4.327
			c0.895,0.371,1.87,0.549,2.787,0.874c0.26,0.092,0.441,0.4,0.659,0.609c-0.274,0.163-0.548,0.468-0.824,0.47
			c-1.909,0.012-3.663-0.607-5.626-1.582c0.475,0.882,0.788,1.59,1.211,2.225c0.95,1.42,2.035,2.757,2.91,4.222
			c0.711,1.188,1.781,1.627,2.992,1.775c1.755,0.217,3.533,0.234,5.289,0.439c1.359,0.159,2.254-0.468,3.022-1.452
			c0.119-0.151,0.235-0.327,0.395-0.425c0.174-0.107,0.396-0.138,0.596-0.201c0.007,0.221,0.105,0.505,0.004,0.653
			c-0.497,0.726-1.029,1.432-1.588,2.11c-0.292,0.354-0.336,0.49-0.062,0.997c0.749,1.385,1.261,2.9,1.831,4.38
			c0.098,0.253,0.016,0.573,0.016,1.069c-0.336-0.2-0.702-0.297-0.728-0.454c-0.332-1.808-1.411-3.221-2.426-4.659
			c-0.166-0.235-0.531-0.434-0.818-0.454c-2.086-0.151-4.172-0.254-6.261-0.361c-0.071-0.004-0.15,0.107-0.05,0.03
			c0.318,1.621,0.535,3.152,0.94,4.633c0.257,0.932,0.724,1.836,1.237,2.664c0.576,0.927,1.316,1.754,2.153,2.844
			c-0.424-0.02-0.846,0.092-1.013-0.065c-1.041-0.979-2.025-2.014-3.023-3.036c-0.16-0.163-0.296-0.349-0.422-0.499
			c-0.542,0.637-0.973,1.248-1.511,1.745c-0.503,0.462-1.121,0.8-1.688,1.193c-0.112-0.115-0.228-0.228-0.342-0.34
			c0.155-0.238,0.257-0.547,0.472-0.699c1.183-0.833,2.114-1.838,2.186-3.362c0.035-0.744,0.019-1.524-0.167-2.238
			c-0.426-1.647-1.258-3.107-2.287-4.471c-1.708-2.271-3.414-4.544-5.029-6.878c-0.727-1.048-1.231-2.251-1.871-3.445
			c-0.268,0.723-0.448,1.487-0.824,2.137c-0.523,0.902-1.053,1.893-1.838,2.523c-0.891,0.716-1.014,1.52-0.91,2.459
			c0.142,1.266,0.364,2.522,0.566,3.78c0.289,1.795,1.699,2.465,3.17,2.893c0.938,0.276,1.986,0.151,2.981,0.256
			c0.238,0.024,0.456,0.245,0.685,0.378c-0.199,0.191-0.374,0.515-0.6,0.557c-1.849,0.333-3.676,0.347-5.452-0.43
			c-0.185-0.08-0.63,0.2-0.833,0.42c-0.914,0.995-1.758,2.057-2.693,3.031c-0.234,0.244-0.713,0.26-1.079,0.378
			c-0.051-0.08-0.102-0.16-0.153-0.243c0.132-0.191,0.223-0.446,0.401-0.568c1.463-0.987,2.341-2.377,2.545-4.092
			c0.075-0.637-0.392-1.319-0.517-2.001c-0.295-1.595-0.533-3.2-0.799-4.8c-0.02-0.117-0.087-0.229-0.123-0.322
			c-0.751,0.377-1.443,0.798-2.187,1.078c-0.611,0.23-0.869,0.581-0.811,1.206c0.158,1.714-0.576,3.166-1.379,4.59
			c-0.115,0.205-0.386,0.321-0.585,0.479c-0.072-0.042-0.144-0.085-0.216-0.13c0.1-0.617,0.216-1.233,0.294-1.854
			c0.121-0.949,0.237-1.903,0.312-2.857c0.037-0.492-0.072-0.742-0.739-0.567c-0.86,0.226-1.795,0.143-2.677,0.314
			c-2.18,0.421-2.711,2.21-3.23,4.006c-0.114,0.396-0.383,0.745-0.725,1.044c-0.258-2.398,0.952-4.191,2.373-5.896
			c-1.381-0.604-2.977-2.744-2.92-4.005c0.278,0.185,0.573,0.273,0.676,0.464c1.092,2.028,2.844,2.324,4.905,1.989
			c2.369-0.386,4.364-1.559,6.351-2.869c-2.853,0.335-5.473-0.358-7.963-1.631c-0.135-0.068-0.115-0.446-0.203-0.847
			c1.082,0.193,2.039,0.273,2.938,0.544c1.852,0.56,3.709,0.742,5.497-0.028c0.63-0.271,1.258-0.943,1.527-1.582
			c0.908-2.148,1.542-4.423,1.579-6.755c0.025-1.544-0.365-3.103-0.655-4.637c-0.186-0.983-0.524-1.933-0.814-2.96
			c-0.619,1.768-1.212,3.463-1.807,5.155c-0.08-0.008-0.164-0.02-0.247-0.03c-0.074-0.212-0.149-0.426-0.289-0.825
			c-0.065,2.091-0.746,3.689-2.264,4.814c-0.124-0.051-0.249-0.1-0.372-0.15c0.119-0.572,0.173-1.169,0.37-1.712
			c0.439-1.209,1.095-2.357,1.4-3.595c0.511-2.066,1.026-4.171,1.151-6.281c0.138-2.306-0.559-4.558-1.317-6.746
			c-0.173-0.498-0.357-0.992-0.673-1.484c-1.288,4.395-2.537,8.768-2.823,13.347c-0.413-0.054-1.188-1.098-1.184-1.71
			c0.003-1.018,0.001-2.034,0.001-3.05v-2.24c-0.998,1.113-2.485,1.51-3.957,1.89c-0.322,0.08-0.745-0.228-1.123-0.356
			c0.24-0.233,0.447-0.524,0.729-0.692c0.946-0.566,2.188-0.875,2.824-1.676c1.222-1.531,2.03-3.344,2.318-5.359
			c0.389-2.703-1.012-4.655-2.559-6.573c-0.818-1.018-1.605-2.061-2.461-3.045c-0.876-1.005-1.818-1.952-2.727-2.927
			c-0.705-0.758-1.363-1.565-2.108-2.278c-1.55-1.487-3.145-2.925-4.716-4.388c-0.545-0.506-1.078-1.024-1.673-1.589
			c-1.55,1.402-3.076,2.778-4.592,4.162c-0.518,0.474-1.02,0.967-1.507,1.47c-1.344,1.392-2.731,2.746-4.002,4.203
			c-1.387,1.588-2.672,3.265-3.983,4.916c-0.543,0.685-1.083,1.376-1.551,2.111c-1.196,1.875-0.9,3.895-0.296,5.826
			c0.78,2.489,2.239,4.475,4.857,5.361c0.225,0.075,0.396,0.303,0.595,0.456c-0.047,0.114-0.093,0.228-0.139,0.341
			c-0.86-0.21-1.75-0.342-2.57-0.654c-0.813-0.312-1.558-0.805-2.447-1.276c0,0.531,0.013,1.001-0.003,1.471
			c-0.06,1.779-0.145,3.556-0.186,5.337c-0.016,0.676-0.315,0.844-0.995,0.661c0.265-4.848-1.25-9.357-2.607-14.059
			c-0.164,0.261-0.281,0.38-0.317,0.521c-0.511,1.963-1.212,3.903-1.452,5.899c-0.216,1.802-0.178,3.718,0.202,5.487
			c0.519,2.405,1.472,4.718,2.229,7.071c0.112,0.354,0.168,0.725,0.248,1.091c-0.09,0.083-0.182,0.169-0.271,0.252
			c-0.319-0.246-0.742-0.428-0.944-0.749c-1.39-2.196-2.634-4.472-3.399-6.975c-0.112-0.363-0.139-0.751-0.223-1.214
			c-0.169,0.119-0.408,0.197-0.428,0.317c-0.428,2.316-1.007,4.624-1.185,6.963c-0.157,2.073,0.617,4.064,1.194,6.068
			c0.748,2.599,2.711,3.133,5.371,2.712c1.346-0.214,2.675-0.537,4.019-0.768c0.28-0.047,0.593,0.096,0.913,0.154
			c-0.465,1.153-0.465,1.153-8.284,2.295c2.142,1.234,4.095,2.414,6.442,2.836c1.367,0.247,2.593,0.149,3.74-0.617
			c0.311-0.207,0.549-0.521,0.823-0.784c0.235-0.226,0.475-0.445,0.792-0.746c0.401,0.934-0.2,1.355-0.584,1.781
			c-0.575,0.634-1.269,1.16-1.856,1.784c-0.089,0.096,0.052,0.545,0.21,0.711c1.271,1.333,1.736,3.034,2.212,4.73
			c0.04,0.145-0.01,0.31-0.02,0.51c-0.958,0.057-0.747-0.732-0.944-1.176c-0.354-0.801-0.611-1.651-1.023-2.421
			c-0.462-0.868-1.376-1.208-2.26-1.403c-1.056-0.234-2.15-0.294-3.516-0.465c0.2,1.868,0.393,3.652,0.582,5.414
			c-1.027-0.127-2.125-2.909-2.214-5.804c-0.907-0.449-1.822-0.903-2.773-1.376c-0.169,1.088-0.331,2.244-0.536,3.395
			c-0.111,0.623-0.189,1.285-0.465,1.838c-1.092,2.192-0.001,3.791,1.344,5.338c0.275,0.318,0.617,0.578,0.928,0.864
			c-0.02,0.097-0.039,0.194-0.059,0.292c-0.283,0-0.66,0.12-0.838-0.019c-1.16-0.903-2.391-1.751-2.9-3.258
			c-0.055-0.162-0.589-0.325-0.805-0.24c-1.808,0.703-3.67,0.52-5.525,0.39c-0.165-0.012-0.307-0.322-0.459-0.496
			c0.242-0.147,0.537-0.471,0.722-0.417c1.784,0.523,3.229-0.345,4.708-1.077c1.42-0.703,1.465-2.175,1.753-3.432
			c0.241-1.057,0.208-2.182,0.212-3.278c0.002-0.383-0.135-0.886-0.398-1.127c-1.458-1.338-2.494-2.914-3.022-4.825
			c-0.037-0.132-0.152-0.245-0.289-0.455c-0.991,3.147-3.193,5.38-5.023,7.866c-1.363,1.854-2.656,3.796-3.684,5.845
			c-1.084,2.172-1.033,4.399,0.91,6.223c-0.704,0.853-1.285,0.495-2.238-1.473c-0.469,0.645-0.838,1.243-1.298,1.759
			c-0.511,0.573-1.066,1.12-1.678,1.577c-0.294,0.219-0.763,0.21-1.234,0.322c0.935-1.502,1.825-2.747,2.509-4.098
			c0.43-0.852,0.549-1.857,0.801-2.796c0.266-0.978,0.523-1.957,0.835-3.126c-0.289,0.029-0.632,0.086-0.976,0.1
			c-1.746,0.073-3.489,0.171-5.234,0.182c-0.63,0.003-0.994,0.16-1.271,0.753c-0.678,1.45-1.42,2.867-2.158,4.286
			c-0.111,0.212-0.349,0.357-0.67,0.447c0.222-2.124,0.973-4.029,1.977-5.814c-0.609-0.872-1.24-1.751-1.832-2.653
			c-0.096-0.149-0.02-0.414-0.022-0.625c0.18,0.075,0.43,0.099,0.53,0.233c1.051,1.427,2.41,1.946,4.201,1.871
			c1.97-0.083,3.907-0.208,5.784-0.824c0.431-0.141,0.939-0.363,1.178-0.709c1.535-2.235,3.009-4.517,4.496-6.786
			c0.025-0.039-0.017-0.122-0.04-0.251c-1.953,0.848-3.904,1.69-6.115,1.461c-0.29-0.779,0.24-0.945,0.772-1.139
			c1.408-0.517,2.885-0.908,4.196-1.607c2.255-1.197,3.61-3.502,3.167-6.454c-0.037-0.255-0.004-0.518-0.004-0.893
			c-0.277,0.012-0.583-0.069-0.73,0.046c-1.855,1.494-4.021,2.36-6.26,3.034c-2.552,0.77-5.136,1.429-7.693,2.176
			c-0.279,0.082-0.654,0.405-0.691,0.659c-0.207,1.464-0.333,2.939-0.465,4.41c-0.037,0.414-0.006,0.836-0.006,1.308h-1.02
			c-0.086-1.413-0.174-2.869-0.269-4.475c-0.72,0.94-1.41,1.792-2.037,2.685c-1.261,1.794-2.569,3.562-3.707,5.432
			c-1.644,2.703-1.386,5.603-0.704,8.554c0.488,2.111,1.922,3.149,3.752,3.898c0.27,0.11,0.494,0.327,0.74,0.496
			c-0.057,0.132-0.115,0.262-0.174,0.395c-0.791-0.245-1.608-0.427-2.364-0.752c-0.556-0.238-0.71-0.127-0.88,0.423
			c-0.232,0.763-0.562,1.5-0.922,2.214c-0.1,0.201-0.44,0.281-0.725,0.448c-0.023-0.19-0.778-6.473-0.765-6.355
			c-2.977,1.976-5.049,4.568-4.859,8.525c-0.244,0.026-0.514,0.055-0.905,0.096c0.023-2.115,0.44-4.069,1.372-5.94
			c-1.508-0.529-3.322,0.067-4.539-1.179c0.029-0.111,0.059-0.227,0.088-0.342c0.307,0.037,0.62,0.044,0.92,0.111
			c3.525,0.777,5.355,0.267,6.757-2.706c0.218-0.464,0.344-1.036,0.311-1.544c-0.132-2.073,0.085-4.092,0.756-6.242
			c-0.539,0.14-0.996,0.277-1.462,0.377c-1.334,0.282-2.661,0.622-4.009,0.799c-0.965,0.124-1.961-0.01-2.939,0.044
			c-0.314,0.016-0.703,0.183-0.903,0.415c-1.715,1.974-2.845,4.221-3.086,6.95c-0.219,0.013-0.466,0.028-0.71,0.041v-1.367
			c0.388-1.05,0.746-2.111,1.174-3.145c0.374-0.91,0.748-1.836,1.272-2.658c0.321-0.503,0.219-0.708-0.076-1.149
			c-0.722-1.081-1.327-2.238-1.955-3.379c-0.078-0.142-0.01-0.366,0.22-0.726c0.249,0.243,0.522,0.467,0.741,0.73
			c0.609,0.744,1.285,1.453,1.772,2.271c0.67,1.126,1.677,1.146,2.724,1.003c1.482-0.201,2.963-0.458,4.426-0.774
			c1.923-0.415,3.57-1.258,4.646-3.043c0.332-0.552,1.004-0.898,1.576-1.384c-1.537-0.274-2.838-0.496-4.127-0.771
			c-0.078-0.016-0.064-0.471-0.069-0.526c1.614-0.22,3.209-0.267,4.7-0.688c1.686-0.477,2.157-2.25,3.146-3.553
			c-1.226-0.709-2.393-1.455-3.626-2.073c-1.256-0.633-2.514-0.143-3.707,0.294c-0.889,0.326-1.719,0.821-2.578,1.234
			c-1.391,0.67-1.625,2.087-2.005,3.33c-0.391,1.272-0.503,2.627-0.739,3.955c-0.815-0.004-1.232-0.466-0.801-1.117
			c0.372-0.56,0.193-0.973,0.174-1.513c-0.035-0.908,0.115-1.856,0.375-2.731c0.209-0.705-0.021-0.768-0.592-0.785
			c-1.522-0.05-3.044-0.106-4.562-0.214c-0.774-0.054-0.509-0.638-0.511-0.963c1.683,0,3.303,0.093,4.906-0.04
			c0.782-0.063,1.625-0.403,2.268-0.862c1.608-1.144,3.344-1.963,5.279-2.537c-0.011-0.111,0.034-0.313-0.045-0.405
			c-0.817-0.944-1.596-1.936-2.503-2.788c-1.706-1.601-3.758-1.869-5.977-1.338c-0.242,0.059-0.537-0.105-0.81-0.164
			c0.178-0.217,0.316-0.565,0.539-0.635c1.556-0.489,3.147-0.567,4.756-0.288c0.148,0.025,0.298,0.034,0.339,0.039v-8.522h0.984
			c0,1.37-0.057,2.707,0.016,4.037c0.068,1.213,0.233,2.425,0.43,3.626c0.234,1.429,1.306,2.31,2.336,3.14
			c1.637,1.321,3.267,2.662,5.295,3.391c1.887,0.678,3.785,0.881,5.735,0.357c0.889-0.237,1.803-0.419,2.656-0.749
			c1.802-0.697,3.571-1.479,5.586-2.321c-2.645-0.461-5.073-0.933-7.218-2.21c0.02-0.102,0.037-0.202,0.056-0.305
			c0.919,0,1.896-0.204,2.743,0.038c2.158,0.621,4.33,0.705,6.483,0.289c1.802-0.35,3.122-1.57,3.845-3.241
			c0.584-1.348,0.92-2.803,1.353-4.215c0.031-0.103-0.05-0.238-0.056-0.264c-0.458-0.035-0.849-0.004-1.203-0.099
			c-1.321-0.356-2.551-0.393-3.605,0.685c-0.21,0.215-0.572,0.275-1.097,0.516c0.171-0.8,0.282-1.317,0.428-1.987
			c-1.006,0.233-2.008,0.441-2.994,0.696c-2.155,0.555-4.329,1.051-6.444,1.729c-1.266,0.407-2.457,1.07-3.631,1.713
			c-0.286,0.156-0.518,0.682-0.52,1.037c-0.01,1.127,0.102,2.253,0.161,3.381c0.014,0.251,0.002,0.509,0.002,0.772
			c-0.723,0.245-1.105,0.044-1.166-0.679c-0.107-1.303-0.169-2.609-0.345-3.902c-0.038-0.279-0.445-0.553-0.74-0.741
			c-0.332-0.21-0.727-0.319-1.096-0.472c0.002-0.102,0.003-0.201,0.005-0.302c0.646-0.15,1.299-0.281,1.941-0.458
			c0.729-0.201,1.467-0.398,2.17-0.68c2.385-0.95,4.754-1.938,7.227-2.951c-1.289-1.354-2.093-3.511-4.33-3.939
			c-2.16-0.413-4.142,0.477-6.053,1.523c-0.551-0.458-0.451-0.818,0.178-1.031c1.74-0.588,3.478-1.193,5.247-1.686
			c0.571-0.157,0.812-0.282,0.688-0.891c-0.24-1.186-0.451-2.378-0.653-3.572c-0.085-0.499-0.119-1.007-0.177-1.512
			c0.098-0.061,0.194-0.122,0.292-0.185c0.177,0.235,0.44,0.442,0.515,0.705c0.497,1.702,0.881,3.439,1.461,5.11
			c0.206,0.589,0.805,1.086,1.312,1.522c1.012,0.871,2.047,1.732,3.147,2.485c1.325,0.907,2.704,0.152,4.05-0.073
			c0.457-0.077,0.895-0.268,1.192-0.363c-1.431-1.828-2.903-3.679-4.324-5.57c-0.142-0.188,0.029-0.613,0.057-0.928
			c0.237,0.123,0.526,0.198,0.706,0.382c1.23,1.264,2.33,2.687,3.689,3.791c1.137,0.931,2.556,1.547,4.154,1.221
			c0.522-0.104,0.843-0.27,1.028-0.917c0.654-2.271,1.469-4.495,2.18-6.75c0.071-0.222-0.064-0.682-0.243-0.785
			c-2.036-1.181-4.101-2.175-6.554-2.35c-2.55-0.181-4.922,0.357-7.33,0.982c-0.412,0.105-0.933-0.2-1.398-0.475
			c2.031-1.414,4.322-1.903,6.657-2.536c-1.153-0.22-2.302-0.478-3.464-0.651c-4.121-0.616-7.798,0.753-11.354,2.616
			c-0.695,0.365-1.402,0.716-2.067,1.133c-0.843,0.533-1.462,1.29-1.466,2.317c-0.007,1.484,0.123,2.97,0.164,4.454
			c0.01,0.337-0.11,0.678-0.352,1.014c-1.076-2.021-1.266-4.18-1.193-6.677c-1.111,0.716-2.09,1.265-2.973,1.94
			c-0.894,0.682-1.693,1.486-2.533,2.238c-0.098-0.064-0.195-0.129-0.292-0.193c0.189-0.394,0.295-0.863,0.577-1.167
			c2.307-2.483,5.02-4.422,8.036-5.958c1.464-0.743,2.892-1.562,4.418-2.389c-0.923-0.746-1.468-2.109-2.993-2.06
			c-1.209,0.039-2.415,0.189-3.621,0.292c-0.022-0.154-0.042-0.31-0.062-0.465c1.348-0.396,2.695-0.791,4.105-1.202
			c-0.474-1.39-0.979-2.868-1.482-4.346c0.096-0.066,0.191-0.132,0.286-0.197c0.205,0.131,0.507,0.213,0.601,0.398
			c0.554,1.087,1.039,2.208,1.585,3.299c1.022,2.045,3.193,3.125,5.421,2.794c1.613-0.239,3.239-0.392,4.86-0.591
			c0.209-0.026,0.413-0.104,0.488-0.123c-0.204-1.829-0.493-3.557-0.56-5.29c-0.056-1.472-0.906-2.413-2.027-2.842
			c-1.671-0.644-3.489-0.909-5.252-1.309c-0.234-0.053-0.511,0.097-0.758,0.065c-0.262-0.033-0.513-0.166-0.77-0.257
			c0.234-0.199,0.451-0.549,0.703-0.575c1.343-0.145,2.694-0.21,3.886-0.29c0.15-1.997,0.297-3.98,0.466-5.961
			c0.002-0.014,0.303-0.002,0.542-0.002c0.017,0.287,0.028,0.571,0.05,0.852c0.129,1.732,0.213,3.471,0.433,5.19
			c0.044,0.329,0.593,0.64,0.964,0.869c0.723,0.444,1.484,0.828,2.176,1.208c0.231-2.439,0.558-5.007,0.691-7.587
			c0.128-2.516,0.549-4.961,0.863-7.432c0.16,0.022,0.32,0.045,0.48,0.067v5.605c0.801-0.753,1.488-1.399,2.178-2.048
			c0.121,0.087,0.242,0.174,0.362,0.259c-0.193,0.464-0.28,1.028-0.601,1.372c-2.067,2.226-2.363,4.881-1.976,7.842
			c0.52-0.618,0.955-1.217,1.482-1.718c0.198-0.189,0.612-0.147,0.928-0.21c-0.014,0.255,0.054,0.553-0.056,0.761
			c-0.966,1.853-2.461,3.508-2.667,5.649c-0.153,1.595,0.093,3.241,0.296,4.85c0.076,0.596,2.676,1.502,3.26,1.218
			c0.18-0.087,0.309-0.382,0.365-0.603c0.467-1.882,0.867-3.781,1.377-5.65c0.749-2.762,1.477-5.533,2.402-8.232
			c0.49-1.43,0.262-2.801,0.253-4.207c-0.001-0.371-0.095-0.743-0.151-1.135c0.832,0.077,0.909,0.253,1.02,1.701
			c0.057,0.758,0.185,1.512,0.301,2.441c0.684-0.802,1.291-1.508,1.893-2.22c0.673-0.798,1.268-1.679,2.033-2.377
			c0.785-0.717,0.771-1.506,0.539-2.373c-0.202-0.766-0.375-1.57-0.759-2.245c-0.291-0.515-0.835-0.951-1.364-1.248
			c-0.734-0.415-1.57-0.648-2.342-1.005c-0.228-0.104-0.387-0.358-0.577-0.544c0.068-0.126,0.136-0.251,0.204-0.377
			c1.244,0.407,2.488,0.812,3.731,1.216c0.168-2.076,0.741-3.338,1.651-3.335c-0.168,0.691-0.321,1.358-0.497,2.019
			c-0.267,1.009-0.191,1.943,0.216,2.94c0.453,1.107,0.668,2.312,1.014,3.583c1.281-0.388,2.242-1.31,2.93-2.461
			c0.41-0.686,0.531-1.542,0.801-2.317c0.07-0.2,0.213-0.373,0.322-0.559c0.119,0.038,0.237,0.076,0.354,0.115
			c-0.14,1.191-0.278,2.382-0.421,3.606c0.851,0.262,2.022,0.158,2.892,0.896c-0.017,0.105-0.03,0.209-0.044,0.314
			c-0.463,0-0.979,0.135-1.382-0.023c-1.642-0.649-2.939,0.205-4.093,1.049c-2.407,1.76-4.572,3.789-6.148,6.387
			c-1.525,2.516-2.502,5.213-3.02,8.092c-0.061,0.335-0.091,0.676-0.137,1.029c1.557-1.168,2.991-2.269,4.453-3.328
			c0.691-0.5,1.518-0.837,2.143-1.404c1.045-0.953,1.989-2.023,2.954-3.062c0.518-0.56,0.957-1.199,1.511-1.719
			c0.2-0.189,0.633-0.131,0.957-0.185c0.053,0.071,0.103,0.142,0.156,0.214c-0.945,1.51-1.89,3.02-2.938,4.691
			c1.595,0,3.072-0.004,4.552,0c0.702,0.002,1.222,0.263,1.489,1.158c-1.09,0-2.062-0.041-3.03,0.012
			c-1.186,0.062-2.458-0.036-3.53,0.366c-1.619,0.611-3.139,1.53-4.623,2.443c-1.001,0.615-1.934,1.378-2.784,2.193
			c-1.227,1.171-1.952,2.65-2.118,4.35c-0.022,0.225,0.348,0.604,0.617,0.722c1.652,0.718,3.33,1.375,4.994,2.059
			c0.143,0.061,0.27,0.168,0.398,0.261c0.933,0.672,1.604,0.576,2.477-0.104c0.748-0.586,1.183-1.417,1.857-2.043
			c0.715-0.663,1.436-1.317,2.163-1.971c1.632-1.463,3.308-2.883,4.889-4.401c1.057-1.011,1.907-2.244,2.995-3.216
			c0.757-0.68,1.018-1.666,1.692-2.305c1.597-1.512,1.45-3.532,1.701-5.39c0.73-5.407,0.591-10.86,0.624-16.302
			c0.037-6.113,0.094-12.224,0.203-18.333c0.052-2.812,0.246-5.619,0.388-8.427c0.01-0.181,0.12-0.357,0.186-0.536h6.645
			c0.065,0.309,0.181,0.616,0.188,0.927c0.078,3.12,0.152,6.24,0.2,9.361c0.077,4.973,0.124,9.944,0.204,14.917
			c0.039,2.364,0.118,4.729,0.194,7.096c0.049,1.56,0.192,3.121,0.177,4.684c-0.027,3.099,0.119,6.17,0.777,9.218
			c0.117,0.536,0.045,1.264,0.434,1.553c0.977,0.732,0.798,2.091,1.882,2.835c1.082,0.741,1.746,2.058,2.726,2.979
			c2.403,2.258,4.899,4.417,7.318,6.659c0.596,0.55,0.989,1.312,1.565,1.889c0.593,0.59,1.266,1.117,1.971,1.563
			c0.172,0.108,0.617-0.203,0.93-0.336c1.883-0.808,3.77-1.614,5.643-2.442c0.383-0.168,0.725-0.431,1.391-0.701
			c-0.516-1.225-0.855-2.571-1.6-3.634c-0.681-0.972-1.754-1.699-2.738-2.421c-1.101-0.807-2.299-1.478-3.445-2.221
			c-1.292-0.837-2.688-1.306-4.237-1.298c-1.369,0.006-2.738,0-4.099,0c-0.266-0.752,0.164-0.933,0.689-0.967
			c1.303-0.088,2.61-0.145,3.915-0.204c0.343-0.016,0.689-0.001,1.111-0.001c-1.145-1.642-2.342-3.106-2.99-4.878
			c0.11-0.107,0.221-0.216,0.33-0.326c0.322,0.25,0.713,0.442,0.945,0.755c0.76,1.022,1.359,2.174,2.209,3.105
			c0.707,0.769,1.662,1.323,2.537,1.933c2.053,1.434,4.124,2.844,6.161,4.244c-0.11-0.759-0.148-1.671-0.385-2.526
			c-1.151-4.195-3.026-8.004-6.357-10.913c-1.354-1.185-2.826-2.285-4.396-3.148c-0.694-0.383-1.763-0.098-2.661-0.09
			c-0.307,0.003-0.611,0.086-0.964-0.014c0.768-1.021,2.111-0.606,2.88-1.065c-0.17-1.271-0.325-2.446-0.48-3.62
			c0.111-0.03,0.223-0.06,0.334-0.091c0.386,1.012,0.601,2.142,1.204,3.005c0.661,0.94,1.681,1.631,2.77,2.638
			c0.591-3.156,2.65-5.776,0.69-8.866c0.752,0.066,0.785,0.055,1.332,1.47c0.233,0.609,0.295,1.285,0.42,1.863
			c1.357-0.417,2.664-0.82,3.969-1.223c0.057,0.12,0.109,0.236,0.164,0.355c-0.174,0.129-0.33,0.298-0.524,0.379
			c-0.757,0.32-1.515,0.636-2.288,0.91c-1.529,0.541-2.042,1.79-2.307,3.225c-0.035,0.188-0.072,0.375-0.1,0.564
			c-0.135,0.876-0.226,1.622,0.573,2.409c1.395,1.372,2.571,2.968,3.897,4.543c0.105-0.867,0.208-1.735,0.322-2.601
			c0.055-0.41,0.1-0.828,0.223-1.22c0.049-0.147,0.307-0.23,0.471-0.342c0.076,0.16,0.238,0.331,0.217,0.477
			c-0.334,2.332,0.022,4.514,0.777,6.779c1.216,3.64,2.021,7.416,2.987,11.139c0.063,0.245-0.059,0.55,0.036,0.771
			c0.119,0.268,0.34,0.626,0.577,0.682c1.823,0.421,3.564-0.978,3.485-2.862c-0.057-1.358,0.392-2.744-0.177-4.072
			c-0.398-0.932-0.772-1.882-1.265-2.762c-0.621-1.112-1.369-2.152-2.018-3.249c-0.133-0.229-0.061-0.578-0.086-0.872
			c0.101-0.011,0.201-0.024,0.301-0.036c1.035,1.141,2.071,2.279,3.216,3.542c-0.076-1.443-0.061-2.769-0.233-4.068
			c-0.358-2.702-2.448-4.323-4.048-6.249c-0.263-0.315-0.434-0.707-0.647-1.065c0.122-0.094,0.246-0.191,0.369-0.288
			c1.385,1.287,2.768,2.574,4.164,3.874v-5.443c0.092-0.035,0.182-0.071,0.272-0.106c0.121,0.145,0.334,0.281,0.352,0.438
			c0.345,3.224,0.672,6.445,0.993,9.67c0.168,1.678,0.324,3.359,0.479,4.969c0.76-0.441,1.555-0.998,2.426-1.391
			c1.299-0.588,0.762-1.798,0.961-2.709c0.251-1.153,0.157-2.375,0.256-3.566c0.02-0.238,0.236-0.461,0.36-0.691
			c0.135,0.254,0.381,0.503,0.388,0.759c0.036,1.643,0.017,3.285,0.022,4.93c0.001,0.185,0.046,0.37,0.061,0.492
			c1.56,0.089,3.053,0.175,4.585,0.265v0.791c-0.061,0.017-0.11,0.048-0.154,0.043c-2.611-0.282-5.029,0.351-7.225,1.715
			c-0.891,0.552-1.236,1.564-1.336,2.622c-0.157,1.683-0.326,3.364-0.497,5.107c0.751,0.076,1.604,0.168,2.46,0.253
			c1.341,0.133,2.678,0.304,4.021,0.383c2.032,0.118,3.329-1.108,4.315-2.655c0.68-1.067,1.135-2.277,1.704-3.416
			c0.105-0.21,0.273-0.389,0.413-0.582c0.089,0.021,0.179,0.045,0.268,0.068c-0.069,0.434-0.081,0.887-0.223,1.294
			c-0.322,0.932-0.667,1.86-1.086,2.75c-0.246,0.524-0.162,0.675,0.394,0.806c1.224,0.285,2.429,0.653,3.641,0.987
			c0.002,0.12,0.002,0.243,0.003,0.364c-0.316,0.042-0.638,0.144-0.945,0.111c-0.535-0.057-1.064-0.188-1.591-0.306
			c-1.933-0.436-3.011,0.828-4.22,2.149c0.904,0.435,1.791,0.792,2.61,1.267c2.044,1.179,4.127,2.31,6.058,3.652
			c1.469,1.021,2.75,2.323,4.065,3.553c0.213,0.2,0.163,0.682,0.234,1.03c-0.311-0.151-0.707-0.227-0.917-0.467
			c-1.303-1.486-2.976-2.444-4.724-3.6c0.076,2.421-0.136,4.616-1.315,6.7c-0.079-0.272-0.249-0.552-0.226-0.816
			c0.083-0.952,0.196-1.905,0.361-2.849c0.318-1.812-0.527-3.562-2.234-4.385c-1.938-0.935-3.837-2.008-5.867-2.682
			c-1.76-0.583-3.671-0.902-5.525-0.949c-1.636-0.041-3.283,0.457-4.895,0.943c1.445,0.381,2.901,0.725,4.332,1.156
			c0.818,0.248,1.598,0.632,2.385,0.975c0.115,0.051,0.219,0.19,0.26,0.315c0.018,0.053-0.133,0.236-0.212,0.238
			c-0.652,0.02-1.32,0.101-1.955-0.007c-1.093-0.184-2.153-0.576-3.249-0.731c-2.173-0.31-4.365-0.445-6.467,0.394
			c-0.994,0.396-1.934,0.927-2.9,1.391c-0.471,0.227-0.948,0.443-1.421,0.664c0.596,1.536,1.2,3.004,1.73,4.501
			c0.274,0.772,0.457,1.586,0.612,2.394c0.228,1.199,0.736,1.793,1.897,1.533c1.24-0.273,2.571-0.701,3.545-1.466
			c1.48-1.163,2.688-2.677,4.061-4.095c0.092,0.083,0.276,0.251,0.64,0.575c-1.585,1.978-3.156,3.941-4.704,5.873
			c2.311,0.845,4.18,1.661,6.368-0.193c1.561-1.324,3.224-2.563,3.847-4.643c0.373-1.245,0.635-2.522,0.983-3.774
			c0.073-0.266,0.301-0.485,0.594-0.936c0.532,2.349-0.534,4.144-0.754,6.101c2.139,0.592,4.369,0.986,6.268,2.211
			c-0.05,0.152-0.101,0.304-0.15,0.456c-0.794-0.271-1.579-0.568-2.38-0.811c-1.751-0.532-3.547-0.862-5.146,0.302
			c-0.774,0.565-1.327,1.439-1.955,2.194c-0.31,0.371-0.562,0.788-0.77,1.087c2.862,1.165,5.661,2.336,8.491,3.43
			c0.496,0.189,1.151,0.191,1.67,0.05c1.957-0.541,3.746-1.424,5.146-2.962c0.081-0.091,0.202-0.162,0.317-0.201
			c0.083-0.029,0.186,0.008,0.551,0.039c-0.35,0.525-0.535,1.083-0.918,1.334c-1.754,1.145-3.567,2.197-5.344,3.307
			c-0.193,0.118-0.395,0.378-0.42,0.59c-0.141,1.2-0.183,2.411-0.357,3.605c-0.06,0.41-0.402,0.78-0.615,1.167
			c-0.117-0.047-0.236-0.096-0.354-0.145c0.039-0.7-0.013-1.417,0.132-2.096c0.385-1.771-0.555-3.518-2.277-4.099
			c-1.203-0.401-2.386-0.874-3.606-1.212c-2.019-0.556-4.061-1.024-6.095-1.534c-0.572-0.145-1.139-0.307-1.878-0.507
			c0.378,1.053,1.562,1.697,0.812,2.731c-0.954-0.677-1.824-1.613-2.886-1.954c-1.051-0.337-2.295-0.073-3.605-0.073
			c0.753,2.928,1.401,5.635,3.812,7.258c0.938,0.632,2.285,0.877,3.453,0.898c1.584,0.027,3.171-0.365,4.762-0.508
			c0.873-0.077,1.758-0.015,2.672,0.104c-2.006,1.466-4.357,1.92-6.79,2.322c0.049,0.086,0.081,0.226,0.163,0.266
			c2.69,1.329,5.448,2.527,8.397,3.082c1.768,0.333,3.563,0.065,5.28-0.692c2.469-1.086,4.55-2.698,6.387-4.605
			c0.58-0.601,0.918-1.602,1.025-2.462c0.292-2.364,0.404-4.753,0.593-7.189c0.846-0.081,0.968,0.728,0.97,1.256
			c0.005,2.264-0.117,4.526-0.188,6.791c-0.006,0.194,0.009,0.392,0.016,0.587c0.201-0.023,0.402-0.046,0.603-0.073
			c0.471-0.062,0.969-0.255,1.411-0.168c1.246,0.244,2.574,0.259,3.681,0.982c-0.01,0.118-0.018,0.238-0.024,0.355
			c-0.556,0-1.114,0.047-1.662-0.008c-2.384-0.237-4.454,0.275-5.983,2.286c-0.564,0.741-1.212,1.419-1.852,2.158
			c0.797,0.337,1.609,0.642,2.387,1.021c0.968,0.474,1.958,0.933,2.837,1.544c0.901,0.626,1.807,1.043,2.916,1.025
			c1.534-0.024,3.069-0.007,4.64-0.007c0.075,0.673-0.223,0.946-0.797,0.976c-1.588,0.083-3.177,0.145-4.762,0.254
			c-0.138,0.01-0.381,0.332-0.361,0.483c0.201,1.622,0.475,3.237,0.652,4.863c0.036,0.345-0.238,0.723-0.371,1.087
			c-0.1-0.005-0.197-0.011-0.297-0.015c-0.088-0.238-0.199-0.471-0.262-0.716c-0.464-1.832-0.859-3.688-1.415-5.489
			c-0.153-0.494-0.708-0.971-1.196-1.231c-1.166-0.624-2.404-1.111-3.611-1.657c-1.417-0.642-2.687-0.154-3.905,0.549
			c-0.792,0.458-1.546,0.981-2.278,1.45c1.409,3.769,4.31,4.757,8.108,3.878c-0.263,1.045-0.263,1.045-4.383,1.525
			c0.585,0.696,1.162,1.3,1.643,1.974c1.506,2.111,3.752,2.679,6.123,3.02c0.853,0.121,1.707,0.246,2.559,0.391
			c1.435,0.243,2.508-0.237,3.297-1.48c0.49-0.776,1.098-1.478,1.932-2.201c-0.051,0.455,0.02,0.971-0.177,1.35
			c-0.467,0.901-1.011,1.775-1.622,2.585c-0.289,0.382-0.31,0.598-0.052,0.969c1.294,1.849,1.938,3.978,2.55,6.113
			c0.153,0.529,0.059,0.603-0.646,0.604c-0.482-2.373-1.309-4.6-2.99-6.402c-0.3-0.32-0.867-0.471-1.335-0.544
			c-0.856-0.127-1.737-0.093-2.597-0.208c-1.855-0.249-3.701-0.55-5.367-0.801c0.141,0.876,0.357,1.906,0.459,2.947
			c0.12,1.224,0.005,2.48,0.233,3.677c0.573,2.991,2.936,4.468,6.036,3.845c0.435-0.087,0.852-0.268,1.289-0.322
			c0.203-0.026,0.433,0.145,0.65,0.226c-0.162,0.195-0.298,0.522-0.494,0.563c-1.304,0.281-2.621,0.504-3.985,0.754
			c0.354,1.169,0.8,2.362,1.06,3.594c0.175,0.81,0.083,1.678,0.111,2.518H502.196z"/>
	</g>
	<g>
		<defs>
			<rect id="SVGID_272_" x="0.5" y="-1.572" width="1600" height="981.346"/>
		</defs>
		<clipPath id="SVGID_2_">
			<use xlink:href="#SVGID_272_"  overflow="visible"/>
		</clipPath>
		<path clip-path="url(#SVGID_2_)" fill="#FFFFFF" d="M-166.795,569.743c0,0-4.189,0,25.318,24.012
			c29.507,24.017,23.294,31.707,41.931,31.461c18.637-0.241,40.378,23.771,60.566,47.782c0,0,38.826,28.815,86.968,0
			c48.144-28.818,63.157-73.642,82.827-70.435c19.671,3.202,16.266-11.204,23.663-11.204c7.395,0,15.68-12.808,39.49,24.011
			c23.816,36.815,92.146,76.842,92.146,76.842s21.742,1.6,33.133,24.013c11.387,22.407,40.018,33.62,53.141,33.62
			c13.119,0,45.805-6.41,59.487,20.805c13.681,27.219,49.919,22.416,62.342,25.615c12.425,3.203,33.13-3.203,74.546,32.018
			c41.414,35.219,68.332-11.205,88.004-28.815c19.669-17.609,149.268-171.293,149.268-171.293s13.278-17.61,30.881,17.609
			c17.598,35.216,15.532,46.428,24.851,46.428c9.318,0,11.384-19.213,22.775-19.213c11.389,0,16.567,31.264,19.672,32.442
			c3.106,1.179,40.375,43.651,95.25,0c0,0,47.626-122.087,57.979-123.69c10.354-1.6,24.848,16.006,24.848,16.006
			s32.098,11.212,47.625,6.405c15.533-4.802,68.337-27.209,80.76-27.209s25.885,32.896,41.412,54.866
			c15.531,21.97,170.65,340.545,217.332,364.557c46.686,24.012,147.109,83.408,191.631,86.611
			c44.518,3.203-1776.595-2.234-1827.846-0.635V569.743z"/>
		<path clip-path="url(#SVGID_2_)" fill="#103844" d="M1222.443,769.727l27.493,27.052c0,0,6.577,8.041,12.427,10.234
			c5.855,2.192,11.699,8.774,15.356,13.159c3.657,4.39,12.427,0,12.427,0s-2.92-5.85-2.92-8.77c0-2.926,2.92-9.503,2.92-9.503
			s0.732-8.778,8.047-10.971c7.311-2.192,17.717,5.113,14.705,14.619c-3.011,9.507-8.127,16.575-8.127,16.575l-1.461,4.631
			c0,0,0,5.851,6.577,7.31c6.583,1.464,11.434,8.042,11.568,21.935c0.131,13.895-1.161,36.565-1.976,40.219
			c-0.813,3.655-6.582,23.394-6.582,23.394s-4.471,5.85-8.859,4.389c-4.385-1.46-1.461-2.929,0.732-8.774
			c2.197-5.849-0.729-4.384,2.928-8.774c3.653-4.385,0.729-47.527,0.729-47.527s-11.695,20.473-11.695,24.861
			c0,4.39,2.922,32.905,2.922,32.905s4.385,29.976,5.117,32.9c0.732,2.921,8.127,25.75,8.127,25.75h-16.166l-10.238-27.947
			l-8.042-29.243l1.461,28.516l3.612,28.675l-18.965,0.028l-9.952-60.876c0,0-0.288-16.083,7.755-38.021
			c8.047-21.935,5.855-38.751,5.855-38.751s-24.132-23.398-25.593-26.318c-1.464-2.926-20.183-32.905-20.183-32.905V769.727z"/>
		<path clip-path="url(#SVGID_2_)" fill-rule="evenodd" clip-rule="evenodd" fill="#2CBFD1" d="M1227.459,928.623
			c-6.815,12.034-13.531,23.893-20.399,36.021c36.513,8.169,50.547-3.457,52.657,4.246c5.683-1.887,98.088-2.1,99.869-5.522
			c8.36-16.056,18.447-32.377,21.613-49.746c7.176-39.355,10.641-79.378,15.609-119.134c1.771,0.123,3.56,0.245,5.346,0.368
			c-2.658,35.547-5.312,71.099-8.106,108.568c25.632,1.873,50.399,4.119,75.226,4.99c3.535,0.127,10.015-6.128,10.473-9.985
			c1.578-13.269,1.967-26.842,0.957-40.165c-0.394-5.175-5.707-9.977-10.783-18.212c13.396,0,24.736,0.426,36.037-0.151
			c7.064-0.355,19.781-1.398,20.079-3.538c1.31-9.244,1.321-20.097-2.54-28.336c-6.11-13.044-15.654-24.51-23.857-36.565
			c-21.988-32.308-44.004-64.577-66.076-96.815c-2.18-3.186-4.822-6.061-9.87-12.338c-5.286,28.606-9.948,53.809-14.604,79.011
			c-1.407-0.073-2.819-0.155-4.23-0.234c1.097-12.991,1.825-26.032,3.403-38.966c1.486-12.112,4.877-24.069,5.507-36.201
			c0.454-8.64-2.598-17.414-3.423-26.201c-0.446-4.713,0.489-9.555,0.805-14.345c1.98-0.844,3.964-1.694,5.948-2.536
			c1.538,4.449,3.081,8.908,4.536,13.154c4.811-3.804,6.352-4.683,7.457-5.943c36.938-42.015,74.229-83.734,110.361-126.424
			c6.378-7.543,7.609-19.314,11.859-28.85c2.016-4.532,5.543-8.386,8.385-12.542c3,3.947,8.35,7.752,8.592,11.859
			c1.034,17.426-2.025,35.437,1.161,52.343c6.528,34.623-0.916,68.729-0.438,103.058c0.577,40.804-0.408,81.636-0.498,122.443
			c-0.014,6.849,1.109,13.684,1.779,21.332h42.615c-10.223-48.402-20.24-95.85-30.258-143.288c1.906-0.4,3.809-0.802,5.719-1.198
			c11.094,47.729,22.184,95.457,33.666,144.852c39.312,0,78.334,0.716,117.281-0.573c8.307-0.274,17.409-6.59,24.359-12.288
			c24.424-20.052,52.812-29.665,83.508-33.093c7.191-0.81,14.857,2.63,22.307,4.111c-0.282,1.923-0.564,3.841-0.848,5.775
			c-5.268,1.317-10.545,2.643-16.296,4.087c-2.815,35.249,22.493,60.189,32.753,92.078c-4.9,1.53-10.125,3.167-18.22,5.695
			c6.3,20.771,12.288,41.74,19.353,62.348c0.986,2.852,7.273,5.384,11.176,5.49c32.092,0.855,64.189,1.551,96.276,1.149
			c6.131-0.083,13.495-3.85,18.06-8.226c30.144-28.949,65.707-46.167,107.14-51.088c10.983-1.305,22.933-3.584,32.692,11.408
			c-9.822,1.162-17.262,2.042-26.724,3.158c0.549,11.404,1.08,22.486,1.689,35.314c-25.983,18.002-42.452,44.182-44.649,81.758
			h-707.533c-0.004,2.07-0.012,4.148-0.012,6.223h705.336c-4.286,31.334-7.641,59.547-12.553,87.48
			c-0.623,3.538-9.295,7.961-14.333,8.08c-47.387,1.07-94.792,1.402-142.181,1.754c-102.301,0.769-204.604-1.166-306.9-0.262
			c-102.16,0.896-288.756-0.233-390.919,0.81c-18.988,0.196-27.216-1.857-29.294-20.265c-2.811-24.76-5.035-49.582-7.563-74.375
			c-1.113-10.873-2.459-21.066,9.199-28.654c4.732-3.085,6.412-10.869,9.431-16.538
			C1204.384,926.586,1204.376,926.576,1227.459,928.623 M1551.938,508.221c-1.366-0.686-2.729-1.378-4.095-2.068
			c-39.854,45.761-79.703,91.518-119.096,136.735c35.113,52.098,68.542,101.7,103.785,153.989
			c7.73-12.651,18.488-22.126,18.632-31.771C1552.49,679.498,1551.938,593.854,1551.938,508.221 M1584.241,828.571
			c16.69,2.88,16.69,2.88,37.417-14.354c-5.824-35.547-7.903-37.105-37.417-28.466V828.571z M1518.379,891.553
			c2.377,0.193,4.749,0.381,7.118,0.574c1.12-14.084,2.237-28.164,3.284-41.389c-8.119,0-13.736,0.27-19.315-0.069
			c-6.665-0.409-13.296-1.339-20.917-2.147v44.836c8.223,0.961,15.367,1.791,22.537,2.627c0.748-12.615,1.416-23.853,2.086-35.082
			c1.288,0.099,2.576,0.185,3.865,0.279C1517.482,871.305,1517.933,881.43,1518.379,891.553 M1667.42,784.785
			c-39.336-5.461-41.111-3.727-34.173,33.776h35.506c0-11.036,0.04-20.837-0.057-30.639
			C1668.684,786.868,1667.882,785.828,1667.42,784.785 M2113.096,862.768c-31.936,2.635-37.108,9.753-26.793,35.553
			C2116.745,894.606,2116.787,900.504,2113.096,862.768 M2024.847,904.271c0.712,1.419,1.423,2.838,2.131,4.262
			c9.392-1.309,18.857-2.245,28.159-4.008c20.797-3.948,21.271-4.966,15.945-31.49
			C2054.838,884.012,2039.838,894.139,2024.847,904.271 M1718.588,783.701H1675.6c0.688,9.045,1.277,16.825,1.85,24.336
			C1700.051,815.677,1702.947,794.379,1718.588,783.701 M1818.02,742.502c-14.061,7.28-26.5,13.724-38.936,20.149
			c0.683,1.611,1.375,3.22,2.059,4.827c6.855,0,13.719-0.119,20.574,0.021C1821.953,767.924,1822.57,767.195,1818.02,742.502
			 M1755.162,875.756c-6.627,2.189-14.28,2.875-14.857,5.26c-1.537,6.411-1.165,13.908,0.818,20.221
			c0.68,2.146,8.455,2.065,14.039,3.215V875.756z M1853.222,898.863c-9.515-8.61-5.155-25.214-23.394-26.662v26.662H1853.222z
			 M1599.839,908.501c9.445-4.995,18.429-6.835,20.355-11.552c2.077-5.097-2.419-12.881-4.054-19.491
			c-4.537,5.698-9.344,11.216-13.482,17.196C1601.226,896.732,1601.475,899.976,1599.839,908.501 M1652.178,878.031v25.189
			c1.252,1.062,2.5,2.127,3.752,3.19c4.016-3.592,10.889-6.782,11.465-10.856C1668.557,887.354,1671.15,875.18,1652.178,878.031
			 M1693.472,904.521c23.759,0.245,13.282-15.986,15.753-26.274h-15.753V904.521z M1847.348,766.055
			c-3.139-9.543-5.939-18.044-8.738-26.547c-3.627,3.075-9.854,5.774-10.385,9.318C1826.76,758.553,1827.259,769,1847.348,766.055
			 M1550.85,821.691V789.47C1533.764,799.217,1533.746,802.412,1550.85,821.691 M1570.633,828.437
			c1.145-0.017,2.294-0.034,3.443-0.054v-44.518c-1.149,0.004-2.299,0.017-3.443,0.021V828.437z"/>
		<path clip-path="url(#SVGID_2_)" fill="#2CBFD1" d="M1235.763,826.035c0,0,5.208-4.569,7.948-8.394
			c2.744-3.821,3.346-6.726,0.584-7.081c-2.762-0.36-8.082-0.933-9.126-1.547c-1.046-0.613-3.015-0.99-3.501-3.316
			c-0.486-2.337-8.129-31.72-8.463-32.603c0,0-1.562-7.838-1.841-9.184c-0.271-1.35-1.133-5.997-0.582-6.761
			c0.55-0.762,4.574-4.059,6.146-5.761c1.57-1.706,7.611-8.438,10.197-8.459c0,0-2.164-0.639-4.43-0.458
			c-2.271,0.181-9.082,1.562-11.086,2.258c-1.996,0.695-5.497,2.508-7.516,1.648c-2.027-0.863-10.143-6.688-10.998-7.04
			c-0.855-0.352-0.912,0.119-0.545,1.596c0.368,1.488,4.684,7.175,6.64,9.461c1.946,2.278,4.995,6.496,4.855,7.547
			c-0.135,1.056-3.198,10.805-3.351,11.974c-0.15,1.179-1.354,6.987-1.354,6.987s-2.962,14.051-3.347,15.314
			c-0.384,1.265-2.581,15.532-3.042,21.681c-0.463,6.144-0.328,14.631-0.795,16.481s-2.013,4.271-5.612,4.274
			c-3.596,0.014-6.788-0.523-7.005,0.287c-0.212,0.81,0.809,4.164,2.665,6.311c1.854,2.153,6.546,5.862,11.058,7.405
			c0,0,1.1,30.45,7.588,34.994c0,0,2.135,11.262,6.646,13.752c4.504,2.496,8.496-4.859,10.268-10.721
			C1229.545,880.824,1237.824,838.712,1235.763,826.035z"/>
	</g>
	<rect x="40.743" y="506.52" fill="none" width="258.824" height="46.252"/>
	<text transform="matrix(1 0 0 1 53.126 515.1475)"><tspan x="0" y="0" fill="#FFFFFF" font-family="'Helvetica'" font-size="12">FETAL BRAIN DEVELOPMENT: DELAYED </tspan><tspan x="8.687" y="14.4" fill="#FFFFFF" font-family="'Helvetica'" font-size="12">LEARNING, POOR MOTOR CONTROL, </tspan><tspan x="53.007" y="28.8" fill="#FFFFFF" font-family="'Helvetica'" font-size="12">SEVERE DISABILITIES</tspan></text>
	<rect x="611.224" y="506.52" fill="none" width="126.822" height="25.253"/>
	<text transform="matrix(1 0 0 1 626.623 515.1475)" fill="#FFFFFF" font-family="'Helvetica'" font-size="12">HEART DISEASE</text>
	<rect x="1240.258" y="505.5" fill="none" width="213.82" height="49.251"/>
	<text transform="matrix(1 0 0 1 1254.8301 514.1279)"><tspan x="0" y="0" fill="#FFFFFF" font-family="'Helvetica'" font-size="12">MENTAL CONFUSION, MEMORY </tspan><tspan x="-3.683" y="14.4" fill="#FFFFFF" font-family="'Helvetica'" font-size="12">LOSS, HEADACHES, DAMAGE TO </tspan><tspan x="36.328" y="28.8" fill="#FFFFFF" font-family="'Helvetica'" font-size="12">NERVOUS SYSTEM</tspan></text>
	<rect x="315.683" y="506.52" fill="none" width="258.824" height="28.252"/>
	<text transform="matrix(1 0 0 1 400.7539 515.1475)" fill="#FFFFFF" font-family="'Helvetica'" font-size="12">LUNG DAMAGE</text>
	<rect x="1023.179" y="506.52" fill="none" width="126.822" height="25.252"/>
	<text transform="matrix(1 0 0 1 1037.2451 515.1475)" fill="#FFFFFF" font-family="'Helvetica'" font-size="12">KIDNEY FAILURE</text>
	<rect x="818.179" y="505.5" fill="none" width="126.822" height="26.753"/>
	<text transform="matrix(1 0 0 1 829.9189 514.1279)" fill="#FFFFFF" font-family="'Helvetica'" font-size="12">UPSET STOMACH</text>
	<path fill-rule="evenodd" clip-rule="evenodd" fill="#FEFEFE" d="M865.542,361.897c0,0,0.983,19.663,11.305,28.02
		c10.324,8.355,13.763,32.442,4.424,41.291c-9.338,8.847-17.202,11.305-17.202,11.305s-8.357,2.949-22.613-0.491
		c-14.253-3.44-20.646,18.678-21.136,30.967l13.272-0.491l2.459-11.798c0,0,2.949-9.832,12.778,0.983
		c9.831,10.815,29.493,29.493,53.58,19.662c24.085-9.832,46.696-32.934,38.34-73.241c0,0-2.458-11.797-14.255-30.967
		c-11.797-19.17-33.916-6.39-33.916-6.39s-14.256,6.39-17.204-1.476c-0.772-2.058-2.458-7.374-2.458-7.374H865.542z"/>
	<g>
		<path fill-rule="evenodd" clip-rule="evenodd" fill="#FEFEFE" d="M1066.057,451.526h-4.724l0.526-18.891
			c0,0-1.052-5.249-2.099,1.573c-1.05,6.823-2.102,12.071-2.102,12.071s-1.575,4.723-7.346,6.296
			c-5.771,1.575-12.07,6.822-17.317-2.622c-5.249-9.446-12.071-18.894-12.071-18.894s-8.92-19.416-1.572-30.961
			c7.346-11.546,6.296-6.822,8.92-18.893c2.625-12.069,19.417-9.971,19.417-9.971s20.466,0,20.466,18.893c0,0,0,4.197-3.674,7.871
			c-3.672,3.675-3.148,6.822,0.525,7.347c3.674,0.525,3.148,6.298,0,7.347c-3.147,1.05-4.721,3.674-2.624,3.674
			c2.099,0,3.15,3.673,3.15,3.673S1067.632,418.991,1066.057,451.526z"/>
		<path fill-rule="evenodd" clip-rule="evenodd" fill="#FEFEFE" d="M1118.21,453.316h4.724l-0.526-18.893
			c0,0,1.05-5.247,2.099,1.575c1.05,6.821,2.099,12.068,2.099,12.068s1.575,4.724,7.348,6.299
			c5.773,1.572,12.069,6.821,17.318-2.625c5.246-9.445,12.068-18.892,12.068-18.892s8.921-19.416,1.575-30.961
			c-7.348-11.545-6.296-6.822-8.921-18.893c-2.624-12.07-19.418-9.971-19.418-9.971s-20.464,0-20.464,18.892
			c0,0,0,4.198,3.671,7.871c3.675,3.674,3.151,6.823-0.523,7.348c-3.674,0.523-3.147,6.298,0,7.348
			c3.148,1.05,4.722,3.672,2.623,3.672c-2.1,0-3.148,3.674-3.148,3.674S1116.635,420.779,1118.21,453.316z"/>
	</g>
	<g>
		<g>
			<path fill="#F26E2A" d="M644.919,357.559c0,0,9.012,5.546,11.784,15.251c2.773,9.705-6.933,18.718-6.933,18.718l-5.545,20.104
				l24.956-6.239c0,0,9.705-16.638,22.877-20.104l-3.466-11.785c0,0-9.706,6.933-7.626-0.693
				c2.079-7.626,10.398-25.649,10.398-25.649l-5.546-4.16c0,0-6.933,10.398-9.012,19.411L676.114,343h-7.626l-4.159,21.49
				l-13.172-12.478L644.919,357.559z"/>
			<path fill="#F26E2A" d="M660.291,463.456l-2.201,23.862l9.704-0.136l2.202-19.999l7.354,3.727c0,0,6.604-2.59,2.752,18.135
				c-0.462,2.488,6.504,3.455,6.504,3.455s4.572-25,0.1-25.044C673.424,467.325,660.291,463.456,660.291,463.456z"/>
		</g>
		<path fill="#FEFEFE" d="M633.827,364.49l9.012-4.853c0,0,2.08,16.638,21.49,4.853c19.41-11.784,31.195-14.558,31.195-14.558
			l4.852,6.239l-43.674,24.264c0,0-4.159-0.308-7.625,11.478c-3.467,11.785-2.08,17.638-2.08,17.638s8.319,0.693,20.797-4.853
			c12.478-5.546,17.331-11.785,24.957-14.558c7.625-2.773,11.091-2.773,11.091-2.773l-0.692,6.933c0,0-6.933,2.08-13.172,6.933
			c0,0,15.251,1.387,20.104,10.398c4.852,9.012,15.943,37.435,15.943,37.435s8.319,13.864-9.705,18.718
			c-18.023,4.853-44.367,2.772-65.857-6.239c-21.49-9.013-20.797-27.729-18.717-36.742c2.08-9.012,7.625-26.343,7.625-35.354
			C639.372,380.435,639.372,375.582,633.827,364.49z"/>
	</g>
	<rect x="74.051" y="37.989" fill="none" width="1054.142" height="38.606"/>
	<text transform="matrix(1 0 0 1 71.0503 72.501)"><tspan x="0" y="0" fill="#FFFFFF" font-family="'Helvetica-Bold'" font-size="48">HG:</tspan><tspan x="87.984" y="0" fill="#7D8FC7" font-family="'Helvetica-Bold'" font-size="48"> </tspan><tspan x="101.32" y="0" fill="#2CBFD1" font-family="'Helvetica-Bold'" font-size="48">HEALTH RISKS</tspan></text>
	<rect x="74.65" y="89.46" fill="none" width="959.957" height="120.132"/>
	<text transform="matrix(1 0 0 1 74.6504 103.8398)"><tspan x="0" y="0" fill="#FFFFFF" font-family="'Helvetica'" font-size="20">Injesting toxic metals can have serious effects on the kidney, liver, central </tspan><tspan x="0" y="28.8" fill="#FFFFFF" font-family="'Helvetica'" font-size="20">nervous system and other organs. </tspan><tspan x="413.389" y="28.8" fill="#F26E2A" font-family="'Helvetica-Bold'" font-size="24">95 percent </tspan><tspan x="568.1" y="28.8" fill="#FFFFFF" font-family="'Helvetica'" font-size="20">of the methylmercury you </tspan><tspan x="0" y="52.8" fill="#FFFFFF" font-family="'Helvetica'" font-size="20">consume is absorbed by your intestinal tract and enters the blood stream. </tspan><tspan x="0" y="76.8" fill="#FFFFFF" font-family="'Helvetica'" font-size="20">Gaseous Hg0 is also efficiently absorbed when inhaled.</tspan></text>
	<polygon fill="#2CBFD1" points="56.654,36.184 37.545,55.293 56.654,74.402 	"/>
	<line fill="none" stroke="#2CBFD1" stroke-width="3" stroke-miterlimit="10" x1="-0.277" y1="979.009" x2="1600.5" y2="979.009"/>
	<g>
		
			<line fill="none" stroke="#2CBFD1" stroke-width="2" stroke-miterlimit="10" x1="210.448" y1="891.767" x2="195.296" y2="979.144"/>
		
			<line fill="none" stroke="#2CBFD1" stroke-width="2" stroke-miterlimit="10" x1="343.472" y1="891.675" x2="358.643" y2="979.144"/>
		<rect x="201.615" y="881.796" fill="#2CBFD1" width="150.16" height="11.29"/>
		<line fill="none" stroke="#2CBFD1" stroke-width="2" stroke-miterlimit="10" x1="342.714" y1="892.514" x2="194.301" y2="978.9"/>
		<line fill="none" stroke="#2CBFD1" stroke-width="2" stroke-miterlimit="10" x1="210.298" y1="892.514" x2="358.711" y2="978.9"/>
		<rect x="239.811" y="847.173" fill="#2CBFD1" width="73.765" height="30.86"/>
		<rect x="243.482" y="851.031" fill="#FFFFFF" width="22.864" height="22.861"/>
		<ellipse fill="#2CBFD1" cx="298.664" cy="830.564" rx="7.762" ry="2.684"/>
		<rect x="297.11" y="833.248" fill="#2CBFD1" width="3.105" height="14.112"/>
	</g>
	<g>
		<rect x="394.021" y="869.739" fill="none" width="271.486" height="14.999"/>
		<text transform="matrix(1 0 0 1 394.0215 882.6807)" fill="#F26E2A" font-family="'Helvetica'" font-size="18">DATA GAP</text>
		<line fill="none" stroke="#F26E2A" stroke-width="2" stroke-miterlimit="10" x1="394.192" y1="888.25" x2="690.766" y2="888.25"/>
	</g>
	<polygon fill="#F26E2A" points="687.374,884.157 672.544,869.327 657.712,884.157 	"/>
	<rect x="395.398" y="901.5" fill="none" width="295.485" height="91.496"/>
	<text transform="matrix(1 0 0 1 395.3984 910.1279)"><tspan x="0" y="0" fill="#F26E2A" font-family="'Helvetica'" font-size="12">There are no consistent indicators to describe human </tspan><tspan x="0" y="14.4" fill="#F26E2A" font-family="'Helvetica'" font-size="12">risk exposure to mercury through seafood consumption </tspan><tspan x="0" y="28.8" fill="#F26E2A" font-family="'Helvetica'" font-size="12">and certain occupational tasks. A gap exists between </tspan><tspan x="0" y="43.2" fill="#F26E2A" font-family="'Helvetica'" font-size="12">what is measured at the source and the impact on </tspan><tspan x="0" y="57.6" fill="#F26E2A" font-family="'Helvetica'" font-size="12">human health. </tspan></text>
	<g>
		<polyline fill="none" stroke="#FFFFFF" stroke-width="2" stroke-miterlimit="10" points="1121.549,276.023 193.336,276.084 
			193.336,304.824 		"/>
		
			<line fill="none" stroke="#FFFFFF" stroke-width="2" stroke-miterlimit="10" x1="442.057" y1="305.824" x2="442.057" y2="275.357"/>
		<line fill="none" stroke="#FFFFFF" stroke-width="2" stroke-miterlimit="10" x1="674.635" y1="304.5" x2="674.635" y2="275.357"/>
		
			<line fill="none" stroke="#FFFFFF" stroke-width="2" stroke-miterlimit="10" x1="1082.179" y1="305.162" x2="1082.179" y2="276.02"/>
		<polyline fill="none" stroke="#FFFFFF" stroke-width="2" stroke-miterlimit="10" points="1345.454,305.476 1345.454,276.333 
			1121.549,276.023 		"/>
		<line fill="none" stroke="#FFFFFF" stroke-width="2" stroke-miterlimit="10" x1="881.59" y1="304.5" x2="881.59" y2="275.357"/>
		
			<line fill="none" stroke="#FFFFFF" stroke-width="2" stroke-miterlimit="10" x1="1114.201" y1="273.909" x2="1114.201" y2="225.905"/>
	</g>
	<g>
		<rect x="708.982" y="783.43" opacity="0.5" fill="#2CBFD1" width="450.378" height="183.994"/>
		<g>
			<path fill="#FFFFFF" d="M1049.68,880.848c0,0,1.35-17.212,37.122-44.547c0,0,4.878,4.185,5.399,5.399
				c0.901,2.1-5.399,6.074-8.1,5.4C1081.402,846.425,1064.866,860.599,1049.68,880.848z"/>
			<path fill="#FFFFFF" d="M1082.415,849.125c0,0-5.399,4.387-1.351,9.449c4.05,5.061,44.885,46.233,51.972,50.621
				s2.362,7.762,1.688,8.436c-0.675,0.676-3.038,5.737-9.112-1.35c-6.074-7.087-44.209-47.584-51.296-51.971
				c-7.087-4.388-13.161,2.024-13.161,2.024s14.849-18.224,22.61-20.586S1082.415,849.125,1082.415,849.125z"/>
		</g>
		<g>
			<path fill="#FFFFFF" d="M1028.68,909.485c0,6.627-5.373,12-12,12h-20c-6.627,0-12-5.373-12-12v-21c0-6.627,5.373-12,12-12h20
				c6.627,0,12,5.373,12,12V909.485z"/>
			<rect x="998.68" y="868.485" fill="#FFFFFF" width="15.5" height="5.5"/>
			<rect x="1001.68" y="861.985" fill="#FFFFFF" width="10" height="5"/>
			<rect x="999.18" y="849.485" fill="#FFFFFF" width="14.5" height="9.5"/>
			<path fill="#FFFFFF" d="M998.68,848.735c0-1.519,1.231-2.75,2.75-2.75h9.5c1.518,0,2.75,1.231,2.75,2.75l0,0
				c0,1.518-1.232,2.75-2.75,2.75h-9.5C999.911,851.485,998.68,850.254,998.68,848.735L998.68,848.735z"/>
			<path fill="#FFFFFF" d="M998.68,848.735c0,0-8,0.25-12.5,0.25s-5.5,4.5-5.5,4.5l3,2.5c0,0,0-3.5,5.5-3.5s10,0.5,10,0.5
				L998.68,848.735z"/>
		</g>
		<g>
			<path fill-rule="evenodd" clip-rule="evenodd" fill="#FFFFFF" d="M745.18,836.485c3.667,0,7.333,0,11,0
				c12.76,5.072,19.865,14.897,18,28c-0.785,5.514-5.609,10.017-8,16c-2.735,6.848-1.545,14.9-7,19c-6,0-12,0-18,0
				c-3.865-4.637-3.093-11.723-6-19c-2.459-6.155-7.334-11.123-8-17C725.591,849.474,733.305,841.536,745.18,836.485z"/>
			<g>
				<path fill-rule="evenodd" clip-rule="evenodd" fill="none" stroke="#FFFFFF" stroke-width="3.0854" stroke-linecap="round" d="
					M744.68,902.985c4,0,8,0,12,0"/>
				<path fill-rule="evenodd" clip-rule="evenodd" fill="none" stroke="#FFFFFF" stroke-width="3.0854" stroke-linecap="round" d="
					M744.68,907.985c4,0,8,0,12,0"/>
				<path fill-rule="evenodd" clip-rule="evenodd" fill="none" stroke="#FFFFFF" stroke-width="3.0854" stroke-linecap="round" d="
					M744.68,912.985c4,0,8,0,12,0"/>
				<path fill-rule="evenodd" clip-rule="evenodd" fill="none" stroke="#FFFFFF" stroke-width="3.266" stroke-linecap="round" d="
					M747.68,917.985c0.577,0.202,0.919,0.352,1.25,0.5"/>
				<path fill-rule="evenodd" clip-rule="evenodd" fill="none" stroke="#FFFFFF" stroke-width="4.0532" stroke-linecap="round" d="
					M748.93,918.485c1.147,0,2.408,0,3.5,0"/>
				<path fill-rule="evenodd" clip-rule="evenodd" fill="none" stroke="#FFFFFF" stroke-width="3.266" stroke-linecap="round" d="
					M752.43,918.485c0.256-0.131,0.748-0.315,1.25-0.5"/>
			</g>
		</g>
		<g>
			<path fill-rule="evenodd" clip-rule="evenodd" fill="#FFFFFF" d="M824.68,839.985c4.667,0,9.333,0,14,0c0,1.333,0,6.667,0,8h13
				l-1,73h-40c0-24.667,0-49.333,0-74h14C824.68,845.318,824.68,841.652,824.68,839.985z M817.68,914.985c9,0,18,0,27,0
				c0-20.333,0-40.667,0-61c-9,0-18,0-27,0C817.68,874.318,817.68,894.652,817.68,914.985z"/>
			<path fill-rule="evenodd" clip-rule="evenodd" fill="#FFFFFF" d="M821.68,910.985c0-3.333,0-6.667,0-10c6.877-2.789,9.5-3.5,20-9
				c0,6.333,0,11.667,0,18C841.68,909.985,828.309,910.589,821.68,910.985z"/>
			<path fill-rule="evenodd" clip-rule="evenodd" fill="#FFFFFF" d="M821.68,896.985c0-5.667,0-11.333,0-17c7.458-2.209,13.5-6,20-9
				c0,5.667,0,11.333,0,17C834.18,891.485,830.18,893.485,821.68,896.985z"/>
		</g>
		<path fill="#FFFFFF" d="M932.625,838.485h4.148c0,0,1.164,13.21-6.223,19.17c0,0-2.071,2.463-8.935,6.736
			c-6.867,4.273-6.089,6.477-6.733,12.177l4.011,0.129c0,0,0,3.756,1.557,4.531c1.555,0.776,3.108,0.132,3.108,4.792v17.748h-4.145
			v12.952h-3.625v-13.083h-2.333v9.807c0,0,0.391,1.074-1.813,1.074c0,0-1.425,0.129-1.425-0.907v-9.843l-2.98,0.127v12.565h-3.364
			v-12.957h-4.276v-16.577c0,0,0.26-5.049,3.756-5.183c0,0,1.169-1.554,1.551-4.4h4.148c0,0-0.387-10.233,5.44-12.952
			c0,0,3.186-2.619,13.859-10.621C929.385,852.993,932.106,850.53,932.625,838.485"/>
		<rect x="712.2" y="934.505" fill="none" width="77.334" height="89.749"/>
		<text transform="matrix(1 0 0 1 733.1982 943.1328)"><tspan x="0" y="0" fill="#FFFFFF" font-family="'Helvetica'" font-size="12">LIGHT </tspan><tspan x="-2.007" y="14.4" fill="#FFFFFF" font-family="'Helvetica'" font-size="12">BULBS</tspan></text>
		<rect x="791.219" y="934.49" fill="none" width="77.334" height="89.749"/>
		<text transform="matrix(1 0 0 1 796.5459 943.1182)" fill="#FFFFFF" font-family="'Helvetica'" font-size="12">BATTERIES</text>
		<rect x="878.233" y="935.976" fill="none" width="77.334" height="89.749"/>
		<text transform="matrix(1 0 0 1 879.8896 944.6035)"><tspan x="0" y="0" fill="#FFFFFF" font-family="'Helvetica'" font-size="12">ELECTRICAL </tspan><tspan x="3.343" y="14.4" fill="#FFFFFF" font-family="'Helvetica'" font-size="12">PRODUCTS</tspan></text>
		<rect x="967.743" y="936.459" fill="none" width="77.334" height="89.749"/>
		<text transform="matrix(1 0 0 1 980.0664 945.0869)"><tspan x="0" y="0" fill="#FFFFFF" font-family="'Helvetica'" font-size="12">SOAPS &amp; </tspan><tspan x="-9.325" y="14.4" fill="#FFFFFF" font-family="'Helvetica'" font-size="12">COSMETICS</tspan></text>
		<rect x="1057.748" y="932.943" fill="none" width="77.334" height="89.749"/>
		<text transform="matrix(1 0 0 1 1079.4111 941.5713)"><tspan x="0" y="0" fill="#FFFFFF" font-family="'Helvetica'" font-size="12">GOLD </tspan><tspan x="-4.661" y="14.4" fill="#FFFFFF" font-family="'Helvetica'" font-size="12">MINING</tspan></text>
	</g>
	<polygon fill="#F26E2A" points="1159.594,805.169 1144.764,819.999 1159.594,834.831 	"/>
	<g>
		<rect x="726.521" y="801.739" fill="none" width="400.986" height="14.999"/>
		<text transform="matrix(1 0 0 1 726.5215 814.6807)" fill="#F26E2A" font-family="'Helvetica'" font-size="18">OTHER SOURCES OF EXPOSURE</text>
		
			<line fill="none" stroke="#F26E2A" stroke-width="2" stroke-miterlimit="10" x1="726.692" y1="820.25" x2="1129.179" y2="820.25"/>
	</g>
</g>
<g id="POLICY_1">
	<g>
		<defs>
			<rect id="SVGID_274_" x="1714" width="1601.225" height="980"/>
		</defs>
		<clipPath id="SVGID_4_">
			<use xlink:href="#SVGID_274_"  overflow="visible"/>
		</clipPath>
		<g clip-path="url(#SVGID_4_)">
			<path opacity="0.1" fill="#FFFFFF" d="M2360.394,926.684c0,0-15.002-3.984-39.002-0.803c-24,3.182-50.84,20.234-66,19.978
				c-15.158-0.258-9.293,0.603-9.293,0.603s2.586,7.122-28.375-12.712c-67.076-42.975-121-182-151.449-266.551l-823.729-0.912
				l-0.821,318.775h1600l472.205-2.594L3314,946l-473.276,0.377l1-50.373c0,0-100.635,58.537-149.541,55.041
				c-48.904-3.494-139.916-4.547-154.459-2.234c-14.541,2.312-95.361,5.629-133.844-8.75
				C2365.397,925.682,2360.394,926.684,2360.394,926.684"/>
			<circle fill="none" stroke="#FFFFFF" stroke-miterlimit="10" cx="1487.49" cy="802.125" r="7.331"/>
			<circle fill="none" stroke="#FFFFFF" stroke-miterlimit="10" cx="1511.717" cy="888.379" r="3"/>
			<circle fill="none" stroke="#FFFFFF" stroke-miterlimit="10" cx="1602.302" cy="812.314" r="5.999"/>
			<circle fill="none" stroke="#FFFFFF" stroke-miterlimit="10" cx="1572.718" cy="786.174" r="3.466"/>
			<circle fill="none" stroke="#FFFFFF" stroke-miterlimit="10" cx="1566.854" cy="746.377" r="5.332"/>
			<circle fill="none" stroke="#FFFFFF" stroke-miterlimit="10" cx="1368.567" cy="885.025" r="3.405"/>
			<path fill="#FFFFFF" d="M1222.554,365.953c0,0-2.174,0,13.136,14.051c15.31,14.053,12.086,18.553,21.755,18.408
				c9.67-0.141,20.95,13.91,31.425,27.961c0,0,20.144,16.861,45.122,0c24.979-16.863,32.768-43.094,42.973-41.217
				c10.207,1.875,8.439-6.556,12.278-6.556c3.837,0,8.135-7.495,20.489,14.051c12.355,21.543,47.809,44.966,47.809,44.966
				s11.28,0.936,17.189,14.051c5.909,13.112,20.764,19.674,27.572,19.674c6.807,0,23.765-3.752,30.863,12.174
				c7.099,15.927,25.9,13.117,32.346,14.988c6.447,1.875,17.189-1.874,38.677,18.735c21.487,20.61,35.454-6.556,45.66-16.86
				c10.205-10.305,77.446-100.235,77.446-100.235s6.889-10.305,16.021,10.305c9.131,20.607,8.059,27.169,12.894,27.169
				s5.906-11.244,11.817-11.244c5.908,0,8.596,18.295,10.206,18.984c1.61,0.69,20.947,25.543,49.419,0
				c0,0,24.71-71.441,30.082-72.379c5.371-0.936,12.891,9.365,12.891,9.365s16.654,6.561,24.711,3.748
				c8.059-2.809,35.455-15.922,41.9-15.922s13.43,19.25,21.486,32.107c8.059,12.856,88.54,199.274,112.76,213.325
				c24.222,14.05,76.324,47.025,99.424,48.899c23.098,1.874-921.762,0.474-948.352,1.41V365.953z"/>
			<rect x="1240.724" y="666.014" opacity="0.15" fill="#2CBFD1" width="2081.821" height="317.789"/>
			<path opacity="0.4" fill="#FFFFFF" d="M2359.394,925.684c0,0-15.002-3.984-39.002-0.803c-24,3.182-50.84,20.234-66,19.978
				c-15.158-0.258-98-35.559-98-35.559s-54.188-27.09-86.666-24.394c0,0-3.332,2.447-16-8.197
				c-12.666-10.646-35.698,18.02-35.698,18.02s-6.303,12.391-56.969,12.863c-50.668,0.471-60,16.125-64,17.299
				c-4,1.172-16.001,7.838-52.667,7.838s-39.965,0.889-55.982,8.111c-16.018,7.223-39.352,10.221-56.018,1.055
				c-16.666-9.166-16.016-35.441-49.008-34.303c-32.992,1.137-57.66,33.469-78.992,34.303c-21.334,0.834-77.934,2.965-77.934,2.965
				s-15.881-2.338-50.309-15.568c-34.426-13.229-49.797,0.43-49.797,0.43s-25.629,15.936-62.629,15.139
				c-37-0.797-101-16.52-123-15.658v54.861H3314V946l-473.276,0.377v-51.373c0,0-100.635,58.537-149.541,55.041
				c-48.904-3.494-139.916-4.547-154.459-2.234c-14.541,2.312-95.361,5.629-133.844-8.75
				C2364.397,924.682,2359.394,925.684,2359.394,925.684"/>
			<path fill="#FFFFFF" d="M1450.253,931.414c0,0-0.963-1.729,0-3.154c0.963-1.424,6.221-3.303,6.221-3.303s1.018-1.09,2.063-3.846
				c1.046-2.758,2.301-3.818,3.138-4.666c0.836-0.848,3.765-1.617,3.975-3.459c0.209-1.842,0-6.793,0-6.793s1.674-2.26,2.928-3.955
				c1.256-1.697,2.51-3.182,2.928-5.938c0.418-2.758-1.672-6.574-2.301-7.848c-0.627-1.272-0.836-6.234-0.836-8.207
				c0-1.971,1.783-5.787,3.191-8.121c1.41-2.332,3.084-9.543,2.246-14.207c-0.836-4.666,0.031-5.555,0.225-8.715
				c0.194-3.16,0.402-7.445-3.361-12.09c0,0-1.883,4.834-1.047,8.047c0.838,3.215,0.834,7.881-2.092,12.121
				c-2.928,4.242-3.764,6.998-2.3,13.572c1.464,6.574,1.046,8.396,0.628,9.393c-0.419,0.998-1.414,8.844,0.757,13.721
				c0,0,0.42,4.666-2.993,6.574c-3.412,1.908-1.98,6.15-1.65,9.119c0,0,0.926,1.775,0,3.326c-0.926,1.551-2.181,1.338-3.016,3.459
				c-0.838,2.121-0.439,3.213-2.302,4.453c-1.862,1.24-3.712,3.125-3.712,3.125s1.017-2.664,1.214-4.908
				c0.197-2.246,1.452-4.154,2.917-4.578c1.464-0.424,2.51-3.236,0.209-6.389c-2.301-3.154-0.42-5.062,0.209-8.031
				c0.627-2.969,2.123-10.367-2.182-15.15c-4.303-4.783-3.031-1.164-7.745-9.441c0,0-1.144-7.104,0-14.688
				c1.142-7.586-3.251-15.391-4.925-17.639c-1.673-2.246-3.312-4.838-3.225-8.312c0.088-3.477-4.096-8.285-9.744-11.287
				c0,0,2.028,8.824,4.361,11.287c2.332,2.461,2.175,3.834,2.149,7.07c-0.025,3.236-2.954,9.562,5.831,21.562
				c0,0,2.092,3.916,2.719,10.608c0.627,6.693,5.123,14.326,7.164,15.6c2.039,1.271,2.564,4.877,1.047,8.482
				c-1.518,3.604-1.203,4.666,2.404,11.451c0,0,1.486,1.986-1.217,3.326c-2.705,1.338-1.765,6.852-2.234,8.549
				c-0.471,1.695-2.809,4.141-3.51,5.045c-0.699,0.906-7.666-5.258-8.065-9.074s1.655-4.24,0-8.27
				c-1.654-4.029-2.249-4.242-0.905-6.787c1.343-2.545,3.814-4.877,0.905-13.148c-2.909-8.269-1.065-8.662,0-10.478
				c1.065-1.82,0.772-2.881-0.86-10.303c0,0-3.88,5.547-3.278,10.303c0.602,4.754,1.647,10.057,1.857,12.389
				c0.208,2.332,1.097,1.908-1.857,6.15c-2.954,4.24-2.065,7.119,0,9.496c2.065,2.379,2.101,6.143,2.065,6.619
				c-0.033,0.477,0.019,4.084,0.428,4.904c0.41,0.82-4.577-3.209-5.012-6.389c-0.436-3.182,0.96-4.666-1.62-9.33
				c-2.58-4.666-0.767-17.178,0-20.146s0.704-7.713-1.671-13.08c-2.375-5.367-0.752-7.375,0.006-8.598
				c0.758-1.225,2.027-10.555-4.883-21.369c0,0-3.549-3.817,0-17.389c0,0-6.699,10.984-5.445,15.033
				c1.256,4.051,2.719,3.137,2.929,8.047c0.209,4.912-4.812,7.031,0.209,19.332c0,0,5.229,5.699,5.229,9.635
				c0,3.935-1.89,10.086-3.036,12.631c-1.146,2.543-0.696,8.059,2.007,12.723c2.704,4.666,3.749,8.639,3.749,8.668
				c0,0.027-1.227,4.148,0.907,6.176c0,0-4.222-4.596-4.656-8.131c-0.435-3.531-2.107-5.229-3.571-6.502
				c-1.465-1.271-4.288-6.148-3.922-8.27c0.366-2.121-1.518-12.809-5.072-14.674c-3.557-1.865-2.301-3.219-2.512-7.312
				c-0.208-4.096,1.256-3.461-4.6-11.094c-5.857-7.635-8.605-5.957-7.336-10.93c1.27-4.975-0.822-8.199-2.287-10.299
				c0,0-3.765,6.768,0,12.09c3.766,5.32,2.625,9.414,2.777,10.973s1.615,6.012,5.59,10.465c3.975,4.453,8.994,11.027,8.785,19.086
				s5.856,11.451,7.948,14.631c2.092,3.182,1.882,2.545,3.347,4.879c1.463,2.332,3.91,7.252,12.881,12.299
				c0,0,5.451,3.006,5.803,9.879l-0.497,2.135h5.532V931.414z"/>
			<g>
				<path fill="#FFFFFF" d="M1586.878,938.697c-0.021,0.004-0.034,0.006-0.034,0.006S1586.865,938.701,1586.878,938.697z"/>
				<path fill="#FFFFFF" d="M1599.573,951.877l-0.162-0.16l-0.121-0.121c0,0-0.281,0-0.404-0.082
					c-0.121-0.08-0.161-0.039-0.161-0.039s0-0.123-0.04-0.283c-0.041-0.164-0.243-0.203-0.243-0.203l-0.201-0.121l-0.243-0.162
					l-0.242-0.16c0,0-0.121-0.041-0.363-0.242c-0.244-0.203,0,0-0.121-0.041c-0.123-0.041-0.363-0.123-0.363-0.123
					s-0.285-0.201-0.445-0.242c-0.162-0.039-0.203-0.402-0.203-0.402c-0.645-1.496-4.203-1.578-5.091-1.74
					c-0.89-0.16-0.565-1.131-0.565-1.131c2.262-0.162,1.494-2.019,1.494-2.142c0-0.121,0.12-0.121,0.12-0.121l0.323,0.043
					c0.486,1.252,1.416,1.172,3.76-0.607c2.344-1.777,3.233-5.053,3.436-9.457c0.201-4.404-2.788-6.951-4.527-6.746
					c-1.738,0.199-1.777,1.938-1.697,2.059c0.082,0.121,0.891-0.121,1.375-0.121c0.486,0,0.523,0.566,0.523,0.566
					c-0.233,0-0.968,1.211-1.211,1.777c-0.242,0.567-1.092,2.061-1.092,2.061c-0.242-0.201-1.777,1.375-2.383,2.184
					s-2.223,1.939-2.547,2.424c-0.322,0.484-0.687,0.891-0.85,0.891c-0.16,0,0.203-0.365,0.404-0.648
					c0.182-0.252-0.673-0.117-0.854-0.086c-0.013,0.004-0.025,0.006-0.025,0.006s0.004-0.002,0.025-0.006
					c0.328-0.098,1.389-1.465,1.664-1.895c0.281-0.445,0-0.564-0.041-0.728c-0.041-0.16,0.484-1.369,0.484-1.695
					c0-0.322-0.443-0.484-0.605-0.484s-0.203-1.051-0.525-1.375c-0.324-0.324-0.809-0.201-1.092-0.244
					c-0.283-0.039-0.242-0.484-0.525-0.727c-0.283-0.242-1.051-0.322-1.253-0.322c-0.201,0-0.606-0.686-0.97-0.889
					c-0.363-0.205-0.889-0.082-1.213-0.082c-0.322,0-0.889-0.727-1.293-0.889s-1.574-0.082-1.98-0.041
					c-0.404,0.041-1.373-0.645-1.859-0.768c-0.483-0.121-1.131,0.283-1.939-0.121c-0.807-0.404-2.142-0.969-2.506-0.969
					c-0.363,0-0.363,0-0.686-0.242c-0.324-0.244-0.931-0.527-0.931-0.527c0.241-0.525,0.081-1.049-0.241-1.172
					c-0.324-0.121-0.889,0.77-0.889,0.77l-0.123-0.203c-0.484-0.567-1.172-0.484-1.413-0.484c-0.243,0-0.526,0.121-0.526,0.121
					l-0.201,0.039c0-0.119-0.811-1.373-0.931-1.494c-0.121-0.121,0.646-1.414,0.646-1.414l-0.039-0.121l-0.89,1.496l-0.121-0.082
					c0,0-0.08-0.082-0.323-0.119c0,0-0.12,0.078-0.12,0.201c0,0.121,0.848,0.848,0.808,0.967c-0.041,0.123-0.484,0.203-0.484,0.203
					c-0.486-0.525-1.052-0.039-1.052-0.039c-0.524-0.607-0.728-0.324-0.929-0.365c-0.202-0.039,0.162-0.967,0.162-0.967
					s0.443-0.568,0.525-0.77c0.08-0.203,1.817-0.445,1.817-0.445c-0.243-0.08-1.737,0.242-2.021,0.324
					c-0.283,0.08-0.484,0.606-0.484,0.606l-0.244-0.041c0.082-0.201,0.162-0.93,0.042-0.727c-0.122,0.201-1.03,2.221-1.03,2.221
					c-0.244-0.664-1.637-0.424-1.637-0.424c-0.91-1.514-1.274,0.424-1.274,0.424c-0.241,0-1.212,0.123-2.303,0.426
					c-1.091,0.303-2.849-0.06-2.849-0.06c-1.395-0.545-3.153-0.061-3.153-0.061c-0.303-0.424-1.819-0.787-1.819-0.787
					c0.367-0.424,0-1.152,0-1.152c0.608-0.303,0.608-2.002,0.789-2.303c0.182-0.305,1.092-0.547,1.697-0.547
					c0.607,0,0.546-0.606,0.546-0.606s0.849,0,1.03-0.061c0.182-0.06,0.182-0.484,0.485-0.728c0.302-0.24,0.85,0.184,1.151,0.244
					c0.305,0.059,0.85-0.547,0.971-0.729c0.121-0.183,0.424,0,0.848,0.182c0.424,0.184,0.91-0.182,0.91-0.182l0.303-0.121h0.303
					c0,0,0.304,0.242,0.607,0.242c0.303,0,0.303-0.062,0.483,0c0.181,0.061,0,0,0.608,0.123c0.604,0.121,0.303-0.85-0.548-1.576
					c-0.848-0.729-4.181-1.154-6.122-1.213c-1.939-0.061-4.062,0.848-4.91,0.967c-0.848,0.123-3.395,1.094-3.395,1.094
					c-0.121-1.576-5.881,1.517-6.791,2.242c-0.906,0.727-1.998,2.002-1.998,2.002c-2.061,0-1.758,1.027-1.758,1.027
					c-1.334-0.301-1.697,0.67-1.82,0.85c-0.12,0.184-0.545,0.91-1.636,1.82c-1.091,0.91-1.517,3.092-1.454,4.789
					c0.061,1.697,2.242,2.848,2.729,3.092c0.484,0.242,0.181,0.787,0.121,1.514c-0.061,0.729,0.545,0.91,0.545,0.91
					c-4.91,2.424-9.153,8.002-9.153,8.002l0.241,0.303c-0.363,3.939,1.819,6.852,1.819,6.852l0.243-0.062l0.182-0.121l0.182,0.303
					l0.061,0.301l0.727,1.094c0,0,0,0.424,0.789,1.395c0.787,0.971,1.879,1.213,1.879,1.213c0.182,0.184,1.455,1.092,1.818,1.271
					c0.363,0.182,0.607,0,0.484-0.121c-0.121-0.119-1.152-1.393-1.152-1.393c0.305-0.486-2.666-6.428-2.484-6.668l0.363-0.065
					v-0.359c0,0,0,0,0-0.184c0-0.184,0.244-0.303,0.244-0.303s0,0,0.181-0.242c0.183-0.244,0.061-0.182,0.12-0.363
					c0.062-0.184,0.305-0.242,0.305-0.242h0.424l-0.242-0.363l0.121-0.305l0.729,0.363l-0.426-0.363l-0.061-0.184v-0.301
					l0.184-0.121l0.18-0.303l0.486,0.545l-0.243-0.484v-0.426l0.364-0.424c0,0,0,0,0.121-0.182c0.121-0.184,0.121-0.305,0.121-0.305
					s0.182-0.182,0.242-0.361c0.061-0.182,0-0.303,0-0.303v-0.246l0.242-0.018c0.324,0.16,2.748,1.131,2.748,1.131
					c0.121,1.051,2.021,2.588,2.021,2.588c-0.809,1.008,0.242,3.232,0.484,3.596s1.335,2.748,1.414,2.949
					c0.082,0.203,0.607,0.203,0.85,0.203s0.08-0.082,0.282,0.85c0.202,0.926,3.396,2.305,3.759,2.342
					c0.363,0.041,0.526-0.361,0.526-0.361c2.183,0.889,4.323-0.082,4.323-0.082s0.889-0.203,1.738-0.283
					c0.848-0.08,3.312-1.496,3.312-1.496l-0.039-0.201l-1.294,0.201l-0.282-0.039c-0.729-0.525-5.498-0.041-6.225,0.039
					c-0.727,0.082-0.646-0.684-0.605-0.889c0.039-0.201-0.768-1.211-1.414-1.898c-0.646-0.688-1.818-1.414-1.818-1.414l-0.203-0.647
					c0,0,0-0.365-0.242-0.365s-1.051-1.172-1.051-1.172c0.688,0.242,9.053,2.586,10.062,2.992c1.01,0.402,0.848-0.041,0.848-0.041
					s0.283,0,0.648-0.121c0.363-0.121,0.889,0,1.172-0.043c0.283-0.039,0.322,0.043,0.322,0.043s0.486,0,0.769,0
					s0.443,0.08,1.212,0.24c0.768,0.164,0.283,0.164,0.283,0.164s0.201,0.041,1.576,0.08c1.374,0.041,1.211,0.363,1.939,0.363
					c0.728,0,0.444,0,0.728,0s1.374,0.082,1.899,0.082s0.404,0.08,0.605,0.24c0.203,0.162,0.324,0.123,0.607,0.203
					c0.281,0.082,0.242,0.041,0.727,0.121c0.486,0.082,0.242,0.082,0.404,0.203c0.162,0.119,0.363,0.08,0.566,0.162
					c0.202,0.08,0.525,0.08,0.727,0.119c0.202,0.043,0.688,0,1.092,0s0.605-0.039,0.808-0.162c0.204-0.119,0.769,0.043,0.97,0.043
					c0.203,0,0.324,0,0.648-0.043c0.322-0.039,0.523-0.08,0.968-0.08c0.445,0,0.445-0.039,0.687-0.121
					c0.244-0.08,0.445-0.039,0.445-0.039l0.607-0.041l0.445-0.203c0,0,0.403-0.119,0.605-0.201c0.201-0.08,0.727-0.242,0.727-0.242
					l0.485-0.121c0,0,0.202-0.162,0.443-0.203c0.243-0.039,0.81-0.727,0.81-0.727c0.971,0.08,9.617-0.123,9.617-0.123
					c0.324,0.406,2.869,2.91,2.869,2.91c-0.686,0.283-5.252,3.072-5.495,3.193s-0.282,0.283-0.444,0.564
					c-0.16,0.285-1.414,0.568-1.616,0.525c-0.202-0.039-0.081,0.205-0.081,0.205c6.021,1.293,10.588-3.316,11.153-4.285
					c0.567-0.969,0.202-2.02,0.202-2.02l0.283,0.16l0.242,0.08c0,0,0.203,0.121,0.322,0.244c0.123,0.121,0.204-0.203,0.77,0.08
					c0.564,0.283,3.152,2.305,3.152,2.305c-0.444,1.252-0.081,3.393-0.081,3.393h0.323l0.121,0.123
					c-0.283,0.203-0.242,0.848-0.242,0.848C1602.2,956.08,1599.573,951.877,1599.573,951.877z M1536.005,939.715
					c-0.283-0.08,0.08-0.365,0.443-0.244c0.365,0.121,0.646,0.324,0.769,0.443c0.12,0.121,0.241,0.244,0.241,0.244
					s0.552,0.619,0.732,0.746c0.022,0.016,0.036,0.021,0.036,0.021c-0.009-0.002-0.021-0.01-0.036-0.021
					C1537.925,940.75,1536.264,939.787,1536.005,939.715z M1547.765,944.402l-0.486-0.043c0,0-1.897-1.898-1.454-2.1
					c0.444-0.203,1.295,0.039,1.454,0.242C1547.44,942.705,1547.927,943.19,1547.765,944.402z M1582.884,947.834
					c-0.183,0.147-2.201,0.26-2.6,0.281c-0.023,0.006-0.045,0.006-0.068,0.004c0,0,0.024,0,0.068-0.004
					c0.314-0.06,0.699-0.725,0.699-0.725s1.738,0,2.021,0.08C1583.287,947.553,1583.085,947.674,1582.884,947.834z"/>
				<path fill="#FFFFFF" d="M1538.19,940.904c0.015,0.012,0.027,0.02,0.036,0.021C1538.227,940.926,1538.213,940.92,1538.19,940.904
					z"/>
				<path fill="#FFFFFF" d="M1580.284,948.115c-0.044,0.004-0.068,0.004-0.068,0.004
					C1580.239,948.121,1580.261,948.121,1580.284,948.115z"/>
			</g>
			<path fill="#FFFFFF" d="M1310.354,802.213c0,0-5.5,4.553-6.639,10.053c-1.137,5.498-1.137,23.326,0.379,25.031
				c1.518,1.707,6.069,1.707,8.345,2.275c2.277,0.57,21.049,3.603,21.997,20.859h-0.474c0,0-3.602-14.98-23.703-10.144
				c-20.102,4.834-9.956,33.943-9.673,34.797l-0.663,0.188c0,0-6.637-12.039-6.543-22.85c0.096-10.809,4.647-20.006,2.655-25.221
				c-1.991-5.215-5.593-12.988-5.688-13.559c-0.095-0.566-0.379,0-0.379,0s0.284,2.842-0.19,2.842c-0.476,0-0.569-6.064-0.853-7.867
				c-0.285-1.799-2.277-12.373,1.422-24.605c3.697-12.23,12.943-27.309,15.076-30.436c2.133-3.131,7.68-11.047,8.247-12.469
				c0.569-1.424,1.046-4.459-0.851-5.596c-1.897-1.137-7.871-5.498-20.009-0.475l-0.378-0.473c0,0,3.982-6.541,13.748-7.586
				c9.767-1.043,21.619,0.285,27.592-0.285c5.973-0.566,16.025-3.221,21.809-3.412c5.783-0.19,19.627-2.182,23.705-3.508
				c4.076-1.328,17.635-8.344,21.239-10.525c3.603-2.18,16.022-8.438,16.212-7.965c0.189,0.475,0.096,1.422-5.403,4.551
				c-5.5,3.131-28.353,16.309-32.521,19.531c-4.175,3.227-15.458,11.758-14.981,12.234c0.473,0.475,21.616,0.283,22.375,1.232
				c0.759,0.947-2.18,0.094-3.225,0.379c-1.043,0.285-12.42,0.947-17.256,5.406c-4.836,4.457-9.009,8.059-10.43,8.723
				c0,0,2.846,3.506,3.698,6.445c0.853,2.939,1.896,11.662,1.231,11.568c-0.662-0.096-5.782-9.859-6.354-8.439
				c0,0,0.476,1.043,0.664,3.982c0.191,2.941,1.425,16.025-2.748,19.533c0,0-0.569-7.301-0.569-8.25
				c0-0.947-2.749-7.394-3.319-9.193c-0.566-1.805-1.326-4.934,0.381-9.772c0,0-0.57,0-1.043,0.287
				c-0.475,0.283-10.903,8.058-13.559,10.336c-2.655,2.273-12.328,10.238-13.466,11.473c-1.137,1.234-0.948,1.99-1.421,5.973
				c-0.476,3.982-2.466,13.275-8.629,15.457C1310.163,812.74,1311.68,802.023,1310.354,802.213z"/>
			<g>
				<polygon fill="#2CBFD1" points="1471.772,292.408 1461.991,491.285 1508.72,491.285 1501.113,291.322 				"/>
				<polygon fill="#FFFFFF" points="1470.898,310.173 1470.128,325.787 1502.222,325.883 1501.645,310.173 				"/>
				<polygon fill="#FFFFFF" points="1469.034,345.553 1468.296,361.102 1503.669,361.037 1503.09,345.553 				"/>
				<polygon fill="#FFFFFF" points="1467.171,381.637 1466.401,397.058 1505.083,397.058 1504.503,381.57 				"/>
				<polygon fill="#FFFFFF" points="1465.372,418.773 1464.538,434.194 1506.56,434.131 1505.917,418.709 				"/>
				<polygon fill="#FFFFFF" points="1463.509,457.199 1462.737,472.685 1507.974,472.752 1507.331,457.137 				"/>
			</g>
			<g>
				<polygon fill="#2CBFD1" points="1555.626,331.847 1545.845,530.723 1592.573,530.723 1584.968,330.761 				"/>
				<polygon fill="#FFFFFF" points="1554.752,349.611 1553.981,365.225 1586.075,365.32 1585.498,349.611 				"/>
				<polygon fill="#FFFFFF" points="1552.889,384.99 1552.149,400.541 1587.522,400.475 1586.943,384.99 				"/>
				<polygon fill="#FFFFFF" points="1551.024,421.074 1550.255,436.495 1588.937,436.495 1588.356,421.01 				"/>
				<polygon fill="#FFFFFF" points="1549.227,458.211 1548.392,473.635 1590.413,473.57 1589.771,458.147 				"/>
				<polygon fill="#FFFFFF" points="1547.362,496.639 1546.592,512.125 1591.827,512.188 1591.185,496.574 				"/>
			</g>
			
				<line fill="none" stroke="#2CBFD1" stroke-width="3" stroke-miterlimit="10" x1="1240.724" y1="666.287" x2="3314" y2="666.287"/>
		</g>
	</g>
</g>
<g id="POLICY_2">
</g>
<g id="POLICY_3">
</g>
<g id="RECOMMENDATIONS">
</g>
</svg>
