<?xml version="1.0" encoding="utf-8"?>
<!-- Generator: Adobe Illustrator 18.0.0, SVG Export Plug-In . SVG Version: 6.00 Build 0)  -->
<!DOCTYPE svg PUBLIC "-//W3C//DTD SVG 1.0//EN" "http://www.w3.org/TR/2001/REC-SVG-20010904/DTD/svg10.dtd">
<svg version="1.0" xmlns="http://www.w3.org/2000/svg" xmlns:xlink="http://www.w3.org/1999/xlink" x="0px" y="0px"
	 viewBox="0 0 1600 1150" enable-background="new 0 0 1600 1150" xml:space="preserve">
<g id="INTRO_SLIDE">
</g>
<g id="EMIT_1">
</g>
<g id="EMIT_2">
</g>
<g id="EMIT_3">
</g>
<g id="EMIT_4">
</g>
<g id="BIOACC">
	<rect x="0" fill="#103844" width="1600.459" height="1147.439"/>
	<g>
		<polygon opacity="0.15" fill="#2CBFD1" points="915.008,67.742 718.426,354.238 1100.994,353.539 		"/>
		<polygon opacity="0.15" fill="#2CBFD1" points="915.008,67.742 611.086,509.948 1202.829,509.75 		"/>
		<polygon opacity="0.15" fill="#2CBFD1" points="915.008,67.742 500.995,668.297 1306.237,668.297 		"/>
		<polygon opacity="0.15" fill="#2CBFD1" points="915.008,67.742 277.949,993.137 1517.279,993.137 		"/>
		<polygon opacity="0.15" fill="#2CBFD1" points="915.008,67.742 392.738,825.023 1408.334,825.376 		"/>
		<path fill="none" stroke="#FFFFFF" stroke-miterlimit="10" d="M1155.943,624.411c0,4.051-3.284,7.334-7.334,7.334
			c-4.049,0-7.33-3.283-7.33-7.334c0-4.049,3.281-7.33,7.33-7.33C1152.659,617.081,1155.943,620.362,1155.943,624.411z"/>
		<circle fill="none" stroke="#FFFFFF" stroke-miterlimit="10" cx="867.232" cy="710.196" r="3"/>
		<circle fill="none" stroke="#FFFFFF" stroke-miterlimit="10" cx="561.561" cy="794.137" r="5.999"/>
		<circle fill="none" stroke="#FFFFFF" stroke-miterlimit="10" cx="455.394" cy="777.949" r="4.344"/>
		<path fill="none" stroke="#FFFFFF" stroke-miterlimit="10" d="M552.893,651.771c0,1.914-1.552,3.465-3.467,3.465
			c-1.911,0-3.465-1.551-3.465-3.465c0-1.914,1.554-3.465,3.465-3.465C551.341,648.306,552.893,649.856,552.893,651.771z"/>
		<circle fill="none" stroke="#FFFFFF" stroke-miterlimit="10" cx="619.71" cy="611.974" r="5.332"/>
		<circle fill="none" stroke="#FFFFFF" stroke-miterlimit="10" cx="904.702" cy="749.015" r="3.405"/>
		<circle fill="none" stroke="#FFFFFF" stroke-miterlimit="10" cx="954.108" cy="766.579" r="5.998"/>
		<circle fill="none" stroke="#FFFFFF" stroke-miterlimit="10" cx="984.878" cy="654.661" r="2.999"/>
		<circle fill="none" stroke="#FFFFFF" stroke-miterlimit="10" cx="654.35" cy="566.333" r="5.964"/>
		<circle fill="none" stroke="#FFFFFF" stroke-miterlimit="10" cx="786.216" cy="628.546" r="3.702"/>
		<circle fill="none" stroke="#FFFFFF" stroke-miterlimit="10" cx="1083.301" cy="800.136" r="5.999"/>
		<circle fill="none" stroke="#FFFFFF" stroke-miterlimit="10" cx="1054.879" cy="846.17" r="3.406"/>
		<circle fill="none" stroke="#FFFFFF" stroke-miterlimit="10" cx="782.165" cy="704.448" r="7.331"/>
		<circle fill="none" stroke="#FFFFFF" stroke-miterlimit="10" cx="787.826" cy="524.476" r="7.332"/>
		<circle fill="none" stroke="#FFFFFF" stroke-miterlimit="10" cx="754.887" cy="640.185" r="3"/>
		<circle fill="none" stroke="#FFFFFF" stroke-miterlimit="10" cx="827.876" cy="492.469" r="5.999"/>
		<circle fill="none" stroke="#FFFFFF" stroke-miterlimit="10" cx="1077.581" cy="580.204" r="3.702"/>
		<circle fill="none" stroke="#FFFFFF" stroke-miterlimit="10" cx="1057.879" cy="609.69" r="3"/>
		<circle fill="none" stroke="#FFFFFF" stroke-miterlimit="10" cx="764.386" cy="810.621" r="3.703"/>
		<circle fill="none" stroke="#FFFFFF" stroke-miterlimit="10" cx="744.684" cy="840.107" r="3"/>
		<circle fill="none" stroke="#FFFFFF" stroke-miterlimit="10" cx="1212.878" cy="746.19" r="3.703"/>
		<circle fill="none" stroke="#FFFFFF" stroke-miterlimit="10" cx="1193.176" cy="775.677" r="3"/>
	</g>
	<path fill="#FFFFFF" d="M984.071,502.435c-0.533,0.23-0.918,0.361-1.143,0.361c-7.883,7.176-14.424,15.447-19.611,24.809
		c-5.17,9.35-8.586,19.326-10.234,29.938c-0.128,0-0.209,0.023-0.269,0.068c-0.055,0.064-0.143,0.098-0.264,0.098
		c-0.58,0-1.086-0.264-1.5-0.791c-0.412-0.525-0.795-1.152-1.147-1.857c-0.353-0.701-0.623-1.416-0.797-2.109
		c-0.176-0.725-0.264-1.252-0.264-1.604c-0.109-0.582-0.286-1.361-0.527-2.383c-0.23-1-0.467-1.957-0.703-2.902
		c-0.248-0.955-0.451-1.801-0.625-2.568c-0.172-0.76-0.26-1.199-0.26-1.318v-4.428c0-1.287-0.033-2.518-0.094-3.705
		c-0.055-1.162-0.08-2.053-0.08-2.658c0-7.988,0.879-15.457,2.641-22.424c1.773-6.932,4.125-14.115,7.07-21.531v-0.891
		c0-2.824-1.094-5.164-3.275-7.053c-2.168-1.881-4.558-3.781-7.152-5.658c-2.581-1.892-4.966-3.881-7.144-6
		c-2.179-2.119-3.276-4.77-3.276-7.953c0-2.812,0.357-5.562,1.059-8.219c0.715-2.639,1.066-5.307,1.066-8.033
		c0-1.877-0.322-3.668-0.977-5.383c-0.631-1.703-1.379-3.428-2.203-5.205c-0.824-1.76-1.561-3.582-2.207-5.463
		c-0.645-1.889-0.973-3.834-0.973-5.846v-0.879c0-0.58,0.031-1.107,0.088-1.58c0.055-0.473,0.088-0.824,0.088-1.053v-0.717
		c0-0.121,0.092-0.582,0.268-1.416c0.17-0.824,0.42-1.703,0.703-2.648c0.297-0.934,0.537-1.814,0.715-2.648
		c0.176-0.815,0.258-1.35,0.258-1.582c0.357-1.879,0.66-4.385,0.885-7.504c0.236-3.119,0.702-6.195,1.412-9.184
		c0.701-3.012,1.83-5.594,3.356-7.767c1.525-2.186,3.834-3.273,6.883-3.273c0.945,0,1.968,0.207,3.094,0.625
		c1.121,0.406,2.1,0.912,2.918,1.506c1.533,0.936,3.504,2.107,5.916,3.527c2.404,1.416,4.761,2.812,7.065,4.229
		c2.289,1.418,4.289,2.648,5.992,3.715c1.713,1.064,2.631,1.635,2.74,1.768c0.356,0.232,0.92,0.703,1.681,1.408
		c0.771,0.701,1.593,1.502,2.478,2.395c0.885,0.865,1.711,1.734,2.474,2.549c0.762,0.834,1.323,1.471,1.675,1.943
		c0.115,0.121,0.325,0.408,0.615,0.879c0.297,0.471,0.615,1.012,0.972,1.582c0.358,0.603,0.683,1.164,0.968,1.691
		c0.297,0.527,0.443,0.848,0.443,0.969l5.115,5.117c0.957,0.705,2.566,1.978,4.861,3.803c2.297,1.824,4.764,3.701,7.416,5.646
		c2.654,1.945,5.16,3.77,7.51,5.471c2.352,1.717,4.059,2.912,5.113,3.627c2.367-1.879,4.449-3.858,6.275-5.912
		c1.822-2.064,3.734-3.943,5.734-5.646c2.006-1.715,4.186-3.131,6.549-4.24c2.346-1.131,5.223-1.67,8.639-1.67
		c1.654,0,3.072,0.012,4.24,0.066c1.178,0.076,2.653,0.395,4.408,0.977c-2.703,2.945-4.59,5.855-5.645,8.746
		c-1.059,2.879-1.586,6.262-1.586,10.152c0,5.416,0.297,9.568,0.874,12.447c0.604,2.877,1.741,5.207,3.454,6.965
		c1.697,1.781,4.115,3.352,7.236,4.691c3.121,1.352,7.213,3.152,12.271,5.385c1.525,0.713,3.507,1.58,5.912,2.645
		c2.422,1.057,4.777,2.102,7.062,3.088c2.303,1.002,4.301,1.857,6.006,2.572c1.711,0.705,2.625,1.055,2.74,1.055h13.062
		c0,2.594,0.156,4.264,0.445,5.031c0.297,0.781,1.566,1.439,3.795,2.023c1.414,0.371,3.27,0.834,5.569,1.416
		c2.292,0.592,4.556,1.152,6.79,1.682c2.242,0.527,4.154,0.998,5.739,1.428c1.591,0.395,2.446,0.605,2.563,0.605h3.176
		c10.364-11.064,21.168-20.897,32.408-29.49c11.244-8.59,23.74-16.25,37.529-22.961v0.527v0.537l-0.89,2.111
		c-0.231,0.363-0.757,1.252-1.584,2.658c-0.825,1.404-1.706,2.912-2.655,4.502c-0.936,1.584-1.814,3.088-2.639,4.508
		c-0.822,1.406-1.361,2.283-1.592,2.645c-0.363,0.815-1.034,2.242-2.034,4.244c-1,1.988-2.031,4.086-3.098,6.262
		c-1.06,2.176-2.079,4.24-3.082,6.174c-1.005,1.945-1.688,3.264-2.03,3.977c-0.711,1.648-1.533,3.504-2.47,5.572
		c-0.942,2.053-1.864,4.174-2.733,6.35c-0.891,2.174-1.621,4.383-2.207,6.625c-0.594,2.229-0.891,4.35-0.891,6.361
		c0,1.996,0.679,4.293,2.033,6.875c1.349,2.594,2.943,5.242,4.765,7.955c1.825,2.705,3.737,5.285,5.739,7.768
		c2.004,2.473,3.711,4.482,5.123,6c0.469,0.592,1.33,1.615,2.553,3.086c1.242,1.484,2.562,3.041,3.977,4.682
		c1.42,1.66,2.759,3.207,4.055,4.678c1.304,1.475,2.242,2.508,2.832,3.102h-1.588c-3.297,0-7.088-0.418-11.395-1.242
		c-4.296-0.824-8.559-2-12.799-3.527c-4.24-1.539-8.268-3.309-12.097-5.297c-3.823-1.998-6.978-4.185-9.446-6.535
		c-0.473-0.363-1.473-1.264-3.004-2.736c-1.518-1.471-3.146-3.1-4.854-4.867c-1.703-1.758-3.295-3.406-4.768-4.945
		c-1.469-1.525-2.373-2.459-2.736-2.811c-2.703-2.363-5.318-3.824-7.865-4.428c-2.518-0.582-5.5-0.881-8.918-0.881h-1.236
		c-0.697,0-1.459,0.033-2.291,0.088c-0.817,0.068-1.533,0.1-2.119,0.1h-1.413c-0.233,0-0.46,0.111-0.702,0.353
		c-0.234,0.229-0.357,0.406-0.357,0.527c0,0.473-0.08,1.559-0.257,3.26c-0.187,1.717-0.266,2.793-0.266,3.266
		c-1.179,0-2.36-0.297-3.54-0.879c-1.17-0.582-2.291-1.209-3.357-1.867c-1.054-0.627-2.115-1.254-3.174-1.836
		c-1.061-0.592-2.049-0.889-3.006-0.889h-0.871l-15.374,2.119c-0.938,0.121-2.06,0.297-3.349,0.537
		c-1.298,0.232-1.945,0.408-1.945,0.529v2.285c-2.467,0-4.943-0.242-7.422-0.703c-2.462-0.463-4.877-0.705-7.236-0.705h-0.701
		c-0.595,2.352-1.27,4.584-2.033,6.715c-0.759,2.109-2.5,3.35-5.207,3.699c1.057,1.891,1.973,3.572,2.736,5.035
		c0.756,1.483,1.498,2.891,2.203,4.252c0.701,1.338,1.316,2.758,1.861,4.219c0.526,1.483,1.026,3.152,1.494,5.031v1.252
		c-1.404,0-2.88-0.33-4.41-0.977c-1.533-0.648-3.027-1.473-4.504-2.473c-1.467-1-2.863-2.033-4.156-3.088
		c-1.279-1.066-2.411-2.064-3.35-2.998l-21.725-21.545c-0.935-0.605-2.143-1.012-3.621-1.254c-1.471-0.23-2.992-0.373-4.578-0.426
		c-1.592-0.059-3.096-0.123-4.514-0.188c-1.412-0.055-2.593-0.143-3.526-0.264c-5.06-0.584-9.603-1.373-13.606-2.377
		c-3.992-1.008-8.467-2.262-13.416-3.799C984.866,502.028,984.597,502.192,984.071,502.435z"/>
	<path fill="#FFFFFF" d="M1046.912,768.393c0,0,1.387,1.295,1.246,2.217c0,0,1.25,1.154,1.25,1.293c0,0-1.203-0.691-1.572-0.922
		c0,0,0.924,0.969,0.832,1.199c0,0-1.248-0.83-1.619-1.107c-0.369-0.277-2.166-1.385-2.445-1.479
		c-0.277-0.092-7.064-5.356-9.695-11.865c0,0-0.783-0.647-1.061-1.707c-0.279-1.062-1.201-2.031-1.432-2.217
		c-0.232-0.186,0.277-0.463,0.6-0.463s0.23-0.691,0.047-0.969c-0.186-0.277-0.416-1.568,1.477-1.477c0,0,1.848-1.201,3.047-2.031
		c1.201-0.832,3.832-2.4,4.617-2.492c0.785-0.094,1.617-0.418,1.846-0.602c0.23-0.186,1.895-1.338,2.725-1.246l-0.045,0.139
		c0,0,1.662-0.51,2.076-0.463v0.186c0,0,1.201-0.324,1.477-0.275c0.279,0.043,0.094,0,0.094,0l-0.139,0.137
		c0,0,1.062-0.322,1.201-0.185c0.139,0.139-0.047,0.277-0.047,0.277s1.662-0.139,1.893-0.092c0,0-0.139,0.277,0,0.277
		s1.109-0.047,1.246-0.047c0.141,0,4.064,0.879,5.449,1.293c1.385,0.416,5.586,1.57,7.154,2.17c1.572,0.6,5.033,2.539,4.527,3.232
		c0,0,0.967,0.783,1.291,0.877c0.324,0.092,1.156,0.322,0.971,0.555c-0.186,0.23-0.691,0.137-0.832,0.324
		c-0.139,0.182-1.846,7.385-5.492,9.324c0,0-0.096,0.275,0.32,0.23c0.416-0.047,7.387-3.369,8.959-2.447
		c0,0,2.445,5.586-0.141,9.834c-2.584,4.248-6.416,6.973-7.756,3.832c-1.338-3.139-1.615-3.23-1.615-3.23s0.877,2.863,0.553,4.432
		c-0.32,1.57-0.689,1.801-1.059,1.893l-0.094,0.416c0,0-3.832,1.523-7.48,0.184c-3.648-1.338-5.078-3.002-5.078-3.002l0.322,0.879
		c0,0-0.691-0.602-1.014-0.785c-0.324-0.184-0.832-1.432-1.201-1.477l0.139,0.785c0,0-0.646-0.648-0.971-1.062
		c-0.322-0.416-1.615-2.125-1.939-2.494C1049.221,769.871,1047.373,768.348,1046.912,768.393z"/>
	<path fill="#FFFFFF" d="M863.893,609.901c0,0-21.182,1.107-27.613,2.773c-6.432,1.664-16.412,4.768-17.299,5.43
		c0,0-0.221,1.445-0.111,2.002c0,0,6.875,15.301,50.012,15.078c0,0,4.328,8.65,5.77,8.318l0.443-0.443l0.442-0.334l0.333-0.443
		l0.111-0.33l0.111-0.336l0.109-0.332l0.224-0.777l0.222-0.555l0.223-0.441v-0.334c0,0,0,0.223,0.109-0.332
		c0.109-0.555,0.109-0.887,0.109-0.887v-0.445l0.111-0.666c-0.553-0.443-0.886-0.553-0.886-0.553l-0.699-0.775v-0.334
		c0,0,15.448-1.438,21.105-3.549l18.519-5.543c0,0,6.544-1.553,8.095-1.109c1.554,0.441,8.209,2.881,13.309,4.77
		c5.102,1.883,9.807,3.66,10.98,2.77c1.168-0.887-1.111-1.332-1.778-1.994c-0.663-0.664-4.544-2.994-5.984-4.658
		c-1.446-1.664-4.659-4.77-6.545-5.213c0,0,1.221-0.773,1.773-1.107c0.556-0.332,3.993-4.104,4.879-4.768
		c0.891-0.668,4.99-3.996,5.769-4.436c0.774-0.445,3.325-2,0.774-2c-2.549,0-13.529,3.33-15.082,4.215
		c-1.552,0.891-6.875,3.771-11.533,3.441c-4.657-0.336-30.602-4.482-33.706-4.482l-5.994-3.174l-1.109-0.553l-0.886-0.443
		l-0.665-0.555l-0.446-0.666l-0.441-0.332l-0.555-0.555l-0.665-0.887l-0.111-0.443l-0.444-0.334l-0.554-0.666l-0.224-0.885
		c0,0-0.22,0-0.22-0.445c0-0.443,0-0.443,0-0.443s-0.112-0.887-0.442-1.107c-0.335-0.221-0.446-0.666-0.446-0.666
		s0-0.332-0.221-0.666c-0.222-0.332-0.333-0.664-0.333-0.664l-0.441-0.223l-0.445-0.111l-0.555,0.111
		C870.991,597.813,866.889,601.251,863.893,609.901z"/>
	<path fill-rule="evenodd" clip-rule="evenodd" fill="#FFFFFF" d="M695.059,778.801c-1.043,0.356-2.069,0.764-3.127,1.051
		c-1.086,0.299-2.195,0.492-3.299,0.709c-0.871,0.174-1.766,0.236-2.611,0.484c-1.074,0.314-2.096,0.801-3.164,1.145
		c-1.703,0.547-3.412,1.082-5.144,1.529c-1.107,0.281-1.662-0.262-1.709-1.398c-0.072-1.857,0.174-3.685,0.572-5.477
		c0.283-1.287,0.711-2.568,1.27-3.756c0.66-1.394,0.279-2.58-0.479-3.69c-0.582-0.846-1.338-1.57-2.039-2.332
		c-0.148-0.16-0.389-0.234-0.584-0.356c-0.076,0.233-0.211,0.465-0.221,0.697c-0.019,0.648-0.031,1.307,0.031,1.949
		c0.092,0.939-0.69,1.145-1.475,1.103c-1.658-0.088-2.318-1.375-2.891-2.588c-0.828-1.773-1.498-3.621-2.17-5.467
		c-0.309-0.842-0.922-1.207-1.678-1.561c-2.09-0.982-4.139-2.045-6.203-3.076c-0.125-0.062-0.258-0.156-0.385-0.154
		c-0.266,0.006-0.535,0.066-0.799,0.106c0.074,0.242,0.09,0.519,0.229,0.705c0.898,1.18,0.93,2.486,0.514,3.805
		c-0.475,1.482-1.547,1.541-2.734,0.898c-1.338-0.727-2.037-1.973-2.645-3.289c-0.396-0.852-0.777-1.717-1.148-2.584
		c-0.18-0.428-0.377-0.443-0.725-0.158c-0.869,0.723-1.647,0.523-2.002-0.537c-0.158-0.469-0.227-0.984-0.256-1.484
		c-0.041-0.691-0.303-0.969-0.984-1.143c-0.959-0.25-1.912-0.533-2.838-0.887c-1.416-0.545-2.801-1.17-4.213-1.732
		c-0.232-0.09-0.541,0.004-0.81,0.012c0.014,0.264-0.041,0.555,0.047,0.787c0.414,1.064,0.447,2.174,0.375,3.283
		c-0.008,0.121-0.395,0.326-0.582,0.307c-0.984-0.111-1.777-0.641-2.457-1.328c-1.533-1.537-2.578-3.404-3.422-5.377
		c-0.33-0.775-0.945-1.109-1.619-1.326c-2.221-0.709-4.49-1.268-6.693-2.027c-2.217-0.764-4.373-1.715-6.562-2.564
		c-1.084-0.422-2.119-0.92-2.873-1.826c-0.293-0.35-0.531-0.814-0.606-1.258c-0.117-0.744,0.346-1.049,1.053-0.797
		c1.092,0.395,2.145,0.248,3.141-0.289c0.699-0.379,0.729-0.973,0.07-1.424c-0.584-0.393-1.197-0.754-1.824-1.059
		c-0.957-0.465-1.041-0.898-0.238-1.602c1.078-0.941,2.338-1.564,3.684-2.008c1.082-0.356,2.191-0.643,3.297-0.928
		c0.461-0.121,0.951-0.178,1.432-0.24c0.861-0.113,1.719-0.248,2.584-0.305c1.941-0.127,3.887-0.213,5.828-0.318
		c0.115-0.008,0.23-0.064,0.348-0.096h2.93c0.236,0.039,0.469,0.111,0.709,0.121c1.158,0.023,2.328-0.062,3.471,0.072
		c2.049,0.234,4.094,0.523,6.106,0.945c1.562,0.324,3.074,0.894,4.611,1.34c1.305,0.383,2.428,1.361,3.992,0.885
		c1.01-0.305,2.125-0.246,3.195-0.32c2.186-0.162,4.373-0.363,6.559-0.416c0.949-0.021,2.012,0.127,2.57,1.082
		c0.6,1.041,1.186,2.107,1.584,3.232c0.5,1.396,0.824,2.859,1.172,4.305c0.119,0.481,0.203,1.012-0.037,1.533
		c-1.188-0.412-2.301-0.822-3.428-1.182c-0.248-0.08-0.555,0.012-0.83,0.025c0.174,0.205,0.324,0.435,0.529,0.606
		c0.639,0.533,1.316,1.014,1.939,1.562c2.119,1.853,3.928,3.984,5.342,6.412c1.123,1.918,2.174,3.877,3.129,5.875
		c0.674,1.406,1.596,2.377,3.084,2.926c0.977,0.358,1.85,0.988,2.137,2.154c0.115,0.486,0.115,0.887-0.285,1.197
		c-0.465,0.363-0.898,0.221-1.303-0.154c-0.254-0.232-0.535-0.434-0.801-0.648c-0.057,0.047-0.117,0.094-0.174,0.137
		c0.065,0.193,0.117,0.389,0.197,0.574c0.602,1.299,1.234,2.58,1.797,3.893c0.521,1.209,1.021,2.412,2.09,3.27
		c1.641,1.311,3.283,2.627,4.918,3.949c1.324,1.072,2.623,2.172,3.533,3.641V778.801z"/>
	<path fill="#FFFFFF" d="M725.844,483.201c0,0-5.5,4.553-6.639,10.053c-1.137,5.498-1.137,23.326,0.379,25.031
		c1.518,1.707,6.069,1.707,8.345,2.275c2.277,0.57,21.049,3.604,21.997,20.859h-0.474c0,0-3.602-14.98-23.703-10.145
		c-20.102,4.834-9.956,33.943-9.673,34.797l-0.663,0.188c0,0-6.637-12.039-6.543-22.85c0.096-10.809,4.648-20.006,2.655-25.221
		c-1.991-5.215-5.593-12.988-5.689-13.559c-0.095-0.566-0.379,0-0.379,0s0.284,2.842-0.19,2.842c-0.476,0-0.569-6.064-0.853-7.867
		c-0.285-1.799-2.277-12.373,1.422-24.605c3.697-12.23,12.943-27.309,15.076-30.435c2.133-3.131,7.68-11.047,8.247-12.469
		c0.569-1.424,1.046-4.459-0.851-5.596c-1.897-1.137-7.871-5.498-20.009-0.475l-0.378-0.473c0,0,3.982-6.541,13.748-7.586
		c9.767-1.043,21.619,0.285,27.592-0.285c5.973-0.566,16.025-3.221,21.809-3.412c5.783-0.189,19.627-2.182,23.705-3.508
		c4.076-1.328,17.635-8.344,21.238-10.525c3.604-2.18,16.023-8.438,16.213-7.965c0.19,0.475,0.096,1.422-5.403,4.551
		c-5.5,3.131-28.352,16.309-32.521,19.531c-4.175,3.227-15.458,11.758-14.981,12.234c0.473,0.475,21.616,0.283,22.375,1.232
		c0.759,0.947-2.18,0.094-3.225,0.379c-1.043,0.285-12.42,0.947-17.256,5.406c-4.836,4.457-9.009,8.059-10.43,8.723
		c0,0,2.846,3.506,3.697,6.445c0.853,2.939,1.896,11.662,1.232,11.568c-0.662-0.096-5.782-9.859-6.353-8.439
		c0,0,0.476,1.043,0.664,3.982c0.191,2.941,1.424,16.025-2.748,19.533c0,0-0.569-7.301-0.569-8.25c0-0.947-2.749-7.395-3.319-9.193
		c-0.566-1.805-1.326-4.934,0.381-9.772c0,0-0.57,0-1.043,0.287c-0.475,0.283-10.903,8.059-13.559,10.336
		c-2.655,2.273-12.328,10.238-13.466,11.473c-1.137,1.234-0.948,1.99-1.421,5.973c-0.476,3.982-2.467,13.275-8.629,15.457
		C725.653,493.728,727.17,483.012,725.844,483.201z"/>
	<rect x="74.021" y="836.557" fill="none" width="208.602" height="62.137"/>
	<text transform="matrix(1 0 0 1 74.0205 849.498)"><tspan x="0" y="0" fill="#F26E2A" font-family="'Helvetica'" font-size="18">PRIMARY PRODUCERS</tspan><tspan x="0" y="24.4" fill="#FFFFFF" font-family="'Helvetica'" font-size="12">Plankton absorb merthylmercury from </tspan><tspan x="0" y="38.8" fill="#FFFFFF" font-family="'Helvetica'" font-size="12">the water and sediment.</tspan></text>
	<rect x="74.021" y="679.855" fill="none" width="208.602" height="73.246"/>
	<text transform="matrix(1 0 0 1 74.0205 692.7969)"><tspan x="0" y="0" fill="#F26E2A" font-family="'Helvetica'" font-size="18">PRIMARY CONSUMERS</tspan><tspan x="0" y="24.4" fill="#FFFFFF" font-family="'Helvetica'" font-size="12">Small fish eat plankton and sea plants. </tspan><tspan x="0" y="38.8" fill="#FFFFFF" font-family="'Helvetica'" font-size="12">The methylmercury accumulates in </tspan><tspan x="0" y="53.2" fill="#FFFFFF" font-family="'Helvetica'" font-size="12">their tissues.</tspan></text>
	<rect x="74.021" y="369.871" fill="none" width="264.674" height="86.35"/>
	<text transform="matrix(1 0 0 1 74.0205 382.813)"><tspan x="0" y="0" fill="#F26E2A" font-family="'Helvetica'" font-size="18">TOP PREDATORS</tspan><tspan x="0" y="24.4" fill="#FFFFFF" font-family="'Helvetica'" font-size="12">Tuna, sharks, swordfish, dolphins, and whales </tspan><tspan x="0" y="38.8" fill="#FFFFFF" font-family="'Helvetica'" font-size="12">absorb toxins from the water, and the animals </tspan><tspan x="0" y="53.2" fill="#FFFFFF" font-family="'Helvetica'" font-size="12">they eat.</tspan></text>
	<rect x="74.021" y="525.225" fill="none" width="264.674" height="76.977"/>
	<text transform="matrix(1 0 0 1 74.0205 538.166)"><tspan x="0" y="0" fill="#F26E2A" font-family="'Helvetica'" font-size="18">INTERMEDIATE PREDATORS</tspan><tspan x="0" y="24.4" fill="#FFFFFF" font-family="'Helvetica'" font-size="12">Concentrations of methylmercury increases as </tspan><tspan x="0" y="38.8" fill="#FFFFFF" font-family="'Helvetica'" font-size="12">larger fish species consume small fish.</tspan></text>
	<rect x="73.172" y="235.053" fill="none" width="270" height="88.324"/>
	<text transform="matrix(1 0 0 1 73.1719 247.9941)"><tspan x="0" y="0" fill="#F26E2A" font-family="'Helvetica'" font-size="18">TOP OF FOOD CHAIN</tspan><tspan x="0" y="24.4" fill="#FFFFFF" font-family="'Helvetica'" font-size="12">Humans accumulate mercury in their bodies by </tspan><tspan x="0" y="38.801" fill="#FFFFFF" font-family="'Helvetica'" font-size="12">eating contaminated fish.</tspan></text>
	<g>
		<g>
			<path fill="#FFFFFF" d="M703.245,183.395l14.264,14.035c0,0,3.413,4.173,6.448,5.31c3.037,1.139,6.07,4.553,7.967,6.828
				c1.898,2.277,6.448,0,6.448,0s-1.515-3.035-1.515-4.551c0-1.518,1.515-4.93,1.515-4.93s0.38-4.555,4.175-5.691
				c3.792-1.139,9.192,2.652,7.63,7.584c-1.562,4.934-4.217,8.601-4.217,8.601l-0.757,2.402c0,0,0,3.034,3.413,3.792
				c3.415,0.76,5.932,4.173,6.002,11.381c0.068,7.209-0.603,18.971-1.025,20.865c-0.422,1.897-3.414,12.138-3.414,12.138
				s-2.32,3.035-4.597,2.277c-2.275-0.758-0.758-1.52,0.38-4.553c1.14-3.034-0.378-2.274,1.519-4.552
				c1.896-2.275,0.378-24.658,0.378-24.658s-6.068,10.622-6.068,12.898c0,2.277,1.516,17.071,1.516,17.071s2.275,15.553,2.655,17.07
				c0.38,1.516,4.217,13.36,4.217,13.36h-8.388l-5.312-14.5l-4.172-15.173l0.757,14.795l1.874,14.878l-9.839,0.015l-5.164-31.585
				c0,0-0.148-8.345,4.024-19.726c4.174-11.38,3.037-20.105,3.037-20.105s-12.52-12.141-13.278-13.656
				c-0.76-1.518-10.471-17.072-10.471-17.072V183.395z"/>
			<path fill-rule="evenodd" clip-rule="evenodd" fill="#2CBFD1" d="M705.847,265.835c-3.536,6.244-7.021,12.396-10.584,18.689
				c18.944,4.238,26.226-1.794,27.321,2.203c2.948-0.979,50.892-1.089,51.815-2.865c4.338-8.33,9.572-16.799,11.215-25.81
				c3.723-20.418,5.519-41.184,8.099-61.811c0.919,0.063,1.847,0.127,2.773,0.191c-1.379,18.443-2.757,36.889-4.206,56.328
				c13.299,0.972,26.149,2.137,39.029,2.589c1.834,0.065,5.196-3.179,5.434-5.181c0.819-6.884,1.021-13.926,0.497-20.838
				c-0.204-2.686-2.961-5.177-5.595-9.449c6.95,0,12.834,0.221,18.696-0.078c3.666-0.186,10.264-0.727,10.419-1.836
				c0.679-4.797,0.685-10.428-1.318-14.701c-3.17-6.769-8.122-12.717-12.378-18.973c-11.408-16.762-22.83-33.505-34.282-50.23
				c-1.132-1.654-2.502-3.146-5.121-6.401c-2.742,14.841-5.162,27.917-7.577,40.993c-0.73-0.039-1.462-0.081-2.194-0.121
				c0.568-6.74,0.946-13.507,1.766-20.217c0.771-6.285,2.53-12.488,2.856-18.783c0.236-4.483-1.348-9.035-1.776-13.594
				c-0.232-2.445,0.255-4.959,0.418-7.443c1.027-0.438,2.057-0.879,3.086-1.316c0.799,2.31,1.599,4.623,2.354,6.826
				c2.496-1.975,3.297-2.431,3.869-3.084c19.165-21.799,38.513-43.444,57.26-65.594c3.309-3.914,3.948-10.021,6.153-14.969
				c1.046-2.351,2.876-4.351,4.351-6.508c1.556,2.049,4.332,4.024,4.457,6.153c0.537,9.042-1.051,18.386,0.603,27.157
				c3.388,17.964-0.476,35.66-0.228,53.471c0.3,21.171-0.212,42.356-0.259,63.529c-0.006,3.553,0.575,7.099,0.924,11.067h22.11
				c-5.304-25.114-10.502-49.73-15.699-74.344c0.989-0.208,1.977-0.416,2.967-0.622c5.756,24.764,11.51,49.527,17.467,75.154
				c20.398,0,40.644,0.372,60.85-0.297c4.311-0.143,9.033-3.419,12.639-6.375c12.673-10.404,27.402-15.392,43.328-17.17
				c3.73-0.42,7.708,1.365,11.573,2.133c-0.146,0.998-0.293,1.993-0.439,2.996c-2.733,0.684-5.472,1.371-8.456,2.121
				c-1.46,18.288,11.671,31.229,16.994,47.773c-2.543,0.794-5.253,1.643-9.453,2.955c3.269,10.777,6.376,21.656,10.041,32.348
				c0.512,1.479,3.773,2.793,5.798,2.848c16.65,0.443,33.304,0.805,49.952,0.597c3.181-0.042,7.001-1.997,9.37-4.269
				c15.64-15.019,34.091-23.951,55.588-26.504c5.698-0.678,11.897-1.859,16.962,5.918c-5.096,0.604-8.956,1.06-13.865,1.639
				c0.284,5.918,0.561,11.667,0.877,18.321c-13.481,9.341-22.026,22.924-23.166,42.419H782.064
				c-0.002,1.074-0.007,2.152-0.007,3.229h365.955c-2.225,16.257-3.965,30.895-6.514,45.389c-0.323,1.836-4.822,4.13-7.437,4.191
				c-24.586,0.556-49.182,0.728-73.769,0.91c-53.078,0.399-106.155-0.604-159.23-0.136c-53.005,0.465-149.817-0.121-202.823,0.421
				c-9.852,0.101-14.121-0.964-15.199-10.515c-1.458-12.847-2.612-25.725-3.924-38.588c-0.577-5.642-1.275-10.931,4.773-14.867
				c2.456-1.601,3.327-5.64,4.893-8.581C693.875,264.778,693.871,264.773,705.847,265.835 M874.198,47.717
				c-0.709-0.357-1.415-0.715-2.124-1.074c-20.678,23.742-41.353,47.482-61.791,70.943c18.218,27.03,35.562,52.766,53.847,79.896
				c4.012-6.563,9.593-11.479,9.667-16.483C874.485,136.581,874.198,92.145,874.198,47.717 M890.959,213.926
				c8.659,1.494,8.659,1.494,19.413-7.447c-3.023-18.443-4.101-19.252-19.413-14.77V213.926z M856.787,246.602
				c1.232,0.101,2.464,0.198,3.692,0.298c0.582-7.306,1.161-14.611,1.704-21.473c-4.213,0-7.127,0.14-10.022-0.036
				c-3.458-0.213-6.898-0.694-10.852-1.114v23.262c4.266,0.499,7.974,0.93,11.693,1.362c0.388-6.544,0.734-12.374,1.082-18.199
				c0.669,0.051,1.337,0.095,2.006,0.143C856.322,236.098,856.556,241.351,856.787,246.602 M934.114,191.208
				c-20.408-2.833-21.329-1.934-17.73,17.524h18.423c0-5.727,0.021-10.812-0.03-15.896
				C934.77,192.288,934.354,191.749,934.114,191.208 M1165.348,231.668c-16.569,1.367-19.254,5.061-13.901,18.444
				C1167.24,248.186,1167.262,251.246,1165.348,231.668 M1119.561,253.201c0.369,0.736,0.738,1.473,1.105,2.211
				c4.873-0.68,9.784-1.165,14.61-2.08c10.79-2.048,11.036-2.576,8.272-16.336C1135.121,242.689,1127.339,247.943,1119.561,253.201
				 M960.662,190.645h-22.303c0.356,4.692,0.662,8.73,0.959,12.626C951.044,207.236,952.547,196.186,960.662,190.645
				 M1012.25,169.27c-7.294,3.777-13.748,7.12-20.2,10.455c0.354,0.836,0.713,1.67,1.067,2.504c3.558,0,7.118-0.061,10.676,0.011
				C1014.292,182.46,1014.612,182.082,1012.25,169.27 M979.639,238.406c-3.438,1.136-7.409,1.492-7.709,2.73
				c-0.798,3.325-0.604,7.215,0.425,10.489c0.352,1.114,4.387,1.071,7.284,1.668V238.406z M1030.516,250.395
				c-4.937-4.467-2.675-13.08-12.138-13.832v13.832H1030.516z M899.051,255.395c4.9-2.591,9.562-3.546,10.56-5.993
				c1.078-2.644-1.254-6.683-2.102-10.112c-2.354,2.957-4.848,5.818-6.995,8.922C899.77,249.289,899.9,250.973,899.051,255.395
				 M926.206,239.587v13.068c0.649,0.552,1.297,1.104,1.946,1.655c2.084-1.863,5.65-3.518,5.949-5.633
				C934.704,244.424,936.05,238.107,926.206,239.587 M947.632,253.33c12.326,0.127,6.891-8.294,8.173-13.631h-8.173V253.33z
				 M1027.468,181.49c-1.628-4.951-3.082-9.361-4.533-13.774c-1.883,1.597-5.113,2.997-5.389,4.835
				C1016.786,177.598,1017.045,183.018,1027.468,181.49 M873.634,210.355v-16.717C864.768,198.695,864.761,200.354,873.634,210.355
				 M883.897,213.855c0.595-0.008,1.19-0.018,1.787-0.027V190.73c-0.597,0.002-1.192,0.009-1.787,0.011V213.855z"/>
			<path fill="#2CBFD1" d="M710.155,212.609c0,0,2.702-2.37,4.124-4.355c1.424-1.982,1.736-3.489,0.304-3.674
				c-1.433-0.187-4.194-0.483-4.735-0.802c-0.543-0.318-1.564-0.514-1.817-1.722c-0.253-1.212-4.217-16.457-4.391-16.915
				c0,0-0.81-4.066-0.955-4.765c-0.14-0.7-0.588-3.111-0.301-3.509c0.284-0.395,2.372-2.105,3.188-2.988
				c0.815-0.885,3.95-4.378,5.291-4.389c0,0-1.123-0.331-2.298-0.238c-1.178,0.094-4.711,0.811-5.751,1.172
				c-1.036,0.361-2.853,1.301-3.899,0.855c-1.053-0.447-5.263-3.47-5.707-3.652c-0.443-0.183-0.473,0.061-0.282,0.828
				c0.191,0.771,2.43,3.723,3.445,4.908c1.01,1.183,2.591,3.371,2.519,3.916c-0.07,0.547-1.66,5.605-1.738,6.212
				c-0.079,0.611-0.702,3.625-0.702,3.625s-1.537,7.29-1.736,7.946c-0.199,0.656-1.339,8.059-1.579,11.248
				c-0.24,3.188-0.17,7.592-0.412,8.551s-1.044,2.217-2.912,2.219c-1.866,0.006-3.523-0.271-3.635,0.148
				c-0.11,0.42,0.419,2.16,1.383,3.274c0.961,1.116,3.396,3.041,5.736,3.841c0,0,0.571,15.799,3.937,18.157
				c0,0,1.108,5.842,3.449,7.134c2.337,1.295,4.408-2.521,5.327-5.561C706.929,241.036,711.225,219.188,710.155,212.609z"/>
		</g>
		
			<line fill="none" stroke="#103844" stroke-width="5" stroke-miterlimit="10" x1="782.321" y1="294.94" x2="1149.292" y2="294.94"/>
	</g>
	<g>
		<g>
			<line fill="none" stroke="#FFFFFF" stroke-miterlimit="10" x1="81.098" y1="354.353" x2="84.098" y2="354.353"/>
			
				<line fill="none" stroke="#FFFFFF" stroke-miterlimit="10" stroke-dasharray="6.0048,6.0048" x1="90.103" y1="354.353" x2="1095.909" y2="354.353"/>
			<line fill="none" stroke="#FFFFFF" stroke-miterlimit="10" x1="1098.912" y1="354.353" x2="1101.912" y2="354.353"/>
		</g>
	</g>
	<g>
		<g>
			<line fill="none" stroke="#FFFFFF" stroke-miterlimit="10" x1="75.098" y1="510.502" x2="78.098" y2="510.502"/>
			
				<line fill="none" stroke="#FFFFFF" stroke-miterlimit="10" stroke-dasharray="5.9937,5.9937" x1="84.091" y1="510.502" x2="1195.916" y2="510.502"/>
			<line fill="none" stroke="#FFFFFF" stroke-miterlimit="10" x1="1198.913" y1="510.502" x2="1201.913" y2="510.502"/>
		</g>
	</g>
	<g>
		<g>
			<line fill="none" stroke="#FFFFFF" stroke-miterlimit="10" x1="73.608" y1="825.012" x2="76.608" y2="825.012"/>
			
				<line fill="none" stroke="#FFFFFF" stroke-miterlimit="10" stroke-dasharray="6.0165,6.0165" x1="82.624" y1="825.012" x2="1403.243" y2="825.012"/>
			<line fill="none" stroke="#FFFFFF" stroke-miterlimit="10" x1="1406.252" y1="825.012" x2="1409.252" y2="825.012"/>
		</g>
	</g>
	<g>
		<g>
			<line fill="none" stroke="#FFFFFF" stroke-miterlimit="10" x1="75.098" y1="667.934" x2="78.098" y2="667.934"/>
			
				<line fill="none" stroke="#FFFFFF" stroke-miterlimit="10" stroke-dasharray="6.0274,6.0274" x1="84.125" y1="667.934" x2="1298.651" y2="667.934"/>
			<line fill="none" stroke="#FFFFFF" stroke-miterlimit="10" x1="1301.665" y1="667.934" x2="1304.665" y2="667.934"/>
		</g>
	</g>
	<rect x="73.342" y="36.614" fill="none" width="1054.143" height="38.606"/>
	<text transform="matrix(1 0 0 1 70.3413 71.126)"><tspan x="0" y="0" fill="#FFFFFF" font-family="'Helvetica-Bold'" font-size="48">HG:</tspan><tspan x="87.984" y="0" fill="#7D8FC7" font-family="'Helvetica-Bold'" font-size="48"> </tspan><tspan x="101.32" y="0" fill="#2CBFD1" font-family="'Helvetica-Bold'" font-size="48">BIOACCUMULATION</tspan></text>
	<rect x="73.941" y="88.085" fill="none" width="592.957" height="120.132"/>
	<text transform="matrix(1 0 0 1 73.9414 102.4648)"><tspan x="0" y="0" fill="#FFFFFF" font-family="'Helvetica'" font-size="20">Toxins become MORE CONCENTRATED when breathed, </tspan><tspan x="0" y="24" fill="#FFFFFF" font-family="'Helvetica'" font-size="20">swallowed, and absorbed by marine organisms </tspan><tspan x="0" y="48" fill="#FFFFFF" font-family="'Helvetica'" font-size="20">than in theIR surrounding environment. </tspan></text>
	<polygon fill="#2CBFD1" points="55.945,34.809 36.836,53.918 55.945,73.027 	"/>
	<g>
		<rect x="0.023" y="985.238" fill="#FFFFFF" width="1600" height="165.762"/>
		<text transform="matrix(1 0 0 1 339.73 1047.0869)"><tspan x="0" y="0" font-family="'Helvetica'" font-size="18">Re</tspan><tspan x="23.01" y="0" font-family="'Helvetica'" font-size="18">f</tspan><tspan x="27.849" y="0" font-family="'Helvetica'" font-size="18">erences</tspan></text>
		<g>
			<polygon fill="#2E2119" points="103.555,1046.854 103.555,1030.158 115.057,1030.158 115.057,1032.684 107.168,1032.684 
				107.168,1036.93 113.793,1036.93 113.793,1039.309 107.168,1039.309 107.168,1044.307 115.397,1044.307 115.397,1046.854 			"/>
			<path fill="#2E2119" d="M125.621,1046.854v-7.375c0-1.24-0.194-2.137-1.698-2.137c-0.801,0-1.917,0.414-2.718,0.896v8.615h-3.495
				v-11.914h3.301l0.049,1.09l0.097,0.051c1.382-0.924,3.058-1.432,4.198-1.432c3.154,0,3.736,1.869,3.736,4.102v8.104H125.621z"/>
			<path fill="#2E2119" d="M136.985,1044.549c0.121-0.314,0.776-3.082,1.164-4.32c0.535-1.553,1.53-4.949,1.651-5.289h3.494
				c-0.874,2.451-3.227,9.486-4.101,11.914h-4.732c-0.85-2.428-3.229-9.463-4.078-11.914h3.642l1.722,5.531
				c0.268,0.85,0.826,3.252,1.117,4.078H136.985z"/>
			<path fill="#2E2119" d="M146.836,1033.482c-1.287,0-1.99-0.824-1.99-1.842c0-1.068,0.729-1.871,1.99-1.871
				c1.335,0,2.062,0.803,2.062,1.871C148.898,1032.658,148.171,1033.482,146.836,1033.482 M145.113,1034.939h3.47v11.914h-3.47
				V1034.939z"/>
			<path fill="#2E2119" d="M155.105,1037.051c1.309-1.287,3.203-2.428,4.538-2.428c0.486,0,0.678,0.293,0.678,0.803
				c0,0.896-0.581,2.717-1.09,3.422l-4.053-0.049v8.055h-3.471v-11.914h3.422c0,0.557-0.072,1.48-0.145,2.039L155.105,1037.051z"/>
			<path fill="#2E2119" d="M167.116,1047.098c-4.416,0-5.945-2.766-5.945-6.188c0-3.35,1.699-6.238,6.092-6.238
				c4.439,0,5.969,2.889,5.969,6.213S171.655,1047.098,167.116,1047.098 M167.262,1037.123c-1.99,0-2.525,1.916-2.525,3.787
				c0,2.109,0.412,3.736,2.525,3.736c1.965,0,2.378-1.773,2.378-3.736C169.64,1039.016,169.251,1037.123,167.262,1037.123"/>
			<path fill="#2E2119" d="M183.106,1046.854v-7.375c0-1.24-0.195-2.137-1.699-2.137c-0.801,0-1.918,0.414-2.719,0.896v8.615h-3.494
				v-11.914h3.3l0.049,1.09l0.097,0.051c1.383-0.924,3.059-1.432,4.199-1.432c3.154,0,3.736,1.869,3.736,4.102v8.104H183.106z"/>
			<path fill="#2E2119" d="M204.094,1046.854v-7.545c0-1.312-0.34-1.943-1.578-1.943c-0.752,0-1.867,0.365-2.547,0.826
				c0.072,0.51,0.098,1.117,0.098,1.553v7.109h-3.424c0-2.598-0.023-5.193-0.023-7.789c0-1.117-0.509-1.674-1.432-1.674
				c-0.801,0-1.795,0.365-2.621,0.871v8.592h-3.47v-11.914h3.253l0.071,1.188l0.097,0.049c1.36-1.02,2.985-1.504,4.125-1.504
				c1.36,0,2.284,0.484,2.889,1.553c1.165-0.896,3.033-1.553,4.296-1.553c3.179,0,3.761,1.967,3.761,4.197v7.984H204.094z"/>
			<path fill="#2E2119" d="M220.882,1040.449v1.236h-7.788c0,1.82,0.85,2.789,2.985,2.789c1.286,0,2.596-0.289,3.833-0.752
				l0.705,2.137c-1.578,0.873-3.399,1.188-5.049,1.188c-4.805,0-5.969-2.861-5.969-6.137c0-2.621,1.117-6.287,5.823-6.287
				C220.543,1034.623,220.882,1038.311,220.882,1040.449 M213.143,1039.549h4.586c-0.023-1.576-0.51-2.717-2.16-2.717
				C213.847,1036.832,213.264,1038.119,213.143,1039.549"/>
			<path fill="#2E2119" d="M231.05,1046.854v-7.375c0-1.24-0.194-2.137-1.699-2.137c-0.801,0-1.917,0.414-2.718,0.896v8.615h-3.494
				v-11.914h3.299l0.049,1.09l0.098,0.051c1.384-0.924,3.057-1.432,4.198-1.432c3.155,0,3.737,1.869,3.737,4.102v8.104H231.05z"/>
			<path fill="#2E2119" d="M241.289,1031.639v3.277h3.471v2.279h-3.471v5.389c0,1.26,0.364,1.842,1.603,1.842
				c0.436,0,1.189-0.119,2.061-0.314l0.437,2.258c-1.019,0.461-2.377,0.678-3.396,0.678c-3.324,0-4.125-1.648-4.125-3.541v-6.311
				h-1.675v-1.893l1.892-0.559c0.171-0.412,0.704-2.449,0.85-2.863L241.289,1031.639z"/>
			<path fill="#2E2119" d="M257.375,1044.549h1.554l0.169,1.939c-0.776,0.365-1.892,0.609-2.911,0.609
				c-1.044,0-1.796-0.244-1.919-1.434c0-0.023-0.023-0.023-0.048-0.049c-1.674,1.459-3.444,1.482-4.124,1.482
				c-2.961,0-3.689-2.086-3.689-3.471c0-2.477,1.918-3.689,4.418-3.834c0.921-0.072,2.329-0.121,3.25-0.195v-0.289
				c0-1.361-0.437-2.062-2.207-2.062c-1.165,0-2.67,0.24-3.785,0.604c-0.171-0.727-0.365-1.455-0.559-2.156
				c1.406-0.609,3.469-0.996,5.168-0.996c2.863,0,4.684,1.066,4.684,4.15V1044.549z M251.672,1041.709
				c-1.141,0.098-1.674,0.68-1.674,1.625c0,0.998,0.484,1.531,1.627,1.531c0.728,0,1.674-0.391,2.449-1.068v-2.283L251.672,1041.709
				z"/>
			<polygon fill="#2E2119" points="264.314,1046.854 260.868,1046.854 260.868,1029.479 264.338,1029.479 			"/>
			<path fill="#2E2119" d="M110.18,1067.562h-3.034l0.025,6.406h-3.616v-16.695h6.333c3.811,0,5.727,1.99,5.727,5.121
				C115.615,1064.797,114.112,1067.562,110.18,1067.562 M107.146,1059.797v5.316h2.353c1.287,0,2.476-0.68,2.476-2.645
				c0-1.896-1.116-2.672-2.596-2.672H107.146z"/>
			<path fill="#2E2119" d="M127.867,1067.562v1.238h-7.788c0,1.82,0.85,2.789,2.985,2.789c1.285,0,2.597-0.291,3.833-0.752
				l0.703,2.137c-1.578,0.873-3.396,1.189-5.047,1.189c-4.805,0-5.969-2.865-5.969-6.141c0-2.621,1.115-6.283,5.823-6.283
				C127.528,1061.74,127.867,1065.428,127.867,1067.562 M120.127,1066.666h4.586c-0.024-1.578-0.51-2.719-2.16-2.719
				C120.831,1063.947,120.247,1065.232,120.127,1066.666"/>
			<path fill="#2E2119" d="M133.52,1064.164c1.311-1.283,3.203-2.424,4.538-2.424c0.485,0,0.681,0.289,0.681,0.799
				c0,0.896-0.584,2.717-1.094,3.422l-4.051-0.049v8.057h-3.472v-11.914h3.423c0,0.557-0.073,1.479-0.146,2.037L133.52,1064.164z"/>
			<path fill="#2E2119" d="M141.745,1064.311h-1.675v-1.893l1.7-0.486v-1.479c0-2.281,0.994-4.078,4.512-4.078
				c0.826,0,2.16,0.098,3.277,0.412l-0.412,2.354c-0.68-0.145-1.555-0.217-2.064-0.217c-1.237,0-1.942,0.412-1.942,1.578v1.527
				h3.424v2.281h-3.424c0,1.043-0.023,8.615-0.023,9.658h-3.373V1064.311z"/>
			<path fill="#2E2119" d="M155.527,1074.211c-4.416,0-5.945-2.766-5.945-6.188c0-3.35,1.698-6.234,6.091-6.234
				c4.44,0,5.969,2.885,5.969,6.209C161.641,1071.324,160.064,1074.211,155.527,1074.211 M155.672,1064.238
				c-1.99,0-2.523,1.918-2.523,3.785c0,2.111,0.412,3.736,2.523,3.736c1.966,0,2.379-1.77,2.379-3.736
				C158.051,1066.131,157.663,1064.238,155.672,1064.238"/>
			<path fill="#2E2119" d="M167.051,1064.164c1.311-1.283,3.204-2.424,4.539-2.424c0.486,0,0.678,0.289,0.678,0.799
				c0,0.896-0.582,2.717-1.09,3.422l-4.054-0.049v8.057h-3.47v-11.914h3.422c0,0.557-0.072,1.479-0.146,2.037L167.051,1064.164z"/>
			<path fill="#2E2119" d="M188.772,1073.969v-7.547c0-1.309-0.34-1.939-1.578-1.939c-0.752,0-1.867,0.363-2.547,0.822
				c0.072,0.51,0.098,1.117,0.098,1.553v7.111h-3.424c0-2.598-0.023-5.193-0.023-7.791c0-1.113-0.509-1.674-1.432-1.674
				c-0.801,0-1.795,0.365-2.62,0.875v8.59h-3.47v-11.914h3.25l0.073,1.189l0.097,0.049c1.36-1.021,2.985-1.504,4.125-1.504
				c1.36,0,2.283,0.482,2.889,1.553c1.165-0.9,3.033-1.553,4.296-1.553c3.179,0,3.761,1.965,3.761,4.197v7.982H188.772z"/>
			<path fill="#2E2119" d="M205.149,1071.664h1.553l0.17,1.941c-0.775,0.363-1.893,0.605-2.912,0.605
				c-1.045,0-1.797-0.242-1.917-1.432c0-0.021-0.024-0.021-0.049-0.047c-1.675,1.455-3.446,1.479-4.125,1.479
				c-2.961,0-3.688-2.086-3.688-3.471c0-2.473,1.916-3.688,4.416-3.834c0.924-0.072,2.33-0.119,3.252-0.191v-0.293
				c0-1.357-0.438-2.062-2.209-2.062c-1.164,0-2.668,0.242-3.785,0.607c-0.17-0.729-0.363-1.455-0.559-2.162
				c1.408-0.604,3.471-0.992,5.17-0.992c2.863,0,4.684,1.068,4.684,4.148V1071.664z M199.446,1068.822
				c-1.141,0.1-1.674,0.682-1.674,1.629c0,0.994,0.484,1.527,1.625,1.527c0.729,0,1.674-0.389,2.451-1.066v-2.281L199.446,1068.822z
				"/>
			<path fill="#2E2119" d="M216.578,1073.969v-7.377c0-1.238-0.194-2.135-1.699-2.135c-0.801,0-1.917,0.412-2.718,0.896v8.615
				h-3.494v-11.914h3.299l0.049,1.092l0.098,0.049c1.383-0.924,3.057-1.434,4.198-1.434c3.155,0,3.737,1.869,3.737,4.102v8.105
				H216.578z"/>
			<path fill="#2E2119" d="M228.441,1071.518c1.115,0,2.136-0.242,3.204-0.605l0.654,2.305c-1.189,0.605-2.862,0.947-4.488,0.947
				c-4.562,0-5.752-2.719-5.752-6.02c0-2.814,1.067-6.355,5.896-6.355c1.02,0,2.354,0.094,3.714,0.582
				c-0.171,0.799-0.34,1.6-0.534,2.426c-1.019-0.293-1.892-0.34-2.596-0.34c-1.942,0-2.961,1.334-2.961,3.541
				C225.579,1070.184,226.282,1071.518,228.441,1071.518"/>
			<path fill="#2E2119" d="M244.799,1067.562v1.238h-7.788c0,1.82,0.849,2.789,2.984,2.789c1.285,0,2.597-0.291,3.833-0.752
				l0.705,2.137c-1.578,0.873-3.399,1.189-5.049,1.189c-4.803,0-5.969-2.865-5.969-6.141c0-2.621,1.117-6.283,5.824-6.283
				C244.459,1061.74,244.799,1065.428,244.799,1067.562 M237.059,1066.666h4.587c-0.024-1.578-0.511-2.719-2.161-2.719
				C237.763,1063.947,237.18,1065.232,237.059,1066.666"/>
			<rect x="103.774" y="1084.387" fill="#2E2119" width="3.541" height="16.697"/>
			<path fill="#2E2119" d="M118.381,1101.084v-7.379c0-1.238-0.195-2.135-1.699-2.135c-0.801,0-1.917,0.412-2.718,0.896v8.617
				h-3.495v-11.916h3.301l0.049,1.092l0.097,0.051c1.383-0.924,3.058-1.434,4.198-1.434c3.154,0,3.738,1.867,3.738,4.1v8.107
				H118.381z"/>
			<path fill="#2E2119" d="M132.356,1089.631v-5.898h3.471v17.352h-3.229l-0.072-1.068c-0.024-0.023-0.047-0.049-0.072-0.049
				c-1.164,0.945-2.646,1.285-3.664,1.285c-3.714,0-4.732-2.717-4.732-5.871c0-3.689,1.358-6.504,5.145-6.504
				C129.979,1088.877,131.362,1089.045,132.356,1089.631 M132.356,1092.055c-0.559-0.338-1.625-0.654-2.402-0.654
				c-1.189,0-2.402,0.703-2.402,3.955c0,2.816,1.043,3.471,2.354,3.471c0.704,0,1.893-0.484,2.451-0.896V1092.055z"/>
			<path fill="#2E2119" d="M148.928,1094.676v1.238h-7.79c0,1.82,0.852,2.791,2.985,2.791c1.287,0,2.597-0.291,3.835-0.754
				l0.703,2.137c-1.577,0.873-3.397,1.189-5.049,1.189c-4.804,0-5.968-2.863-5.968-6.139c0-2.623,1.115-6.285,5.824-6.285
				C148.588,1088.854,148.928,1092.541,148.928,1094.676 M141.187,1093.779h4.587c-0.023-1.578-0.51-2.719-2.161-2.719
				C141.891,1091.061,141.309,1092.346,141.187,1093.779"/>
			<polygon fill="#2E2119" points="156.231,1096.664 153.706,1101.084 149.995,1101.084 154.095,1094.871 150.31,1089.168 
				154.12,1089.168 156.28,1093.195 158.463,1089.168 162.176,1089.168 158.317,1094.846 162.371,1101.084 158.585,1101.084 			"/>
			<path fill="#F4C618" d="M73.611,1093.689c-1.936,0-3.503-1.566-3.503-3.5c0-1.936,1.567-3.504,3.503-3.504
				c1.933,0,3.503,1.568,3.503,3.504C77.114,1092.123,75.543,1093.689,73.611,1093.689"/>
			<path fill="#F4C618" d="M76.886,1084.67c-1.356,0-2.456-1.1-2.456-2.457s1.1-2.455,2.456-2.455c1.356,0,2.454,1.098,2.454,2.455
				S78.243,1084.67,76.886,1084.67"/>
			<path fill="#F4C618" d="M79.342,1077.922c-0.933,0-1.689-0.756-1.689-1.688c0-0.934,0.757-1.689,1.689-1.689
				c0.934,0,1.688,0.756,1.688,1.689C81.031,1077.166,80.276,1077.922,79.342,1077.922"/>
			<path fill="#F4C618" d="M80.98,1073.467c-0.673,0-1.22-0.545-1.22-1.221c0-0.674,0.547-1.219,1.22-1.219
				c0.673,0,1.22,0.545,1.22,1.219C82.2,1072.922,81.653,1073.467,80.98,1073.467"/>
			<path fill="#7D8FC7" d="M59.065,1079.176c-1.934,0-3.502-1.57-3.502-3.504c0-1.932,1.567-3.498,3.502-3.498
				c1.934,0,3.502,1.566,3.502,3.498C62.567,1077.605,60.999,1079.176,59.065,1079.176"/>
			<path fill="#7D8FC7" d="M67.008,1074.781c-1.355,0-2.451-1.1-2.451-2.455c0-1.352,1.096-2.451,2.451-2.451
				c1.354,0,2.453,1.1,2.453,2.451C69.461,1073.682,68.363,1074.781,67.008,1074.781"/>
			<path fill="#7D8FC7" d="M72.967,1071.5c-0.932,0-1.684-0.752-1.684-1.682s0.752-1.686,1.684-1.686
				c0.93,0,1.684,0.756,1.684,1.686S73.897,1071.5,72.967,1071.5"/>
			<path fill="#7D8FC7" d="M76.938,1069.355c-0.668,0-1.211-0.541-1.211-1.211s0.543-1.213,1.211-1.213
				c0.672,0,1.214,0.543,1.214,1.213S77.61,1069.355,76.938,1069.355"/>
			<path fill="#0C9ACC" d="M59.039,1058.629c-1.933,0-3.501-1.566-3.501-3.504c0-1.932,1.568-3.498,3.501-3.498
				c1.934,0,3.503,1.566,3.503,3.498C62.542,1057.062,60.973,1058.629,59.039,1058.629"/>
			<path fill="#0C9ACC" d="M67.023,1060.824c-1.351,0-2.448-1.094-2.448-2.447c0-1.352,1.098-2.449,2.448-2.449
				c1.352,0,2.448,1.098,2.448,2.449C69.471,1059.73,68.374,1060.824,67.023,1060.824"/>
			<path fill="#0C9ACC" d="M73.01,1062.49c-0.924,0-1.676-0.75-1.676-1.676c0-0.928,0.752-1.678,1.676-1.678
				c0.928,0,1.678,0.75,1.678,1.678C74.688,1061.74,73.938,1062.49,73.01,1062.49"/>
			<path fill="#0C9ACC" d="M77.004,1063.643c-0.666,0-1.205-0.541-1.205-1.205c0-0.662,0.539-1.203,1.205-1.203
				c0.664,0,1.203,0.541,1.203,1.203C78.207,1063.102,77.668,1063.643,77.004,1063.643"/>
			<path fill="#3EBBA3" d="M73.551,1044.084c-1.934,0-3.504-1.57-3.504-3.504c0-1.936,1.57-3.502,3.504-3.502
				c1.933,0,3.502,1.566,3.502,3.502C77.053,1042.514,75.484,1044.084,73.551,1044.084"/>
			<path fill="#3EBBA3" d="M76.876,1050.977c-1.35,0-2.444-1.092-2.444-2.443c0-1.35,1.095-2.445,2.444-2.445
				c1.35,0,2.445,1.096,2.445,2.445C79.321,1049.885,78.225,1050.977,76.876,1050.977"/>
			<path fill="#3EBBA3" d="M79.37,1056.17c-0.924,0-1.674-0.748-1.674-1.672s0.75-1.672,1.674-1.672c0.922,0,1.67,0.748,1.67,1.672
				S80.291,1056.17,79.37,1056.17"/>
			<path fill="#3EBBA3" d="M81.031,1059.672c-0.661,0-1.196-0.535-1.196-1.195s0.535-1.197,1.196-1.197
				c0.661,0,1.196,0.537,1.196,1.197S81.692,1059.672,81.031,1059.672"/>
			<path fill="#F79523" d="M83.93,1113.383c-2.389,0-4.326-1.936-4.326-4.326c0-2.389,1.938-4.324,4.326-4.324
				c2.389,0,4.326,1.936,4.326,4.324C88.256,1111.447,86.319,1113.383,83.93,1113.383"/>
			<path fill="#F79523" d="M83.896,1101.061c-1.833,0-3.318-1.486-3.318-3.318c0-1.83,1.485-3.318,3.318-3.318
				c1.833,0,3.317,1.488,3.317,3.318C87.213,1099.574,85.729,1101.061,83.896,1101.061"/>
			<path fill="#F79523" d="M83.87,1091.676c-1.408,0-2.551-1.145-2.551-2.553c0-1.406,1.143-2.551,2.551-2.551
				c1.408,0,2.551,1.145,2.551,2.551C86.42,1090.531,85.278,1091.676,83.87,1091.676"/>
			<path fill="#F79523" d="M83.845,1082.924c-1.041,0-1.882-0.844-1.882-1.881c0-1.039,0.841-1.885,1.882-1.885
				c1.038,0,1.882,0.846,1.882,1.885C85.727,1082.08,84.883,1082.924,83.845,1082.924"/>
			<path fill="#F26E2C" d="M53.078,1100.645c-2.39,0-4.325-1.938-4.325-4.326c0-2.391,1.936-4.326,4.325-4.326
				c2.39,0,4.325,1.936,4.325,4.326C57.403,1098.707,55.467,1100.645,53.078,1100.645"/>
			<path fill="#F26E2C" d="M61.019,1091.574c-1.831,0-3.315-1.482-3.315-3.316c0-1.83,1.484-3.312,3.315-3.312
				c1.83,0,3.313,1.482,3.313,3.312C64.332,1090.092,62.849,1091.574,61.019,1091.574"/>
			<path fill="#F26E2C" d="M67.069,1084.664c-1.406,0-2.545-1.137-2.545-2.545c0-1.406,1.139-2.545,2.545-2.545
				c1.405,0,2.545,1.139,2.545,2.545C69.614,1083.527,68.474,1084.664,67.069,1084.664"/>
			<path fill="#F26E2C" d="M72.742,1078.236c-1.036,0-1.876-0.836-1.876-1.873c0-1.035,0.84-1.875,1.876-1.875
				s1.876,0.84,1.876,1.875C74.618,1077.4,73.778,1078.236,72.742,1078.236"/>
			<path fill="#3575BA" d="M40.266,1069.822c-2.39,0-4.326-1.938-4.326-4.328c0-2.387,1.937-4.326,4.326-4.326
				c2.389,0,4.325,1.939,4.325,4.326C44.591,1067.885,42.655,1069.822,40.266,1069.822"/>
			<path fill="#3575BA" d="M51.579,1068.717c-1.828,0-3.31-1.482-3.31-3.311s1.481-3.311,3.31-3.311c1.828,0,3.31,1.482,3.31,3.311
				S53.407,1068.717,51.579,1068.717"/>
			<path fill="#3575BA" d="M60.199,1067.873c-1.4,0-2.536-1.137-2.536-2.533c0-1.402,1.136-2.537,2.536-2.537
				s2.534,1.135,2.534,2.537C62.733,1066.736,61.599,1067.873,60.199,1067.873"/>
			<path fill="#3575BA" d="M68.28,1067.137c-1.029,0-1.863-0.832-1.863-1.863c0-1.027,0.834-1.863,1.863-1.863
				s1.862,0.836,1.862,1.863C70.142,1066.305,69.309,1067.137,68.28,1067.137"/>
			<path fill="#018C8C" d="M53.004,1038.971c-2.389,0-4.326-1.939-4.326-4.326c0-2.391,1.938-4.328,4.326-4.328
				c2.389,0,4.326,1.938,4.326,4.328C57.331,1037.031,55.393,1038.971,53.004,1038.971"/>
			<path fill="#018C8C" d="M61.04,1045.912c-1.825,0-3.305-1.479-3.305-3.305c0-1.824,1.479-3.305,3.305-3.305
				c1.826,0,3.307,1.48,3.307,3.305C64.346,1044.434,62.866,1045.912,61.04,1045.912"/>
			<path fill="#018C8C" d="M67.163,1051.205c-1.396,0-2.527-1.131-2.527-2.527s1.132-2.529,2.527-2.529
				c1.396,0,2.527,1.133,2.527,2.529S68.559,1051.205,67.163,1051.205"/>
			<path fill="#018C8C" d="M72.902,1056.219c-1.022,0-1.853-0.83-1.853-1.852c0-1.025,0.83-1.854,1.853-1.854
				c1.023,0,1.853,0.828,1.853,1.854C74.754,1055.389,73.925,1056.219,72.902,1056.219"/>
			<path fill="#2CB35F" d="M83.827,1026.158c-2.391,0-4.326-1.936-4.326-4.326c0-2.387,1.935-4.326,4.326-4.326
				c2.39,0,4.325,1.939,4.325,4.326C88.152,1024.223,86.216,1026.158,83.827,1026.158"/>
			<path fill="#2CB35F" d="M83.814,1036.449c-1.825,0-3.305-1.479-3.305-3.303s1.479-3.305,3.305-3.305
				c1.825,0,3.304,1.48,3.304,3.305S85.639,1036.449,83.814,1036.449"/>
			<path fill="#2CB35F" d="M83.803,1044.291c-1.395,0-2.524-1.129-2.524-2.523s1.13-2.527,2.524-2.527
				c1.396,0,2.526,1.133,2.526,2.527S85.199,1044.291,83.803,1044.291"/>
			<path fill="#2CB35F" d="M83.795,1051.699c-1.023,0-1.852-0.83-1.852-1.852s0.828-1.852,1.852-1.852
				c1.021,0,1.851,0.83,1.851,1.852S84.817,1051.699,83.795,1051.699"/>
		</g>
	</g>
	<g>
		<path opacity="0.4" fill="#FFFFFF" d="M1340.67,925.559c0,0-15.002-3.984-39.002-0.803c-24,3.182-50.84,20.234-66,19.978
			c-15.158-0.258-98-35.559-98-35.559s-54.188-27.09-86.666-24.394c0,0-3.332,2.447-16-8.197
			c-12.666-10.646-35.698,18.02-35.698,18.02s-6.303,12.391-56.968,12.863c-50.669,0.471-60.001,16.125-64.001,17.299
			c-4,1.172-16.001,7.838-52.667,7.838c-36.666,0-39.965,0.889-55.982,8.111c-16.018,7.223-39.352,10.221-56.018,1.055
			c-16.666-9.166-16.016-35.441-49.008-34.303c-32.992,1.137-57.66,33.469-78.992,34.303c-21.334,0.834-77.934,2.965-77.934,2.965
			s-15.881-2.338-50.309-15.568c-34.426-13.229-49.797,0.43-49.797,0.43S382,945.531,345,944.734c-37-0.797-101-16.52-123-15.658
			L83.771,944.229L0.5,949.265L0,987.344l1600.498-0.406l0.002-39.994c0,0-73.824-0.637-82.5,0.742
			c-14.541,2.312-95.361,5.629-133.844-8.75C1345.674,924.557,1340.67,925.559,1340.67,925.559"/>
		<path fill-rule="evenodd" clip-rule="evenodd" fill="#FFFFFF" d="M693.018,964.609c-11.498-4.143-13.801-14.15-18.834-22.35
			c-2.848-4.627-8.303-8.023-13.25-10.795c-1.85-1.039-5.586,1.205-8.434,2.053c-2.205,0.664-4.357,1.488-6.539,2.238
			c-0.303-0.664-0.605-1.324-0.914-1.979c2.34-1.357,4.68-2.715,7.736-4.48c-11.559-4.105-23.184-7.787-26.315-22.039
			c4.65,4.457,8.748,8.389,13.371,12.809c1.873-5.484,0.764-8.885-2.627-12.039c-3.33-3.103-5.82-6.832-5.092-10.629
			c2.275,2.672,5.443,5.467,7.414,8.932c2.535,4.459,4.105,9.467,6.086,14.229c-0.537,0.324-1.086,0.643-1.625,0.961
			c3.209,0.555,6.422,1.106,10.449,1.797c-0.07-4.197-0.141-8.07-0.209-11.939c0.557-0.113,1.115-0.223,1.676-0.332
			c1.184,4.584,2.361,9.162,3.268,12.672c5.439,3.154,10.504,6.092,15.685,9.1c-0.713-10.65-10.404-22.967-20.473-26.277
			c-4.943-1.625-11.457-9.973-11.361-15.02c0.018-1.285,1.293-2.551,1.99-3.83c0.891,0.957,2.23,1.758,2.607,2.881
			c3.371,10.055,4.15,10.877,16.785,14.936c-7.119-10.889-9.641-21.176-0.557-31.248c-0.383,2.23-0.283,4.707-1.262,6.637
			c-1.756,3.483-2.537,6.74-0.953,10.469c2.918,6.887,5.699,13.828,8.703,21.152c5.521-4.096,2.537-7.688,1.578-11.256
			c-0.439-1.662-0.336-3.479,0.707-5.272c2.648,5.758,6.646,11.314,1.861,17.729c-0.723,0.965-0.775,2.982-0.305,4.188
			c3.322,8.512,6.836,16.945,10.357,25.377c0.252,0.604,1.035,0.996,1.691,1.594c7.555-7.703,8.715-16.096,4.801-25.709
			c-3.508-8.627-5.457-17.984-12.562-24.785c-0.41-0.387-0.766-0.975-0.856-1.52c-1.035-5.926-2.01-11.871-3.15-18.73
			c5.135,3.23,6.951,7.15,7.928,11.906c0.711,3.438,2.324,6.691,3.82,10.828c3.492-2.287,6.309-3.498,8.215-5.557
			c2.492-2.686,3.838-6.045-0.082-8.971c-5.832-4.342-6.348-6.377-2.756-15.385c0.5,5.307,0.854,9.145,1.213,12.967
			c0.565,0.115,1.135,0.223,1.699,0.332c1.703-1.961,3.4-3.928,4.514-5.225c0.565,3.141,2.051,6.873,1.613,10.365
			c-0.369,2.949-2.645,5.898-4.67,8.348c-1.826,2.207-4.465,3.736-7.578,6.231c2.416,5.348,4.779,10.916,7.43,16.34
			c4.648,9.537,1.664,25.428-6.771,34.385c1.248,1.648,2.523,3.326,4.279,5.639c1.867-3.482,3.178-6.822,5.262-9.576
			c2.104-2.768,4.98-4.947,6.252-6.172c-1.094-13.752-2.092-26.346-3.104-38.939c0.961-0.123,1.924-0.25,2.883-0.373
			c0.834,7.24,1.658,14.486,2.498,21.887c0.502,4.394,1.012,8.842,1.52,13.375c2.56-1.07,4.461-1.867,6.184-2.59
			c0.807-4.744,1.646-9.219,2.307-13.715c0.148-1.057-0.008-2.367-0.523-3.287c-4.19-7.565-4.793-15.358-3.555-23.945
			c0.66-4.56-0.947-10.109-3.232-14.279c-3.572-6.504-1.572-12.131,0.523-18.252c1.279,8.539-0.727,17.982,7.106,23.805
			c-0.557,6.695-1.068,13.041-1.602,19.377c0.588,0.322,1.17,0.637,1.752,0.955c5.176-6.881,13.81-11.232,13.662-22.084
			c0.057,6.318,1.902,12.275-4.99,17.01c-7.092,4.875-7.898,10.76-4.348,16.979c4.973-4.244,10.715-7.684,14.357-12.664
			c3.59-4.92,5.061-11.393,7.459-17.188c0.522,0.16,1.053,0.318,1.58,0.484c-0.537,3.141-1.084,6.281-1.772,10.309
			c3.916-2.426,7.17-4.443,10.414-6.453c0.387,0.613,0.775,1.232,1.166,1.846c-3.797,2.455-7.633,4.826-11.35,7.393
			c-1.828,1.266-4.469,2.617-4.908,4.393c-2.053,8.115-8.703,11.738-14.68,15.99c-3.938,2.799-6.055,5.932-4.191,10.738
			c12.502,3.144,14.914-5.799,16.768-15.436c0.508,0.352,1.027,0.705,1.553,1.051c-0.67,3.879-1.342,7.762-2.025,11.748
			c7.559,0.033,11.516-2.854,12.008-10.354c0.799-12.264,10.705-20.006,14.231-30.824c0.352-1.066,2.404-1.57,4.717-2.979
			c-2.363,5.785-3.883,10.533-6.188,14.867c-2.332,4.393-5.43,8.369-8.219,12.57c8.012,4.012,11.83,2.363,14.498-5.461
			c0.877-2.59,2.764-4.824,4.191-7.229c0.783,0.445,1.572,0.896,2.359,1.352c-2.164,3.561-4.33,7.115-7.105,11.676
			c3.185-0.588,5.162-0.951,7.144-1.316c0.168,0.397,0.334,0.803,0.51,1.203c-3.967,1.441-7.836,3.281-11.914,4.232
			c-4.549,1.055-8.213,2.213-9.979,7.369c-2.34,6.785-8.795,8.225-15.576,9.449c1.807,4.02,3.432,7.643,5.207,11.584
			c6.494-2.785,8.199-8.625,9.59-16.053c1.416,2.885,2.201,4.486,3.074,6.268c2.967-0.397,5.865-0.789,8.766-1.18
			c-14.295,2.94-18.502,18.348-31.402,23.51c7.393,3.256,9.887,2.672,16.682-2.662c4.748-3.725,10.51-6.557,14.184-11.107
			c3.381-4.188,4.561-10.145,7.795-14.906c-1.023,3.603-2.051,7.209-3.076,10.815c0.367,0.146,0.746,0.297,1.115,0.451
			c3.541-3.473,7.088-6.941,10.635-10.406c0.305,0.305,0.609,0.607,0.914,0.906c-5.758,5.727-11.523,11.453-17.42,17.32
			c0.49,0.346,1.451,1.029,2.41,1.701c0.248,0.588,0.486,1.174,0.736,1.762c-11.516-1.502-16.232,7.516-23.146,14.266
			c6.471-0.916,12.953-1.834,19.432-2.75c0.168,0.523,0.328,1.053,0.49,1.574c-3.189,0.734-6.35,1.562-9.56,2.164
			c-3.428,0.65-7.035,1.928-10.303,1.383c-3.363-0.572-6.418-3.008-9.609-4.623c-0.881,1.815-1.723,3.553-2.861,5.902
			c-3.078-7.492-3.727-7.729-10.383-4.283c-4.588,2.371-9.152,4.793-13.723,7.205c-3.131,1.652-2.377,5.303,1.592,9.004
			c1.854,1.729,5.021,3.381,1.762,6.58c-2.658,2.613-5.176,2.287-7.565-0.398c-0.523-0.588-1.102-1.125-1.652-1.68
			c-8.211-8.309-8.289-7.908-19.938-10.205c-4.721-0.924-8.738-0.766-13.414,0.094c-3.227,0.598-7.168-2.67-10.781-4.209
			c0.285-0.684,0.582-1.367,0.869-2.043c3.074,1.156,6.158,2.312,9.244,3.473c0.34-0.711,0.684-1.42,1.018-2.125
			c-9.766-4.707-13.73-19.018-28.5-16.233c1.287-1.06,2.568-2.127,3.93-3.25c-1.049-2.945-2.105-5.912-2.588-7.26
			c8.508,6.111,17.783,12.785,28.037,20.164c-0.039-9.795-9.635-15.822-6.887-26.158c3.824,8.725,7.211,16.354,10.506,24.02
			C674.693,967.842,683.637,969.553,693.018,964.609 M713.227,956.357c4.271,6.004,7.365,5.594,10.641,1.314
			c1.391-1.807,3.486-3.135,5.418-4.459c8.744-6.004,9.529-9.686,3.842-19.4c-4.277,0.797-8.629,1.607-14.715,2.736
			c4.328,2.656,7.098,4.352,9.877,6.053c-0.348,0.688-0.691,1.371-1.033,2.053c-3.289-1.438-6.504-3.123-9.91-4.199
			c-1.527-0.484-3.904-0.365-5.102,0.531c-7.533,5.672-9.627,13.551-8.494,22.603C708.275,963.959,713.082,965.01,713.227,956.357"
			/>
		<path fill="#FFFFFF" d="M431.529,931.289c0,0-0.963-1.729,0-3.154c0.963-1.424,6.221-3.303,6.221-3.303s1.018-1.09,2.063-3.846
			c1.046-2.758,2.301-3.818,3.138-4.666c0.836-0.848,3.765-1.617,3.975-3.459c0.209-1.842,0-6.793,0-6.793s1.674-2.26,2.928-3.955
			c1.256-1.697,2.51-3.182,2.928-5.938c0.418-2.758-1.672-6.574-2.301-7.848c-0.627-1.272-0.836-6.234-0.836-8.207
			c0-1.971,1.783-5.787,3.191-8.121c1.41-2.332,3.084-9.543,2.246-14.207c-0.836-4.666,0.031-5.555,0.225-8.715
			c0.194-3.16,0.402-7.445-3.361-12.09c0,0-1.883,4.834-1.047,8.047c0.838,3.215,0.834,7.881-2.092,12.121
			c-2.928,4.242-3.764,6.998-2.3,13.572c1.464,6.574,1.046,8.396,0.628,9.393c-0.419,0.998-1.414,8.844,0.757,13.721
			c0,0,0.42,4.666-2.993,6.574c-3.412,1.908-1.98,6.15-1.65,9.119c0,0,0.926,1.775,0,3.326c-0.926,1.551-2.181,1.338-3.016,3.459
			c-0.838,2.121-0.439,3.213-2.302,4.453c-1.862,1.24-3.712,3.125-3.712,3.125s1.017-2.664,1.214-4.908
			c0.197-2.246,1.452-4.154,2.917-4.578c1.464-0.424,2.51-3.236,0.209-6.389c-2.301-3.154-0.42-5.062,0.209-8.031
			c0.627-2.969,2.123-10.367-2.182-15.15c-4.303-4.783-3.031-1.164-7.745-9.441c0,0-1.143-7.104,0-14.688
			c1.142-7.586-3.251-15.391-4.925-17.639c-1.673-2.246-3.312-4.838-3.225-8.312c0.088-3.477-4.096-8.285-9.744-11.287
			c0,0,2.028,8.824,4.361,11.287c2.332,2.461,2.175,3.834,2.149,7.07c-0.025,3.236-2.954,9.562,5.831,21.562
			c0,0,2.092,3.916,2.719,10.608c0.627,6.693,5.123,14.326,7.164,15.6c2.039,1.271,2.564,4.877,1.047,8.482
			c-1.517,3.604-1.203,4.666,2.404,11.451c0,0,1.486,1.986-1.217,3.326c-2.705,1.338-1.765,6.852-2.234,8.549
			c-0.471,1.695-2.809,4.141-3.51,5.045c-0.699,0.906-7.666-5.258-8.065-9.074c-0.399-3.816,1.655-4.24,0-8.27
			c-1.654-4.029-2.249-4.242-0.905-6.787c1.343-2.545,3.814-4.877,0.905-13.148c-2.909-8.269-1.066-8.662,0-10.478
			c1.065-1.82,0.772-2.881-0.86-10.303c0,0-3.88,5.547-3.278,10.303c0.602,4.754,1.648,10.057,1.857,12.389
			c0.208,2.332,1.097,1.908-1.857,6.15c-2.954,4.24-2.065,7.119,0,9.496c2.065,2.379,2.101,6.143,2.065,6.619
			c-0.033,0.477,0.019,4.084,0.428,4.904c0.41,0.82-4.577-3.209-5.012-6.389c-0.436-3.182,0.96-4.666-1.62-9.33
			c-2.58-4.666-0.767-17.178,0-20.146c0.767-2.969,0.704-7.713-1.671-13.08c-2.375-5.367-0.752-7.375,0.006-8.598
			c0.758-1.225,2.027-10.555-4.883-21.369c0,0-3.549-3.817,0-17.389c0,0-6.699,10.984-5.445,15.033
			c1.256,4.051,2.719,3.137,2.929,8.047c0.209,4.912-4.812,7.031,0.209,19.332c0,0,5.228,5.699,5.228,9.635
			c0,3.935-1.89,10.086-3.036,12.631c-1.146,2.543-0.696,8.059,2.007,12.723c2.704,4.666,3.749,8.639,3.749,8.668
			c0,0.027-1.227,4.148,0.907,6.176c0,0-4.222-4.596-4.656-8.131c-0.435-3.531-2.107-5.229-3.571-6.502
			c-1.465-1.271-4.288-6.148-3.922-8.27c0.366-2.121-1.518-12.809-5.072-14.674c-3.557-1.865-2.301-3.219-2.512-7.312
			c-0.208-4.096,1.256-3.461-4.6-11.094c-5.857-7.635-8.605-5.957-7.336-10.93c1.27-4.975-0.822-8.199-2.287-10.299
			c0,0-3.765,6.768,0,12.09c3.766,5.32,2.625,9.414,2.777,10.973c0.152,1.559,1.615,6.012,5.59,10.465
			c3.975,4.453,8.994,11.027,8.785,19.086c-0.209,8.059,5.857,11.451,7.948,14.631c2.092,3.182,1.882,2.545,3.347,4.879
			c1.463,2.332,3.91,7.252,12.881,12.299c0,0,5.451,3.006,5.803,9.879l-0.497,2.135h5.532V931.289z"/>
		<path fill-rule="evenodd" clip-rule="evenodd" fill="#FFFFFF" d="M989.561,887.496c1.066-3.148,9.99,7.424,7.465-5.6
			c3.285,0.449,4.256,3.213,3.734,7.467c1.742-1.369,2.828-3.393,3.734-5.602c4.025,0.123-2.856,12.139,3.732,5.602
			c5.752,1.861-2.08,5.045-3.732,5.6c-0.555,4.908,7.239,1.469,5.6,7.467c-4.938-2.94-5.797-2.08-3.734,3.732
			c-4.24-3.592-5.584-4.273-7.467,1.867c-2.186-0.301-1.572-3.402-1.867-5.6c-2.688,1.045-4.555,2.91-5.598,5.6
			c-3.938,0.236,5.559-12.127-1.867-5.6c-5.408-1.045,2.863-2.912,1.867-5.6c-1.369-1.742-3.395-2.828-5.6-3.734
			c1.227-5.59,3.988,1.785,7.465,0C991.69,891.59,992.185,887.984,989.561,887.496z"/>
		<path fill-rule="evenodd" clip-rule="evenodd" fill="#FFFFFF" d="M1022.445,877.432c1.066-3.15,9.988,7.424,7.465-5.6
			c3.285,0.449,4.256,3.211,3.734,7.467c1.742-1.369,2.828-3.395,3.732-5.602c4.025,0.123-2.854,12.139,3.732,5.602
			c5.752,1.861-2.078,5.045-3.732,5.6c-0.553,4.908,7.242,1.469,5.6,7.467c-4.938-2.939-5.797-2.08-3.732,3.733
			c-4.24-3.59-5.584-4.273-7.467,1.867c-2.188-0.303-1.574-3.404-1.867-5.6c-2.688,1.045-4.555,2.91-5.6,5.6
			c-3.937,0.234,5.561-12.127-1.865-5.6c-5.41-1.045,2.861-2.912,1.865-5.6c-1.369-1.744-3.396-2.828-5.601-3.734
			c1.228-5.59,3.991,1.787,7.468,0C1024.572,881.525,1025.068,877.92,1022.445,877.432z"/>
		<path fill-rule="evenodd" clip-rule="evenodd" fill="#FFFFFF" d="M1009.196,904.857c1.066-3.148,9.99,7.426,7.465-5.6
			c3.285,0.451,4.256,3.213,3.734,7.469c1.743-1.369,2.829-3.395,3.733-5.602c4.027,0.121-2.854,12.137,3.732,5.602
			c5.752,1.859-2.078,5.043-3.732,5.6c-0.553,4.908,7.242,1.469,5.6,7.465c-4.936-2.939-5.797-2.08-3.732,3.734
			c-4.241-3.592-5.585-4.275-7.468,1.865c-2.188-0.301-1.574-3.402-1.867-5.6c-2.688,1.045-4.555,2.91-5.6,5.6
			c-3.936,0.236,5.561-12.127-1.865-5.6c-5.408-1.045,2.863-2.91,1.865-5.6c-1.367-1.742-3.395-2.828-5.598-3.732
			c1.227-5.59,3.987,1.785,7.465,0C1011.323,908.953,1011.818,905.346,1009.196,904.857z"/>
		<path fill-rule="evenodd" clip-rule="evenodd" fill="#FFFFFF" d="M842.926,879.799c0.783,0.068,1.393,0.119,1.998,0.17
			c0.025-0.082,0.049-0.162,0.074-0.242c-0.775-0.256-1.604-0.412-2.314-0.791c-1.324-0.701-2.582-1.533-3.865-2.312
			c-0.742-0.453-1.424-1.062-2.223-1.34c-3.359-1.178-6.719-2.408-10.158-3.301c-1.615-0.42-3.207-0.924-4.826-1.318
			c-0.277-0.068-0.639,0.225-0.889,0.322c-0.928-0.537-2-0.137-3.002-0.158c-0.363-0.008-0.736,0.312-1.25,0.553
			c0.113,0.111-0.018-0.078-0.068-0.061c-0.965,0.373-1.988,0.662-2.861,1.197c-0.688,0.422-1.248,1.107-1.773,1.752
			c-1.256,1.539-2.309,3.16-2.137,5.315c0.125,1.545-0.029,3.107,0.121,4.647c0.094,0.963,0.488,1.9,0.793,2.836
			c0.588,1.807,1.184,3.607,1.824,5.394c0.127,0.35,0.469,0.621,0.711,0.932c0.273-0.238,0.578-0.449,0.81-0.721
			c0.266-0.309,0.463-0.676,0.633-0.93c0.102,0.223,0.231,0.502,0.359,0.783c0.266-0.197,0.609-0.34,0.783-0.6
			c0.772-1.152,0.535-2.195-0.4-3.156c-1.006-1.035-1.986-2.094-2.809-2.957c0.24-1.043,0.584-1.945,0.629-2.863
			c0.066-1.32,0.129-2.592,1.352-3.709c0.76,0.156,1.744,0.358,2.666,0.547c-0.689-0.365-1.445-0.766-2.195-1.166
			c0.352-0.91,0.885-0.809,2.498,0.361c-0.172-0.242-0.334-0.492-0.519-0.723c-0.213-0.268-0.445-0.514-0.732-0.838
			c0.236-0.17,0.469-0.338,0.717-0.52c0.533,0.562,1.025,1.084,1.711,1.811c-0.229-0.783-0.393-1.336-0.564-1.936
			c0.295-0.066,0.588-0.131,0.643-0.142c0.565,0.674,1.062,1.264,1.557,1.855c-0.08,0.057-0.16,0.115-0.238,0.174
			c0.027-0.59,0.055-1.178,0.082-1.764c1.078,0.045,1.373,0.996,0.916,3.346c0.299-0.59,0.537-0.971,0.686-1.381
			c0.15-0.414,0.221-0.857,0.31-1.289c0.129-0.613,1.152-0.85,1.738-0.402c0.514,0.395,1.033,0.783,1.41,1.07
			c-0.424,1.211-0.859,2.443-1.291,3.678c-0.033,0.098-0.074,0.201-0.076,0.301c-0.121,2.633-1.654,4.117-3.998,5.068
			c0.201-0.018,0.418,0.012,0.6-0.055c1.961-0.748,3.592-1.748,3.939-4.125c0.178-1.211,0.703-2.385,1.15-3.545
			c0.158-0.4,0.557-0.711,0.938-1.174c-0.041,0.891-0.137,1.51-0.08,2.117c0.148,1.678,0.371,3.35,0.535,5.029
			c0.023,0.219-0.078,0.488-0.207,0.674c-0.566,0.81-1.164,1.6-1.832,2.51c1.543-0.764,2.625-2.598,2.518-4.074
			c-0.115-1.545-0.24-3.09-0.299-4.637c-0.016-0.406,0.191-0.82,0.277-1.16c0.688,1.389,1.211,2.758,1.994,3.955
			c1.107,1.693,1.525,3.381,0.576,5.295c0.922-0.746,1.344-2.744,0.873-3.676c-0.715-1.42-1.447-2.836-2.141-4.264
			c-0.156-0.32-0.191-0.697-0.174-1.078c1.195,1.994,3.315,2.897,4.877,4.4c0.209,0.203,0.396,0.514,0.43,0.793
			c0.135,1.129,0.203,2.27,0.271,3.111c0.781-1.439,0.432-3.609-1.006-4.836c-0.992-0.85-1.992-1.695-2.979-2.553
			c-0.211-0.184-0.387-0.408-0.508-0.713c1.428,1.496,3.447,1.426,5.197,1.977c1.695,0.531,2.121,1.846,2.633,3.203
			c0.07,0.188,0.066,0.402,0.096,0.602c0.094-0.025,0.188-0.049,0.281-0.074c-0.229-0.713-0.459-1.426-0.69-2.139
			c-0.389-1.184-1.199-1.815-2.42-2.109c-1.289-0.312-2.529-0.811-3.76-1.338c7.104,0.361,13.924,2.035,20.633,4.289
			C848.555,882.658,845.535,881.852,842.926,879.799"/>
		<g>
			<path fill="#FFFFFF" d="M568.154,938.572c-0.021,0.004-0.034,0.006-0.034,0.006C568.129,938.578,568.142,938.576,568.154,938.572
				z"/>
			<path fill="#FFFFFF" d="M580.85,951.752l-0.162-0.16l-0.121-0.121c0,0-0.281,0-0.404-0.082c-0.121-0.08-0.161-0.039-0.161-0.039
				s0-0.123-0.04-0.283c-0.041-0.164-0.243-0.203-0.243-0.203l-0.201-0.121l-0.243-0.162l-0.242-0.16c0,0-0.121-0.041-0.363-0.242
				c-0.244-0.203,0,0-0.121-0.041c-0.123-0.041-0.363-0.123-0.363-0.123s-0.285-0.201-0.445-0.242
				c-0.162-0.039-0.203-0.402-0.203-0.402c-0.645-1.496-4.203-1.578-5.091-1.74c-0.89-0.16-0.565-1.131-0.565-1.131
				c2.262-0.162,1.494-2.019,1.494-2.142c0-0.121,0.12-0.121,0.12-0.121l0.323,0.043c0.486,1.252,1.416,1.172,3.76-0.607
				c2.344-1.777,3.233-5.053,3.436-9.457c0.201-4.404-2.788-6.951-4.527-6.746c-1.738,0.199-1.777,1.938-1.697,2.059
				c0.082,0.121,0.891-0.121,1.375-0.121c0.486,0,0.523,0.566,0.523,0.566c-0.233,0-0.968,1.211-1.211,1.777
				c-0.242,0.567-1.092,2.061-1.092,2.061c-0.242-0.201-1.777,1.375-2.383,2.184c-0.606,0.809-2.223,1.939-2.547,2.424
				c-0.322,0.484-0.686,0.891-0.85,0.891c-0.16,0,0.203-0.365,0.404-0.648c0.182-0.252-0.673-0.117-0.854-0.086
				c-0.013,0.004-0.025,0.006-0.034,0.006c0,0,0.013-0.002,0.034-0.006c0.328-0.098,1.389-1.465,1.664-1.895
				c0.281-0.445,0-0.564-0.041-0.728c-0.041-0.16,0.484-1.369,0.484-1.695c0-0.322-0.443-0.484-0.606-0.484
				s-0.203-1.051-0.525-1.375c-0.324-0.324-0.809-0.201-1.092-0.244c-0.283-0.039-0.242-0.484-0.525-0.727
				c-0.283-0.242-1.051-0.322-1.253-0.322c-0.201,0-0.606-0.686-0.97-0.889c-0.363-0.205-0.889-0.082-1.213-0.082
				c-0.322,0-0.889-0.727-1.293-0.889s-1.574-0.082-1.98-0.041c-0.404,0.041-1.373-0.645-1.859-0.768
				c-0.483-0.121-1.131,0.283-1.94-0.121c-0.807-0.404-2.142-0.969-2.506-0.969c-0.363,0-0.363,0-0.686-0.242
				c-0.324-0.244-0.931-0.527-0.931-0.527c0.241-0.525,0.081-1.049-0.241-1.172c-0.324-0.121-0.889,0.77-0.889,0.77l-0.123-0.203
				c-0.484-0.567-1.172-0.484-1.413-0.484c-0.243,0-0.526,0.121-0.526,0.121l-0.201,0.039c0-0.119-0.81-1.373-0.931-1.494
				c-0.121-0.121,0.646-1.414,0.646-1.414l-0.039-0.121l-0.89,1.496l-0.121-0.082c0,0-0.08-0.082-0.323-0.119
				c0,0-0.12,0.078-0.12,0.201c0,0.121,0.848,0.848,0.808,0.967c-0.041,0.123-0.484,0.203-0.484,0.203
				c-0.486-0.525-1.052-0.039-1.052-0.039c-0.524-0.607-0.728-0.324-0.929-0.365c-0.202-0.039,0.162-0.967,0.162-0.967
				s0.443-0.568,0.525-0.77c0.08-0.203,1.817-0.445,1.817-0.445c-0.243-0.08-1.737,0.242-2.021,0.324
				c-0.283,0.08-0.484,0.606-0.484,0.606l-0.244-0.041c0.082-0.201,0.162-0.93,0.042-0.727c-0.122,0.201-1.03,2.221-1.03,2.221
				c-0.244-0.664-1.637-0.424-1.637-0.424c-0.91-1.514-1.274,0.424-1.274,0.424c-0.241,0-1.212,0.123-2.303,0.426
				c-1.091,0.303-2.849-0.06-2.849-0.06c-1.395-0.545-3.153-0.061-3.153-0.061c-0.303-0.424-1.819-0.787-1.819-0.787
				c0.367-0.424,0-1.152,0-1.152c0.608-0.303,0.608-2.002,0.789-2.303c0.182-0.305,1.092-0.547,1.697-0.547
				c0.607,0,0.546-0.606,0.546-0.606s0.849,0,1.03-0.061c0.182-0.06,0.182-0.484,0.485-0.728c0.302-0.24,0.85,0.184,1.151,0.244
				c0.305,0.059,0.85-0.547,0.971-0.729c0.121-0.183,0.424,0,0.848,0.182c0.424,0.184,0.91-0.182,0.91-0.182l0.303-0.121h0.303
				c0,0,0.304,0.242,0.607,0.242c0.303,0,0.303-0.062,0.483,0c0.181,0.061,0,0,0.608,0.123c0.604,0.121,0.303-0.85-0.548-1.576
				c-0.848-0.729-4.181-1.154-6.122-1.213c-1.94-0.061-4.062,0.848-4.91,0.967c-0.848,0.123-3.395,1.094-3.395,1.094
				c-0.121-1.576-5.881,1.517-6.791,2.242c-0.906,0.727-1.998,2.002-1.998,2.002c-2.06,0-1.758,1.027-1.758,1.027
				c-1.334-0.301-1.697,0.67-1.82,0.85c-0.12,0.184-0.545,0.91-1.636,1.82c-1.091,0.91-1.517,3.092-1.454,4.789
				c0.06,1.697,2.242,2.848,2.729,3.092c0.484,0.242,0.181,0.787,0.121,1.514c-0.061,0.729,0.545,0.91,0.545,0.91
				c-4.91,2.424-9.153,8.002-9.153,8.002l0.241,0.303c-0.363,3.939,1.819,6.852,1.819,6.852l0.243-0.062l0.182-0.121l0.182,0.303
				l0.06,0.301l0.727,1.094c0,0,0,0.424,0.789,1.395c0.787,0.971,1.879,1.213,1.879,1.213c0.182,0.184,1.455,1.092,1.818,1.271
				c0.363,0.182,0.607,0,0.484-0.121c-0.121-0.119-1.152-1.393-1.152-1.393c0.305-0.486-2.666-6.428-2.484-6.668l0.363-0.065v-0.359
				c0,0,0,0,0-0.184c0-0.184,0.244-0.303,0.244-0.303s0,0,0.181-0.242c0.183-0.244,0.061-0.182,0.12-0.363
				c0.062-0.184,0.305-0.242,0.305-0.242h0.424l-0.242-0.363l0.121-0.305l0.728,0.363l-0.426-0.363l-0.06-0.184v-0.301l0.184-0.121
				l0.18-0.303l0.486,0.545l-0.243-0.484v-0.426l0.364-0.424c0,0,0,0,0.121-0.182c0.121-0.184,0.121-0.305,0.121-0.305
				s0.182-0.182,0.242-0.361c0.06-0.182,0-0.303,0-0.303v-0.246l0.242-0.018c0.324,0.16,2.748,1.131,2.748,1.131
				c0.121,1.051,2.021,2.588,2.021,2.588c-0.809,1.008,0.242,3.232,0.484,3.596c0.242,0.363,1.335,2.748,1.414,2.949
				c0.082,0.203,0.607,0.203,0.85,0.203s0.08-0.082,0.282,0.85c0.202,0.926,3.396,2.305,3.759,2.342
				c0.363,0.041,0.526-0.361,0.526-0.361c2.183,0.889,4.323-0.082,4.323-0.082s0.889-0.203,1.738-0.283
				c0.848-0.08,3.312-1.496,3.312-1.496l-0.039-0.201l-1.294,0.201l-0.282-0.039c-0.729-0.525-5.498-0.041-6.225,0.039
				c-0.727,0.082-0.647-0.684-0.606-0.889c0.039-0.201-0.768-1.211-1.414-1.898c-0.646-0.688-1.818-1.414-1.818-1.414l-0.203-0.647
				c0,0,0-0.365-0.242-0.365s-1.051-1.172-1.051-1.172c0.688,0.242,9.053,2.586,10.062,2.992c1.01,0.402,0.848-0.041,0.848-0.041
				s0.283,0,0.648-0.121c0.363-0.121,0.889,0,1.172-0.043c0.283-0.039,0.322,0.043,0.322,0.043s0.486,0,0.769,0
				c0.282,0,0.443,0.08,1.212,0.24c0.768,0.164,0.283,0.164,0.283,0.164s0.201,0.041,1.576,0.08
				c1.374,0.041,1.211,0.363,1.939,0.363c0.728,0,0.444,0,0.728,0s1.374,0.082,1.899,0.082s0.404,0.08,0.605,0.24
				c0.203,0.162,0.324,0.123,0.607,0.203c0.281,0.082,0.242,0.041,0.727,0.121c0.486,0.082,0.242,0.082,0.404,0.203
				c0.162,0.119,0.363,0.08,0.566,0.162c0.202,0.08,0.525,0.08,0.727,0.119c0.202,0.043,0.688,0,1.092,0s0.606-0.039,0.808-0.162
				c0.204-0.119,0.769,0.043,0.97,0.043c0.203,0,0.324,0,0.648-0.043c0.322-0.039,0.523-0.08,0.968-0.08
				c0.445,0,0.445-0.039,0.687-0.121c0.244-0.08,0.445-0.039,0.445-0.039l0.607-0.041l0.445-0.203c0,0,0.403-0.119,0.606-0.201
				c0.201-0.08,0.727-0.242,0.727-0.242l0.485-0.121c0,0,0.202-0.162,0.443-0.203c0.243-0.039,0.81-0.727,0.81-0.727
				c0.971,0.08,9.617-0.123,9.617-0.123c0.324,0.406,2.869,2.91,2.869,2.91c-0.686,0.283-5.252,3.072-5.495,3.193
				c-0.243,0.121-0.282,0.283-0.444,0.564c-0.16,0.285-1.414,0.568-1.616,0.525c-0.202-0.039-0.081,0.205-0.081,0.205
				c6.021,1.293,10.588-3.316,11.153-4.285c0.567-0.969,0.202-2.02,0.202-2.02l0.283,0.16l0.242,0.08c0,0,0.203,0.121,0.322,0.244
				c0.123,0.121,0.204-0.203,0.769,0.08c0.565,0.283,3.152,2.305,3.152,2.305c-0.444,1.252-0.081,3.393-0.081,3.393h0.323
				l0.121,0.123c-0.283,0.203-0.242,0.848-0.242,0.848C583.477,955.955,580.85,951.752,580.85,951.752z M517.281,939.59
				c-0.283-0.08,0.08-0.365,0.443-0.244c0.365,0.121,0.646,0.324,0.769,0.443c0.12,0.121,0.241,0.244,0.241,0.244
				s0.552,0.619,0.732,0.746c0.022,0.016,0.036,0.021,0.036,0.021c-0.009-0.002-0.021-0.01-0.036-0.021
				C519.201,940.625,517.54,939.662,517.281,939.59z M529.041,944.277l-0.486-0.043c0,0-1.898-1.898-1.454-2.1
				c0.444-0.203,1.295,0.039,1.454,0.242C528.717,942.58,529.203,943.065,529.041,944.277z M564.16,947.709
				c-0.183,0.147-2.201,0.26-2.6,0.281c-0.023,0.006-0.045,0.006-0.068,0.004c0,0,0.024,0,0.068-0.004
				c0.315-0.06,0.699-0.725,0.699-0.725s1.738,0,2.021,0.08C564.563,947.428,564.361,947.549,564.16,947.709z"/>
			<path fill="#FFFFFF" d="M519.467,940.779c0.015,0.012,0.027,0.02,0.036,0.021C519.503,940.801,519.489,940.795,519.467,940.779z"
				/>
			<path fill="#FFFFFF" d="M561.56,947.99c-0.044,0.004-0.068,0.004-0.068,0.004C561.516,947.996,561.537,947.996,561.56,947.99z"/>
		</g>
		<path fill="#FFFFFF" d="M1243.424,964.402c0,0-1.334-2.396,0-4.371c1.335-1.975,8.622-4.58,8.622-4.58s1.411-1.51,2.86-5.33
			c1.449-3.822,3.189-5.291,4.349-6.467c1.16-1.176,5.218-2.24,5.509-4.795c0.289-2.553,0-9.414,0-9.414s2.32-3.133,4.059-5.484
			c1.74-2.352,3.479-4.408,4.059-8.23c0.58-3.82-2.318-9.111-3.188-10.875c-0.87-1.764-1.159-8.643-1.159-11.375
			c0-2.733,2.471-8.024,4.424-11.258c1.953-3.233,4.273-13.227,3.113-19.693c-1.16-6.465,0.042-7.697,0.311-12.078
			c0.27-4.381,0.559-10.318-4.658-16.756c0,0-2.61,6.699-1.451,11.152c1.16,4.455,1.156,10.922-2.9,16.801
			c-4.059,5.879-5.217,9.699-3.188,18.811c2.029,9.113,1.449,11.639,0.869,13.022c-0.58,1.383-1.959,12.258,1.051,19.017
			c0,0,0.582,6.467-4.148,9.111c-4.729,2.645-2.745,8.523-2.288,12.639c0,0,1.282,2.463,0,4.611
			c-1.282,2.148-3.022,1.855-4.181,4.795c-1.16,2.94-0.607,4.453-3.189,6.172s-5.145,4.332-5.145,4.332s1.408-3.693,1.682-6.805
			c0.273-3.111,2.014-5.758,4.043-6.346c2.029-0.586,3.479-4.484,0.289-8.856c-3.188-4.369-0.58-7.016,0.291-11.131
			c0.869-4.115,2.941-14.369-3.023-21c-5.965-6.629-4.203-1.611-10.736-13.084c0,0-1.584-9.848,0-20.361
			c1.582-10.512-4.506-21.33-6.826-24.445c-2.318-3.115-4.592-6.707-4.47-11.523c0.122-4.818-5.677-11.482-13.505-15.647
			c0,0,2.811,12.233,6.044,15.647c3.233,3.41,3.015,5.312,2.979,9.801c-0.035,4.486-4.095,13.254,8.082,29.887
			c0,0,2.899,5.428,3.77,14.703c0.869,9.277,7.1,19.858,9.928,21.621c2.828,1.764,3.557,6.762,1.453,11.758
			c-2.104,4.996-1.668,6.467,3.332,15.871c0,0,2.061,2.756-1.688,4.611c-3.748,1.855-2.445,9.498-3.098,11.85
			c-0.65,2.35-3.891,5.738-4.863,6.994c-0.97,1.254-10.625-7.289-11.18-12.58c-0.553-5.289,2.294-5.877,0-11.463
			c-2.293-5.584-3.117-5.877-1.255-9.406c1.861-3.525,5.288-6.76,1.255-18.223c-4.033-11.463-1.477-12.008,0-14.527
			c1.477-2.521,1.07-3.99-1.191-14.277c0,0-5.379,7.685-4.545,14.277s2.283,13.94,2.574,17.174c0.289,3.233,1.52,2.645-2.574,8.523
			c-4.095,5.879-2.863,9.869,0,13.164c2.863,3.295,2.91,8.514,2.863,9.174c-0.047,0.66,0.025,5.66,0.592,6.799
			c0.568,1.137-6.344-4.447-6.947-8.855c-0.603-4.41,1.332-6.467-2.244-12.934c-3.576-6.467-1.062-23.809,0-27.924
			c1.062-4.113,0.977-10.691-2.316-18.131c-3.291-7.439-1.042-10.223,0.008-11.918c1.051-1.695,2.811-14.627-6.767-29.617
			c0,0-4.919-5.291,0-24.103c0,0-9.287,15.225-7.548,20.84c1.739,5.613,3.768,4.348,4.059,11.152
			c0.29,6.807-6.668,9.746,0.29,26.795c0,0,7.247,7.9,7.247,13.355c0,5.455-2.619,13.979-4.209,17.506
			c-1.588,3.527-0.965,11.17,2.781,17.637c3.748,6.465,5.197,11.973,5.197,12.012c0,0.039-1.699,5.75,1.258,8.562
			c0,0-5.852-6.371-6.455-11.269c-0.602-4.896-2.92-7.248-4.949-9.012c-2.03-1.764-5.943-8.523-5.437-11.463
			c0.509-2.939-2.103-17.756-7.03-20.342c-4.93-2.584-3.189-4.461-3.48-10.135c-0.289-5.678,1.74-4.795-6.377-15.377
			c-8.118-10.582-11.928-8.256-10.168-15.15c1.76-6.893-1.141-11.363-3.169-14.271c0,0-5.22,9.379,0,16.756
			c5.219,7.375,3.639,13.049,3.849,15.209c0.211,2.16,2.239,8.334,7.748,14.506c5.509,6.172,12.467,15.283,12.178,26.453
			c-0.291,11.17,8.117,15.871,11.017,20.281c2.899,4.408,2.608,3.527,4.639,6.76c2.028,3.234,5.419,10.055,17.854,17.049
			c0,0,7.557,4.168,8.043,13.693l-0.688,2.959h7.668V964.402z"/>
		<path fill="#FFFFFF" d="M901.533,913.666c0,0-3.482-4.504-7.656-6.022c-4.174-1.517-2.656-6.83-2.656-8.348
			c0-1.518-0.76-2.656-3.416-6.451c-2.656-3.793-0.758-4.174,0-7.967c0.76-3.795,3.416-6.072,0.76-11.006
			c-2.656-4.932-5.137-7.719-5.416-14.482c-0.275-6.766,4.656-19.666,4.656-19.666s-1.896,11.004,1.139,14.799
			c3.037,3.793,6.604,7.77,3.393,17.074c-3.211,9.303,1.162,7.969,1.541,9.865s0.758,8.348,0.758,11.004c0,2.656,0,6.07,1.898,7.588
			c1.896,1.518,0.615,2.82,1.896,5.312c1.283,2.494,2.277,4.773,4.555,5.99c0,0,0-8.266,1.896-12.441
			c1.896-4.174,0.76-4.932,0-7.209c-0.76-2.275-2.277-4.932,3.035-8.726c5.312-3.795,7.967-6.451,8.348-8.348
			c0.381-1.896,4.553-7.59,2.656-17.453c-1.896-9.867,7.588-15.18,7.588-15.18s4.176-3.857,4.555-8.19
			c0.379-4.33,6.73-5.469,12.283-8.125c0,0-8.49,4.553-8.869,9.865c-0.379,5.312,0.758,7.064,1.896,8.844
			c1.139,1.781-0.379,10.184-10.244,16.797c0,0-4.932,5.803-4.932,8.482c0,2.682-3.01,10.271-7.955,15.205
			c0,0-3.807,1.518-2.67,6.828c1.139,5.312,1.518,3.875-3.035,11.764c-4.553,7.887,8.727,15.557,8.727,15.557
			s10.623-3.672,10.623-8.855c0-5.184,1.519-0.25,0-5.184c-1.518-4.934-0.758-10.625-0.379-11.764
			c0.379-1.139,0.379-4.172-1.139-8.727c-1.516-4.553-3.035-10.625,4.555-19.73c0,0-0.381,4.174,0.76,7.588
			c1.137,3.416,5.602,5.41,3.033,11.764c-2.566,6.354-4.174,5.312-3.414,9.106c0.76,3.795,4.932,5.691,3.035,11.385
			c-1.896,5.691-4.633,9.057-4.633,9.057s11.463-6.022,12.602-11.334c1.139-5.312,10.436-11.383,10.436-11.383
			s2.465-1.897,2.465-6.07c0-4.176,8.729-8.07,8.729-8.07s3.412-2.555,3.035-7.488c-0.381-4.932,0.377-10.668,9.863-16.527
			c9.488-5.859,9.107-4.342,9.867-10.033c0,0-4.174,21.25-9.867,25.422c-5.69,4.174-15.455,12.522-15.695,15.178
			c-0.24,2.656-0.24,5.693-6.69,12.522c-6.451,6.83-10.103,10.246-10.103,10.246s-13.779,15.346-19.291,15.451
			c-5.512,0.107-10.744-1.184-10.744-1.184l-4.77-3.203l-5.178-3.525H901.533z"/>
	</g>
	<rect x="1360.652" y="958.855" fill="none" width="227.776" height="20.799"/>
	<text transform="matrix(1 0 0 1 1368.0435 971.7974)" fill="#FFFFFF" font-family="'Helvetica'" font-size="18">CONCENTRATION (PPM)</text>
	<rect x="1432.5" y="432.387" fill="none" width="168" height="148.667"/>
	<text transform="matrix(1 0 0 1 1432.5 441.0146)"><tspan x="0" y="0" fill="#FFFFFF" font-family="'Helvetica'" font-size="12">SHARK: 1.00</tspan><tspan x="0" y="24.4" fill="#FFFFFF" font-family="'Helvetica'" font-size="12">SWORDFISH: 0.98</tspan><tspan x="0" y="48.8" fill="#FFFFFF" font-family="'Helvetica'" font-size="12">KING MACKEREL: 0.73</tspan><tspan x="0" y="73.2" fill="#FFFFFF" font-family="'Helvetica'" font-size="12">ORANGE ROUGHY: 0.57</tspan><tspan x="0" y="97.6" fill="#FFFFFF" font-family="'Helvetica'" font-size="12">TUNA: 0.14 - 0.69</tspan></text>
	<rect x="1432.5" y="635.079" fill="none" width="168" height="65.709"/>
	<text transform="matrix(1 0 0 1 1432.5 643.707)"><tspan x="0" y="0" fill="#FFFFFF" font-family="'Helvetica'" font-size="12">COD: 0.11</tspan><tspan x="0" y="24.4" fill="#FFFFFF" font-family="'Helvetica'" font-size="12">HERRING: 0.08</tspan><tspan x="0" y="48.8" fill="#FFFFFF" font-family="'Helvetica'" font-size="12">TROUT: 0.07</tspan></text>
	<rect x="1432.5" y="825.012" fill="none" width="168" height="104.063"/>
	<text transform="matrix(1 0 0 1 1432.5 833.6396)"><tspan x="0" y="0" fill="#FFFFFF" font-family="'Helvetica'" font-size="12">CATFISH: 0.03</tspan><tspan x="0" y="24.4" fill="#FFFFFF" font-family="'Helvetica'" font-size="12">ANCHOVIES: 0.02</tspan><tspan x="0" y="48.8" fill="#FFFFFF" font-family="'Helvetica'" font-size="12">SARDINE: 0.01</tspan><tspan x="0" y="73.2" fill="#FFFFFF" font-family="'Helvetica'" font-size="12">MOLLUSCS: 0.01</tspan></text>
	<rect x="1341.833" y="717.947" fill="none" width="77.906" height="42.21"/>
	<text transform="matrix(1 0 0 1 1338.833 752.459)"><tspan x="0" y="0" fill="#F26E2A" font-family="'Helvetica-Bold'" font-size="48" letter-spacing="-6">1</tspan><tspan x="19.975" y="0" fill="#F26E2A" font-family="'Helvetica-Bold'" font-size="48">0x</tspan></text>
	<rect x="1341.833" y="550.947" fill="none" width="77.906" height="42.21"/>
	<text transform="matrix(1 0 0 1 1338.833 585.459)"><tspan x="0" y="0" fill="#F26E2A" font-family="'Helvetica-Bold'" font-size="48" letter-spacing="-6">1</tspan><tspan x="19.975" y="0" fill="#F26E2A" font-family="'Helvetica-Bold'" font-size="48">0x</tspan></text>
	<rect x="1343.476" y="378.682" fill="none" width="77.906" height="42.21"/>
	<text transform="matrix(1 0 0 1 1340.4756 413.1934)"><tspan x="0" y="0" fill="#F26E2A" font-family="'Helvetica-Bold'" font-size="48" letter-spacing="-6">1</tspan><tspan x="19.975" y="0" fill="#F26E2A" font-family="'Helvetica-Bold'" font-size="48">0x</tspan></text>
	<g>
		<g>
			<rect x="1370.429" y="455.053" fill="#2CBFD1" width="17" height="84"/>
			<polygon fill="#2CBFD1" points="1379.047,424.898 1388.094,439.975 1397.143,455.053 1379.047,455.053 1360.947,455.053 
				1369.994,439.975 			"/>
		</g>
	</g>
	<g>
		<g>
			<rect x="1370.429" y="625.053" fill="#2CBFD1" width="17" height="84"/>
			<polygon fill="#2CBFD1" points="1379.047,594.898 1388.094,609.975 1397.143,625.053 1379.047,625.053 1360.947,625.053 
				1369.994,609.975 			"/>
		</g>
	</g>
	<g>
		<g>
			<rect x="1370.429" y="795.053" fill="#2CBFD1" width="17" height="153"/>
			<polygon fill="#2CBFD1" points="1379.047,764.898 1388.094,779.975 1397.143,795.053 1379.047,795.053 1360.947,795.053 
				1369.994,779.975 			"/>
		</g>
	</g>
</g>
<g id="HEALTH_RISKS">
	<g>
		<defs>
			<rect id="SVGID_272_" x="1715.5" y="-1.572" width="1600" height="981.346"/>
		</defs>
		<clipPath id="SVGID_2_">
			<use xlink:href="#SVGID_272_"  overflow="visible"/>
		</clipPath>
		<path clip-path="url(#SVGID_2_)" fill="#FFFFFF" d="M1548.205,569.743c0,0-4.189,0,25.318,24.012
			c29.507,24.017,23.294,31.707,41.931,31.461c18.637-0.241,40.378,23.771,60.566,47.782c0,0,38.826,28.815,86.968,0
			c48.145-28.818,63.157-73.642,82.827-70.435c19.671,3.202,16.266-11.204,23.663-11.204c7.396,0,15.68-12.808,39.49,24.011
			c23.816,36.815,92.146,76.842,92.146,76.842s21.742,1.6,33.133,24.013c11.387,22.407,40.018,33.62,53.141,33.62
			c13.119,0,45.805-6.41,59.487,20.805c13.681,27.219,49.919,22.416,62.342,25.615c12.425,3.203,33.13-3.203,74.546,32.018
			c41.414,35.219,68.332-11.205,88.004-28.815c19.669-17.609,149.269-171.293,149.269-171.293s13.278-17.61,30.881,17.609
			c17.598,35.216,15.532,46.428,24.851,46.428s11.384-19.213,22.775-19.213c11.389,0,16.567,31.264,19.672,32.442
			c3.105,1.179,40.375,43.651,95.25,0c0,0,47.626-122.087,57.979-123.69c10.354-1.6,24.848,16.006,24.848,16.006
			s32.098,11.212,47.625,6.405c15.533-4.802,68.337-27.209,80.76-27.209s25.885,32.896,41.412,54.866
			c15.531,21.97,170.65,340.545,217.332,364.557c46.686,24.012,147.109,83.408,191.631,86.611
			c44.518,3.203-1776.595-2.234-1827.846-0.635V569.743z"/>
	</g>
</g>
<g id="POLICY_1">
</g>
<g id="POLICY_2">
</g>
<g id="POLICY_3">
</g>
<g id="RECOMMENDATIONS">
</g>
</svg>
