<?xml version="1.0" encoding="utf-8"?>
<!-- Generator: Adobe Illustrator 18.0.0, SVG Export Plug-In . SVG Version: 6.00 Build 0)  -->
<!DOCTYPE svg PUBLIC "-//W3C//DTD SVG 1.1//EN" "http://www.w3.org/Graphics/SVG/1.1/DTD/svg11.dtd">
<svg version="1.1" id="Layer_1" xmlns="http://www.w3.org/2000/svg" xmlns:xlink="http://www.w3.org/1999/xlink" x="0px" y="0px"
	 viewBox="0 0 612 792" enable-background="new 0 0 612 792" xml:space="preserve">
<g id="background">
	<rect y="176.1" fill="#808080" width="612.1" height="438.8"/>
	<rect x="0.6" y="552.5" fill="#FFFFFF" width="612" height="63.4"/>
	<text transform="matrix(1 0 0 1 130.5468 576.1907)" font-family="'Helvetica'" font-size="6.885">Re</text>
	<text transform="matrix(1 0 0 1 139.3481 576.1907)" font-family="'Helvetica'" font-size="6.885">f</text>
	<text transform="matrix(1 0 0 1 141.1994 576.1907)" font-family="'Helvetica'" font-size="6.885">erences</text>
	<g>
		<polygon fill="#2E2118" points="40.2,576.1 40.2,569.7 44.6,569.7 44.6,570.7 41.6,570.7 41.6,572.3 44.1,572.3 44.1,573.2 
			41.6,573.2 41.6,575.1 44.7,575.1 44.7,576.1 		"/>
		<path fill="#2E2118" d="M48.6,576.1v-2.8c0-0.5-0.1-0.8-0.6-0.8c-0.3,0-0.7,0.2-1,0.3v3.3h-1.3v-4.6h1.3l0,0.4l0,0
			c0.5-0.4,1.2-0.5,1.6-0.5c1.2,0,1.4,0.7,1.4,1.6v3.1L48.6,576.1L48.6,576.1z"/>
		<path fill="#2E2118" d="M53,575.2c0-0.1,0.3-1.2,0.4-1.7c0.2-0.6,0.6-1.9,0.6-2h1.3c-0.3,0.9-1.2,3.6-1.6,4.6H52
			c-0.3-0.9-1.2-3.6-1.6-4.6h1.4l0.7,2.1C52.6,574,52.8,574.9,53,575.2L53,575.2L53,575.2z"/>
		<path fill="#2E2118" d="M56.8,571c-0.5,0-0.8-0.3-0.8-0.7c0-0.4,0.3-0.7,0.8-0.7c0.5,0,0.8,0.3,0.8,0.7
			C57.6,570.7,57.3,571,56.8,571 M56.1,571.5h1.3v4.6h-1.3V571.5z"/>
		<path fill="#2E2118" d="M59.9,572.4c0.5-0.5,1.2-0.9,1.7-0.9c0.2,0,0.3,0.1,0.3,0.3c0,0.3-0.2,1-0.4,1.3l-1.6,0v3.1h-1.3v-4.6h1.3
			C59.9,571.8,59.9,572.1,59.9,572.4L59.9,572.4z"/>
		<path fill="#2E2118" d="M64.5,576.2c-1.7,0-2.3-1.1-2.3-2.4c0-1.3,0.6-2.4,2.3-2.4c1.7,0,2.3,1.1,2.3,2.4S66.3,576.2,64.5,576.2
			 M64.6,572.4c-0.8,0-1,0.7-1,1.4c0,0.8,0.2,1.4,1,1.4c0.8,0,0.9-0.7,0.9-1.4C65.5,573.1,65.3,572.4,64.6,572.4"/>
		<path fill="#2E2118" d="M70.6,576.1v-2.8c0-0.5-0.1-0.8-0.6-0.8c-0.3,0-0.7,0.2-1,0.3v3.3h-1.3v-4.6h1.3l0,0.4l0,0
			c0.5-0.4,1.2-0.5,1.6-0.5c1.2,0,1.4,0.7,1.4,1.6v3.1L70.6,576.1L70.6,576.1z"/>
		<path fill="#2E2118" d="M78.7,576.1v-2.9c0-0.5-0.1-0.7-0.6-0.7c-0.3,0-0.7,0.1-1,0.3c0,0.2,0,0.4,0,0.6v2.7h-1.3c0-1,0-2,0-3
			c0-0.4-0.2-0.6-0.5-0.6c-0.3,0-0.7,0.1-1,0.3v3.3h-1.3v-4.6h1.2l0,0.5l0,0c0.5-0.4,1.1-0.6,1.6-0.6c0.5,0,0.9,0.2,1.1,0.6
			c0.4-0.3,1.2-0.6,1.6-0.6c1.2,0,1.4,0.8,1.4,1.6v3.1L78.7,576.1L78.7,576.1z"/>
		<path fill="#2E2118" d="M85.1,573.7v0.5h-3c0,0.7,0.3,1.1,1.1,1.1c0.5,0,1-0.1,1.5-0.3l0.3,0.8c-0.6,0.3-1.3,0.5-1.9,0.5
			c-1.8,0-2.3-1.1-2.3-2.3c0-1,0.4-2.4,2.2-2.4C85,571.4,85.1,572.8,85.1,573.7 M82.1,573.3h1.8c0-0.6-0.2-1-0.8-1
			C82.4,572.3,82.2,572.8,82.1,573.3"/>
		<path fill="#2E2118" d="M89,576.1v-2.8c0-0.5-0.1-0.8-0.6-0.8c-0.3,0-0.7,0.2-1,0.3v3.3H86v-4.6h1.3l0,0.4l0,0
			c0.5-0.4,1.2-0.5,1.6-0.5c1.2,0,1.4,0.7,1.4,1.6v3.1L89,576.1L89,576.1z"/>
		<path fill="#2E2118" d="M92.9,570.3v1.3h1.3v0.9h-1.3v2.1c0,0.5,0.1,0.7,0.6,0.7c0.2,0,0.5,0,0.8-0.1l0.2,0.9
			c-0.4,0.2-0.9,0.3-1.3,0.3c-1.3,0-1.6-0.6-1.6-1.4v-2.4h-0.6v-0.7l0.7-0.2c0.1-0.2,0.3-0.9,0.3-1.1L92.9,570.3z"/>
		<path fill="#2E2118" d="M99,575.2h0.6l0.1,0.7c-0.3,0.1-0.7,0.2-1.1,0.2c-0.4,0-0.7-0.1-0.7-0.5c0,0,0,0,0,0
			c-0.6,0.6-1.3,0.6-1.6,0.6c-1.1,0-1.4-0.8-1.4-1.3c0-0.9,0.7-1.4,1.7-1.5c0.4,0,0.9,0,1.2-0.1v-0.1c0-0.5-0.2-0.8-0.8-0.8
			c-0.4,0-1,0.1-1.4,0.2c-0.1-0.3-0.1-0.6-0.2-0.8c0.5-0.2,1.3-0.4,2-0.4c1.1,0,1.8,0.4,1.8,1.6L99,575.2L99,575.2z M96.9,574.1
			c-0.4,0-0.6,0.3-0.6,0.6c0,0.4,0.2,0.6,0.6,0.6c0.3,0,0.6-0.1,0.9-0.4v-0.9L96.9,574.1z"/>
		<polygon fill="#2E2118" points="101.7,576.1 100.4,576.1 100.4,569.5 101.7,569.5 		"/>
		<path fill="#2E2118" d="M42.7,584h-1.2l0,2.5h-1.4v-6.4h2.4c1.5,0,2.2,0.8,2.2,2C44.8,583,44.2,584,42.7,584 M41.6,581.1v2h0.9
			c0.5,0,0.9-0.3,0.9-1c0-0.7-0.4-1-1-1L41.6,581.1L41.6,581.1z"/>
		<path fill="#2E2118" d="M49.5,584v0.5h-3c0,0.7,0.3,1.1,1.1,1.1c0.5,0,1-0.1,1.5-0.3l0.3,0.8c-0.6,0.3-1.3,0.5-1.9,0.5
			c-1.8,0-2.3-1.1-2.3-2.3c0-1,0.4-2.4,2.2-2.4C49.4,581.8,49.5,583.2,49.5,584 M46.5,583.7h1.8c0-0.6-0.2-1-0.8-1
			C46.8,582.6,46.6,583.1,46.5,583.7"/>
		<path fill="#2E2118" d="M51.7,582.7c0.5-0.5,1.2-0.9,1.7-0.9c0.2,0,0.3,0.1,0.3,0.3c0,0.3-0.2,1-0.4,1.3l-1.5,0v3.1h-1.3v-4.6h1.3
			C51.7,582.1,51.7,582.5,51.7,582.7L51.7,582.7z"/>
		<path fill="#2E2118" d="M54.8,582.8h-0.6v-0.7l0.7-0.2v-0.6c0-0.9,0.4-1.6,1.7-1.6c0.3,0,0.8,0,1.3,0.2l-0.2,0.9
			c-0.3-0.1-0.6-0.1-0.8-0.1c-0.5,0-0.7,0.2-0.7,0.6v0.6h1.3v0.9h-1.3c0,0.4,0,3.3,0,3.7h-1.3L54.8,582.8L54.8,582.8z"/>
		<path fill="#2E2118" d="M60.1,586.6c-1.7,0-2.3-1.1-2.3-2.4c0-1.3,0.6-2.4,2.3-2.4c1.7,0,2.3,1.1,2.3,2.4
			C62.4,585.5,61.8,586.6,60.1,586.6 M60.1,582.8c-0.8,0-1,0.7-1,1.4c0,0.8,0.2,1.4,1,1.4c0.8,0,0.9-0.7,0.9-1.4
			C61.1,583.5,60.9,582.8,60.1,582.8"/>
		<path fill="#2E2118" d="M64.5,582.7c0.5-0.5,1.2-0.9,1.7-0.9c0.2,0,0.3,0.1,0.3,0.3c0,0.3-0.2,1-0.4,1.3l-1.6,0v3.1h-1.3v-4.6h1.3
			C64.5,582.1,64.5,582.5,64.5,582.7L64.5,582.7z"/>
		<path fill="#2E2118" d="M72.8,586.5v-2.9c0-0.5-0.1-0.7-0.6-0.7c-0.3,0-0.7,0.1-1,0.3c0,0.2,0,0.4,0,0.6v2.7H70c0-1,0-2,0-3
			c0-0.4-0.2-0.6-0.5-0.6c-0.3,0-0.7,0.1-1,0.3v3.3h-1.3v-4.6h1.2l0,0.5l0,0c0.5-0.4,1.1-0.6,1.6-0.6c0.5,0,0.9,0.2,1.1,0.6
			c0.4-0.3,1.2-0.6,1.6-0.6c1.2,0,1.4,0.8,1.4,1.6v3.1L72.8,586.5L72.8,586.5z"/>
		<path fill="#2E2118" d="M79.1,585.6h0.6l0.1,0.7c-0.3,0.1-0.7,0.2-1.1,0.2c-0.4,0-0.7-0.1-0.7-0.5c0,0,0,0,0,0
			c-0.6,0.6-1.3,0.6-1.6,0.6c-1.1,0-1.4-0.8-1.4-1.3c0-0.9,0.7-1.4,1.7-1.5c0.4,0,0.9,0,1.2-0.1v-0.1c0-0.5-0.2-0.8-0.8-0.8
			c-0.4,0-1,0.1-1.4,0.2c-0.1-0.3-0.1-0.6-0.2-0.8c0.5-0.2,1.3-0.4,2-0.4c1.1,0,1.8,0.4,1.8,1.6C79.1,583.4,79.1,585.6,79.1,585.6z
			 M76.9,584.5c-0.4,0-0.6,0.3-0.6,0.6c0,0.4,0.2,0.6,0.6,0.6c0.3,0,0.6-0.1,0.9-0.4v-0.9L76.9,584.5z"/>
		<path fill="#2E2118" d="M83.4,586.5v-2.8c0-0.5-0.1-0.8-0.6-0.8c-0.3,0-0.7,0.2-1,0.3v3.3h-1.3v-4.6h1.3l0,0.4l0,0
			c0.5-0.4,1.2-0.5,1.6-0.5c1.2,0,1.4,0.7,1.4,1.6v3.1L83.4,586.5L83.4,586.5z"/>
		<path fill="#2E2118" d="M88,585.5c0.4,0,0.8-0.1,1.2-0.2l0.3,0.9c-0.5,0.2-1.1,0.4-1.7,0.4c-1.7,0-2.2-1-2.2-2.3
			c0-1.1,0.4-2.4,2.3-2.4c0.4,0,0.9,0,1.4,0.2c-0.1,0.3-0.1,0.6-0.2,0.9c-0.4-0.1-0.7-0.1-1-0.1c-0.7,0-1.1,0.5-1.1,1.4
			C86.9,585,87.2,585.5,88,585.5"/>
		<path fill="#2E2118" d="M94.2,584v0.5h-3c0,0.7,0.3,1.1,1.1,1.1c0.5,0,1-0.1,1.5-0.3l0.3,0.8c-0.6,0.3-1.3,0.5-1.9,0.5
			c-1.8,0-2.3-1.1-2.3-2.3c0-1,0.4-2.4,2.2-2.4C94.1,581.8,94.2,583.2,94.2,584 M91.3,583.7H93c0-0.6-0.2-1-0.8-1
			C91.5,582.6,91.3,583.1,91.3,583.7"/>
		<rect x="40.3" y="590.5" fill="#2E2118" width="1.4" height="6.4"/>
		<path fill="#2E2118" d="M45.9,596.8V594c0-0.5-0.1-0.8-0.6-0.8c-0.3,0-0.7,0.2-1,0.3v3.3h-1.3v-4.6h1.3l0,0.4l0,0
			c0.5-0.4,1.2-0.5,1.6-0.5c1.2,0,1.4,0.7,1.4,1.6v3.1L45.9,596.8L45.9,596.8z"/>
		<path fill="#2E2118" d="M51.2,592.5v-2.3h1.3v6.6h-1.2l0-0.4c0,0,0,0,0,0c-0.4,0.4-1,0.5-1.4,0.5c-1.4,0-1.8-1-1.8-2.2
			c0-1.4,0.5-2.5,2-2.5C50.3,592.2,50.8,592.2,51.2,592.5 M51.2,593.4c-0.2-0.1-0.6-0.3-0.9-0.3c-0.5,0-0.9,0.3-0.9,1.5
			c0,1.1,0.4,1.3,0.9,1.3c0.3,0,0.7-0.2,0.9-0.3L51.2,593.4L51.2,593.4z"/>
		<path fill="#2E2118" d="M57.6,594.4v0.5h-3c0,0.7,0.3,1.1,1.1,1.1c0.5,0,1-0.1,1.5-0.3l0.3,0.8c-0.6,0.3-1.3,0.5-1.9,0.5
			c-1.8,0-2.3-1.1-2.3-2.3c0-1,0.4-2.4,2.2-2.4C57.4,592.2,57.6,593.6,57.6,594.4 M54.6,594.1h1.8c0-0.6-0.2-1-0.8-1
			C54.9,593,54.7,593.5,54.6,594.1"/>
		<polygon fill="#2E2118" points="60.4,595.2 59.4,596.8 58,596.8 59.5,594.5 58.1,592.3 59.6,592.3 60.4,593.8 61.2,592.3 
			62.6,592.3 61.2,594.5 62.7,596.8 61.3,596.8 		"/>
		<path fill="#F2C419" d="M28.8,594c-0.7,0-1.3-0.6-1.3-1.3c0-0.7,0.6-1.3,1.3-1.3c0.7,0,1.3,0.6,1.3,1.3
			C30.1,593.4,29.5,594,28.8,594"/>
		<path fill="#F2C419" d="M30,590.6c-0.5,0-0.9-0.4-0.9-0.9c0-0.5,0.4-0.9,0.9-0.9s0.9,0.4,0.9,0.9S30.5,590.6,30,590.6"/>
		<path fill="#F2C419" d="M30.9,588c-0.4,0-0.6-0.3-0.6-0.6c0-0.4,0.3-0.6,0.6-0.6c0.4,0,0.6,0.3,0.6,0.6
			C31.6,587.7,31.3,588,30.9,588"/>
		<path fill="#F2C419" d="M31.6,586.3c-0.3,0-0.5-0.2-0.5-0.5c0-0.3,0.2-0.5,0.5-0.5c0.3,0,0.5,0.2,0.5,0.5
			C32,586.1,31.8,586.3,31.6,586.3"/>
		<path fill="#7D8EC6" d="M23.2,588.5c-0.7,0-1.3-0.6-1.3-1.3c0-0.7,0.6-1.3,1.3-1.3c0.7,0,1.3,0.6,1.3,1.3
			C24.5,587.9,23.9,588.5,23.2,588.5"/>
		<path fill="#7D8EC6" d="M26.2,586.8c-0.5,0-0.9-0.4-0.9-0.9c0-0.5,0.4-0.9,0.9-0.9c0.5,0,0.9,0.4,0.9,0.9
			C27.2,586.4,26.7,586.8,26.2,586.8"/>
		<path fill="#7D8EC6" d="M28.5,585.5c-0.4,0-0.6-0.3-0.6-0.6s0.3-0.6,0.6-0.6c0.4,0,0.6,0.3,0.6,0.6S28.9,585.5,28.5,585.5"/>
		<path fill="#7D8EC6" d="M30,584.7c-0.3,0-0.5-0.2-0.5-0.5s0.2-0.5,0.5-0.5c0.3,0,0.5,0.2,0.5,0.5S30.3,584.7,30,584.7"/>
		<path fill="#0F98CA" d="M23.2,580.6c-0.7,0-1.3-0.6-1.3-1.3c0-0.7,0.6-1.3,1.3-1.3c0.7,0,1.3,0.6,1.3,1.3
			C24.5,580,23.9,580.6,23.2,580.6"/>
		<path fill="#0F98CA" d="M26.2,581.4c-0.5,0-0.9-0.4-0.9-0.9c0-0.5,0.4-0.9,0.9-0.9c0.5,0,0.9,0.4,0.9,0.9
			C27.2,581,26.8,581.4,26.2,581.4"/>
		<path fill="#0F98CA" d="M28.5,582.1c-0.4,0-0.6-0.3-0.6-0.6c0-0.4,0.3-0.6,0.6-0.6c0.4,0,0.6,0.3,0.6,0.6
			C29.2,581.8,28.9,582.1,28.5,582.1"/>
		<path fill="#0F98CA" d="M30.1,582.5c-0.3,0-0.5-0.2-0.5-0.5c0-0.3,0.2-0.5,0.5-0.5c0.3,0,0.5,0.2,0.5,0.5
			C30.5,582.3,30.3,582.5,30.1,582.5"/>
		<path fill="#3CBAA2" d="M28.7,575c-0.7,0-1.3-0.6-1.3-1.3c0-0.7,0.6-1.3,1.3-1.3c0.7,0,1.3,0.6,1.3,1.3
			C30.1,574.4,29.5,575,28.7,575"/>
		<path fill="#3CBAA2" d="M30,577.7c-0.5,0-0.9-0.4-0.9-0.9c0-0.5,0.4-0.9,0.9-0.9c0.5,0,0.9,0.4,0.9,0.9
			C30.9,577.3,30.5,577.7,30,577.7"/>
		<path fill="#3CBAA2" d="M31,579.7c-0.4,0-0.6-0.3-0.6-0.6c0-0.4,0.3-0.6,0.6-0.6c0.4,0,0.6,0.3,0.6,0.6
			C31.6,579.4,31.3,579.7,31,579.7"/>
		<path fill="#3CBAA2" d="M31.6,581c-0.3,0-0.5-0.2-0.5-0.5c0-0.3,0.2-0.5,0.5-0.5s0.5,0.2,0.5,0.5C32.1,580.8,31.8,581,31.6,581"/>
		<path fill="#F69424" d="M32.7,601.5c-0.9,0-1.7-0.7-1.7-1.7c0-0.9,0.7-1.7,1.7-1.7c0.9,0,1.7,0.7,1.7,1.7
			C34.4,600.8,33.6,601.5,32.7,601.5"/>
		<path fill="#F69424" d="M32.7,596.8c-0.7,0-1.3-0.6-1.3-1.3c0-0.7,0.6-1.3,1.3-1.3s1.3,0.6,1.3,1.3
			C34,596.3,33.4,596.8,32.7,596.8"/>
		<path fill="#F69424" d="M32.7,593.2c-0.5,0-1-0.4-1-1c0-0.5,0.4-1,1-1c0.5,0,1,0.4,1,1C33.7,592.8,33.2,593.2,32.7,593.2"/>
		<path fill="#F69424" d="M32.7,589.9c-0.4,0-0.7-0.3-0.7-0.7c0-0.4,0.3-0.7,0.7-0.7c0.4,0,0.7,0.3,0.7,0.7
			C33.4,589.6,33.1,589.9,32.7,589.9"/>
		<path fill="#F16F2D" d="M20.9,596.7c-0.9,0-1.7-0.7-1.7-1.7c0-0.9,0.7-1.7,1.7-1.7c0.9,0,1.7,0.7,1.7,1.7
			C22.6,595.9,21.8,596.7,20.9,596.7"/>
		<path fill="#F16F2D" d="M23.9,593.2c-0.7,0-1.3-0.6-1.3-1.3c0-0.7,0.6-1.3,1.3-1.3c0.7,0,1.3,0.6,1.3,1.3
			C25.2,592.6,24.6,593.2,23.9,593.2"/>
		<path fill="#F16F2D" d="M26.3,590.6c-0.5,0-1-0.4-1-1c0-0.5,0.4-1,1-1c0.5,0,1,0.4,1,1C27.2,590.1,26.8,590.6,26.3,590.6"/>
		<path fill="#F16F2D" d="M28.4,588.1c-0.4,0-0.7-0.3-0.7-0.7c0-0.4,0.3-0.7,0.7-0.7s0.7,0.3,0.7,0.7
			C29.1,587.8,28.8,588.1,28.4,588.1"/>
		<path fill="#3575B9" d="M16,584.9c-0.9,0-1.7-0.7-1.7-1.7c0-0.9,0.7-1.7,1.7-1.7c0.9,0,1.7,0.7,1.7,1.7
			C17.7,584.1,16.9,584.9,16,584.9"/>
		<path fill="#3575B9" d="M20.3,584.5c-0.7,0-1.3-0.6-1.3-1.3s0.6-1.3,1.3-1.3c0.7,0,1.3,0.6,1.3,1.3S21,584.5,20.3,584.5"/>
		<path fill="#3575B9" d="M23.6,584.1c-0.5,0-1-0.4-1-1c0-0.5,0.4-1,1-1s1,0.4,1,1C24.6,583.7,24.2,584.1,23.6,584.1"/>
		<path fill="#3575B9" d="M26.7,583.9c-0.4,0-0.7-0.3-0.7-0.7c0-0.4,0.3-0.7,0.7-0.7s0.7,0.3,0.7,0.7
			C27.4,583.5,27.1,583.9,26.7,583.9"/>
		<path fill="#018B8B" d="M20.9,573.1c-0.9,0-1.7-0.7-1.7-1.7c0-0.9,0.7-1.7,1.7-1.7c0.9,0,1.7,0.7,1.7,1.7
			C22.5,572.3,21.8,573.1,20.9,573.1"/>
		<path fill="#018B8B" d="M23.9,575.7c-0.7,0-1.3-0.6-1.3-1.3c0-0.7,0.6-1.3,1.3-1.3s1.3,0.6,1.3,1.3
			C25.2,575.2,24.6,575.7,23.9,575.7"/>
		<path fill="#018B8B" d="M26.3,577.8c-0.5,0-1-0.4-1-1c0-0.5,0.4-1,1-1c0.5,0,1,0.4,1,1C27.3,577.3,26.8,577.8,26.3,577.8"/>
		<path fill="#018B8B" d="M28.5,579.7c-0.4,0-0.7-0.3-0.7-0.7c0-0.4,0.3-0.7,0.7-0.7c0.4,0,0.7,0.3,0.7,0.7
			C29.2,579.4,28.9,579.7,28.5,579.7"/>
		<path fill="#29B25F" d="M32.7,568.2c-0.9,0-1.7-0.7-1.7-1.7c0-0.9,0.7-1.7,1.7-1.7c0.9,0,1.7,0.7,1.7,1.7
			C34.3,567.4,33.6,568.2,32.7,568.2"/>
		<path fill="#29B25F" d="M32.7,572.1c-0.7,0-1.3-0.6-1.3-1.3s0.6-1.3,1.3-1.3c0.7,0,1.3,0.6,1.3,1.3
			C33.9,571.6,33.4,572.1,32.7,572.1"/>
		<path fill="#29B25F" d="M32.7,575.1c-0.5,0-1-0.4-1-1c0-0.5,0.4-1,1-1c0.5,0,1,0.4,1,1C33.6,574.7,33.2,575.1,32.7,575.1"/>
		<path fill="#29B25F" d="M32.7,578c-0.4,0-0.7-0.3-0.7-0.7c0-0.4,0.3-0.7,0.7-0.7c0.4,0,0.7,0.3,0.7,0.7
			C33.4,577.6,33,578,32.7,578"/>
	</g>
</g>
<g id="text">
	<rect x="14.7" y="191.7" fill="none" width="523.4" height="19.5"/>
	<text transform="matrix(1 0 0 1 13.5885 204.9434)" fill="#FFFFFF" font-family="'Helvetica-Bold'" font-size="18.36">TOWARDS THE NEXT GENERATION OF AIR MONITORING</text>
</g>
<g id="pollutants">
	<g id="mercury">
		<g>
			<path opacity="0.1" fill="#FFFFFF" enable-background="new    " d="M3,455.6l-0.3,99.5h612V521c0,0-38.5,22.4-57.2,21.1
				c-18.7-1.3-53.5-1.7-59.1-0.9c-5.6,0.9-36.5,2.2-51.2-3.3c-14.7-5.5-16.6-5.1-16.6-5.1"/>
			<path opacity="0.1" fill="#FFFFFF" enable-background="new    " d="M430.6,532.7c0,0-5.7-1.5-14.9-0.3
				c-9.2,1.2-19.4,7.7-25.2,7.6c-5.8-0.1-3.6,0.2-3.6,0.2s1,2.7-10.9-4.9c-20.4-13.1-27.2-24.8-39.2-55.4"/>
			<rect x="2.3" y="474.9" opacity="0.8" fill="#175D66" enable-background="new    " width="612" height="79.7"/>
			<path opacity="0.4" fill="#FFFFFF" enable-background="new    " d="M430.2,532.4c0,0-5.7-1.5-14.9-0.3
				c-9.2,1.2-19.4,7.7-25.2,7.6c-5.8-0.1-37.5-13.6-37.5-13.6s-20.7-10.4-33.1-9.3c0,0-1.3,0.9-6.1-3.1c-4.8-4.1-13.7,6.9-13.7,6.9
				s-2.4,4.7-21.8,4.9c-19.4,0.2-22.9,6.2-24.5,6.6c-1.5,0.4-6.1,3-20.1,3s-15.3,0.3-21.4,3.1c-6.1,2.8-15.1,3.9-21.4,0.4
				c-6.4-3.5-6.1-13.6-18.7-13.1c-12.6,0.4-22.1,12.8-30.2,13.1c-8.2,0.3-29.8,1.1-29.8,1.1s-6.1-0.9-19.2-6
				c-13.2-5.1-19,0.2-19,0.2s-9.8,6.1-24,5.8c-14.2-0.3-38.6-6.3-47-6v21h612v-34.1c0,0-38.5,22.4-57.2,21.1
				c-18.7-1.3-53.5-1.7-59.1-0.9c-5.6,0.9-36.5,2.2-51.2-3.3C432.1,532,430.2,532.4,430.2,532.4"/>
		</g>
		<path fill="#FFFFFF" d="M295.9,516.6c0.4-1.2,3.8,2.8,2.9-2.1c1.3,0.2,1.6,1.2,1.4,2.9c0.7-0.5,1.1-1.3,1.4-2.1
			c1.5,0-1.1,4.6,1.4,2.1c2.2,0.7-0.8,1.9-1.4,2.1c-0.2,1.9,2.8,0.6,2.1,2.9c-1.9-1.1-2.2-0.8-1.4,1.4c-1.6-1.4-2.1-1.6-2.9,0.7
			c-0.8-0.1-0.6-1.3-0.7-2.1c-1,0.4-1.7,1.1-2.1,2.1c-1.5,0.1,2.1-4.6-0.7-2.1c-2.1-0.4,1.1-1.1,0.7-2.1c-0.5-0.7-1.3-1.1-2.1-1.4
			c0.5-2.1,1.5,0.7,2.9,0C296.7,518.2,296.9,516.8,295.9,516.6z"/>
		<path fill="#FFFFFF" d="M308.5,512.8c0.4-1.2,3.8,2.8,2.9-2.1c1.3,0.2,1.6,1.2,1.4,2.9c0.7-0.5,1.1-1.3,1.4-2.1
			c1.5,0-1.1,4.6,1.4,2.1c2.2,0.7-0.8,1.9-1.4,2.1c-0.2,1.9,2.8,0.6,2.1,2.9c-1.9-1.1-2.2-0.8-1.4,1.4c-1.6-1.4-2.1-1.6-2.9,0.7
			c-0.8-0.1-0.6-1.3-0.7-2.1c-1,0.4-1.7,1.1-2.1,2.1c-1.5,0.1,2.1-4.6-0.7-2.1c-2.1-0.4,1.1-1.1,0.7-2.1c-0.5-0.7-1.3-1.1-2.1-1.4
			c0.5-2.1,1.5,0.7,2.9,0C309.3,514.4,309.5,513,308.5,512.8z"/>
		<path fill="#FFFFFF" d="M303.4,523.3c0.4-1.2,3.8,2.8,2.9-2.1c1.3,0.2,1.6,1.2,1.4,2.9c0.7-0.5,1.1-1.3,1.4-2.1
			c1.5,0-1.1,4.6,1.4,2.1c2.2,0.7-0.8,1.9-1.4,2.1c-0.2,1.9,2.8,0.6,2.1,2.9c-1.9-1.1-2.2-0.8-1.4,1.4c-1.6-1.4-2.1-1.6-2.9,0.7
			c-0.8-0.1-0.6-1.3-0.7-2.1c-1,0.4-1.7,1.1-2.1,2.1c-1.5,0.1,2.1-4.6-0.7-2.1c-2.1-0.4,1.1-1.1,0.7-2.1c-0.5-0.7-1.3-1.1-2.1-1.4
			c0.5-2.1,1.5,0.7,2.9,0C304.2,524.9,304.4,523.5,303.4,523.3z"/>
		<path fill="#CFD1D2" d="M401.4,483.6c0,0,0.5,0.4,0.4,0.7c0,0,0.4,0.4,0.4,0.4c0,0-0.4-0.2-0.5-0.3c0,0,0.3,0.3,0.3,0.4
			c0,0-0.4-0.3-0.5-0.4c-0.1-0.1-0.7-0.5-0.8-0.5c-0.1,0-2.3-1.8-3.2-3.9c0,0-0.3-0.2-0.4-0.6c-0.1-0.4-0.4-0.7-0.5-0.7
			c-0.1-0.1,0.1-0.2,0.2-0.2c0.1,0,0.1-0.2,0-0.3c-0.1-0.1-0.1-0.5,0.5-0.5c0,0,0.6-0.4,1-0.7c0.4-0.3,1.3-0.8,1.5-0.8
			c0.3,0,0.5-0.1,0.6-0.2c0.1-0.1,0.6-0.4,0.9-0.4l0,0c0,0,0.6-0.2,0.7-0.2v0.1c0,0,0.4-0.1,0.5-0.1c0.1,0,0,0,0,0l0,0
			c0,0,0.4-0.1,0.4-0.1c0,0,0,0.1,0,0.1s0.6,0,0.6,0c0,0,0,0.1,0,0.1s0.4,0,0.4,0c0,0,1.4,0.3,1.8,0.4c0.5,0.1,1.9,0.5,2.4,0.7
			c0.5,0.2,1.7,0.8,1.5,1.1c0,0,0.3,0.3,0.4,0.3c0.1,0,0.4,0.1,0.3,0.2c-0.1,0.1-0.2,0-0.3,0.1c0,0.1-0.6,2.5-1.8,3.1
			c0,0,0,0.1,0.1,0.1c0.1,0,2.5-1.1,3-0.8c0,0,0.8,1.9,0,3.3c-0.9,1.4-2.1,2.3-2.6,1.3c-0.4-1-0.5-1.1-0.5-1.1s0.3,1,0.2,1.5
			c-0.1,0.5-0.2,0.6-0.4,0.6l0,0.1c0,0-1.3,0.5-2.5,0.1c-1.2-0.4-1.7-1-1.7-1l0.1,0.3c0,0-0.2-0.2-0.3-0.3c-0.1-0.1-0.3-0.5-0.4-0.5
			l0,0.3c0,0-0.2-0.2-0.3-0.4c-0.1-0.1-0.5-0.7-0.6-0.8C402.2,484.1,401.5,483.6,401.4,483.6z"/>
		<path fill="#CFD1D2" d="M247.6,514.8c0.3,0,0.5,0,0.8,0.1c0,0,0-0.1,0-0.1c-0.3-0.1-0.6-0.2-0.9-0.3c-0.5-0.3-1-0.6-1.5-0.9
			c-0.3-0.2-0.5-0.4-0.9-0.5c-1.3-0.5-2.6-0.9-3.9-1.3c-0.6-0.2-1.2-0.4-1.8-0.5c-0.1,0-0.2,0.1-0.3,0.1c-0.4-0.2-0.8-0.1-1.1-0.1
			c-0.1,0-0.3,0.1-0.5,0.2c0,0,0,0,0,0c-0.4,0.1-0.8,0.3-1.1,0.5c-0.3,0.2-0.5,0.4-0.7,0.7c-0.5,0.6-0.9,1.2-0.8,2
			c0,0.6,0,1.2,0,1.8c0,0.4,0.2,0.7,0.3,1.1c0.2,0.7,0.5,1.4,0.7,2.1c0,0.1,0.2,0.2,0.3,0.4c0.1-0.1,0.2-0.2,0.3-0.3
			c0.1-0.1,0.2-0.3,0.2-0.4c0,0.1,0.1,0.2,0.1,0.3c0.1-0.1,0.2-0.1,0.3-0.2c0.3-0.4,0.2-0.8-0.2-1.2c-0.4-0.4-0.8-0.8-1.1-1.1
			c0.1-0.4,0.2-0.7,0.2-1.1c0-0.5,0-1,0.5-1.4c0.3,0.1,0.7,0.1,1,0.2c-0.3-0.1-0.6-0.3-0.8-0.4c0.1-0.3,0.3-0.3,1,0.1
			c-0.1-0.1-0.1-0.2-0.2-0.3c-0.1-0.1-0.2-0.2-0.3-0.3c0.1-0.1,0.2-0.1,0.3-0.2c0.2,0.2,0.4,0.4,0.7,0.7c-0.1-0.3-0.2-0.5-0.2-0.7
			c0.1,0,0.2-0.1,0.2-0.1c0.2,0.3,0.4,0.5,0.6,0.7c0,0-0.1,0-0.1,0.1c0-0.2,0-0.5,0-0.7c0.4,0,0.5,0.4,0.4,1.3
			c0.1-0.2,0.2-0.4,0.3-0.5c0.1-0.2,0.1-0.3,0.1-0.5c0-0.2,0.4-0.3,0.7-0.2c0.2,0.2,0.4,0.3,0.5,0.4c-0.2,0.5-0.3,0.9-0.5,1.4
			c0,0,0,0.1,0,0.1c0,1-0.6,1.6-1.5,1.9c0.1,0,0.2,0,0.2,0c0.8-0.3,1.4-0.7,1.5-1.6c0.1-0.5,0.3-0.9,0.4-1.4
			c0.1-0.2,0.2-0.3,0.4-0.4c0,0.3-0.1,0.6,0,0.8c0.1,0.6,0.1,1.3,0.2,1.9c0,0.1,0,0.2-0.1,0.3c-0.2,0.3-0.4,0.6-0.7,1
			c0.6-0.3,1-1,1-1.6c0-0.6-0.1-1.2-0.1-1.8c0-0.2,0.1-0.3,0.1-0.4c0.3,0.5,0.5,1.1,0.8,1.5c0.4,0.6,0.6,1.3,0.2,2
			c0.4-0.3,0.5-1,0.3-1.4c-0.3-0.5-0.6-1.1-0.8-1.6c-0.1-0.1-0.1-0.3-0.1-0.4c0.5,0.8,1.3,1.1,1.9,1.7c0.1,0.1,0.2,0.2,0.2,0.3
			c0.1,0.4,0.1,0.9,0.1,1.2c0.3-0.6,0.2-1.4-0.4-1.8c-0.4-0.3-0.8-0.6-1.1-1c-0.1-0.1-0.1-0.2-0.2-0.3c0.5,0.6,1.3,0.5,2,0.8
			c0.6,0.2,0.8,0.7,1,1.2c0,0.1,0,0.2,0,0.2c0,0,0.1,0,0.1,0c-0.1-0.3-0.2-0.5-0.3-0.8c-0.1-0.5-0.5-0.7-0.9-0.8
			c-0.5-0.1-1-0.3-1.4-0.5c2.7,0.1,5.3,0.8,7.9,1.6C249.8,515.9,248.6,515.6,247.6,514.8"/>
		<path fill="#CFD1D2" d="M485.6,504c-0.4,0.1-0.8,0.3-1.2,0.4c-0.4,0.1-0.8,0.2-1.3,0.3c-0.3,0.1-0.7,0.1-1,0.2
			c-0.4,0.1-0.8,0.3-1.2,0.4c-0.7,0.2-1.3,0.4-2,0.6c-0.4,0.1-0.6-0.1-0.7-0.5c0-0.7,0.1-1.4,0.2-2.1c0.1-0.5,0.3-1,0.5-1.4
			c0.3-0.5,0.1-1-0.2-1.4c-0.2-0.3-0.5-0.6-0.8-0.9c-0.1-0.1-0.1-0.1-0.2-0.1c0,0.1-0.1,0.2-0.1,0.3c0,0.2,0,0.5,0,0.7
			c0,0.4-0.3,0.4-0.6,0.4c-0.6,0-0.9-0.5-1.1-1c-0.3-0.7-0.6-1.4-0.8-2.1c-0.1-0.3-0.4-0.5-0.6-0.6c-0.8-0.4-1.6-0.8-2.4-1.2
			c0,0-0.1-0.1-0.1-0.1c-0.1,0-0.2,0-0.3,0c0,0.1,0,0.2,0.1,0.3c0.3,0.5,0.4,1,0.2,1.5c-0.2,0.6-0.6,0.6-1,0.3
			c-0.5-0.3-0.8-0.8-1-1.3c-0.2-0.3-0.3-0.7-0.4-1c-0.1-0.2-0.1-0.2-0.3-0.1c-0.3,0.3-0.6,0.2-0.8-0.2c-0.1-0.2-0.1-0.4-0.1-0.6
			c0-0.3-0.1-0.4-0.4-0.4c-0.4-0.1-0.7-0.2-1.1-0.3c-0.5-0.2-1.1-0.4-1.6-0.7c-0.1,0-0.2,0-0.3,0c0,0.1,0,0.2,0,0.3
			c0.2,0.4,0.2,0.8,0.1,1.3c0,0-0.2,0.1-0.2,0.1c-0.4,0-0.7-0.2-0.9-0.5c-0.6-0.6-1-1.3-1.3-2.1c-0.1-0.3-0.4-0.4-0.6-0.5
			c-0.8-0.3-1.7-0.5-2.6-0.8c-0.8-0.3-1.7-0.7-2.5-1c-0.4-0.2-0.8-0.4-1.1-0.7c-0.1-0.1-0.2-0.3-0.2-0.5c0-0.3,0.1-0.4,0.4-0.3
			c0.4,0.2,0.8,0.1,1.2-0.1c0.3-0.1,0.3-0.4,0-0.5c-0.2-0.2-0.5-0.3-0.7-0.4c-0.4-0.2-0.4-0.3-0.1-0.6c0.4-0.4,0.9-0.6,1.4-0.8
			c0.4-0.1,0.8-0.2,1.3-0.4c0.2,0,0.4-0.1,0.5-0.1c0.3,0,0.7-0.1,1-0.1c0.7,0,1.5-0.1,2.2-0.1c0,0,0.1,0,0.1,0h1.1
			c0.1,0,0.2,0,0.3,0c0.4,0,0.9,0,1.3,0c0.8,0.1,1.6,0.2,2.3,0.4c0.6,0.1,1.2,0.3,1.8,0.5c0.5,0.1,0.9,0.5,1.5,0.3
			c0.4-0.1,0.8-0.1,1.2-0.1c0.8-0.1,1.7-0.1,2.5-0.2c0.4,0,0.8,0,1,0.4c0.2,0.4,0.5,0.8,0.6,1.2c0.2,0.5,0.3,1.1,0.4,1.6
			c0,0.2,0.1,0.4,0,0.6c-0.5-0.2-0.9-0.3-1.3-0.5c-0.1,0-0.2,0-0.3,0c0.1,0.1,0.1,0.2,0.2,0.2c0.2,0.2,0.5,0.4,0.7,0.6
			c0.8,0.7,1.5,1.5,2,2.5c0.4,0.7,0.8,1.5,1.2,2.2c0.3,0.5,0.6,0.9,1.2,1.1c0.4,0.1,0.7,0.4,0.8,0.8c0,0.2,0,0.3-0.1,0.5
			c-0.2,0.1-0.3,0.1-0.5-0.1c-0.1-0.1-0.2-0.2-0.3-0.2c0,0,0,0-0.1,0.1c0,0.1,0,0.1,0.1,0.2c0.2,0.5,0.5,1,0.7,1.5
			c0.2,0.5,0.4,0.9,0.8,1.3c0.6,0.5,1.3,1,1.9,1.5c0.5,0.4,1,0.8,1.4,1.4L485.6,504L485.6,504z"/>
		<g opacity="0.3">
			<path fill="#FFFFFF" d="M182.5,546.1c-4.4-1.6-5.3-5.4-7.2-8.5c-1.1-1.8-3.2-3.1-5.1-4.1c-0.7-0.4-2.1,0.5-3.2,0.8
				c-0.8,0.3-1.7,0.6-2.5,0.9c-0.1-0.3-0.2-0.5-0.3-0.8c0.9-0.5,1.8-1,3-1.7c-4.4-1.6-8.9-3-10.1-8.4c1.8,1.7,3.3,3.2,5.1,4.9
				c0.7-2.1,0.3-3.4-1-4.6c-1.3-1.2-2.2-2.6-1.9-4.1c0.9,1,2.1,2.1,2.8,3.4c1,1.7,1.6,3.6,2.3,5.4c-0.2,0.1-0.4,0.2-0.6,0.4
				c1.2,0.2,2.5,0.4,4,0.7c0-1.6-0.1-3.1-0.1-4.6c0.2,0,0.4-0.1,0.6-0.1c0.5,1.8,0.9,3.5,1.3,4.8c2.1,1.2,4,2.3,6,3.5
				c-0.3-4.1-4-8.8-7.8-10.1c-1.9-0.6-4.4-3.8-4.3-5.7c0-0.5,0.5-1,0.8-1.5c0.3,0.4,0.9,0.7,1,1.1c1.3,3.8,1.6,4.2,6.4,5.7
				c-2.7-4.2-3.7-8.1-0.2-12c-0.1,0.9-0.1,1.8-0.5,2.5c-0.7,1.3-1,2.6-0.4,4c1.1,2.6,2.2,5.3,3.3,8.1c2.1-1.6,1-2.9,0.6-4.3
				c-0.2-0.6-0.1-1.3,0.3-2c1,2.2,2.5,4.3,0.7,6.8c-0.3,0.4-0.3,1.1-0.1,1.6c1.3,3.3,2.6,6.5,4,9.7c0.1,0.2,0.4,0.4,0.6,0.6
				c2.9-2.9,3.3-6.2,1.8-9.8c-1.3-3.3-2.1-6.9-4.8-9.5c-0.2-0.1-0.3-0.4-0.3-0.6c-0.4-2.3-0.8-4.5-1.2-7.2c2,1.2,2.7,2.7,3,4.6
				c0.3,1.3,0.9,2.6,1.5,4.1c1.3-0.9,2.4-1.3,3.1-2.1c1-1,1.5-2.3,0-3.4c-2.2-1.7-2.4-2.4-1.1-5.9c0.2,2,0.3,3.5,0.5,5
				c0.2,0,0.4,0.1,0.6,0.1c0.7-0.8,1.3-1.5,1.7-2c0.2,1.2,0.8,2.6,0.6,4c-0.1,1.1-1,2.3-1.8,3.2c-0.7,0.8-1.7,1.4-2.9,2.4
				c0.9,2,1.8,4.2,2.8,6.3c1.8,3.6,0.6,9.7-2.6,13.2c0.5,0.6,1,1.3,1.6,2.2c0.7-1.3,1.2-2.6,2-3.7c0.8-1.1,1.9-1.9,2.4-2.4
				c-0.4-5.3-0.8-10.1-1.2-14.9c0.4,0,0.7-0.1,1.1-0.1c0.3,2.8,0.6,5.5,1,8.4c0.2,1.7,0.4,3.4,0.6,5.1c1-0.4,1.7-0.7,2.4-1
				c0.3-1.8,0.6-3.5,0.9-5.2c0.1-0.4,0-0.9-0.2-1.3c-1.6-2.9-1.8-5.9-1.4-9.2c0.3-1.7-0.4-3.9-1.2-5.5c-1.4-2.5-0.6-4.6,0.2-7
				c0.5,3.3-0.3,6.9,2.7,9.1c-0.2,2.6-0.4,5-0.6,7.4c0.2,0.1,0.4,0.2,0.7,0.4c2-2.6,5.3-4.3,5.2-8.4c0,2.4,0.7,4.7-1.9,6.5
				c-2.7,1.9-3,4.1-1.7,6.5c1.9-1.6,4.1-2.9,5.5-4.8c1.4-1.9,1.9-4.4,2.9-6.6c0.2,0.1,0.4,0.1,0.6,0.2c-0.2,1.2-0.4,2.4-0.7,3.9
				c1.5-0.9,2.7-1.7,4-2.5c0.1,0.2,0.3,0.5,0.4,0.7c-1.5,0.9-2.9,1.8-4.3,2.8c-0.7,0.5-1.7,1-1.9,1.7c-0.8,3.1-3.3,4.5-5.6,6.1
				c-1.5,1.1-2.3,2.3-1.6,4.1c4.8,1.2,5.7-2.2,6.4-5.9c0.2,0.1,0.4,0.3,0.6,0.4c-0.3,1.5-0.5,3-0.8,4.5c2.9,0,4.4-1.1,4.6-4
				c0.3-4.7,4.1-7.7,5.4-11.8c0.1-0.4,0.9-0.6,1.8-1.1c-0.9,2.2-1.5,4-2.4,5.7c-0.9,1.7-2.1,3.2-3.1,4.8c3.1,1.5,4.5,0.9,5.5-2.1
				c0.3-1,1.1-1.8,1.6-2.8c0.3,0.2,0.6,0.3,0.9,0.5c-0.8,1.4-1.7,2.7-2.7,4.5c1.2-0.2,2-0.4,2.7-0.5c0.1,0.2,0.1,0.3,0.2,0.5
				c-1.5,0.6-3,1.3-4.6,1.6c-1.7,0.4-3.1,0.8-3.8,2.8c-0.9,2.6-3.4,3.1-6,3.6c0.7,1.5,1.3,2.9,2,4.4c2.5-1.1,3.1-3.3,3.7-6.1
				c0.5,1.1,0.8,1.7,1.2,2.4c1.1-0.2,2.2-0.3,3.4-0.5c-5.5,1.1-7.1,7-12,9c2.8,1.2,3.8,1,6.4-1c1.8-1.4,4-2.5,5.4-4.2
				c1.3-1.6,1.7-3.9,3-5.7c-0.4,1.4-0.8,2.8-1.2,4.1c0.1,0.1,0.3,0.1,0.4,0.2c1.4-1.3,2.7-2.7,4.1-4c0.1,0.1,0.2,0.2,0.3,0.3
				c-2.2,2.2-4.4,4.4-6.7,6.6c0.2,0.1,0.6,0.4,0.9,0.7c0.1,0.2,0.2,0.4,0.3,0.7c-4.4-0.6-6.2,2.9-8.9,5.5c2.5-0.4,5-0.7,7.4-1.1
				c0.1,0.2,0.1,0.4,0.2,0.6c-1.2,0.3-2.4,0.6-3.7,0.8c-1.3,0.2-2.7,0.7-3.9,0.5c-1.3-0.2-2.5-1.2-3.7-1.8c-0.3,0.7-0.7,1.4-1.1,2.3
				c-1.2-2.9-1.4-3-4-1.6c-1.8,0.9-3.5,1.8-5.2,2.8c-1.2,0.6-0.9,2,0.6,3.4c0.7,0.7,1.9,1.3,0.7,2.5c-1,1-2,0.9-2.9-0.2
				c-0.2-0.2-0.4-0.4-0.6-0.6c-3.1-3.2-3.2-3-7.6-3.9c-1.8-0.4-3.3-0.3-5.1,0c-1.2,0.2-2.7-1-4.1-1.6c0.1-0.3,0.2-0.5,0.3-0.8
				c1.2,0.4,2.4,0.9,3.5,1.3c0.1-0.3,0.3-0.5,0.4-0.8c-3.7-1.8-5.3-7.3-10.9-6.2c0.5-0.4,1-0.8,1.5-1.2c-0.4-1.1-0.8-2.3-1-2.8
				c3.3,2.3,6.8,4.9,10.7,7.7c0-3.7-3.7-6.1-2.6-10c1.5,3.3,2.8,6.3,4,9.2C175.5,547.4,178.9,548,182.5,546.1 M190.2,543
				c1.6,2.3,2.8,2.1,4.1,0.5c0.5-0.7,1.3-1.2,2.1-1.7c3.3-2.3,3.6-3.7,1.5-7.4c-1.6,0.3-3.3,0.6-5.6,1c1.7,1,2.7,1.7,3.8,2.3
				c-0.1,0.3-0.3,0.5-0.4,0.8c-1.3-0.5-2.5-1.2-3.8-1.6c-0.6-0.2-1.5-0.1-2,0.2c-2.9,2.2-3.7,5.2-3.2,8.6
				C188.3,545.9,190.2,546.3,190.2,543"/>
			<path fill="#FFFFFF" d="M82.5,533.4c0,0-0.4-0.7,0-1.2c0.4-0.5,2.4-1.3,2.4-1.3s0.4-0.4,0.8-1.5c0.4-1.1,0.9-1.5,1.2-1.8
				c0.3-0.3,1.4-0.6,1.5-1.3c0.1-0.7,0-2.6,0-2.6s0.6-0.9,1.1-1.5c0.5-0.6,1-1.2,1.1-2.3c0.2-1.1-0.6-2.5-0.9-3
				c-0.2-0.5-0.3-2.4-0.3-3.1c0-0.8,0.7-2.2,1.2-3.1c0.5-0.9,1.2-3.7,0.9-5.4c-0.3-1.8,0-2.1,0.1-3.3s0.2-2.8-1.3-4.6
				c0,0-0.7,1.8-0.4,3.1c0.3,1.2,0.3,3-0.8,4.6c-1.1,1.6-1.4,2.7-0.9,5.2c0.6,2.5,0.4,3.2,0.2,3.6c-0.2,0.4-0.5,3.4,0.3,5.2
				c0,0,0.2,1.8-1.1,2.5c-1.3,0.7-0.8,2.4-0.6,3.5c0,0,0.4,0.7,0,1.3s-0.8,0.5-1.2,1.3c-0.3,0.8-0.2,1.2-0.9,1.7
				c-0.7,0.5-1.4,1.2-1.4,1.2s0.4-1,0.5-1.9c0.1-0.9,0.6-1.6,1.1-1.8c0.6-0.2,1-1.2,0.1-2.4c-0.9-1.2-0.2-1.9,0.1-3.1
				c0.2-1.1,0.8-4-0.8-5.8c-1.6-1.8-1.2-0.4-3-3.6c0,0-0.4-2.7,0-5.6c0.4-2.9-1.2-5.9-1.9-6.7c-0.6-0.9-1.3-1.9-1.2-3.2
				c0-1.3-1.6-3.2-3.7-4.3c0,0,0.8,3.4,1.7,4.3c0.9,0.9,0.8,1.5,0.8,2.7c0,1.2-1.1,3.7,2.2,8.2c0,0,0.8,1.5,1,4.1
				c0.2,2.6,2,5.5,2.7,6c0.8,0.5,1,1.9,0.4,3.2c-0.6,1.4-0.5,1.8,0.9,4.4c0,0,0.6,0.8-0.5,1.3c-1,0.5-0.7,2.6-0.9,3.3
				c-0.2,0.6-1.1,1.6-1.3,1.9c-0.3,0.3-2.9-2-3.1-3.5s0.6-1.6,0-3.2c-0.6-1.5-0.9-1.6-0.3-2.6c0.5-1,1.5-1.9,0.3-5
				c-1.1-3.2-0.4-3.3,0-4c0.4-0.7,0.3-1.1-0.3-3.9c0,0-1.5,2.1-1.3,3.9c0.2,1.8,0.6,3.8,0.7,4.7c0.1,0.9,0.4,0.7-0.7,2.4
				c-1.1,1.6-0.8,2.7,0,3.6c0.8,0.9,0.8,2.3,0.8,2.5c0,0.2,0,1.6,0.2,1.9c0.2,0.3-1.8-1.2-1.9-2.4c-0.2-1.2,0.4-1.8-0.6-3.6
				c-1-1.8-0.3-6.6,0-7.7c0.3-1.1,0.3-3-0.6-5s-0.3-2.8,0-3.3c0.3-0.5,0.8-4-1.9-8.2c0,0-1.4-1.5,0-6.7c0,0-2.6,4.2-2.1,5.8
				c0.5,1.5,1,1.2,1.1,3.1c0.1,1.9-1.8,2.7,0.1,7.4c0,0,2,2.2,2,3.7c0,1.5-0.7,3.9-1.2,4.8c-0.4,1-0.3,3.1,0.8,4.9
				c1,1.8,1.4,3.3,1.4,3.3c0,0-0.5,1.6,0.3,2.4c0,0-1.6-1.8-1.8-3.1c-0.2-1.4-0.8-2-1.4-2.5c-0.6-0.5-1.6-2.4-1.5-3.2
				c0.1-0.8-0.6-4.9-1.9-5.6c-1.4-0.7-0.9-1.2-1-2.8c-0.1-1.6,0.5-1.3-1.8-4.2c-2.2-2.9-3.3-2.3-2.8-4.2c0.5-1.9-0.3-3.1-0.9-3.9
				c0,0-1.4,2.6,0,4.6c1.4,2,1,3.6,1.1,4.2s0.6,2.3,2.1,4c1.5,1.7,3.4,4.2,3.4,7.3s2.2,4.4,3,5.6c0.8,1.2,0.7,1,1.3,1.9
				c0.6,0.9,1.5,2.8,4.9,4.7c0,0,2.1,1.1,2.2,3.8l-0.2,0.8h2.1L82.5,533.4L82.5,533.4z"/>
		</g>
		<path fill="#CFD1D2" d="M389.3,546.2c0,0-0.4-0.8,0-1.5c0.4-0.7,2.9-1.5,2.9-1.5s0.5-0.5,1-1.8c0.5-1.3,1.1-1.8,1.4-2.2
			c0.4-0.4,1.7-0.7,1.8-1.6c0.1-0.8,0-3.1,0-3.1s0.8-1,1.3-1.8c0.6-0.8,1.2-1.5,1.3-2.7c0.2-1.3-0.8-3-1.1-3.6s-0.4-2.9-0.4-3.8
			s0.8-2.7,1.5-3.7c0.6-1.1,1.4-4.4,1-6.5c-0.4-2.1,0-2.6,0.1-4c0.1-1.5,0.2-3.4-1.5-5.6c0,0-0.9,2.2-0.5,3.7c0.4,1.5,0.4,3.6-1,5.6
			c-1.3,2-1.7,3.2-1.1,6.3c0.7,3,0.5,3.9,0.3,4.3c-0.2,0.5-0.7,4.1,0.3,6.3c0,0,0.2,2.2-1.4,3c-1.6,0.9-0.9,2.8-0.8,4.2
			c0,0,0.4,0.8,0,1.5c-0.4,0.7-1,0.6-1.4,1.6c-0.4,1-0.2,1.5-1.1,2.1c-0.9,0.6-1.7,1.4-1.7,1.4s0.5-1.2,0.6-2.3
			c0.1-1,0.7-1.9,1.3-2.1c0.7-0.2,1.2-1.5,0.1-2.9c-1.1-1.5-0.2-2.3,0.1-3.7c0.3-1.4,1-4.8-1-7c-2-2.2-1.4-0.5-3.6-4.4
			c0,0-0.5-3.3,0-6.8c0.5-3.5-1.5-7.1-2.3-8.1c-0.8-1-1.5-2.2-1.5-3.8c0-1.6-1.9-3.8-4.5-5.2c0,0,0.9,4.1,2,5.2c1.1,1.1,1,1.8,1,3.3
			c0,1.5-1.4,4.4,2.7,9.9c0,0,1,1.8,1.3,4.9c0.3,3.1,2.4,6.6,3.3,7.2c0.9,0.6,1.2,2.2,0.5,3.9c-0.7,1.7-0.6,2.2,1.1,5.3
			c0,0,0.7,0.9-0.6,1.5c-1.2,0.6-0.8,3.2-1,3.9c-0.2,0.8-1.3,1.9-1.6,2.3c-0.3,0.4-3.5-2.4-3.7-4.2c-0.2-1.8,0.8-2,0-3.8
			c-0.8-1.9-1-2-0.4-3.1c0.6-1.2,1.8-2.2,0.4-6.1c-1.3-3.8-0.5-4,0-4.8c0.5-0.8,0.4-1.3-0.4-4.7c0,0-1.8,2.6-1.5,4.7
			c0.3,2.2,0.8,4.6,0.9,5.7c0.1,1.1,0.5,0.9-0.9,2.8c-1.4,2-1,3.3,0,4.4c1,1.1,1,2.8,1,3.1c0,0.2,0,1.9,0.2,2.3
			c0.2,0.4-2.1-1.5-2.3-2.9c-0.2-1.5,0.4-2.2-0.7-4.3c-1.2-2.2-0.4-7.9,0-9.3c0.4-1.4,0.3-3.6-0.8-6c-1.1-2.5-0.3-3.4,0-4
			c0.3-0.6,0.9-4.9-2.3-9.8c0,0-1.6-1.8,0-8c0,0-3.1,5.1-2.5,6.9c0.6,1.9,1.3,1.4,1.3,3.7c0.1,2.3-2.2,3.2,0.1,8.9
			c0,0,2.4,2.6,2.4,4.4c0,1.8-0.9,4.6-1.4,5.8c-0.5,1.2-0.3,3.7,0.9,5.9c1.2,2.1,1.7,4,1.7,4s-0.6,1.9,0.4,2.8c0,0-1.9-2.1-2.1-3.7
			c-0.2-1.6-1-2.4-1.6-3c-0.7-0.6-2-2.8-1.8-3.8c0.2-1-0.7-5.9-2.3-6.8c-1.6-0.9-1.1-1.5-1.2-3.4c-0.1-1.9,0.6-1.6-2.1-5.1
			c-2.7-3.5-4-2.7-3.4-5c0.6-2.3-0.4-3.8-1.1-4.7c0,0-1.7,3.1,0,5.6c1.7,2.5,1.2,4.3,1.3,5.1c0.1,0.7,0.7,2.8,2.6,4.8
			c1.8,2.1,4.1,5.1,4,8.8c-0.1,3.7,2.7,5.3,3.7,6.7c1,1.5,0.9,1.2,1.5,2.2c0.7,1.1,1.8,3.3,5.9,5.7c0,0,2.5,1.4,2.7,4.6l-0.2,1h2.5
			L389.3,546.2L389.3,546.2z"/>
		<g>
			<circle fill="none" stroke="#FFFFFF" stroke-miterlimit="10" cx="140.7" cy="507.7" r="2.8"/>
			<circle fill="none" stroke="#FFFFFF" stroke-miterlimit="10" cx="150" cy="540.7" r="1.1"/>
			<circle fill="none" stroke="#FFFFFF" stroke-miterlimit="10" cx="184.6" cy="511.6" r="2.3"/>
			<circle fill="none" stroke="#FFFFFF" stroke-miterlimit="10" cx="173.3" cy="501.6" r="1.3"/>
			<circle fill="none" stroke="#FFFFFF" stroke-miterlimit="10" cx="171.1" cy="486.4" r="2"/>
			<circle fill="none" stroke="#FFFFFF" stroke-miterlimit="10" cx="95.2" cy="539.5" r="1.3"/>
			<circle fill="none" stroke="#FFFFFF" stroke-miterlimit="10" cx="480.9" cy="486.5" r="2.3"/>
			<circle fill="none" stroke="#FFFFFF" stroke-miterlimit="10" cx="67.3" cy="515" r="1.1"/>
			<circle fill="none" stroke="#FFFFFF" stroke-miterlimit="10" cx="245.7" cy="522.8" r="2.3"/>
			<circle fill="none" stroke="#FFFFFF" stroke-miterlimit="10" cx="306.6" cy="480.6" r="1.4"/>
			<circle fill="none" stroke="#FFFFFF" stroke-miterlimit="10" cx="508.1" cy="551" r="2.3"/>
			<circle fill="none" stroke="#FFFFFF" stroke-miterlimit="10" cx="497.7" cy="491.4" r="1.3"/>
			<circle fill="none" stroke="#FFFFFF" stroke-miterlimit="10" cx="294.6" cy="485" r="1.1"/>
			<circle fill="none" stroke="#FFFFFF" stroke-miterlimit="10" cx="343.2" cy="481.3" r="2.3"/>
			<circle fill="none" stroke="#FFFFFF" stroke-miterlimit="10" cx="453.5" cy="521" r="1.4"/>
			<circle fill="none" stroke="#FFFFFF" stroke-miterlimit="10" cx="446" cy="532.2" r="1.1"/>
			<circle fill="none" stroke="#FFFFFF" stroke-miterlimit="10" cx="420.3" cy="482.7" r="2.3"/>
			<circle fill="none" stroke="#FFFFFF" stroke-miterlimit="10" cx="392.9" cy="517.1" r="1.4"/>
			<circle fill="none" stroke="#FFFFFF" stroke-miterlimit="10" cx="385.3" cy="528.4" r="1.1"/>
			<circle fill="none" stroke="#FFFFFF" stroke-miterlimit="10" cx="230.5" cy="476.8" r="1.4"/>
			<circle fill="none" stroke="#FFFFFF" stroke-miterlimit="10" cx="225.9" cy="490.7" r="1.1"/>
			<circle fill="none" stroke="#FFFFFF" stroke-miterlimit="10" cx="531.9" cy="479.2" r="2.8"/>
			<circle fill="none" stroke="#FFFFFF" stroke-miterlimit="10" cx="564.4" cy="509.5" r="2.3"/>
		</g>
		<g>
			<g>
				<path fill="#CFD1D2" d="M587.2,536.2C587.2,536.2,587.2,536.2,587.2,536.2C587.2,536.2,587.2,536.2,587.2,536.2z"/>
				<path fill="#CFD1D2" d="M592,541.2L592,541.2l-0.1-0.1c0,0-0.1,0-0.2,0c0,0-0.1,0-0.1,0s0,0,0-0.1c0-0.1-0.1-0.1-0.1-0.1l-0.1,0
					l-0.1-0.1l-0.1-0.1c0,0,0,0-0.1-0.1c-0.1-0.1,0,0,0,0c0,0-0.1,0-0.1,0s-0.1-0.1-0.2-0.1c-0.1,0-0.1-0.2-0.1-0.2
					c-0.2-0.6-1.6-0.6-1.9-0.7c-0.3-0.1-0.2-0.4-0.2-0.4c0.9-0.1,0.6-0.8,0.6-0.8c0,0,0,0,0,0l0.1,0c0.2,0.5,0.5,0.4,1.4-0.2
					c0.9-0.7,1.2-1.9,1.3-3.6c0.1-1.7-1.1-2.7-1.7-2.6c-0.7,0.1-0.7,0.7-0.6,0.8c0,0,0.3,0,0.5,0c0.2,0,0.2,0.2,0.2,0.2
					c-0.1,0-0.4,0.5-0.5,0.7c-0.1,0.2-0.4,0.8-0.4,0.8c-0.1-0.1-0.7,0.5-0.9,0.8c-0.2,0.3-0.9,0.7-1,0.9c-0.1,0.2-0.3,0.3-0.3,0.3
					c-0.1,0,0.1-0.1,0.2-0.2c0.1-0.1-0.3,0-0.3,0c0,0,0,0,0,0c0,0,0,0,0,0c0.1,0,0.5-0.6,0.6-0.7c0.1-0.2,0-0.2,0-0.3
					c0-0.1,0.2-0.5,0.2-0.6c0-0.1-0.2-0.2-0.2-0.2s-0.1-0.4-0.2-0.5c-0.1-0.1-0.3-0.1-0.4-0.1c-0.1,0-0.1-0.2-0.2-0.3
					s-0.4-0.1-0.5-0.1c-0.1,0-0.2-0.3-0.4-0.3c-0.1-0.1-0.3,0-0.5,0c-0.1,0-0.3-0.3-0.5-0.3c-0.2-0.1-0.6,0-0.8,0
					c-0.2,0-0.5-0.2-0.7-0.3c-0.2,0-0.4,0.1-0.7,0c-0.3-0.2-0.8-0.4-1-0.4c-0.1,0-0.1,0-0.3-0.1c-0.1-0.1-0.4-0.2-0.4-0.2
					c0.1-0.2,0-0.4-0.1-0.4c-0.1,0-0.3,0.3-0.3,0.3l0-0.1c-0.2-0.2-0.4-0.2-0.5-0.2c-0.1,0-0.2,0-0.2,0l-0.1,0c0,0-0.3-0.5-0.4-0.6
					c0,0,0.2-0.5,0.2-0.5l0,0l-0.3,0.6l0,0c0,0,0,0-0.1,0c0,0,0,0,0,0.1c0,0,0.3,0.3,0.3,0.4c0,0-0.2,0.1-0.2,0.1
					c-0.2-0.2-0.4,0-0.4,0c-0.2-0.2-0.3-0.1-0.4-0.1c-0.1,0,0.1-0.4,0.1-0.4s0.2-0.2,0.2-0.3c0-0.1,0.7-0.2,0.7-0.2
					c-0.1,0-0.7,0.1-0.8,0.1c-0.1,0-0.2,0.2-0.2,0.2l-0.1,0c0-0.1,0.1-0.4,0-0.3c0,0.1-0.4,0.8-0.4,0.8c-0.1-0.3-0.6-0.2-0.6-0.2
					c-0.3-0.6-0.5,0.2-0.5,0.2c-0.1,0-0.5,0-0.9,0.2c-0.4,0.1-1.1,0-1.1,0c-0.5-0.2-1.2,0-1.2,0c-0.1-0.2-0.7-0.3-0.7-0.3
					c0.1-0.2,0-0.4,0-0.4c0.2-0.1,0.2-0.8,0.3-0.9c0.1-0.1,0.4-0.2,0.6-0.2c0.2,0,0.2-0.2,0.2-0.2s0.3,0,0.4,0
					c0.1,0,0.1-0.2,0.2-0.3c0.1-0.1,0.3,0.1,0.4,0.1c0.1,0,0.3-0.2,0.4-0.3c0-0.1,0.2,0,0.3,0.1c0.2,0.1,0.3-0.1,0.3-0.1l0.1,0h0.1
					c0,0,0.1,0.1,0.2,0.1s0.1,0,0.2,0c0.1,0,0,0,0.2,0c0.2,0,0.1-0.3-0.2-0.6c-0.3-0.3-1.6-0.4-2.3-0.5c-0.7,0-1.6,0.3-1.9,0.4
					c-0.3,0-1.3,0.4-1.3,0.4c0-0.6-2.2,0.6-2.6,0.9c-0.3,0.3-0.8,0.8-0.8,0.8c-0.8,0-0.7,0.4-0.7,0.4c-0.5-0.1-0.6,0.3-0.7,0.3
					c0,0.1-0.2,0.3-0.6,0.7c-0.4,0.3-0.6,1.2-0.6,1.8c0,0.6,0.9,1.1,1,1.2c0.2,0.1,0.1,0.3,0,0.6c0,0.3,0.2,0.3,0.2,0.3
					c-1.9,0.9-3.5,3.1-3.5,3.1l0.1,0.1c-0.1,1.5,0.7,2.6,0.7,2.6l0.1,0l0.1,0l0.1,0.1l0,0.1l0.3,0.4c0,0,0,0.2,0.3,0.5
					c0.3,0.4,0.7,0.5,0.7,0.5c0.1,0.1,0.6,0.4,0.7,0.5c0.1,0.1,0.2,0,0.2,0c0,0-0.4-0.5-0.4-0.5c0.1-0.2-1-2.5-1-2.6l0.1,0V540
					c0,0,0,0,0-0.1c0-0.1,0.1-0.1,0.1-0.1s0,0,0.1-0.1c0.1-0.1,0-0.1,0-0.1c0-0.1,0.1-0.1,0.1-0.1h0.2l-0.1-0.1l0-0.1l0.3,0.1
					l-0.2-0.1l0-0.1V539l0.1,0l0.1-0.1l0.2,0.2l-0.1-0.2v-0.2l0.1-0.2c0,0,0,0,0-0.1c0-0.1,0-0.1,0-0.1s0.1-0.1,0.1-0.1
					c0-0.1,0-0.1,0-0.1V538l0.1,0c0.1,0.1,1.1,0.4,1.1,0.4c0,0.4,0.8,1,0.8,1c-0.3,0.4,0.1,1.2,0.2,1.4s0.5,1.1,0.5,1.1
					c0,0.1,0.2,0.1,0.3,0.1s0,0,0.1,0.3c0.1,0.4,1.3,0.9,1.4,0.9c0.1,0,0.2-0.1,0.2-0.1c0.8,0.3,1.7,0,1.7,0s0.3-0.1,0.7-0.1
					c0.3,0,1.3-0.6,1.3-0.6l0-0.1l-0.5,0.1l-0.1,0c-0.3-0.2-2.1,0-2.4,0c-0.3,0-0.2-0.3-0.2-0.3c0-0.1-0.3-0.5-0.5-0.7
					c-0.2-0.3-0.7-0.5-0.7-0.5l-0.1-0.2c0,0,0-0.1-0.1-0.1c-0.1,0-0.4-0.4-0.4-0.4c0.3,0.1,3.5,1,3.8,1.1c0.4,0.2,0.3,0,0.3,0
					s0.1,0,0.2,0c0.1,0,0.3,0,0.4,0c0.1,0,0.1,0,0.1,0s0.2,0,0.3,0c0.1,0,0.2,0,0.5,0.1c0.3,0.1,0.1,0.1,0.1,0.1s0.1,0,0.6,0
					c0.5,0,0.5,0.1,0.7,0.1s0.2,0,0.3,0s0.5,0,0.7,0s0.2,0,0.2,0.1c0.1,0.1,0.1,0,0.2,0.1c0.1,0,0.1,0,0.3,0c0.2,0,0.1,0,0.2,0.1
					c0.1,0,0.1,0,0.2,0.1c0.1,0,0.2,0,0.3,0c0.1,0,0.3,0,0.4,0s0.2,0,0.3-0.1c0.1,0,0.3,0,0.4,0c0.1,0,0.1,0,0.2,0
					c0.1,0,0.2,0,0.4,0c0.2,0,0.2,0,0.3,0c0.1,0,0.2,0,0.2,0l0.2,0l0.2-0.1c0,0,0.2,0,0.2-0.1c0.1,0,0.3-0.1,0.3-0.1l0.2,0
					c0,0,0.1-0.1,0.2-0.1c0.1,0,0.3-0.3,0.3-0.3c0.4,0,3.7,0,3.7,0c0.1,0.2,1.1,1.1,1.1,1.1c-0.3,0.1-2,1.2-2.1,1.2
					s-0.1,0.1-0.2,0.2c-0.1,0.1-0.5,0.2-0.6,0.2c-0.1,0,0,0.1,0,0.1c2.3,0.5,4-1.3,4.3-1.6c0.2-0.4,0.1-0.8,0.1-0.8l0.1,0.1l0.1,0
					c0,0,0.1,0,0.1,0.1c0,0,0.1-0.1,0.3,0s1.2,0.9,1.2,0.9c-0.2,0.5,0,1.3,0,1.3h0.1l0,0c-0.1,0.1-0.1,0.3-0.1,0.3
					C593,542.8,592,541.2,592,541.2z M567.7,536.6c-0.1,0,0-0.1,0.2-0.1c0.1,0,0.2,0.1,0.3,0.2c0,0,0.1,0.1,0.1,0.1s0.2,0.2,0.3,0.3
					c0,0,0,0,0,0c0,0,0,0,0,0C568.5,537,567.8,536.6,567.7,536.6z M572.2,538.4l-0.2,0c0,0-0.7-0.7-0.6-0.8c0.2-0.1,0.5,0,0.6,0.1
					C572.1,537.7,572.3,537.9,572.2,538.4z M585.7,539.7c-0.1,0.1-0.8,0.1-1,0.1c0,0,0,0,0,0c0,0,0,0,0,0c0.1,0,0.3-0.3,0.3-0.3
					s0.7,0,0.8,0C585.8,539.6,585.7,539.6,585.7,539.7z"/>
				<path fill="#CFD1D2" d="M568.6,537C568.6,537,568.6,537,568.6,537C568.6,537,568.6,537,568.6,537z"/>
				<path fill="#CFD1D2" d="M584.7,539.8C584.6,539.8,584.6,539.8,584.7,539.8C584.6,539.8,584.6,539.8,584.7,539.8z"/>
			</g>
		</g>
		<path fill="#CFD1D2" d="M418.3,516.8c0,0-1.5,1.2-1.8,2.7c-0.3,1.5-0.3,6.2,0.1,6.7c0.4,0.5,1.6,0.5,2.2,0.6
			c0.6,0.2,5.6,1,5.9,5.6h-0.1c0,0-1-4-6.3-2.7c-5.4,1.3-2.7,9-2.6,9.3l-0.2,0.1c0,0-1.8-3.2-1.7-6.1c0-2.9,1.2-5.3,0.7-6.7
			c-0.5-1.4-1.5-3.5-1.5-3.6c0-0.2-0.1,0-0.1,0s0.1,0.8-0.1,0.8c-0.1,0-0.2-1.6-0.2-2.1c-0.1-0.5-0.6-3.3,0.4-6.6
			c1-3.3,3.4-7.3,4-8.1c0.6-0.8,2-2.9,2.2-3.3c0.2-0.4,0.3-1.2-0.2-1.5c-0.5-0.3-2.1-1.5-5.3-0.1l-0.1-0.1c0,0,1.1-1.7,3.7-2
			c2.6-0.3,5.8,0.1,7.3-0.1c1.6-0.2,4.3-0.9,5.8-0.9c1.5-0.1,5.2-0.6,6.3-0.9c1.1-0.4,4.7-2.2,5.7-2.8c1-0.6,4.3-2.2,4.3-2.1
			c0.1,0.1,0,0.4-1.4,1.2c-1.5,0.8-7.6,4.3-8.7,5.2c-1.1,0.9-4.1,3.1-4,3.3c0.1,0.1,5.8,0.1,6,0.3c0.2,0.3-0.6,0-0.9,0.1
			c-0.3,0.1-3.3,0.3-4.6,1.4c-1.3,1.2-2.4,2.1-2.8,2.3c0,0,0.8,0.9,1,1.7c0.2,0.8,0.5,3.1,0.3,3.1c-0.2,0-1.5-2.6-1.7-2.2
			c0,0,0.1,0.3,0.2,1.1c0.1,0.8,0.4,4.3-0.7,5.2c0,0-0.2-1.9-0.2-2.2c0-0.3-0.7-2-0.9-2.4c-0.2-0.5-0.4-1.3,0.1-2.6
			c0,0-0.2,0-0.3,0.1c-0.1,0.1-2.9,2.1-3.6,2.8c-0.7,0.6-3.3,2.7-3.6,3.1c-0.3,0.3-0.3,0.5-0.4,1.6c-0.1,1.1-0.7,3.5-2.3,4.1
			C418.2,519.6,418.6,516.8,418.3,516.8z"/>
		<path opacity="0.5" fill="#D0DE57" enable-background="new    " d="M563.4,292.8c-3.4-4-6.6-5.2-11.5-7c-4-1.5-6.7-4.2-10.6-5.9
			c-7.1-3.1-12.4-3.3-20.4-2.7c-3.6,0.3-8.1,0.9-11.6-0.1c-5.8-1.6-10.8-7.4-16.3-9.8c-9-3.8-23.3-2.8-32.3,1.2
			c-3.4,1.5-6.2,2.7-10.1,2.3c-3.1-0.3-6-1.4-9.2-1.5c-5.8-0.3-11.7,0.4-17.5,0.3c-6.5-0.1-9.6-0.7-15,3.7c-1.2,0.9-0.7,1.7-2.2,2.4
			c-3.6,1.7-10.1,2-14,2.6c-5.8,1-11.5,0.7-17.2,1.2c-4.2,0.4-15.7,4.9-13.7,10.5c0.6,1.8,3.1,1.7,4.8,2.5c3.1,1.5,5.9-0.2,9,1.4
			c5.2,2.6,0.1,9.3,6.1,10.5c3.5,1.4,7.1,2.7,9.1,6.3c2.5,4.6-2.8,5.4,1.9,8.4c5.1,3.2,11.5,3.9,17.4,2.7c7.7-1.5,14.8-2.3,22.8-1.2
			c5.5,0.7,10.4,3.6,16,3.5c4-0.1,7.6-1.8,11.4-2.7c9.5-2.2,18.4-0.9,27.9,0.4c8.8,1.2,19.8,0.8,28.6,0c7-0.6,16.3-3.3,22.3-7
			c6.4,5.4,11.8,3.7,19.2,2.2c5.7-1.2,12-4,12.2-11.1C570.7,301,566.5,296.4,563.4,292.8z"/>
		<path fill="#FFFFFF" d="M404.6,272.3c1.1-1,1.9-2.5,1.9-4.1c0-3.1-2.5-5.5-5.5-5.5c-3.1,0-5.5,2.5-5.5,5.5c0,1.6,0.7,3,1.8,4
			c1.5,2.2,2.4,14,3.6,14.9V299h-0.6v2.7h1.6V299h-0.6V287C402.2,285.9,403.1,274.7,404.6,272.3z"/>
	</g>
	<g id="pops">
		<g opacity="0.8">
			<g>
				<path opacity="0.4" fill="#82BAFF" enable-background="new    " d="M120.4,401.3c0,0,26-5.3,39.7-5.3s10.9-3,37.9-1.4
					c12.9,0.8,13.8-3.8,31-5.5c5-0.5,14.2-0.8,24.1-1.5c14.8-1.1,16.4-7,35.9-7.7c27.6-1.1,25.7,2.8,43.6,2.7
					c11.8,0,16.4-0.8,30.8-0.9c30.7,0,71.9,24.8,101.2,27.1c27.7,2.2,79.2,15.9,102.1,13.8c22.9-2.1,45.7-0.6,45.7-0.6l-0.1,51.8
					H0.4v-61c0,0,29-0.3,54.8-3.3C79.4,406.8,120.4,401.3,120.4,401.3z"/>
				<path fill="#82BAFF" d="M0.3,403.8c0,0,37.8-7.1,59.7-6.6s59.3,4.6,88.5,13.1s39,8.1,39,8.1s19.5,1.6,34.7,8.1
					c15.2,6.5,47.4,16.9,55.4,17.2c8,0.3,28.1,0.6,52.2-7.8c24.1-8.4,108.7-10.1,133.9-2.7c20.7,6.1,19.9,9.7,41.1,15.3
					c14.5,3.9,56.5,8.5,82,9.4c25.6,0.9,25.6,0.9,25.6,0.9l-0.2,15H0.3V403.8z"/>
				<path opacity="0.4" fill="#82BAFF" enable-background="new    " d="M120.3,401.6c0,0,26-5.3,39.7-5.3s10.9-3.1,37.9-1.4
					c27,1.7,50.1,10.4,69,11.2c5.1,0.2,13.2-0.8,18.2-0.7c14.9,0.5,27.1,3.2,41.1,4.4c14,1.2,46.7,12.8,77.7,13.3
					c31,0.5,44.2-2.1,58.5-2.1c14.3,0,18.3,0.3,32.1,2.2c27,3.8,52.8,10.7,75.7,8.7c22.9-2.1,42.1-5.3,42.1-5.3v47.1H0.3v-60.7
					c0,0,29-0.3,54.8-3.3C79.3,407.1,120.3,401.6,120.3,401.6z"/>
			</g>
		</g>
		<g>
			<polygon fill="#627CBE" points="363,443.3 363,431 410.9,431 412.6,419.9 417.5,414.2 421.5,419.8 422.9,430.4 422.9,443.3 			
				"/>
			<polyline fill="#CFDD57" points="363,431 365.3,419.1 369.6,413.4 417.9,413.4 422.6,419.6 423.9,431 422.9,431 421.5,419.8 
				417.5,414.2 412.6,419.9 410.9,431 363,431 			"/>
			<g>
				<line fill="none" stroke="#FBEF76" stroke-miterlimit="10" x1="401.5" y1="431" x2="401.5" y2="443.3"/>
				<line fill="none" stroke="#FBEF76" stroke-miterlimit="10" x1="403.9" y1="431" x2="403.9" y2="443.3"/>
				<line fill="none" stroke="#FBEF76" stroke-miterlimit="10" x1="406.3" y1="431" x2="406.3" y2="443.3"/>
				<line fill="none" stroke="#FBEF76" stroke-miterlimit="10" x1="408.6" y1="431" x2="408.6" y2="443.3"/>
				<line fill="none" stroke="#FBEF76" stroke-miterlimit="10" x1="394.3" y1="431" x2="394.3" y2="443.3"/>
				<line fill="none" stroke="#FBEF76" stroke-miterlimit="10" x1="396.7" y1="431" x2="396.7" y2="443.3"/>
				<line fill="none" stroke="#FBEF76" stroke-miterlimit="10" x1="399.1" y1="431" x2="399.1" y2="443.3"/>
				<line fill="none" stroke="#FBEF76" stroke-miterlimit="10" x1="387.1" y1="431" x2="387.1" y2="443.3"/>
				<line fill="none" stroke="#FBEF76" stroke-miterlimit="10" x1="389.5" y1="431" x2="389.5" y2="443.3"/>
				<line fill="none" stroke="#FBEF76" stroke-miterlimit="10" x1="391.9" y1="431" x2="391.9" y2="443.3"/>
				<line fill="none" stroke="#FBEF76" stroke-miterlimit="10" x1="379.9" y1="431" x2="379.9" y2="443.3"/>
				<line fill="none" stroke="#FBEF76" stroke-miterlimit="10" x1="382.3" y1="431" x2="382.3" y2="443.3"/>
				<line fill="none" stroke="#FBEF76" stroke-miterlimit="10" x1="384.7" y1="431" x2="384.7" y2="443.3"/>
				<line fill="none" stroke="#FBEF76" stroke-miterlimit="10" x1="372.7" y1="431" x2="372.7" y2="443.3"/>
				<line fill="none" stroke="#FBEF76" stroke-miterlimit="10" x1="375.1" y1="431" x2="375.1" y2="443.3"/>
				<line fill="none" stroke="#FBEF76" stroke-miterlimit="10" x1="377.5" y1="431" x2="377.5" y2="443.3"/>
				<line fill="none" stroke="#FBEF76" stroke-miterlimit="10" x1="365.5" y1="431" x2="365.5" y2="443.3"/>
				<line fill="none" stroke="#FBEF76" stroke-miterlimit="10" x1="367.9" y1="431" x2="367.9" y2="443.3"/>
				<line fill="none" stroke="#FBEF76" stroke-miterlimit="10" x1="370.3" y1="431" x2="370.3" y2="443.3"/>
			</g>
			<polygon fill="#FBEF76" points="391,414.5 394.6,414.5 395.7,413.4 396.6,413.4 396.6,408.6 391,408.6 			"/>
		</g>
		<g>
			<ellipse fill="#627CBE" cx="422.8" cy="376.1" rx="2.1" ry="5"/>
			<path fill="#627CBE" d="M443.8,380.3v4.9c0,0-2.3-0.1-3-4.4h-5.5c0,0,0.4,1.5-1.4,1.7c-1.8,0.2-1.8,0.2-1.8,0.2s-1-0.2-1.3-1.6
				c0,0-3.8,0.6-8.1,0c0,0-3.2-5.1,0-9.9c0,0,3.5-0.9,18.3,2.6c0,0-0.4-4.3,3-4.2v5c0,0,2.2,0.5,2.3,2.1c0.1,1.6-0.2,2-0.2,2
				S445.4,380.4,443.8,380.3z"/>
			<path fill="#627CBE" d="M431.9,371.9v-7.7H430c0,0-1-1.1-0.1-2.2h5c0,0,1.1,1.1-0.2,2.2h-1.6v8L431.9,371.9z"/>
			<rect x="432.3" y="382.2" fill="#627CBE" width="1.3" height="57.8"/>
			<ellipse opacity="0.5" fill="#FFFFFF" enable-background="new    " cx="422.8" cy="376.2" rx="1.8" ry="4.6"/>
		</g>
		<g opacity="0.6">
			<path fill="#FFFFFF" d="M256.1,473.8c1.2,0.1,76.5-5,92.3-7.9c15.8-2.9,34.7-5.6,51.6-6.6c16.9-1,24-5.5,11.1-10.5
				c-12.9-4.9-14.7-3.9-21.8-4.9c-7.1-1-2.9-0.5-2.9-0.5l31.1-0.2c0,0,14.6,1,26.6,8.9c12,7.9-7.6,17-10.2,17.4
				c-2.7,0.3-47.3,4.3-47.3,4.3H273.4"/>
		</g>
		<g>
			<g>
				<polygon fill="#627CBE" points="483.1,386.7 482.1,407.7 487,407.7 486.2,386.6 				"/>
				<polygon fill="#FFFFFF" points="483,388.6 482.9,390.2 486.3,390.2 486.2,388.6 				"/>
				<polygon fill="#FFFFFF" points="482.8,392.3 482.7,394 486.5,394 486.4,392.3 				"/>
				<polygon fill="#FFFFFF" points="482.6,396.1 482.5,397.8 486.6,397.8 486.5,396.1 				"/>
				<polygon fill="#FFFFFF" points="482.4,400.1 482.3,401.7 486.8,401.7 486.7,400.1 				"/>
				<polygon fill="#FFFFFF" points="482.2,404.1 482.1,405.8 486.9,405.8 486.8,404.1 				"/>
				<polygon fill="#627CBE" points="490.4,386.7 489.4,407.8 494.3,407.8 493.5,386.6 				"/>
				<polygon fill="#FFFFFF" points="490.3,388.6 490.2,390.3 493.6,390.3 493.6,388.6 				"/>
				<polygon fill="#FFFFFF" points="490.1,392.4 490,394 493.8,394 493.7,392.4 				"/>
				<polygon fill="#FFFFFF" points="489.9,396.2 489.8,397.8 493.9,397.8 493.9,396.2 				"/>
				<polygon fill="#FFFFFF" points="489.7,400.1 489.6,401.7 494.1,401.7 494,400.1 				"/>
				<polygon fill="#FFFFFF" points="489.5,404.2 489.5,405.8 494.2,405.8 494.2,404.2 				"/>
				<polygon fill="#FFFFFF" points="505.4,407.7 505.4,405.2 499.2,402.3 499.2,407.7 498.4,407.7 498.4,405.2 492.2,402.3 
					492.2,407.7 490.3,407.7 490.3,407.7 487.6,407.7 487.6,407.7 486.5,407.7 486.5,407.7 483.8,407.7 483.8,407.7 481.5,407.7 
					481.5,415.2 507.2,415.2 507.2,407.7 				"/>
			</g>
			<g>
				<polygon fill="#627CBE" points="477.1,415.6 477,384.5 464.3,384.5 464.3,415.6 				"/>
				<rect x="465" y="386.2" fill="#FFFFFF" width="11.2" height="0.7"/>
				<rect x="465" y="388.3" fill="#FFFFFF" width="11.2" height="0.7"/>
				<rect x="465" y="390.4" fill="#FFFFFF" width="11.2" height="0.7"/>
				<rect x="465" y="392.5" fill="#FFFFFF" width="11.2" height="0.7"/>
				<rect x="465" y="394.6" fill="#FFFFFF" width="11.2" height="0.7"/>
				<rect x="465" y="396.7" fill="#FFFFFF" width="11.2" height="0.7"/>
				<rect x="465" y="398.8" fill="#FFFFFF" width="11.2" height="0.7"/>
				<rect x="465" y="400.9" fill="#FFFFFF" width="11.2" height="0.7"/>
				<rect x="465" y="403" fill="#FFFFFF" width="11.2" height="0.7"/>
				<rect x="465" y="403" fill="#FFFFFF" width="11.2" height="0.7"/>
				<rect x="465" y="405.1" fill="#FFFFFF" width="11.2" height="0.7"/>
				<rect x="465" y="407.2" fill="#FFFFFF" width="11.2" height="0.7"/>
				<rect x="465" y="409.3" fill="#FFFFFF" width="11.2" height="0.7"/>
				<rect x="465" y="411.4" fill="#FFFFFF" width="11.2" height="0.7"/>
				<rect x="465" y="413.5" fill="#FFFFFF" width="11.2" height="0.7"/>
			</g>
			<g>
				<polygon fill="#627CBE" points="459.6,415.7 459.6,402.2 460.3,402.2 460.3,398.6 461.3,398.6 461.3,402.2 462.7,402.2 
					462.7,400.7 463.7,400.7 463.7,402.1 467,402.1 467,415.7 				"/>
				<g>
					<rect x="460.6" y="402.8" fill="#FFFFFF" width="5.6" height="0.5"/>
					<rect x="460.6" y="404.4" fill="#FFFFFF" width="5.6" height="0.5"/>
					<rect x="460.6" y="406" fill="#FFFFFF" width="5.6" height="0.5"/>
					<rect x="460.6" y="407.7" fill="#FFFFFF" width="5.6" height="0.5"/>
					<rect x="460.6" y="409.3" fill="#FFFFFF" width="5.6" height="0.5"/>
					<rect x="460.6" y="410.9" fill="#FFFFFF" width="5.6" height="0.5"/>
					<rect x="460.6" y="412.5" fill="#FFFFFF" width="5.6" height="0.5"/>
					<rect x="460.6" y="414.2" fill="#FFFFFF" width="5.6" height="0.5"/>
				</g>
			</g>
			<g opacity="0.7">
				<g>
					<path fill="#FFFFFF" d="M515.1,390.9c0,2.5-2.1,4.6-4.6,4.6c-2.5,0-4.6-2.1-4.6-4.6c0-2.5,2.1-4.6,4.6-4.6
						C513,386.2,515.1,388.3,515.1,390.9"/>
					<path fill="#FFFFFF" d="M510.7,395.8c0,1.6-1.3,2.9-2.9,2.9c-1.6,0-2.9-1.3-2.9-2.9c0-1.6,1.3-2.9,2.9-2.9
						C509.5,393,510.7,394.2,510.7,395.8"/>
					<path fill="#FFFFFF" d="M518,380.7c0,5-4,9-9,9c-5,0-9-4-9-9c0-5,4-9,9-9C514,371.7,518,375.7,518,380.7"/>
				</g>
				<g>
					<path fill="#FFFFFF" d="M485.9,381.5c0,1.1-0.9,2-2,2c-1.1,0-2-0.9-2-2c0-1.1,0.9-2,2-2C485,379.5,485.9,380.4,485.9,381.5"/>
					<path fill="#FFFFFF" d="M486.7,377.4c0,1.5-1.2,2.7-2.7,2.7c-1.5,0-2.7-1.2-2.7-2.7c0-1.5,1.2-2.7,2.7-2.7
						C485.5,374.7,486.7,375.9,486.7,377.4"/>
					<path fill="#FFFFFF" d="M485,384.1c0,0.6-0.5,1-1,1s-1-0.5-1-1c0-0.6,0.5-1,1-1S485,383.5,485,384.1"/>
					<path fill="#FFFFFF" d="M488.3,371.4c0,2.3-1.9,4.3-4.3,4.3c-2.3,0-4.3-1.9-4.3-4.3c0-2.3,1.9-4.3,4.3-4.3
						C486.4,367.2,488.3,369.1,488.3,371.4"/>
					<path fill="#FFFFFF" d="M496,377.2c0,2.2-1.8,3.9-3.9,3.9c-2.2,0-3.9-1.8-3.9-3.9c0-2.2,1.8-3.9,3.9-3.9
						C494.2,373.2,496,375,496,377.2"/>
					<path fill="#FFFFFF" d="M497.6,369.1c0,2.9-2.3,5.2-5.2,5.2c-2.9,0-5.2-2.3-5.2-5.2c0-2.9,2.3-5.2,5.2-5.2
						C495.2,363.9,497.6,366.2,497.6,369.1"/>
					<path fill="#FFFFFF" d="M494.2,382.2c0,1.1-0.9,2-2,2c-1.1,0-2-0.9-2-2c0-1.1,0.9-2,2-2C493.3,380.3,494.2,381.1,494.2,382.2"
						/>
					<path fill="#FFFFFF" d="M500.7,357.4c0,4.6-3.7,8.4-8.4,8.4s-8.4-3.7-8.4-8.4c0-4.6,3.7-8.4,8.4-8.4
						C497,349,500.7,352.8,500.7,357.4"/>
				</g>
				<g>
					<path fill="#FFFFFF" d="M477,351.7c0,5.1-4.1,9.2-9.2,9.2c-5.1,0-9.2-4.1-9.2-9.2c0-5.1,4.1-9.2,9.2-9.2S477,346.6,477,351.7"
						/>
					<path fill="#FFFFFF" d="M477.7,361.6c0,3.2-2.6,5.8-5.8,5.8c-3.2,0-5.8-2.6-5.8-5.8s2.6-5.8,5.8-5.8
						C475.1,355.8,477.7,358.4,477.7,361.6"/>
					<path fill="#FFFFFF" d="M475.3,340.1c0,6.9-5.6,12.5-12.5,12.5c-6.9,0-12.5-5.6-12.5-12.5c0-6.9,5.6-12.5,12.5-12.5
						C469.7,327.7,475.3,333.3,475.3,340.1"/>
					<path fill="#FFFFFF" d="M462.1,343.3c0,5.5-4.5,10-10,10c-5.5,0-10-4.5-10-10c0-5.5,4.5-10,10-10
						C457.7,333.2,462.1,337.7,462.1,343.3"/>
					<path fill="#FFFFFF" d="M464.8,323.5c0,10.7-8.7,19.4-19.4,19.4s-19.4-8.7-19.4-19.4c0-10.7,8.7-19.4,19.4-19.4
						S464.8,312.8,464.8,323.5"/>
					<path fill="#FFFFFF" d="M461.3,364.3c0,2.5-2,4.5-4.5,4.5c-2.5,0-4.5-2-4.5-4.5s2-4.5,4.5-4.5
						C459.3,359.8,461.3,361.8,461.3,364.3"/>
					<path fill="#FFFFFF" d="M461.2,370.1c0,1.5-1.3,2.8-2.8,2.8c-1.5,0-2.8-1.3-2.8-2.8c0-1.5,1.3-2.8,2.8-2.8
						C460,367.3,461.2,368.6,461.2,370.1"/>
					<path fill="#FFFFFF" d="M475.8,368.7c0,1.5-1.3,2.8-2.8,2.8c-1.5,0-2.8-1.3-2.8-2.8s1.3-2.8,2.8-2.8
						C474.5,365.9,475.8,367.1,475.8,368.7"/>
					<path fill="#FFFFFF" d="M462.1,356.6c0,3.8-3.1,6.9-6.9,6.9c-3.8,0-6.9-3.1-6.9-6.9c0-3.8,3.1-6.9,6.9-6.9
						C459,349.7,462.1,352.8,462.1,356.6"/>
				</g>
			</g>
		</g>
		<g>
			<g>
				<g>
					<path fill="#A5A7AA" d="M558.5,454.7v4.2c0,0,2.2,1.3,4.6,0.1l-0.1-4.1L558.5,454.7z"/>
					<g>
						<polygon fill="#CFD1D2" points="560.5,418.2 560.5,455.1 574.5,455.1 571.6,450.4 572.8,450.4 570,445.8 571.3,445.8 
							568.5,441.3 569.8,441.3 566.9,436.7 568.4,436.7 565.3,432 566.8,432 563.8,427.4 565.4,427.4 562.5,422.9 563.9,422.9 
													"/>
						<polygon fill="#FFFFFF" points="560.5,418.2 560.5,455.1 546.5,455.1 549.5,450.4 548.2,450.4 551.1,445.8 549.7,445.8 
							552.5,441.3 551.3,441.3 554.1,436.7 552.6,436.7 555.7,432 554.3,432 557.2,427.4 555.6,427.4 558.6,422.9 557.2,422.9 
													"/>
					</g>
				</g>
				<g>
					<g>
						<path fill="#F3743B" d="M566.7,448.2c0.9,1.5,1.9,2.9,1.6,4.8c-0.8,1.5-2,1.2-3.2,0.8c-0.5-0.2-0.9,0.2-1.3,0.4
							c-1.3,0.6-2,0.3-2-1.2c-0.6-0.3-1.3-0.4-1.3-1.2c0-1.8,2-1.2,2.7-2.2c0.5-0.1,0.7,0.4,1,0.6c1,0.7,1.8,0.3,2-0.9
							C566.2,448.9,565.7,448.1,566.7,448.2"/>
						<path fill="#F3743B" d="M554.1,450.9c0.7-1.3,1.5-2.6,0.9-4.1c1.2-0.2,0.8,1.3,1.7,1.4c0.5-0.2,1-0.2,1.5-0.3
							c0.5-0.1,0.9-0.3,1.4-0.1c0.5,0.3,0.7,0.7,0.9,1.2c0.2,0.7-0.3,1.4-0.4,2.1c-0.7,0.9-1.6,1.5-2.6,1.9c-0.1,0-0.3,0-0.4,0.1
							C555.4,453.2,554.9,451.9,554.1,450.9"/>
						<path fill="#F3743B" d="M554.1,450.9c2.3-1.2,2.4,0.8,2.9,2.1c-0.1,1,0.6,1.7,0.7,2.6c-1.6,0.8-2.1-1-3.2-1.4
							c-1.2,0.1-0.6-1.2-1.2-1.6C553.4,452,553.7,451.4,554.1,450.9"/>
						<path fill="#F3743B" d="M563,446.2c0.9-0.4-0.4-2,1.2-2c0,1.4,0,2.8,0.1,4.3c-0.1,0.1-0.3,0.3-0.4,0.4c-0.3,0.2-0.7,0.3-1,0.7
							c-1.1,1.4-2,0.9-2.7-0.5c-0.9-0.9-0.9-1.7,0.3-2.4C561.2,445.9,562.2,446.5,563,446.2"/>
						<path fill="#F3743B" d="M565.1,453.8c1-0.7,2.2-0.3,3.2-0.8c-0.9,3.9-1.6,4.7-4.8,4.8C564.8,456.7,566.1,455.7,565.1,453.8"/>
						<path fill="#F3743B" d="M561.8,438.9c0.1,1.8-1,3.4-0.8,5.2c-1.5,0.6-1.6-0.6-1.9-1.6c0.1-1,0.8-1.6,1.2-2.4
							C560.8,439.7,561.3,439.3,561.8,438.9"/>
						<path fill="#F3743B" d="M559.4,451c0.2-0.7,0.4-1.3,0.6-2c0.8,0,0.7,0.8,1.1,1.2c0.2,0.6-0.4,1.1,0,1.7
							c-0.2,0.7,0.6,0.7,0.8,1.2c-1,0.1-0.9,1.7-2.1,1.5C558.7,453.5,558.3,452.3,559.4,451"/>
						<path fill="#F3743B" d="M559.4,451c0.1,1.2,0.2,2.4,0.4,3.6c-0.9-0.4-1.8-0.7-2.3-1.6C557.6,451.8,558.1,451,559.4,451"/>
						<path fill="#F3743B" d="M553.4,452.6c0.4,0.5,0.8,1.1,1.2,1.6c-0.8,1.1,0.3,1.9,0.5,2.8c-0.2,0.1-0.3,0.2-0.5,0.3
							c-0.1-0.1-0.3-0.2-0.4-0.3C553.2,455.7,553,454.2,553.4,452.6"/>
						<path fill="#F3743B" d="M558.3,448.9c-0.7,0-1.2-0.4-1.6-0.8c0.4-1.2,0.4-2.4,0.4-3.7c0.4,0.1,0.6,0.5,0.8,0.8
							C558.7,446.4,559,447.6,558.3,448.9"/>
						<path fill="#F3743B" d="M559.1,442.5c0.6,0.5,1.3,1,1.9,1.6c0,0.1,0,0.3,0.1,0.4c-0.2,0.7-0.4,1.3-1.2,1.2
							c-0.8,0-1.1-0.6-1.2-1.3c0-0.1,0-0.2-0.1-0.3C558.7,443.6,558.9,443,559.1,442.5"/>
						<path fill="#F3743B" d="M558.3,448.9c-0.1-1.2-0.3-2.4-0.4-3.6c0.2-0.4,0.5-0.8,0.7-1.2l0.1,0c0.2,0.5,0.3,1,0.5,1.5
							c0.1,0.8,0.2,1.7-0.2,2.5C558.9,448.5,558.6,448.8,558.3,448.9"/>
						<path fill="#F3743B" d="M564,448.6c-0.2,0.4-0.3,0.7-0.5,1.1c-0.4,1.2-2,1-2.4,2.1c-0.4-0.5-0.4-1-0.4-1.6
							c-0.2-0.4-0.3-0.9,0.1-1.3c0.6,0.6,1.2,1,1.8,0.1C562.9,448.5,563.3,448.2,564,448.6"/>
						<path fill="#F3743B" d="M558.7,445.7c0-0.5,0-1.1,0-1.6c0.6,1,1.4,1.2,2.3,0.4c0.5,0.8,0.9,1.6,2,1.7c-0.7,0.4-1.3,0.7-2,1.1
							C560.2,446.9,558.5,447.7,558.7,445.7"/>
						<path fill="#F3743B" d="M558.7,445.7c0.3,0.5,0.6,1,1.4,0.7c0.7-0.2,0.9,0.3,1,0.9c-1.2,0.3-1.1,0.9-0.3,1.7
							c0,0.4-0.1,0.8-0.1,1.3c-0.2-0.4-0.4-0.8-0.7-1.2c-0.3-0.3-0.6-0.6-1-0.9C558.5,447.4,558.6,446.6,558.7,445.7"/>
					</g>
				</g>
			</g>
			<g>
				<g>
					<path fill="#A5A7AA" d="M586.3,450.4v4.4c0,0,2.3,1.4,4.8,0.1l-0.1-4.3L586.3,450.4z"/>
					<g>
						<polygon fill="#CFD1D2" points="588.4,411.9 588.4,450.8 603.1,450.8 600,445.8 601.4,445.8 598.3,441 599.8,441 596.8,436.2 
							598.2,436.2 595.1,431.4 596.7,431.4 593.5,426.4 595,426.4 591.9,421.7 593.5,421.7 590.4,416.9 591.9,416.9 						"/>
						<polygon fill="#FFFFFF" points="588.4,411.9 588.4,450.8 573.7,450.8 576.8,445.8 575.4,445.8 578.5,441 577,441 580,436.2 
							578.6,436.2 581.7,431.4 580.1,431.4 583.3,426.4 581.8,426.4 584.9,421.7 583.3,421.7 586.4,416.9 584.8,416.9 						"/>
					</g>
				</g>
				<g>
					<path fill="#2CBED0" d="M594.9,443.5c1,1.6,2,3.1,1.7,5.1c-0.8,1.5-2.1,1.3-3.4,0.9c-0.5-0.2-0.9,0.2-1.3,0.4
						c-1.3,0.7-2.1,0.3-2.1-1.2c-0.6-0.3-1.4-0.4-1.4-1.3c0-1.9,2.1-1.3,2.8-2.3c0.5-0.1,0.7,0.4,1,0.6c1,0.7,1.8,0.3,2.1-0.9
						C594.4,444.2,593.9,443.4,594.9,443.5"/>
					<path fill="#2CBED0" d="M581.6,446.4c0.7-1.4,1.5-2.7,0.9-4.4c1.3-0.2,0.8,1.4,1.8,1.4c0.5-0.3,1-0.2,1.6-0.3
						c0.5-0.1,0.9-0.3,1.4-0.1c0.5,0.3,0.7,0.7,0.9,1.2c0.2,0.8-0.3,1.5-0.4,2.2c-0.7,0.9-1.7,1.5-2.7,2c-0.1,0-0.3,0.1-0.4,0.1
						C583,448.7,582.4,447.4,581.6,446.4"/>
					<path fill="#2CBED0" d="M581.6,446.4c2.4-1.2,2.5,0.8,3.1,2.2c-0.1,1,0.6,1.8,0.8,2.8c-1.7,0.8-2.2-1-3.3-1.5
						c-1.3,0.1-0.6-1.3-1.2-1.7C580.9,447.5,581.2,446.9,581.6,446.4"/>
					<path fill="#2CBED0" d="M591,441.5c0.9-0.4-0.4-2.1,1.2-2.1c0,1.5,0,3,0.1,4.5c-0.1,0.2-0.3,0.3-0.4,0.4
						c-0.3,0.2-0.8,0.4-1,0.7c-1.2,1.4-2.1,1-2.8-0.5c-0.9-1-1-1.8,0.3-2.6C589.2,441.1,590.2,441.7,591,441.5"/>
					<path fill="#2CBED0" d="M593.2,449.5c1-0.7,2.3-0.3,3.4-0.9c-0.9,4.1-1.6,4.9-5,5.1C592.9,452.5,594.3,451.4,593.2,449.5"/>
					<path fill="#2CBED0" d="M589.7,433.7c0.2,1.9-1,3.6-0.8,5.5c-1.6,0.6-1.7-0.6-2-1.7c0.1-1,0.9-1.7,1.3-2.6
						C588.7,434.5,589.2,434.1,589.7,433.7"/>
					<path fill="#2CBED0" d="M587.2,446.5c0.2-0.7,0.4-1.4,0.6-2.1c0.9,0,0.7,0.9,1.1,1.2c0.2,0.6-0.4,1.2,0,1.8
						c-0.2,0.7,0.7,0.7,0.8,1.2c-1.1,0.1-0.9,1.8-2.2,1.6C586.4,449.1,586.1,447.8,587.2,446.5"/>
					<path fill="#2CBED0" d="M587.2,446.5c0.1,1.3,0.3,2.5,0.4,3.8c-0.9-0.4-1.9-0.8-2.4-1.7C585.3,447.3,585.8,446.5,587.2,446.5"
						/>
					<path fill="#2CBED0" d="M580.9,448.2c0.4,0.6,0.8,1.1,1.2,1.7c-0.8,1.2,0.3,2,0.5,3c-0.2,0.1-0.3,0.2-0.5,0.3
						c-0.1-0.1-0.3-0.2-0.4-0.3C580.7,451.4,580.4,449.8,580.9,448.2"/>
					<path fill="#2CBED0" d="M586,444.3c-0.7,0-1.2-0.4-1.7-0.8c0.5-1.3,0.4-2.6,0.4-3.9c0.5,0.1,0.7,0.5,0.9,0.8
						C586.5,441.6,586.8,442.9,586,444.3"/>
					<path fill="#2CBED0" d="M586.9,437.5c0.7,0.6,1.3,1.1,2,1.7c0,0.2,0,0.3,0.1,0.5c-0.2,0.7-0.5,1.3-1.3,1.3
						c-0.8,0-1.1-0.6-1.3-1.4c0-0.1,0-0.2-0.1-0.3C586.5,438.7,586.7,438.1,586.9,437.5"/>
					<path fill="#2CBED0" d="M586,444.3c-0.1-1.3-0.3-2.6-0.4-3.8c0.2-0.4,0.5-0.8,0.7-1.2l0.2,0c0.2,0.5,0.3,1.1,0.5,1.6
						c0.1,0.9,0.2,1.8-0.2,2.6C586.6,443.8,586.4,444.1,586,444.3"/>
					<path fill="#2CBED0" d="M592,444c-0.2,0.4-0.3,0.8-0.5,1.2c-0.4,1.3-2.1,1.1-2.6,2.2c-0.5-0.5-0.4-1.1-0.4-1.7
						c-0.2-0.5-0.3-0.9,0.1-1.3c0.6,0.6,1.2,1,1.9,0.1C590.9,443.8,591.3,443.5,592,444"/>
					<path fill="#2CBED0" d="M586.5,440.9c0-0.6,0-1.2,0-1.7c0.7,1.1,1.5,1.3,2.5,0.4c0.5,0.9,1,1.7,2.1,1.8
						c-0.7,0.4-1.4,0.8-2.1,1.1C588,442.2,586.3,443,586.5,440.9"/>
					<path fill="#2CBED0" d="M586.5,440.9c0.4,0.5,0.6,1.1,1.4,0.8c0.7-0.2,0.9,0.4,1.1,0.9c-1.3,0.4-1.1,1-0.3,1.8
						c0,0.4-0.1,0.9-0.1,1.3c-0.2-0.4-0.5-0.9-0.7-1.3c-0.3-0.3-0.7-0.6-1-0.9C586.3,442.7,586.4,441.8,586.5,440.9"/>
				</g>
			</g>
			<g>
				<g>
					<path fill="#A5A7AA" d="M575.6,458.2v3.4c0,0,1.8,1.1,3.7,0.1l-0.1-3.3L575.6,458.2z"/>
					<g>
						<polygon fill="#CFD1D2" points="577.2,428.9 577.2,458.5 588.4,458.5 586,454.7 587,454.7 584.7,451 585.8,451 583.6,447.4 
							584.6,447.4 582.3,443.7 583.5,443.7 581,439.9 582.2,439.9 579.8,436.3 581.1,436.3 578.7,432.6 579.9,432.6 						"/>
						<polygon fill="#FFFFFF" points="577.2,428.9 577.2,458.5 566,458.5 568.3,454.7 567.3,454.7 569.6,451 568.5,451 570.8,447.4 
							569.7,447.4 572,443.7 570.8,443.7 573.3,439.9 572.2,439.9 574.5,436.3 573.3,436.3 575.6,432.6 574.5,432.6 						"/>
					</g>
				</g>
				<g>
					<g>
						<path fill="#82BAFF" d="M582.1,452.9c0.8,1.2,1.5,2.4,1.3,3.9c-0.6,1.2-1.6,1-2.6,0.7c-0.4-0.1-0.7,0.1-1,0.3
							c-1,0.5-1.6,0.2-1.6-1c-0.4-0.2-1.1-0.3-1.1-1c0-1.4,1.6-1,2.2-1.8c0.4-0.1,0.5,0.3,0.8,0.5c0.8,0.5,1.4,0.3,1.6-0.7
							C581.8,453.5,581.4,452.9,582.1,452.9"/>
						<path fill="#82BAFF" d="M572,455.1c0.5-1,1.2-2,0.7-3.3c1-0.1,0.6,1.1,1.4,1.1c0.4-0.2,0.8-0.1,1.2-0.2
							c0.4-0.1,0.7-0.2,1.1-0.1c0.4,0.2,0.6,0.6,0.7,0.9c0.1,0.6-0.2,1.1-0.3,1.7c-0.5,0.7-1.3,1.2-2.1,1.5c-0.1,0-0.2,0-0.3,0.1
							C573.1,456.9,572.6,455.9,572,455.1"/>
						<path fill="#82BAFF" d="M572,455.1c1.8-0.9,1.9,0.6,2.4,1.7c-0.1,0.8,0.4,1.4,0.6,2.1c-1.3,0.6-1.7-0.8-2.5-1.1
							c-1,0.1-0.5-1-0.9-1.3C571.5,456,571.7,455.5,572,455.1"/>
						<path fill="#82BAFF" d="M579.2,451.4c0.7-0.3-0.3-1.6,0.9-1.6c0,1.1,0,2.3,0.1,3.4c-0.1,0.1-0.2,0.2-0.3,0.3
							c-0.3,0.2-0.6,0.3-0.8,0.5c-0.9,1.1-1.6,0.7-2.1-0.4c-0.7-0.7-0.7-1.4,0.2-2C577.8,451.1,578.5,451.6,579.2,451.4"/>
						<path fill="#82BAFF" d="M580.8,457.5c0.8-0.5,1.8-0.2,2.6-0.7c-0.7,3.2-1.2,3.8-3.8,3.9C580.6,459.8,581.7,458.9,580.8,457.5"
							/>
						<path fill="#82BAFF" d="M578.2,445.5c0.1,1.4-0.8,2.7-0.6,4.2c-1.2,0.5-1.3-0.5-1.5-1.3c0.1-0.8,0.7-1.3,1-2
							C577.4,446.1,577.8,445.8,578.2,445.5"/>
						<path fill="#82BAFF" d="M576.3,455.2c0.2-0.5,0.3-1.1,0.5-1.6c0.7,0,0.5,0.7,0.9,0.9c0.2,0.5-0.3,0.9,0,1.4
							c-0.2,0.6,0.5,0.6,0.6,0.9c-0.8,0-0.7,1.3-1.6,1.2C575.7,457.2,575.4,456.2,576.3,455.2"/>
						<path fill="#82BAFF" d="M576.3,455.2c0.1,1,0.2,1.9,0.3,2.9c-0.7-0.3-1.4-0.6-1.9-1.3C574.8,455.8,575.2,455.2,576.3,455.2"/>
						<path fill="#82BAFF" d="M571.5,456.5c0.3,0.4,0.6,0.9,0.9,1.3c-0.6,0.9,0.2,1.5,0.4,2.3c-0.1,0.1-0.3,0.2-0.4,0.3
							c-0.1-0.1-0.2-0.2-0.3-0.3C571.3,459,571.1,457.8,571.5,456.5"/>
						<path fill="#82BAFF" d="M575.4,453.5c-0.5,0-0.9-0.3-1.3-0.6c0.4-1,0.3-1.9,0.3-2.9c0.4,0.1,0.5,0.4,0.7,0.6
							C575.7,451.5,576,452.5,575.4,453.5"/>
						<path fill="#82BAFF" d="M576,448.4c0.5,0.4,1,0.8,1.5,1.3c0,0.1,0,0.2,0,0.3c-0.1,0.5-0.3,1-1,1c-0.6,0-0.9-0.5-1-1
							c0-0.1,0-0.2,0-0.3C575.7,449.2,575.9,448.8,576,448.4"/>
						<path fill="#82BAFF" d="M575.4,453.5c-0.1-1-0.2-2-0.3-2.9c0.2-0.3,0.4-0.6,0.6-0.9l0.1,0c0.1,0.4,0.2,0.8,0.4,1.2
							c0.1,0.7,0.2,1.4-0.1,2C575.8,453.2,575.7,453.4,575.4,453.5"/>
						<path fill="#82BAFF" d="M579.9,453.3c-0.1,0.3-0.3,0.6-0.4,0.9c-0.3,1-1.6,0.8-2,1.7c-0.4-0.4-0.3-0.8-0.3-1.3
							c-0.1-0.4-0.3-0.7,0.1-1c0.5,0.5,0.9,0.8,1.4,0.1C579.1,453.2,579.4,452.9,579.9,453.3"/>
						<path fill="#82BAFF" d="M575.7,451c0-0.4,0-0.9,0-1.3c0.5,0.8,1.1,1,1.9,0.3c0.4,0.7,0.7,1.3,1.6,1.4
							c-0.5,0.3-1.1,0.6-1.6,0.9C576.9,451.9,575.6,452.5,575.7,451"/>
						<path fill="#82BAFF" d="M575.7,451c0.3,0.4,0.5,0.8,1.1,0.6c0.5-0.2,0.7,0.3,0.8,0.7c-1,0.3-0.9,0.8-0.3,1.3
							c0,0.3-0.1,0.7-0.1,1c-0.2-0.3-0.4-0.7-0.5-1c-0.3-0.2-0.5-0.5-0.8-0.7C575.6,452.3,575.7,451.6,575.7,451"/>
					</g>
				</g>
			</g>
		</g>
	</g>
	<g id="pm" display="none">
		<g display="inline" opacity="0.5">
			<g>
				<path opacity="0.75" fill="#BABCBE" enable-background="new    " d="M310.2,398.3c2.6-1.4,3.9-2.2,6.5-3.6c0-6.3,0-12.7,0-19
					c-2.6,0-3.9,0-6.5,0C310.2,383.2,310.2,390.7,310.2,398.3z"/>
				<path opacity="0.75" fill="#E5E6E7" enable-background="new    " d="M300.8,393.6c-0.9,0-1.3,0-2.2,0c0-6.9,0-13.9,0-20.8
					c0.9,0,1.3,0,2.2,0C300.8,379.7,300.8,386.6,300.8,393.6z"/>
				<path opacity="0.75" fill="#CFD1D2" enable-background="new    " d="M300.8,372.7c0,6.9,0,13.9,0,20.8c-0.9,0-1.3,0-2.2,0
					c0,2.4,0,3.6,0,6c0.9,0,1.3,0,2.2,0c1.9,0,2.8,0,4.7,0c0-9,0-17.9,0-26.9C303.6,372.7,302.7,372.7,300.8,372.7z"/>
				<path opacity="0.75" fill="#CFD1D2" enable-background="new    " d="M306.6,383.1c0.9,0,1.3,0,2.2,0c0-5.2,0-10.4,0-15.6
					c1,0,1.5,0,2.5,0c0,3.1,0,4.7,0,7.8c0.5,0.6,0.8,1,1.3,1.6c0,6.3,0,12.5,0,18.8c0.4,0,0.7,0,1.1,0c0-3,0-4.6,0-7.6
					c1.4,0,2.2,0,3.6,0c0,1.2,0,1.7,0,2.9c1.6,0,2.4,0,4,0c-1.8,1-2.7,1.5-4.5,2.5c0,0.9,0,1.3,0,2.2c-3.4,1.3-6.9,2.5-10.3,3.8
					C306.6,394.1,306.6,388.6,306.6,383.1z"/>
				<path opacity="0.75" fill="#BABCBE" enable-background="new    " d="M329.9,388.9c-0.7,0-1.1,0-1.8,0c0-3.1,0-4.6,0-7.7
					c0.7,0,1.1,0,1.8,0C329.9,384.3,329.9,385.8,329.9,388.9z"/>
				<path opacity="0.75" fill="#BABCBE" enable-background="new    " d="M318.5,381.2c0,3.6,0,7.2,0,10.8c1.5,0,2.3,0,3.8,0
					c0,0.6,0,0.9,0,1.6c1.5,0,2.3,0,3.8,0c0-0.6,0-0.9,0-1.6c0-3.6,0-7.2,0-10.8C323,381.2,321.5,381.2,318.5,381.2z"/>
				<path opacity="0.75" fill="#CFD1D2" enable-background="new    " d="M340.4,355.8c0-0.5,0-0.7,0-1.2c-3.2,0-4.7,0-7.9,0
					c0,0.5,0,0.7,0,1.2c-1.1,0-1.6,0-2.6,0c0,8.2,0,16.5,0,24.7c0.3,0,0.5,0,0.8,0c0,1.2,0,1.8,0,3.1c0.3,0,0.5,0,0.8,0
					c0,5.9,0,11.8,0,17.8c1.5,0,2.3,0,3.9,0c0-5.9,0-11.8,0-17.8c0-1.2,0-1.8,0-3.1c3.2,0,4.8,0,8.1,0c0-8.2,0-16.5,0-24.7
					C342.2,355.8,341.6,355.8,340.4,355.8z"/>
				<path opacity="0.75" fill="#E5E6E7" enable-background="new    " d="M389,399.5c-2.8,0-4.2,0-7.1,0c0-6.1,0-12.2,0-18.3
					c2.8,0,4.2,0,7.1,0C389,387.3,389,393.4,389,399.5z"/>
				<path opacity="0.75" fill="#A5A7AA" enable-background="new    " d="M401.2,399.7c-2.2,0-3.3,0-5.5,0c0-10.2,0-20.3,0-30.5
					c2.2,0,3.3,0,5.5,0C401.2,379.4,401.2,389.6,401.2,399.7z"/>
				<path opacity="0.75" fill="#E5E6E7" enable-background="new    " d="M406.2,383.8c-1.6,0-2.5,0-4.1,0c0-21.7,0-43.5,0-65.2
					c1.2,0,1.8,0,2.9,0c0.1,1,0.1,1.5,0.2,2.5c0.4,0,0.6,0,1,0C406.2,342,406.2,362.9,406.2,383.8z"/>
				<path opacity="0.75" fill="#E5E6E7" enable-background="new    " d="M343.5,397.1c-3.2,1.7-4.8,2.5-8.1,4.2c0-6.9,0-13.9,0-20.8
					c3.2,0,4.8,0,8.1,0C343.5,386,343.5,391.6,343.5,397.1z"/>
				<path opacity="0.75" fill="#CFD1D2" enable-background="new    " d="M428.2,371.4c-1-3.9-2-7.8-3-11.8c0-1.5,0-2.3,0-3.8
					c-0.9,0-1.4,0-2.3,0c0-1.4,0-2.1,0-3.5c-1.1,0-1.6,0-2.7,0c0,1.9,0,2.9,0,4.8c1.7,4.7,3.3,9.5,5,14.2
					C426.3,371.4,426.9,371.4,428.2,371.4z"/>
				<path opacity="0.75" fill="#A5A7AA" enable-background="new    " d="M454.5,384.1c0-2.6,0-3.9,0-6.6c0.4,0,0.6,0,1.1,0
					c0-1.3,0-1.9,0-3.2c0.7,0,1,0,1.7,0c0-3,0-4.5,0-7.4c1,0,1.5,0,2.5,0c0,1.2,0,1.8,0,3.1c2.3,0,3.5,0,5.8,0c0,2,0,3,0,4.9
					c0.5,0,0.7,0,1.2,0c0-0.9,0-1.3,0-2.2c0.6,0,0.8,0,1.4,0c0,1.3,0,1.9,0,3.2c0.9,0,1.3,0,2.1,0c0,4.5,0,9,0,13.5
					c-4.1,0-8.1,0-12.2,0c0-2.1,0-3.2,0-5.3C456.7,384.1,455.9,384.1,454.5,384.1z"/>
				<path opacity="0.75" fill="#CFD1D2" enable-background="new    " d="M458.1,388.5c0.6,0,1,0,1.6,0c0,0.4,0,0.6,0,0.9
					c0.7,0,1,0,1.7,0c0-3.3,0-4.9,0-8.1c0.2,0,0.3,0,0.4,0c1-1.8,1.5-2.8,2.6-4.6c1.1,1.8,1.6,2.8,2.7,4.6c0.2,0,0.2,0,0.4,0
					c0,1.9,0,2.8,0,4.6c-0.4,0-0.5,0-0.9,0c0,2.8,0,4.2,0,7c-0.7,0-1.1,0-1.8,0c0,0.7,0,1,0,1.7c-0.6,0-0.9,0-1.4,0
					c0,0.3,0,0.5,0,0.8c-2.1,0-3.1,0-5.2,0C458.1,392.6,458.1,391.2,458.1,388.5z"/>
				<path opacity="0.75" fill="#E5E6E7" enable-background="new    " d="M419.6,386c0,2.5,0,3.7,0,6.2l0,0c2.4,0,3.7,0,6.1,0
					c0,2.2,0,3.3,0,5.5c3.6,0,5.4,0,9,0c0-22.4,0-44.8,0-67.2c1.5,0,2.2,0,3.7,0c0-0.9,0-1.3,0-2.1c-2.8,0-4.1,0-6.9,0
					c0,21.7,0,43.4,0,65.1c-1,0-1.5,0-2.5,0c0-6.8,0-13.5,0-20.3c-0.3,0-0.5,0-0.9,0c0-0.8,0-1.1,0-1.9c-1.2,0-1.8,0-3,0
					c0-4.2,0-6.3,0-10.5c0-1.5,0-2.2,0-3.7c-1.8,0-2.8,0-4.6,0c0,4.2,0.1,8.5,0.1,12.7c-0.4,0-0.6,0-1,0
					C419.6,375.3,419.6,380.7,419.6,386L419.6,386z"/>
				<path opacity="0.75" fill="#A5A7AA" enable-background="new    " d="M343.5,392.4c0.3,0,0.4,0,0.7,0c0-2.7,0-4.1,0-6.8
					c0.4,0,0.6,0,1.1,0c0,3.8,0,7.7,0,11.5c-0.7,0-1.1,0-1.8,0C343.5,395.3,343.5,394.3,343.5,392.4z"/>
				<path opacity="0.75" fill="#A5A7AA" enable-background="new    " d="M389,397.4c1,0,1.5,0,2.5,0c0-4.1,0-8.2,0-12.3
					c-1,0-1.5,0-2.5,0C389,389.2,389,393.3,389,397.4z"/>
				<path opacity="0.75" fill="#BABCBE" enable-background="new    " d="M348.5,374.2c0.9,0,1.3,0,2.2,0c0,0.4,0,0.6,0,1
					c0.8,0,1.2,0,2.1,0c0,0.6,0,0.9,0,1.5c0.5,0,0.8,0,1.3,0c0,1.3,0,2,0,3.3c0.2,0,0.3,0,0.5,0c0,3.3,0,5,0,8.3c-0.1,0-0.1,0-0.2,0
					c0-1.1,0-1.7,0-2.9c-0.2,0-0.3,0-0.6,0c0-1.8,0-2.8,0-4.6c-2.2,0.1-3.3,0.1-5.5,0.1C348.4,378.2,348.5,376.9,348.5,374.2z"/>
				<path opacity="0.75" fill="#E5E6E7" enable-background="new    " d="M345.8,380.8c0-1.1,0-1.7,0-2.8c0.6,0,0.8,0,1.4,0
					c0,0.6,0,0.8,0,1.4c0.6,0,0.8,0,1.4,0c0,0.6,0,0.8,0,1.4c2.1,0,3.2,0,5.3,0c0,1.8,0,2.8,0,4.6c0.2,0,0.3,0,0.6,0
					c0,1.1,0,1.7,0,2.9c-2.2,0-3.3,0-5.4,0c0-0.8,0-1.3,0-2.1c-0.4,0-0.6,0-0.9,0c0-1.5,0-2.3,0-3.9c-0.3,0-0.4,0-0.7,0
					c0-0.6,0-0.9,0-1.5C346.8,380.8,346.4,380.8,345.8,380.8z"/>
				<path opacity="0.75" fill="#CFD1D2" enable-background="new    " d="M345.8,378c0-0.8,0-1.2,0-2c0.2,0,0.3,0,0.5,0
					c0-1.6,0-2.4,0-4c0.2,0,0.3,0,0.4,0c0-0.5,0-0.8,0-1.3c0.2,0,0.4,0,0.6,0c0,0.3,0,0.4,0,0.6c0.5,0,0.7,0,1.2,0
					c0,3.2,0,4.8,0,8.1c-0.5,0-0.8,0-1.3,0c0-0.6,0-0.8,0-1.4C346.6,378,346.4,378,345.8,378z"/>
				<path opacity="0.75" fill="#A5A7AA" enable-background="new    " d="M348.5,372.7c1.3,0,2,0,3.3,0c0,1,0,1.5,0,2.5
					c-0.5,0-0.7,0-1.2,0c0-0.4,0-0.6,0-1c-0.9,0-1.3,0-2.2,0C348.5,373.6,348.5,373.3,348.5,372.7z"/>
				<path opacity="0.75" fill="#E5E6E7" enable-background="new    " d="M355.8,388.2c0-1.1,0-1.6,0-2.6c0.9,0,1.3,0,2.2,0
					c0-6.9,0-13.8,0-20.7c0.5,0,0.8,0,1.3,0c0,4.1,0,6.1,0,10.2c0.6,0,0.9,0,1.6,0c0,5.8,0,11.6,0,17.4c-1.4,0-2.1,0-3.6,0
					c0-1.7,0-2.6,0-4.4C356.7,388.2,356.4,388.2,355.8,388.2z"/>
				<path opacity="0.75" fill="#CFD1D2" enable-background="new    " d="M356.1,385.6c0.8,0,1.1,0,1.9,0c0-6.9,0-13.8,0-20.7
					c-0.8,0-1.1,0-1.9,0C356.1,371.8,356.1,378.7,356.1,385.6z"/>
				<path opacity="0.75" fill="#CFD1D2" enable-background="new    " d="M364,392.6c-0.6,0-0.9,0-1.6,0c0-5,0-10,0-15
					c0.6,0,0.9,0,1.6,0C364,382.6,364,387.6,364,392.6z"/>
				<path opacity="0.75" fill="#E5E6E7" enable-background="new    " d="M361.2,393.9c1-1,1.5-1.5,2.5-2.5c0-5,0-10,0-15
					c1.2,0,1.7,0,2.9,0c0,1.8,0,2.7,0,4.5c0.3,0,0.4,0,0.7,0c0,2.2,0,3.3,0,5.5c0.7,0,1.1,0,1.8,0c0,3.4,0,5,0,8.4
					c-0.5,0.5-0.7,0.7-1.2,1.2c-1.8,0-2.7,0-4.5,0C362.6,395.2,362.1,394.7,361.2,393.9z"/>
				<path opacity="0.75" fill="#BABCBE" enable-background="new    " d="M370.2,384.8c-1.1,0-1.7,0-2.9,0c0,0.7,0,1,0,1.7
					c0.7,0,1.1,0,1.8,0c0,3.4,0,5,0,8.4c0.4,0,0.6,0,1,0C370.2,390.8,370.2,388.8,370.2,384.8z"/>
				<path opacity="0.75" fill="#CFD1D2" enable-background="new    " d="M377.3,319.1c3.2,0,4.8,0,8,0c0,1.4,0,2.1,0,3.6
					c0.2,0,0.3,0,0.5,0c0,4.9,0,9.7,0,14.6c0.3,0,0.5,0,0.8,0c0,1.9,0,2.8,0,4.7c0.3,0,0.4,0,0.7,0c0,1.5,0,2.3,0,3.9
					c0.6,0,1,0,1.6,0c0,17.2,0,34.4,0,51.6c-1.8,0-2.7,0-4.5,0c0-4.4,0-8.8,0-13.3c-0.3,0-0.4,0-0.7,0c0-1.2,0-1.7,0-2.9
					c-0.4,0-0.6,0-1,0c-0.3,0-0.5,0-0.8,0c0-11.3,0-22.6,0-33.9c-0.5,0-0.8,0-1.3,0c0-1.8,0-2.7,0-4.5c-0.9,0-1.3,0-2.2,0
					c0-1.8,0-2.7,0-4.5c-0.3,0-0.4,0-0.7,0c0-2,0-3,0-4.9c-0.2,0-0.3,0-0.4,0C377.3,328.6,377.3,323.9,377.3,319.1z"/>
				<path opacity="0.75" fill="#E5E6E7" enable-background="new    " d="M389,399c1,0,1.6,0,2.6,0c0.5-0.5,0.7-0.7,1.1-1.1
					c3.2,0,4.8,0,7.9,0c0-2.3,0-3.5,0-5.8c-0.7,0-1.1,0-1.8,0c0,0.4,0,0.6,0,1c-0.4,0-0.6,0-1,0c0-5.4,0-10.8,0-16.2
					c-0.1,0-0.2,0-0.3,0c0-0.6,0-0.9,0-1.6c-0.5,0-0.7,0-1.2,0c0-0.5,0-0.8,0-1.3c-0.6,0-0.9,0-1.6,0c0,1.2,0,1.7,0,2.9
					c-0.6,0-1,0-1.6,0c0,5.7,0,11.3,0,17c-0.9,0-1.4,0-2.3,0c0,1.4,0,2.2,0,3.6c-0.8,0-1.2,0-2,0C389,398,389,398.3,389,399z"/>
				<path opacity="0.75" fill="#CFD1D2" enable-background="new    " d="M406.2,321.1c0.2,0,0.3,0,0.5,0c0,0.9,0,1.4,0,2.3
					c0.3,0,0.5,0,0.8,0c0,2.5,0,3.8,0,6.3c-0.3,0-0.4,0-0.6,0c0,4.6,0,9.2,0,13.8c-0.2,0-0.4,0-0.6,0
					C406.2,336,406.2,328.6,406.2,321.1z"/>
				<path opacity="0.75" fill="#A5A7AA" enable-background="new    " d="M412.2,392.3c1,0,1.5,0,2.4,0c0-5.7,0-11.3,0-17
					c-1,0-1.5,0-2.4,0C412.2,380.9,412.2,386.6,412.2,392.3z"/>
				<path opacity="0.75" fill="#E5E6E7" enable-background="new    " d="M415.7,392.3c-1.2,0-1.8,0-3,0c0-1.2,0-1.8,0-3.1
					c1.2,0,1.8,0,3,0C415.7,390.4,415.7,391,415.7,392.3z"/>
				<path opacity="0.75" fill="#CFD1D2" enable-background="new    " d="M412.7,386.2c1.2,0,1.8,0,3,0c0,1.2,0,1.8,0,2.9
					c-1.2,0-1.8,0-3,0C412.7,388,412.7,387.4,412.7,386.2z"/>
				<path opacity="0.75" fill="#BABCBE" enable-background="new    " d="M412.7,380.1c1,0,1.5,0,2.6,0c0,2.4,0,3.7,0,6.1
					c-1,0-1.5,0-2.6,0C412.7,383.8,412.7,382.6,412.7,380.1z"/>
				<path opacity="0.75" fill="#A5A7AA" enable-background="new    " d="M419.6,392.3c-1.7,0-2.6,0-4.4,0c0-4.9,0-9.8,0-14.7
					c1.7,0,2.6,0,4.4,0C419.6,382.5,419.6,387.4,419.6,392.3z"/>
				<path opacity="0.75" fill="#CFD1D2" enable-background="new    " d="M440.7,347.2c-1.1,0-1.6,0-2.7,0c0-6.3,0-12.5,0-18.8
					c0.9,0,1.4,0,2.3,0c0,2.8,0,4.1,0,6.9c0.2,0,0.2,0,0.4,0C440.7,339.3,440.7,343.3,440.7,347.2z"/>
				<path opacity="0.75" fill="#BABCBE" enable-background="new    " d="M431.3,393.6c-0.9,0-1.3,0-2.2,0c0-3.6,0-7.2,0-10.8
					c0.9,0,1.3,0,2.2,0C431.3,386.3,431.3,389.9,431.3,393.6z"/>
				<path opacity="0.75" fill="#A5A7AA" enable-background="new    " d="M449.6,386.6c-1,0-1.5,0-2.5,0c0-2.8,0-4.2,0-6.9
					c1,0,1.5,0,2.5,0C449.6,382.4,449.6,383.8,449.6,386.6z"/>
				<path opacity="0.75" fill="#BABCBE" enable-background="new    " d="M442.7,397.5c1.3,0,1.9,0,3.2,0c0-5.4,0-10.9,0-16.3
					c-1.3,0-1.9,0-3.2,0C442.7,386.7,442.7,392.1,442.7,397.5z"/>
				<path opacity="0.75" fill="#E5E6E7" enable-background="new    " d="M442.7,391.4c0.5,0,0.7,0,1.1,0c0,2.3,0,3.5,0,5.8
					c0.9,0,1.4,0,2.4,0c0-3.8,0-7.5,0-11.3c0.6,0,0.8,0,1.4,0c0-0.9,0-1.3,0-2.2c0.7,0,1,0,1.7,0c0-0.7,0-1,0-1.7c1.2,0,1.8,0,3,0
					c0,0.8,0,1.3,0,2.1c0,2.4,0,3.6,0,6c-1.6,0-2.3,0-3.9,0c0,3.3,0,4.9,0,8.2c-0.3,0-0.4,0-0.7,0c0,0.5,0,0.8,0,1.3c-2,0-3,0-5,0
					C442.7,396.4,442.7,394.7,442.7,391.4z"/>
				<path opacity="0.75" fill="#CFD1D2" enable-background="new    " d="M476.6,389.4c-1.6,0-2.4,0-4,0c0-1.4,0-2.2,0-3.6
					c1.6,0,2.4,0,4,0C476.6,387.2,476.6,387.9,476.6,389.4z"/>
				<path opacity="0.75" fill="#E5E6E7" enable-background="new    " d="M470.3,389.4c2.4,0,3.6,0,5.9,0c0-1,0-1.4,0-2.4
					c0.8,0,1.2,0,2.1,0c0,1,0,1.4,0,2.4c0.2,0,0.3,0,0.6,0c0,1,0,1.4,0,2.4c-0.7,0-1,0-1.7,0c0,1,0,1.5,0,2.5c-3.3,0-5,0-8.3,0
					c-0.6-0.8-0.9-1.2-1.4-1.9c0-1.2,0-1.8,0-3C468.6,389.4,469.2,389.4,470.3,389.4z"/>
				<path opacity="0.75" fill="#BABCBE" enable-background="new    " d="M472.6,385.8c0,0-0.1-7.8,0-7.6c0.1,0.1,2.5,0,2.5,0
					c0,2,0,3.1,0,5.1c0.6,0,0.9,0,1.5,0c0,1,0,1.5,0,2.5C475,385.8,474.2,385.8,472.6,385.8z"/>
				<g>
					<path fill="#FFFFFF" d="M478.9,391.8c-0.7,0-1,0-1.7,0c0,1,0,1.5,0,2.5c-3.3,0-5,0-8.3,0c-0.6-0.8-0.9-1.2-1.4-1.9
						c0-2.6,0-3.9,0-6.5c-0.3,0-0.5,0-0.8,0c0,1.4,0,2.1,0,3.4c0,1.4,0,2.1,0,3.5c-0.7,0-1.1,0-1.8,0c0,0.7,0,1,0,1.7
						c-0.6,0-0.9,0-1.4,0c0,0.3,0,0.5,0,0.8c-2.1,0-3.1,0-5.2,0c0-3.8,0-7.5,0-11.3c-2.4,0-3.5,0-5.9,0c0,2.4,0,3.6,0,6
						c-1.5,0-2.3,0-3.9,0c0,1.7,0,2.6,0,4.4c0,1.5,0,2.3,0,3.9c-0.3,0-0.4,0-0.7,0c0,0.5,0,0.8,0,1.3c-2,0-3,0-5,0
						c0-17.5,0-34.9,0-52.4c-1.7,0-2.6,0-4.3,0c0-5.5,0-11.1,0-16.6c-1.5,0-2.2,0-3.7,0c0,22.4,0,44.8,0,67.2c-3.5,0-5.3,0-8.8,0
						c-0.3-11.2-0.6-22.3-0.9-33.5c-1.1,0-1.6,0-2.7,0c0,7.3,0,14.5,0,21.8c-1.9,0-2.8,0-4.7,0c0,2.5,0,3.7,0,6.2c-2.4,0-3.6,0-6,0
						c0-15.5,0-30.9,0-46.4c-0.2,0-0.3,0-0.5,0c0-1,0-1.5,0-2.4c-0.3,0-0.4,0-0.7,0c0-4.6,0-9.2,0-13.8c-1.4,0-2.2,0-3.6,0
						c0,4.6,0,9.2,0,13.8c-0.2,0-0.4,0-0.6,0c0,10.4,0,20.8,0,31.3c-0.4,0-0.6,0-0.9,0c0-9.1,0-18.3,0-27.4c-0.5,0-0.7,0-1.2,0
						c0-5.8,0-11.6,0-17.4c-0.7-0.2-1.1-0.4-1.8-0.6c0-2.7,0-4,0-6.6c-0.4,0-0.6,0-1,0c0,25.7,0,51.4,0,77c-0.2,0-0.4,0-0.6,0
						c0-0.8,0-1.3,0-2.1c-3.3,0-4.9,0-8.1,0c-0.4,0.5-0.6,0.8-0.9,1.3c-2.3,0-3.4,0-5.6,0c-0.8,0-1.2,0-1.9,0c-0.5,0-0.8,0-1.3,0
						c0-5.9,0-11.8,0-17.8c-0.3,0-0.5,0-0.8,0c0-11.3,0-22.6,0-33.9c-0.5,0-0.8,0-1.3,0c0-1.8,0-2.7,0-4.5c-0.9,0-1.3,0-2.2,0
						c0-1.8,0-2.7,0-4.5c-0.3,0-0.4,0-0.7,0c0-2,0-3,0-5c-0.2,0-0.3,0-0.4,0c0-4.7,0-9.5,0-14.2c-0.6,0-0.9,0-1.4,0
						c0,4.9,0,9.9,0,14.8c-0.6,0-1,0-1.6,0c0,1.3,0,2,0,3.3c-0.7,0-1.1,0-1.8,0c0,18.3,0,36.6,0,54.9c-0.5,0-0.8,0-1.3,0
						c0,1.1,0,1.7,0,2.9c-0.7,0-1.1,0-1.8,0c-0.5,0.5-0.8,0.8-1.3,1.3c-1.8,0-2.7,0-4.5,0c-1-1-1.6-1.6-2.6-2.6c0-0.4,0-0.6,0-1
						c-1.4,0-2.2,0-3.6,0c0-1.7,0-2.6,0-4.4c-3.3,0-5,0-8.3,0c0-0.8,0-1.3,0-2.1c-0.4,0-0.6,0-0.9,0c0-1.5,0-2.3,0-3.9
						c-0.3,0-0.4,0-0.7,0c0-0.6,0-0.9,0-1.5c-0.6,0-1,0-1.6,0c0,0.2,0,0.3,0,0.5c0,5.3,0,10.6,0,15.9c-0.9,0-1.4,0-2.4,0
						c-3.2,1.7-4.8,2.5-8.1,4.2c-1.5,0-2.3,0-3.9,0c0-5.9,0-11.8,0-17.8c-0.3,0-0.5,0-0.8,0c0-1.2,0-1.8,0-3.1c-0.3,0-0.5,0-0.8,0
						c0,3.4,0,5,0,8.4c-1,0-1.4,0-2.4,0c0,1.2,0,1.8,0,3.1c-0.6,0-0.8,0-1.4,0c0,0.6,0,0.9,0,1.6c-1.5,0-2.3,0-3.8,0
						c0-0.6,0-0.9,0-1.6c-1,0-1.5,0-2.5,0c-1.1,0.6-1.7,0.9-2.9,1.6c0,0.9,0,1.3,0,2.2c-3.4,1.3-6.9,2.5-10.3,3.8
						c-3.2,0-4.8,0-8.1,0c0,2,0,3,0,5c60.1,0,120.2,0,180.3,0c0-2.1,0-3.1,0-5.2C478.9,396.3,478.9,394.8,478.9,391.8z"/>
				</g>
			</g>
		</g>
	</g>
	<g id="ozone">
		<g opacity="0.7">
			<path fill="#FFFFFF" d="M491.7,237.2c0.1-0.3,0.3-0.6,0.6-0.8c0.4-0.3,0.8-0.7,1.2-1.1c1.6-1.3,3.5-2,5.5-2
				c1.6-0.1,3.1,0,4.7,0.1c5.6,0.2,11.3,0.4,16.9,0.6c2.8,0.1,5.7,0.2,8.5,0.3c2.1,0,3.9-0.7,5.4-2.2c2.1-2.1,4.2-4.1,6.3-6.2
				c0.1-0.1,0.2-0.2,0.3-0.3c0.3-0.3,0.7-0.5,1.1-0.5c1,0,2.1,0.1,3.2,0.1c-1.4,3.4-2.9,6.9-4.3,10.3c0.2,0,0.4,0.1,0.5,0.1
				c0.8,0.1,1.6,0.3,2.3,0.5c0.5,0.1,1,0.2,1.5,0.2c0.5,0,1,0,1.5,0.1c-0.1,0-0.1,0-0.2,0.1c-0.6,0.2-1.2,0.3-1.9,0.5
				c-0.2,0-0.2,0.1-0.2,0.3c0,0.2,0.1,0.5-0.1,0.7c-0.1,0.1-0.4,0.1-0.6,0.2c-4,0.8-8,1.6-12.1,2.4c-0.9,0.2-1.8,0.2-2.7,0.3
				c-3.2,0.3-6.4,0.1-9.7,0c-0.2,0-0.3,0-0.4,0.1c-0.1,0.1-0.2,0.1-0.3,0.1c-0.9,0-1.8,0-2.7-0.1c-0.1,0-0.2,0-0.2-0.1
				c-0.1-0.2-0.3-0.2-0.4-0.2c-0.5,0.1-1.1,0.2-1.6,0.3c0,0-0.1,0-0.1,0c-0.4,0.3-0.8,0.2-1.3,0.2c-0.9,0-1.8-0.1-2.8-0.1
				c-0.6,0-0.9-0.2-1.1-0.9c-0.5,0-1,0-1.5,0c-3.6-0.2-7.1-0.4-10.7-0.6c-1.3-0.1-2.5-0.4-3.7-0.9c-0.5-0.2-0.9-0.4-1.1-0.9
				C491.6,237.5,491.6,237.4,491.7,237.2z"/>
		</g>
		<g>
			<path fill="#FFFFFF" d="M523.1,274.2c0.1-1.3,1.3-3.2,3.1-4.2c3.4-1.8,6.6-1.8,6.6-1.8s0.2-0.3,1.4-0.7c1.2-0.4,2,0,2,0
				s2.6-1.1,3.5-1.4c1.4-0.5,3.3,0.3,3.3,0.3s1.2-1.2,2.7-1.3c1.6-0.1,2.4,1.1,2.4,1.1s0.5-0.6,1.9-0.8c1.4-0.2,2.2,0.7,2.2,0.7
				s0.7-0.6,1.9-0.3c1.2,0.3,1.8,0.5,1.8,0.5s0.3-0.6,1.8-0.4s1.9,1.2,1.9,1.2s0.7-0.4,1.5-0.4c1.2,0,1.6,1.2,1.6,1.2
				s0.8-0.3,1.4,0.2c0.7,0.5,1.6,1.7,1.6,1.7s0.6-0.2,2.7,0.8c2.1,1,3.6,2.3,3.5,3.9s-1.2,2.7-1.2,2.7s-0.6,0.4-1.5,0.8
				c-0.9,0.4-2.8-0.5-4.2-1.2s-3-4.3-3-4.3s-1.7,0.2-2.8,0.3c-1.1,0.1-2.9-1.1-2.9-1.1s-2.1,0.8-3.5,0.6c-1.4-0.2-3-1.1-3-1.1
				s-1.6,1.5-3.1,1.5c-1.4,0-2.7-1-2.7-1s-1.8,1.1-3.3,1.5c-1.6,0.4-2.9-0.3-2.9-0.3s-1.7,1.7-2.4,2.2c-0.8,0.5-3,0.9-3,0.9
				s-1.3,2-2.6,2.6c-1.2,0.6-2.8,0.3-2.8,0.3l-1.5-0.4l-1.8-1.5C523.8,276.9,523.1,275.5,523.1,274.2z"/>
			<g>
				<polyline fill="none" stroke="#FFFFFF" stroke-miterlimit="10" points="569.4,277.4 549,304.6 527.7,278.6 				"/>
				<polyline fill="none" stroke="#FFFFFF" stroke-miterlimit="10" points="564.8,274.8 549,304.6 566.6,276.9 				"/>
				<polyline fill="none" stroke="#FFFFFF" stroke-miterlimit="10" points="560.1,271.9 549,304.6 563.3,272.7 				"/>
				<polyline fill="none" stroke="#FFFFFF" stroke-miterlimit="10" points="552.8,271.4 549,304.6 556.5,270.8 				"/>
				<polyline fill="none" stroke="#FFFFFF" stroke-miterlimit="10" points="547,271.8 549,304.6 549.8,270.8 				"/>
				<polyline fill="none" stroke="#FFFFFF" stroke-miterlimit="10" points="539.8,272.2 549,304.6 543.5,271.4 				"/>
				<polyline fill="none" stroke="#FFFFFF" stroke-miterlimit="10" points="533.4,275.6 549,304.6 536.2,273.6 				"/>
				<line fill="none" stroke="#FFFFFF" stroke-miterlimit="10" x1="530.8" y1="277" x2="549" y2="304.6"/>
			</g>
			<path fill="#FFFFFF" d="M546.4,299.8l-1.7,3.6v0.8l0.3,0.4l1.7,2.6v0.4l-0.9,2l1.7,1.3v1.7v1.9l-0.8,3.3v0.9v0.8l0.7,0.3l0.4-0.8
				v-1l1.9-5.7l1.1,1l0.7,3l1.2,2.2v0.3v0.8h0.8h0.7l0.4-0.8v-0.4L554,318l-0.7-1.7l-2.5-6.3l-0.5-1.2l0.3-1l1.3-2.5l0.9-1.1
				l-0.4-0.8l-0.8-1.4l-1.2-2c0,0-0.8-0.7-1.1-0.4c-0.3,0.3,1.3,2.2,1.3,2.2l0.4,1l0.3,0.8l-0.4,0.8l-0.6,0.2l-0.7,0.3l-0.7,0.1
				v-0.8l0.3-0.4l-0.4-0.4l-0.4,0.1l-0.5,0l-0.5,0.3v0.4l-0.3,0.4l-0.2-0.4l-0.5-0.9l0-0.4c0,0-0.3-0.2-0.1-0.6c0.3-0.4,1-2.7,1-2.7
				s0.4,0,0-0.4C547,298.9,546.4,299.8,546.4,299.8z"/>
		</g>
		<g>
			<path fill="#FFFFFF" d="M492.7,471.9c0.1-1.4,1.5-3.6,3.4-4.7c3.8-2.1,7.4-2.1,7.4-2.1s0.2-0.4,1.6-0.8c1.3-0.4,2.3,0,2.3,0
				s2.9-1.2,3.9-1.6c1.5-0.6,3.7,0.3,3.7,0.3s1.3-1.3,3.1-1.4c1.7-0.1,2.6,1.3,2.6,1.3s0.6-0.7,2.1-0.9c1.6-0.2,2.5,0.8,2.5,0.8
				s0.8-0.6,2.1-0.3c1.3,0.3,2,0.5,2,0.5s0.4-0.6,2-0.4s2.1,1.3,2.1,1.3s0.8-0.4,1.7-0.4c1.3,0,1.8,1.3,1.8,1.3s0.9-0.3,1.6,0.2
				c0.8,0.6,1.7,1.9,1.7,1.9s0.7-0.3,3,0.8c2.3,1.1,4,2.5,3.9,4.3c-0.1,1.8-1.4,3-1.4,3s-0.7,0.4-1.6,0.9c-1,0.5-3.1-0.5-4.6-1.3
				c-1.6-0.8-5.7,0.2-5.7,0.2s-1.9,0.2-3.1,0.3c-1.2,0.1-3.2-1.2-3.2-1.2s-2.3,0.9-3.9,0.7c-1.6-0.2-2.7,0.3-2.7,0.3s-2.4,0.1-4,0.1
				c-1.6,0-3.8-0.3-3.8-0.3s-0.4-0.4-2.1,0.1c-1.7,0.4-4,0.5-4,0.5s-0.3,0.3-1.1,0.8c-0.8,0.5-3.3,1-3.3,1s-0.6-1.1-2-0.5
				c-1.3,0.6-3.2,0.4-3.2,0.4l-1.7-0.4l-2.1-1.7C493.5,474.9,492.7,473.3,492.7,471.9z"/>
			<path fill="#FFFFFF" d="M528.7,491.9l-2.7,5.9v1.2l0.4,0.6l2.7,4.3v0.7l-1.6,3.2l2.7,2.1v2.8v3.1l-1.1,5.4v1.5v1.2l1.2,0.4
				l0.7-1.2v-1.7l3.1-9.2l1.8,1.6l1.2,4.9l2,3.5v0.5v1.5h1.3h1.1l0.6-1.5V522l-1-0.5l-1.1-2.8l-4.1-10.3l-0.8-2l0.4-1.7l2.1-4
				l1.4-1.8l-0.7-1.3l-1.2-2.3l-2-3.2c0,0-1.3-1.1-1.7-0.6c-0.4,0.5,2.1,3.5,2.1,3.5l0.7,1.6l0.4,1.3l-0.6,1.3l-0.9,0.4l-1.1,0.5
				l-1.1,0.1V499l0.5-0.6l-0.7-0.6l-0.7,0.1l-0.8,0l-0.9,0.5v0.6l-0.5,0.6l-0.2-0.6l-0.7-1.5l-0.1-0.7c0,0-0.5-0.3-0.1-0.9
				c0.5-0.6,1.7-4.3,1.7-4.3s0.6-0.1,0-0.7C529.6,490.3,528.7,491.9,528.7,491.9z"/>
		</g>
		<g>
			<circle fill="#FFFFFF" cx="584.1" cy="201" r="12.7"/>
			<g>
				<polygon fill="#FFFFFF" points="584.1,183.4 584.1,183.4 584.1,183.4 584.1,183.4 584.1,183.4 586.8,186.1 584.1,186.1 
					584.1,186.1 581.3,186.1 				"/>
				<polygon fill="#FFFFFF" points="584.1,219.6 584.1,219.6 584.1,219.6 584.1,219.6 584.1,219.6 586.8,216.9 584.1,216.9 
					584.1,216.9 581.3,216.9 				"/>
			</g>
			<g>
				<polygon fill="#FFFFFF" points="575,185.8 575,185.8 575,185.8 575,185.8 575,185.8 578.8,186.8 576.4,188.2 576.4,188.2 
					574,189.6 				"/>
				<polygon fill="#FFFFFF" points="593.1,217.2 593.1,217.2 593.1,217.2 593.2,217.2 593.1,217.2 594.1,213.4 591.8,214.8 
					591.7,214.8 589.4,216.2 				"/>
			</g>
			<g>
				<polygon fill="#FFFFFF" points="568.4,192.5 568.4,192.4 568.4,192.4 568.4,192.4 568.4,192.4 572.2,191.4 570.8,193.8 
					570.8,193.8 569.4,196.2 				"/>
				<polygon fill="#FFFFFF" points="599.7,210.6 599.8,210.6 599.8,210.6 599.8,210.6 599.8,210.5 598.8,206.8 597.4,209.2 
					597.4,209.2 596,211.6 				"/>
			</g>
			<g>
				<polygon fill="#FFFFFF" points="566,201.5 565.9,201.5 566,201.5 565.9,201.5 566,201.5 568.7,198.7 568.7,201.5 568.7,201.5 
					568.7,204.3 				"/>
				<polygon fill="#FFFFFF" points="602.2,201.5 602.2,201.5 602.2,201.5 602.2,201.5 602.2,201.5 599.4,198.7 599.4,201.5 
					599.4,201.5 599.4,204.3 				"/>
			</g>
			<g>
				<polygon fill="#FFFFFF" points="568.4,210.6 568.4,210.6 568.4,210.6 568.4,210.6 568.4,210.5 569.4,206.8 570.8,209.2 
					570.8,209.2 572.2,211.6 				"/>
				<polygon fill="#FFFFFF" points="599.8,192.5 599.8,192.4 599.8,192.4 599.8,192.4 599.7,192.4 596,191.4 597.4,193.8 
					597.4,193.8 598.8,196.2 				"/>
			</g>
			<g>
				<polygon fill="#FFFFFF" points="575,217.2 575,217.2 575,217.2 575,217.2 575,217.2 574,213.4 576.4,214.8 576.4,214.8 
					578.8,216.2 				"/>
				<polygon fill="#FFFFFF" points="593.1,185.8 593.2,185.8 593.1,185.8 593.1,185.8 593.1,185.8 589.4,186.8 591.7,188.2 
					591.8,188.2 594.1,189.6 				"/>
			</g>
		</g>
	</g>
</g>
<g id="sidebar">
	<rect x="14.5" y="217.8" opacity="0.6" fill="#999999" enable-background="new    " width="178.6" height="317.5"/>
	<rect x="184.4" y="225.8" opacity="0.6" fill="#FFFFFF" enable-background="new    " width="5.7" height="88.7"/>
	<rect x="23.9" y="226" fill="none" width="153.6" height="305.4"/>
	<text transform="matrix(1 0 0 1 23.9064 230.1046)" fill="#FFFFFF" font-family="'Helvetica'" font-size="5.7375">Lorem ipsum dolor sit amet, consectetur adipiscing elit. Nam </text>
	<text transform="matrix(1 0 0 1 23.9064 236.9895)" fill="#FFFFFF" font-family="'Helvetica'" font-size="5.7375">venenatis, eros tempus laoreet porta, est ipsum tempor </text>
	<text transform="matrix(1 0 0 1 23.9064 243.8741)" fill="#FFFFFF" font-family="'Helvetica'" font-size="5.7375">ligula, ac aliquet arcu augue sed ex. Aliquam ultricies ac elit </text>
	<text transform="matrix(1 0 0 1 23.9064 250.7587)" fill="#FFFFFF" font-family="'Helvetica'" font-size="5.7375">vitae ornare. In hac habitasse platea dictumst. Maecenas </text>
	<text transform="matrix(1 0 0 1 23.9064 257.6447)" fill="#FFFFFF" font-family="'Helvetica'" font-size="5.7375">nec lacus risus. Etiam in cursus lectus. Sed euismod leo at </text>
	<text transform="matrix(1 0 0 1 23.9064 264.5292)" fill="#FFFFFF" font-family="'Helvetica'" font-size="5.7375">tortor faucibus, a pretium risus dapibus. Phasellus </text>
	<text transform="matrix(1 0 0 1 23.9064 271.4141)" fill="#FFFFFF" font-family="'Helvetica'" font-size="5.7375">condimentum tellus sed euismod sollicitudin. Nullam rutrum, </text>
	<text transform="matrix(1 0 0 1 23.9064 278.2987)" fill="#FFFFFF" font-family="'Helvetica'" font-size="5.7375">nunc quis elementum pellentesque, odio diam semper </text>
	<text transform="matrix(1 0 0 1 23.9064 285.1837)" fill="#FFFFFF" font-family="'Helvetica'" font-size="5.7375">massa, a aliquet odio nulla non lacus. Integer vel dui mi.</text>
	<text transform="matrix(1 0 0 1 23.9064 298.9542)" fill="#FFFFFF" font-family="'Helvetica'" font-size="5.7375">Sed magna purus, suscipit id malesuada eu, ultrices ut </text>
	<text transform="matrix(1 0 0 1 23.9064 305.8388)" fill="#FFFFFF" font-family="'Helvetica'" font-size="5.7375">nulla. Nulla dui mi, iaculis vel rutrum vitae, viverra vel nibh. </text>
	<text transform="matrix(1 0 0 1 23.9064 312.7237)" fill="#FFFFFF" font-family="'Helvetica'" font-size="5.7375">Praesent vitae turpis ac neque vehicula tincidunt. Morbi </text>
	<text transform="matrix(1 0 0 1 23.9064 319.6093)" fill="#FFFFFF" font-family="'Helvetica'" font-size="5.7375">vulputate velit nec ex pulvinar venenatis. Duis elementum </text>
	<text transform="matrix(1 0 0 1 23.9064 326.4943)" fill="#FFFFFF" font-family="'Helvetica'" font-size="5.7375">venenatis mollis. Vestibulum vitae nisl ac purus lacinia </text>
	<text transform="matrix(1 0 0 1 23.9064 333.3789)" fill="#FFFFFF" font-family="'Helvetica'" font-size="5.7375">mollis bibendum id augue. Nullam sit amet risus efficitur, </text>
	<text transform="matrix(1 0 0 1 23.9064 340.2638)" fill="#FFFFFF" font-family="'Helvetica'" font-size="5.7375">fringilla lectus ut, suscipit dolor. Nulla facilisi. Pellentesque </text>
	<text transform="matrix(1 0 0 1 23.9064 347.1494)" fill="#FFFFFF" font-family="'Helvetica'" font-size="5.7375">vestibulum dolor quis accumsan egestas. Praesent </text>
	<text transform="matrix(1 0 0 1 23.9064 354.0343)" fill="#FFFFFF" font-family="'Helvetica'" font-size="5.7375">vulputate ex nec purus tincidunt, sed laoreet est facilisis. </text>
	<text transform="matrix(1 0 0 1 23.9064 360.919)" fill="#FFFFFF" font-family="'Helvetica'" font-size="5.7375">Cras aliquam leo sit amet ornare gravida. Suspendisse </text>
	<text transform="matrix(1 0 0 1 23.9064 367.8039)" fill="#FFFFFF" font-family="'Helvetica'" font-size="5.7375">semper, est id iaculis sodales, augue nunc pharetra lorem, </text>
	<text transform="matrix(1 0 0 1 23.9064 374.6895)" fill="#FFFFFF" font-family="'Helvetica'" font-size="5.7375">ut cursus ex lorem rutrum mauris. Phasellus ut cursus mi. In </text>
	<text transform="matrix(1 0 0 1 23.9064 381.5744)" fill="#FFFFFF" font-family="'Helvetica'" font-size="5.7375">hac habitasse platea dictumst. Donec sagittis lectus est, a </text>
	<text transform="matrix(1 0 0 1 23.9064 388.4591)" fill="#FFFFFF" font-family="'Helvetica'" font-size="5.7375">commodo est faucibus in. Donec turpis quam, pharetra non </text>
	<text transform="matrix(1 0 0 1 23.9064 395.344)" fill="#FFFFFF" font-family="'Helvetica'" font-size="5.7375">mauris at, tempor imperdiet nunc.</text>
	<text transform="matrix(1 0 0 1 23.9064 409.1145)" fill="#FFFFFF" font-family="'Helvetica'" font-size="5.7375">Nunc efficitur eros rhoncus massa venenatis posuere. </text>
	<text transform="matrix(1 0 0 1 23.9064 415.9991)" fill="#FFFFFF" font-family="'Helvetica'" font-size="5.7375">Mauris luctus elit lacus, luctus ultricies nisl eleifend et. </text>
	<text transform="matrix(1 0 0 1 23.9064 422.8837)" fill="#FFFFFF" font-family="'Helvetica'" font-size="5.7375">Aliquam at lorem porta tellus blandit egestas. Nam lobortis </text>
	<text transform="matrix(1 0 0 1 23.9064 429.7697)" fill="#FFFFFF" font-family="'Helvetica'" font-size="5.7375">ullamcorper ligula, sit amet ornare est. Suspendisse potenti. </text>
	<text transform="matrix(1 0 0 1 23.9064 436.6542)" fill="#FFFFFF" font-family="'Helvetica'" font-size="5.7375">Nunc porta ante arcu, id tempor tortor tristique eget. Proin </text>
	<text transform="matrix(1 0 0 1 23.9064 443.5391)" fill="#FFFFFF" font-family="'Helvetica'" font-size="5.7375">pulvinar molestie ex, a cursus risus rhoncus imperdiet. </text>
	<text transform="matrix(1 0 0 1 23.9064 450.4237)" fill="#FFFFFF" font-family="'Helvetica'" font-size="5.7375">Pellentesque eget est orci. Nam tortor lacus, vehicula et </text>
	<text transform="matrix(1 0 0 1 23.9064 457.3087)" fill="#FFFFFF" font-family="'Helvetica'" font-size="5.7375">dapibus sed, scelerisque et nisi. Etiam in fermentum urna, </text>
	<text transform="matrix(1 0 0 1 23.9064 464.1943)" fill="#FFFFFF" font-family="'Helvetica'" font-size="5.7375">quis viverra metus. Suspendisse mollis laoreet turpis, a </text>
	<text transform="matrix(1 0 0 1 23.9064 471.0792)" fill="#FFFFFF" font-family="'Helvetica'" font-size="5.7375">mattis nisl eleifend id. Maecenas molestie tempor odio, quis </text>
	<text transform="matrix(1 0 0 1 23.9064 477.9638)" fill="#FFFFFF" font-family="'Helvetica'" font-size="5.7375">commodo dolor tempor eu.</text>
	<text transform="matrix(1 0 0 1 23.9064 491.7343)" fill="#FFFFFF" font-family="'Helvetica'" font-size="5.7375">Quisque erat nisi, placerat sit amet dui non, blandit dictum </text>
	<text transform="matrix(1 0 0 1 23.9064 498.6193)" fill="#FFFFFF" font-family="'Helvetica'" font-size="5.7375">eros. Pellentesque pretium ex vitae vehicula sodales. </text>
	<text transform="matrix(1 0 0 1 23.9064 505.5039)" fill="#FFFFFF" font-family="'Helvetica'" font-size="5.7375">Integer lacinia gravida sem, at lobortis libero tempor ut. </text>
	<text transform="matrix(1 0 0 1 23.9064 512.3888)" fill="#FFFFFF" font-family="'Helvetica'" font-size="5.7375">Nunc id fermentum diam. Donec et nibh diam. Nam a </text>
	<text transform="matrix(1 0 0 1 23.9064 519.2744)" fill="#FFFFFF" font-family="'Helvetica'" font-size="5.7375">lobortis eros. Maecenas tempor facilisis posuere. Fusce vel </text>
	<text transform="matrix(1 0 0 1 23.9064 526.1594)" fill="#FFFFFF" font-family="'Helvetica'" font-size="5.7375">dui eros. Etiam pharetra bibendum convallis.</text>
</g>
<g id="right_x5F_drop_down">
	<g>
		<polygon fill="#FFFFFF" points="264,266.6 258.4,260.9 252.7,266.6 		"/>
		<polygon fill="#FFFFFF" points="264,339.5 258.4,333.8 252.7,339.5 		"/>
		<polygon fill="#FFFFFF" points="264,411.2 258.4,405.5 252.7,411.2 		"/>
		<polygon fill="#FFFFFF" points="264,482.9 258.4,477.2 252.7,482.9 		"/>
	</g>
</g>
<g id="right_bar">
	<g>
		<g>
			<g>
				<path fill="#CFDD57" d="M225,255.7V254c0.8,0,1.4-0.1,1.7-0.2c0.5-0.1,0.9-0.3,1.3-0.7c0.2-0.2,0.4-0.5,0.5-0.9
					c0.1-0.2,0.1-0.4,0.1-0.5h2.1v13h-2.6v-9L225,255.7L225,255.7z"/>
			</g>
		</g>
		<g>
			<g>
				<path fill="#CFDD57" d="M233.9,477.6h-1.5v2.8h-2.5v-2.8h-5.1v-2.2l4.8-7.9h2.9v8.1h1.5V477.6z M229.9,475.6V470l-3.2,5.6H229.9
					z"/>
			</g>
		</g>
		<g>
			<g>
				<path fill="#CFDD57" d="M225.2,334.1c0.4-0.9,1.2-1.8,2.6-2.8c1.2-0.8,1.9-1.4,2.3-1.8c0.5-0.6,0.8-1.2,0.8-1.9
					c0-0.6-0.2-1-0.5-1.4c-0.3-0.4-0.7-0.5-1.3-0.5c-0.8,0-1.3,0.3-1.6,0.9c-0.2,0.3-0.3,0.9-0.3,1.6h-2.5c0-1.1,0.2-2,0.6-2.7
					c0.7-1.3,1.9-1.9,3.6-1.9c1.4,0,2.5,0.4,3.3,1.1c0.8,0.8,1.2,1.8,1.2,3c0,1-0.3,1.8-0.9,2.6c-0.4,0.5-1,1-1.9,1.7l-1,0.7
					c-0.6,0.5-1.1,0.8-1.3,1c-0.2,0.2-0.4,0.4-0.6,0.7h5.7v2.3h-8.9C224.6,335.7,224.8,334.8,225.2,334.1z"/>
			</g>
		</g>
		<g>
			<g>
				<path fill="#CFDD57" d="M227,404.4c0,0.5,0.1,0.9,0.3,1.3c0.3,0.6,0.9,0.9,1.7,0.9c0.5,0,0.9-0.2,1.3-0.5
					c0.4-0.3,0.6-0.8,0.6-1.5c0-0.9-0.3-1.4-1-1.7c-0.4-0.2-1-0.2-1.9-0.2v-1.8c0.8,0,1.4-0.1,1.7-0.2c0.6-0.3,0.8-0.8,0.8-1.5
					c0-0.5-0.1-0.9-0.4-1.2c-0.3-0.3-0.7-0.5-1.2-0.5c-0.6,0-1,0.2-1.3,0.6c-0.3,0.4-0.4,0.9-0.4,1.5h-2.4c0-0.6,0.1-1.3,0.3-1.8
					c0.2-0.5,0.5-1,1-1.4c0.3-0.3,0.7-0.5,1.2-0.7c0.5-0.2,1-0.2,1.7-0.2c1.2,0,2.2,0.3,3,1c0.8,0.6,1.1,1.5,1.1,2.6
					c0,0.8-0.2,1.4-0.7,1.9c-0.3,0.3-0.6,0.6-0.9,0.7c0.2,0,0.6,0.2,1,0.6c0.7,0.6,1,1.4,1,2.5c0,1.1-0.4,2.1-1.1,2.9
					c-0.8,0.8-1.9,1.3-3.4,1.3c-1.8,0-3.1-0.6-3.8-1.8c-0.4-0.6-0.6-1.5-0.6-2.5L227,404.4L227,404.4z"/>
			</g>
		</g>
	</g>
	<g>
		<rect x="252.6" y="257.7" opacity="0.8" fill="#44CFE1" enable-background="new    " width="100.2" height="44.6"/>
		<rect x="256.1" y="263.3" fill="none" width="90.1" height="35"/>
		<text transform="matrix(1 0 0 1 256.0656 266.8995)" fill="#FFFFFF" font-family="'Helvetica'" font-size="4.9725">WORD WORDS  WORD WORDS </text>
		<text transform="matrix(1 0 0 1 256.0656 272.8673)" fill="#FFFFFF" font-family="'Helvetica'" font-size="4.9725">WORD WORDS WORD WORDS </text>
		<text transform="matrix(1 0 0 1 256.0656 278.834)" fill="#FFFFFF" font-family="'Helvetica'" font-size="4.9725">WORD WORDS WORD WORDS </text>
		<text transform="matrix(1 0 0 1 256.0656 284.8008)" fill="#FFFFFF" font-family="'Helvetica'" font-size="4.9725">WORD WORDS WORD WORDS </text>
		<text transform="matrix(1 0 0 1 256.0656 290.7676)" fill="#FFFFFF" font-family="'Helvetica'" font-size="4.9725">WORD WORDS WORD WORDS </text>
		<text transform="matrix(1 0 0 1 256.0656 296.7344)" fill="#FFFFFF" font-family="'Helvetica'" font-size="4.9725">WORD WORDS WORD WORD </text>
		<rect x="252.6" y="474.7" opacity="0.8" fill="#0A7392" enable-background="new    " width="100.2" height="44.6"/>
		<rect x="256.1" y="478.3" fill="none" width="90.1" height="35"/>
		<text transform="matrix(1 0 0 1 256.0656 481.8517)" fill="#FFFFFF" font-family="'Helvetica'" font-size="4.9725">WORD WORDS  WORD WORDS </text>
		<text transform="matrix(1 0 0 1 256.0656 487.8186)" fill="#FFFFFF" font-family="'Helvetica'" font-size="4.9725">WORD WORDS WORD WORDS </text>
		<text transform="matrix(1 0 0 1 256.0656 493.7853)" fill="#FFFFFF" font-family="'Helvetica'" font-size="4.9725">WORD WORDS WORD WORDS </text>
		<text transform="matrix(1 0 0 1 256.0656 499.7521)" fill="#FFFFFF" font-family="'Helvetica'" font-size="4.9725">WORD WORDS WORD WORDS </text>
		<text transform="matrix(1 0 0 1 256.0656 505.7199)" fill="#FFFFFF" font-family="'Helvetica'" font-size="4.9725">WORD WORDS WORD WORDS </text>
		<text transform="matrix(1 0 0 1 256.0656 511.6866)" fill="#FFFFFF" font-family="'Helvetica'" font-size="4.9725">WORD WORDS WORD WORD </text>
		<rect x="252.7" y="246.8" fill="none" width="142.3" height="29.1"/>
		
			<text transform="matrix(1 0 0 1 252.6835 252.2764)" opacity="0.8" fill="#15EAFB" enable-background="new    " font-family="'Helvetica-Bold'" font-size="7.65">Ozone</text>
		<g>
			<rect x="252.6" y="330.8" fill="#F3743B" width="100.2" height="44.6"/>
			<rect x="256.1" y="336.4" fill="none" width="90.1" height="35"/>
			<text transform="matrix(1 0 0 1 256.0656 340.0051)" fill="#FFFFFF" font-family="'Helvetica'" font-size="4.9725">WORD WORDS  WORD WORDS </text>
			<text transform="matrix(1 0 0 1 256.0656 345.9726)" fill="#FFFFFF" font-family="'Helvetica'" font-size="4.9725">WORD WORDS WORD WORDS </text>
			<text transform="matrix(1 0 0 1 256.0656 351.9397)" fill="#FFFFFF" font-family="'Helvetica'" font-size="4.9725">WORD WORDS WORD WORDS </text>
			<text transform="matrix(1 0 0 1 256.0656 357.9064)" fill="#FFFFFF" font-family="'Helvetica'" font-size="4.9725">WORD WORDS WORD WORDS </text>
			<text transform="matrix(1 0 0 1 256.0656 363.8733)" fill="#FFFFFF" font-family="'Helvetica'" font-size="4.9725">WORD WORDS WORD WORDS </text>
			<text transform="matrix(1 0 0 1 256.0656 369.84)" fill="#FFFFFF" font-family="'Helvetica'" font-size="4.9725">WORD WORDS WORD WORD </text>
			<rect x="252.7" y="319.5" fill="none" width="142.3" height="29.1"/>
			<text transform="matrix(1 0 0 1 252.6835 325.0002)" fill="#F3743B" font-family="'Helvetica-Bold'" font-size="7.65">particulate matter</text>
		</g>
		<g>
			<rect x="252.6" y="402" opacity="0.8" fill="#76A6FF" enable-background="new    " width="100.2" height="44.6"/>
			<rect x="256.1" y="407.7" fill="none" width="90.1" height="35"/>
			<text transform="matrix(1 0 0 1 256.0656 411.2432)" fill="#FFFFFF" font-family="'Helvetica'" font-size="4.9725">WORD WORDS  WORD WORDS </text>
			<text transform="matrix(1 0 0 1 256.0656 417.21)" fill="#FFFFFF" font-family="'Helvetica'" font-size="4.9725">WORD WORDS WORD WORDS </text>
			<text transform="matrix(1 0 0 1 256.0656 423.1766)" fill="#FFFFFF" font-family="'Helvetica'" font-size="4.9725">WORD WORDS WORD WORDS </text>
			<text transform="matrix(1 0 0 1 256.0656 429.1435)" fill="#FFFFFF" font-family="'Helvetica'" font-size="4.9725">WORD WORDS WORD WORDS </text>
			<text transform="matrix(1 0 0 1 256.0656 435.1102)" fill="#FFFFFF" font-family="'Helvetica'" font-size="4.9725">WORD WORDS WORD WORDS </text>
			<text transform="matrix(1 0 0 1 256.0656 441.0781)" fill="#FFFFFF" font-family="'Helvetica'" font-size="4.9725">WORD WORDS WORD WORD </text>
			<rect x="252.7" y="390.8" fill="none" width="198.7" height="29.1"/>
			<text transform="matrix(1 0 0 1 252.6835 396.287)" fill="#82BAFF" font-family="'Helvetica-Bold'" font-size="7.65">Pops: persistent organic pollutants</text>
		</g>
		<rect x="252.7" y="463" fill="none" width="67.6" height="5.7"/>
		<text transform="matrix(1 0 0 1 252.6835 468.4982)" fill="#0A7392" font-family="'Helvetica-Bold'" font-size="7.65">mercury</text>
	</g>
	<g>
		<line fill="none" stroke="#FFFFFF" stroke-width="2" stroke-miterlimit="10" x1="247.3" y1="473.7" x2="587.5" y2="473.7"/>
		<path fill="none" stroke="#FFFFFF" stroke-width="2" stroke-miterlimit="10" d="M245.9,473.8"/>
		<path fill="none" stroke="#FFFFFF" stroke-width="2" stroke-miterlimit="10" d="M245.9,474.2"/>
		<path fill="none" stroke="#FFFFFF" stroke-width="2" stroke-miterlimit="10" d="M247.5,473.8c-0.3-9.6-8.1-17.6-17.7-17.6
			c-9.8,0-17.7,7.9-17.7,17.7c0,9.8,7.9,17.7,17.7,17.7c6.7,0,12.5-3.7,15.5-9.2"/>
		<path fill="none" stroke="#FFFFFF" stroke-width="2" stroke-miterlimit="10" d="M247.5,473.8"/>
		<path fill="none" stroke="#FFFFFF" stroke-width="2" stroke-miterlimit="10" d="M247.5,474.3"/>
		<path fill="none" stroke="#FFFFFF" stroke-width="2" stroke-miterlimit="10" d="M241.8,409.7c-2.5,4-6.9,6.5-12,6.5
			c-7.9,0-14.3-6.4-14.3-14.3c0-7.9,6.4-14.3,14.3-14.3c7.9,0,14.3,6.4,14.3,14.3c0,1-0.1,1.9-0.3,2.9l-0.2,0.7"/>
		<path fill="none" stroke="#FFFFFF" stroke-width="2" stroke-miterlimit="10" d="M241.4,406.5c0.6-1.4,0.9-2.9,0.9-4.5
			c0-6.9-5.6-12.5-12.5-12.5c-6.9,0-12.5,5.6-12.5,12.5c0,6.9,5.6,12.5,12.5,12.5c4.1,0,7.8-2,10.1-5.1"/>
		<path fill="none" stroke="#FFFFFF" stroke-width="2" stroke-miterlimit="10" d="M245.9,402.3c0-8.9-7.2-16.4-16.1-16.4
			s-16.1,7.2-16.1,16.1c0,8.9,7.2,16.1,16.1,16.1c6.1,0,11.4-3.4,14.1-8.3"/>
		<line fill="none" stroke="#FFFFFF" stroke-width="2" stroke-miterlimit="10" x1="587.5" y1="402" x2="245.9" y2="402"/>
		<g>
			<path fill="none" stroke="#FFFFFF" stroke-width="2" stroke-miterlimit="10" d="M228.6,344.3c-0.1,0-0.3,0-0.4,0
				c-7.5-0.7-13.1-7.4-12.4-14.9c0.7-7.5,7.4-13.1,14.9-12.4c7.1,0.7,12.4,6.6,12.5,13.5"/>
			<line fill="none" stroke="#FFFFFF" stroke-width="2" stroke-miterlimit="10" x1="242.9" y1="330.6" x2="587.5" y2="330.6"/>
		</g>
		<g>
			<path fill="none" stroke="#FFFFFF" stroke-width="2" stroke-miterlimit="10" d="M217.4,258c0-6.6,5.4-12,12-12
				c6.6,0,12,5.4,12,12c0,6.6-5.4,12-12,12c-6.1,0-11.2-4.6-11.9-10.5c0-0.3-0.1-0.5-0.1-0.8C217.4,258.5,217.4,258.2,217.4,258z"/>
			<line fill="none" stroke="#FFFFFF" stroke-width="2" stroke-miterlimit="10" x1="241.4" y1="257.5" x2="587.5" y2="257.5"/>
		</g>
	</g>
</g>
<g id="right_x5F_drop_down_1_">
	<g>
		<polygon fill="#FFFFFF" points="264,266.9 258.4,261.2 252.7,266.9 		"/>
		<polygon fill="#FFFFFF" points="264,339.8 258.4,334.1 252.7,339.8 		"/>
		<polygon fill="#FFFFFF" points="264,411.5 258.4,405.8 252.7,411.5 		"/>
		<polygon fill="#FFFFFF" points="264,483.2 258.4,477.5 252.7,483.2 		"/>
	</g>
</g>
<polygon fill="#160505" points="267.3,268 260,260.7 252.7,268 "/>
<polygon fill="#E50E0E" points="252.7,260.4 260,267.7 267.3,260.4 "/>
<polygon fill="#E50E0E" points="252.7,333.8 260,341.1 267.3,333.8 "/>
<polygon fill="#160505" points="267.3,342.1 260,334.8 252.7,342.1 "/>
<polygon fill="#160505" points="267.2,413.2 259.9,405.9 252.6,413.2 "/>
<polygon fill="#160505" points="267.2,485.2 259.9,477.9 252.6,485.2 "/>
<polygon fill="#E50E0E" points="252.6,405.9 259.9,413.2 267.2,405.9 "/>
<polygon fill="#E50E0E" points="252.7,477.9 260,485.2 267.3,477.9 "/>
</svg>
