<?xml version="1.0" encoding="utf-8"?>
<!-- Generator: Adobe Illustrator 18.0.0, SVG Export Plug-In . SVG Version: 6.00 Build 0)  -->
<!DOCTYPE svg PUBLIC "-//W3C//DTD SVG 1.0//EN" "http://www.w3.org/TR/2001/REC-SVG-20010904/DTD/svg10.dtd">
<svg version="1.0" id="svg-container" xmlns="http://www.w3.org/2000/svg" xmlns:xlink="http://www.w3.org/1999/xlink" x="0px"
	 y="0px" viewBox="0 0 200 425" enable-background="new 0 0 200 425" xml:space="preserve">
<ellipse fill="none" stroke="#40BDA4" stroke-width="6" stroke-miterlimit="10" cx="102.398" cy="31.883" rx="32.612" ry="30.245"/>
<g transform="translate(0,118)">
	<g id="signed_ratified">
		<rect x="19.46" y="-25.822" fill="#40BDA4" width="155.993" height="26.497"/>
		
			<rect x="19.46" y="-25.822" fill="none" stroke="#FFFFFF" stroke-width="2" stroke-miterlimit="10" width="155.993" height="26.497"/>
		<path fill="#FFFFFF" d="M35.46-12.155c0-7.514-6.268-13.605-13.999-13.605c-7.731,0-13.999,6.091-13.999,13.605
			S13.729,1.45,21.46,1.45C29.192,1.45,35.46-4.641,35.46-12.155"/>
		
			<ellipse fill="none" stroke="#40BDA4" stroke-width="3" stroke-miterlimit="10" cx="21.46" cy="-12.155" rx="13.999" ry="13.605"/>
		<text transform="matrix(1.029 0 0 1 45.3217 -7.1182)" fill="#FFFFFF" font-family="'ArialMT'" font-size="12.439">SIGNED </text>
		<text transform="matrix(1.029 0 0 1 106.6554 -7.1182)" fill="#FFFFFF" font-family="'ArialMT'" font-size="12.439">RATIFIED</text>
		<text transform="matrix(1.029 0 0 1 52.5196 10.0753)" fill="#40BDA4" font-family="'ArialMT'" font-size="10.3659">Stockholm Convention</text>
		<g id="signed-checks">
			<polygon id="x-left" display="none" fill="#366AB2" points="81.527,-41.923 74.716,-48.543 66.082,-40.151 57.446,-48.543 
				50.63,-41.923 59.271,-33.535 50.63,-25.14 57.446,-18.52 66.082,-26.91 74.716,-18.52 81.527,-25.14 72.891,-33.535 			"/>
			<g id="check-right">
				
					<line display="none" fill="none" stroke="#366AB2" stroke-width="18" stroke-miterlimit="10" x1="119.956" y1="-39.157" x2="136.911" y2="-22.805"/>
				
					<line display="none" fill="none" stroke="#366AB2" stroke-width="18" stroke-miterlimit="10" x1="155.758" y1="-47.643" x2="134.296" y2="-26.628"/>
			</g>
			<polygon id="x-right" display="none" fill="#366AB2" points="149.744,-43.996 142.933,-50.616 134.299,-42.225 125.663,-50.616 
				118.848,-43.996 127.489,-35.608 118.848,-27.213 125.663,-20.593 134.299,-28.983 142.933,-20.593 149.744,-27.213 
				141.109,-35.608 			"/>
			<g id="check-left">
				
					<line display="none" fill="none" stroke="#366AB2" stroke-width="18" stroke-miterlimit="10" x1="52.519" y1="-39.019" x2="69.475" y2="-22.667"/>
				
					<line display="none" fill="none" stroke="#366AB2" stroke-width="18" stroke-miterlimit="10" x1="88.321" y1="-47.505" x2="66.859" y2="-26.49"/>
			</g>
		</g>
	</g>
	<g id="chemicals">
		<g id="aldrin">
			<path id="aldrin-path" fill="#366AB2" d="M59.612,49.478c1.243,13.811-9.27,25.988-23.482,27.196
				c-14.214,1.209-26.742-9.009-27.986-22.82C6.9,40.041,17.415,27.867,31.628,26.657C45.839,25.449,58.368,35.665,59.612,49.478"/>
			<g>
				<defs>
					<polygon id="SVGID_1_" points="0.533,-56.323 1.067,-56.323 0.533,-55.805 					"/>
				</defs>
				<defs>
					<polygon id="SVGID_2_" points="-0.533,-57.36 -1.067,-57.36 -0.533,-57.878 					"/>
				</defs>
				<clipPath id="SVGID_3_">
					<use xlink:href="#SVGID_1_"  overflow="visible"/>
				</clipPath>
				<clipPath id="SVGID_4_" clip-path="url(#SVGID_3_)">
					<use xlink:href="#SVGID_2_"  overflow="visible"/>
				</clipPath>
				<path clip-path="url(#SVGID_4_)" fill="#FFFFFF" d="M24.475,60.868c0,0,1.644-9.06,4.643-11.929
					c2.999-2.866,7.161-6.308,8.612-7.11c1.45-0.804,5.226-3.491,6.966-4.472c2.033-1.149,3.871-1.608,4.645-0.574
					c0.773,1.032-0.582,3.326-1.066,5.276c-0.482,1.949-3.676,6.537-5.321,8.259c-1.645,1.72-3.484,3.554-4.451,4.244
					c-0.967,0.686-6.773,6.077-9.965,7.111C25.343,62.705,24.475,60.868,24.475,60.868"/>
			</g>
			<g>
				<defs>
					<polygon id="SVGID_5_" points="0.533,-56.323 1.067,-56.323 0.533,-55.805 					"/>
				</defs>
				<defs>
					<polygon id="SVGID_6_" points="-0.533,-57.36 -1.067,-57.36 -0.533,-57.878 					"/>
				</defs>
				<clipPath id="SVGID_7_">
					<use xlink:href="#SVGID_5_"  overflow="visible"/>
				</clipPath>
				<clipPath id="SVGID_8_" clip-path="url(#SVGID_7_)">
					<use xlink:href="#SVGID_6_"  overflow="visible"/>
				</clipPath>
				<path clip-path="url(#SVGID_8_)" fill="none" stroke="#366AB2" stroke-miterlimit="10" d="M18.181,65.619
					c0,0,1.548-4.47,3.387-8.026c1.838-3.558,5.515-6.31,5.515-6.31s2.611-4.014,2.71-4.703l0.095-0.687l-1.548,1.032
					c0,0-1.644,0.23-2.708,0.23c-1.063,0-2.419-0.804-2.419-0.804s3.099-1.033,4.259-2.637c1.161-1.606,4.45-4.131,4.45-4.131
					s1.452-1.033,1.934,0c0.484,1.033,1.259,1.837,0.969,3.671c-0.29,1.836-0.871,2.064-0.871,2.064s2.612-1.833,3.29-2.407
					c0.677-0.574,2.515-1.606,2.998-2.063c0.485-0.461,2.227-1.494,2.515-1.608c0.292-0.115-0.289,0.114-0.289,0.114l-1.644,2.066
					c0,0-1.356,1.149-2.225,1.604c-0.873,0.46-2.902,2.41-3.677,3.097c-0.773,0.688-3.193,2.297-3.871,2.983
					c-0.677,0.687-2.418,2.636-3.579,5.391c-1.161,2.753-1.453,6.08-1.453,6.422v0.346l3.194-0.917c0,0,1.838-1.721,2.614-2.407
					c0.774-0.69,3-2.639,3.677-2.986c0.676-0.343,2.61-1.26,3.289-1.49c0.677-0.23,1.451-0.115,3.098-0.689
					c1.644-0.573,4.062-1.719,4.062-1.719s0.097-0.576,1.451,0.229c1.355,0.803,1.742,1.147,1.355,2.637
					c-0.387,1.492-0.871,3.673-0.871,3.673l-1.547,3.439l0.098-3.555c0,0,0.87-2.065-0.194-2.636c-1.063-0.574-2.419,0-3.388,0.225
					c-0.965,0.233-3.482,1.149-4.741,2.527c-1.256,1.376-2.225,3.097-3.384,3.899c-1.162,0.803-4.741,4.014-7.645,4.816
					c-2.903,0.804-6.482,3.327-7.354,3.327"/>
			</g>
			<g>
				<defs>
					<polygon id="SVGID_9_" points="0.533,-56.323 1.067,-56.323 0.533,-55.805 					"/>
				</defs>
				<defs>
					<polygon id="SVGID_10_" points="-0.533,-57.36 -1.067,-57.36 -0.533,-57.878 					"/>
				</defs>
				<clipPath id="SVGID_11_">
					<use xlink:href="#SVGID_9_"  overflow="visible"/>
				</clipPath>
				<clipPath id="SVGID_12_" clip-path="url(#SVGID_11_)">
					<use xlink:href="#SVGID_10_"  overflow="visible"/>
				</clipPath>
				<path clip-path="url(#SVGID_12_)" fill="#FFFFFF" d="M18.181,65.619c0,0,1.548-4.47,3.387-8.026
					c1.838-3.558,5.515-6.31,5.515-6.31s2.611-4.014,2.71-4.703l0.095-0.687l-1.548,1.032c0,0-1.644,0.23-2.708,0.23
					c-1.063,0-2.419-0.804-2.419-0.804s3.099-1.033,4.259-2.637c1.161-1.606,4.45-4.131,4.45-4.131s1.452-1.033,1.934,0
					c0.484,1.033,1.259,1.837,0.969,3.671c-0.29,1.836-0.871,2.064-0.871,2.064s2.612-1.833,3.29-2.407
					c0.677-0.574,2.515-1.606,2.998-2.063c0.485-0.461,2.227-1.494,2.515-1.608c0.292-0.115-0.289,0.114-0.289,0.114l-1.644,2.066
					c0,0-1.356,1.149-2.225,1.604c-0.873,0.46-2.902,2.41-3.677,3.097c-0.773,0.688-3.193,2.297-3.871,2.983
					c-0.677,0.687-2.418,2.636-3.579,5.391c-1.161,2.753-1.453,6.08-1.453,6.422v0.346l3.194-0.917c0,0,1.838-1.721,2.614-2.407
					c0.774-0.69,3-2.639,3.677-2.986c0.676-0.343,2.61-1.26,3.289-1.49c0.677-0.23,1.451-0.115,3.098-0.689
					c1.644-0.573,4.062-1.719,4.062-1.719s0.097-0.576,1.451,0.229c1.355,0.803,1.742,1.147,1.355,2.637
					c-0.387,1.492-0.871,3.673-0.871,3.673l-1.547,3.439l0.098-3.555c0,0,0.87-2.065-0.194-2.636c-1.063-0.574-2.419,0-3.388,0.225
					c-0.965,0.233-3.482,1.149-4.741,2.527c-1.256,1.376-2.225,3.097-3.384,3.899c-1.162,0.803-4.741,4.014-7.645,4.816
					c-2.903,0.804-6.482,3.327-7.354,3.327"/>
			</g>
		</g>
		<g id="chlordane">
			<path id="chlordane-path" fill="#366AB2" d="M127.199,49.478c1.243,13.811-9.27,25.988-23.482,27.196
				c-14.214,1.209-26.742-9.009-27.986-22.82c-1.244-13.813,9.271-25.987,23.484-27.197
				C113.427,25.449,125.955,35.665,127.199,49.478"/>
			<g>
				<defs>
					<polygon id="SVGID_13_" points="0.533,-56.323 1.067,-56.323 0.533,-55.805 					"/>
				</defs>
				<defs>
					<polygon id="SVGID_14_" points="-0.533,-57.36 -1.067,-57.36 -0.533,-57.878 					"/>
				</defs>
				<clipPath id="SVGID_15_">
					<use xlink:href="#SVGID_13_"  overflow="visible"/>
				</clipPath>
				<clipPath id="SVGID_16_" clip-path="url(#SVGID_15_)">
					<use xlink:href="#SVGID_14_"  overflow="visible"/>
				</clipPath>
				<path clip-path="url(#SVGID_16_)" fill="#FFFFFF" d="M97.608,71.653c0,0-2.62-9.42-11.006-11.458c0,0,5.503-1.018,11.006,6.622
					c0,0-1.047-13.495-14.411-23.169c0,0,12.053,4.327,16.507,20.366c0,0-2.097-17.566,15.458-32.333
					c0,0-10.482,7.893-11.266,30.553c0,0,5.764-12.476,13.362-13.495c0,0-10.745,4.33-10.48,17.567c0,0,2.359-6.111,9.694-8.654
					c0,0-8.908,4.327-9.171,14.003L97.608,71.653L97.608,71.653z"/>
			</g>
		</g>
		<g id="ddt">
			<path id="ddt-path" fill="#366AB2" d="M194.867,49.478c1.243,13.811-9.27,25.988-23.482,27.196
				c-14.214,1.209-26.742-9.009-27.986-22.82c-1.244-13.813,9.271-25.987,23.484-27.197
				C181.094,25.449,193.623,35.665,194.867,49.478"/>
			<g>
				<g>
					<defs>
						<polygon id="SVGID_17_" points="0.533,-56.323 1.067,-56.323 0.533,-55.805 						"/>
					</defs>
					<defs>
						<polygon id="SVGID_18_" points="-0.533,-57.36 -1.067,-57.36 -0.533,-57.878 						"/>
					</defs>
					<clipPath id="SVGID_19_">
						<use xlink:href="#SVGID_17_"  overflow="visible"/>
					</clipPath>
					<clipPath id="SVGID_20_" clip-path="url(#SVGID_19_)">
						<use xlink:href="#SVGID_18_"  overflow="visible"/>
					</clipPath>
					<polyline clip-path="url(#SVGID_20_)" fill="none" stroke="#FFFFFF" stroke-width="0.5" stroke-miterlimit="10" points="
						154.5,33.156 161.934,35.865 163.441,42.636 168.086,45.571 					"/>
				</g>
				<g>
					<defs>
						<polygon id="SVGID_21_" points="0.533,-56.323 1.067,-56.323 0.533,-55.805 						"/>
					</defs>
					<defs>
						<polygon id="SVGID_22_" points="-0.533,-57.36 -1.067,-57.36 -0.533,-57.878 						"/>
					</defs>
					<clipPath id="SVGID_23_">
						<use xlink:href="#SVGID_21_"  overflow="visible"/>
					</clipPath>
					<clipPath id="SVGID_24_" clip-path="url(#SVGID_23_)">
						<use xlink:href="#SVGID_22_"  overflow="visible"/>
					</clipPath>
					
						<line clip-path="url(#SVGID_24_)" fill="none" stroke="#FFFFFF" stroke-width="0.5" stroke-miterlimit="10" x1="164.372" y1="36.88" x2="169.015" y2="42.635"/>
				</g>
				<g>
					<defs>
						<polygon id="SVGID_25_" points="0.533,-56.323 1.067,-56.323 0.533,-55.805 						"/>
					</defs>
					<defs>
						<polygon id="SVGID_26_" points="-0.533,-57.36 -1.067,-57.36 -0.533,-57.878 						"/>
					</defs>
					<clipPath id="SVGID_27_">
						<use xlink:href="#SVGID_25_"  overflow="visible"/>
					</clipPath>
					<clipPath id="SVGID_28_" clip-path="url(#SVGID_27_)">
						<use xlink:href="#SVGID_26_"  overflow="visible"/>
					</clipPath>
					<polyline clip-path="url(#SVGID_28_)" fill="none" stroke="#FFFFFF" stroke-width="0.5" stroke-miterlimit="10" points="
						154.383,61.031 162.165,55.277 162.977,49.294 168.086,47.152 168.785,47.264 165.301,50.989 166.112,57.987 154.5,70.175 
											"/>
				</g>
				<g>
					<defs>
						<polygon id="SVGID_29_" points="0.533,-56.323 1.067,-56.323 0.533,-55.805 						"/>
					</defs>
					<defs>
						<polygon id="SVGID_30_" points="-0.533,-57.36 -1.067,-57.36 -0.533,-57.878 						"/>
					</defs>
					<clipPath id="SVGID_31_">
						<use xlink:href="#SVGID_29_"  overflow="visible"/>
					</clipPath>
					<clipPath id="SVGID_32_" clip-path="url(#SVGID_31_)">
						<use xlink:href="#SVGID_30_"  overflow="visible"/>
					</clipPath>
					<path clip-path="url(#SVGID_32_)" fill="#FFFFFF" d="M167.973,46.02l-9.759-2.822c0,0-2.552-0.563-1.508,1.357
						c1.046,1.919,3.484,2.368,3.484,2.368s3.019,0.677,6.734,0.114L167.973,46.02z"/>
				</g>
				<g>
					<defs>
						<polygon id="SVGID_33_" points="0.533,-56.323 1.067,-56.323 0.533,-55.805 						"/>
					</defs>
					<defs>
						<polygon id="SVGID_34_" points="-0.533,-57.36 -1.067,-57.36 -0.533,-57.878 						"/>
					</defs>
					<clipPath id="SVGID_35_">
						<use xlink:href="#SVGID_33_"  overflow="visible"/>
					</clipPath>
					<clipPath id="SVGID_36_" clip-path="url(#SVGID_35_)">
						<use xlink:href="#SVGID_34_"  overflow="visible"/>
					</clipPath>
					
						<line clip-path="url(#SVGID_36_)" fill="none" stroke="#FFFFFF" stroke-width="0.5" stroke-miterlimit="10" x1="173.894" y1="36.88" x2="169.25" y2="42.635"/>
				</g>
				<g>
					<defs>
						<polygon id="SVGID_37_" points="0.533,-56.323 1.067,-56.323 0.533,-55.805 						"/>
					</defs>
					<defs>
						<polygon id="SVGID_38_" points="-0.533,-57.36 -1.067,-57.36 -0.533,-57.878 						"/>
					</defs>
					<clipPath id="SVGID_39_">
						<use xlink:href="#SVGID_37_"  overflow="visible"/>
					</clipPath>
					<clipPath id="SVGID_40_" clip-path="url(#SVGID_39_)">
						<use xlink:href="#SVGID_38_"  overflow="visible"/>
					</clipPath>
					<polyline clip-path="url(#SVGID_40_)" fill="none" stroke="#FFFFFF" stroke-width="0.5" stroke-miterlimit="10" points="
						183.883,61.031 176.1,55.277 175.289,49.294 170.18,47.152 169.482,47.264 172.965,50.989 172.153,57.987 183.765,70.175 					
						"/>
				</g>
				<g>
					<defs>
						<polygon id="SVGID_41_" points="0.533,-56.323 1.067,-56.323 0.533,-55.805 						"/>
					</defs>
					<defs>
						<polygon id="SVGID_42_" points="-0.533,-57.36 -1.067,-57.36 -0.533,-57.878 						"/>
					</defs>
					<clipPath id="SVGID_43_">
						<use xlink:href="#SVGID_41_"  overflow="visible"/>
					</clipPath>
					<clipPath id="SVGID_44_" clip-path="url(#SVGID_43_)">
						<use xlink:href="#SVGID_42_"  overflow="visible"/>
					</clipPath>
					
						<line clip-path="url(#SVGID_44_)" fill="none" stroke="#FFFFFF" stroke-width="0.5" stroke-miterlimit="10" x1="169.131" y1="34.708" x2="169.131" y2="41.959"/>
				</g>
				<g>
					<defs>
						<polygon id="SVGID_45_" points="0.533,-56.323 1.067,-56.323 0.533,-55.805 						"/>
					</defs>
					<defs>
						<polygon id="SVGID_46_" points="-0.533,-57.36 -1.067,-57.36 -0.533,-57.878 						"/>
					</defs>
					<clipPath id="SVGID_47_">
						<use xlink:href="#SVGID_45_"  overflow="visible"/>
					</clipPath>
					<clipPath id="SVGID_48_" clip-path="url(#SVGID_47_)">
						<use xlink:href="#SVGID_46_"  overflow="visible"/>
					</clipPath>
					<path clip-path="url(#SVGID_48_)" fill="#FFFFFF" d="M168.143,43.982c0-0.404,0.468-0.732,1.042-0.732
						c0.58,0,1.049,0.329,1.049,0.732c0,0.406-0.469,0.737-1.049,0.737C168.611,44.719,168.143,44.388,168.143,43.982"/>
				</g>
				<g>
					<defs>
						<polygon id="SVGID_49_" points="0.533,-56.323 1.067,-56.323 0.533,-55.805 						"/>
					</defs>
					<defs>
						<polygon id="SVGID_50_" points="-0.533,-57.36 -1.067,-57.36 -0.533,-57.878 						"/>
					</defs>
					<clipPath id="SVGID_51_">
						<use xlink:href="#SVGID_49_"  overflow="visible"/>
					</clipPath>
					<clipPath id="SVGID_52_" clip-path="url(#SVGID_51_)">
						<use xlink:href="#SVGID_50_"  overflow="visible"/>
					</clipPath>
					<path clip-path="url(#SVGID_52_)" fill="#FFFFFF" d="M168.089,45.74c0,0.841,0.44,1.524,0.987,1.524
						c0.547,0,0.989-0.684,0.989-1.524c0-0.842-0.441-1.524-0.989-1.524C168.529,44.216,168.089,44.898,168.089,45.74"/>
				</g>
				<g>
					<defs>
						<polygon id="SVGID_53_" points="0.533,-56.323 1.067,-56.323 0.533,-55.805 						"/>
					</defs>
					<defs>
						<polygon id="SVGID_54_" points="-0.533,-57.36 -1.067,-57.36 -0.533,-57.878 						"/>
					</defs>
					<clipPath id="SVGID_55_">
						<use xlink:href="#SVGID_53_"  overflow="visible"/>
					</clipPath>
					<clipPath id="SVGID_56_" clip-path="url(#SVGID_55_)">
						<use xlink:href="#SVGID_54_"  overflow="visible"/>
					</clipPath>
					<path clip-path="url(#SVGID_56_)" fill="#FFFFFF" d="M170.295,46.02l9.756-2.822c0,0,2.555-0.563,1.509,1.357
						c-1.046,1.919-3.484,2.368-3.484,2.368s-3.017,0.677-6.738,0.114L170.295,46.02z"/>
				</g>
				<g>
					<defs>
						<polygon id="SVGID_57_" points="0.533,-56.323 1.067,-56.323 0.533,-55.805 						"/>
					</defs>
					<defs>
						<polygon id="SVGID_58_" points="-0.533,-57.36 -1.067,-57.36 -0.533,-57.878 						"/>
					</defs>
					<clipPath id="SVGID_59_">
						<use xlink:href="#SVGID_57_"  overflow="visible"/>
					</clipPath>
					<clipPath id="SVGID_60_" clip-path="url(#SVGID_59_)">
						<use xlink:href="#SVGID_58_"  overflow="visible"/>
					</clipPath>
					<path clip-path="url(#SVGID_60_)" fill="#FFFFFF" d="M169.169,47.94c0,0-0.465,0-0.465,0.792c0,0.789-0.347,6.657-0.347,6.657
						s0.085,0.79,0.782,0.79L169.169,47.94z"/>
				</g>
				<g>
					<defs>
						<polygon id="SVGID_61_" points="0.533,-56.323 1.067,-56.323 0.533,-55.805 						"/>
					</defs>
					<defs>
						<polygon id="SVGID_62_" points="-0.533,-57.36 -1.067,-57.36 -0.533,-57.878 						"/>
					</defs>
					<clipPath id="SVGID_63_">
						<use xlink:href="#SVGID_61_"  overflow="visible"/>
					</clipPath>
					<clipPath id="SVGID_64_" clip-path="url(#SVGID_63_)">
						<use xlink:href="#SVGID_62_"  overflow="visible"/>
					</clipPath>
					<polyline clip-path="url(#SVGID_64_)" fill="none" stroke="#FFFFFF" stroke-width="0.5" stroke-miterlimit="10" points="
						183.272,33.747 175.839,36.456 174.33,43.227 169.682,46.16 					"/>
				</g>
				<g>
					<defs>
						<polygon id="SVGID_65_" points="0.533,-56.323 1.067,-56.323 0.533,-55.805 						"/>
					</defs>
					<defs>
						<polygon id="SVGID_66_" points="-0.533,-57.36 -1.067,-57.36 -0.533,-57.878 						"/>
					</defs>
					<clipPath id="SVGID_67_">
						<use xlink:href="#SVGID_65_"  overflow="visible"/>
					</clipPath>
					<clipPath id="SVGID_68_" clip-path="url(#SVGID_67_)">
						<use xlink:href="#SVGID_66_"  overflow="visible"/>
					</clipPath>
					<path clip-path="url(#SVGID_68_)" fill="#FFFFFF" d="M169.041,47.94c0,0,0.465,0,0.465,0.792c0,0.789,0.348,6.657,0.348,6.657
						s-0.086,0.79-0.784,0.79L169.041,47.94z"/>
				</g>
			</g>
		</g>
		<g id="dieldrin">
			<path id="dieldrin-path" fill="#366AB2" d="M59.612,108.587c1.243,13.811-9.27,25.988-23.482,27.196
				c-14.214,1.209-26.742-9.009-27.986-22.82C6.9,99.149,17.415,86.975,31.628,85.765C45.839,84.558,58.368,94.774,59.612,108.587"
				/>
			<g>
				<defs>
					<polygon id="SVGID_69_" points="0.533,-56.323 1.067,-56.323 0.533,-55.805 					"/>
				</defs>
				<defs>
					<polygon id="SVGID_70_" points="-0.533,-57.36 -1.067,-57.36 -0.533,-57.878 					"/>
				</defs>
				<clipPath id="SVGID_71_">
					<use xlink:href="#SVGID_69_"  overflow="visible"/>
				</clipPath>
				<clipPath id="SVGID_72_" clip-path="url(#SVGID_71_)">
					<use xlink:href="#SVGID_70_"  overflow="visible"/>
				</clipPath>
				<path clip-path="url(#SVGID_72_)" fill="none" stroke="#366AB2" stroke-miterlimit="10" d="M18.181,123.99
					c0,0,1.548-4.47,3.387-8.026c1.838-3.558,5.515-6.31,5.515-6.31s2.611-4.014,2.71-4.703l0.095-0.687l-1.548,1.032
					c0,0-1.644,0.23-2.708,0.23c-1.063,0-2.419-0.804-2.419-0.804s3.099-1.033,4.259-2.637c1.161-1.606,4.45-4.131,4.45-4.131
					s1.452-1.033,1.934,0c0.484,1.033,1.259,1.837,0.969,3.671c-0.29,1.836-0.871,2.064-0.871,2.064s2.612-1.833,3.29-2.407
					c0.677-0.574,2.515-1.606,2.998-2.063c0.485-0.461,2.227-1.494,2.515-1.608c0.292-0.115-0.289,0.114-0.289,0.114l-1.644,2.066
					c0,0-1.356,1.149-2.225,1.604c-0.873,0.46-2.902,2.41-3.677,3.097c-0.773,0.688-3.193,2.297-3.871,2.983
					c-0.677,0.687-2.418,2.636-3.579,5.391c-1.161,2.753-1.453,6.08-1.453,6.422v0.346l3.194-0.917c0,0,1.838-1.721,2.614-2.407
					c0.774-0.69,3-2.639,3.677-2.986c0.676-0.343,2.61-1.26,3.289-1.49c0.677-0.23,1.451-0.115,3.098-0.689
					c1.644-0.573,4.062-1.719,4.062-1.719s0.097-0.576,1.451,0.229c1.355,0.803,1.742,1.147,1.355,2.637
					c-0.387,1.492-0.871,3.673-0.871,3.673l-1.547,3.439l0.098-3.555c0,0,0.87-2.065-0.194-2.636c-1.063-0.574-2.419,0-3.388,0.225
					c-0.965,0.233-3.482,1.149-4.741,2.527c-1.256,1.376-2.225,3.097-3.384,3.899c-1.162,0.803-4.741,4.014-7.645,4.816
					c-2.903,0.804-6.482,3.327-7.354,3.327"/>
			</g>
			<g>
				<defs>
					<polygon id="SVGID_73_" points="0.533,-56.323 1.067,-56.323 0.533,-55.805 					"/>
				</defs>
				<defs>
					<polygon id="SVGID_74_" points="-0.533,-57.36 -1.067,-57.36 -0.533,-57.878 					"/>
				</defs>
				<clipPath id="SVGID_75_">
					<use xlink:href="#SVGID_73_"  overflow="visible"/>
				</clipPath>
				<clipPath id="SVGID_76_" clip-path="url(#SVGID_75_)">
					<use xlink:href="#SVGID_74_"  overflow="visible"/>
				</clipPath>
				<path clip-path="url(#SVGID_76_)" fill="#FFFFFF" d="M24.475,119.24c0,0,1.644-9.06,4.643-11.929
					c2.999-2.866,7.161-6.308,8.612-7.11c1.45-0.804,5.226-3.491,6.966-4.472c2.033-1.149,3.871-1.608,4.645-0.574
					c0.773,1.032-0.582,3.326-1.066,5.276c-0.482,1.949-3.676,6.537-5.321,8.259c-1.645,1.72-3.484,3.554-4.451,4.244
					c-0.967,0.686-6.773,6.078-9.965,7.111C25.343,121.076,24.475,119.24,24.475,119.24"/>
			</g>
			<g>
				<defs>
					<polygon id="SVGID_77_" points="0.533,-56.323 1.067,-56.323 0.533,-55.805 					"/>
				</defs>
				<defs>
					<polygon id="SVGID_78_" points="-0.533,-57.36 -1.067,-57.36 -0.533,-57.878 					"/>
				</defs>
				<clipPath id="SVGID_79_">
					<use xlink:href="#SVGID_77_"  overflow="visible"/>
				</clipPath>
				<clipPath id="SVGID_80_" clip-path="url(#SVGID_79_)">
					<use xlink:href="#SVGID_78_"  overflow="visible"/>
				</clipPath>
				<path clip-path="url(#SVGID_80_)" fill="#FFFFFF" d="M18.181,123.99c0,0,1.548-4.47,3.387-8.026
					c1.838-3.558,5.515-6.31,5.515-6.31s2.611-4.014,2.71-4.703l0.095-0.687l-1.548,1.032c0,0-1.644,0.23-2.708,0.23
					c-1.063,0-2.419-0.804-2.419-0.804s3.099-1.033,4.259-2.637c1.161-1.606,4.45-4.131,4.45-4.131s1.452-1.033,1.934,0
					c0.484,1.033,1.259,1.837,0.969,3.671c-0.29,1.836-0.871,2.064-0.871,2.064s2.612-1.833,3.29-2.407
					c0.677-0.574,2.515-1.606,2.998-2.063c0.485-0.461,2.227-1.494,2.515-1.608c0.292-0.115-0.289,0.114-0.289,0.114l-1.644,2.066
					c0,0-1.356,1.149-2.225,1.604c-0.873,0.46-2.902,2.41-3.677,3.097c-0.773,0.688-3.193,2.297-3.871,2.983
					c-0.677,0.687-2.418,2.636-3.579,5.391c-1.161,2.753-1.453,6.08-1.453,6.422v0.346l3.194-0.917c0,0,1.838-1.721,2.614-2.407
					c0.774-0.69,3-2.639,3.677-2.986c0.676-0.343,2.61-1.26,3.289-1.49c0.677-0.23,1.451-0.115,3.098-0.689
					c1.644-0.573,4.062-1.719,4.062-1.719s0.097-0.576,1.451,0.229c1.355,0.803,1.742,1.147,1.355,2.637
					c-0.387,1.492-0.871,3.673-0.871,3.673l-1.547,3.439l0.098-3.555c0,0,0.87-2.065-0.194-2.636c-1.063-0.574-2.419,0-3.388,0.225
					c-0.965,0.233-3.482,1.149-4.741,2.527c-1.256,1.376-2.225,3.097-3.384,3.899c-1.162,0.803-4.741,4.014-7.645,4.816
					c-2.903,0.804-6.482,3.327-7.354,3.327"/>
			</g>
		</g>
		<g id="endrin">
			<path id="endrin-path" fill="#366AB2" d="M127.199,108.587c1.243,13.811-9.27,25.988-23.482,27.196
				c-14.214,1.209-26.742-9.009-27.986-22.82c-1.244-13.813,9.271-25.987,23.484-27.197
				C113.427,84.558,125.955,94.774,127.199,108.587"/>
			<g>
				<defs>
					<polygon id="SVGID_81_" points="0.533,-56.323 1.067,-56.323 0.533,-55.805 					"/>
				</defs>
				<defs>
					<polygon id="SVGID_82_" points="-0.533,-57.36 -1.067,-57.36 -0.533,-57.878 					"/>
				</defs>
				<clipPath id="SVGID_83_">
					<use xlink:href="#SVGID_81_"  overflow="visible"/>
				</clipPath>
				<clipPath id="SVGID_84_" clip-path="url(#SVGID_83_)">
					<use xlink:href="#SVGID_82_"  overflow="visible"/>
				</clipPath>
				<path clip-path="url(#SVGID_84_)" fill="#FFFFFD" d="M87.339,111.789c0,0-3.84-5.488,5.65-12.074
					c9.487-6.586,12.2-0.22,15.135,0.658l2.937,0.879c0,0-0.452-0.879,0.791-1.099l1.242-0.219c0,0-0.227-0.328,0.678-0.768
					c0.904-0.439,2.486,1.867,3.163,3.623c0,0,3.049,0.219,8.02,5.928c0,0,1.581,2.196-1.695,2.526l-1.355,1.097v-0.987
					l-0.903,1.647l0.225-1.979l-1.693,2.198l0.678-1.976c0,0-3.164,0.11-6.778-1.428c0,0-3.501,0.767-4.067,1.316v1.649
					c0,0,3.73,1.316,1.922,2.195c-1.809,0.879-3.277-0.33-3.954-0.769l-0.678-2.195c0,0-1.131,0.989-4.746,1.977
					c0,0,3.954,1.206-0.564,1.424c-4.519,0.221-6.483-0.329-9.828-0.329c-0.169,0-0.338-0.328-1.014-0.658
					c0,0-1.243-0.11-3.615,0.658c0,0-9.489,4.064-1.244,6.369c0,0,2.259,0.492,10.788,1.207c0,0,4.293,0.385,6.497,4.061
					c0,0,0.056,2.307-0.904,3.405c0,0,1.143-2.999-2.654-5.051c-1.526-0.822-3.558-0.822-4.577-0.986
					c-4.066-0.658-6.664-0.329-9.601-0.769c-2.937-0.439-4.857-1.426-5.195-3.402c-0.34-1.977,1.424-3.724,1.692-3.953
					c0.453-0.385,4.181-2.743,4.181-2.743L87.339,111.789z"/>
			</g>
		</g>
		<g id="heptachlor">
			<path id="heptachlor-path" fill="#366AB2" d="M194.867,108.587c1.243,13.811-9.27,25.988-23.482,27.196
				c-14.214,1.209-26.742-9.009-27.986-22.82c-1.244-13.813,9.271-25.987,23.484-27.197
				C181.094,84.558,193.623,94.774,194.867,108.587"/>
			<g>
				<defs>
					<polygon id="SVGID_85_" points="0.533,-56.323 1.067,-56.323 0.533,-55.805 					"/>
				</defs>
				<defs>
					<polygon id="SVGID_86_" points="-0.533,-57.36 -1.067,-57.36 -0.533,-57.878 					"/>
				</defs>
				<clipPath id="SVGID_87_">
					<use xlink:href="#SVGID_85_"  overflow="visible"/>
				</clipPath>
				<clipPath id="SVGID_88_" clip-path="url(#SVGID_87_)">
					<use xlink:href="#SVGID_86_"  overflow="visible"/>
				</clipPath>
				<g clip-path="url(#SVGID_88_)">
					<path fill="#FFFFFF" d="M169.35,96.802l-1.858,0.15c0,0-0.231-0.75,0.386-1.277v-0.602c0,0-1.39,0.602-1.004,2.029
						c0,0-0.541,0.151-0.697,0.827c0,0-1.314,0.451-1.468-1.354c-0.156-1.802-0.121-1.298-1.007-1.727
						c-1.237-0.601-2.986,0.638-2.165,0.902c1.625,0.528,1.625,0.376,1.934,0.376c0,0,0.696,0.976,0.85,1.578
						c0.141,0.549,0.404,0.803,1.238,0.904c0.076,0.008-0.4,0.223-0.309,0.223c1.083,0,0.619,0.3,0.619,0.3
						s-1.005,0.903-1.702,3.832l-1.623,0.451c0,0-0.156-0.599-0.464-1.727c-0.308-1.127-1.858-2.706-1.858-2.706l-0.772-0.75
						l-0.542,0.674c0,0-3.403-1.353-4.021-1.201c-0.619,0.149-0.928,0.149-0.928,0.149v0.826l1.546-0.072
						c0,0,1.78,0.148,2.475,0.673l0.698,0.526l-0.775,0.679c0,0,1.469,0.15,3.869,3.906c2.396,3.759,2.782,0.904,2.782,0.904
						l-0.232,1.577c0,0-1.701,0.15-2.165,0.451c-0.463,0.301-3.017,3.531-3.866,4.809l0.309,1.429c0,0-1.857,2.781-4.871,3.005
						l-0.079,0.528c0,0,4.1-0.225,5.57-2.781l0.231,0.451l3.095-5.261c0,0,0.463,0.15,0.695,0.15c0.232,0,0.232,5.861,0.232,5.861
						s-1.083-0.074-1.162,0.451c-0.076,0.524,0.079,7.288,0.079,7.288l0.54,0.228c0,0-0.154,1.052-1.082,1.579
						c-0.928,0.525-3.867,1.202-3.867,1.202l-0.077,0.6c0,0,5.337-0.675,5.955-2.104c0.619-1.428,0.155-1.352,0.155-1.352
						l0.231-0.077l0.077-3.756c0,0,2.398,3.231,5.182,3.907L169.35,96.802z"/>
					<path fill="none" stroke="#FFFFFF" stroke-width="0.5" stroke-miterlimit="10" d="M169.35,96.802l-1.858,0.15
						c0,0-0.231-0.75,0.386-1.277v-0.602c0,0-1.39,0.602-1.004,2.029c0,0-0.541,0.151-0.697,0.827c0,0-1.314,0.451-1.468-1.354
						c-0.156-1.802-0.121-1.298-1.007-1.727c-1.237-0.601-2.986,0.638-2.165,0.902c1.625,0.528,1.625,0.376,1.934,0.376
						c0,0,0.696,0.976,0.85,1.578c0.141,0.549,0.404,0.803,1.238,0.904c0.076,0.008-0.4,0.223-0.309,0.223
						c1.083,0,0.619,0.3,0.619,0.3s-1.005,0.903-1.702,3.832l-1.623,0.451c0,0-0.156-0.599-0.464-1.727
						c-0.308-1.127-1.858-2.706-1.858-2.706l-0.772-0.75l-0.542,0.674c0,0-3.403-1.353-4.021-1.201
						c-0.619,0.149-0.928,0.149-0.928,0.149v0.826l1.546-0.072c0,0,1.78,0.148,2.475,0.673l0.698,0.526l-0.775,0.679
						c0,0,1.469,0.15,3.869,3.906c2.396,3.759,2.782,0.904,2.782,0.904l-0.232,1.577c0,0-1.701,0.15-2.165,0.451
						c-0.463,0.301-3.017,3.531-3.866,4.809l0.309,1.429c0,0-1.857,2.781-4.871,3.005l-0.079,0.528c0,0,4.1-0.225,5.57-2.781
						l0.231,0.451l3.095-5.261c0,0,0.463,0.15,0.695,0.15c0.232,0,0.232,5.861,0.232,5.861s-1.083-0.074-1.162,0.451
						c-0.076,0.524,0.079,7.288,0.079,7.288l0.54,0.228c0,0-0.154,1.052-1.082,1.579c-0.928,0.525-3.867,1.202-3.867,1.202
						l-0.077,0.6c0,0,5.337-0.675,5.955-2.104c0.619-1.428,0.155-1.352,0.155-1.352l0.231-0.077l0.077-3.756
						c0,0,2.398,3.231,5.182,3.907L169.35,96.802z"/>
					<path fill="#FFFFFF" d="M168.685,96.802l2.088,0.15c0,0,0.231-0.75-0.386-1.277v-0.602c0,0,1.393,0.602,1.004,2.029
						c0,0,0.541,0.151,0.697,0.827c0,0,1.312,0.451,1.469-1.354c0.153-1.802,0.117-1.298,1.004-1.727
						c1.237-0.601,2.986,0.638,2.165,0.902c-1.624,0.528-1.624,0.376-1.932,0.376c0,0-0.696,0.976-0.852,1.578
						c-0.142,0.549-0.401,0.803-1.237,0.904c-0.075,0.008,0.401,0.223,0.31,0.223c-1.083,0-0.619,0.3-0.619,0.3
						s1.004,0.903,1.703,3.832l1.622,0.451c0,0,0.156-0.599,0.466-1.727c0.308-1.127,1.855-2.706,1.855-2.706l0.774-0.75
						l0.541,0.674c0,0,3.402-1.353,4.02-1.201c0.619,0.149,0.929,0.149,0.929,0.149v0.826l-1.547-0.072c0,0-1.779,0.148-2.475,0.673
						l-0.695,0.526l0.772,0.679c0,0-1.47,0.15-3.866,3.906c-2.397,3.759-2.786,0.904-2.786,0.904l0.232,1.577
						c0,0,1.703,0.15,2.167,0.451c0.463,0.301,3.016,3.531,3.866,4.809l-0.309,1.429c0,0,1.856,2.781,4.873,3.005l0.078,0.528
						c0,0-4.1-0.225-5.57-2.781l-0.231,0.451l-3.095-5.261c0,0-0.463,0.15-0.694,0.15c-0.232,0-0.232,5.861-0.232,5.861
						s1.082-0.074,1.159,0.451c0.076,0.524-0.077,7.288-0.077,7.288l-0.542,0.228c0,0,0.154,1.052,1.083,1.579
						c0.928,0.525,3.867,1.202,3.867,1.202l0.077,0.6c0,0-5.334-0.675-5.956-2.104c-0.617-1.428-0.153-1.352-0.153-1.352
						l-0.231-0.077l-0.078-3.756c0,0-2.397,3.231-5.18,3.907L168.685,96.802z"/>
					<path fill="none" stroke="#FFFFFF" stroke-width="0.5" stroke-miterlimit="10" d="M168.685,96.802l2.088,0.15
						c0,0,0.231-0.75-0.386-1.277v-0.602c0,0,1.393,0.602,1.004,2.029c0,0,0.541,0.151,0.697,0.827c0,0,1.312,0.451,1.469-1.354
						c0.153-1.802,0.117-1.298,1.004-1.727c1.237-0.601,2.986,0.638,2.165,0.902c-1.624,0.528-1.624,0.376-1.932,0.376
						c0,0-0.696,0.976-0.852,1.578c-0.142,0.549-0.401,0.803-1.237,0.904c-0.075,0.008,0.401,0.223,0.31,0.223
						c-1.083,0-0.619,0.3-0.619,0.3s1.004,0.903,1.703,3.832l1.622,0.451c0,0,0.156-0.599,0.466-1.727
						c0.308-1.127,1.855-2.706,1.855-2.706l0.774-0.75l0.541,0.674c0,0,3.402-1.353,4.02-1.201c0.619,0.149,0.929,0.149,0.929,0.149
						v0.826l-1.547-0.072c0,0-1.779,0.148-2.475,0.673l-0.695,0.526l0.772,0.679c0,0-1.47,0.15-3.866,3.906
						c-2.397,3.759-2.786,0.904-2.786,0.904l0.232,1.577c0,0,1.703,0.15,2.167,0.451c0.463,0.301,3.016,3.531,3.866,4.809
						l-0.309,1.429c0,0,1.856,2.781,4.873,3.005l0.078,0.528c0,0-4.1-0.225-5.57-2.781l-0.231,0.451l-3.095-5.261
						c0,0-0.463,0.15-0.694,0.15c-0.232,0-0.232,5.861-0.232,5.861s1.082-0.074,1.159,0.451c0.076,0.524-0.077,7.288-0.077,7.288
						l-0.542,0.228c0,0,0.154,1.052,1.083,1.579c0.928,0.525,3.867,1.202,3.867,1.202l0.077,0.6c0,0-5.334-0.675-5.956-2.104
						c-0.617-1.428-0.153-1.352-0.153-1.352l-0.231-0.077l-0.078-3.756c0,0-2.397,3.231-5.18,3.907L168.685,96.802z"/>
					<polygon fill="#FFFFFF" points="168.052,97.126 169.166,96.998 169.363,122.974 169.034,123.228 168.052,122.591 					"/>
				</g>
			</g>
		</g>
		<g id="hexachlorobenzene">
			<path id="hexachlorobenzene-path" fill="#366AB2" d="M59.612,167.695c1.243,13.811-9.27,25.988-23.482,27.196
				c-14.214,1.209-26.742-9.009-27.986-22.82c-1.244-13.813,9.271-25.987,23.484-27.197
				C45.839,143.666,58.368,153.882,59.612,167.695"/>
			<g>
				<defs>
					<polygon id="SVGID_89_" points="0.533,-56.323 1.067,-56.323 0.533,-55.805 					"/>
				</defs>
				<defs>
					<polygon id="SVGID_90_" points="-0.533,-57.36 -1.067,-57.36 -0.533,-57.878 					"/>
				</defs>
				<clipPath id="SVGID_91_">
					<use xlink:href="#SVGID_89_"  overflow="visible"/>
				</clipPath>
				<clipPath id="SVGID_92_" clip-path="url(#SVGID_91_)">
					<use xlink:href="#SVGID_90_"  overflow="visible"/>
				</clipPath>
				<polygon clip-path="url(#SVGID_92_)" fill="#FFFFFF" points="51.079,170.29 51.079,166.488 41.431,162.14 41.431,170.29 
					40.171,170.29 40.171,166.488 30.523,162.14 30.523,170.29 27.443,170.29 27.443,158.059 23.25,158.059 23.25,170.29 
					21.572,170.29 21.572,158.059 17.377,158.059 17.377,170.29 13.74,170.29 13.74,181.705 54.015,181.705 54.015,170.29 				"/>
			</g>
		</g>
		<g id="mirex">
			<path id="mirex-path" fill="#366AB2" d="M127.199,167.695c1.243,13.811-9.27,25.988-23.482,27.196
				c-14.214,1.209-26.742-9.009-27.986-22.82c-1.244-13.813,9.271-25.987,23.484-27.197
				C113.427,143.666,125.955,153.882,127.199,167.695"/>
			<g>
				<defs>
					<polygon id="SVGID_93_" points="0.533,-56.323 1.067,-56.323 0.533,-55.805 					"/>
				</defs>
				<defs>
					<polygon id="SVGID_94_" points="-0.533,-57.36 -1.067,-57.36 -0.533,-57.878 					"/>
				</defs>
				<clipPath id="SVGID_95_">
					<use xlink:href="#SVGID_93_"  overflow="visible"/>
				</clipPath>
				<clipPath id="SVGID_96_" clip-path="url(#SVGID_95_)">
					<use xlink:href="#SVGID_94_"  overflow="visible"/>
				</clipPath>
				<g clip-path="url(#SVGID_96_)">
					<path fill="#FFFFFF" d="M112.634,169.565c1.775,2.693,3.58,5.376,2.989,8.828c-1.436,2.677-3.701,2.224-6.037,1.511
						c-0.948-0.331-1.621,0.281-2.377,0.644c-2.396,1.153-3.735,0.526-3.823-2.17c-1.037-0.54-2.47-0.668-2.481-2.267
						c0.033-3.301,3.821-2.198,5.062-4.077c0.917-0.138,1.238,0.671,1.837,1.06c1.868,1.22,3.301,0.599,3.768-1.561
						C111.736,170.779,110.782,169.465,112.634,169.565"/>
					<path fill="#FFFFFF" d="M88.863,174.589c1.243-2.368,2.757-4.67,1.602-7.573c2.276-0.324,1.515,2.456,3.189,2.484
						c0.869-0.456,1.853-0.307,2.773-0.513c0.851-0.146,1.681-0.554,2.571-0.178c0.89,0.471,1.334,1.273,1.692,2.141
						c0.337,1.366-0.522,2.53-0.684,3.81c-1.288,1.587-2.956,2.672-4.846,3.466c-0.259,0.047-0.515,0.091-0.772,0.139
						C91.419,178.669,90.348,176.342,88.863,174.589"/>
					<path fill="#FFFFFF" d="M88.863,174.589c4.314-2.16,4.459,1.446,5.525,3.776c-0.259,1.774,1.053,3.146,1.351,4.81
						c-3.05,1.375-3.93-1.823-5.932-2.596c-2.292,0.12-1.144-2.191-2.201-2.944C87.654,176.476,88.179,175.502,88.863,174.589"/>
					<path fill="#FFFFFF" d="M105.727,165.998c1.686-0.671-0.714-3.687,2.213-3.647c0.042,2.6,0.082,5.2,0.124,7.801
						c-0.23,0.272-0.485,0.521-0.763,0.749c-0.607,0.411-1.347,0.633-1.841,1.199c-2.162,2.475-3.738,1.693-5.013-0.837
						c-1.659-1.682-1.755-3.192,0.513-4.447C102.333,165.356,104.168,166.434,105.727,165.998"/>
					<path fill="#FFFFFF" d="M109.586,179.904c1.823-1.222,4.163-0.485,6.037-1.511c-1.601,7.195-2.919,8.551-9.02,8.81
						C108.976,185.101,111.526,183.23,109.586,179.904"/>
					<path fill="#FFFFFF" d="M103.329,152.562c0.281,3.268-1.875,6.184-1.459,9.472c-2.906,1.059-3.067-1.121-3.592-2.872
						c0.242-1.742,1.555-2.958,2.303-4.452C101.497,153.994,102.413,153.278,103.329,152.562"/>
					<path fill="#FFFFFF" d="M98.84,174.688c0.356-1.204,0.713-2.408,1.07-3.61c1.543-0.087,1.235,1.499,2.01,2.108
						c0.378,1.028-0.758,2.06,0.007,3.087c-0.388,1.273,1.188,1.26,1.46,2.104c-1.934,0.111-1.66,3.073-3.869,2.827
						C97.476,179.212,96.83,177.08,98.84,174.688"/>
					<path fill="#FFFFFF" d="M98.84,174.688c0.226,2.173,0.453,4.347,0.678,6.516c-1.693-0.66-3.369-1.345-4.358-2.979
						C95.467,176.145,96.427,174.702,98.84,174.688"/>
					<path fill="#FFFFFF" d="M87.607,177.636c0.733,0.983,1.468,1.963,2.201,2.945c-1.448,2.041,0.547,3.466,0.973,5.175
						c-0.303,0.195-0.607,0.394-0.91,0.59c-0.264-0.197-0.527-0.394-0.791-0.59C87.218,183.284,86.75,180.575,87.607,177.636"/>
					<path fill="#FFFFFF" d="M96.73,170.921c-1.265,0.017-2.193-0.654-3.074-1.421c0.846-2.173,0.682-4.446,0.723-6.699
						c0.842,0.164,1.178,0.852,1.598,1.452C97.584,166.331,98.114,168.524,96.73,170.921"/>
					<path fill="#FFFFFF" d="M98.278,159.162c1.198,0.958,2.395,1.917,3.592,2.872c0.034,0.264,0.071,0.528,0.106,0.791
						c-0.333,1.19-0.813,2.332-2.332,2.255c-1.433-0.074-2.045-1.08-2.247-2.36c-0.038-0.192-0.077-0.382-0.114-0.571
						C97.614,161.152,97.947,160.157,98.278,159.162"/>
					<path fill="#FFFFFF" d="M96.73,170.921c-0.25-2.223-0.502-4.445-0.753-6.668c0.437-0.701,0.87-1.404,1.307-2.104l0.281-0.064
						c0.311,0.924,0.503,1.882,0.87,2.788c0.138,1.545,0.403,3.096-0.315,4.583C97.843,170.112,97.453,170.666,96.73,170.921"/>
					<path fill="#FFFFFF" d="M107.474,170.402c-0.313,0.685-0.623,1.367-0.938,2.052c-0.725,2.195-3.67,1.864-4.61,3.82
						c-0.823-0.845-0.764-1.909-0.774-2.954c-0.322-0.802-0.594-1.601,0.238-2.289c1.078,1.062,2.225,1.753,3.344,0.128
						C105.476,170.081,106.243,169.577,107.474,170.402"/>
					<path fill="#FFFFFF" d="M97.517,165.084c0.016-0.999,0.033-2,0.047-3c1.175,1.911,2.638,2.201,4.412,0.742
						c0.86,1.494,1.706,3.006,3.753,3.171c-1.242,0.667-2.482,1.329-3.723,1.992C100.337,167.273,97.229,168.653,97.517,165.084"/>
					<path fill="#FFFFFF" d="M97.517,165.084c0.634,0.828,1.069,1.834,2.55,1.345c1.276-0.419,1.631,0.633,1.938,1.559
						c-2.243,0.625-2.035,1.717-0.615,3.042c-0.079,0.763-0.158,1.525-0.239,2.289c-0.414-0.748-0.827-1.496-1.242-2.243
						c-0.596-0.54-1.192-1.081-1.789-1.62C97.241,168.089,97.426,166.58,97.517,165.084"/>
				</g>
			</g>
		</g>
		<g id="toxaphene">
			<path id="toxaphene-path" fill="#366AB2" d="M194.867,167.695c1.243,13.811-9.27,25.988-23.482,27.196
				c-14.214,1.209-26.742-9.009-27.986-22.82c-1.244-13.813,9.271-25.987,23.484-27.197
				C181.094,143.666,193.623,153.882,194.867,167.695"/>
			<g>
				<defs>
					<polygon id="SVGID_97_" points="0.533,-56.323 1.067,-56.323 0.533,-55.805 					"/>
				</defs>
				<defs>
					<polygon id="SVGID_98_" points="-0.533,-57.36 -1.067,-57.36 -0.533,-57.878 					"/>
				</defs>
				<clipPath id="SVGID_99_">
					<use xlink:href="#SVGID_97_"  overflow="visible"/>
				</clipPath>
				<clipPath id="SVGID_100_" clip-path="url(#SVGID_99_)">
					<use xlink:href="#SVGID_98_"  overflow="visible"/>
				</clipPath>
				<g clip-path="url(#SVGID_100_)">
					<path fill="#FFFFFF" d="M167.01,178.856c0,0-12.198,1.293-9.935-10.561c0,0-9.208-8.38,2.809-12.403
						c3.498-1.171,0.928,0.746,0.928,0.746s1.699-7.144,8.1-5.572c0,0,3.313,0.608,3.939,4.376c0,0,5.07-3.298,8.845,1.179
						c3.777,4.474,3.05,9.283,1.434,10.263c0,0,2.425,2.021,0.967,8.149C182.643,181.155,170.322,184.705,167.01,178.856"/>
					<path fill="#FFFFFF" d="M164.71,171.082c0,0-3.678,2.671-6.464,0.434c0,0,3.391-0.315,5.514-2.257l-4.038-8.029
						c0,0,1.657,2.925,3.532,3.75c1.88,0.824,3.293,3.022,3.293,3.022s0.788-5.063,3.233-7.202c0,0-1.495,2.217,0.081,4.316
						c1.574,2.102-0.405,2.867-0.002,3.496c0,0,2.484-1.729,5.031-1.963c2.543-0.236,4.198-0.804,6.34-1.669
						c0,0-10.36,6.947-10.765,6.319c0,0-0.384,2.198,8.442,2.297c0,0-7.653,1.376-9.795,0.493l-2.141-0.887
						c0,0-6.382,4.751-8.989,15.723l-1.171-3.221c0,0,3.576-9.812,8.302-13.991"/>
					<path fill="none" stroke="#366AB2" stroke-miterlimit="10" d="M164.71,171.082c0,0-3.678,2.671-6.464,0.434
						c0,0,3.391-0.315,5.514-2.257l-4.038-8.029c0,0,1.657,2.925,3.532,3.75c1.88,0.824,3.293,3.022,3.293,3.022
						s0.788-5.063,3.233-7.202c0,0-1.495,2.217,0.081,4.316c1.574,2.102-0.405,2.867-0.002,3.496c0,0,2.484-1.729,5.031-1.963
						c2.543-0.236,4.198-0.804,6.34-1.669c0,0-10.36,6.947-10.765,6.319c0,0-0.384,2.198,8.442,2.297c0,0-7.653,1.376-9.795,0.493
						l-2.141-0.887c0,0-6.382,4.751-8.989,15.723l-1.171-3.221c0,0,3.576-9.812,8.302-13.991"/>
				</g>
			</g>
		</g>
		<g id="pcb">
			<path id="pcb-path" fill="#366AB2" d="M59.612,226.804c1.243,13.811-9.27,25.988-23.482,27.196
				c-14.214,1.209-26.742-9.009-27.986-22.82c-1.244-13.813,9.271-25.987,23.484-27.197
				C45.839,202.774,58.368,212.991,59.612,226.804"/>
			<g>
				<defs>
					<polygon id="SVGID_101_" points="0.533,-56.323 1.067,-56.323 0.533,-55.805 					"/>
				</defs>
				<defs>
					<polygon id="SVGID_102_" points="-0.533,-57.36 -1.067,-57.36 -0.533,-57.878 					"/>
				</defs>
				<clipPath id="SVGID_103_">
					<use xlink:href="#SVGID_101_"  overflow="visible"/>
				</clipPath>
				<clipPath id="SVGID_104_" clip-path="url(#SVGID_103_)">
					<use xlink:href="#SVGID_102_"  overflow="visible"/>
				</clipPath>
				<path clip-path="url(#SVGID_104_)" fill="#FFFFFF" d="M44.615,209.823h2.169c0,0,0.61,6.715-3.254,9.745
					c0,0-1.083,1.252-4.674,3.423c-3.591,2.173-3.184,3.294-3.524,6.19l2.101,0.065c0,0,0,1.909,0.813,2.304
					c0.813,0.394,1.626,0.066,1.626,2.436v9.023h-2.167v6.583h-1.898v-6.651h-1.22v4.478c0,0,0.204,1.056-0.949,1.056
					c0,0-0.745,0.063-0.745-0.461v-5.005l-1.558,0.063v6.388h-1.762v-6.585h-2.236v-8.427c0,0,0.135-2.567,1.965-2.634
					c0,0,0.61-0.79,0.813-2.238h2.169c0,0-0.204-5.203,2.846-6.585c0,0,1.666-1.33,7.25-5.398
					C42.922,217.197,44.343,215.946,44.615,209.823"/>
			</g>
		</g>
		<g id="dioxin_furan">
			<path id="dioxin_furan-path" fill="#366AB2" d="M127.199,226.804c1.243,13.811-9.27,25.988-23.482,27.196
				c-14.214,1.209-26.742-9.009-27.986-22.82c-1.244-13.813,9.271-25.987,23.484-27.197
				C113.427,202.774,125.955,212.991,127.199,226.804"/>
			<g>
				<defs>
					<polygon id="SVGID_105_" points="0.533,-56.323 1.067,-56.323 0.533,-55.805 					"/>
				</defs>
				<defs>
					<polygon id="SVGID_106_" points="-0.533,-57.36 -1.067,-57.36 -0.533,-57.878 					"/>
				</defs>
				<clipPath id="SVGID_107_">
					<use xlink:href="#SVGID_105_"  overflow="visible"/>
				</clipPath>
				<clipPath id="SVGID_108_" clip-path="url(#SVGID_107_)">
					<use xlink:href="#SVGID_106_"  overflow="visible"/>
				</clipPath>
				<polygon clip-path="url(#SVGID_108_)" fill="#FFFFFF" points="118.666,229.398 118.666,225.596 109.018,221.248 
					109.018,229.398 107.758,229.398 107.758,225.596 98.11,221.248 98.11,229.398 95.03,229.398 95.03,217.167 90.837,217.167 
					90.837,229.398 89.159,229.398 89.159,217.167 84.964,217.167 84.964,229.398 81.327,229.398 81.327,240.814 121.603,240.814 
					121.603,229.398 				"/>
			</g>
		</g>
	</g>
	<g id="banned">
		<rect x="7.508" y="268.646" fill="#40BDA4" width="58.257" height="18.14"/>
		<rect x="65.764" y="268.646" fill="#F2E109" width="70.611" height="18.14"/>
		<rect x="135.917" y="268.646" fill="#DB2C29" width="59.91" height="18.14"/>
		<rect x="7.508" y="286.787" fill="#366AB2" width="58.257" height="18.14"/>
		<text transform="matrix(1.029 0 0 1 13.9545 281.168)" fill="#FFFFFF" font-family="'ArialMT'" font-size="10.8841">BANNED</text>
		<text transform="matrix(1.029 0 0 1 137.1689 281.168)" fill="#FFFFFF" font-family="'ArialMT'" font-size="10.8841">ALLOWED</text>
		<text transform="matrix(1.029 0 0 1 67.5556 281.168)" fill="#FFFFFF" font-family="'ArialMT'" font-size="10.8841">RESTRICTED</text>
		<text transform="matrix(1.029 0 0 1 13.9545 299.3085)" fill="#FFFFFF" font-family="'ArialMT'" font-size="10.8841">NO INFO</text>
	</g>
	<g id="chemical-labels">
		
			<text transform="matrix(0.9866 -0.2762 0.2842 0.9588 24.8302 26.5131)" fill="#40BDA4" font-family="'ArialMT'" font-size="6.2334">A</text>
		
			<text transform="matrix(0.9866 -0.2762 0.2842 0.9588 28.4766 25.5147)" fill="#40BDA4" font-family="'ArialMT'" font-size="6.2334">L</text>
		
			<text transform="matrix(0.9866 -0.2762 0.2842 0.9588 31.3123 25.0328)" fill="#40BDA4" font-family="'ArialMT'" font-size="6.2334">D</text>
		
			<text transform="matrix(0.9866 -0.2762 0.2842 0.9588 35.4242 24.9932)" fill="#40BDA4" font-family="'ArialMT'" font-size="6.2334">R</text>
		
			<text transform="matrix(0.9866 -0.2762 0.2842 0.9588 38.745 25.4387)" fill="#40BDA4" font-family="'ArialMT'" font-size="6.2334">I</text>
		
			<text transform="matrix(0.9866 -0.2762 0.2842 0.9588 40.1547 25.6663)" fill="#40BDA4" font-family="'ArialMT'" font-size="6.2334">N</text>
		
			<text transform="matrix(0.8863 -0.4937 0.508 0.8613 87.0006 29.2256)" fill="#40BDA4" font-family="'ArialMT'" font-size="6.2647">C</text>
		
			<text transform="matrix(0.8863 -0.4937 0.508 0.8613 90.0796 27.4792)" fill="#40BDA4" font-family="'ArialMT'" font-size="6.2647">H</text>
		
			<text transform="matrix(0.8863 -0.4937 0.508 0.8613 93.847 26.0779)" fill="#40BDA4" font-family="'ArialMT'" font-size="6.2647">L</text>
		
			<text transform="matrix(0.8863 -0.4937 0.508 0.8613 96.6338 25.3573)" fill="#40BDA4" font-family="'ArialMT'" font-size="6.2647">O</text>
		
			<text transform="matrix(0.8863 -0.4937 0.508 0.8613 100.8746 24.9526)" fill="#40BDA4" font-family="'ArialMT'" font-size="6.2647">R</text>
		
			<text transform="matrix(0.8863 -0.4937 0.508 0.8613 104.1753 25.0519)" fill="#40BDA4" font-family="'ArialMT'" font-size="6.2647">D</text>
		
			<text transform="matrix(0.8863 -0.4937 0.508 0.8613 108.2128 25.7978)" fill="#40BDA4" font-family="'ArialMT'" font-size="6.2647">A</text>
		
			<text transform="matrix(0.8863 -0.4937 0.508 0.8613 111.7702 26.998)" fill="#40BDA4" font-family="'ArialMT'" font-size="6.2647">N</text>
		
			<text transform="matrix(0.8863 -0.4937 0.508 0.8613 115.3387 28.8801)" fill="#40BDA4" font-family="'ArialMT'" font-size="6.2647">E</text>
		
			<text transform="matrix(1.0207 -0.1234 0.127 0.9919 163.8021 25.4533)" fill="#40BDA4" font-family="'ArialMT'" font-size="6.2226">D</text>
		
			<text transform="matrix(1.0207 -0.1234 0.127 0.9919 167.8693 24.9491)" fill="#40BDA4" font-family="'ArialMT'" font-size="6.2226">D</text>
		
			<text transform="matrix(1.0207 -0.1234 0.127 0.9919 171.9892 25.1114)" fill="#40BDA4" font-family="'ArialMT'" font-size="6.2226">T</text>
		
			<text transform="matrix(0.9493 -0.375 0.3859 0.9225 22.1162 86.7442)" fill="#40BDA4" font-family="'ArialMT'" font-size="6.2456">D</text>
		
			<text transform="matrix(0.9493 -0.375 0.3859 0.9225 25.9821 85.2875)" fill="#40BDA4" font-family="'ArialMT'" font-size="6.2456">I</text>
		
			<text transform="matrix(0.9493 -0.375 0.3859 0.9225 27.3531 84.8685)" fill="#40BDA4" font-family="'ArialMT'" font-size="6.2456">E</text>
		
			<text transform="matrix(0.9493 -0.375 0.3859 0.9225 30.3237 84.3051)" fill="#40BDA4" font-family="'ArialMT'" font-size="6.2456">L</text>
		
			<text transform="matrix(0.9493 -0.375 0.3859 0.9225 33.2008 84.0343)" fill="#40BDA4" font-family="'ArialMT'" font-size="6.2456">D</text>
		
			<text transform="matrix(0.9493 -0.375 0.3859 0.9225 37.3063 84.2788)" fill="#40BDA4" font-family="'ArialMT'" font-size="6.2456">R</text>
		
			<text transform="matrix(0.9493 -0.375 0.3859 0.9225 40.5789 84.9663)" fill="#40BDA4" font-family="'ArialMT'" font-size="6.2456">I</text>
		
			<text transform="matrix(0.9493 -0.375 0.3859 0.9225 41.9617 85.2951)" fill="#40BDA4" font-family="'ArialMT'" font-size="6.2456">N</text>
		
			<text transform="matrix(0.9626 -0.3435 0.3535 0.9354 91.0379 86.1765)" fill="#40BDA4" font-family="'ArialMT'" font-size="6.2412">E</text>
		
			<text transform="matrix(0.9626 -0.3435 0.3535 0.9354 93.8435 85.1266)" fill="#40BDA4" font-family="'ArialMT'" font-size="6.2412">N</text>
		
			<text transform="matrix(0.9626 -0.3435 0.3535 0.9354 97.8053 84.275)" fill="#40BDA4" font-family="'ArialMT'" font-size="6.2412">D</text>
		
			<text transform="matrix(0.9626 -0.3435 0.3535 0.9354 101.9126 84.0624)" fill="#40BDA4" font-family="'ArialMT'" font-size="6.2412">R</text>
		
			<text transform="matrix(0.9626 -0.3435 0.3535 0.9354 105.2411 84.3741)" fill="#40BDA4" font-family="'ArialMT'" font-size="6.2412">I</text>
		
			<text transform="matrix(0.9626 -0.3435 0.3535 0.9354 106.6511 84.5425)" fill="#40BDA4" font-family="'ArialMT'" font-size="6.2412">N</text>
		
			<text transform="matrix(0.8771 -0.5082 0.523 0.8524 154.0468 88.7041)" fill="#40BDA4" font-family="'ArialMT'" font-size="6.2672">H</text>
		
			<text transform="matrix(0.8771 -0.5082 0.523 0.8524 157.5169 86.723)" fill="#40BDA4" font-family="'ArialMT'" font-size="6.2672">E</text>
		
			<text transform="matrix(0.8771 -0.5082 0.523 0.8524 160.3005 85.5549)" fill="#40BDA4" font-family="'ArialMT'" font-size="6.2672">P</text>
		
			<text transform="matrix(0.8771 -0.5082 0.523 0.8524 163.4417 84.6702)" fill="#40BDA4" font-family="'ArialMT'" font-size="6.2672">T</text>
		
			<text transform="matrix(0.8771 -0.5082 0.523 0.8524 166.4503 84.1669)" fill="#40BDA4" font-family="'ArialMT'" font-size="6.2672">A</text>
		
			<text transform="matrix(0.8771 -0.5082 0.523 0.8524 170.2175 84.0666)" fill="#40BDA4" font-family="'ArialMT'" font-size="6.2672">C</text>
		
			<text transform="matrix(0.8771 -0.5082 0.523 0.8524 173.7543 84.4397)" fill="#40BDA4" font-family="'ArialMT'" font-size="6.2672">H</text>
		
			<text transform="matrix(0.8771 -0.5082 0.523 0.8524 177.658 85.4883)" fill="#40BDA4" font-family="'ArialMT'" font-size="6.2672">L</text>
		
			<text transform="matrix(0.8771 -0.5082 0.523 0.8524 180.3365 86.5167)" fill="#40BDA4" font-family="'ArialMT'" font-size="6.2672">O</text>
		
			<text transform="matrix(0.8771 -0.5082 0.523 0.8524 183.9905 88.6399)" fill="#40BDA4" font-family="'ArialMT'" font-size="6.2672">R</text>
		<g>
			
				<text transform="matrix(0.4853 -0.857 0.8818 0.4716 10.2264 158.0126)" fill="#40BDA4" font-family="'ArialMT'" font-size="6.3584">H</text>
			
				<text transform="matrix(0.4853 -0.857 0.8818 0.4716 12.1913 154.5945)" fill="#40BDA4" font-family="'ArialMT'" font-size="6.3584">E</text>
			
				<text transform="matrix(0.4853 -0.857 0.8818 0.4716 13.9706 152.2234)" fill="#40BDA4" font-family="'ArialMT'" font-size="6.3584">X</text>
			
				<text transform="matrix(0.4853 -0.857 0.8818 0.4716 16.3893 149.7508)" fill="#40BDA4" font-family="'ArialMT'" font-size="6.3584">A</text>
			
				<text transform="matrix(0.4853 -0.857 0.8818 0.4716 19.3496 147.4831)" fill="#40BDA4" font-family="'ArialMT'" font-size="6.3584">C</text>
			
				<text transform="matrix(0.4853 -0.857 0.8818 0.4716 22.4217 145.7272)" fill="#40BDA4" font-family="'ArialMT'" font-size="6.3584">H</text>
			
				<text transform="matrix(0.4853 -0.857 0.8818 0.4716 26.1843 144.3124)" fill="#40BDA4" font-family="'ArialMT'" font-size="6.3584">L</text>
			
				<text transform="matrix(0.4853 -0.857 0.8818 0.4716 28.9623 143.5878)" fill="#40BDA4" font-family="'ArialMT'" font-size="6.3584">O</text>
			
				<text transform="matrix(0.4853 -0.857 0.8818 0.4716 33.2065 143.1757)" fill="#40BDA4" font-family="'ArialMT'" font-size="6.3584">R</text>
			
				<text transform="matrix(0.4853 -0.857 0.8818 0.4716 36.4987 143.2599)" fill="#40BDA4" font-family="'ArialMT'" font-size="6.3584">O</text>
			
				<text transform="matrix(0.4853 -0.857 0.8818 0.4716 40.6865 144.0467)" fill="#40BDA4" font-family="'ArialMT'" font-size="6.3584">B</text>
			
				<text transform="matrix(0.4853 -0.857 0.8818 0.4716 43.8448 145.1092)" fill="#40BDA4" font-family="'ArialMT'" font-size="6.3584">E</text>
			
				<text transform="matrix(0.4853 -0.857 0.8818 0.4716 46.5644 146.3572)" fill="#40BDA4" font-family="'ArialMT'" font-size="6.3584">N</text>
			
				<text transform="matrix(0.7367 0.6785 -0.6982 0.7159 49.8243 147.8737)" fill="#40BDA4" font-family="'ArialMT'" font-size="6.3055">Z</text>
			
				<text transform="matrix(0.7367 0.6785 -0.6982 0.7159 52.2961 150.1568)" fill="#40BDA4" font-family="'ArialMT'" font-size="6.3055">E</text>
			
				<text transform="matrix(0.7367 0.6785 -0.6982 0.7159 54.2651 152.3658)" fill="#40BDA4" font-family="'ArialMT'" font-size="6.3055">N</text>
			
				<text transform="matrix(0.7367 0.6785 -0.6982 0.7159 56.3518 155.7697)" fill="#40BDA4" font-family="'ArialMT'" font-size="6.3055">E</text>
		</g>
		
			<text transform="matrix(1.0054 -0.207 0.213 0.977 93.5407 144.2823)" fill="#40BDA4" font-family="'ArialMT'" font-size="6.2275">M</text>
		<text transform="matrix(1.0054 -0.207 0.213 0.977 98.452 143.3749)" fill="#40BDA4" font-family="'ArialMT'" font-size="6.2275">I</text>
		
			<text transform="matrix(1.0054 -0.207 0.213 0.977 99.8801 143.2087)" fill="#40BDA4" font-family="'ArialMT'" font-size="6.2275">R</text>
		
			<text transform="matrix(1.0054 -0.207 0.213 0.977 103.2068 143.2364)" fill="#40BDA4" font-family="'ArialMT'" font-size="6.2275">E</text>
		
			<text transform="matrix(1.0054 -0.207 0.213 0.977 106.2007 143.5879)" fill="#40BDA4" font-family="'ArialMT'" font-size="6.2275">X</text>
		
			<text transform="matrix(0.8702 -0.5186 0.5337 0.8457 154.2077 147.743)" fill="#40BDA4" font-family="'ArialMT'" font-size="6.2696">T</text>
		
			<text transform="matrix(0.8702 -0.5186 0.5337 0.8457 156.7694 146.1572)" fill="#40BDA4" font-family="'ArialMT'" font-size="6.2696">O</text>
		
			<text transform="matrix(0.8702 -0.5186 0.5337 0.8457 160.683 144.5254)" fill="#40BDA4" font-family="'ArialMT'" font-size="6.2696">X</text>
		
			<text transform="matrix(0.8702 -0.5186 0.5337 0.8457 164.083 143.6226)" fill="#40BDA4" font-family="'ArialMT'" font-size="6.2696">A</text>
		
			<text transform="matrix(0.8702 -0.5186 0.5337 0.8457 167.8266 143.1918)" fill="#40BDA4" font-family="'ArialMT'" font-size="6.2696">P</text>
		
			<text transform="matrix(0.8702 -0.5186 0.5337 0.8457 171.0898 143.2101)" fill="#40BDA4" font-family="'ArialMT'" font-size="6.2696">H</text>
		
			<text transform="matrix(0.8702 -0.5186 0.5337 0.8457 175.0725 143.8548)" fill="#40BDA4" font-family="'ArialMT'" font-size="6.2696">E</text>
		
			<text transform="matrix(0.8702 -0.5186 0.5337 0.8457 177.9613 144.6605)" fill="#40BDA4" font-family="'ArialMT'" font-size="6.2696">N</text>
		
			<text transform="matrix(0.8702 -0.5186 0.5337 0.8457 181.6493 146.3357)" fill="#40BDA4" font-family="'ArialMT'" font-size="6.2696">E</text>
		
			<text transform="matrix(1.0224 -0.11 0.1132 0.9936 29.2871 202.6619)" fill="#40BDA4" font-family="'ArialMT'" font-size="6.2215">P</text>
		
			<text transform="matrix(1.0224 -0.11 0.1132 0.9936 32.5416 202.2944)" fill="#40BDA4" font-family="'ArialMT'" font-size="6.2215">C</text>
		
			<text transform="matrix(1.0224 -0.11 0.1132 0.9936 36.1041 202.3473)" fill="#40BDA4" font-family="'ArialMT'" font-size="6.2215">B</text>
		
			<text transform="matrix(1.0224 -0.11 0.1132 0.9936 39.4256 202.8953)" fill="#40BDA4" font-family="'ArialMT'" font-size="6.2215">s</text>
		
			<text transform="matrix(0.811 -0.5982 0.6156 0.7881 84.0963 208.6913)" fill="#40BDA4" font-family="'ArialMT'" font-size="6.2859">D</text>
		
			<text transform="matrix(0.811 -0.5982 0.6156 0.7881 87.4314 206.3138)" fill="#40BDA4" font-family="'ArialMT'" font-size="6.2859">I</text>
		
			<text transform="matrix(0.811 -0.5982 0.6156 0.7881 88.6105 205.5293)" fill="#40BDA4" font-family="'ArialMT'" font-size="6.2859">O</text>
		
			<text transform="matrix(0.811 -0.5982 0.6156 0.7881 92.4877 203.8154)" fill="#40BDA4" font-family="'ArialMT'" font-size="6.2859">X</text>
		
			<text transform="matrix(0.811 -0.5982 0.6156 0.7881 95.91 202.8958)" fill="#40BDA4" font-family="'ArialMT'" font-size="6.2859">I</text>
		
			<text transform="matrix(0.811 -0.5982 0.6156 0.7881 97.2959 202.5647)" fill="#40BDA4" font-family="'ArialMT'" font-size="6.2859">N</text>
		
			<text transform="matrix(0.811 -0.5982 0.6156 0.7881 101.387 202.3165)" fill="#40BDA4" font-family="'ArialMT'" font-size="6.2859"> </text>
		
			<text transform="matrix(0.811 -0.5982 0.6156 0.7881 102.6505 202.3075)" fill="#40BDA4" font-family="'ArialMT'" font-size="6.2859">F</text>
		
			<text transform="matrix(0.811 -0.5982 0.6156 0.7881 105.6225 202.5802)" fill="#40BDA4" font-family="'ArialMT'" font-size="6.2859">U</text>
		
			<text transform="matrix(0.811 -0.5982 0.6156 0.7881 109.5018 203.5322)" fill="#40BDA4" font-family="'ArialMT'" font-size="6.2859">R</text>
		
			<text transform="matrix(0.811 -0.5982 0.6156 0.7881 112.5664 204.709)" fill="#40BDA4" font-family="'ArialMT'" font-size="6.2859">A</text>
		
			<text transform="matrix(0.811 -0.5982 0.6156 0.7881 115.8461 206.5068)" fill="#40BDA4" font-family="'ArialMT'" font-size="6.2859">N</text>
	</g>
</g>
</svg>
