<?xml version="1.0" encoding="utf-8"?>
<!-- Generator: Adobe Illustrator 18.0.0, SVG Export Plug-In . SVG Version: 6.00 Build 0)  -->
<!DOCTYPE svg PUBLIC "-//W3C//DTD SVG 1.0//EN" "http://www.w3.org/TR/2001/REC-SVG-20010904/DTD/svg10.dtd">
<svg version="1.0" id="Layer_1" xmlns="http://www.w3.org/2000/svg" xmlns:xlink="http://www.w3.org/1999/xlink" x="0px" y="0px"
	 viewBox="0 0 612 792" enable-background="new 0 0 612 792" xml:space="preserve">
<g>
	<path fill="#366AB2" d="M238.499,319.179c2.33,26.647-17.381,50.142-44.029,52.472c-26.651,2.333-50.142-17.383-52.474-44.03
		c-2.332-26.651,17.383-50.139,44.032-52.474C212.675,272.817,236.166,292.528,238.499,319.179"/>
	<path fill="#366AB2" d="M111.773,319.179c2.33,26.647-17.381,50.142-44.029,52.472c-26.651,2.333-50.142-17.383-52.474-44.03
		c-2.332-26.651,17.383-50.139,44.032-52.474C85.949,272.817,109.44,292.528,111.773,319.179"/>
	<path fill="#366AB2" d="M365.376,319.179c2.33,26.647-17.381,50.142-44.029,52.472c-26.651,2.333-50.142-17.383-52.474-44.03
		c-2.332-26.651,17.383-50.139,44.032-52.474C339.552,272.817,363.043,292.528,365.376,319.179"/>
	<path fill="#366AB2" d="M365.376,433.223c2.33,26.647-17.381,50.142-44.029,52.472c-26.651,2.333-50.142-17.383-52.474-44.03
		c-2.332-26.651,17.383-50.139,44.032-52.474C339.552,386.861,363.043,406.572,365.376,433.223"/>
	<path fill="#366AB2" d="M238.499,547.268c2.33,26.647-17.381,50.142-44.029,52.472c-26.651,2.333-50.142-17.383-52.474-44.03
		c-2.332-26.651,17.383-50.139,44.032-52.474C212.675,500.905,236.166,520.617,238.499,547.268"/>
	<path fill="#366AB2" d="M111.773,547.268c2.33,26.647-17.381,50.142-44.029,52.472c-26.651,2.333-50.142-17.383-52.474-44.03
		c-2.332-26.651,17.383-50.139,44.032-52.474C85.949,500.905,109.44,520.617,111.773,547.268"/>
	<path fill="#366AB2" d="M238.499,433.223c2.33,26.647-17.381,50.142-44.029,52.472c-26.651,2.333-50.142-17.383-52.474-44.03
		c-2.332-26.651,17.383-50.139,44.032-52.474C212.675,386.861,236.166,406.572,238.499,433.223"/>
	<path fill="#366AB2" d="M111.773,433.223c2.33,26.647-17.381,50.142-44.029,52.472c-26.651,2.333-50.142-17.383-52.474-44.03
		c-2.332-26.651,17.383-50.139,44.032-52.474C85.949,386.861,109.44,406.572,111.773,433.223"/>
	<path fill="#366AB2" d="M111.773,205.135c2.33,26.647-17.381,50.142-44.029,52.472c-26.651,2.333-50.142-17.383-52.474-44.03
		c-2.332-26.651,17.383-50.139,44.032-52.474C85.949,158.772,109.44,178.484,111.773,205.135"/>
	<path fill="#366AB2" d="M238.499,205.135c2.33,26.647-17.381,50.142-44.029,52.472c-26.651,2.333-50.142-17.383-52.474-44.03
		c-2.332-26.651,17.383-50.139,44.032-52.474C212.675,158.772,236.166,178.484,238.499,205.135"/>
	<path fill="#366AB2" d="M365.376,205.135c2.33,26.647-17.381,50.142-44.029,52.472c-26.651,2.333-50.142-17.383-52.474-44.03
		c-2.332-26.651,17.383-50.139,44.032-52.474C339.552,158.772,363.043,178.484,365.376,205.135"/>
	
		<ellipse fill="none" stroke="#40BDA4" stroke-width="3" stroke-miterlimit="10" cx="191.996" cy="79.016" rx="47.147" ry="48.355"/>
	<text transform="matrix(1 0 0 1 174.2422 101.2883)"><tspan x="0" y="0" fill="#3DBBA2" font-family="'PFCentroSlabPro-Italic'" font-size="72">3</tspan><tspan x="37.007" y="0" fill="#3DBBA2" font-family="'PFCentroSlabPro-Italic'" font-size="72"> </tspan></text>
</g>
<g>
	<defs>
		<rect id="SVGID_1_" x="18.499" y="-1920.64" width="920" height="4910"/>
	</defs>
	<clipPath id="SVGID_2_">
		<use xlink:href="#SVGID_1_"  overflow="visible"/>
	</clipPath>
	<g clip-path="url(#SVGID_2_)">
		<defs>
			<rect id="SVGID_3_" x="456.444" y="2416.742" width="59" height="53.472"/>
		</defs>
		<clipPath id="SVGID_4_">
			<use xlink:href="#SVGID_3_"  overflow="visible"/>
		</clipPath>
		<g clip-path="url(#SVGID_4_)">
			<defs>
				<rect id="SVGID_5_" x="456.444" y="2416.742" width="59" height="53.472"/>
			</defs>
			<clipPath id="SVGID_6_">
				<use xlink:href="#SVGID_5_"  overflow="visible"/>
			</clipPath>
			<path clip-path="url(#SVGID_6_)" fill="#366AB2" d="M515.444,2431.031v0.228c-1.205,0.933-3.138,2.509-5.761,4.611
				c-1.844,1.478-4.373,4.14-5.072,4.154c-1.537,0.016-1.735-2.647-3.456-2.767v32.956h-30.422v-32.732
				c-1.225-0.288-1.805,2.038-3.227,2.306c-3.917-2.609-7.254-5.801-11.062-8.528v-0.228c4.076-2.643,6.48-7.695,10.833-10.135
				c3.129-1.76,6.748-2.127,10.139-4.154c3.287,5.037,13.932,4.824,17.284,0c3.238,1.601,6.698,2.984,10.372,4.154
				C508.414,2424.388,512.003,2427.64,515.444,2431.031"/>
		</g>
	</g>
	<g clip-path="url(#SVGID_2_)">
		<defs>
			<rect id="SVGID_7_" x="598.704" y="2418.15" width="59" height="53.467"/>
		</defs>
		<clipPath id="SVGID_8_">
			<use xlink:href="#SVGID_7_"  overflow="visible"/>
		</clipPath>
		<g clip-path="url(#SVGID_8_)">
			<defs>
				<rect id="SVGID_9_" x="598.704" y="2418.15" width="59" height="53.467"/>
			</defs>
			<clipPath id="SVGID_10_">
				<use xlink:href="#SVGID_9_"  overflow="visible"/>
			</clipPath>
			<path clip-path="url(#SVGID_10_)" fill="#366AB2" d="M657.704,2432.439v0.228c-1.205,0.933-3.139,2.509-5.761,4.611
				c-1.844,1.478-4.373,4.145-5.072,4.149c-1.537,0.025-1.735-2.643-3.456-2.767v32.956h-30.422v-32.728
				c-1.225-0.293-1.805,2.037-3.228,2.306c-3.916-2.604-7.253-5.796-11.061-8.528v-0.228c4.075-2.643,6.48-7.695,10.833-10.14
				c3.128-1.76,6.748-2.127,10.139-4.149c3.287,5.032,13.932,4.824,17.284,0c3.237,1.601,6.698,2.984,10.372,4.149
				C650.674,2425.801,654.263,2429.043,657.704,2432.439"/>
		</g>
	</g>
	<g clip-path="url(#SVGID_2_)">
		<defs>
			<rect id="SVGID_11_" x="665.178" y="2418.15" width="59" height="53.467"/>
		</defs>
		<clipPath id="SVGID_12_">
			<use xlink:href="#SVGID_11_"  overflow="visible"/>
		</clipPath>
		<g clip-path="url(#SVGID_12_)">
			<defs>
				<rect id="SVGID_13_" x="665.178" y="2418.15" width="59" height="53.467"/>
			</defs>
			<clipPath id="SVGID_14_">
				<use xlink:href="#SVGID_13_"  overflow="visible"/>
			</clipPath>
			<path clip-path="url(#SVGID_14_)" fill="#366AB2" d="M724.178,2432.439v0.228c-1.205,0.933-3.139,2.509-5.761,4.611
				c-1.844,1.478-4.373,4.145-5.072,4.149c-1.537,0.025-1.735-2.643-3.456-2.767v32.956h-30.422v-32.728
				c-1.225-0.293-1.805,2.037-3.228,2.306c-3.916-2.604-7.253-5.796-11.061-8.528v-0.228c4.075-2.643,6.48-7.695,10.833-10.14
				c3.128-1.76,6.748-2.127,10.139-4.149c3.287,5.032,13.932,4.824,17.284,0c3.237,1.601,6.698,2.984,10.372,4.149
				C717.147,2425.801,720.737,2429.043,724.178,2432.439"/>
		</g>
	</g>
	<polygon clip-path="url(#SVGID_2_)" fill="#FFFFFF" points="352.691,650.192 352.691,646 342.351,641.203 342.351,650.192 
		341,650.192 341,646 330.66,641.203 330.66,650.192 327.36,650.192 327.36,636.703 322.866,636.703 322.866,650.192 
		321.067,650.192 321.067,636.703 316.571,636.703 316.571,650.192 312.674,650.192 312.674,662.782 355.838,662.782 
		355.838,650.192 	"/>
	<path clip-path="url(#SVGID_2_)" fill="#FFFFFF" d="M471.268,577.275h2.107c0,0,0.592,6.714-3.162,9.743
		c0,0-1.052,1.252-4.541,3.423c-3.49,2.173-3.094,3.293-3.424,6.189l2.041,0.065c0,0,0,1.909,0.79,2.304
		c0.79,0.394,1.58,0.066,1.58,2.435v9.021h-2.106v6.582h-1.844v-6.649h-1.185v4.477c0,0,0.198,1.056-0.922,1.056
		c0,0-0.724,0.063-0.724-0.461v-5.004l-1.514,0.064v6.387h-1.711v-6.585h-2.173v-8.426c0,0,0.131-2.566,1.909-2.634
		c0,0,0.593-0.79,0.79-2.237h2.107c0,0-0.198-5.202,2.765-6.584c0,0,1.619-1.33,7.044-5.396
		C469.622,584.648,471.004,583.397,471.268,577.275"/>
	<path clip-path="url(#SVGID_2_)" fill="#FFFFFD" d="M529.786,290.498c0,0-3.811-5.605,5.607-12.331
		c9.416-6.727,12.108-0.225,15.021,0.672l2.915,0.897c0,0-0.448-0.897,0.785-1.122l1.233-0.224c0,0-0.225-0.335,0.673-0.785
		c0.897-0.448,2.467,1.907,3.139,3.7c0,0,3.026,0.224,7.96,6.054c0,0,1.569,2.243-1.682,2.579l-1.345,1.121v-1.008l-0.896,1.682
		l0.223-2.021l-1.681,2.244l0.673-2.017c0,0-3.14,0.113-6.727-1.458c0,0-3.475,0.784-4.036,1.344v1.684c0,0,3.701,1.344,1.907,2.242
		c-1.795,0.897-3.252-0.337-3.924-0.785l-0.673-2.242c0,0-1.122,1.01-4.71,2.019c0,0,3.924,1.232-0.56,1.454
		c-4.485,0.226-6.434-0.336-9.754-0.336c-0.168,0-0.335-0.335-1.007-0.672c0,0-1.234-0.112-3.588,0.672c0,0-9.417,4.15-1.234,6.504
		c0,0,2.242,0.503,10.706,1.233c0,0,4.261,0.393,6.447,4.147c0,0,0.056,2.356-0.897,3.477c0,0,1.135-3.063-2.634-5.159
		c-1.514-0.839-3.532-0.839-4.542-1.007c-4.035-0.672-6.614-0.336-9.529-0.786c-2.915-0.448-4.82-1.456-5.155-3.475
		c-0.338-2.02,1.413-3.804,1.679-4.037c0.45-0.393,4.149-2.802,4.149-2.802L529.786,290.498z"/>
	<path clip-path="url(#SVGID_2_)" fill="none" stroke="#FFFFFF" stroke-width="0.75" stroke-miterlimit="10" d="M529.786,290.498
		c0,0-3.811-5.605,5.607-12.331c9.416-6.727,12.108-0.225,15.021,0.672l2.915,0.897c0,0-0.448-0.897,0.785-1.122l1.233-0.224
		c0,0-0.225-0.335,0.673-0.785c0.897-0.448,2.467,1.907,3.139,3.7c0,0,3.026,0.224,7.96,6.054c0,0,1.569,2.243-1.682,2.579
		l-1.345,1.121v-1.008l-0.896,1.682l0.223-2.021l-1.681,2.244l0.673-2.017c0,0-3.14,0.113-6.727-1.458c0,0-3.475,0.784-4.036,1.344
		v1.684c0,0,3.701,1.344,1.907,2.242c-1.795,0.897-3.252-0.337-3.924-0.785l-0.673-2.242c0,0-1.122,1.01-4.71,2.019
		c0,0,3.924,1.232-0.56,1.454c-4.485,0.226-6.434-0.336-9.754-0.336c-0.168,0-0.335-0.335-1.007-0.672c0,0-1.234-0.112-3.588,0.672
		c0,0-9.417,4.15-1.234,6.504c0,0,2.242,0.503,10.706,1.233c0,0,4.261,0.393,6.447,4.147c0,0,0.056,2.356-0.897,3.477
		c0,0,1.135-3.063-2.634-5.159c-1.514-0.839-3.532-0.839-4.542-1.007c-4.035-0.672-6.614-0.336-9.529-0.786
		c-2.915-0.448-4.82-1.456-5.155-3.475c-0.338-2.02,1.413-3.804,1.679-4.037c0.45-0.393,4.149-2.802,4.149-2.802L529.786,290.498z"
		/>
	<path clip-path="url(#SVGID_2_)" fill="#FFFFFF" d="M560.784,338.893l-1.97,0.164c0,0-0.245-0.818,0.409-1.393v-0.657
		c0,0-1.474,0.657-1.065,2.214c0,0-0.573,0.165-0.738,0.902c0,0-1.393,0.492-1.557-1.477c-0.165-1.966-0.128-1.416-1.067-1.885
		c-1.312-0.655-3.165,0.695-2.295,0.984c1.722,0.576,1.722,0.411,2.05,0.411c0,0,0.738,1.065,0.901,1.721
		c0.15,0.6,0.428,0.876,1.313,0.986c0.081,0.008-0.424,0.244-0.328,0.244c1.148,0,0.656,0.327,0.656,0.327s-1.066,0.985-1.804,4.181
		l-1.721,0.493c0,0-0.165-0.654-0.492-1.885c-0.327-1.23-1.97-2.952-1.97-2.952l-0.819-0.819l-0.574,0.736
		c0,0-3.608-1.476-4.263-1.311c-0.656,0.163-0.984,0.163-0.984,0.163v0.901l1.639-0.079c0,0,1.887,0.162,2.624,0.735l0.74,0.573
		l-0.822,0.741c0,0,1.558,0.164,4.102,4.261c2.54,4.101,2.949,0.987,2.949,0.987l-0.246,1.72c0,0-1.803,0.164-2.295,0.492
		c-0.491,0.328-3.198,3.852-4.099,5.246l0.328,1.559c0,0-1.968,3.034-5.165,3.278l-0.084,0.576c0,0,4.347-0.246,5.905-3.034
		l0.245,0.492l3.281-5.74c0,0,0.491,0.164,0.737,0.164s0.246,6.395,0.246,6.395s-1.148-0.081-1.232,0.492
		c-0.08,0.572,0.084,7.951,0.084,7.951l0.573,0.248c0,0-0.163,1.147-1.147,1.723c-0.984,0.572-4.1,1.311-4.1,1.311l-0.082,0.655
		c0,0,5.658-0.737,6.314-2.295c0.656-1.559,0.164-1.475,0.164-1.475l0.245-0.084l0.082-4.097c0,0,2.543,3.525,5.494,4.262
		L560.784,338.893z"/>
	<path clip-path="url(#SVGID_2_)" fill="none" stroke="#FFFFFF" stroke-width="0.5" stroke-miterlimit="10" d="M560.784,338.893
		l-1.97,0.164c0,0-0.245-0.818,0.409-1.393v-0.657c0,0-1.474,0.657-1.065,2.214c0,0-0.573,0.165-0.738,0.902
		c0,0-1.393,0.492-1.557-1.477c-0.165-1.966-0.128-1.416-1.067-1.885c-1.312-0.655-3.165,0.695-2.295,0.984
		c1.722,0.576,1.722,0.411,2.05,0.411c0,0,0.738,1.065,0.901,1.721c0.15,0.6,0.428,0.876,1.313,0.986
		c0.081,0.008-0.424,0.244-0.328,0.244c1.148,0,0.656,0.327,0.656,0.327s-1.066,0.985-1.804,4.181l-1.721,0.493
		c0,0-0.165-0.654-0.492-1.885c-0.327-1.23-1.97-2.952-1.97-2.952l-0.819-0.819l-0.574,0.736c0,0-3.608-1.476-4.263-1.311
		c-0.656,0.163-0.984,0.163-0.984,0.163v0.901l1.639-0.079c0,0,1.887,0.162,2.624,0.735l0.74,0.573l-0.822,0.741
		c0,0,1.558,0.164,4.102,4.261c2.54,4.101,2.949,0.987,2.949,0.987l-0.246,1.72c0,0-1.803,0.164-2.295,0.492
		c-0.491,0.328-3.198,3.852-4.099,5.246l0.328,1.559c0,0-1.968,3.034-5.165,3.278l-0.084,0.576c0,0,4.347-0.246,5.905-3.034
		l0.245,0.492l3.281-5.74c0,0,0.491,0.164,0.737,0.164s0.246,6.395,0.246,6.395s-1.148-0.081-1.232,0.492
		c-0.08,0.572,0.084,7.951,0.084,7.951l0.573,0.248c0,0-0.163,1.147-1.147,1.723c-0.984,0.572-4.1,1.311-4.1,1.311l-0.082,0.655
		c0,0,5.658-0.737,6.314-2.295c0.656-1.559,0.164-1.475,0.164-1.475l0.245-0.084l0.082-4.097c0,0,2.543,3.525,5.494,4.262
		L560.784,338.893z"/>
	<path clip-path="url(#SVGID_2_)" fill="#FFFFFF" d="M560.079,338.893l2.214,0.164c0,0,0.245-0.818-0.409-1.393v-0.657
		c0,0,1.477,0.657,1.065,2.214c0,0,0.574,0.165,0.739,0.902c0,0,1.391,0.492,1.558-1.477c0.162-1.966,0.124-1.416,1.064-1.885
		c1.312-0.655,3.166,0.695,2.296,0.984c-1.722,0.576-1.722,0.411-2.048,0.411c0,0-0.738,1.065-0.904,1.721
		c-0.15,0.6-0.425,0.876-1.312,0.986c-0.079,0.008,0.425,0.244,0.329,0.244c-1.148,0-0.656,0.327-0.656,0.327
		s1.064,0.985,1.805,4.181l1.72,0.493c0,0,0.165-0.654,0.494-1.885c0.327-1.23,1.967-2.952,1.967-2.952l0.82-0.819l0.574,0.736
		c0,0,3.607-1.476,4.262-1.311c0.656,0.163,0.985,0.163,0.985,0.163v0.901l-1.64-0.079c0,0-1.886,0.162-2.624,0.735l-0.737,0.573
		l0.819,0.741c0,0-1.559,0.164-4.099,4.261c-2.541,4.101-2.953,0.987-2.953,0.987l0.246,1.72c0,0,1.806,0.164,2.298,0.492
		c0.491,0.328,3.198,3.852,4.098,5.246l-0.328,1.559c0,0,1.968,3.034,5.166,3.278l0.083,0.576c0,0-4.347-0.246-5.905-3.034
		l-0.245,0.492l-3.281-5.74c0,0-0.491,0.164-0.736,0.164c-0.246,0-0.246,6.395-0.246,6.395s1.147-0.081,1.229,0.492
		c0.081,0.572-0.082,7.951-0.082,7.951l-0.575,0.248c0,0,0.164,1.147,1.148,1.723c0.984,0.572,4.1,1.311,4.1,1.311l0.082,0.655
		c0,0-5.656-0.737-6.315-2.295c-0.654-1.559-0.162-1.475-0.162-1.475l-0.246-0.084l-0.083-4.097c0,0-2.541,3.525-5.492,4.262
		L560.079,338.893z"/>
	<path clip-path="url(#SVGID_2_)" fill="none" stroke="#FFFFFF" stroke-width="0.5" stroke-miterlimit="10" d="M560.079,338.893
		l2.214,0.164c0,0,0.245-0.818-0.409-1.393v-0.657c0,0,1.477,0.657,1.065,2.214c0,0,0.574,0.165,0.739,0.902
		c0,0,1.391,0.492,1.558-1.477c0.162-1.966,0.124-1.416,1.064-1.885c1.312-0.655,3.166,0.695,2.296,0.984
		c-1.722,0.576-1.722,0.411-2.048,0.411c0,0-0.738,1.065-0.904,1.721c-0.15,0.6-0.425,0.876-1.312,0.986
		c-0.079,0.008,0.425,0.244,0.329,0.244c-1.148,0-0.656,0.327-0.656,0.327s1.064,0.985,1.805,4.181l1.72,0.493
		c0,0,0.165-0.654,0.494-1.885c0.327-1.23,1.967-2.952,1.967-2.952l0.82-0.819l0.574,0.736c0,0,3.607-1.476,4.262-1.311
		c0.656,0.163,0.985,0.163,0.985,0.163v0.901l-1.64-0.079c0,0-1.886,0.162-2.624,0.735l-0.737,0.573l0.819,0.741
		c0,0-1.559,0.164-4.099,4.261c-2.541,4.101-2.953,0.987-2.953,0.987l0.246,1.72c0,0,1.806,0.164,2.298,0.492
		c0.491,0.328,3.198,3.852,4.098,5.246l-0.328,1.559c0,0,1.968,3.034,5.166,3.278l0.083,0.576c0,0-4.347-0.246-5.905-3.034
		l-0.245,0.492l-3.281-5.74c0,0-0.491,0.164-0.736,0.164c-0.246,0-0.246,6.395-0.246,6.395s1.147-0.081,1.229,0.492
		c0.081,0.572-0.082,7.951-0.082,7.951l-0.575,0.248c0,0,0.164,1.147,1.148,1.723c0.984,0.572,4.1,1.311,4.1,1.311l0.082,0.655
		c0,0-5.656-0.737-6.315-2.295c-0.654-1.559-0.162-1.475-0.162-1.475l-0.246-0.084l-0.083-4.097c0,0-2.541,3.525-5.492,4.262
		L560.079,338.893z"/>
	<polygon clip-path="url(#SVGID_2_)" fill="#FFFFFF" points="559.408,339.246 560.589,339.106 560.798,367.445 560.449,367.723 
		559.408,367.027 	"/>
	<path clip-path="url(#SVGID_2_)" fill="#FFFFFF" d="M497.423,239.061c0,0,1.836-9.321,5.185-12.271
		c3.349-2.949,7.996-6.49,9.617-7.315c1.62-0.827,5.836-3.591,7.779-4.601c2.27-1.182,4.323-1.654,5.187-0.59
		c0.864,1.062-0.65,3.422-1.19,5.427c-0.538,2.005-4.105,6.725-5.942,8.496c-1.837,1.77-3.89,3.657-4.97,4.366
		c-1.08,0.706-7.564,6.252-11.128,7.316C498.393,240.951,497.423,239.061,497.423,239.061"/>
	<path clip-path="url(#SVGID_2_)" fill="#FFFFFF" d="M490.396,242.349c0,0,1.728-4.599,3.782-8.257
		c2.052-3.66,6.158-6.491,6.158-6.491s2.916-4.129,3.026-4.838l0.106-0.707l-1.729,1.062c0,0-1.836,0.237-3.024,0.237
		c-1.187,0-2.702-0.828-2.702-0.828s3.46-1.063,4.756-2.712c1.296-1.652,4.97-4.25,4.97-4.25s1.621-1.062,2.16,0
		c0.541,1.062,1.406,1.89,1.082,3.776c-0.324,1.889-0.973,2.123-0.973,2.123s2.917-1.886,3.673-2.476
		c0.756-0.591,2.809-1.652,3.348-2.123c0.542-0.474,2.486-1.537,2.809-1.654c0.326-0.118-0.323,0.117-0.323,0.117l-1.836,2.125
		c0,0-1.514,1.182-2.485,1.65c-0.974,0.473-3.241,2.479-4.106,3.187c-0.863,0.708-3.566,2.362-4.323,3.069
		c-0.756,0.707-2.7,2.712-3.996,5.546c-1.296,2.831-1.623,6.254-1.623,6.606v0.356l3.566-0.944c0,0,2.053-1.77,2.919-2.477
		c0.864-0.71,3.35-2.714,4.106-3.072c0.755-0.353,2.915-1.297,3.672-1.532c0.756-0.236,1.62-0.118,3.459-0.709
		c1.836-0.59,4.537-1.768,4.537-1.768s0.108-0.592,1.62,0.235c1.513,0.826,1.945,1.18,1.513,2.713
		c-0.432,1.535-0.973,3.778-0.973,3.778l-1.728,3.538l0.109-3.657c0,0,0.972-2.124-0.217-2.712c-1.187-0.591-2.701,0-3.783,0.232
		c-1.078,0.24-3.888,1.182-5.294,2.599c-1.403,1.415-2.485,3.185-3.779,4.011c-1.297,0.826-5.295,4.129-8.537,4.954
		c-3.242,0.827-7.239,3.423-8.212,3.423"/>
	<path clip-path="url(#SVGID_2_)" fill="#FFFFFF" d="M513.193,557.598c0,0-12.895,1.406-10.503-11.488c0,0-9.734-9.115,2.97-13.492
		c3.697-1.273,0.981,0.812,0.981,0.812s1.795-7.771,8.562-6.062c0,0,3.502,0.662,4.164,4.761c0,0,5.359-3.588,9.35,1.282
		c3.992,4.867,3.224,10.098,1.516,11.164c0,0,2.563,2.198,1.022,8.864C529.718,560.099,516.694,563.96,513.193,557.598"/>
	<path clip-path="url(#SVGID_2_)" fill="#FFFFFF" d="M510.762,549.142c0,0-3.888,2.905-6.833,0.472c0,0,3.585-0.343,5.829-2.455
		l-4.269-8.733c0,0,1.751,3.182,3.734,4.079c1.987,0.896,3.481,3.287,3.481,3.287s0.833-5.508,3.417-7.834
		c0,0-1.581,2.412,0.086,4.695c1.664,2.286-0.428,3.118-0.002,3.803c0,0,2.626-1.881,5.318-2.135
		c2.688-0.257,4.438-0.875,6.702-1.815c0,0-10.952,7.557-11.38,6.873c0,0-0.406,2.391,8.924,2.498c0,0-8.09,1.496-10.354,0.536
		l-2.264-0.965c0,0-6.746,5.168-9.502,17.103l-1.238-3.504c0,0,3.78-10.673,8.776-15.219"/>
	<polygon clip-path="url(#SVGID_2_)" fill="#FFFFFF" points="421.357,629.192 421.357,625 411.017,620.203 411.017,629.192 
		409.667,629.192 409.667,625 399.327,620.203 399.327,629.192 396.026,629.192 396.026,615.703 391.532,615.703 391.532,629.192 
		389.733,629.192 389.733,615.703 385.237,615.703 385.237,629.192 381.34,629.192 381.34,641.782 424.504,641.782 424.504,629.192 
			"/>
	<g clip-path="url(#SVGID_2_)">
		<path fill-rule="evenodd" clip-rule="evenodd" fill="#FFFFFF" d="M557.301,485.456c1.926,3.006,3.883,6,3.242,9.853
			c-1.558,2.988-4.015,2.482-6.548,1.686c-1.028-0.369-1.758,0.314-2.578,0.719c-2.599,1.287-4.051,0.587-4.147-2.422
			c-1.125-0.603-2.68-0.745-2.691-2.53c0.035-3.685,4.145-2.453,5.491-4.551c0.995-0.154,1.343,0.749,1.993,1.184
			c2.026,1.361,3.581,0.669,4.087-1.742C556.328,486.81,555.293,485.344,557.301,485.456"/>
		<path fill-rule="evenodd" clip-rule="evenodd" fill="#FFFFFF" d="M531.519,491.064c1.348-2.643,2.99-5.213,1.738-8.452
			c2.469-0.361,1.643,2.741,3.459,2.772c0.942-0.509,2.01-0.343,3.008-0.572c0.923-0.163,1.823-0.618,2.788-0.199
			c0.965,0.525,1.447,1.421,1.835,2.39c0.365,1.525-0.566,2.824-0.742,4.253c-1.397,1.77-3.206,2.982-5.256,3.868
			c-0.28,0.052-0.558,0.102-0.838,0.155C534.29,495.617,533.129,493.02,531.519,491.064"/>
		<path fill-rule="evenodd" clip-rule="evenodd" fill="#FFFFFF" d="M531.519,491.064c4.679-2.411,4.836,1.613,5.992,4.215
			c-0.281,1.98,1.143,3.511,1.466,5.369c-3.308,1.534-4.262-2.035-6.434-2.897c-2.486,0.134-1.241-2.445-2.387-3.286
			C530.208,493.169,530.776,492.082,531.519,491.064"/>
		<path fill-rule="evenodd" clip-rule="evenodd" fill="#FFFFFF" d="M549.811,481.475c1.829-0.749-0.774-4.115,2.401-4.07
			c0.045,2.902,0.089,5.804,0.134,8.707c-0.249,0.304-0.526,0.582-0.827,0.836c-0.658,0.459-1.461,0.707-1.996,1.338
			c-2.345,2.763-4.055,1.89-5.437-0.935c-1.799-1.878-1.904-3.562,0.556-4.964C546.129,480.758,548.119,481.961,549.811,481.475"/>
		<path fill-rule="evenodd" clip-rule="evenodd" fill="#FFFFFF" d="M553.996,496.995c1.977-1.364,4.515-0.541,6.548-1.686
			c-1.737,8.031-3.166,9.544-9.784,9.833C553.334,502.796,556.101,500.708,553.996,496.995"/>
		<path fill-rule="evenodd" clip-rule="evenodd" fill="#FFFFFF" d="M547.208,466.478c0.304,3.648-2.034,6.902-1.582,10.572
			c-3.152,1.183-3.327-1.251-3.896-3.206c0.262-1.944,1.687-3.302,2.498-4.969C545.222,468.076,546.215,467.277,547.208,466.478"/>
		<path fill-rule="evenodd" clip-rule="evenodd" fill="#FFFFFF" d="M542.34,491.174c0.386-1.344,0.773-2.688,1.16-4.029
			c1.674-0.097,1.34,1.674,2.18,2.353c0.41,1.147-0.823,2.299,0.008,3.446c-0.421,1.421,1.289,1.406,1.584,2.349
			c-2.098,0.124-1.8,3.43-4.196,3.155C540.861,496.223,540.16,493.843,542.34,491.174"/>
		<path fill-rule="evenodd" clip-rule="evenodd" fill="#FFFFFF" d="M542.34,491.174c0.245,2.425,0.491,4.852,0.736,7.273
			c-1.837-0.736-3.654-1.501-4.727-3.325C538.682,492.8,539.723,491.189,542.34,491.174"/>
		<path fill-rule="evenodd" clip-rule="evenodd" fill="#FFFFFF" d="M530.157,494.464c0.795,1.097,1.592,2.191,2.387,3.287
			c-1.57,2.277,0.593,3.869,1.056,5.776c-0.329,0.218-0.659,0.44-0.987,0.658c-0.286-0.22-0.572-0.44-0.858-0.658
			C529.735,500.768,529.227,497.744,530.157,494.464"/>
		<path fill-rule="evenodd" clip-rule="evenodd" fill="#FFFFFF" d="M540.051,486.97c-1.372,0.019-2.379-0.729-3.334-1.586
			c0.918-2.425,0.74-4.962,0.784-7.478c0.913,0.184,1.278,0.951,1.733,1.621C540.978,481.847,541.552,484.294,540.051,486.97"/>
		<path fill-rule="evenodd" clip-rule="evenodd" fill="#FFFFFF" d="M541.73,473.845c1.3,1.069,2.597,2.14,3.896,3.206
			c0.037,0.295,0.077,0.589,0.115,0.883c-0.362,1.328-0.882,2.603-2.53,2.517c-1.554-0.083-2.218-1.205-2.437-2.634
			c-0.041-0.214-0.084-0.427-0.124-0.638C541.01,476.066,541.372,474.955,541.73,473.845"/>
		<path fill-rule="evenodd" clip-rule="evenodd" fill="#FFFFFF" d="M540.051,486.97c-0.271-2.481-0.545-4.962-0.817-7.442
			c0.474-0.782,0.944-1.566,1.417-2.349l0.305-0.071c0.337,1.031,0.545,2.101,0.943,3.112c0.15,1.724,0.437,3.455-0.341,5.115
			C541.258,486.066,540.836,486.685,540.051,486.97"/>
		<path fill-rule="evenodd" clip-rule="evenodd" fill="#FFFFFF" d="M551.705,486.39c-0.339,0.765-0.676,1.525-1.017,2.29
			c-0.786,2.45-3.981,2.08-5,4.264c-0.893-0.943-0.828-2.131-0.84-3.297c-0.349-0.895-0.644-1.787,0.259-2.555
			c1.169,1.186,2.413,1.957,3.627,0.143C549.538,486.031,550.37,485.47,551.705,486.39"/>
		<path fill-rule="evenodd" clip-rule="evenodd" fill="#FFFFFF" d="M540.905,480.454c0.017-1.115,0.035-2.232,0.051-3.349
			c1.274,2.134,2.861,2.456,4.785,0.828c0.933,1.668,1.85,3.354,4.071,3.539c-1.347,0.744-2.692,1.483-4.039,2.224
			C543.963,482.897,540.593,484.438,540.905,480.454"/>
		<path fill-rule="evenodd" clip-rule="evenodd" fill="#FFFFFF" d="M540.905,480.454c0.687,0.924,1.159,2.047,2.766,1.502
			c1.384-0.468,1.769,0.706,2.102,1.74c-2.433,0.697-2.207,1.916-0.667,3.396c-0.085,0.852-0.171,1.702-0.259,2.555
			c-0.449-0.835-0.897-1.67-1.347-2.503c-0.647-0.603-1.293-1.206-1.94-1.809C540.605,483.809,540.806,482.124,540.905,480.454"/>
	</g>
	<polygon clip-path="url(#SVGID_2_)" fill="#FFFFFF" points="580.024,417.859 580.024,413.667 569.685,408.871 569.685,417.859 
		568.333,417.859 568.333,413.667 557.994,408.871 557.994,417.859 554.693,417.859 554.693,404.371 550.199,404.371 
		550.199,417.859 548.4,417.859 548.4,404.371 543.904,404.371 543.904,417.859 540.007,417.859 540.007,430.449 583.171,430.449 
		583.171,417.859 	"/>
	<path clip-path="url(#SVGID_2_)" fill="#FFFFFF" d="M-132.11,47.111c0,0,3.083-17.481,8.706-23.016
		c5.624-5.529,13.426-12.171,16.148-13.718c2.719-1.551,9.799-6.735,13.061-8.629c3.811-2.216,7.258-3.103,8.709-1.107
		c1.45,1.992-1.091,6.417-1.998,10.179c-0.904,3.76-6.893,12.612-9.977,15.935c-3.085,3.319-6.532,6.858-8.345,8.188
		c-1.814,1.323-12.7,11.726-18.684,13.721C-130.481,50.654-132.11,47.111-132.11,47.111"/>
	<path clip-path="url(#SVGID_2_)" fill="#FFFFFF" d="M-143.91,56.276c0,0,2.902-8.625,6.35-15.486
		c3.446-6.865,10.34-12.174,10.34-12.174s4.896-7.744,5.081-9.074l0.178-1.326l-2.903,1.992c0,0-3.083,0.444-5.077,0.444
		c-1.993,0-4.536-1.551-4.536-1.551s5.81-1.994,7.985-5.088c2.176-3.099,8.344-7.971,8.344-7.971s2.722-1.993,3.627,0
		c0.908,1.993,2.361,3.544,1.817,7.083c-0.544,3.542-1.634,3.982-1.634,3.982s4.898-3.537,6.168-4.644
		c1.269-1.107,4.716-3.098,5.621-3.98c0.91-0.889,4.175-2.882,4.716-3.102c0.548-0.222-0.542,0.22-0.542,0.22l-3.083,3.986
		c0,0-2.542,2.216-4.172,3.095c-1.636,0.888-5.441,4.649-6.894,5.976c-1.449,1.328-5.987,4.431-7.258,5.756
		c-1.27,1.325-4.534,5.086-6.71,10.402c-2.176,5.311-2.725,11.73-2.725,12.39v0.668l5.988-1.77c0,0,3.447-3.32,4.901-4.645
		c1.451-1.331,5.625-5.092,6.894-5.762c1.268-0.661,4.894-2.432,6.166-2.874c1.269-0.443,2.72-0.222,5.808-1.33
		c3.083-1.106,7.617-3.316,7.617-3.316s0.182-1.111,2.72,0.441c2.541,1.549,3.266,2.213,2.541,5.088
		c-0.726,2.879-1.634,7.086-1.634,7.086l-2.901,6.636l0.183-6.859c0,0,1.632-3.984-0.364-5.086c-1.993-1.108-4.535,0-6.352,0.435
		c-1.809,0.45-6.528,2.217-8.889,4.875c-2.355,2.654-4.172,5.975-6.345,7.522c-2.178,1.55-8.89,7.744-14.334,9.292
		c-5.444,1.551-12.154,6.42-13.788,6.42"/>
	<path clip-path="url(#SVGID_2_)" fill="none" stroke="#366AB2" stroke-miterlimit="10" d="M-143.91,56.276
		c0,0,2.902-8.625,6.35-15.486c3.446-6.865,10.34-12.174,10.34-12.174s4.896-7.744,5.081-9.074l0.178-1.326l-2.903,1.992
		c0,0-3.083,0.444-5.077,0.444c-1.993,0-4.536-1.551-4.536-1.551s5.81-1.994,7.985-5.088c2.176-3.099,8.344-7.971,8.344-7.971
		s2.722-1.993,3.627,0c0.908,1.993,2.361,3.544,1.817,7.083c-0.544,3.542-1.634,3.982-1.634,3.982s4.898-3.537,6.168-4.644
		c1.269-1.107,4.716-3.098,5.621-3.98c0.91-0.889,4.175-2.882,4.716-3.102c0.548-0.222-0.542,0.22-0.542,0.22l-3.083,3.986
		c0,0-2.542,2.216-4.172,3.095c-1.636,0.888-5.441,4.649-6.894,5.976c-1.449,1.328-5.987,4.431-7.258,5.756
		c-1.27,1.325-4.534,5.086-6.71,10.402c-2.176,5.311-2.725,11.73-2.725,12.39v0.668l5.988-1.77c0,0,3.447-3.32,4.901-4.645
		c1.451-1.331,5.625-5.092,6.894-5.762c1.268-0.661,4.894-2.432,6.166-2.874c1.269-0.443,2.72-0.222,5.808-1.33
		c3.083-1.106,7.617-3.316,7.617-3.316s0.182-1.111,2.72,0.441c2.541,1.549,3.266,2.213,2.541,5.088
		c-0.726,2.879-1.634,7.086-1.634,7.086l-2.901,6.636l0.183-6.859c0,0,1.632-3.984-0.364-5.086c-1.993-1.108-4.535,0-6.352,0.435
		c-1.809,0.45-6.528,2.217-8.889,4.875c-2.355,2.654-4.172,5.975-6.345,7.522c-2.178,1.55-8.89,7.744-14.334,9.292
		c-5.444,1.551-12.154,6.42-13.788,6.42"/>
	<rect x="-159.501" y="-2100.64" clip-path="url(#SVGID_2_)" fill="none" width="920" height="4910"/>
	<path clip-path="url(#SVGID_2_)" fill="#FFFFFF" d="M183.015,247.918c0,0-4.913-18.176-20.636-22.108
		c0,0,10.319-1.964,20.636,12.776c0,0-1.964-26.037-27.02-44.703c0,0,22.599,8.349,30.95,39.295c0,0-3.931-33.892,28.984-62.384
		c0,0-19.654,15.229-21.124,58.949c0,0,10.807-24.072,25.054-26.037c0,0-20.146,8.354-19.65,33.894c0,0,4.423-11.79,18.176-16.698
		c0,0-16.703,8.349-17.195,27.017H183.015z"/>
	<polyline clip-path="url(#SVGID_2_)" fill="none" stroke="#FFFFFF" stroke-width="0.5" stroke-miterlimit="10" points="
		289.688,173.643 303.626,178.869 306.452,191.933 315.161,197.596 	"/>
	
		<line clip-path="url(#SVGID_2_)" fill="none" stroke="#FFFFFF" stroke-width="0.5" stroke-miterlimit="10" x1="308.197" y1="180.827" x2="316.904" y2="191.932"/>
	<polyline clip-path="url(#SVGID_2_)" fill="none" stroke="#FFFFFF" stroke-width="0.5" stroke-miterlimit="10" points="
		289.468,227.425 304.06,216.322 305.582,204.779 315.161,200.646 316.471,200.863 309.939,208.05 311.46,221.551 289.688,245.067 	
		"/>
	<path clip-path="url(#SVGID_2_)" fill="#FFFFFF" d="M314.949,198.463l-18.298-5.445c0,0-4.785-1.086-2.827,2.618
		c1.962,3.702,6.533,4.569,6.533,4.569s5.661,1.306,12.626,0.22L314.949,198.463z"/>
	
		<line clip-path="url(#SVGID_2_)" fill="none" stroke="#FFFFFF" stroke-width="0.5" stroke-miterlimit="10" x1="326.051" y1="180.827" x2="317.344" y2="191.932"/>
	<polyline clip-path="url(#SVGID_2_)" fill="none" stroke="#FFFFFF" stroke-width="0.5" stroke-miterlimit="10" points="
		344.78,227.425 330.188,216.322 328.666,204.779 319.087,200.646 317.778,200.863 324.31,208.05 322.786,221.551 344.559,245.067 	
		"/>
	
		<line clip-path="url(#SVGID_2_)" fill="none" stroke="#FFFFFF" stroke-width="0.5" stroke-miterlimit="10" x1="317.12" y1="176.636" x2="317.12" y2="190.627"/>
	<path clip-path="url(#SVGID_2_)" fill="#FFFFFF" d="M315.268,194.53c0-0.779,0.877-1.413,1.954-1.413
		c1.087,0,1.966,0.634,1.966,1.413c0,0.783-0.879,1.422-1.966,1.422C316.145,195.952,315.268,195.313,315.268,194.53"/>
	<path clip-path="url(#SVGID_2_)" fill="#FFFFFF" d="M315.166,197.922c0,1.622,0.825,2.941,1.85,2.941
		c1.026,0,1.854-1.319,1.854-2.941c0-1.624-0.827-2.941-1.854-2.941C315.991,194.981,315.166,196.298,315.166,197.922"/>
	<path clip-path="url(#SVGID_2_)" fill="#FFFFFF" d="M319.303,198.463l18.292-5.445c0,0,4.791-1.086,2.829,2.618
		c-1.962,3.702-6.533,4.569-6.533,4.569s-5.657,1.306-12.634,0.22L319.303,198.463z"/>
	<path clip-path="url(#SVGID_2_)" fill="#FFFFFF" d="M317.192,202.167c0,0-0.871,0-0.871,1.528c0,1.522-0.651,12.844-0.651,12.844
		s0.159,1.525,1.467,1.525L317.192,202.167z"/>
	<polyline clip-path="url(#SVGID_2_)" fill="none" stroke="#FFFFFF" stroke-width="0.5" stroke-miterlimit="10" points="
		343.635,174.782 329.698,180.009 326.869,193.074 318.154,198.733 	"/>
	<path clip-path="url(#SVGID_2_)" fill="#FFFFFF" d="M316.951,202.167c0,0,0.871,0,0.871,1.528c0,1.522,0.653,12.844,0.653,12.844
		s-0.161,1.525-1.47,1.525L316.951,202.167z"/>
	<path clip-path="url(#SVGID_2_)" fill="#FFFFFF" d="M45.89,227.111c0,0,3.083-17.481,8.706-23.016
		c5.624-5.529,13.426-12.171,16.148-13.718c2.719-1.551,9.799-6.735,13.061-8.629c3.811-2.216,7.258-3.103,8.709-1.107
		c1.45,1.992-1.091,6.417-1.998,10.179c-0.904,3.76-6.893,12.612-9.977,15.935c-3.085,3.319-6.532,6.858-8.345,8.188
		c-1.814,1.323-12.7,11.726-18.684,13.721C47.519,230.654,45.89,227.111,45.89,227.111"/>
	<path clip-path="url(#SVGID_2_)" fill="#FFFFFF" d="M34.09,236.276c0,0,2.902-8.625,6.35-15.486
		c3.446-6.865,10.34-12.174,10.34-12.174s4.896-7.744,5.081-9.074l0.178-1.326l-2.903,1.992c0,0-3.083,0.444-5.077,0.444
		c-1.993,0-4.536-1.551-4.536-1.551s5.81-1.994,7.985-5.088c2.176-3.099,8.344-7.971,8.344-7.971s2.722-1.993,3.627,0
		c0.908,1.993,2.361,3.544,1.817,7.083c-0.544,3.542-1.634,3.982-1.634,3.982s4.898-3.537,6.168-4.644
		c1.269-1.107,4.716-3.098,5.621-3.98c0.91-0.889,4.175-2.882,4.716-3.102c0.548-0.222-0.542,0.22-0.542,0.22l-3.083,3.986
		c0,0-2.542,2.216-4.172,3.095c-1.636,0.888-5.441,4.649-6.894,5.976c-1.449,1.328-5.987,4.431-7.258,5.756
		c-1.27,1.325-4.534,5.086-6.71,10.402c-2.176,5.311-2.725,11.73-2.725,12.39v0.668l5.988-1.77c0,0,3.447-3.32,4.901-4.645
		c1.451-1.331,5.625-5.092,6.894-5.762c1.268-0.661,4.894-2.432,6.166-2.874c1.269-0.443,2.72-0.222,5.808-1.33
		c3.083-1.106,7.617-3.316,7.617-3.316s0.182-1.111,2.72,0.441c2.541,1.549,3.266,2.213,2.541,5.088
		c-0.726,2.879-1.634,7.086-1.634,7.086l-2.901,6.636l0.183-6.859c0,0,1.632-3.984-0.364-5.086c-1.993-1.108-4.535,0-6.352,0.435
		c-1.809,0.45-6.528,2.217-8.889,4.875c-2.355,2.654-4.172,5.975-6.345,7.522c-2.178,1.55-8.89,7.744-14.334,9.292
		c-5.444,1.551-12.154,6.42-13.788,6.42"/>
	<path clip-path="url(#SVGID_2_)" fill="none" stroke="#366AB2" stroke-miterlimit="10" d="M34.09,236.276
		c0,0,2.902-8.625,6.35-15.486c3.446-6.865,10.34-12.174,10.34-12.174s4.896-7.744,5.081-9.074l0.178-1.326l-2.903,1.992
		c0,0-3.083,0.444-5.077,0.444c-1.993,0-4.536-1.551-4.536-1.551s5.81-1.994,7.985-5.088c2.176-3.099,8.344-7.971,8.344-7.971
		s2.722-1.993,3.627,0c0.908,1.993,2.361,3.544,1.817,7.083c-0.544,3.542-1.634,3.982-1.634,3.982s4.898-3.537,6.168-4.644
		c1.269-1.107,4.716-3.098,5.621-3.98c0.91-0.889,4.175-2.882,4.716-3.102c0.548-0.222-0.542,0.22-0.542,0.22l-3.083,3.986
		c0,0-2.542,2.216-4.172,3.095c-1.636,0.888-5.441,4.649-6.894,5.976c-1.449,1.328-5.987,4.431-7.258,5.756
		c-1.27,1.325-4.534,5.086-6.71,10.402c-2.176,5.311-2.725,11.73-2.725,12.39v0.668l5.988-1.77c0,0,3.447-3.32,4.901-4.645
		c1.451-1.331,5.625-5.092,6.894-5.762c1.268-0.661,4.894-2.432,6.166-2.874c1.269-0.443,2.72-0.222,5.808-1.33
		c3.083-1.106,7.617-3.316,7.617-3.316s0.182-1.111,2.72,0.441c2.541,1.549,3.266,2.213,2.541,5.088
		c-0.726,2.879-1.634,7.086-1.634,7.086l-2.901,6.636l0.183-6.859c0,0,1.632-3.984-0.364-5.086c-1.993-1.108-4.535,0-6.352,0.435
		c-1.809,0.45-6.528,2.217-8.889,4.875c-2.355,2.654-4.172,5.975-6.345,7.522c-2.178,1.55-8.89,7.744-14.334,9.292
		c-5.444,1.551-12.154,6.42-13.788,6.42"/>
	<path clip-path="url(#SVGID_2_)" fill="#FFFFFF" d="M45.89,339.734c0,0,3.083-17.481,8.706-23.016
		c5.624-5.529,13.426-12.171,16.148-13.718c2.719-1.551,9.799-6.735,13.061-8.629c3.811-2.216,7.258-3.103,8.709-1.107
		c1.45,1.992-1.091,6.417-1.998,10.179c-0.904,3.76-6.893,12.612-9.977,15.935c-3.085,3.319-6.532,6.858-8.345,8.188
		c-1.814,1.323-12.7,11.726-18.684,13.721C47.519,343.277,45.89,339.734,45.89,339.734"/>
	<path clip-path="url(#SVGID_2_)" fill="#FFFFFF" d="M34.09,348.899c0,0,2.902-8.625,6.35-15.486
		c3.446-6.865,10.34-12.174,10.34-12.174s4.896-7.744,5.081-9.074l0.178-1.326l-2.903,1.992c0,0-3.083,0.444-5.077,0.444
		c-1.993,0-4.536-1.551-4.536-1.551s5.81-1.994,7.985-5.088c2.176-3.099,8.344-7.971,8.344-7.971s2.722-1.993,3.627,0
		c0.908,1.993,2.361,3.544,1.817,7.083c-0.544,3.542-1.634,3.982-1.634,3.982s4.898-3.537,6.168-4.644
		c1.269-1.107,4.716-3.098,5.621-3.98c0.91-0.889,4.175-2.882,4.716-3.102c0.548-0.222-0.542,0.22-0.542,0.22l-3.083,3.986
		c0,0-2.542,2.216-4.172,3.095c-1.636,0.888-5.441,4.649-6.894,5.976c-1.449,1.328-5.987,4.431-7.258,5.756
		c-1.27,1.325-4.534,5.086-6.71,10.402c-2.176,5.311-2.725,11.73-2.725,12.39v0.668l5.988-1.77c0,0,3.447-3.32,4.901-4.645
		c1.451-1.331,5.625-5.092,6.894-5.762c1.268-0.661,4.894-2.432,6.166-2.874c1.269-0.443,2.72-0.222,5.808-1.33
		c3.083-1.106,7.617-3.316,7.617-3.316s0.182-1.111,2.72,0.441c2.541,1.549,3.266,2.213,2.541,5.088
		c-0.726,2.879-1.634,7.086-1.634,7.086l-2.901,6.636l0.183-6.859c0,0,1.632-3.984-0.364-5.086c-1.993-1.108-4.535,0-6.352,0.435
		c-1.809,0.45-6.528,2.217-8.889,4.875c-2.355,2.654-4.172,5.975-6.345,7.522c-2.178,1.55-8.89,7.744-14.334,9.292
		c-5.444,1.551-12.154,6.42-13.788,6.42"/>
	<path clip-path="url(#SVGID_2_)" fill="none" stroke="#366AB2" stroke-miterlimit="10" d="M34.09,348.899
		c0,0,2.902-8.625,6.35-15.486c3.446-6.865,10.34-12.174,10.34-12.174s4.896-7.744,5.081-9.074l0.178-1.326l-2.903,1.992
		c0,0-3.083,0.444-5.077,0.444c-1.993,0-4.536-1.551-4.536-1.551s5.81-1.994,7.985-5.088c2.176-3.099,8.344-7.971,8.344-7.971
		s2.722-1.993,3.627,0c0.908,1.993,2.361,3.544,1.817,7.083c-0.544,3.542-1.634,3.982-1.634,3.982s4.898-3.537,6.168-4.644
		c1.269-1.107,4.716-3.098,5.621-3.98c0.91-0.889,4.175-2.882,4.716-3.102c0.548-0.222-0.542,0.22-0.542,0.22l-3.083,3.986
		c0,0-2.542,2.216-4.172,3.095c-1.636,0.888-5.441,4.649-6.894,5.976c-1.449,1.328-5.987,4.431-7.258,5.756
		c-1.27,1.325-4.534,5.086-6.71,10.402c-2.176,5.311-2.725,11.73-2.725,12.39v0.668l5.988-1.77c0,0,3.447-3.32,4.901-4.645
		c1.451-1.331,5.625-5.092,6.894-5.762c1.268-0.661,4.894-2.432,6.166-2.874c1.269-0.443,2.72-0.222,5.808-1.33
		c3.083-1.106,7.617-3.316,7.617-3.316s0.182-1.111,2.72,0.441c2.541,1.549,3.266,2.213,2.541,5.088
		c-0.726,2.879-1.634,7.086-1.634,7.086l-2.901,6.636l0.183-6.859c0,0,1.632-3.984-0.364-5.086c-1.993-1.108-4.535,0-6.352,0.435
		c-1.809,0.45-6.528,2.217-8.889,4.875c-2.355,2.654-4.172,5.975-6.345,7.522c-2.178,1.55-8.89,7.744-14.334,9.292
		c-5.444,1.551-12.154,6.42-13.788,6.42"/>
	<path clip-path="url(#SVGID_2_)" fill="#FFFFFD" d="M163.761,325.357c0,0-7.2-10.589,10.593-23.296
		c17.789-12.708,22.875-0.424,28.378,1.269l5.507,1.695c0,0-0.847-1.695,1.483-2.12l2.329-0.423c0,0-0.425-0.633,1.271-1.482
		c1.695-0.847,4.661,3.603,5.931,6.99c0,0,5.717,0.423,15.038,11.438c0,0,2.964,4.237-3.178,4.873l-2.54,2.117v-1.904l-1.693,3.178
		l0.421-3.819l-3.175,4.24l1.271-3.812c0,0-5.932,0.213-12.709-2.755c0,0-6.565,1.48-7.625,2.539v3.181c0,0,6.993,2.54,3.603,4.236
		c-3.391,1.695-6.144-0.636-7.414-1.483l-1.271-4.235c0,0-2.12,1.909-8.898,3.815c0,0,7.413,2.327-1.058,2.747
		c-8.473,0.426-12.156-0.635-18.428-0.635c-0.317,0-0.633-0.633-1.902-1.269c0,0-2.331-0.212-6.778,1.269
		c0,0-17.792,7.841-2.332,12.288c0,0,4.236,0.95,20.227,2.329c0,0,8.05,0.742,12.181,7.835c0,0,0.105,4.451-1.695,6.569
		c0,0,2.144-5.787-4.977-9.746c-2.861-1.586-6.672-1.586-8.581-1.903c-7.623-1.27-12.495-0.635-18.002-1.484
		c-5.507-0.847-9.107-2.751-9.74-6.564c-0.638-3.815,2.67-7.186,3.172-7.627c0.85-0.742,7.839-5.293,7.839-5.293L163.761,325.357z"
		/>
	<g clip-path="url(#SVGID_2_)">
		<path fill="#FFFFFF" d="M317.531,296.442l-3.484,0.29c0,0-0.433-1.447,0.724-2.463v-1.162c0,0-2.607,1.162-1.883,3.915
			c0,0-1.014,0.292-1.306,1.596c0,0-2.463,0.87-2.753-2.613c-0.292-3.477-0.226-2.504-1.888-3.333
			c-2.32-1.159-5.598,1.23-4.059,1.741c3.046,1.018,3.046,0.726,3.626,0.726c0,0,1.305,1.883,1.593,3.044
			c0.265,1.06,0.757,1.549,2.322,1.744c0.143,0.015-0.75,0.431-0.58,0.431c2.03,0,1.16,0.579,1.16,0.579s-1.885,1.743-3.191,7.394
			l-3.043,0.871c0,0-0.292-1.156-0.87-3.333c-0.578-2.175-3.484-5.221-3.484-5.221l-1.448-1.448l-1.016,1.301
			c0,0-6.381-2.61-7.539-2.318c-1.161,0.288-1.74,0.288-1.74,0.288v1.594l2.898-0.139c0,0,3.338,0.286,4.641,1.299l1.309,1.014
			l-1.454,1.31c0,0,2.755,0.29,7.255,7.536c4.492,7.252,5.216,1.745,5.216,1.745l-0.435,3.042c0,0-3.189,0.29-4.059,0.87
			c-0.869,0.58-5.656,6.812-7.249,9.278l0.58,2.757c0,0-3.481,5.366-9.134,5.798l-0.149,1.018c0,0,7.687-0.435,10.443-5.365
			l0.433,0.87l5.803-10.151c0,0,0.868,0.29,1.303,0.29c0.435,0,0.435,11.309,0.435,11.309s-2.03-0.143-2.179,0.87
			c-0.142,1.011,0.149,14.062,0.149,14.062l1.013,0.439c0,0-0.288,2.029-2.028,3.047c-1.74,1.012-7.251,2.319-7.251,2.319
			l-0.145,1.158c0,0,10.007-1.303,11.166-4.059c1.161-2.756,0.29-2.608,0.29-2.608l0.433-0.149l0.145-7.246
			c0,0,4.497,6.234,9.717,7.538L317.531,296.442z"/>
		<path fill="none" stroke="#FFFFFF" stroke-width="0.5" stroke-miterlimit="10" d="M317.531,296.442l-3.484,0.29
			c0,0-0.433-1.447,0.724-2.463v-1.162c0,0-2.607,1.162-1.883,3.915c0,0-1.014,0.292-1.306,1.596c0,0-2.463,0.87-2.753-2.613
			c-0.292-3.477-0.226-2.504-1.888-3.333c-2.32-1.159-5.598,1.23-4.059,1.741c3.046,1.018,3.046,0.726,3.626,0.726
			c0,0,1.305,1.883,1.593,3.044c0.265,1.06,0.757,1.549,2.322,1.744c0.143,0.015-0.75,0.431-0.58,0.431
			c2.03,0,1.16,0.579,1.16,0.579s-1.885,1.743-3.191,7.394l-3.043,0.871c0,0-0.292-1.156-0.87-3.333
			c-0.578-2.175-3.484-5.221-3.484-5.221l-1.448-1.448l-1.016,1.301c0,0-6.381-2.61-7.539-2.318c-1.161,0.288-1.74,0.288-1.74,0.288
			v1.594l2.898-0.139c0,0,3.338,0.286,4.641,1.299l1.309,1.014l-1.454,1.31c0,0,2.755,0.29,7.255,7.536
			c4.492,7.252,5.216,1.745,5.216,1.745l-0.435,3.042c0,0-3.189,0.29-4.059,0.87c-0.869,0.58-5.656,6.812-7.249,9.278l0.58,2.757
			c0,0-3.481,5.366-9.134,5.798l-0.149,1.018c0,0,7.687-0.435,10.443-5.365l0.433,0.87l5.803-10.151c0,0,0.868,0.29,1.303,0.29
			c0.435,0,0.435,11.309,0.435,11.309s-2.03-0.143-2.179,0.87c-0.142,1.011,0.149,14.062,0.149,14.062l1.013,0.439
			c0,0-0.288,2.029-2.028,3.047c-1.74,1.012-7.251,2.319-7.251,2.319l-0.145,1.158c0,0,10.007-1.303,11.166-4.059
			c1.161-2.756,0.29-2.608,0.29-2.608l0.433-0.149l0.145-7.246c0,0,4.497,6.234,9.717,7.538L317.531,296.442z"/>
		<path fill="#FFFFFF" d="M316.284,296.442l3.915,0.29c0,0,0.434-1.447-0.723-2.463v-1.162c0,0,2.612,1.162,1.883,3.915
			c0,0,1.015,0.292,1.307,1.596c0,0,2.46,0.87,2.755-2.613c0.287-3.477,0.219-2.504,1.882-3.333c2.32-1.159,5.599,1.23,4.06,1.741
			c-3.045,1.018-3.045,0.726-3.622,0.726c0,0-1.305,1.883-1.598,3.044c-0.266,1.06-0.752,1.549-2.32,1.744
			c-0.14,0.015,0.751,0.431,0.581,0.431c-2.03,0-1.16,0.579-1.16,0.579s1.882,1.743,3.193,7.394l3.041,0.871
			c0,0,0.292-1.156,0.874-3.333c0.578-2.175,3.478-5.221,3.478-5.221l1.451-1.448l1.015,1.301c0,0,6.379-2.61,7.538-2.318
			c1.16,0.288,1.742,0.288,1.742,0.288v1.594l-2.901-0.139c0,0-3.335,0.286-4.641,1.299l-1.303,1.014l1.448,1.31
			c0,0-2.757,0.29-7.248,7.536c-4.494,7.252-5.223,1.745-5.223,1.745l0.435,3.042c0,0,3.193,0.29,4.064,0.87
			c0.868,0.58,5.655,6.812,7.248,9.278l-0.58,2.757c0,0,3.48,5.366,9.136,5.798l0.147,1.018c0,0-7.688-0.435-10.444-5.365
			l-0.433,0.87l-5.803-10.151c0,0-0.868,0.29-1.301,0.29c-0.435,0-0.435,11.309-0.435,11.309s2.028-0.143,2.173,0.87
			c0.143,1.011-0.145,14.062-0.145,14.062l-1.016,0.439c0,0,0.289,2.029,2.03,3.047c1.74,1.012,7.25,2.319,7.25,2.319l0.145,1.158
			c0,0-10.002-1.303-11.168-4.059c-1.156-2.756-0.287-2.608-0.287-2.608l-0.434-0.149l-0.147-7.246c0,0-4.494,6.234-9.713,7.538
			L316.284,296.442z"/>
		<path fill="none" stroke="#FFFFFF" stroke-width="0.5" stroke-miterlimit="10" d="M316.284,296.442l3.915,0.29
			c0,0,0.434-1.447-0.723-2.463v-1.162c0,0,2.612,1.162,1.883,3.915c0,0,1.015,0.292,1.307,1.596c0,0,2.46,0.87,2.755-2.613
			c0.287-3.477,0.219-2.504,1.882-3.333c2.32-1.159,5.599,1.23,4.06,1.741c-3.045,1.018-3.045,0.726-3.622,0.726
			c0,0-1.305,1.883-1.598,3.044c-0.266,1.06-0.752,1.549-2.32,1.744c-0.14,0.015,0.751,0.431,0.581,0.431
			c-2.03,0-1.16,0.579-1.16,0.579s1.882,1.743,3.193,7.394l3.041,0.871c0,0,0.292-1.156,0.874-3.333
			c0.578-2.175,3.478-5.221,3.478-5.221l1.451-1.448l1.015,1.301c0,0,6.379-2.61,7.538-2.318c1.16,0.288,1.742,0.288,1.742,0.288
			v1.594l-2.901-0.139c0,0-3.335,0.286-4.641,1.299l-1.303,1.014l1.448,1.31c0,0-2.757,0.29-7.248,7.536
			c-4.494,7.252-5.223,1.745-5.223,1.745l0.435,3.042c0,0,3.193,0.29,4.064,0.87c0.868,0.58,5.655,6.812,7.248,9.278l-0.58,2.757
			c0,0,3.48,5.366,9.136,5.798l0.147,1.018c0,0-7.688-0.435-10.444-5.365l-0.433,0.87l-5.803-10.151c0,0-0.868,0.29-1.301,0.29
			c-0.435,0-0.435,11.309-0.435,11.309s2.028-0.143,2.173,0.87c0.143,1.011-0.145,14.062-0.145,14.062l-1.016,0.439
			c0,0,0.289,2.029,2.03,3.047c1.74,1.012,7.25,2.319,7.25,2.319l0.145,1.158c0,0-10.002-1.303-11.168-4.059
			c-1.156-2.756-0.287-2.608-0.287-2.608l-0.434-0.149l-0.147-7.246c0,0-4.494,6.234-9.713,7.538L316.284,296.442z"/>
		<polygon fill="#FFFFFF" points="315.098,297.067 317.187,296.82 317.556,346.938 316.939,347.428 315.098,346.199 		"/>
	</g>
	<polygon clip-path="url(#SVGID_2_)" fill="#FFFFFF" points="95.773,438.23 95.773,430.894 77.683,422.505 77.683,438.23 
		75.32,438.23 75.32,430.894 57.23,422.505 57.23,438.23 51.456,438.23 51.456,414.632 43.594,414.632 43.594,438.23 40.447,438.23 
		40.447,414.632 32.581,414.632 32.581,438.23 25.763,438.23 25.763,460.255 101.279,460.255 101.279,438.23 	"/>
	<g clip-path="url(#SVGID_2_)">
		<path fill-rule="evenodd" clip-rule="evenodd" fill="#FFFFFF" d="M211.188,436.832c3.329,5.196,6.712,10.372,5.604,17.032
			c-2.693,5.166-6.94,4.291-11.319,2.915c-1.777-0.638-3.039,0.542-4.457,1.243c-4.492,2.225-7.003,1.015-7.169-4.187
			c-1.945-1.042-4.632-1.288-4.652-4.374c0.061-6.369,7.165-4.241,9.492-7.867c1.72-0.267,2.321,1.295,3.445,2.046
			c3.502,2.353,6.19,1.156,7.065-3.012C209.505,439.173,207.716,436.638,211.188,436.832"/>
		<path fill-rule="evenodd" clip-rule="evenodd" fill="#FFFFFF" d="M166.619,446.525c2.33-4.568,5.169-9.011,3.004-14.611
			c4.268-0.625,2.84,4.739,5.979,4.793c1.629-0.88,3.475-0.593,5.2-0.989c1.595-0.282,3.151-1.069,4.82-0.344
			c1.668,0.908,2.501,2.456,3.172,4.131c0.631,2.635-0.978,4.882-1.283,7.352c-2.415,3.061-5.542,5.156-9.086,6.687
			c-0.485,0.09-0.965,0.176-1.448,0.268C171.41,454.397,169.402,449.906,166.619,446.525"/>
		<path fill-rule="evenodd" clip-rule="evenodd" fill="#FFFFFF" d="M166.619,446.525c8.089-4.168,8.36,2.789,10.359,7.286
			c-0.486,3.422,1.975,6.069,2.534,9.281c-5.719,2.652-7.368-3.518-11.122-5.009c-4.297,0.231-2.145-4.227-4.126-5.681
			C164.351,450.165,165.335,448.286,166.619,446.525"/>
		<path fill-rule="evenodd" clip-rule="evenodd" fill="#FFFFFF" d="M198.239,429.949c3.162-1.295-1.338-7.114,4.15-7.036
			c0.078,5.017,0.154,10.033,0.232,15.052c-0.431,0.525-0.91,1.006-1.43,1.445c-1.138,0.793-2.525,1.222-3.451,2.313
			c-4.053,4.776-7.009,3.267-9.399-1.615c-3.11-3.246-3.291-6.158,0.962-8.581C191.874,428.71,195.315,430.79,198.239,429.949"/>
		<path fill-rule="evenodd" clip-rule="evenodd" fill="#FFFFFF" d="M205.473,456.779c3.418-2.358,7.805-0.935,11.319-2.915
			c-3.002,13.883-5.473,16.498-16.913,16.998C204.33,466.807,209.112,463.197,205.473,456.779"/>
		<path fill-rule="evenodd" clip-rule="evenodd" fill="#FFFFFF" d="M193.741,404.026c0.526,6.305-3.516,11.932-2.735,18.276
			c-5.448,2.044-5.751-2.163-6.735-5.542c0.453-3.361,2.916-5.708,4.318-8.589C190.306,406.788,192.024,405.407,193.741,404.026"/>
		<path fill-rule="evenodd" clip-rule="evenodd" fill="#FFFFFF" d="M185.325,446.716c0.668-2.323,1.336-4.646,2.006-6.965
			c2.893-0.167,2.316,2.893,3.768,4.067c0.709,1.983-1.422,3.974,0.014,5.957c-0.728,2.456,2.228,2.431,2.738,4.06
			c-3.627,0.214-3.112,5.929-7.254,5.454C182.768,455.444,181.556,451.33,185.325,446.716"/>
		<path fill-rule="evenodd" clip-rule="evenodd" fill="#FFFFFF" d="M185.325,446.716c0.424,4.192,0.849,8.387,1.272,12.573
			c-3.175-1.273-6.316-2.595-8.171-5.748C179.001,449.527,180.801,446.743,185.325,446.716"/>
		<path fill-rule="evenodd" clip-rule="evenodd" fill="#FFFFFF" d="M164.264,452.403c1.374,1.896,2.752,3.788,4.127,5.682
			c-2.715,3.937,1.025,6.688,1.825,9.985c-0.569,0.377-1.139,0.761-1.706,1.138c-0.495-0.38-0.989-0.761-1.483-1.138
			C163.534,463.3,162.656,458.074,164.264,452.403"/>
		<path fill-rule="evenodd" clip-rule="evenodd" fill="#FFFFFF" d="M181.368,439.448c-2.372,0.032-4.112-1.261-5.763-2.741
			c1.587-4.192,1.279-8.578,1.355-12.926c1.578,0.317,2.209,1.644,2.996,2.802C182.97,430.592,183.963,434.823,181.368,439.448"/>
		<path fill-rule="evenodd" clip-rule="evenodd" fill="#FFFFFF" d="M184.271,416.76c2.247,1.848,4.49,3.699,6.735,5.542
			c0.064,0.51,0.133,1.018,0.198,1.526c-0.625,2.296-1.525,4.499-4.373,4.35c-2.687-0.143-3.834-2.083-4.213-4.553
			c-0.071-0.37-0.145-0.738-0.214-1.102C183.026,420.6,183.65,418.679,184.271,416.76"/>
		<path fill-rule="evenodd" clip-rule="evenodd" fill="#FFFFFF" d="M181.368,439.448c-0.468-4.29-0.942-8.577-1.412-12.865
			c0.819-1.352,1.632-2.708,2.45-4.06l0.527-0.123c0.583,1.783,0.943,3.631,1.631,5.38c0.259,2.98,0.755,5.973-0.59,8.842
			C183.455,437.887,182.725,438.956,181.368,439.448"/>
		<path fill-rule="evenodd" clip-rule="evenodd" fill="#FFFFFF" d="M201.514,438.446c-0.586,1.322-1.169,2.637-1.758,3.959
			c-1.359,4.236-6.882,3.596-8.643,7.37c-1.544-1.631-1.432-3.683-1.452-5.699c-0.603-1.548-1.113-3.089,0.447-4.416
			c2.021,2.049,4.171,3.383,6.27,0.247C197.768,437.826,199.206,436.855,201.514,438.446"/>
		<path fill-rule="evenodd" clip-rule="evenodd" fill="#FFFFFF" d="M182.844,428.185c0.03-1.928,0.061-3.858,0.088-5.789
			c2.203,3.688,4.946,4.246,8.272,1.432c1.613,2.883,3.198,5.799,7.037,6.118c-2.328,1.286-4.653,2.564-6.981,3.844
			C188.131,432.409,182.305,435.071,182.844,428.185"/>
		<path fill-rule="evenodd" clip-rule="evenodd" fill="#FFFFFF" d="M182.844,428.185c1.188,1.597,2.004,3.538,4.782,2.596
			c2.392-0.809,3.058,1.221,3.634,3.008c-4.206,1.205-3.815,3.312-1.153,5.87c-0.148,1.472-0.296,2.942-0.448,4.416
			c-0.776-1.443-1.55-2.887-2.329-4.327c-1.118-1.042-2.235-2.085-3.354-3.126C182.326,433.984,182.673,431.072,182.844,428.185"/>
	</g>
	<g clip-path="url(#SVGID_2_)">
		<path fill="#FFFFFF" d="M313.144,454.758c0,0-22.872,2.494-18.629-20.377c0,0-17.265-16.168,5.267-23.931
			c6.558-2.259,1.74,1.439,1.74,1.439s3.185-13.783,15.187-10.751c0,0,6.211,1.174,7.386,8.444c0,0,9.506-6.364,16.584,2.274
			c7.081,8.633,5.719,17.911,2.689,19.802c0,0,4.546,3.899,1.813,15.723C342.455,459.194,319.354,466.043,313.144,454.758"/>
		<path fill="#FFFFFF" d="M308.832,439.759c0,0-6.897,5.153-12.12,0.837c0,0,6.359-0.608,10.339-4.355l-7.572-15.491
			c0,0,3.106,5.643,6.623,7.235c3.525,1.59,6.174,5.83,6.174,5.83s1.478-9.769,6.061-13.895c0,0-2.804,4.278,0.152,8.328
			c2.952,4.055-0.759,5.531-0.004,6.745c0,0,4.658-3.336,9.433-3.787c4.768-0.455,7.872-1.552,11.887-3.22
			c0,0-19.425,13.403-20.185,12.191c0,0-0.72,4.24,15.828,4.431c0,0-14.349,2.654-18.365,0.951l-4.015-1.711
			c0,0-11.966,9.166-16.854,30.337l-2.196-6.215c0,0,6.705-18.931,15.566-26.994"/>
		<path fill="none" stroke="#366AB2" stroke-miterlimit="10" d="M308.832,439.759c0,0-6.897,5.153-12.12,0.837
			c0,0,6.359-0.608,10.339-4.355l-7.572-15.491c0,0,3.106,5.643,6.623,7.235c3.525,1.59,6.174,5.83,6.174,5.83
			s1.478-9.769,6.061-13.895c0,0-2.804,4.278,0.152,8.328c2.952,4.055-0.759,5.531-0.004,6.745c0,0,4.658-3.336,9.433-3.787
			c4.768-0.455,7.872-1.552,11.887-3.22c0,0-19.425,13.403-20.185,12.191c0,0-0.72,4.24,15.828,4.431c0,0-14.349,2.654-18.365,0.951
			l-4.015-1.711c0,0-11.966,9.166-16.854,30.337l-2.196-6.215c0,0,6.705-18.931,15.566-26.994"/>
	</g>
	<path clip-path="url(#SVGID_2_)" fill="#FFFFFF" d="M83.654,514.505h4.066c0,0,1.143,12.956-6.102,18.802
		c0,0-2.03,2.416-8.763,6.605c-6.734,4.193-5.97,6.355-6.607,11.944l3.939,0.126c0,0,0,3.684,1.525,4.446
		c1.525,0.761,3.049,0.128,3.049,4.7v17.41h-4.064v12.702h-3.559v-12.832H64.85v8.639c0,0,0.382,2.037-1.779,2.037
		c0,0-1.397,0.122-1.397-0.89v-9.656l-2.921,0.122v12.325H55.45V578.28h-4.193v-16.26c0,0,0.253-4.953,3.684-5.083
		c0,0,1.144-1.525,1.525-4.318h4.066c0,0-0.383-10.039,5.336-12.706c0,0,3.124-2.567,13.594-10.414
		C80.478,528.734,83.144,526.32,83.654,514.505"/>
	<polygon clip-path="url(#SVGID_2_)" fill="#FFFFFF" points="222.499,552.274 222.499,544.939 204.409,536.549 204.409,552.274 
		202.046,552.274 202.046,544.939 183.956,536.549 183.956,552.274 178.182,552.274 178.182,528.676 170.32,528.676 170.32,552.274 
		167.173,552.274 167.173,528.676 159.307,528.676 159.307,552.274 152.489,552.274 152.489,574.3 228.005,574.3 228.005,552.274 	
		"/>
</g>
<g>
	<path fill="none" d="M111.747,201.855c2.484,26.633-17.09,50.242-43.724,52.727c-26.637,2.487-50.241-17.092-52.728-43.726
		c-2.486-26.637,17.092-50.239,43.727-52.728C85.656,155.643,109.26,175.218,111.747,201.855"/>
	<text transform="matrix(0.9433 -0.3319 0.3319 0.9433 43.5484 162.0244)"><tspan x="0" y="0" font-family="'PTSans-Regular'" font-size="14">A</tspan><tspan x="7.828" y="0.009" font-family="'PTSans-Regular'" font-size="14" rotate="8.697">L</tspan><tspan x="14.654" y="0.948" font-family="'PTSans-Regular'" font-size="14" rotate="17.84">D</tspan><tspan x="23.013" y="3.64" font-family="'PTSans-Regular'" font-size="14" rotate="27.724">R</tspan><tspan x="30.054" y="7.465" font-family="'PTSans-Regular'" font-size="14" rotate="34.738">I</tspan><tspan x="33.278" y="9.461" font-family="'PTSans-Regular'" font-size="14" rotate="42.391">N</tspan></text>
	<path fill="none" d="M236.389,191.626c8.133,25.482-5.928,52.737-31.411,60.871c-25.485,8.137-52.737-5.93-60.873-31.412
		c-8.136-25.486,5.931-52.734,31.414-60.873C201.002,152.078,228.252,166.141,236.389,191.626"/>
	<text transform="matrix(0.8224 -0.5689 0.5689 0.8224 159.3871 168.7934)"><tspan x="0" y="0" font-family="'PTSans-Regular'" font-size="14">C</tspan><tspan x="7.594" y="-0.095" font-family="'PTSans-Regular'" font-size="14" rotate="9.831">H</tspan><tspan x="16.473" y="1.502" font-family="'PTSans-Regular'" font-size="14" rotate="19.103">L</tspan><tspan x="23.027" y="3.637" font-family="'PTSans-Regular'" font-size="14" rotate="28.581">O</tspan><tspan x="31.065" y="8.037" font-family="'PTSans-Regular'" font-size="14" rotate="38.732">R</tspan><tspan x="37.304" y="12.953" font-family="'PTSans-Regular'" font-size="14" rotate="48.62">D</tspan><tspan x="43.101" y="19.551" font-family="'PTSans-Regular'" font-size="14" rotate="58.384">A</tspan><tspan x="47.266" y="26.15" font-family="'PTSans-Regular'" font-size="14" rotate="68.252">N</tspan><tspan x="50.568" y="34.554" font-family="'PTSans-Regular'" font-size="14" rotate="77.762">E</tspan></text>
	<path fill="none" d="M365.533,207.96c-0.887,26.734-23.278,47.692-50.012,46.805c-26.738-0.885-47.691-23.279-46.806-50.014
		c0.886-26.738,23.279-47.688,50.016-46.806C345.465,158.832,366.419,181.222,365.533,207.96"/>
	<text transform="matrix(0.9901 -0.1401 0.1401 0.9901 305.7533 159.038)"><tspan x="0" y="0" font-family="'PTSans-Regular'" font-size="14">D</tspan><tspan x="8.738" y="-0.087" font-family="'PTSans-Regular'" font-size="14" rotate="10.882">D</tspan><tspan x="17.373" y="1.549" font-family="'PTSans-Regular'" font-size="14" rotate="19.72">T</tspan></text>
	<path fill="none" d="M111.409,313.654c3.724,26.488-14.728,50.985-41.216,54.709c-26.492,3.727-50.984-14.729-54.711-41.218
		c-3.726-26.492,14.73-50.982,41.219-54.711C83.189,268.71,107.682,287.162,111.409,313.654"/>
	<text transform="matrix(0.9304 -0.3665 0.3665 0.9304 41.3966 277.0146)"><tspan x="0" y="0" font-family="'PTSans-Regular'" font-size="14">D</tspan><tspan x="8.834" y="0.146" font-family="'PTSans-Regular'" font-size="14" rotate="7.463">I</tspan><tspan x="12.627" y="0.496" font-family="'PTSans-Regular'" font-size="14" rotate="14.426">E</tspan><tspan x="19.608" y="2.245" font-family="'PTSans-Regular'" font-size="14" rotate="22.183">L</tspan><tspan x="26.004" y="4.735" font-family="'PTSans-Regular'" font-size="14" rotate="31.46">D</tspan><tspan x="33.465" y="9.302" font-family="'PTSans-Regular'" font-size="14" rotate="41.356">R</tspan><tspan x="39.429" y="14.702" font-family="'PTSans-Regular'" font-size="14" rotate="48.355">I</tspan><tspan x="42.09" y="17.4" font-family="'PTSans-Regular'" font-size="14" rotate="55.933">N</tspan></text>
	<path fill="none" d="M238.576,318.695c0.941,26.732-19.966,49.17-46.698,50.111c-26.736,0.943-49.17-19.968-50.113-46.7
		c-0.942-26.736,19.967-49.167,46.702-50.113C215.2,271.052,237.633,291.958,238.576,318.695"/>
	<text transform="matrix(0.9438 -0.3304 0.3304 0.9438 170.6083 275.9175)"><tspan x="0" y="0" font-family="'PTSans-Regular'" font-size="14">E</tspan><tspan x="7.144" y="-0.11" font-family="'PTSans-Regular'" font-size="14" rotate="9.6">N</tspan><tspan x="16.029" y="1.369" font-family="'PTSans-Regular'" font-size="14" rotate="19.956">D</tspan><tspan x="24.273" y="4.362" font-family="'PTSans-Regular'" font-size="14" rotate="29.809">R</tspan><tspan x="31.196" y="8.459" font-family="'PTSans-Regular'" font-size="14" rotate="36.861">I</tspan><tspan x="34.324" y="10.557" font-family="'PTSans-Regular'" font-size="14" rotate="44.487">N</tspan></text>
	<path fill="none" d="M359.936,297.891c12.43,23.685,3.309,52.966-20.377,65.396c-23.688,12.434-52.966,3.307-65.399-20.378
		c-12.433-23.688-3.306-52.964,20.379-65.399C318.225,265.08,347.502,274.203,359.936,297.891"/>
	<text transform="matrix(0.7932 -0.6089 0.6089 0.7932 283.7784 284.8682)"><tspan x="0" y="0" font-family="'PTSans-Regular'" font-size="14">H</tspan><tspan x="9.001" y="0.085" font-family="'PTSans-Regular'" font-size="14" rotate="8.881">E</tspan><tspan x="16.108" y="1.192" font-family="'PTSans-Regular'" font-size="14" rotate="18.055">P</tspan><tspan x="23.205" y="3.478" font-family="'PTSans-Regular'" font-size="14" rotate="26.873">T</tspan><tspan x="29.844" y="6.792" font-family="'PTSans-Regular'" font-size="14" rotate="35.938">A</tspan><tspan x="36.195" y="11.369" font-family="'PTSans-Regular'" font-size="14" rotate="45.065">C</tspan><tspan x="41.633" y="16.69" font-family="'PTSans-Regular'" font-size="14" rotate="54.819">H</tspan><tspan x="46.783" y="24.095" font-family="'PTSans-Regular'" font-size="14" rotate="64.144">L</tspan><tspan x="49.893" y="30.214" font-family="'PTSans-Regular'" font-size="14" rotate="73.612">O</tspan><tspan x="52.464" y="39.034" font-family="'PTSans-Regular'" font-size="14" rotate="83.787">R</tspan></text>
	<path fill="none" d="M91.501,394.219c22.214,14.901,28.147,44.99,13.247,67.204c-14.901,22.219-44.991,28.146-67.207,13.247
		c-22.218-14.902-28.144-44.989-13.246-67.208C39.196,385.247,69.282,379.318,91.501,394.219"/>
	<text transform="matrix(0.3501 -0.9367 0.9367 0.3501 17.4805 421.9259)"><tspan x="0" y="0" font-family="'PTSans-Regular'" font-size="14">H</tspan><tspan x="9.032" y="0.049" font-family="'PTSans-Regular'" font-size="14" rotate="9.545">E</tspan><tspan x="16.084" y="1.16" font-family="'PTSans-Regular'" font-size="14" rotate="18.527">X</tspan><tspan x="23.944" y="3.78" font-family="'PTSans-Regular'" font-size="14" rotate="28.058">A</tspan><tspan x="30.848" y="7.437" font-family="'PTSans-Regular'" font-size="14" rotate="37.229">C</tspan><tspan x="36.967" y="11.969" font-family="'PTSans-Regular'" font-size="14" rotate="47.058">H</tspan><tspan x="43.074" y="18.616" font-family="'PTSans-Regular'" font-size="14" rotate="56.396">L</tspan><tspan x="46.99" y="24.283" font-family="'PTSans-Regular'" font-size="14" rotate="65.84">O</tspan><tspan x="50.719" y="32.635" font-family="'PTSans-Regular'" font-size="14" rotate="75.89">R</tspan><tspan x="52.742" y="40.307" font-family="'PTSans-Regular'" font-size="14" rotate="86.038">O</tspan><tspan x="53.348" y="49.481" font-family="'PTSans-Regular'" font-size="14" rotate="96.113">B</tspan></text>
	<path fill="none" d="M238.487,437.847c-1.88,26.683-25.034,46.794-51.717,44.914c-26.687-1.878-46.793-25.035-44.915-51.719
		c1.879-26.687,25.035-46.79,51.72-44.915C220.258,388.007,240.365,411.16,238.487,437.847"/>
	<text transform="matrix(0.9809 -0.1943 0.1943 0.9809 175.2989 388.0005)"><tspan x="0" y="0" font-family="'PTSans-Regular'" font-size="14">M</tspan><tspan x="10.715" y="0.236" font-family="'PTSans-Regular'" font-size="14" rotate="8.571">I</tspan><tspan x="14.48" y="0.605" font-family="'PTSans-Regular'" font-size="14" rotate="16.167">R</tspan><tspan x="22.172" y="2.791" font-family="'PTSans-Regular'" font-size="14" rotate="24.351">E</tspan><tspan x="28.71" y="5.666" font-family="'PTSans-Regular'" font-size="14" rotate="33.513">X</tspan></text>
	<path fill="none" d="M361.867,416.078c10.142,24.752-1.699,53.042-26.451,63.184c-24.754,10.145-53.042-1.701-63.186-26.452
		c-10.145-24.755,1.702-53.039,26.454-63.187C323.435,379.482,351.722,391.324,361.867,416.078"/>
	<text transform="matrix(0.8385 -0.5449 0.5449 0.8385 287.349 395.9684)"><tspan x="0" y="0" font-family="'PTSans-Regular'" font-size="14">T</tspan><tspan x="7.396" y="-0.106" font-family="'PTSans-Regular'" font-size="14" rotate="9.733">O</tspan><tspan x="16.43" y="1.446" font-family="'PTSans-Regular'" font-size="14" rotate="19.92">X</tspan><tspan x="24.215" y="4.254" font-family="'PTSans-Regular'" font-size="14" rotate="29.477">A</tspan><tspan x="31.038" y="8.094" font-family="'PTSans-Regular'" font-size="14" rotate="38.556">P</tspan><tspan x="36.923" y="12.658" font-family="'PTSans-Regular'" font-size="14" rotate="48.257">H</tspan><tspan x="42.9" y="19.429" font-family="'PTSans-Regular'" font-size="14" rotate="57.745">E</tspan><tspan x="46.788" y="25.379" font-family="'PTSans-Regular'" font-size="14" rotate="67.213">N</tspan><tspan x="50.247" y="33.738" font-family="'PTSans-Regular'" font-size="14" rotate="76.78">E</tspan></text>
	<path fill="none" d="M111.729,552.319c-2.116,26.665-25.447,46.57-52.112,44.454c-26.669-2.114-46.569-25.449-44.456-52.114
		c2.115-26.669,25.448-46.567,52.116-44.455C93.942,502.319,113.843,525.65,111.729,552.319"/>
	<text transform="matrix(0.9857 -0.1688 0.1688 0.9857 51.3805 501.4023)"><tspan x="0" y="0" font-family="'PTSans-Regular'" font-size="14">P</tspan><tspan x="7.478" y="-0.033" font-family="'PTSans-Regular'" font-size="14" rotate="8.946">C</tspan><tspan x="15.008" y="1.116" font-family="'PTSans-Regular'" font-size="14" rotate="17.924">B</tspan><tspan x="22.471" y="3.589" font-family="'PTSans-Regular'" font-size="14" rotate="25.862">s</tspan></text>
	<path fill="none" d="M233.764,527.378c11.657,24.075,1.594,53.045-22.481,64.703c-24.077,11.661-53.045,1.592-64.705-22.482
		c-11.66-24.078-1.591-53.043,22.484-64.706C193.137,493.236,222.103,503.301,233.764,527.378"/>
	<text transform="matrix(0.7412 -0.6712 0.6712 0.7412 154.2426 515.6625)"><tspan x="0" y="0" font-family="'PTSans-Regular'" font-size="14">D</tspan><tspan x="8.844" y="0.146" font-family="'PTSans-Regular'" font-size="14" rotate="7.496">I</tspan><tspan x="12.612" y="0.439" font-family="'PTSans-Regular'" font-size="14" rotate="15.137">O</tspan><tspan x="21.465" y="2.835" font-family="'PTSans-Regular'" font-size="14" rotate="25.328">X</tspan><tspan x="28.956" y="6.519" font-family="'PTSans-Regular'" font-size="14" rotate="32.534">I</tspan><tspan x="32.261" y="8.391" font-family="'PTSans-Regular'" font-size="14" rotate="40.215">N</tspan><tspan x="39.109" y="14.398" font-family="'PTSans-Regular'" font-size="14" rotate="47.652"> </tspan><tspan x="41.528" y="16.89" font-family="'PTSans-Regular'" font-size="14" rotate="53.802">F</tspan><tspan x="45.681" y="22.39" font-family="'PTSans-Regular'" font-size="14" rotate="62.991">U</tspan><tspan x="49.646" y="30.168" font-family="'PTSans-Regular'" font-size="14" rotate="72.779">R</tspan><tspan x="52.027" y="37.764" font-family="'PTSans-Regular'" font-size="14" rotate="82.106">A</tspan><tspan x="53.185" y="45.476" font-family="'PTSans-Regular'" font-size="14" rotate="92.097">N</tspan></text>
	<path fill="none" d="M93.543,471.453c-20.991,16.58-51.451,13.007-68.03-7.984c-16.584-20.992-13.006-51.451,7.984-68.033
		c20.993-16.583,51.449-13.004,68.034,7.985C118.11,424.413,114.536,454.869,93.543,471.453"/>
	<text transform="matrix(0.7959 0.6055 -0.6055 0.7959 89.8427 392.5965)"><tspan x="0" y="0" font-family="'PTSans-Regular'" font-size="14">E</tspan><tspan x="7.11" y="-0.112" font-family="'PTSans-Regular'" font-size="14" rotate="9.53">N</tspan><tspan x="16.042" y="1.433" font-family="'PTSans-Regular'" font-size="14" rotate="19.057">Z</tspan><tspan x="22.931" y="3.789" font-family="'PTSans-Regular'" font-size="14" rotate="27.588">E</tspan><tspan x="29.294" y="6.987" font-family="'PTSans-Regular'" font-size="14" rotate="37.183">N</tspan><tspan x="36.465" y="12.488" font-family="'PTSans-Regular'" font-size="14" rotate="46.751">E</tspan></text>
</g>
<rect x="14.077" y="628" width="109.231" height="35"/>
<rect x="123.308" y="628" fill="#9962A9" width="132.395" height="35"/>
<rect x="123.308" y="663" width="108.332" height="35"/>
<rect x="26.165" y="637.25" fill="none" width="94.626" height="16.5"/>
<text transform="matrix(1 0 0 1 26.1653 652.1602)" fill="#FFFFFF" font-family="'MyriadPro-Regular'" font-size="21">BANNED</text>
<rect x="125.656" y="672.25" fill="none" width="94.626" height="16.5"/>
<text transform="matrix(1 0 0 1 125.6556 687.1602)" fill="#FFFFFF" font-family="'MyriadPro-Regular'" font-size="21">ALLOWED</text>
<rect x="126.667" y="637.25" fill="none" width="200" height="54.667"/>
<text transform="matrix(1 0 0 1 126.6667 652.1602)" fill="#FFFFFF" font-family="'MyriadPro-Regular'" font-size="21">RESTRICTED</text>
<rect x="14.077" y="663" width="109.231" height="35"/>
<rect x="26.165" y="672.25" fill="none" width="94.626" height="16.5"/>
<text transform="matrix(1 0 0 1 26.1653 687.1602)" fill="#FFFFFF" font-family="'MyriadPro-Regular'" font-size="21">NO INFO</text>
</svg>
