<?xml version="1.0" encoding="utf-8"?>
<!-- Generator: Adobe Illustrator 18.0.0, SVG Export Plug-In . SVG Version: 6.00 Build 0)  -->
<!DOCTYPE svg PUBLIC "-//W3C//DTD SVG 1.1//EN" "http://www.w3.org/Graphics/SVG/1.1/DTD/svg11.dtd">
<svg version="1.1" xmlns="http://www.w3.org/2000/svg" xmlns:xlink="http://www.w3.org/1999/xlink" x="0px" y="0px"
	 viewBox="0 0 1600 1150" enable-background="new 0 0 1600 1150" xml:space="preserve">
<g id="Layer_1">
</g>
<g id="Layer_2">
	<g id="Layer_8">
	</g>
</g>
<g id="Layer_3">
</g>
<g id="Layer_4">
</g>
<g id="Layer_5">
	<g>
		<defs>
			<rect id="SVGID_2_" y="-2169.441" width="1600" height="344.441"/>
		</defs>
		<clipPath id="SVGID_1_">
			<use xlink:href="#SVGID_2_"  overflow="visible"/>
		</clipPath>
		<path opacity="0.5" clip-path="url(#SVGID_1_)" fill="#FFFFFF" d="M800-2096.477c-1402.173,0-2538.859,1118.705-2538.859,2498.697
			S-602.173,2900.918,800,2900.918S3338.859,1782.213,3338.859,402.221S2202.174-2096.477,800-2096.477z M800,2805.756
			c-1327.436,0-2403.536-1076.1-2403.536-2403.535c0-1327.438,1076.1-2403.536,2403.536-2403.536S3203.536-925.217,3203.536,402.221
			C3203.536,1729.656,2127.438,2805.756,800,2805.756z"/>
		<path clip-path="url(#SVGID_1_)" fill="#D1DE58" d="M800-2169.441c-1490.501,0-2698.792,1104.738-2698.792,2571.662
			c0,1466.922,1208.291,2656.1,2698.792,2656.1s2698.792-1189.178,2698.792-2656.1
			C3498.793-1064.703,2290.502-2169.441,800-2169.441z M800,2924.457c-1415.382,0-2562.777-1129.244-2562.777-2522.236
			S-615.382-2120.016,800-2120.016S3362.777-990.771,3362.777,402.221S2215.384,2924.457,800,2924.457z"/>
	</g>
</g>
<g id="Layer_6">
	<g>
		<defs>
			<rect id="SVGID_4_" x="4.625" y="-1030.041" width="1596.375" height="979.041"/>
		</defs>
		<clipPath id="SVGID_3_">
			<use xlink:href="#SVGID_4_"  overflow="visible"/>
		</clipPath>
		<radialGradient id="SVGID_5_" cx="805" cy="552" r="1508" gradientUnits="userSpaceOnUse">
			<stop  offset="0" style="stop-color:#48C2C5"/>
			<stop  offset="0.0912" style="stop-color:#58C4BE"/>
			<stop  offset="0.2495" style="stop-color:#79C9AB"/>
			<stop  offset="0.4559" style="stop-color:#A3D28B"/>
			<stop  offset="0.6744" style="stop-color:#D1DE58"/>
			<stop  offset="0.7321" style="stop-color:#CEDD5C"/>
			<stop  offset="0.7856" style="stop-color:#C5DB68"/>
			<stop  offset="0.8374" style="stop-color:#B6D67A"/>
			<stop  offset="0.8882" style="stop-color:#A0D18E"/>
			<stop  offset="0.9382" style="stop-color:#81CAA6"/>
			<stop  offset="0.9871" style="stop-color:#51C3C2"/>
			<stop  offset="0.9931" style="stop-color:#48C2C5"/>
		</radialGradient>
		<circle opacity="0.5" clip-path="url(#SVGID_3_)" fill="url(#SVGID_5_)" cx="805" cy="552" r="1508"/>
		<g clip-path="url(#SVGID_3_)">
			<circle fill="none" cx="805" cy="552" r="1112"/>
		</g>
		<circle clip-path="url(#SVGID_3_)" fill="none" stroke="#FFFFFF" stroke-miterlimit="10" cx="805" cy="552" r="1300"/>
		<circle clip-path="url(#SVGID_3_)" fill="none" stroke="#FFFFFF" stroke-miterlimit="10" cx="805" cy="552" r="1508"/>
	</g>
	<g>
		<defs>
			<rect id="SVGID_7_" x="1245.479" y="-698.926" width="262" height="129"/>
		</defs>
		<clipPath id="SVGID_6_">
			<use xlink:href="#SVGID_7_"  overflow="visible"/>
		</clipPath>
		<g clip-path="url(#SVGID_6_)">
			<defs>
				<rect id="SVGID_9_" x="4.625" y="-1030.041" width="1596.375" height="979.041"/>
			</defs>
			<clipPath id="SVGID_8_">
				<use xlink:href="#SVGID_9_"  overflow="visible"/>
			</clipPath>
			<radialGradient id="SVGID_10_" cx="805" cy="552" r="1508" gradientUnits="userSpaceOnUse">
				<stop  offset="0" style="stop-color:#48C2C5"/>
				<stop  offset="0.0912" style="stop-color:#58C4BE"/>
				<stop  offset="0.2495" style="stop-color:#79C9AB"/>
				<stop  offset="0.4559" style="stop-color:#A3D28B"/>
				<stop  offset="0.6744" style="stop-color:#D1DE58"/>
				<stop  offset="0.7321" style="stop-color:#CEDD5C"/>
				<stop  offset="0.7856" style="stop-color:#C5DB68"/>
				<stop  offset="0.8374" style="stop-color:#B6D67A"/>
				<stop  offset="0.8882" style="stop-color:#A0D18E"/>
				<stop  offset="0.9382" style="stop-color:#81CAA6"/>
				<stop  offset="0.9871" style="stop-color:#51C3C2"/>
				<stop  offset="0.9931" style="stop-color:#48C2C5"/>
			</radialGradient>
			<circle opacity="0.5" clip-path="url(#SVGID_8_)" fill="url(#SVGID_10_)" cx="805" cy="552" r="1508"/>
			<circle clip-path="url(#SVGID_8_)" fill="none" stroke="#FFFFFF" stroke-miterlimit="10" cx="805" cy="552" r="1112"/>
			<circle clip-path="url(#SVGID_8_)" fill="none" stroke="#FFFFFF" stroke-miterlimit="10" cx="805" cy="552" r="1300"/>
			<circle clip-path="url(#SVGID_8_)" fill="none" stroke="#FFFFFF" stroke-miterlimit="10" cx="805" cy="552" r="1508"/>
		</g>
	</g>
</g>
<g id="Layer_7">
	<rect fill="#47BCB6" width="1600.229" height="1147.277"/>
	<path fill="#3A9E99" d="M2087.238,967.357c0,0-23.594-31.538-35.838-38.643c-27.617-16.026-100.945-20.646-129.912-35.133
		c-38.078-19.044-125.43-101.968-125.43-101.968s-168.494-79.367-237.422-85.123c-31.6-2.641-91.678,22.632-123.188,19.643
		c-11.959-1.134-28.27-14.98-40.318-15.715c-35.99-2.19-99.096,26.763-134.389,31.43c-33.934,4.488-104.084,5.476-138.871,5.238
		c-32.035-0.214-95.643-7.073-127.67-6.547c-42.982,0.706-131.387,3.616-170.227,14.404c-25.416,7.06-54.796,43.439-82.874,44.527
		c-40.921,1.587-95.671-47.099-134.389-55.004c-25.952-5.299-84.589,2.546-109.752-3.928c-20.66-5.316-42.382-36.546-64.955-36.67
		c-32.883-0.179-68.536,42.093-96.314,52.385c-15.28,5.663-49.185,14.693-67.192,15.715c-20.989,1.191-62.959-5.116-82.877-9.168
		c-12.537-2.549-33.804-15.029-47.033-14.404c-11.163,0.526-26.815,11.838-35.839,15.715c-13.9,5.974-40.05,19.726-55.996,23.574
		c-19.657,4.741-83.993,7.857-83.993,7.857c-34.231-16.677-115.599,32.28-146.708,52.368
		c-22.312,14.407-49.708,55.731-67.196,73.775c-11.323,11.686-47.036,45.671-47.036,45.671H-11.48c0,0,0.05-0.351,0.137-1.016
		h1754.134l-0.307,1.016H2087.238z"/>
	<g>
		<polygon fill="#D1D3D4" points="1185.492,850.879 1185.492,963.298 1228.103,963.298 1219.112,948.923 1222.965,948.923 
			1214.24,935.065 1218.346,935.065 1209.879,921.204 1213.726,921.204 1204.997,907.341 1209.622,907.341 1200.123,892.97 
			1204.484,892.97 1195.499,879.11 1200.378,879.11 1191.396,865.25 1195.757,865.25 		"/>
		<polygon fill="#FFFFFF" points="1185.492,850.879 1185.492,963.298 1142.885,963.298 1151.869,948.923 1148.02,948.923 
			1156.747,935.065 1152.636,935.065 1161.109,921.204 1157.26,921.204 1165.986,907.341 1161.367,907.341 1170.864,892.97 
			1166.499,892.97 1175.48,879.11 1170.604,879.11 1179.592,865.25 1175.222,865.25 		"/>
	</g>
	<rect x="1.592" y="984.238" fill="#FFFFFF" width="1600" height="165.762"/>
	<text transform="matrix(1 0 0 1 341.2988 1094.0654)"><tspan x="0" y="0" fill="#010101" font-family="'Helvetica'" font-size="18">Re</tspan><tspan x="23.01" y="0" fill="#010101" font-family="'Helvetica'" font-size="18">f</tspan><tspan x="27.849" y="0" fill="#010101" font-family="'Helvetica'" font-size="18">erences</tspan><tspan x="0" y="21.6" fill="#010101" font-family="'Helvetica'" font-size="18">Bowman, K.W. (2013). Toward the next generation of air quality monitoring: Ozone. Atmospheric Environment 80: 584-590.  </tspan></text>
	<g>
		<polygon fill="#2E2119" points="105.124,1045.854 105.124,1029.158 116.626,1029.158 116.626,1031.684 108.737,1031.684 
			108.737,1035.93 115.362,1035.93 115.362,1038.309 108.737,1038.309 108.737,1043.307 116.966,1043.307 116.966,1045.854 		"/>
		<path fill="#2E2119" d="M127.189,1045.854v-7.375c0-1.24-0.194-2.137-1.698-2.137c-0.801,0-1.917,0.414-2.718,0.896v8.615h-3.495
			v-11.914h3.301l0.049,1.09l0.097,0.051c1.382-0.924,3.058-1.432,4.198-1.432c3.154,0,3.736,1.869,3.736,4.102v8.104H127.189z"/>
		<path fill="#2E2119" d="M138.554,1043.549c0.121-0.314,0.776-3.082,1.164-4.32c0.535-1.553,1.53-4.949,1.651-5.289h3.494
			c-0.874,2.451-3.227,9.486-4.101,11.914h-4.732c-0.85-2.428-3.229-9.463-4.078-11.914h3.642l1.722,5.531
			c0.268,0.85,0.826,3.252,1.117,4.078H138.554z"/>
		<path fill="#2E2119" d="M148.405,1032.482c-1.287,0-1.99-0.824-1.99-1.842c0-1.068,0.729-1.871,1.99-1.871
			c1.335,0,2.062,0.803,2.062,1.871C150.467,1031.658,149.74,1032.482,148.405,1032.482 M146.682,1033.939h3.47v11.914h-3.47
			V1033.939z"/>
		<path fill="#2E2119" d="M156.674,1036.051c1.31-1.287,3.203-2.428,4.538-2.428c0.486,0,0.678,0.293,0.678,0.803
			c0,0.896-0.581,2.717-1.09,3.422l-4.053-0.049v8.055h-3.471v-11.914h3.422c0,0.557-0.072,1.48-0.145,2.039L156.674,1036.051z"/>
		<path fill="#2E2119" d="M168.685,1046.098c-4.416,0-5.945-2.766-5.945-6.188c0-3.35,1.699-6.238,6.092-6.238
			c4.439,0,5.969,2.889,5.969,6.213S173.224,1046.098,168.685,1046.098 M168.831,1036.123c-1.99,0-2.525,1.916-2.525,3.787
			c0,2.109,0.412,3.736,2.525,3.736c1.965,0,2.378-1.773,2.378-3.736C171.209,1038.016,170.82,1036.123,168.831,1036.123"/>
		<path fill="#2E2119" d="M184.675,1045.854v-7.375c0-1.24-0.195-2.137-1.699-2.137c-0.801,0-1.918,0.414-2.719,0.896v8.615h-3.494
			v-11.914h3.3l0.049,1.09l0.097,0.051c1.383-0.924,3.059-1.432,4.199-1.432c3.154,0,3.736,1.869,3.736,4.102v8.104H184.675z"/>
		<path fill="#2E2119" d="M205.663,1045.854v-7.545c0-1.312-0.34-1.943-1.578-1.943c-0.752,0-1.867,0.365-2.547,0.826
			c0.072,0.51,0.098,1.117,0.098,1.553v7.109h-3.424c0-2.598-0.023-5.193-0.023-7.789c0-1.117-0.509-1.674-1.432-1.674
			c-0.801,0-1.795,0.365-2.621,0.871v8.592h-3.47v-11.914h3.253l0.071,1.188l0.097,0.049c1.36-1.02,2.985-1.504,4.125-1.504
			c1.36,0,2.284,0.484,2.889,1.553c1.165-0.896,3.033-1.553,4.296-1.553c3.179,0,3.761,1.967,3.761,4.197v7.984H205.663z"/>
		<path fill="#2E2119" d="M222.451,1039.449v1.236h-7.788c0,1.82,0.85,2.789,2.985,2.789c1.286,0,2.596-0.289,3.833-0.752
			l0.705,2.137c-1.578,0.873-3.398,1.188-5.049,1.188c-4.805,0-5.969-2.861-5.969-6.137c0-2.621,1.117-6.287,5.823-6.287
			C222.112,1033.623,222.451,1037.311,222.451,1039.449 M214.712,1038.549h4.586c-0.023-1.576-0.51-2.717-2.16-2.717
			C215.416,1035.832,214.833,1037.119,214.712,1038.549"/>
		<path fill="#2E2119" d="M232.619,1045.854v-7.375c0-1.24-0.194-2.137-1.699-2.137c-0.801,0-1.917,0.414-2.718,0.896v8.615h-3.494
			v-11.914h3.299l0.049,1.09l0.098,0.051c1.384-0.924,3.057-1.432,4.198-1.432c3.155,0,3.737,1.869,3.737,4.102v8.104H232.619z"/>
		<path fill="#2E2119" d="M242.857,1030.639v3.277h3.471v2.279h-3.471v5.389c0,1.26,0.364,1.842,1.603,1.842
			c0.436,0,1.189-0.119,2.061-0.314l0.436,2.258c-1.018,0.461-2.377,0.678-3.396,0.678c-3.324,0-4.125-1.648-4.125-3.541v-6.311
			h-1.675v-1.893l1.893-0.559c0.171-0.412,0.704-2.449,0.85-2.863L242.857,1030.639z"/>
		<path fill="#2E2119" d="M258.944,1043.549h1.554l0.169,1.939c-0.776,0.365-1.893,0.609-2.911,0.609
			c-1.044,0-1.796-0.244-1.919-1.434c0-0.023-0.022-0.023-0.048-0.049c-1.674,1.459-3.444,1.482-4.124,1.482
			c-2.961,0-3.689-2.086-3.689-3.471c0-2.477,1.918-3.689,4.418-3.834c0.921-0.072,2.329-0.121,3.25-0.195v-0.289
			c0-1.361-0.437-2.062-2.207-2.062c-1.165,0-2.67,0.24-3.785,0.604c-0.171-0.727-0.365-1.455-0.559-2.156
			c1.406-0.609,3.469-0.996,5.168-0.996c2.863,0,4.684,1.066,4.684,4.15V1043.549z M253.241,1040.709
			c-1.141,0.098-1.674,0.68-1.674,1.625c0,0.998,0.484,1.531,1.627,1.531c0.728,0,1.674-0.391,2.449-1.068v-2.283L253.241,1040.709z
			"/>
		<polygon fill="#2E2119" points="265.883,1045.854 262.436,1045.854 262.436,1028.479 265.907,1028.479 		"/>
		<path fill="#2E2119" d="M111.749,1066.562h-3.034l0.025,6.406h-3.616v-16.695h6.333c3.811,0,5.727,1.99,5.727,5.121
			C117.184,1063.797,115.681,1066.562,111.749,1066.562 M108.715,1058.797v5.316h2.353c1.287,0,2.476-0.68,2.476-2.645
			c0-1.896-1.116-2.672-2.596-2.672H108.715z"/>
		<path fill="#2E2119" d="M129.436,1066.562v1.238h-7.788c0,1.82,0.85,2.789,2.985,2.789c1.285,0,2.597-0.291,3.833-0.752
			l0.703,2.137c-1.578,0.873-3.396,1.189-5.047,1.189c-4.805,0-5.969-2.865-5.969-6.141c0-2.621,1.115-6.283,5.823-6.283
			C129.097,1060.74,129.436,1064.428,129.436,1066.562 M121.696,1065.666h4.586c-0.024-1.578-0.51-2.719-2.16-2.719
			C122.399,1062.947,121.816,1064.232,121.696,1065.666"/>
		<path fill="#2E2119" d="M135.089,1063.164c1.311-1.283,3.203-2.424,4.538-2.424c0.485,0,0.681,0.289,0.681,0.799
			c0,0.896-0.584,2.717-1.094,3.422l-4.051-0.049v8.057h-3.472v-11.914h3.423c0,0.557-0.073,1.479-0.146,2.037L135.089,1063.164z"/>
		<path fill="#2E2119" d="M143.313,1063.311h-1.675v-1.893l1.7-0.486v-1.479c0-2.281,0.994-4.078,4.512-4.078
			c0.826,0,2.16,0.098,3.277,0.412l-0.412,2.354c-0.68-0.145-1.555-0.217-2.063-0.217c-1.237,0-1.942,0.412-1.942,1.578v1.527h3.424
			v2.281h-3.424c0,1.043-0.024,8.615-0.024,9.658h-3.373V1063.311z"/>
		<path fill="#2E2119" d="M157.096,1073.211c-4.416,0-5.945-2.766-5.945-6.188c0-3.35,1.698-6.234,6.091-6.234
			c4.44,0,5.969,2.885,5.969,6.209C163.21,1070.324,161.633,1073.211,157.096,1073.211 M157.241,1063.238
			c-1.99,0-2.523,1.918-2.523,3.785c0,2.111,0.412,3.736,2.523,3.736c1.966,0,2.379-1.77,2.379-3.736
			C159.62,1065.131,159.231,1063.238,157.241,1063.238"/>
		<path fill="#2E2119" d="M168.62,1063.164c1.311-1.283,3.204-2.424,4.539-2.424c0.486,0,0.678,0.289,0.678,0.799
			c0,0.896-0.582,2.717-1.09,3.422l-4.054-0.049v8.057h-3.47v-11.914h3.422c0,0.557-0.072,1.479-0.145,2.037L168.62,1063.164z"/>
		<path fill="#2E2119" d="M190.341,1072.969v-7.547c0-1.309-0.34-1.939-1.578-1.939c-0.752,0-1.867,0.363-2.547,0.822
			c0.072,0.51,0.098,1.117,0.098,1.553v7.111h-3.424c0-2.598-0.023-5.193-0.023-7.791c0-1.113-0.509-1.674-1.432-1.674
			c-0.801,0-1.795,0.365-2.62,0.875v8.59h-3.47v-11.914h3.25l0.073,1.189l0.097,0.049c1.36-1.021,2.985-1.504,4.125-1.504
			c1.36,0,2.283,0.482,2.889,1.553c1.165-0.9,3.033-1.553,4.296-1.553c3.179,0,3.761,1.965,3.761,4.197v7.982H190.341z"/>
		<path fill="#2E2119" d="M206.718,1070.664h1.553l0.17,1.941c-0.775,0.363-1.893,0.605-2.912,0.605
			c-1.045,0-1.797-0.242-1.917-1.432c0-0.021-0.024-0.021-0.049-0.047c-1.675,1.455-3.446,1.479-4.125,1.479
			c-2.961,0-3.689-2.086-3.689-3.471c0-2.473,1.916-3.688,4.416-3.834c0.924-0.072,2.33-0.119,3.252-0.191v-0.293
			c0-1.357-0.438-2.062-2.209-2.062c-1.164,0-2.668,0.242-3.785,0.607c-0.17-0.729-0.363-1.455-0.559-2.162
			c1.408-0.604,3.471-0.992,5.17-0.992c2.863,0,4.684,1.068,4.684,4.148V1070.664z M201.015,1067.822
			c-1.141,0.1-1.674,0.682-1.674,1.629c0,0.994,0.484,1.527,1.625,1.527c0.729,0,1.674-0.389,2.451-1.066v-2.281L201.015,1067.822z"
			/>
		<path fill="#2E2119" d="M218.146,1072.969v-7.377c0-1.238-0.194-2.135-1.699-2.135c-0.801,0-1.917,0.412-2.718,0.896v8.615h-3.494
			v-11.914h3.299l0.049,1.092l0.098,0.049c1.383-0.924,3.057-1.434,4.198-1.434c3.155,0,3.737,1.869,3.737,4.102v8.105H218.146z"/>
		<path fill="#2E2119" d="M230.01,1070.518c1.115,0,2.136-0.242,3.204-0.605l0.654,2.305c-1.189,0.605-2.862,0.947-4.488,0.947
			c-4.562,0-5.752-2.719-5.752-6.02c0-2.814,1.067-6.355,5.896-6.355c1.02,0,2.354,0.094,3.714,0.582
			c-0.171,0.799-0.34,1.6-0.534,2.426c-1.02-0.293-1.893-0.34-2.596-0.34c-1.942,0-2.961,1.334-2.961,3.541
			C227.147,1069.184,227.851,1070.518,230.01,1070.518"/>
		<path fill="#2E2119" d="M246.368,1066.562v1.238h-7.788c0,1.82,0.849,2.789,2.984,2.789c1.285,0,2.597-0.291,3.833-0.752
			l0.705,2.137c-1.578,0.873-3.398,1.189-5.049,1.189c-4.803,0-5.969-2.865-5.969-6.141c0-2.621,1.117-6.283,5.824-6.283
			C246.028,1060.74,246.368,1064.428,246.368,1066.562 M238.628,1065.666h4.587c-0.024-1.578-0.511-2.719-2.161-2.719
			C239.332,1062.947,238.749,1064.232,238.628,1065.666"/>
		<rect x="105.343" y="1083.387" fill="#2E2119" width="3.541" height="16.697"/>
		<path fill="#2E2119" d="M119.95,1100.084v-7.379c0-1.238-0.195-2.135-1.699-2.135c-0.801,0-1.917,0.412-2.718,0.896v8.617h-3.495
			v-11.916h3.301l0.049,1.092l0.097,0.051c1.383-0.924,3.058-1.434,4.198-1.434c3.154,0,3.738,1.867,3.738,4.1v8.107H119.95z"/>
		<path fill="#2E2119" d="M133.925,1088.631v-5.898h3.471v17.352h-3.228l-0.072-1.068c-0.024-0.023-0.047-0.049-0.072-0.049
			c-1.164,0.945-2.645,1.285-3.664,1.285c-3.714,0-4.732-2.717-4.732-5.871c0-3.689,1.358-6.504,5.144-6.504
			C131.548,1087.877,132.931,1088.045,133.925,1088.631 M133.925,1091.055c-0.559-0.338-1.625-0.654-2.402-0.654
			c-1.188,0-2.402,0.703-2.402,3.955c0,2.816,1.043,3.471,2.354,3.471c0.704,0,1.893-0.484,2.451-0.896V1091.055z"/>
		<path fill="#2E2119" d="M150.497,1093.676v1.238h-7.79c0,1.82,0.852,2.791,2.985,2.791c1.287,0,2.597-0.291,3.835-0.754
			l0.703,2.137c-1.577,0.873-3.398,1.189-5.049,1.189c-4.804,0-5.968-2.863-5.968-6.139c0-2.623,1.115-6.285,5.824-6.285
			C150.157,1087.854,150.497,1091.541,150.497,1093.676 M142.756,1092.779h4.587c-0.023-1.578-0.51-2.719-2.161-2.719
			C143.46,1090.061,142.878,1091.346,142.756,1092.779"/>
		<polygon fill="#2E2119" points="157.8,1095.664 155.275,1100.084 151.563,1100.084 155.664,1093.871 151.879,1088.168 
			155.688,1088.168 157.849,1092.195 160.032,1088.168 163.745,1088.168 159.886,1093.846 163.939,1100.084 160.153,1100.084 		"/>
		<path fill="#F4C61B" d="M75.18,1092.689c-1.936,0-3.503-1.566-3.503-3.5c0-1.936,1.567-3.504,3.503-3.504
			c1.933,0,3.503,1.568,3.503,3.504C78.683,1091.123,77.112,1092.689,75.18,1092.689"/>
		<path fill="#F4C61B" d="M78.455,1083.67c-1.356,0-2.456-1.1-2.456-2.457s1.1-2.455,2.456-2.455c1.356,0,2.454,1.098,2.454,2.455
			S79.812,1083.67,78.455,1083.67"/>
		<path fill="#F4C61B" d="M80.911,1076.922c-0.933,0-1.689-0.756-1.689-1.688c0-0.934,0.757-1.689,1.689-1.689
			c0.934,0,1.688,0.756,1.688,1.689C82.6,1076.166,81.845,1076.922,80.911,1076.922"/>
		<path fill="#F4C61B" d="M82.549,1072.467c-0.673,0-1.22-0.545-1.22-1.221c0-0.674,0.547-1.219,1.22-1.219
			c0.673,0,1.22,0.545,1.22,1.219C83.769,1071.922,83.222,1072.467,82.549,1072.467"/>
		<path fill="#7E90C8" d="M60.634,1078.176c-1.935,0-3.502-1.57-3.502-3.504c0-1.932,1.567-3.498,3.502-3.498
			c1.934,0,3.502,1.566,3.502,3.498C64.136,1076.605,62.567,1078.176,60.634,1078.176"/>
		<path fill="#7E90C8" d="M68.577,1073.781c-1.355,0-2.451-1.1-2.451-2.455c0-1.352,1.096-2.451,2.451-2.451
			c1.354,0,2.453,1.1,2.453,2.451C71.03,1072.682,69.932,1073.781,68.577,1073.781"/>
		<path fill="#7E90C8" d="M74.536,1070.5c-0.932,0-1.684-0.752-1.684-1.682s0.752-1.686,1.684-1.686c0.93,0,1.684,0.756,1.684,1.686
			S75.466,1070.5,74.536,1070.5"/>
		<path fill="#7E90C8" d="M78.507,1068.355c-0.668,0-1.211-0.541-1.211-1.211s0.543-1.213,1.211-1.213
			c0.672,0,1.214,0.543,1.214,1.213S79.179,1068.355,78.507,1068.355"/>
		<path fill="#0F9ACC" d="M60.607,1057.629c-1.933,0-3.501-1.566-3.501-3.504c0-1.932,1.568-3.498,3.501-3.498
			c1.935,0,3.503,1.566,3.503,3.498C64.11,1056.062,62.542,1057.629,60.607,1057.629"/>
		<path fill="#0F9ACC" d="M68.592,1059.824c-1.351,0-2.448-1.094-2.448-2.447c0-1.352,1.098-2.449,2.448-2.449
			c1.352,0,2.448,1.098,2.448,2.449C71.04,1058.73,69.943,1059.824,68.592,1059.824"/>
		<path fill="#0F9ACC" d="M74.579,1061.49c-0.924,0-1.676-0.75-1.676-1.676c0-0.928,0.752-1.678,1.676-1.678
			c0.928,0,1.678,0.75,1.678,1.678C76.257,1060.74,75.507,1061.49,74.579,1061.49"/>
		<path fill="#0F9ACC" d="M78.573,1062.643c-0.666,0-1.205-0.541-1.205-1.205c0-0.662,0.539-1.203,1.205-1.203
			c0.664,0,1.203,0.541,1.203,1.203C79.776,1062.102,79.237,1062.643,78.573,1062.643"/>
		<path fill="#3FBBA3" d="M75.12,1043.084c-1.934,0-3.504-1.57-3.504-3.504c0-1.936,1.57-3.502,3.504-3.502
			c1.933,0,3.502,1.566,3.502,3.502C78.622,1041.514,77.053,1043.084,75.12,1043.084"/>
		<path fill="#3FBBA3" d="M78.444,1049.977c-1.35,0-2.444-1.092-2.444-2.443c0-1.35,1.095-2.445,2.444-2.445
			c1.35,0,2.445,1.096,2.445,2.445C80.89,1048.885,79.794,1049.977,78.444,1049.977"/>
		<path fill="#3FBBA3" d="M80.938,1055.17c-0.924,0-1.674-0.748-1.674-1.672s0.75-1.672,1.674-1.672c0.922,0,1.67,0.748,1.67,1.672
			S81.86,1055.17,80.938,1055.17"/>
		<path fill="#3FBBA3" d="M82.6,1058.672c-0.661,0-1.196-0.535-1.196-1.195s0.535-1.197,1.196-1.197
			c0.661,0,1.196,0.537,1.196,1.197S83.261,1058.672,82.6,1058.672"/>
		<path fill="#F89624" d="M85.499,1112.383c-2.389,0-4.326-1.936-4.326-4.326c0-2.389,1.938-4.324,4.326-4.324
			c2.389,0,4.326,1.936,4.326,4.324C89.825,1110.447,87.888,1112.383,85.499,1112.383"/>
		<path fill="#F89624" d="M85.465,1100.061c-1.833,0-3.318-1.486-3.318-3.318c0-1.83,1.485-3.318,3.318-3.318
			c1.833,0,3.317,1.488,3.317,3.318C88.782,1098.574,87.298,1100.061,85.465,1100.061"/>
		<path fill="#F89624" d="M85.438,1090.676c-1.408,0-2.551-1.145-2.551-2.553c0-1.406,1.143-2.551,2.551-2.551
			s2.551,1.145,2.551,2.551C87.989,1089.531,86.847,1090.676,85.438,1090.676"/>
		<path fill="#F89624" d="M85.414,1081.924c-1.041,0-1.882-0.844-1.882-1.881c0-1.039,0.841-1.885,1.882-1.885
			c1.038,0,1.882,0.846,1.882,1.885C87.296,1081.08,86.452,1081.924,85.414,1081.924"/>
		<path fill="#F36F2D" d="M54.646,1099.645c-2.39,0-4.325-1.938-4.325-4.326c0-2.391,1.936-4.326,4.325-4.326
			c2.39,0,4.325,1.936,4.325,4.326C58.972,1097.707,57.036,1099.645,54.646,1099.645"/>
		<path fill="#F36F2D" d="M62.588,1090.574c-1.831,0-3.315-1.482-3.315-3.316c0-1.83,1.484-3.312,3.315-3.312
			c1.83,0,3.313,1.482,3.313,3.312C65.901,1089.092,64.418,1090.574,62.588,1090.574"/>
		<path fill="#F36F2D" d="M68.638,1083.664c-1.406,0-2.545-1.137-2.545-2.545c0-1.406,1.139-2.545,2.545-2.545
			c1.405,0,2.545,1.139,2.545,2.545C71.183,1082.527,70.043,1083.664,68.638,1083.664"/>
		<path fill="#F36F2D" d="M74.311,1077.236c-1.036,0-1.876-0.836-1.876-1.873c0-1.035,0.84-1.875,1.876-1.875
			c1.036,0,1.876,0.84,1.876,1.875C76.187,1076.4,75.347,1077.236,74.311,1077.236"/>
		<path fill="#3676BA" d="M41.835,1068.822c-2.39,0-4.326-1.938-4.326-4.328c0-2.387,1.937-4.326,4.326-4.326
			c2.389,0,4.325,1.939,4.325,4.326C46.16,1066.885,44.224,1068.822,41.835,1068.822"/>
		<path fill="#3676BA" d="M53.147,1067.717c-1.828,0-3.31-1.482-3.31-3.311s1.481-3.311,3.31-3.311c1.828,0,3.31,1.482,3.31,3.311
			S54.976,1067.717,53.147,1067.717"/>
		<path fill="#3676BA" d="M61.768,1066.873c-1.4,0-2.536-1.137-2.536-2.533c0-1.402,1.136-2.537,2.536-2.537
			c1.4,0,2.534,1.135,2.534,2.537C64.302,1065.736,63.168,1066.873,61.768,1066.873"/>
		<path fill="#3676BA" d="M69.849,1066.137c-1.029,0-1.863-0.832-1.863-1.863c0-1.027,0.834-1.863,1.863-1.863
			c1.029,0,1.862,0.836,1.862,1.863C71.711,1065.305,70.878,1066.137,69.849,1066.137"/>
		<path fill="#068D8C" d="M54.573,1037.971c-2.389,0-4.326-1.939-4.326-4.326c0-2.391,1.938-4.328,4.326-4.328
			c2.389,0,4.326,1.938,4.326,4.328C58.899,1036.031,56.962,1037.971,54.573,1037.971"/>
		<path fill="#068D8C" d="M62.608,1044.912c-1.825,0-3.305-1.479-3.305-3.305c0-1.824,1.479-3.305,3.305-3.305
			c1.826,0,3.307,1.48,3.307,3.305C65.915,1043.434,64.435,1044.912,62.608,1044.912"/>
		<path fill="#068D8C" d="M68.731,1050.205c-1.396,0-2.527-1.131-2.527-2.527s1.132-2.529,2.527-2.529
			c1.396,0,2.527,1.133,2.527,2.529S70.128,1050.205,68.731,1050.205"/>
		<path fill="#068D8C" d="M74.471,1055.219c-1.023,0-1.853-0.83-1.853-1.852c0-1.025,0.83-1.854,1.853-1.854
			c1.023,0,1.852,0.828,1.852,1.854C76.323,1054.389,75.494,1055.219,74.471,1055.219"/>
		<path fill="#2CB35F" d="M85.396,1025.158c-2.391,0-4.326-1.935-4.326-4.326c0-2.387,1.936-4.326,4.326-4.326
			c2.39,0,4.325,1.939,4.325,4.326C89.721,1023.223,87.785,1025.158,85.396,1025.158"/>
		<path fill="#2CB35F" d="M85.383,1035.449c-1.825,0-3.305-1.479-3.305-3.303s1.479-3.305,3.305-3.305
			c1.825,0,3.304,1.48,3.304,3.305S87.208,1035.449,85.383,1035.449"/>
		<path fill="#2CB35F" d="M85.372,1043.291c-1.395,0-2.524-1.129-2.524-2.523s1.13-2.527,2.524-2.527
			c1.396,0,2.526,1.133,2.526,2.527S86.768,1043.291,85.372,1043.291"/>
		<path fill="#2CB35F" d="M85.364,1050.699c-1.024,0-1.852-0.83-1.852-1.852s0.828-1.852,1.852-1.852c1.021,0,1.85,0.83,1.85,1.852
			S86.386,1050.699,85.364,1050.699"/>
	</g>
	<rect x="70.351" y="40.995" fill="none" width="1054.143" height="38.606"/>
	<text transform="matrix(1 0 0 1 67.3511 75.5068)"><tspan x="0" y="0" fill="#FFFFFF" font-family="'Helvetica-Bold'" font-size="48">O3:</tspan><tspan x="80.016" y="0" fill="#7E90C8" font-family="'Helvetica-Bold'" font-size="48"> </tspan><tspan x="93.352" y="0" fill="#D1DE58" font-family="'Helvetica-Bold'" font-size="48">RECOMMENDATIONS</tspan></text>
	<rect x="70.952" y="92.466" fill="none" width="863.956" height="65.132"/>
	<text transform="matrix(1 0 0 1 70.9517 106.8457)"><tspan x="0" y="0" fill="#FFFFFF" font-family="'Helvetica'" font-size="20">A new generation of low-earth orbiting and geostationary satellites </tspan><tspan x="0" y="24" fill="#FFFFFF" font-family="'Helvetica'" font-size="20">have the potential to estimate ozone levels near the earth’s surface.</tspan></text>
	<g>
		<g>
			<path opacity="0.75" fill="#BCBEC0" d="M1297.896,944.493c9.262-5.138,13.894-7.705,23.155-12.843c0-22.62,0-45.24,0-67.86
				c-9.262,0-13.893,0-23.154,0C1297.895,890.69,1297.896,917.593,1297.896,944.493z"/>
			<path opacity="0.75" fill="#E6E7E8" d="M1264.362,927.657c-3.194,0-4.79,0-7.984,0c0-24.748,0-49.496,0-74.245
				c3.194,0,4.79,0,7.984,0C1264.362,878.161,1264.362,902.909,1264.362,927.657z"/>
			<path opacity="0.75" fill="#D1D3D4" d="M1264.362,853.412c0,24.749,0,49.497,0,74.245c-3.194,0-4.79,0-7.984,0
				c0,8.622,0.001,12.935,0.001,21.557c3.193,0,4.79,0,7.984,0c6.706,0,10.06,0,16.766,0c0-31.934-0.002-63.867,0.001-95.802
				C1274.424,853.412,1271.068,853.412,1264.362,853.412z"/>
			<path opacity="0.75" fill="#D1D3D4" d="M1285.121,890.536c3.193,0,4.789-0.002,7.982-0.002c0-18.494,0-36.99,0-55.484
				c3.514,0,5.271,0,8.783,0c0,11.098,0.001,16.646,0.001,27.744c1.917,2.315,2.874,3.472,4.791,5.787c0,22.353,0,44.707,0,67.06
				c1.597,0,2.396,0,3.992,0c0-10.857,0-16.289,0-27.146c5.11,0,7.665,0.001,12.774,0.001c0,4.151,0,6.229,0,10.381
				c5.748,0,8.623,0,14.371,0c-6.387,3.512-9.582,5.267-15.969,8.78c0,3.193,0,4.791,0,7.984
				c-12.244,4.519-24.484,9.048-36.727,13.572C1285.12,929.655,1285.121,910.095,1285.121,890.536z"/>
			<path opacity="0.75" fill="#BCBEC0" d="M1368.157,911.093c-2.555,0-3.832,0-6.387,0c0-10.938,0-16.406,0-27.343
				c2.555,0,3.832,0,6.387,0C1368.157,894.687,1368.157,900.155,1368.157,911.093z"/>
			<path opacity="0.75" fill="#BCBEC0" d="M1327.438,883.75c0,12.773,0,25.548,0,38.321c5.43,0,8.144-0.002,13.572-0.002
				c0,2.235,0.002,3.353,0.002,5.588c5.429,0,8.143,0,13.572,0c0-2.235,0-3.353,0-5.588c0-12.773,0-25.547,0-38.319
				C1343.726,883.75,1338.296,883.75,1327.438,883.75z"/>
			<path opacity="0.75" fill="#D1D3D4" d="M1405.683,793.138c0-1.677,0-2.515,0-4.191c-9.382,0-18.764,0-28.146,0
				c0,1.677,0,2.515,0,4.191c-3.752,0-5.628,0-9.38,0c0,29.339,0,58.678,0,88.017c1.117,0,1.677,0,2.794,0c0,4.392,0,6.587,0,10.977
				c1.197,0,1.797,0,2.994,0c0,21.09,0,42.18,0,63.271c5.51,0,8.264,0,13.773,0c0-21.091,0-42.181,0-63.271
				c0-4.391,0-6.586,0-10.977c9.58,0,19.161,0,28.742,0c0-29.339,0-58.678,0-88.017
				C1412.149,793.138,1409.994,793.138,1405.683,793.138z"/>
			<path opacity="0.75" fill="#E6E7E8" d="M1578.706,948.812c-10.057,0-15.084,0-25.141,0c0-21.688,0-43.376,0-65.062
				c10.057,0,15.084,0,25.141,0C1578.706,905.437,1578.706,927.125,1578.706,948.812z"/>
			<path opacity="0.75" fill="#E6E7E8" d="M1416.461,940.43c-9.581,4.991-19.162,9.981-28.742,14.973c0-24.749,0-49.499,0-74.248
				c9.58,0,19.161,0,28.742,0C1416.461,900.913,1416.461,920.671,1416.461,940.43z"/>
			<path opacity="0.75" fill="#A7A9AC" d="M1416.461,923.668c1.038,0,1.556,0,2.594,0c0-9.741,0-14.61,0-24.351
				c1.518,0,2.276,0,3.794,0c0,13.704,0,27.408,0,41.112c-2.555,0-3.833,0-6.388,0
				C1416.461,933.724,1416.461,930.373,1416.461,923.668z"/>
			<path opacity="0.75" fill="#A7A9AC" d="M1578.706,941.227c3.592,0,5.389,0,8.98,0c0-14.569,0-29.139,0-43.708
				c-3.592,0-5.389,0-8.98,0C1578.706,912.089,1578.706,926.658,1578.706,941.227z"/>
			<path opacity="0.75" fill="#BCBEC0" d="M1434.625,858.601c3.074,0,4.611,0,7.686,0c0,1.437,0,2.155,0,3.592
				c2.954,0,4.433,0,7.387,0c0,2.076,0,3.113,0,5.189c1.916,0,2.873,0,4.789,0c0,4.71,0,7.066,0,11.775c0.719,0,1.076,0,1.795,0
				c-0.002,9.846,0.001,19.691,0,29.538c-0.279,0-0.416,0-0.695,0c0-4.07,0-6.106,0-10.177c-0.799,0-1.201,0-2,0
				c0-6.586,0-9.879,0-16.465c-7.824,0.199-11.735,0.297-19.56,0.495C1434.266,872.97,1434.386,868.181,1434.625,858.601z"/>
			<path opacity="0.75" fill="#E6E7E8" d="M1424.845,882.054c0-3.952,0-5.929,0-9.881c1.996,0,2.995,0,4.991,0
				c0,1.975,0,2.964,0,4.939c1.996,0,2.993,0,4.989,0c0,1.977,0,2.965,0,4.941c7.505,0,11.256,0,18.761,0c0,6.586,0,9.879,0,16.465
				c0.799,0,1.201,0,2,0c0,4.071,0,6.106,0,10.177c-7.745,0-11.619,0-19.364,0c0-2.993,0-4.486,0-7.481c-1.317,0-1.976,0-3.293,0
				c0-5.509,0-8.265,0-13.773c-0.958,0-1.438,0-2.396,0c0-2.155,0-3.232,0-5.388C1428.258,882.054,1427.12,882.054,1424.845,882.054
				z"/>
			<path opacity="0.75" fill="#D1D3D4" d="M1424.845,872.173c0-2.874,0.001-4.312,0.001-7.186c0.759,0,1.138,0,1.896,0
				c0-5.748-0.002-8.623-0.002-14.371c0.639,0,0.957-0.002,1.596-0.002c0-1.796,0-2.692,0-4.487c0.838,0,1.26,0,2.098,0
				c0,0.917,0,1.376,0,2.294c1.677,0,2.515,0,4.191,0c0,9.565,0,19.127,0,28.691c-1.916,0-2.873,0-4.789,0c0-1.976,0-2.964,0-4.939
				C1427.84,872.173,1426.841,872.173,1424.845,872.173z"/>
			<path opacity="0.75" fill="#A7A9AC" d="M1434.625,853.21c4.751,0,7.128,0,11.879,0c0,3.593,0,5.39,0,8.982
				c-1.677,0-2.517,0-4.193,0c0-1.436,0-2.155,0-3.592c-3.074,0-4.611,0-7.686,0C1434.625,856.444,1434.625,855.366,1434.625,853.21
				z"/>
			<path opacity="0.75" fill="#E6E7E8" d="M1460.573,908.695c0-3.752,0-5.626,0-9.378c3.113,0,4.67,0,7.783,0
				c0-24.549-0.002-49.1,0-73.648c1.837,0,2.756,0,4.592,0c-0.003,12.174-0.003,24.35,0.002,36.523c2.234,0,3.353,0,5.587,0
				c0,20.69,0,41.381,0,62.071c-5.068,0-7.606,0-12.676,0c0-6.228,0-9.341,0-15.568
				C1463.745,908.695,1462.689,908.695,1460.573,908.695z"/>
			<path opacity="0.75" fill="#D1D3D4" d="M1461.571,899.317c2.714,0,4.071,0,6.785,0c0-24.549-0.002-49.1,0-73.648
				c-2.714,0-4.071,0-6.785,0C1461.573,850.218,1461.571,874.769,1461.571,899.317z"/>
			<path opacity="0.75" fill="#D1D3D4" d="M1489.511,924.264c-2.235,0-3.351,0-5.586,0c-0.003-17.829-0.002-35.659-0.002-53.489
				c2.235,0,3.353,0,5.588,0C1489.511,888.604,1489.511,906.435,1489.511,924.264z"/>
			<path opacity="0.75" fill="#E6E7E8" d="M1479.83,928.756c3.552-3.552,5.33-5.329,8.882-8.881c0-17.765,0-35.528,0-53.291
				c4.15,0,6.227,0,10.377,0c0,6.466,0,9.698,0,16.166c0.958,0,1.437,0,2.395,0c0,7.902,0,11.856,0,19.759c2.634,0,3.949,0,6.583,0
				c0,9.955,0,19.91,0,29.866c-1.681,1.681-2.52,2.521-4.2,4.202c-6.361,0-9.541,0-15.902,0
				C1484.711,933.448,1483.083,931.885,1479.83,928.756z"/>
			<path opacity="0.75" fill="#BCBEC0" d="M1511.659,896.32c-4.07,0-6.105,0-10.176,0c0,2.475,0,3.714,0,6.188
				c2.634,0,3.949,0,6.583,0c0,9.955,0,19.91,0,29.866c1.437,0,2.156,0,3.593,0C1511.659,920.356,1511.659,908.339,1511.659,896.32z
				"/>
			<path opacity="0.75" fill="#D1D3D4" d="M1537.103,662.309c9.544,0,19.089,0,28.633,0c0,5.068,0,7.602,0,12.671
				c0.719,0,1.078,0,1.796,0c0,17.297,0,34.596,0,51.893c1.118,0,1.676,0,2.794,0c0,6.706,0,10.059,0,16.765
				c1.037,0,1.557,0,2.594,0c0,5.509,0,8.265,0,13.773c2.315,0,3.472,0,5.787,0c0,61.272,0,122.545,0,183.817
				c-6.466,0-9.698,0-16.164,0c0-15.767,0-31.535,0-47.304c-1.038,0-1.556,0-2.594,0c0-4.11,0-6.164,0-10.274
				c-1.476,0-2.214,0-3.689,0c-1.077,0-1.616,0-2.693,0c0-40.25,0-80.5,0-120.75c-1.916,0-2.873,0-4.789,0c0-6.428,0-9.641,0-16.068
				c-3.113,0-4.67,0-7.783,0c0-6.386,0-9.579,0-15.965c-0.958,0-1.435,0-2.393,0c0-7.025,0-10.539,0-17.564
				c-0.599,0-0.899,0-1.498,0C1537.103,696.304,1537.103,679.306,1537.103,662.309z"/>
			<path opacity="0.75" fill="#E6E7E8" d="M1578.706,947.016c3.712,0,5.568,0,9.28,0c1.616-1.616,2.426-2.423,4.042-4.04
				c9.429,0,18.856,0,28.285,0c0-8.322,0.001-12.482,0.001-20.806c-2.634,0-3.95,0-6.584,0c0,1.378,0,2.065,0,3.442
				c-1.438,0-2.157,0-3.595,0c0-19.26,0-38.52,0-57.78c-0.359,0-0.538,0-0.897,0c0-2.216,0-3.323,0-5.538c-1.676,0-2.513,0-4.188,0
				c0-1.856-0.002-2.784-0.002-4.641c-2.216,0-3.323,0-5.539,0c0,4.131,0,6.197,0,10.328c-2.274,0-3.411,0-5.686,0
				c0.001,20.158,0,40.317,0,60.475c-3.232,0-4.849,0-8.081,0c0,5.108,0,7.663,0,12.771c-2.814,0-4.222,0-7.036,0
				C1578.706,943.544,1578.706,944.7,1578.706,947.016z"/>
			<g>
				<path fill="#FFFFFF" d="M1899.044,921.271c-2.396,0-3.593,0-5.988,0c0,3.593,0,5.39,0,8.982c-9.881,0-19.763,0-29.644,0
					c-2.036-2.755-3.052-4.132-5.088-6.887c0-9.221,0-13.83,0-23.051c-1.198,0-1.798,0-2.995,0c0,4.91,0,7.365,0,12.275
					c0,5.029,0,7.543,0,12.572c-2.635,0-3.951,0.003-6.586,0.003c0,2.394,0,3.59,0,5.985c-2.036,0-3.055,0-5.091,0
					c0,1.197,0,1.794,0,2.991c-7.425,0-11.138,0-18.562,0c0-13.372,0-26.743,0-40.114c-8.384,0-12.575,0-20.959,0
					c0,8.622,0,12.933,0,21.556c-5.509,0-8.264,0-13.772,0c0,6.227,0,9.34,0,15.567c0,5.508,0,8.262,0,13.77
					c-0.958,0-1.436,0-2.394,0c0,1.796,0,2.694,0,4.491c-7.187,0-10.78,0-17.966,0c0-62.271,0-124.541,0-186.812
					c-6.108,0-9.164,0-15.272,0c0-19.76,0-39.517,0-59.277c-5.27,0-7.903,0-13.173,0c0,79.835,0,159.67,0,239.505
					c-10.479,0.002-20.958,0-31.438-0.001c-1.098-39.818-2.195-79.635-3.293-119.452c-3.832,0-5.746,0-9.579,0
					c0,25.845,0,51.692,0,77.538c-6.707,0-10.065,0-16.771,0c0,8.861,0,13.293,0,22.154c-8.5,0-12.749,0-21.249,0
					c0-55.086,0-110.172,0-165.257c-0.718,0-1.077,0-1.796,0c0-3.474,0-5.21,0-8.683c-0.957,0-1.436,0-2.394,0
					c0-16.365,0-32.732,0-49.098c-5.148,0-7.724,0-12.872,0c0,16.365,0,32.732,0,49.098c-0.838,0-1.259,0-2.097,0
					c0,37.124,0,74.247,0,111.369c-1.317,0-1.976,0-3.293,0c0-32.533,0-65.064,0-97.598c-1.676,0-2.513,0-4.188,0
					c0-20.656,0-41.314,0-61.971c-2.635-0.838-3.953-1.258-6.587-2.095c0-9.462,0-14.192,0-23.652c-1.437,0-2.155,0-3.592,0
					c0,91.511,0,183.021,0,274.53c-0.838,0-1.255,0-2.093,0c0-2.994,0-4.49,0-7.484c-9.678,0-19.356,0-29.034,0
					c-1.317,1.916-1.976,2.872-3.293,4.788c-8.021,0-12.031,0-20.053,0c-2.754,0-4.132,0-6.886,0c-1.916,0-2.873,0-4.789,0
					c0-21.089,0-42.178,0-63.266c-1.077,0-1.616,0-2.693,0c0-40.284,0-80.567,0-120.851c-1.916,0-2.873,0-4.789,0
					c0-6.428,0-9.641,0-16.068c-3.113,0-4.67,0-7.783,0c0-6.386,0-9.579,0-15.965c-0.958,0-1.435,0-2.393,0
					c0-7.185,0-10.777,0-17.963c-0.599,0-0.899,0-1.498,0c0-16.865,0-33.73,0-50.595c-2.035,0-3.053,0-5.088,0
					c0,17.563,0,35.127,0,52.691c-2.275,0-3.412,0-5.688,0c0,4.669,0,7.005,0,11.675c-2.634,0-3.952,0-6.586,0
					c0,65.166,0,130.33,0,195.496c-1.915,0-2.875,0-4.79,0c0,4.082,0,6.122,0,10.204c-2.505,0-3.754,0-6.259,0
					c-1.806,1.806-2.711,2.709-4.517,4.515c-6.485,0-9.727,0-16.212,0c-3.691-3.692-5.537-5.54-9.229-9.232c0-1.357,0-2.035,0-3.393
					c-5.148,0-7.725-0.001-12.874-0.001c0-6.228,0-9.341,0-15.568c-9.88,0-19.76,0-29.64,0c0-2.993,0-4.486,0-7.481
					c-1.317,0-1.976,0-3.293,0c0-5.509,0-8.265,0-13.773c-0.958,0-1.438,0-2.396,0c0-2.155,0-3.232,0-5.388
					c-2.275,0-3.413,0-5.688,0c0,0.679,0,1.017,0,1.696c0,18.893,0,37.786,0,56.68c-3.354,0-5.03,0-8.384,0
					c-9.581,4.991-19.162,9.981-28.742,14.973c-5.51,0-8.264,0-13.773,0c0-21.091,0-42.181,0-63.271c-1.197,0-1.797,0-2.994,0
					c0-4.391,0-6.586,0-10.977c-1.117,0-1.677,0-2.794,0c0,9.979,0,19.959,0,29.938c-3.435,0-5.149,0-8.583,0
					c0,4.391-0.002,6.586-0.002,10.977c-1.995,0-2.992,0-4.988,0c0,2.235,0,3.353,0,5.588c-5.43,0-8.144,0-13.572,0
					c0-2.235-0.002-3.353-0.002-5.588c-3.6,0-5.4,0-9,0c-4.064,2.235-6.098,3.353-10.162,5.588c0,3.193,0,4.791,0,7.984
					c-12.244,4.519-24.484,9.048-36.727,13.572c-9.58,0-19.162,0-28.742,0c0,7.144-0.001,10.717-0.001,17.862
					c214.222,0,428.444,0,642.666,0c0-7.425,0-11.137,0-18.562C1899.044,937.617,1899.044,932.168,1899.044,921.271z"/>
			</g>
		</g>
	</g>
	<g>
		<g>
			<path opacity="0.75" fill="#A7A9AC" d="M21.478,949.712c-7.902,0-11.851,0-19.753,0c0-36.225,0-72.449,0-108.674
				c7.902,0,11.851,0,19.753,0C21.475,877.263,21.478,913.487,21.478,949.712z"/>
			<path opacity="0.75" fill="#E6E7E8" d="M39.138,892.828c-5.866,0-8.799-0.001-14.665-0.001c0-77.438,0-154.877,0-232.314
				c4.19,0,6.286,0,10.476,0c0.239,3.592,0.358,5.389,0.598,8.981c1.436,0,2.154,0,3.591,0
				C39.138,743.938,39.138,818.384,39.138,892.828z"/>
			<path opacity="0.75" fill="#D1D3D4" d="M117.373,848.622c-3.59-13.971-7.182-27.941-10.771-41.912c0-5.429,0-8.144,0-13.572
				c-3.237,0-4.856,0-8.093,0c0-4.95,0-7.425,0-12.375c-3.833,0-5.749,0-9.581,0c0,6.865,0,10.299,0,17.164
				c5.886,16.899,11.773,33.798,17.665,50.695C110.906,848.622,113.06,848.622,117.373,848.622z"/>
			<path opacity="0.75" fill="#A7A9AC" d="M211.284,894.028c0-9.381,0-14.069,0-23.451c1.517,0,2.277,0,3.794,0
				c0-4.551,0-6.825,0-11.376c2.395,0,3.594,0,5.989,0c0-10.617,0-15.928,0-26.546c3.513,0,5.27,0,8.782,0c0,4.392,0,6.587,0,10.979
				c8.304,0,12.453,0,20.757,0c0,7.025,0,10.537,0,17.562c1.757,0,2.634,0,4.391,0c0-3.193,0.002-4.789,0.002-7.982
				c1.996,0,2.995,0,4.991,0c0,4.551,0,6.824,0,11.375c3.034,0,4.553,0,7.587,0c0,16.066,0,32.133,0,48.199
				c-14.472,0.001-28.944,0.001-43.416,0.001c0-7.505,0-11.256,0-18.761C219.011,894.028,216.435,894.028,211.284,894.028z"/>
			<path opacity="0.75" fill="#D1D3D4" d="M224.161,909.497c2.275,0,3.413,0,5.689,0c0,1.317,0,1.975,0,3.292
				c2.395,0,3.594,0,5.989,0c0-9.679,0-19.358,0-29.037c0.639,0,0.956,0,1.595,0c3.673-6.548,5.511-9.821,9.184-16.368
				c3.832,6.547,5.747,9.818,9.579,16.366c0.559,0,0.841,0.002,1.399,0.002c0,6.625,0,9.938,0,16.563c-1.277,0-1.918,0-3.195,0
				c0,9.939,0,14.908,0,24.848c-2.635,0-3.951,0.003-6.586,0.003c0,2.394,0,3.59,0,5.985c-2.036,0-3.055,0-5.091,0
				c0,1.197,0,1.794,0,2.991c-7.425,0-11.138,0-18.562,0C224.161,924.284,224.161,919.356,224.161,909.497z"/>
			<path opacity="0.75" fill="#E6E7E8" d="M86.935,900.913c0,8.861,0,13.293,0,22.154l0,0c8.685,0,13.023,0,21.708,0
				c0,7.904,0,11.857,0,19.761c10.661,0.003,21.321-0.003,31.982,0c0-79.835,0-159.67,0-239.505c5.27,0,7.903,0,13.173,0
				c0-3.033,0-4.552,0-7.585c-9.82,0-14.727,0-24.547,0c0,77.308,0,154.614,0,231.921c-3.513,0-5.272,0-8.784,0
				c0-24.084,0-48.166,0-72.25c-1.237,0-1.856,0-3.094,0c0-2.715,0-4.072,0-6.787c-4.309,0-6.465,0-10.773,0
				c0.005-12.508,0.004-25.014,0.002-37.521c0-5.269,0-7.904,0-13.173c-6.59-0.001-9.884-0.001-16.474-0.001
				c0.128,15.119,0.263,30.236,0.398,45.355c-1.437-0.017-2.155-0.026-3.592-0.043C86.935,862.464,86.935,881.688,86.935,900.913
				L86.935,900.913z"/>
			<path opacity="0.75" fill="#E6E7E8" d="M-22.223,947.016c3.712,0,5.568,0,9.28,0c1.616-1.616,2.426-2.423,4.042-4.04
				c9.429,0,18.856,0,28.285,0c0-8.322,0.001-12.482,0.001-20.806c-2.634,0-3.95,0-6.584,0c0,1.378,0,2.065,0,3.442
				c-1.438,0-2.157,0-3.595,0c0-19.26,0-38.52,0-57.78c-0.359,0-0.538,0-0.897,0c0-2.216,0-3.323,0-5.538c-1.676,0-2.513,0-4.188,0
				c0-1.856-0.002-2.784-0.002-4.641c-2.216,0-3.323,0-5.539,0c0,4.131,0,6.197,0,10.328c-2.274,0-3.411,0-5.686,0
				c0.001,20.158,0,40.317,0,60.475c-3.232,0-4.849,0-8.081,0c0,5.108,0,7.663,0,12.771c-2.814,0-4.222,0-7.036,0
				C-22.223,943.544-22.223,944.7-22.223,947.016z"/>
			<path opacity="0.75" fill="#D1D3D4" d="M39.138,669.493c0.658,0,0.989,0,1.647,0c0,3.293,0,4.941,0,8.235
				c1.077,0,1.619,0,2.696,0c0,8.921,0,13.38,0,22.302c-0.897,0-1.349,0-2.247,0c0,16.365,0,32.732,0,49.098
				c-0.838,0-1.259,0-2.097,0C39.138,722.584,39.138,696.038,39.138,669.493z"/>
			<path opacity="0.75" fill="#A7A9AC" d="M60.435,923.067c3.479,0,5.218,0,8.696,0c0-20.19,0-40.383,0-60.574
				c-3.479,0-5.218,0-8.696,0C60.435,882.685,60.435,902.877,60.435,923.067z"/>
			<path opacity="0.75" fill="#E6E7E8" d="M72.966,923.067c-4.309,0-6.466,0-10.775,0c0-4.391,0-6.586,0-10.977
				c4.31,0,6.466,0,10.775,0C72.966,916.481,72.966,918.677,72.966,923.067z"/>
			<path opacity="0.75" fill="#D1D3D4" d="M62.19,901.58c4.31,0,6.466,0,10.775,0c0,4.204,0,6.307,0,10.511
				c-4.309,0-6.466,0-10.775,0C62.19,907.887,62.19,905.784,62.19,901.58z"/>
			<path opacity="0.75" fill="#BCBEC0" d="M62.19,879.759c3.672,0,5.508,0,9.18,0c0,8.729-0.002,13.093-0.002,21.821
				c-3.672,0-5.506,0-9.178,0C62.19,892.852,62.19,888.487,62.19,879.759z"/>
			<path opacity="0.75" fill="#A7A9AC" d="M86.935,923.067c-6.228,0-9.341,0-15.566,0c0-17.432,0-34.861,0-52.293
				c6.226,0,9.339,0,15.566,0C86.935,888.206,86.935,905.636,86.935,923.067z"/>
			<path opacity="0.75" fill="#D1D3D4" d="M162.184,762.601c-3.832,0-5.75,0-9.582,0c0-22.287,0-44.574,0-66.862
				c3.273,0,4.91,0,8.184,0c0,9.819,0,14.731,0,24.55c0.559,0,0.84,0,1.398,0C162.184,734.392,162.184,748.497,162.184,762.601z"/>
			<path opacity="0.75" fill="#BCBEC0" d="M128.45,927.659c-3.193,0-4.79,0-7.983,0c0-12.841,0-25.682,0-38.522
				c3.193,0,4.79,0.001,7.983,0.001C128.45,901.977,128.45,914.819,128.45,927.659z"/>
			<path opacity="0.75" fill="#A7A9AC" d="M193.722,902.91c-3.593,0-5.39,0-8.982,0c0-9.9,0-14.85,0-24.749c3.593,0,5.39,0,8.982,0
				C193.722,888.06,193.722,893.011,193.722,902.91z"/>
			<path opacity="0.75" fill="#BCBEC0" d="M169.07,941.829c4.512,0,6.766,0,11.277,0c0-19.359,0-38.719,0-58.077
				c-4.512,0-6.766,0-11.277,0C169.07,903.11,169.07,922.47,169.07,941.829z"/>
			<path opacity="0.75" fill="#E6E7E8" d="M169.07,920.075c1.637,0,2.455,0,4.092,0c0,8.303,0,12.454,0,20.757
				c3.354,0,5.03,0,8.384,0c0-13.372,0-26.744,0-40.116c1.996,0,2.996,0,4.992,0c0-3.193,0-4.791,0-7.984c2.395,0,3.589,0,5.984,0
				c0-2.475,0-3.713,0-6.188c4.312,0,6.467,0,10.778,0c0,2.994,0.002,4.49,0.002,7.484c0,8.622,0,12.933,0,21.556
				c-5.549,0-8.324,0-13.873,0c0,9.778,0,19.558,0,29.338c-0.958,0-1.436,0-2.394,0c0,1.796,0,2.694,0,4.491
				c-7.187,0-10.78,0-17.966,0C169.07,939.634,169.07,929.854,169.07,920.075z"/>
			<path opacity="0.75" fill="#D1D3D4" d="M289.932,912.79c-5.669,0-8.503-0.001-14.172-0.001c0-5.15,0-7.723,0-12.871
				c5.669,0,8.503,0,14.172,0C289.932,905.066,289.932,907.641,289.932,912.79z"/>
			<path opacity="0.75" fill="#E6E7E8" d="M267.577,912.788c8.464,0,12.694,0.001,21.158,0.001c0-3.394,0-5.089,0-8.482
				c2.954,0,4.431,0,7.385,0c0,3.393,0,5.088,0,8.482c0.798,0,1.197,0,1.995,0c0,3.392,0,5.089,0,8.481c-2.396,0-3.593,0-5.988,0
				c0,3.593,0,5.39,0,8.982c-9.881,0-19.763,0-29.644,0c-2.036-2.755-3.052-4.132-5.088-6.887c0-4.231,0-6.347,0-10.577
				C261.468,912.789,263.505,912.788,267.577,912.788z"/>
			<path opacity="0.75" fill="#BCBEC0" d="M275.76,899.918c0,0-0.424-27.62,0-27.195c0.424,0.425,8.782,0,8.782,0
				c0,7.284,0,10.927,0,18.212c2.156,0,3.233,0,5.39,0c0,3.593,0,5.39,0,8.983C284.263,899.918,281.429,899.918,275.76,899.918z"/>
			<g>
				<path fill="#FFFFFF" d="M298.115,921.271c-2.396,0-3.593,0-5.988,0c0,3.593,0,5.39,0,8.982c-9.881,0-19.763,0-29.644,0
					c-2.036-2.755-3.052-4.132-5.088-6.887c0-9.221,0-13.83,0-23.051c-1.198,0-1.798,0-2.995,0c0,4.91,0,7.365,0,12.275
					c0,5.029,0,7.543,0,12.572c-2.635,0-3.951,0.003-6.586,0.003c0,2.394,0,3.59,0,5.985c-2.036,0-3.055,0-5.091,0
					c0,1.197,0,1.794,0,2.991c-7.425,0-11.138,0-18.562,0c0-13.372,0-26.743,0-40.114c-8.384,0-12.575,0-20.959,0
					c0,8.622,0,12.933,0,21.556c-5.509,0-8.264,0-13.772,0c0,6.227,0,9.34,0,15.567c0,5.508,0,8.262,0,13.77
					c-0.958,0-1.436,0-2.394,0c0,1.796,0,2.694,0,4.491c-7.187,0-10.78,0-17.966,0c0-62.271,0-124.541,0-186.812
					c-6.108,0-9.164,0-15.272,0c0-19.76,0-39.517,0-59.277c-5.27,0-7.903,0-13.173,0c0,79.835,0,159.67,0,239.505
					c-10.48,0.002-20.958,0-31.438-0.001c-1.098-39.818-2.195-79.635-3.293-119.452c-3.832,0-5.746,0-9.579,0
					c0,25.845,0,51.692,0,77.538c-6.707,0-10.065,0-16.771,0c0,8.861,0,13.293,0,22.154c-8.5,0-12.749,0-21.249,0
					c0-55.086,0-110.172,0-165.257c-0.718,0-1.077,0-1.796,0c0-3.474,0-5.21,0-8.683c-0.957,0-1.436,0-2.394,0
					c0-16.365,0-32.732,0-49.098c-5.148,0-7.724,0-12.872,0c0,16.365,0,32.732,0,49.098c-0.838,0-1.259,0-2.097,0
					c0,37.124,0,74.247,0,111.369c-1.317,0-1.976,0-3.293,0c0-32.533,0-65.064,0-97.598c-1.676,0-2.513,0-4.188,0
					c0-20.656,0-41.314,0-61.971c-2.635-0.838-3.953-1.258-6.587-2.095c0-9.462,0-14.192,0-23.652c-1.437,0-2.155,0-3.592,0
					c0,91.511,0,183.021,0,274.53c-0.838,0-1.255,0-2.093,0c0-2.994,0-4.49,0-7.484c-9.678,0-19.356,0-29.034,0
					c-1.317,1.916-1.976,2.872-3.293,4.788c-8.021,0-12.031,0-20.053,0c-2.754,0-4.132,0-6.886,0c-1.916,0-2.873,0-4.789,0
					c0-21.089,0-42.178,0-63.266c-1.077,0-1.616,0-2.693,0c0-40.284,0-80.567,0-120.851c-1.916,0-2.873,0-4.789,0
					c0-6.428,0-9.641,0-16.068c-3.113,0-4.67,0-7.783,0c0-6.386,0-9.579,0-15.965c-0.958,0-1.435,0-2.393,0
					c0-7.185,0-10.777,0-17.963c-0.599,0-0.899,0-1.498,0c0-16.865,0-33.73,0-50.595c-2.035,0-3.053,0-5.088,0
					c0,17.563,0,35.127,0,52.691c-2.275,0-3.412,0-5.688,0c0,4.669,0,7.005,0,11.675c-2.634,0-3.952,0-6.586,0
					c0,65.166,0,130.33,0,195.496c-1.915,0-2.875,0-4.79,0c0,4.082,0,6.122,0,10.204c-2.505,0-3.754,0-6.259,0
					c-1.806,1.806-2.711,2.709-4.517,4.515c-6.485,0-9.727,0-16.212,0c-3.692-3.692-5.537-5.54-9.229-9.232c0-1.357,0-2.035,0-3.393
					c-5.148,0-7.725-0.001-12.874-0.001c0-6.228,0-9.341,0-15.568c-9.88,0-19.76,0-29.64,0c0-2.993,0-4.486,0-7.481
					c-1.317,0-1.976,0-3.293,0c0-5.509,0-8.265,0-13.773c-0.958,0-1.438,0-2.395,0c0-2.155,0-3.232,0-5.388
					c-2.275,0-3.413,0-5.689,0c0,0.679,0,1.017,0,1.696c0,18.893,0,37.786,0,56.68c-3.354,0-5.03,0-8.384,0
					c-9.581,4.991-19.162,9.981-28.742,14.973c-5.51,0-8.264,0-13.773,0c0-21.091,0-42.181,0-63.271c-1.197,0-1.797,0-2.994,0
					c0-4.391,0-6.586,0-10.977c-1.117,0-1.677,0-2.794,0c0,9.979,0,19.959,0,29.938c-3.435,0-5.149,0-8.583,0
					c0,4.391-0.002,6.586-0.002,10.977c-1.995,0-2.992,0-4.988,0c0,2.235,0,3.353,0,5.588c-5.43,0-8.144,0-13.572,0
					c0-2.235-0.002-3.353-0.002-5.588c-3.6,0-5.4,0-9,0c-4.064,2.235-6.098,3.353-10.162,5.588c0,3.193,0,4.791,0,7.984
					c-12.244,4.519-24.484,9.048-36.727,13.572c-9.58,0-19.162,0-28.742,0c0,7.144-0.001,10.717-0.001,17.862
					c214.222,0,428.444,0,642.666,0c0-7.425,0-11.137,0-18.562C298.115,937.617,298.115,932.168,298.115,921.271z"/>
			</g>
		</g>
	</g>
	<g>
		<polygon fill="#D1D3D4" points="1232.948,874.879 1232.948,965.907 1267.45,965.907 1260.171,954.267 1263.291,954.267 
			1256.227,943.046 1259.551,943.046 1252.694,931.821 1255.809,931.821 1248.741,920.597 1252.486,920.597 1244.795,908.96 
			1248.326,908.96 1241.051,897.739 1245.001,897.739 1237.729,886.515 1241.26,886.515 		"/>
		<polygon fill="#FFFFFF" points="1232.948,874.879 1232.948,965.907 1198.448,965.907 1205.723,954.267 1202.605,954.267 
			1209.673,943.046 1206.344,943.046 1213.205,931.821 1210.088,931.821 1217.154,920.597 1213.414,920.597 1221.104,908.96 
			1217.568,908.96 1224.842,897.739 1220.893,897.739 1228.17,886.515 1224.632,886.515 		"/>
	</g>
	<g>
		<polygon fill="#D1D3D4" points="1097.17,895.6 1097.17,968.159 1124.672,968.159 1118.869,958.88 1121.355,958.88 
			1115.725,949.937 1118.375,949.937 1112.91,940.989 1115.393,940.989 1109.759,932.043 1112.744,932.043 1106.613,922.766 
			1109.428,922.766 1103.629,913.821 1106.777,913.821 1100.98,904.875 1103.795,904.875 		"/>
		<polygon fill="#FFFFFF" points="1097.17,895.6 1097.17,968.159 1069.67,968.159 1075.469,958.88 1072.984,958.88 
			1078.617,949.937 1075.963,949.937 1081.432,940.989 1078.947,940.989 1084.58,932.043 1081.599,932.043 1087.729,922.766 
			1084.911,922.766 1090.709,913.821 1087.561,913.821 1093.361,904.875 1090.541,904.875 		"/>
	</g>
	<g>
		<polygon fill="#D1D3D4" points="1137.17,895.6 1137.17,968.159 1164.672,968.159 1158.869,958.88 1161.355,958.88 
			1155.725,949.937 1158.375,949.937 1152.91,940.989 1155.393,940.989 1149.759,932.043 1152.744,932.043 1146.613,922.766 
			1149.428,922.766 1143.629,913.821 1146.777,913.821 1140.98,904.875 1143.795,904.875 		"/>
		<polygon fill="#FFFFFF" points="1137.17,895.6 1137.17,968.159 1109.67,968.159 1115.469,958.88 1112.984,958.88 
			1118.617,949.937 1115.963,949.937 1121.432,940.989 1118.947,940.989 1124.58,932.043 1121.599,932.043 1127.729,922.766 
			1124.911,922.766 1130.709,913.821 1127.561,913.821 1133.361,904.875 1130.541,904.875 		"/>
	</g>
	<path fill="#FFFFFF" d="M1443.54,384.104c7.42-6.595,12.1-16.206,12.1-26.913c0-19.883-16.118-36.002-36.002-36.002
		c-19.883,0-36.001,16.119-36.001,36.002c0,10.366,4.388,19.702,11.399,26.271c10.051,14.574,15.834,91.129,23.402,96.967v77.17
		h-4.051V575h10.201v-17.4h-3.75v-77.418C1428.163,472.767,1433.868,399.93,1443.54,384.104z"/>
	<g>
		<circle fill="#FFFFFF" cx="206.949" cy="305.115" r="25.618"/>
		
			<rect x="91.48" y="319.867" transform="matrix(-0.8898 0.4564 -0.4564 -0.8898 412.3719 583.7283)" fill="#FFFFFF" width="88.452" height="43.575"/>
		
			<rect x="233.599" y="246.973" transform="matrix(-0.8898 0.4564 -0.4564 -0.8898 647.6913 381.1019)" fill="#FFFFFF" width="88.455" height="43.576"/>
		
			<rect x="301.688" y="255.325" transform="matrix(-0.8898 0.4564 -0.4564 -0.8898 705.608 356.4141)" fill="#D1D3D4" width="16.163" height="16.16"/>
		
			<rect x="292.731" y="237.862" transform="matrix(-0.8897 0.4565 -0.4565 -0.8897 680.7238 327.4505)" fill="#D1D3D4" width="16.163" height="16.161"/>
		
			<rect x="283.308" y="264.753" transform="matrix(-0.8898 0.4563 -0.4563 -0.8898 675.1663 382.6449)" fill="#D1D3D4" width="16.16" height="16.161"/>
		
			<rect x="274.352" y="247.291" transform="matrix(-0.8898 0.4564 -0.4564 -0.8898 650.2818 353.7019)" fill="#D1D3D4" width="16.16" height="16.161"/>
		
			<rect x="264.927" y="274.18" transform="matrix(-0.8898 0.4564 -0.4564 -0.8898 644.7423 408.817)" fill="#D1D3D4" width="16.16" height="16.16"/>
		
			<rect x="255.971" y="256.717" transform="matrix(-0.8898 0.4563 -0.4563 -0.8898 619.8378 379.9338)" fill="#D1D3D4" width="16.16" height="16.161"/>
		
			<rect x="246.546" y="283.607" transform="matrix(-0.8898 0.4564 -0.4564 -0.8898 614.3049 435.032)" fill="#D1D3D4" width="16.161" height="16.161"/>
		
			<rect x="237.591" y="266.145" transform="matrix(-0.8898 0.4564 -0.4564 -0.8898 589.4255 406.0851)" fill="#D1D3D4" width="16.159" height="16.163"/>
		
			<rect x="159.674" y="328.164" transform="matrix(-0.8898 0.4563 -0.4563 -0.8898 470.4522 558.8993)" fill="#D1D3D4" width="16.161" height="16.159"/>
		
			<rect x="150.718" y="310.702" transform="matrix(-0.8898 0.4564 -0.4564 -0.8898 445.5869 529.9517)" fill="#D1D3D4" width="16.161" height="16.162"/>
		
			<rect x="141.292" y="337.591" transform="matrix(-0.8898 0.4564 -0.4564 -0.8898 440.0452 585.0701)" fill="#D1D3D4" width="16.163" height="16.162"/>
		
			<rect x="132.338" y="320.129" transform="matrix(-0.8898 0.4564 -0.4564 -0.8898 415.1448 556.1673)" fill="#D1D3D4" width="16.16" height="16.162"/>
		
			<rect x="122.912" y="347.019" transform="matrix(-0.8898 0.4564 -0.4564 -0.8898 409.6142 611.2743)" fill="#D1D3D4" width="16.161" height="16.163"/>
		
			<rect x="113.957" y="329.558" transform="matrix(-0.8898 0.4563 -0.4563 -0.8898 384.6932 582.3915)" fill="#D1D3D4" width="16.16" height="16.16"/>
		
			<rect x="104.531" y="356.447" transform="matrix(-0.8897 0.4565 -0.4565 -0.8897 379.2041 637.4573)" fill="#D1D3D4" width="16.161" height="16.163"/>
		
			<rect x="95.575" y="338.986" transform="matrix(-0.8898 0.4563 -0.4563 -0.8898 354.2694 608.5862)" fill="#D1D3D4" width="16.161" height="16.16"/>
	</g>
	<g>
		<path fill-rule="evenodd" clip-rule="evenodd" fill="#FFFFFF" d="M469.719,529.121c-0.449-1.357-1.374-2.309-2.466-3.196
			c-1.731-1.405-3.294-3.024-5.053-4.392c-6.749-5.257-14.489-8.106-22.974-8.467c-6.455-0.271-12.941,0.019-19.41,0.223
			c-23.37,0.732-46.738,1.531-70.107,2.312c-11.733,0.392-23.462,0.965-35.196,1.143c-8.633,0.135-16.252-2.772-22.5-8.927
			c-8.68-8.552-17.383-17.08-26.074-25.619c-0.41-0.402-0.802-0.822-1.207-1.228c-1.309-1.307-2.839-2.268-4.718-2.242
			c-4.334,0.059-8.667,0.24-13.188,0.38c5.929,14.255,11.821,28.422,17.777,42.739c-0.8,0.142-1.534,0.262-2.265,0.404
			c-3.223,0.621-6.489,1.089-9.655,1.932c-2.005,0.531-3.981,0.741-6.016,0.786c-2.039,0.044-4.077,0.118-6.162,0.378
			c0.236,0.086,0.469,0.185,0.71,0.25c2.583,0.711,5.161,1.435,7.753,2.109c0.687,0.176,1.018,0.442,0.997,1.211
			c-0.024,0.947-0.239,2.182,0.252,2.767c0.488,0.586,1.744,0.558,2.675,0.745c16.658,3.344,33.305,6.753,49.99,9.962
			c3.706,0.715,7.549,0.715,11.328,1.055c13.358,1.197,26.713,0.272,40.066-0.072c0.703-0.019,1.293,0.076,1.849,0.551
			c0.258,0.221,0.69,0.336,1.039,0.326c3.699-0.088,7.397-0.202,11.095-0.336c0.315-0.012,0.773-0.13,0.902-0.352
			c0.457-0.776,1.131-0.752,1.833-0.627c2.26,0.399,4.515,0.83,6.772,1.249c0.094,0.019,0.213,0.011,0.275,0.067
			c1.546,1.381,3.418,0.973,5.208,0.927c3.828-0.093,7.654-0.227,11.48-0.345c2.552-0.078,3.724-1.022,4.357-3.734
			c2.079-0.065,4.238-0.09,6.393-0.201c14.779-0.775,29.565-1.484,44.336-2.398c5.327-0.33,10.528-1.576,15.473-3.684
			c1.867-0.795,3.593-1.811,4.487-3.785C469.759,530.396,469.739,529.758,469.719,529.121z"/>
	</g>
	<g>
		<polygon fill="#D1D3D4" points="459.214,850.879 459.214,963.298 501.824,963.298 492.833,948.923 496.686,948.923 
			487.962,935.065 492.067,935.065 483.6,921.204 487.447,921.204 478.718,907.341 483.343,907.341 473.844,892.97 478.205,892.97 
			469.22,879.11 474.099,879.11 465.118,865.25 469.478,865.25 		"/>
		<polygon fill="#FFFFFF" points="459.214,850.879 459.214,963.298 416.606,963.298 425.59,948.923 421.741,948.923 
			430.468,935.065 426.357,935.065 434.83,921.204 430.981,921.204 439.708,907.341 435.088,907.341 444.585,892.97 440.22,892.97 
			449.202,879.11 444.325,879.11 453.312,865.25 448.943,865.25 		"/>
	</g>
	<g>
		<polygon fill="#D1D3D4" points="493.322,874.879 493.322,965.907 527.824,965.907 520.544,954.267 523.664,954.267 516.6,943.046 
			519.924,943.046 513.068,931.821 516.183,931.821 509.115,920.597 512.86,920.597 505.168,908.96 508.699,908.96 501.424,897.739 
			505.374,897.739 498.102,886.515 501.633,886.515 		"/>
		<polygon fill="#FFFFFF" points="493.322,874.879 493.322,965.907 458.822,965.907 466.096,954.267 462.979,954.267 
			470.046,943.046 466.717,943.046 473.578,931.821 470.461,931.821 477.528,920.597 473.787,920.597 481.477,908.96 
			477.942,908.96 485.215,897.739 481.266,897.739 488.543,886.515 485.005,886.515 		"/>
	</g>
	<g>
		<polygon fill="#D1D3D4" points="408.891,895.6 408.891,968.159 436.393,968.159 430.591,958.88 433.077,958.88 427.446,949.937 
			430.096,949.937 424.631,940.989 427.114,940.989 421.48,932.043 424.465,932.043 418.335,922.766 421.149,922.766 
			415.35,913.821 418.499,913.821 412.702,904.875 415.516,904.875 		"/>
		<polygon fill="#FFFFFF" points="408.891,895.6 408.891,968.159 381.391,968.159 387.189,958.88 384.705,958.88 390.338,949.937 
			387.685,949.937 393.153,940.989 390.669,940.989 396.302,932.043 393.32,932.043 399.45,922.766 396.632,922.766 402.43,913.821 
			399.282,913.821 405.082,904.875 402.262,904.875 		"/>
	</g>
	<g>
		<polygon fill="#D1D3D4" points="368.891,895.6 368.891,968.159 396.393,968.159 390.591,958.88 393.077,958.88 387.446,949.937 
			390.096,949.937 384.631,940.989 387.114,940.989 381.48,932.043 384.465,932.043 378.335,922.766 381.149,922.766 
			375.35,913.821 378.499,913.821 372.702,904.875 375.516,904.875 		"/>
		<polygon fill="#FFFFFF" points="368.891,895.6 368.891,968.159 341.391,968.159 347.189,958.88 344.705,958.88 350.338,949.937 
			347.685,949.937 353.153,940.989 350.669,940.989 356.302,932.043 353.32,932.043 359.45,922.766 356.632,922.766 362.43,913.821 
			359.282,913.821 365.082,904.875 362.262,904.875 		"/>
	</g>
	<g>
		<polygon fill="#D1D3D4" points="305.322,874.879 305.322,965.907 339.824,965.907 332.544,954.267 335.664,954.267 328.6,943.046 
			331.924,943.046 325.068,931.821 328.183,931.821 321.115,920.597 324.86,920.597 317.168,908.96 320.699,908.96 313.424,897.739 
			317.374,897.739 310.102,886.515 313.633,886.515 		"/>
		<polygon fill="#FFFFFF" points="305.322,874.879 305.322,965.907 270.822,965.907 278.096,954.267 274.979,954.267 
			282.046,943.046 278.717,943.046 285.578,931.821 282.461,931.821 289.528,920.597 285.787,920.597 293.477,908.96 
			289.942,908.96 297.215,897.739 293.266,897.739 300.543,886.515 297.005,886.515 		"/>
	</g>
	<polyline fill="none" stroke="#21716E" stroke-width="2" stroke-miterlimit="10" points="339.824,556.941 339.824,807 536.724,807 
			"/>
	<polyline fill="none" stroke="#21716E" stroke-width="2" stroke-miterlimit="10" points="203.312,345.672 203.312,815 527.824,815 
			"/>
	<path fill="none" stroke="#21716E" stroke-width="2" stroke-miterlimit="10" d="M533.467,803.151
		c6.542-10.46,18.053-17.073,31.4-17.073c20.588,0,37.278,16.689,37.278,37.277c0,20.588-16.69,37.278-37.278,37.278
		s-37.278-16.69-37.278-37.278c0-2.562,0.259-5.062,0.752-7.479l0.409-1.752"/>
	<path fill="none" stroke="#21716E" stroke-width="2" stroke-miterlimit="10" d="M534.549,811.502
		c-1.438,3.674-2.236,7.67-2.236,11.854c0,17.98,14.575,32.555,32.555,32.555s32.555-14.574,32.555-32.555
		c0-17.979-14.575-32.555-32.555-32.555c-12.016,0-22.511,6.51-28.151,16.195c-0.191,0.328-0.64-0.003-1.258,0.004"/>
	<polyline fill="none" stroke="#21716E" stroke-width="2" stroke-miterlimit="10" points="270.822,857.653 270.822,823.356 
		522.762,823.356 	"/>
	<path fill="none" stroke="#21716E" stroke-width="2" stroke-miterlimit="10" d="M522.762,822.5
		c0,23.254,18.851,42.961,42.105,42.961s42.105-18.852,42.105-42.105c0-23.254-18.851-42.106-42.105-42.106
		c-15.87,0-29.683,8.783-36.859,21.75"/>
	<g>
		<g>
			<path fill="#D1DE58" d="M554.45,816.91v-4.547c2.104-0.094,3.577-0.234,4.418-0.422c1.34-0.297,2.432-0.891,3.273-1.781
				c0.577-0.609,1.013-1.422,1.31-2.438c0.171-0.609,0.257-1.062,0.257-1.359h5.578v33.984h-6.844V816.91H554.45z"/>
		</g>
	</g>
	<g>
		<g>
			<path fill="#D1DE58" d="M577.652,290.385h-3.844v7.312h-6.539v-7.312h-13.453v-5.836l12.492-20.625h7.5v21.234h3.844V290.385z
				 M567.269,285.158v-14.638l-8.482,14.638H567.269z"/>
		</g>
	</g>
	<g>
		<g>
			<path fill="#D1DE58" d="M554.801,651.082c0.953-2.266,3.203-4.664,6.75-7.195c3.078-2.203,5.07-3.781,5.977-4.734
				c1.391-1.484,2.086-3.109,2.086-4.875c0-1.438-0.398-2.633-1.195-3.586c-0.797-0.953-1.937-1.43-3.422-1.43
				c-2.031,0-3.414,0.758-4.148,2.273c-0.422,0.875-0.672,2.266-0.75,4.172h-6.492c0.109-2.891,0.633-5.226,1.572-7.008
				c1.783-3.391,4.951-5.086,9.502-5.086c3.597,0,6.459,0.996,8.587,2.988c2.127,1.992,3.191,4.629,3.191,7.91
				c0,2.516-0.751,4.75-2.254,6.703c-0.986,1.297-2.606,2.742-4.861,4.336l-2.677,1.898c-1.675,1.188-2.821,2.047-3.438,2.578
				c-0.617,0.531-1.137,1.148-1.559,1.852h14.836v5.883h-23.273C553.293,655.324,553.817,653.098,554.801,651.082z"/>
		</g>
	</g>
	<g>
		<g>
			<path fill="#D1DE58" d="M559.688,467.336c0,1.358,0.218,2.483,0.655,3.374c0.81,1.641,2.283,2.461,4.419,2.461
				c1.31,0,2.452-0.449,3.426-1.348c0.974-0.898,1.461-2.191,1.461-3.879c0-2.234-0.903-3.727-2.71-4.477
				c-1.028-0.422-2.648-0.632-4.86-0.632v-4.782c2.164-0.031,3.675-0.242,4.531-0.633c1.479-0.656,2.219-1.984,2.219-3.984
				c0-1.297-0.378-2.351-1.134-3.164c-0.756-0.812-1.82-1.219-3.191-1.219c-1.574,0-2.731,0.5-3.471,1.5
				c-0.74,1-1.095,2.336-1.064,4.008h-6.234c0.062-1.686,0.351-3.289,0.866-4.805c0.546-1.328,1.405-2.555,2.575-3.68
				c0.874-0.797,1.912-1.406,3.114-1.827c1.202-0.423,2.677-0.634,4.425-0.634c3.247,0,5.865,0.84,7.855,2.52
				c1.99,1.68,2.985,3.934,2.985,6.762c0,2-0.594,3.688-1.781,5.062c-0.75,0.859-1.531,1.445-2.344,1.758
				c0.609,0,1.484,0.523,2.625,1.57c1.703,1.578,2.555,3.734,2.555,6.469c0,2.875-0.995,5.402-2.985,7.582
				c-1.99,2.18-4.937,3.27-8.839,3.27c-4.808,0-8.148-1.57-10.021-4.711c-0.984-1.672-1.53-3.859-1.639-6.562H559.688z"/>
		</g>
	</g>
	<path fill="none" stroke="#3A9E99" stroke-width="2" stroke-miterlimit="10" d="M534.883,636.558
		c2.433-14.846,15.319-26.171,30.851-26.171c17.266,0,31.263,13.996,31.263,31.263S583,672.912,565.734,672.912
		s-31.263-13.996-31.263-31.263"/>
	<path fill="none" stroke="#D1D3D4" stroke-width="2" stroke-miterlimit="10" d="M562.075,492.284
		c-15.542-1.812-27.603-15.023-27.604-31.051c0-17.267,13.997-31.263,31.263-31.263s31.263,13.996,31.263,31.263
		S583,492.496,565.734,492.496c-0.358,0-0.715-0.007-1.071-0.019"/>
	<path fill="none" stroke="#FFFFFF" stroke-width="2" stroke-miterlimit="10" d="M534.471,280.81
		c0-17.267,13.997-31.263,31.263-31.263s31.263,13.996,31.263,31.263c0,17.267-13.997,31.263-31.263,31.263
		c-15.978,0-29.156-11.985-31.034-27.457c-0.08-0.659-0.14-1.325-0.178-1.996C534.488,282.022,534.471,281.418,534.471,280.81z"/>
	<polyline fill="none" stroke="#3A9E99" stroke-width="2" stroke-miterlimit="10" points="144.855,681.971 144.855,641.649 
		534.471,641.649 534.471,640.688 	"/>
	<polyline fill="none" stroke="#3A9E99" stroke-width="2" stroke-miterlimit="10" points="1520.054,672.912 1402.075,672.912 
		1402.075,614 588.234,614 	"/>
	<polyline fill="none" stroke="#D1D3D4" stroke-width="2" stroke-miterlimit="10" points="1402.075,562.94 1354.574,562.94 
		1354.574,592.938 565.734,592.938 565.734,492.496 	"/>
	<polyline fill="none" stroke="#D1D3D4" stroke-width="2" stroke-miterlimit="10" points="339.663,499 339.663,461.233 
		529.868,461.233 	"/>
	<polyline fill="none" stroke="#D1D3D4" stroke-width="2" stroke-miterlimit="10" points="211,345.672 211,453 526.088,453 	"/>
	<path fill="none" stroke="#D1D3D4" stroke-width="2" stroke-miterlimit="10" d="M529.884,462.334
		c-0.011-0.366-0.017-0.732-0.017-1.101c0-19.809,16.058-35.866,35.866-35.866s35.866,16.058,35.866,35.866
		c0,18.54-14.067,33.795-32.111,35.672"/>
	<path fill="none" stroke="#D1D3D4" stroke-width="2" stroke-miterlimit="10" d="M525.893,454.011
		c3.406-18.912,19.948-33.261,39.841-33.261c22.359,0,40.484,18.125,40.484,40.483c0,20.854-15.77,38.026-36.035,40.242"/>
	<path fill="none" stroke="#3A9E99" stroke-width="2" stroke-miterlimit="10" d="M587.457,613.383
		c8.468,6.517,13.925,16.754,13.925,28.267c0,19.688-15.96,35.648-35.648,35.648c-18.458,0-33.639-14.027-35.465-32.004"/>
	<rect x="615.585" y="461.112" opacity="0.3" fill="#D1DE58" width="450.65" height="106.669"/>
	<rect x="615.585" y="640.688" opacity="0.3" fill="#D1DE58" width="450.65" height="122.888"/>
	<rect x="615.585" y="824.873" opacity="0.3" fill="#D1DE58" width="450.65" height="122.888"/>
	<rect x="615.585" y="242.628" opacity="0.3" fill="#D1DE58" width="450.65" height="146.866"/>
	<polygon fill="#D1DE58" points="615.585,475.943 630.415,461.113 615.585,446.281 	"/>
	<polygon fill="#D1DE58" points="615.585,261.909 630.415,242.63 615.585,223.349 	"/>
	<polyline fill="none" stroke="#FFFFFF" stroke-width="2" stroke-miterlimit="10" points="220.333,345.672 484.333,345.672 
		484.333,279.49 534.471,279.49 	"/>
	<polygon fill="#D1DE58" points="615.585,838.187 630.415,823.356 615.585,808.524 	"/>
	<polygon fill="#D1DE58" points="630.415,626.818 615.585,641.648 630.415,656.481 	"/>
	<g>
		<rect x="640.259" y="256.821" fill="none" width="415.358" height="124.405"/>
		<text transform="matrix(0.867 0 0 1 640.2588 266.168)"><tspan x="0" y="0" fill="#FFFFFF" font-family="'Helvetica'" font-size="13">A CONSTELLATION OF GEOSTATIONARY SATELLITES – THE NEXT </tspan><tspan x="0" y="15.601" fill="#FFFFFF" font-family="'Helvetica'" font-size="13">GENERATION IN AIR QUALITY MONITORING – AUGMENTED BY LOW </tspan><tspan x="0" y="31.2" fill="#FFFFFF" font-family="'Helvetica'" font-size="13">EARTH-ORBITING SATELLITES WOULD REVOLUTIONIZE GLOBAL AND </tspan><tspan x="0" y="46.8" fill="#FFFFFF" font-family="'Helvetica'" font-size="13">REGIONAL MONITORING.</tspan><tspan x="0" y="73.934" fill="#FFFFFF" font-family="'Helvetica'" font-size="13">THE FULL SUITE OF SATELLITE OBSERVATIONS NEED TO BE USED TO </tspan><tspan x="0" y="89.534" fill="#FFFFFF" font-family="'Helvetica'" font-size="13">CONSTRAIN BOTH OZONE PRECURSOR EMISSIONS AND OZONE </tspan><tspan x="0" y="105.134" fill="#FFFFFF" font-family="'Helvetica'" font-size="13">CONCENTRATIONS.</tspan></text>
	</g>
	<g>
		<rect x="640.259" y="477.331" fill="none" width="415.358" height="90.45"/>
		<text transform="matrix(1 0 0 1 640.2588 486.6777)"><tspan x="0" y="0" fill="#FFFFFF" font-family="'Helvetica'" font-size="13">AIR QUALITY MONITORING SHOULD BE ANCHORED ON AN </tspan><tspan x="0" y="15.601" fill="#FFFFFF" font-family="'Helvetica'" font-size="13">OPERATIONAL AIR QUALITY ANALYSIS SYSTEM THAT </tspan><tspan x="0" y="31.2" fill="#FFFFFF" font-family="'Helvetica'" font-size="13">ASSIMILATES SATELLITE, AIRCRAFT, AND IN-SITU </tspan><tspan x="0" y="46.8" fill="#FFFFFF" font-family="'Helvetica'" font-size="13">OBSERVATIONS WITH GLOBAL AND REGIONAL CHEMICAL </tspan><tspan x="0" y="62.4" fill="#FFFFFF" font-family="'Helvetica'" font-size="13">TRANSPORT MODELS.</tspan></text>
	</g>
	<g>
		<rect x="640.259" y="656.906" fill="none" width="415.358" height="90.45"/>
		<text transform="matrix(1 0 0 1 640.2588 666.2529)"><tspan x="0" y="0" fill="#FFFFFF" font-family="'Helvetica'" font-size="13">SURFACE OZONE OBSERVATION NETWORKS NEED TO BE </tspan><tspan x="0" y="15.601" fill="#FFFFFF" font-family="'Helvetica'" font-size="13">DEVELOPED AND EXPANDED. SURFACE OZONE OBSERVATION </tspan><tspan x="0" y="31.2" fill="#FFFFFF" font-family="'Helvetica'" font-size="13">NETWORKS NEED TO BE DEVELOPED AND EXPANDED. OZONE </tspan><tspan x="0" y="46.8" fill="#FFFFFF" font-family="'Helvetica'" font-size="13">NETWORKS CAN BE OPTIMALLY CONSTRUCTED FOR A MODEST </tspan><tspan x="0" y="62.4" fill="#FFFFFF" font-family="'Helvetica'" font-size="13">INVESTMENT.</tspan></text>
	</g>
	<g>
		<rect x="640.259" y="841.092" fill="none" width="415.358" height="101.735"/>
		<text transform="matrix(1 0 0 1 640.2588 850.4385)"><tspan x="0" y="0" fill="#FFFFFF" font-family="'Helvetica'" font-size="13">USE OF MULTISPECTRAL TECHNIQUES AND INSTRUMENTATION </tspan><tspan x="0" y="15.601" fill="#FFFFFF" font-family="'Helvetica'" font-size="13">SHOULD BE USED TO MEASURE BOUNDARY LAYER OZONE AND </tspan><tspan x="0" y="31.2" fill="#FFFFFF" font-family="'Helvetica'" font-size="13">CARBON MONOXIDE.</tspan><tspan x="0" y="56.8" fill="#FFFFFF" font-family="'Helvetica'" font-size="13">THE ROLE OF THIS SYSTEM FOR THE MONITORING OF AIR </tspan><tspan x="0" y="72.4" fill="#FFFFFF" font-family="'Helvetica'" font-size="13">QUALITY-CLIMATE CO-BENEFITS SHOULD BE INVESTIGATED.</tspan></text>
	</g>
	<polygon fill="#D1DE58" points="56.596,41.189 37.487,60.299 56.596,79.408 	"/>
</g>
</svg>
