<?xml version="1.0" encoding="utf-8"?>
<!-- Generator: Adobe Illustrator 18.0.0, SVG Export Plug-In . SVG Version: 6.00 Build 0)  -->
<!DOCTYPE svg PUBLIC "-//W3C//DTD SVG 1.1//EN" "http://www.w3.org/Graphics/SVG/1.1/DTD/svg11.dtd">
<svg version="1.1" xmlns="http://www.w3.org/2000/svg" xmlns:xlink="http://www.w3.org/1999/xlink" x="0px" y="0px"
	 viewBox="0 0 1600 1150" enable-background="new 0 0 1600 1150" xml:space="preserve">
<g id="Layer_1">
</g>
<g id="Layer_2">
</g>
<g id="Layer_3">
</g>
<g id="Layer_4">
	<rect fill="#47BCB6" width="1600.229" height="1147.277"/>
	<rect x="1.592" y="984.238" fill="#FFFFFF" width="1600" height="165.762"/>
	<text transform="matrix(1 0 0 1 341.2988 1046.0869)"><tspan x="0" y="0" fill="#010101" font-family="'Helvetica'" font-size="18">Re</tspan><tspan x="23.01" y="0" fill="#010101" font-family="'Helvetica'" font-size="18">f</tspan><tspan x="27.849" y="0" fill="#010101" font-family="'Helvetica'" font-size="18">erences</tspan></text>
	<g>
		<polygon fill="#2E2119" points="105.124,1045.854 105.124,1029.158 116.626,1029.158 116.626,1031.684 108.737,1031.684 
			108.737,1035.93 115.362,1035.93 115.362,1038.309 108.737,1038.309 108.737,1043.307 116.966,1043.307 116.966,1045.854 		"/>
		<path fill="#2E2119" d="M127.189,1045.854v-7.375c0-1.24-0.194-2.137-1.698-2.137c-0.801,0-1.917,0.414-2.718,0.896v8.615h-3.495
			v-11.914h3.301l0.049,1.09l0.097,0.051c1.382-0.924,3.058-1.432,4.198-1.432c3.154,0,3.736,1.869,3.736,4.102v8.104H127.189z"/>
		<path fill="#2E2119" d="M138.554,1043.549c0.121-0.314,0.776-3.082,1.164-4.32c0.535-1.553,1.53-4.949,1.651-5.289h3.494
			c-0.874,2.451-3.227,9.486-4.101,11.914h-4.732c-0.85-2.428-3.229-9.463-4.078-11.914h3.642l1.722,5.531
			c0.268,0.85,0.826,3.252,1.117,4.078H138.554z"/>
		<path fill="#2E2119" d="M148.405,1032.482c-1.287,0-1.99-0.824-1.99-1.842c0-1.068,0.729-1.871,1.99-1.871
			c1.335,0,2.062,0.803,2.062,1.871C150.467,1031.658,149.74,1032.482,148.405,1032.482 M146.682,1033.939h3.47v11.914h-3.47
			V1033.939z"/>
		<path fill="#2E2119" d="M156.674,1036.051c1.31-1.287,3.203-2.428,4.538-2.428c0.486,0,0.678,0.293,0.678,0.803
			c0,0.896-0.581,2.717-1.09,3.422l-4.053-0.049v8.055h-3.471v-11.914h3.422c0,0.557-0.072,1.48-0.145,2.039L156.674,1036.051z"/>
		<path fill="#2E2119" d="M168.685,1046.098c-4.416,0-5.945-2.766-5.945-6.188c0-3.35,1.699-6.238,6.092-6.238
			c4.439,0,5.969,2.889,5.969,6.213S173.224,1046.098,168.685,1046.098 M168.831,1036.123c-1.99,0-2.525,1.916-2.525,3.787
			c0,2.109,0.412,3.736,2.525,3.736c1.965,0,2.378-1.773,2.378-3.736C171.209,1038.016,170.82,1036.123,168.831,1036.123"/>
		<path fill="#2E2119" d="M184.675,1045.854v-7.375c0-1.24-0.195-2.137-1.699-2.137c-0.801,0-1.918,0.414-2.719,0.896v8.615h-3.494
			v-11.914h3.3l0.049,1.09l0.097,0.051c1.383-0.924,3.059-1.432,4.199-1.432c3.154,0,3.736,1.869,3.736,4.102v8.104H184.675z"/>
		<path fill="#2E2119" d="M205.663,1045.854v-7.545c0-1.312-0.34-1.943-1.578-1.943c-0.752,0-1.867,0.365-2.547,0.826
			c0.072,0.51,0.098,1.117,0.098,1.553v7.109h-3.424c0-2.598-0.023-5.193-0.023-7.789c0-1.117-0.509-1.674-1.432-1.674
			c-0.801,0-1.795,0.365-2.621,0.871v8.592h-3.47v-11.914h3.253l0.071,1.188l0.097,0.049c1.36-1.02,2.985-1.504,4.125-1.504
			c1.36,0,2.284,0.484,2.889,1.553c1.165-0.896,3.033-1.553,4.296-1.553c3.179,0,3.761,1.967,3.761,4.197v7.984H205.663z"/>
		<path fill="#2E2119" d="M222.451,1039.449v1.236h-7.788c0,1.82,0.85,2.789,2.985,2.789c1.286,0,2.596-0.289,3.833-0.752
			l0.705,2.137c-1.578,0.873-3.398,1.188-5.049,1.188c-4.805,0-5.969-2.861-5.969-6.137c0-2.621,1.117-6.287,5.823-6.287
			C222.112,1033.623,222.451,1037.311,222.451,1039.449 M214.712,1038.549h4.586c-0.023-1.576-0.51-2.717-2.16-2.717
			C215.416,1035.832,214.833,1037.119,214.712,1038.549"/>
		<path fill="#2E2119" d="M232.619,1045.854v-7.375c0-1.24-0.194-2.137-1.699-2.137c-0.801,0-1.917,0.414-2.718,0.896v8.615h-3.494
			v-11.914h3.299l0.049,1.09l0.098,0.051c1.384-0.924,3.057-1.432,4.198-1.432c3.155,0,3.737,1.869,3.737,4.102v8.104H232.619z"/>
		<path fill="#2E2119" d="M242.857,1030.639v3.277h3.471v2.279h-3.471v5.389c0,1.26,0.364,1.842,1.603,1.842
			c0.436,0,1.189-0.119,2.061-0.314l0.436,2.258c-1.018,0.461-2.377,0.678-3.396,0.678c-3.324,0-4.125-1.648-4.125-3.541v-6.311
			h-1.675v-1.893l1.893-0.559c0.171-0.412,0.704-2.449,0.85-2.863L242.857,1030.639z"/>
		<path fill="#2E2119" d="M258.944,1043.549h1.554l0.169,1.939c-0.776,0.365-1.893,0.609-2.911,0.609
			c-1.044,0-1.796-0.244-1.919-1.434c0-0.023-0.022-0.023-0.048-0.049c-1.674,1.459-3.444,1.482-4.124,1.482
			c-2.961,0-3.689-2.086-3.689-3.471c0-2.477,1.918-3.689,4.418-3.834c0.921-0.072,2.329-0.121,3.25-0.195v-0.289
			c0-1.361-0.437-2.062-2.207-2.062c-1.165,0-2.67,0.24-3.785,0.604c-0.171-0.727-0.365-1.455-0.559-2.156
			c1.406-0.609,3.469-0.996,5.168-0.996c2.863,0,4.684,1.066,4.684,4.15V1043.549z M253.241,1040.709
			c-1.141,0.098-1.674,0.68-1.674,1.625c0,0.998,0.484,1.531,1.627,1.531c0.728,0,1.674-0.391,2.449-1.068v-2.283L253.241,1040.709z
			"/>
		<polygon fill="#2E2119" points="265.883,1045.854 262.436,1045.854 262.436,1028.479 265.907,1028.479 		"/>
		<path fill="#2E2119" d="M111.749,1066.562h-3.034l0.025,6.406h-3.616v-16.695h6.333c3.811,0,5.727,1.99,5.727,5.121
			C117.184,1063.797,115.681,1066.562,111.749,1066.562 M108.715,1058.797v5.316h2.353c1.287,0,2.476-0.68,2.476-2.645
			c0-1.896-1.116-2.672-2.596-2.672H108.715z"/>
		<path fill="#2E2119" d="M129.436,1066.562v1.238h-7.788c0,1.82,0.85,2.789,2.985,2.789c1.285,0,2.597-0.291,3.833-0.752
			l0.703,2.137c-1.578,0.873-3.396,1.189-5.047,1.189c-4.805,0-5.969-2.865-5.969-6.141c0-2.621,1.115-6.283,5.823-6.283
			C129.097,1060.74,129.436,1064.428,129.436,1066.562 M121.696,1065.666h4.586c-0.024-1.578-0.51-2.719-2.16-2.719
			C122.399,1062.947,121.816,1064.232,121.696,1065.666"/>
		<path fill="#2E2119" d="M135.089,1063.164c1.311-1.283,3.203-2.424,4.538-2.424c0.485,0,0.681,0.289,0.681,0.799
			c0,0.896-0.584,2.717-1.094,3.422l-4.051-0.049v8.057h-3.472v-11.914h3.423c0,0.557-0.073,1.479-0.146,2.037L135.089,1063.164z"/>
		<path fill="#2E2119" d="M143.313,1063.311h-1.675v-1.893l1.7-0.486v-1.479c0-2.281,0.994-4.078,4.512-4.078
			c0.826,0,2.16,0.098,3.277,0.412l-0.412,2.354c-0.68-0.145-1.555-0.217-2.063-0.217c-1.237,0-1.942,0.412-1.942,1.578v1.527h3.424
			v2.281h-3.424c0,1.043-0.024,8.615-0.024,9.658h-3.373V1063.311z"/>
		<path fill="#2E2119" d="M157.096,1073.211c-4.416,0-5.945-2.766-5.945-6.188c0-3.35,1.698-6.234,6.091-6.234
			c4.44,0,5.969,2.885,5.969,6.209C163.21,1070.324,161.633,1073.211,157.096,1073.211 M157.241,1063.238
			c-1.99,0-2.523,1.918-2.523,3.785c0,2.111,0.412,3.736,2.523,3.736c1.966,0,2.379-1.77,2.379-3.736
			C159.62,1065.131,159.231,1063.238,157.241,1063.238"/>
		<path fill="#2E2119" d="M168.62,1063.164c1.311-1.283,3.204-2.424,4.539-2.424c0.486,0,0.678,0.289,0.678,0.799
			c0,0.896-0.582,2.717-1.09,3.422l-4.054-0.049v8.057h-3.47v-11.914h3.422c0,0.557-0.072,1.479-0.145,2.037L168.62,1063.164z"/>
		<path fill="#2E2119" d="M190.341,1072.969v-7.547c0-1.309-0.34-1.939-1.578-1.939c-0.752,0-1.867,0.363-2.547,0.822
			c0.072,0.51,0.098,1.117,0.098,1.553v7.111h-3.424c0-2.598-0.023-5.193-0.023-7.791c0-1.113-0.509-1.674-1.432-1.674
			c-0.801,0-1.795,0.365-2.62,0.875v8.59h-3.47v-11.914h3.25l0.073,1.189l0.097,0.049c1.36-1.021,2.985-1.504,4.125-1.504
			c1.36,0,2.283,0.482,2.889,1.553c1.165-0.9,3.033-1.553,4.296-1.553c3.179,0,3.761,1.965,3.761,4.197v7.982H190.341z"/>
		<path fill="#2E2119" d="M206.718,1070.664h1.553l0.17,1.941c-0.775,0.363-1.893,0.605-2.912,0.605
			c-1.045,0-1.797-0.242-1.917-1.432c0-0.021-0.024-0.021-0.049-0.047c-1.675,1.455-3.446,1.479-4.125,1.479
			c-2.961,0-3.689-2.086-3.689-3.471c0-2.473,1.916-3.688,4.416-3.834c0.924-0.072,2.33-0.119,3.252-0.191v-0.293
			c0-1.357-0.438-2.062-2.209-2.062c-1.164,0-2.668,0.242-3.785,0.607c-0.17-0.729-0.363-1.455-0.559-2.162
			c1.408-0.604,3.471-0.992,5.17-0.992c2.863,0,4.684,1.068,4.684,4.148V1070.664z M201.015,1067.822
			c-1.141,0.1-1.674,0.682-1.674,1.629c0,0.994,0.484,1.527,1.625,1.527c0.729,0,1.674-0.389,2.451-1.066v-2.281L201.015,1067.822z"
			/>
		<path fill="#2E2119" d="M218.146,1072.969v-7.377c0-1.238-0.194-2.135-1.699-2.135c-0.801,0-1.917,0.412-2.718,0.896v8.615h-3.494
			v-11.914h3.299l0.049,1.092l0.098,0.049c1.383-0.924,3.057-1.434,4.198-1.434c3.155,0,3.737,1.869,3.737,4.102v8.105H218.146z"/>
		<path fill="#2E2119" d="M230.01,1070.518c1.115,0,2.136-0.242,3.204-0.605l0.654,2.305c-1.189,0.605-2.862,0.947-4.488,0.947
			c-4.562,0-5.752-2.719-5.752-6.02c0-2.814,1.067-6.355,5.896-6.355c1.02,0,2.354,0.094,3.714,0.582
			c-0.171,0.799-0.34,1.6-0.534,2.426c-1.02-0.293-1.893-0.34-2.596-0.34c-1.942,0-2.961,1.334-2.961,3.541
			C227.147,1069.184,227.851,1070.518,230.01,1070.518"/>
		<path fill="#2E2119" d="M246.368,1066.562v1.238h-7.788c0,1.82,0.849,2.789,2.984,2.789c1.285,0,2.597-0.291,3.833-0.752
			l0.705,2.137c-1.578,0.873-3.398,1.189-5.049,1.189c-4.803,0-5.969-2.865-5.969-6.141c0-2.621,1.117-6.283,5.824-6.283
			C246.028,1060.74,246.368,1064.428,246.368,1066.562 M238.628,1065.666h4.587c-0.024-1.578-0.511-2.719-2.161-2.719
			C239.332,1062.947,238.749,1064.232,238.628,1065.666"/>
		<rect x="105.343" y="1083.387" fill="#2E2119" width="3.541" height="16.697"/>
		<path fill="#2E2119" d="M119.95,1100.084v-7.379c0-1.238-0.195-2.135-1.699-2.135c-0.801,0-1.917,0.412-2.718,0.896v8.617h-3.495
			v-11.916h3.301l0.049,1.092l0.097,0.051c1.383-0.924,3.058-1.434,4.198-1.434c3.154,0,3.738,1.867,3.738,4.1v8.107H119.95z"/>
		<path fill="#2E2119" d="M133.925,1088.631v-5.898h3.471v17.352h-3.228l-0.072-1.068c-0.024-0.023-0.047-0.049-0.072-0.049
			c-1.164,0.945-2.645,1.285-3.664,1.285c-3.714,0-4.732-2.717-4.732-5.871c0-3.689,1.358-6.504,5.144-6.504
			C131.548,1087.877,132.931,1088.045,133.925,1088.631 M133.925,1091.055c-0.559-0.338-1.625-0.654-2.402-0.654
			c-1.188,0-2.402,0.703-2.402,3.955c0,2.816,1.043,3.471,2.354,3.471c0.704,0,1.893-0.484,2.451-0.896V1091.055z"/>
		<path fill="#2E2119" d="M150.497,1093.676v1.238h-7.79c0,1.82,0.852,2.791,2.985,2.791c1.287,0,2.597-0.291,3.835-0.754
			l0.703,2.137c-1.577,0.873-3.398,1.189-5.049,1.189c-4.804,0-5.968-2.863-5.968-6.139c0-2.623,1.115-6.285,5.824-6.285
			C150.157,1087.854,150.497,1091.541,150.497,1093.676 M142.756,1092.779h4.587c-0.023-1.578-0.51-2.719-2.161-2.719
			C143.46,1090.061,142.878,1091.346,142.756,1092.779"/>
		<polygon fill="#2E2119" points="157.8,1095.664 155.275,1100.084 151.563,1100.084 155.664,1093.871 151.879,1088.168 
			155.688,1088.168 157.849,1092.195 160.032,1088.168 163.745,1088.168 159.886,1093.846 163.939,1100.084 160.153,1100.084 		"/>
		<path fill="#F4C61B" d="M75.18,1092.689c-1.936,0-3.503-1.566-3.503-3.5c0-1.936,1.567-3.504,3.503-3.504
			c1.933,0,3.503,1.568,3.503,3.504C78.683,1091.123,77.112,1092.689,75.18,1092.689"/>
		<path fill="#F4C61B" d="M78.455,1083.67c-1.356,0-2.456-1.1-2.456-2.457s1.1-2.455,2.456-2.455c1.356,0,2.454,1.098,2.454,2.455
			S79.812,1083.67,78.455,1083.67"/>
		<path fill="#F4C61B" d="M80.911,1076.922c-0.933,0-1.689-0.756-1.689-1.688c0-0.934,0.757-1.689,1.689-1.689
			c0.934,0,1.688,0.756,1.688,1.689C82.6,1076.166,81.845,1076.922,80.911,1076.922"/>
		<path fill="#F4C61B" d="M82.549,1072.467c-0.673,0-1.22-0.545-1.22-1.221c0-0.674,0.547-1.219,1.22-1.219
			c0.673,0,1.22,0.545,1.22,1.219C83.769,1071.922,83.222,1072.467,82.549,1072.467"/>
		<path fill="#7E90C8" d="M60.634,1078.176c-1.935,0-3.502-1.57-3.502-3.504c0-1.932,1.567-3.498,3.502-3.498
			c1.934,0,3.502,1.566,3.502,3.498C64.136,1076.605,62.567,1078.176,60.634,1078.176"/>
		<path fill="#7E90C8" d="M68.577,1073.781c-1.355,0-2.451-1.1-2.451-2.455c0-1.352,1.096-2.451,2.451-2.451
			c1.354,0,2.453,1.1,2.453,2.451C71.03,1072.682,69.932,1073.781,68.577,1073.781"/>
		<path fill="#7E90C8" d="M74.536,1070.5c-0.932,0-1.684-0.752-1.684-1.682s0.752-1.686,1.684-1.686c0.93,0,1.684,0.756,1.684,1.686
			S75.466,1070.5,74.536,1070.5"/>
		<path fill="#7E90C8" d="M78.507,1068.355c-0.668,0-1.211-0.541-1.211-1.211s0.543-1.213,1.211-1.213
			c0.672,0,1.214,0.543,1.214,1.213S79.179,1068.355,78.507,1068.355"/>
		<path fill="#0F9ACC" d="M60.607,1057.629c-1.933,0-3.501-1.566-3.501-3.504c0-1.932,1.568-3.498,3.501-3.498
			c1.935,0,3.503,1.566,3.503,3.498C64.11,1056.062,62.542,1057.629,60.607,1057.629"/>
		<path fill="#0F9ACC" d="M68.592,1059.824c-1.351,0-2.448-1.094-2.448-2.447c0-1.352,1.098-2.449,2.448-2.449
			c1.352,0,2.448,1.098,2.448,2.449C71.04,1058.73,69.943,1059.824,68.592,1059.824"/>
		<path fill="#0F9ACC" d="M74.579,1061.49c-0.924,0-1.676-0.75-1.676-1.676c0-0.928,0.752-1.678,1.676-1.678
			c0.928,0,1.678,0.75,1.678,1.678C76.257,1060.74,75.507,1061.49,74.579,1061.49"/>
		<path fill="#0F9ACC" d="M78.573,1062.643c-0.666,0-1.205-0.541-1.205-1.205c0-0.662,0.539-1.203,1.205-1.203
			c0.664,0,1.203,0.541,1.203,1.203C79.776,1062.102,79.237,1062.643,78.573,1062.643"/>
		<path fill="#3FBBA3" d="M75.12,1043.084c-1.934,0-3.504-1.57-3.504-3.504c0-1.936,1.57-3.502,3.504-3.502
			c1.933,0,3.502,1.566,3.502,3.502C78.622,1041.514,77.053,1043.084,75.12,1043.084"/>
		<path fill="#3FBBA3" d="M78.444,1049.977c-1.35,0-2.444-1.092-2.444-2.443c0-1.35,1.095-2.445,2.444-2.445
			c1.35,0,2.445,1.096,2.445,2.445C80.89,1048.885,79.794,1049.977,78.444,1049.977"/>
		<path fill="#3FBBA3" d="M80.938,1055.17c-0.924,0-1.674-0.748-1.674-1.672s0.75-1.672,1.674-1.672c0.922,0,1.67,0.748,1.67,1.672
			S81.86,1055.17,80.938,1055.17"/>
		<path fill="#3FBBA3" d="M82.6,1058.672c-0.661,0-1.196-0.535-1.196-1.195s0.535-1.197,1.196-1.197
			c0.661,0,1.196,0.537,1.196,1.197S83.261,1058.672,82.6,1058.672"/>
		<path fill="#F89624" d="M85.499,1112.383c-2.389,0-4.326-1.936-4.326-4.326c0-2.389,1.938-4.324,4.326-4.324
			c2.389,0,4.326,1.936,4.326,4.324C89.825,1110.447,87.888,1112.383,85.499,1112.383"/>
		<path fill="#F89624" d="M85.465,1100.061c-1.833,0-3.318-1.486-3.318-3.318c0-1.83,1.485-3.318,3.318-3.318
			c1.833,0,3.317,1.488,3.317,3.318C88.782,1098.574,87.298,1100.061,85.465,1100.061"/>
		<path fill="#F89624" d="M85.438,1090.676c-1.408,0-2.551-1.145-2.551-2.553c0-1.406,1.143-2.551,2.551-2.551
			s2.551,1.145,2.551,2.551C87.989,1089.531,86.847,1090.676,85.438,1090.676"/>
		<path fill="#F89624" d="M85.414,1081.924c-1.041,0-1.882-0.844-1.882-1.881c0-1.039,0.841-1.885,1.882-1.885
			c1.038,0,1.882,0.846,1.882,1.885C87.296,1081.08,86.452,1081.924,85.414,1081.924"/>
		<path fill="#F36F2D" d="M54.646,1099.645c-2.39,0-4.325-1.938-4.325-4.326c0-2.391,1.936-4.326,4.325-4.326
			c2.39,0,4.325,1.936,4.325,4.326C58.972,1097.707,57.036,1099.645,54.646,1099.645"/>
		<path fill="#F36F2D" d="M62.588,1090.574c-1.831,0-3.315-1.482-3.315-3.316c0-1.83,1.484-3.312,3.315-3.312
			c1.83,0,3.313,1.482,3.313,3.312C65.901,1089.092,64.418,1090.574,62.588,1090.574"/>
		<path fill="#F36F2D" d="M68.638,1083.664c-1.406,0-2.545-1.137-2.545-2.545c0-1.406,1.139-2.545,2.545-2.545
			c1.405,0,2.545,1.139,2.545,2.545C71.183,1082.527,70.043,1083.664,68.638,1083.664"/>
		<path fill="#F36F2D" d="M74.311,1077.236c-1.036,0-1.876-0.836-1.876-1.873c0-1.035,0.84-1.875,1.876-1.875
			c1.036,0,1.876,0.84,1.876,1.875C76.187,1076.4,75.347,1077.236,74.311,1077.236"/>
		<path fill="#3676BA" d="M41.835,1068.822c-2.39,0-4.326-1.938-4.326-4.328c0-2.387,1.937-4.326,4.326-4.326
			c2.389,0,4.325,1.939,4.325,4.326C46.16,1066.885,44.224,1068.822,41.835,1068.822"/>
		<path fill="#3676BA" d="M53.147,1067.717c-1.828,0-3.31-1.482-3.31-3.311s1.481-3.311,3.31-3.311c1.828,0,3.31,1.482,3.31,3.311
			S54.976,1067.717,53.147,1067.717"/>
		<path fill="#3676BA" d="M61.768,1066.873c-1.4,0-2.536-1.137-2.536-2.533c0-1.402,1.136-2.537,2.536-2.537
			c1.4,0,2.534,1.135,2.534,2.537C64.302,1065.736,63.168,1066.873,61.768,1066.873"/>
		<path fill="#3676BA" d="M69.849,1066.137c-1.029,0-1.863-0.832-1.863-1.863c0-1.027,0.834-1.863,1.863-1.863
			c1.029,0,1.862,0.836,1.862,1.863C71.711,1065.305,70.878,1066.137,69.849,1066.137"/>
		<path fill="#068D8C" d="M54.573,1037.971c-2.389,0-4.326-1.939-4.326-4.326c0-2.391,1.938-4.328,4.326-4.328
			c2.389,0,4.326,1.938,4.326,4.328C58.899,1036.031,56.962,1037.971,54.573,1037.971"/>
		<path fill="#068D8C" d="M62.608,1044.912c-1.825,0-3.305-1.479-3.305-3.305c0-1.824,1.479-3.305,3.305-3.305
			c1.826,0,3.307,1.48,3.307,3.305C65.915,1043.434,64.435,1044.912,62.608,1044.912"/>
		<path fill="#068D8C" d="M68.731,1050.205c-1.396,0-2.527-1.131-2.527-2.527s1.132-2.529,2.527-2.529
			c1.396,0,2.527,1.133,2.527,2.529S70.128,1050.205,68.731,1050.205"/>
		<path fill="#068D8C" d="M74.471,1055.219c-1.023,0-1.853-0.83-1.853-1.852c0-1.025,0.83-1.854,1.853-1.854
			c1.023,0,1.852,0.828,1.852,1.854C76.323,1054.389,75.494,1055.219,74.471,1055.219"/>
		<path fill="#2CB35F" d="M85.396,1025.158c-2.391,0-4.326-1.935-4.326-4.326c0-2.387,1.936-4.326,4.326-4.326
			c2.39,0,4.325,1.939,4.325,4.326C89.721,1023.223,87.785,1025.158,85.396,1025.158"/>
		<path fill="#2CB35F" d="M85.383,1035.449c-1.825,0-3.305-1.479-3.305-3.303s1.479-3.305,3.305-3.305
			c1.825,0,3.304,1.48,3.304,3.305S87.208,1035.449,85.383,1035.449"/>
		<path fill="#2CB35F" d="M85.372,1043.291c-1.395,0-2.524-1.129-2.524-2.523s1.13-2.527,2.524-2.527
			c1.396,0,2.526,1.133,2.526,2.527S86.768,1043.291,85.372,1043.291"/>
		<path fill="#2CB35F" d="M85.364,1050.699c-1.024,0-1.852-0.83-1.852-1.852s0.828-1.852,1.852-1.852c1.021,0,1.85,0.83,1.85,1.852
			S86.386,1050.699,85.364,1050.699"/>
	</g>
	<rect x="68.992" y="40.995" fill="none" width="1054.143" height="38.606"/>
	<text transform="matrix(1 0 0 1 65.9917 75.5068)"><tspan x="0" y="0" fill="#FFFFFF" font-family="'Helvetica-Bold'" font-size="48">O3:</tspan><tspan x="80.016" y="0" fill="#7E90C8" font-family="'Helvetica-Bold'" font-size="48"> </tspan><tspan x="93.352" y="0" fill="#D1DE58" font-family="'Helvetica-Bold'" font-size="48">HEALTH RISKS</tspan></text>
	<rect x="69.592" y="92.466" fill="none" width="863.956" height="65.132"/>
	<text transform="matrix(1 0 0 1 69.5923 106.8457)"><tspan x="0" y="0" fill="#FFFFFF" font-family="'Helvetica'" font-size="20">MONITORING OF MERCURY SUGGESTS... Lorem ipsum dolor sit amet, </tspan><tspan x="0" y="24" fill="#FFFFFF" font-family="'Helvetica'" font-size="20">consectetur adipiscing elit. Donec at purus ut tortor facilisis tincidunt. </tspan><tspan x="0" y="48" fill="#FFFFFF" font-family="'Helvetica'" font-size="20">Pellentesque in aliquam elit. </tspan></text>
	<g>
		<polygon fill="#D1D3D4" points="1259.635,666.69 1259.635,814.504 1315.659,814.504 1303.839,795.602 1308.904,795.602 
			1297.433,777.383 1302.831,777.383 1291.698,759.155 1296.756,759.155 1285.279,740.928 1291.36,740.928 1278.871,722.032 
			1284.604,722.032 1272.791,703.81 1279.205,703.81 1267.396,685.586 1273.13,685.586 		"/>
		<polygon fill="#FFFFFF" points="1259.635,666.69 1259.635,814.504 1203.612,814.504 1215.424,795.602 1210.363,795.602 
			1221.838,777.383 1216.433,777.383 1227.573,759.155 1222.513,759.155 1233.987,740.928 1227.913,740.928 1240.4,722.032 
			1234.66,722.032 1246.471,703.81 1240.058,703.81 1251.874,685.586 1246.13,685.586 		"/>
	</g>
	<g>
		<polygon fill="#D1D3D4" points="1298.832,607.669 1298.832,815.892 1377.753,815.892 1361.102,789.265 1368.237,789.265 
			1352.078,763.6 1359.682,763.6 1343.999,737.923 1351.124,737.923 1334.956,712.246 1343.523,712.246 1325.93,685.629 
			1334.007,685.629 1317.365,659.96 1326.4,659.96 1309.766,634.287 1317.841,634.287 		"/>
		<polygon fill="#FFFFFF" points="1298.832,607.669 1298.832,815.892 1219.914,815.892 1236.553,789.265 1229.424,789.265 
			1245.589,763.6 1237.974,763.6 1253.668,737.923 1246.539,737.923 1262.703,712.246 1254.146,712.246 1271.737,685.629 
			1263.651,685.629 1280.288,659.96 1271.254,659.96 1287.899,634.287 1279.808,634.287 		"/>
	</g>
	<g>
		<polygon fill="#D1D3D4" points="1387.651,666.69 1387.651,814.504 1443.677,814.504 1431.855,795.602 1436.922,795.602 
			1425.45,777.383 1430.848,777.383 1419.715,759.155 1424.773,759.155 1413.296,740.928 1419.378,740.928 1406.888,722.032 
			1412.622,722.032 1400.809,703.81 1407.223,703.81 1395.414,685.586 1401.146,685.586 		"/>
		<polygon fill="#FFFFFF" points="1387.651,666.69 1387.651,814.504 1331.629,814.504 1343.441,795.602 1338.381,795.602 
			1349.855,777.383 1344.45,777.383 1355.591,759.155 1350.529,759.155 1362.005,740.928 1355.93,740.928 1368.418,722.032 
			1362.678,722.032 1374.487,703.81 1368.074,703.81 1379.892,685.586 1374.146,685.586 		"/>
	</g>
	<g>
		<polygon fill="#D1D3D4" points="1449.776,685.517 1449.776,833.33 1505.802,833.33 1493.98,814.429 1499.047,814.429 
			1487.575,796.209 1492.974,796.209 1481.84,777.982 1486.898,777.982 1475.421,759.754 1481.503,759.754 1469.013,740.858 
			1474.747,740.858 1462.934,722.637 1469.348,722.637 1457.539,704.412 1463.271,704.412 		"/>
		<polygon fill="#FFFFFF" points="1449.776,685.517 1449.776,833.33 1393.754,833.33 1405.566,814.429 1400.506,814.429 
			1411.98,796.209 1406.575,796.209 1417.716,777.982 1412.654,777.982 1424.13,759.754 1418.056,759.754 1430.543,740.858 
			1424.803,740.858 1436.612,722.637 1430.199,722.637 1442.017,704.412 1436.271,704.412 		"/>
	</g>
	<g>
		<polygon fill="#D1D3D4" points="1444.893,578.208 1444.893,823.347 1537.805,823.347 1518.201,792 1526.604,792 1507.578,761.784 
			1516.53,761.784 1498.066,731.556 1506.456,731.556 1487.421,701.326 1497.507,701.326 1476.794,669.989 1486.303,669.989 
			1466.711,639.771 1477.35,639.771 1457.765,609.545 1467.272,609.545 		"/>
		<polygon fill="#FFFFFF" points="1444.893,578.208 1444.893,823.347 1351.982,823.347 1371.572,792 1363.179,792 1382.209,761.784 
			1373.244,761.784 1391.721,731.556 1383.327,731.556 1402.357,701.326 1392.283,701.326 1412.993,669.989 1403.475,669.989 
			1423.06,639.771 1412.425,639.771 1432.022,609.545 1422.495,609.545 		"/>
	</g>
	<path fill="#FFFFFF" d="M414.761,984c351.436-27.613,619.434-203.331,1184.842-203.331V984H414.761z"/>
	<g>
		<polygon fill="#D1D3D4" points="1539.525,461.485 1539.525,793.881 1665.511,793.881 1638.929,751.376 1650.322,751.376 
			1624.524,710.404 1636.664,710.404 1611.627,669.417 1623.003,669.417 1597.193,628.427 1610.869,628.427 1582.782,585.936 
			1595.677,585.936 1569.111,544.961 1583.536,544.961 1556.98,503.977 1569.872,503.977 		"/>
		<polygon fill="#FFFFFF" points="1539.525,461.485 1539.525,793.881 1413.545,793.881 1440.108,751.376 1428.728,751.376 
			1454.531,710.404 1442.376,710.404 1467.428,669.417 1456.048,669.417 1481.852,628.427 1468.191,628.427 1496.273,585.936 
			1483.365,585.936 1509.923,544.961 1495.501,544.961 1522.075,503.977 1509.156,503.977 		"/>
	</g>
	<g>
		<g>
			<path fill="#FFFFFF" d="M1375.674,356.386h1.963v5.928h7.373v-5.928h1.963v14.346h-1.963v-6.709h-7.373v6.709h-1.963V356.386z"/>
			<path fill="#FFFFFF" d="M1390.254,356.386h10.41v1.758h-8.516v4.355h7.871v1.66h-7.871v4.863h8.662v1.709h-10.557V356.386z"/>
			<path fill="#FFFFFF" d="M1407.595,356.386h2.193l5.207,14.346h-2.129l-1.498-4.297h-5.628l-1.556,4.297h-1.992L1407.595,356.386z
				 M1410.817,364.853l-2.209-6.338l-2.295,6.338H1410.817z"/>
			<path fill="#FFFFFF" d="M1416.748,356.386h1.943v12.637h7.197v1.709h-9.141V356.386z"/>
			<path fill="#FFFFFF" d="M1436.826,356.386v1.709h-4.834v12.637h-1.963v-12.637h-4.834v-1.709H1436.826z"/>
			<path fill="#FFFFFF" d="M1438.662,356.386h1.963v5.928h7.373v-5.928h1.963v14.346h-1.963v-6.709h-7.373v6.709h-1.963V356.386z"/>
			<path fill="#FFFFFF" d="M1458.799,356.386h10.41v1.758h-8.516v4.355h7.871v1.66h-7.871v4.863h8.662v1.709h-10.557V356.386z"/>
			<path fill="#FFFFFF" d="M1472.139,356.386h9.951v1.758h-8.008v4.355h7.041v1.709h-7.041v6.523h-1.943V356.386z"/>
			<path fill="#FFFFFF" d="M1484.355,356.386h9.951v1.758h-8.008v4.355h7.041v1.709h-7.041v6.523h-1.943V356.386z"/>
			<path fill="#FFFFFF" d="M1496.572,356.386h10.41v1.758h-8.516v4.355h7.871v1.66h-7.871v4.863h8.662v1.709h-10.557V356.386z"/>
			<path fill="#FFFFFF" d="M1519.873,357.431c0.991,0.957,1.541,2.044,1.65,3.262h-1.895c-0.211-0.924-0.632-1.657-1.261-2.197
				c-0.63-0.54-1.515-0.81-2.652-0.81c-1.388,0-2.508,0.497-3.361,1.49c-0.854,0.994-1.28,2.517-1.28,4.569
				c0,1.681,0.386,3.045,1.156,4.091c0.771,1.045,1.92,1.568,3.448,1.568c1.407,0,2.479-0.55,3.214-1.65
				c0.39-0.58,0.681-1.341,0.873-2.285h1.895c-0.167,1.51-0.721,2.777-1.66,3.799c-1.126,1.23-2.646,1.846-4.557,1.846
				c-1.647,0-3.031-0.505-4.15-1.515c-1.474-1.335-2.211-3.397-2.211-6.186c0-2.117,0.554-3.854,1.66-5.208
				c1.196-1.472,2.848-2.209,4.951-2.209C1517.489,355.995,1518.882,356.474,1519.873,357.431z"/>
			<path fill="#FFFFFF" d="M1534.6,356.386v1.709h-4.834v12.637h-1.963v-12.637h-4.834v-1.709H1534.6z"/>
			<path fill="#FFFFFF" d="M1537.656,366.103c0.044,0.814,0.229,1.475,0.555,1.982c0.621,0.951,1.716,1.426,3.283,1.426
				c0.702,0,1.342-0.104,1.919-0.312c1.116-0.404,1.675-1.126,1.675-2.168c0-0.781-0.236-1.338-0.71-1.67
				c-0.479-0.326-1.229-0.609-2.251-0.85l-1.883-0.439c-1.229-0.287-2.101-0.602-2.611-0.947c-0.883-0.599-1.324-1.494-1.324-2.685
				c0-1.289,0.434-2.347,1.302-3.174c0.868-0.827,2.097-1.24,3.688-1.24c1.464,0,2.707,0.363,3.729,1.089
				c1.023,0.726,1.535,1.886,1.535,3.481h-1.826c-0.094-0.768-0.293-1.357-0.6-1.768c-0.567-0.748-1.532-1.123-2.893-1.123
				c-1.099,0-1.889,0.241-2.369,0.723c-0.48,0.482-0.721,1.042-0.721,1.68c0,0.703,0.284,1.217,0.852,1.543
				c0.372,0.208,1.214,0.469,2.526,0.781l1.949,0.459c0.94,0.221,1.665,0.524,2.176,0.908c0.884,0.67,1.325,1.644,1.325,2.92
				c0,1.588-0.563,2.725-1.69,3.408s-2.437,1.025-3.929,1.025c-1.739,0-3.102-0.456-4.086-1.367
				c-0.984-0.905-1.467-2.132-1.447-3.682H1537.656z"/>
		</g>
	</g>
	<g>
		<g>
			
				<line fill="none" stroke="#FFFFFF" stroke-width="3" stroke-miterlimit="10" x1="527.968" y1="929.096" x2="548.156" y2="902.002"/>
			<g>
				<polygon fill="#FFFFFF" points="551.908,906.981 553.301,895.096 542.312,899.831 				"/>
			</g>
		</g>
	</g>
	
		<line fill="none" stroke="#FFFFFF" stroke-width="2" stroke-miterlimit="10" x1="1027.78" y1="463.094" x2="1027.78" y2="504.248"/>
	<polyline fill="none" stroke="#FFFFFF" stroke-width="2" stroke-miterlimit="10" points="1206.261,385.068 1188.073,391.553 
		1188.073,431.703 	"/>
	<path fill="none" stroke="#FFFFFF" stroke-width="2" stroke-miterlimit="10" d="M572.183,903.153v-33.227
		c8.576-12.477,17.357-24.802,26.358-36.955c182.565-246.468,451.533-425.077,762.137-491.063l-0.688,43.16"/>
	
		<line fill="none" stroke="#FFFFFF" stroke-width="2" stroke-miterlimit="10" x1="694.673" y1="717.877" x2="694.673" y2="762.113"/>
	
		<line fill="none" stroke="#FFFFFF" stroke-width="2" stroke-miterlimit="10" x1="835.405" y1="588.764" x2="835.405" y2="632.551"/>
	<rect x="1198.339" y="418.372" fill="none" width="280.486" height="14.999"/>
	<text transform="matrix(1 0 0 1 1198.3389 428.438)" fill="#FFFFFF" font-family="'Helvetica'" font-size="14">central nervous system damage</text>
	<g>
		<rect x="1037.48" y="494.165" fill="none" width="280.486" height="51.669"/>
		<text transform="matrix(1 0 0 1 1037.4805 504.2314)"><tspan x="0" y="0" fill="#FFFFFF" font-family="'Helvetica'" font-size="14">cardiovascular harm - heart attacks, strokes, </tspan><tspan x="0" y="16.8" fill="#FFFFFF" font-family="'Helvetica'" font-size="14">heart disease, congestive heart failure</tspan></text>
	</g>
	<rect x="844.168" y="615.031" fill="none" width="308.982" height="14.999"/>
	<text transform="matrix(1 0 0 1 844.168 625.0972)" fill="#FFFFFF" font-family="'Helvetica'" font-size="14">respiratory harm - worsened asthma &amp; COPD</text>
	<rect x="703.925" y="746.932" fill="none" width="280.486" height="14.999"/>
	<text transform="matrix(1 0 0 1 703.9248 756.998)" fill="#FFFFFF" font-family="'Helvetica'" font-size="14">reproductive and developmental damage</text>
	<rect x="586.059" y="887.597" fill="none" width="280.486" height="14.999"/>
	<text transform="matrix(1 0 0 1 586.0586 897.6626)" fill="#FFFFFF" font-family="'Helvetica'" font-size="14">early death</text>
	<g>
		<path fill-rule="evenodd" clip-rule="evenodd" fill="#FFFFFF" d="M973.138,372.499c0.223-8.216,1.215-16.432,4.118-24.118
			c3.536-9.367,4.085-18.762,2.246-28.409c-0.691-3.629-0.317-6.401,3.547-7.962c4.689-1.893,7.292-0.467,7.981,4.673
			c0.19,1.419,0.525,2.948,0.199,4.282c-2.41,9.834,5.305,14.715,10.127,21.002c1.371,1.788,2.529,0.209,3.624-0.463
			c3.676-2.25,5.711-5.749,7.266-9.639c5.303-13.259,16.548-19.346,30.399-16.33c4.591,0.999,9.074,2.472,13.636,3.605
			c4.626,1.15,4.338,4.07,2.963,7.538c-1.438,3.627-3.191,6.213-7.756,3.899c-5.149-2.612-10.518-4.574-16.488-4.172
			c-3.045,0.206-5.791,1.044-7.254,3.816c-1.084,2.052-1.783,4.352,2.095,4.67c9.667,0.792,15.08,6.54,17.449,15.571
			c3.842,14.648,8.285,29.165,7.861,44.6c-0.367,13.406-7.417,19.779-20.892,18.264c-17.6-1.981-33.602-8.688-48.951-17.066
			C976.039,391.2,972.501,382.845,973.138,372.499z"/>
		<path fill-rule="evenodd" clip-rule="evenodd" fill="#D1DD58" d="M1001.402,337c-8.102-7.081-9.816-16.632-4.527-25.806
			c2.005-3.478,1.972-5.711-0.585-8.525c-1.979-2.182-3.821-4.941-0.596-7.406c3.256-2.491,5.535-0.219,7.798,2.197
			c1.353,1.445,1.466,4.945,4.474,3.905c2.789-0.965,1.147-3.997,1.791-6.026c0.736-2.331,1.043-4.813,1.916-7.085
			c0.814-2.123,2.674-3.205,4.979-2.55c2.59,0.734,3.398,2.684,2.98,5.272c-0.492,3.064-3.559,7.435-0.215,8.896
			c4.041,1.764,4.209-4.304,6.715-6.324c1.258-1.015,2.127-2.495,3.295-3.639c2.07-2.026,4.467-2.212,6.619-0.325
			c2.436,2.138,1.408,4.328-0.408,6.389c-1.35,1.535-2.566,3.189-3.895,4.746c-1.998,2.34-3.12,4.617-0.781,7.53
			c0.86,1.071,2.474,3.391,0.041,3.965c-2.333,0.552-4.599,3.638-7.619,0.399c-6.301-6.757-16.894-4.088-19.896,4.817
			C1001.442,323.5,1001.972,329.921,1001.402,337z"/>
		<path fill-rule="evenodd" clip-rule="evenodd" fill="#D1DD58" d="M991.586,402.828c3.538,1.635,7.906,1.664,8.745,4.885
			c1.307,5.024,1.984,10.451,0.786,15.698c-0.428,1.871-2.435,2.702-4.405,2.4c-2.361-0.362-3.382-2.098-3.575-4.333
			C992.625,415.603,992.156,409.724,991.586,402.828z"/>
		<path fill-rule="evenodd" clip-rule="evenodd" fill="#D1DD58" d="M1017.479,427.144c0.598-3.605,1.265-7.201,1.767-10.818
			c0.253-1.816,0.489-3.358,2.89-2.333c2.029,0.868,5.801-0.286,5.64,3.157c-0.196,4.197-0.521,8.576-2.558,12.47
			c-1.061,2.026-2.727,2.955-5.064,2.243C1017.765,431.137,1017.116,429.39,1017.479,427.144z"/>
		<path fill-rule="evenodd" clip-rule="evenodd" fill="#D1DD58" d="M971.88,355.509c0.977,6.905-1.773,10.556-7.755,12.369
			c-2.85,0.865-5.458,1.483-6.856-1.533c-1.368-2.954,0.487-5.08,3.153-6.397C964.069,358.15,967.726,356.359,971.88,355.509z"/>
		<path fill-rule="evenodd" clip-rule="evenodd" fill="#D1DD58" d="M1061.35,336.719c-0.265,0.552-0.458,1.732-1.153,2.289
			c-3.503,2.805-8.118,1.7-12.119,3.163c-2.335,0.854-3.132-3.123-5.053-4.5c-1.397-1.003-0.655-1.748,0.554-2.67
			c5.054-3.854,10.914,0.34,16.179-1.727C1060.507,332.981,1061.097,335.046,1061.35,336.719z"/>
		<path fill-rule="evenodd" clip-rule="evenodd" fill="#F0EFEF" d="M977.757,332.734c-6.43-2.424-12.41-3.763-14.605,5.007
			c-3.492-2.122-4.432-4.745-1.788-7.189c3.959-3.66,9.283-4.878,14.299-6.485c1.685-0.54,2.03,0.878,2.075,2.146
			C977.808,328.224,977.757,330.24,977.757,332.734z"/>
		<path fill-rule="evenodd" clip-rule="evenodd" fill="#D1DD58" d="M975.204,344.076c-3.473-2.232-8.361-1.19-8.856-6.235
			c-0.262-2.671,1.477-4.764,3.845-4.345c2.726,0.484,7.161-0.516,7.306,4.261C977.562,339.901,977.026,342.358,975.204,344.076z"/>
		<path fill-rule="evenodd" clip-rule="evenodd" fill="#D1DD58" d="M1056.241,361.078c-5.447,0.398-4.137-3.338-4.953-5.487
			c-0.797-2.1,0.221-3.011,2.354-3.005c2.973,0.007,5.27,0.878,5.558,4.272C1059.442,359.706,1057.707,360.827,1056.241,361.078z"/>
		<path fill-rule="evenodd" clip-rule="evenodd" fill="#C9C9C9" d="M1034.671,330.862c0.123,1.151-0.126,2.148-1.531,1.873
			c-1.037-0.202-2.783,0.413-2.875-1.291c-0.073-1.365,1.319-1.895,2.529-2.19C1034.11,328.931,1034.611,329.67,1034.671,330.862z"
			/>
	</g>
	<g>
		<path fill-rule="evenodd" clip-rule="evenodd" fill="#D1DE58" d="M802.798,402.736c-0.143,4.01-0.427,8.025-0.361,12.033
			c0.025,1.666-0.126,2.991-1.392,4.137c-0.693,0.627-0.251,1.304,0.311,1.714c0.882,0.646,0.994,1.471,0.972,2.464
			c-0.154,6.914-0.391,13.833-0.354,20.748c0.018,3.692,0.572,7.379,0.799,11.073c0.118,1.915-0.043,3.847,0.074,5.762
			c0.226,3.656,0.686,7.303,0.808,10.961c0.093,2.805-0.185,5.617-0.299,8.424c-0.012,0.263-0.082,0.525-0.07,0.786
			c0.137,2.943-0.646,5.745-1.571,8.467c-1.019,2.998-2.623,5.757-5.747,6.994c-1.781,0.704-3.746,0.995-5.653,1.323
			c-2.17,0.373-4.366,0.582-6.552,0.858c-0.26,0.031-0.523,0.04-0.786,0.066c-2.786,0.288-5.581,0.521-8.357,0.882
			c-2.555,0.33-5.142,0.609-7.623,1.255c-3.8,0.987-7.547,2.197-11.271,3.45c-2.839,0.955-5.592,2.162-8.408,3.189
			c-2.14,0.782-4.318,1.459-6.48,2.182c-2.305,0.772-4.592,1.602-6.916,2.306c-3.691,1.121-6.699-1.134-6.634-5.021
			c0.088-5.219,0.308-10.435,0.417-15.651c0.02-0.961-0.207-1.926-0.327-2.891c-0.335-2.706-0.699-5.409-1.002-8.118
			c-0.292-2.611,0.361-5.114,1.071-7.576c0.737-2.561,1.632-5.079,2.506-7.599c1.179-3.395,2.473-6.749,3.586-10.165
			c0.764-2.352,1.223-4.8,1.961-7.16c0.879-2.803,1.831-5.59,2.898-8.325c1.029-2.636,2.144-5.245,3.406-7.777
			c1.254-2.518,2.703-4.946,4.135-7.374c2.328-3.952,5.752-6.959,8.877-10.233c1.387-1.452,2.547-3.119,3.828-4.674
			c1.508-1.833,3.018-3.664,4.558-5.467c2.765-3.24,5.499-6.51,8.354-9.669c2.087-2.314,4.285-4.536,6.544-6.684
			c2.121-2.018,4.595-3.553,7.287-4.73c4.307-1.881,9.544-0.901,12.474,3.18c2.192,3.055,3.521,6.473,4.391,10.046
			c0.534,2.194,0.523,4.524,0.757,6.792C802.936,402.721,802.867,402.729,802.798,402.736"/>
		<path fill-rule="evenodd" clip-rule="evenodd" fill="#D1DE58" d="M821.495,402.736c0.143,4.01,0.427,8.025,0.361,12.033
			c-0.026,1.666,0.127,2.991,1.393,4.137c0.692,0.627,0.25,1.304-0.313,1.714c-0.881,0.646-0.994,1.471-0.971,2.464
			c0.154,6.914,0.391,13.833,0.354,20.748c-0.018,3.692-0.573,7.379-0.798,11.073c-0.117,1.915,0.043,3.847-0.074,5.762
			c-0.227,3.656-0.687,7.303-0.809,10.961c-0.092,2.805,0.185,5.617,0.3,8.424c0.012,0.263,0.081,0.525,0.069,0.786
			c-0.137,2.943,0.646,5.745,1.572,8.467c1.018,2.998,2.622,5.757,5.745,6.994c1.783,0.704,3.746,0.995,5.655,1.323
			c2.168,0.373,4.365,0.582,6.551,0.858c0.26,0.031,0.523,0.04,0.785,0.066c2.787,0.288,5.582,0.521,8.359,0.882
			c2.553,0.33,5.139,0.609,7.622,1.255c3.8,0.987,7.547,2.197,11.271,3.45c2.838,0.955,5.592,2.162,8.406,3.189
			c2.143,0.782,4.32,1.459,6.483,2.182c2.304,0.772,4.591,1.602,6.915,2.306c3.691,1.121,6.699-1.134,6.633-5.021
			c-0.087-5.219-0.307-10.435-0.415-15.651c-0.021-0.961,0.207-1.926,0.326-2.891c0.335-2.706,0.699-5.409,1.001-8.118
			c0.293-2.611-0.36-5.114-1.069-7.576c-0.738-2.561-1.633-5.079-2.507-7.599c-1.178-3.395-2.474-6.749-3.585-10.165
			c-0.765-2.352-1.224-4.8-1.961-7.16c-0.88-2.803-1.833-5.59-2.9-8.325c-1.027-2.636-2.144-5.245-3.404-7.777
			c-1.257-2.518-2.704-4.946-4.136-7.374c-2.329-3.952-5.751-6.959-8.877-10.233c-1.387-1.452-2.547-3.119-3.828-4.674
			c-1.509-1.833-3.018-3.664-4.558-5.467c-2.766-3.24-5.5-6.51-8.353-9.669c-2.088-2.314-4.286-4.536-6.545-6.684
			c-2.123-2.018-4.595-3.553-7.287-4.73c-4.306-1.881-9.543-0.901-12.475,3.18c-2.192,3.055-3.519,6.473-4.39,10.046
			c-0.534,2.194-0.522,4.524-0.757,6.792C821.357,402.721,821.426,402.729,821.495,402.736"/>
		<path fill-rule="evenodd" clip-rule="evenodd" fill="#E5E5E5" d="M871.481,492c0.035-2.24-0.488-4.307-1.889-6.098
			c-0.169-0.218-0.383-0.4-0.594-0.583c-0.853-0.732-1.713-1.457-2.502-2.127c-1.577,1.812-2.594,3.801-0.503,6.076
			c-0.841,0.134-0.841,0.134-2.149-3.012c-1,0.328-2,0.657-3.001,0.987c-0.06-0.11-0.12-0.22-0.18-0.33
			c0.143-0.158,0.261-0.403,0.434-0.452c2.729-0.805,3.893-2.774,4.351-5.452c0.599-3.509-0.312-6.577-2.339-9.388
			c-1.039-1.44-2.163-2.82-3.239-4.236c-0.377-0.497-0.721-1.021-1.105-1.567c-0.178,1.608-0.344,3.104-0.508,4.6
			c-0.161,0.017-0.32,0.037-0.482,0.055c-0.122-0.28-0.324-0.55-0.355-0.839c-0.155-1.498-0.33-3.001-0.378-4.505
			c-0.029-0.929-0.603-1.225-1.297-1.42c-1.989-0.558-3.997-1.041-5.982-1.614c-2.72-0.785-5.372-1.737-7.671-3.46
			c-0.122-0.09-0.295-0.111-0.735-0.266c0.151,1.468,0.122,2.813,0.454,4.065c0.607,2.299,2.461,3.477,4.518,4.327
			c0.895,0.371,1.87,0.549,2.787,0.874c0.26,0.092,0.441,0.4,0.659,0.609c-0.274,0.163-0.548,0.468-0.824,0.47
			c-1.909,0.012-3.663-0.606-5.626-1.582c0.475,0.882,0.788,1.59,1.211,2.225c0.95,1.42,2.035,2.757,2.91,4.222
			c0.711,1.189,1.781,1.627,2.992,1.775c1.755,0.217,3.533,0.234,5.289,0.439c1.359,0.159,2.254-0.468,3.021-1.452
			c0.119-0.151,0.235-0.327,0.395-0.425c0.174-0.107,0.396-0.138,0.596-0.201c0.007,0.221,0.104,0.505,0.004,0.653
			c-0.497,0.726-1.029,1.432-1.588,2.11c-0.292,0.355-0.336,0.49-0.061,0.997c0.749,1.385,1.261,2.9,1.831,4.38
			c0.098,0.253,0.016,0.573,0.016,1.069c-0.336-0.2-0.702-0.297-0.728-0.454c-0.332-1.808-1.411-3.221-2.426-4.659
			c-0.166-0.235-0.531-0.434-0.818-0.454c-2.086-0.151-4.172-0.254-6.261-0.361c-0.071-0.004-0.15,0.107-0.05,0.03
			c0.318,1.621,0.535,3.152,0.94,4.633c0.257,0.932,0.724,1.836,1.237,2.664c0.576,0.927,1.315,1.754,2.153,2.844
			c-0.424-0.02-0.846,0.092-1.013-0.065c-1.041-0.979-2.025-2.014-3.023-3.036c-0.16-0.163-0.296-0.349-0.422-0.499
			c-0.542,0.637-0.973,1.248-1.511,1.745c-0.503,0.462-1.121,0.8-1.688,1.193c-0.112-0.115-0.229-0.229-0.342-0.34
			c0.155-0.238,0.257-0.547,0.472-0.699c1.183-0.833,2.114-1.838,2.186-3.362c0.035-0.744,0.018-1.524-0.167-2.238
			c-0.426-1.646-1.258-3.107-2.287-4.471c-1.708-2.271-3.414-4.544-5.029-6.878c-0.727-1.048-1.232-2.251-1.871-3.445
			c-0.268,0.723-0.448,1.487-0.824,2.137c-0.523,0.902-1.053,1.893-1.838,2.522c-0.891,0.716-1.014,1.52-0.91,2.459
			c0.143,1.266,0.364,2.521,0.566,3.78c0.289,1.795,1.699,2.465,3.17,2.894c0.938,0.276,1.986,0.151,2.981,0.256
			c0.238,0.024,0.456,0.245,0.685,0.378c-0.199,0.191-0.374,0.515-0.6,0.557c-1.849,0.333-3.676,0.347-5.452-0.43
			c-0.185-0.08-0.63,0.2-0.833,0.42c-0.914,0.995-1.758,2.057-2.693,3.031c-0.234,0.244-0.713,0.26-1.079,0.378
			c-0.051-0.08-0.102-0.16-0.153-0.243c0.132-0.191,0.223-0.446,0.401-0.568c1.463-0.987,2.341-2.377,2.545-4.092
			c0.075-0.637-0.392-1.319-0.517-2.001c-0.295-1.595-0.533-3.2-0.799-4.8c-0.02-0.117-0.087-0.228-0.123-0.322
			c-0.751,0.377-1.443,0.798-2.187,1.078c-0.611,0.23-0.869,0.581-0.811,1.206c0.158,1.714-0.576,3.166-1.379,4.59
			c-0.115,0.205-0.386,0.321-0.585,0.478c-0.072-0.042-0.143-0.085-0.216-0.13c0.1-0.617,0.216-1.233,0.294-1.854
			c0.121-0.949,0.237-1.903,0.312-2.857c0.037-0.492-0.072-0.742-0.739-0.567c-0.86,0.226-1.795,0.143-2.677,0.314
			c-2.18,0.421-2.711,2.21-3.23,4.006c-0.114,0.396-0.383,0.745-0.725,1.044c-0.258-2.398,0.952-4.191,2.373-5.897
			c-1.381-0.603-2.977-2.744-2.92-4.005c0.278,0.185,0.573,0.272,0.676,0.464c1.092,2.028,2.844,2.324,4.905,1.989
			c2.369-0.386,4.364-1.559,6.351-2.869c-2.854,0.335-5.473-0.358-7.963-1.631c-0.135-0.068-0.115-0.446-0.203-0.847
			c1.082,0.193,2.039,0.273,2.938,0.544c1.852,0.56,3.709,0.742,5.497-0.028c0.63-0.271,1.258-0.943,1.527-1.582
			c0.908-2.148,1.542-4.423,1.579-6.755c0.025-1.544-0.365-3.103-0.655-4.637c-0.186-0.983-0.524-1.933-0.813-2.96
			c-0.619,1.768-1.212,3.463-1.807,5.155c-0.08-0.008-0.164-0.02-0.247-0.03c-0.074-0.212-0.149-0.426-0.289-0.825
			c-0.065,2.091-0.746,3.688-2.264,4.813c-0.124-0.051-0.249-0.1-0.372-0.15c0.119-0.572,0.173-1.169,0.37-1.712
			c0.439-1.209,1.095-2.357,1.4-3.595c0.511-2.065,1.026-4.171,1.151-6.281c0.138-2.306-0.559-4.558-1.317-6.746
			c-0.173-0.498-0.358-0.992-0.673-1.484c-1.288,4.395-2.537,8.768-2.823,13.347c-0.413-0.054-1.188-1.098-1.184-1.71
			c0.003-1.018,0.001-2.034,0.001-3.05v-2.24c-0.998,1.113-2.485,1.51-3.957,1.89c-0.322,0.08-0.745-0.227-1.123-0.356
			c0.24-0.233,0.447-0.524,0.729-0.692c0.946-0.566,2.188-0.875,2.824-1.676c1.222-1.531,2.03-3.344,2.318-5.359
			c0.389-2.703-1.012-4.655-2.559-6.573c-0.818-1.018-1.606-2.061-2.461-3.045c-0.876-1.005-1.818-1.952-2.727-2.927
			c-0.705-0.758-1.363-1.564-2.108-2.278c-1.55-1.487-3.145-2.925-4.716-4.388c-0.545-0.506-1.078-1.024-1.673-1.589
			c-1.55,1.402-3.076,2.778-4.592,4.162c-0.518,0.474-1.019,0.967-1.507,1.47c-1.344,1.392-2.732,2.746-4.002,4.203
			c-1.387,1.588-2.672,3.265-3.983,4.916c-0.543,0.685-1.083,1.376-1.551,2.111c-1.196,1.875-0.9,3.895-0.296,5.826
			c0.78,2.489,2.239,4.475,4.857,5.361c0.225,0.075,0.396,0.303,0.595,0.456c-0.047,0.114-0.093,0.228-0.139,0.341
			c-0.86-0.21-1.75-0.342-2.57-0.654c-0.814-0.312-1.558-0.805-2.447-1.276c0,0.531,0.013,1.001-0.003,1.471
			c-0.06,1.779-0.144,3.556-0.186,5.337c-0.016,0.676-0.315,0.844-0.995,0.661c0.265-4.848-1.25-9.357-2.607-14.059
			c-0.164,0.261-0.281,0.38-0.317,0.521c-0.511,1.963-1.212,3.903-1.452,5.899c-0.216,1.802-0.178,3.718,0.202,5.487
			c0.518,2.405,1.472,4.718,2.229,7.071c0.112,0.354,0.168,0.725,0.248,1.091c-0.09,0.083-0.182,0.169-0.271,0.252
			c-0.319-0.246-0.742-0.428-0.944-0.749c-1.39-2.196-2.634-4.472-3.399-6.975c-0.112-0.363-0.139-0.751-0.223-1.214
			c-0.169,0.119-0.408,0.197-0.428,0.317c-0.428,2.316-1.007,4.624-1.185,6.963c-0.157,2.073,0.617,4.064,1.194,6.068
			c0.748,2.599,2.711,3.133,5.371,2.712c1.346-0.214,2.675-0.537,4.019-0.768c0.28-0.047,0.593,0.096,0.913,0.154
			c-0.465,1.153-0.465,1.153-8.284,2.295c2.142,1.234,4.095,2.414,6.442,2.836c1.367,0.247,2.593,0.149,3.74-0.617
			c0.311-0.207,0.549-0.521,0.823-0.784c0.235-0.226,0.475-0.445,0.792-0.746c0.401,0.934-0.2,1.355-0.584,1.781
			c-0.575,0.634-1.269,1.16-1.857,1.784c-0.089,0.096,0.052,0.545,0.21,0.711c1.271,1.333,1.736,3.034,2.212,4.73
			c0.04,0.145-0.01,0.31-0.019,0.51c-0.958,0.057-0.747-0.732-0.944-1.176c-0.354-0.801-0.611-1.651-1.023-2.421
			c-0.462-0.868-1.376-1.208-2.26-1.403c-1.056-0.234-2.15-0.294-3.516-0.465c0.2,1.868,0.393,3.652,0.582,5.414
			c-1.027-0.127-2.125-2.909-2.214-5.804c-0.907-0.449-1.822-0.903-2.774-1.376c-0.169,1.088-0.331,2.244-0.536,3.395
			c-0.111,0.623-0.19,1.285-0.465,1.838c-1.092,2.192-0.001,3.791,1.344,5.338c0.275,0.318,0.617,0.578,0.928,0.864
			c-0.019,0.097-0.039,0.194-0.059,0.292c-0.283,0-0.66,0.12-0.838-0.019c-1.16-0.903-2.391-1.751-2.9-3.258
			c-0.055-0.162-0.589-0.325-0.805-0.24c-1.808,0.703-3.67,0.52-5.525,0.39c-0.165-0.012-0.307-0.322-0.459-0.496
			c0.242-0.147,0.537-0.471,0.722-0.417c1.784,0.523,3.229-0.345,4.708-1.077c1.42-0.703,1.465-2.175,1.753-3.432
			c0.241-1.057,0.208-2.182,0.212-3.278c0.002-0.383-0.135-0.886-0.397-1.127c-1.458-1.338-2.494-2.914-3.023-4.825
			c-0.037-0.132-0.152-0.245-0.289-0.455c-0.991,3.146-3.193,5.38-5.023,7.866c-1.363,1.855-2.656,3.796-3.684,5.845
			c-1.084,2.172-1.033,4.399,0.91,6.223c-0.704,0.853-1.285,0.495-2.238-1.473c-0.469,0.645-0.838,1.243-1.298,1.759
			c-0.511,0.573-1.066,1.12-1.678,1.577c-0.294,0.219-0.763,0.21-1.234,0.322c0.935-1.502,1.825-2.747,2.509-4.098
			c0.43-0.852,0.549-1.857,0.801-2.796c0.266-0.978,0.523-1.957,0.835-3.126c-0.289,0.029-0.632,0.086-0.976,0.1
			c-1.746,0.073-3.489,0.171-5.234,0.182c-0.63,0.003-0.994,0.16-1.272,0.753c-0.678,1.45-1.42,2.867-2.158,4.286
			c-0.111,0.212-0.349,0.357-0.67,0.447c0.222-2.124,0.973-4.029,1.977-5.814c-0.609-0.872-1.24-1.751-1.832-2.653
			c-0.096-0.149-0.02-0.414-0.022-0.625c0.18,0.075,0.43,0.099,0.53,0.232c1.051,1.427,2.41,1.946,4.201,1.871
			c1.97-0.083,3.907-0.208,5.784-0.824c0.431-0.141,0.938-0.363,1.178-0.709c1.535-2.235,3.009-4.517,4.496-6.786
			c0.025-0.039-0.018-0.122-0.04-0.251c-1.953,0.848-3.904,1.69-6.115,1.461c-0.29-0.779,0.24-0.945,0.771-1.139
			c1.408-0.517,2.885-0.908,4.196-1.607c2.255-1.197,3.61-3.502,3.167-6.454c-0.037-0.255-0.004-0.518-0.004-0.893
			c-0.277,0.012-0.583-0.069-0.731,0.046c-1.855,1.494-4.021,2.36-6.26,3.034c-2.552,0.77-5.136,1.429-7.693,2.176
			c-0.279,0.082-0.654,0.405-0.691,0.659c-0.207,1.464-0.333,2.94-0.465,4.41c-0.037,0.414-0.006,0.836-0.006,1.308h-1.02
			c-0.086-1.413-0.174-2.869-0.269-4.475c-0.72,0.94-1.41,1.792-2.037,2.685c-1.261,1.794-2.569,3.562-3.707,5.432
			c-1.645,2.703-1.386,5.603-0.704,8.554c0.488,2.111,1.922,3.149,3.752,3.898c0.27,0.11,0.494,0.327,0.74,0.496
			c-0.057,0.132-0.115,0.262-0.174,0.395c-0.791-0.245-1.607-0.427-2.364-0.752c-0.556-0.238-0.71-0.127-0.88,0.423
			c-0.232,0.763-0.562,1.5-0.922,2.214c-0.1,0.201-0.44,0.281-0.726,0.448c-0.023-0.189-0.778-6.473-0.765-6.355
			c-2.977,1.975-5.049,4.568-4.859,8.525c-0.244,0.026-0.514,0.055-0.905,0.096c0.023-2.115,0.44-4.069,1.372-5.94
			c-1.508-0.529-3.322,0.067-4.539-1.179c0.029-0.111,0.059-0.227,0.088-0.342c0.307,0.037,0.62,0.044,0.92,0.111
			c3.525,0.777,5.355,0.267,6.757-2.706c0.218-0.464,0.344-1.036,0.312-1.544c-0.132-2.073,0.085-4.092,0.756-6.242
			c-0.539,0.14-0.996,0.277-1.462,0.377c-1.334,0.282-2.661,0.622-4.009,0.799c-0.965,0.124-1.961-0.01-2.938,0.044
			c-0.314,0.016-0.703,0.183-0.903,0.415c-1.715,1.974-2.845,4.221-3.086,6.95c-0.219,0.013-0.466,0.028-0.71,0.041v-1.367
			c0.388-1.05,0.746-2.111,1.174-3.145c0.374-0.91,0.748-1.836,1.273-2.658c0.321-0.503,0.219-0.708-0.076-1.149
			c-0.722-1.081-1.327-2.238-1.955-3.379c-0.078-0.142-0.01-0.366,0.22-0.726c0.249,0.243,0.523,0.467,0.741,0.73
			c0.609,0.744,1.285,1.453,1.773,2.271c0.67,1.126,1.677,1.146,2.724,1.003c1.482-0.201,2.963-0.458,4.426-0.774
			c1.923-0.415,3.57-1.258,4.647-3.043c0.332-0.552,1.004-0.899,1.576-1.384c-1.537-0.274-2.838-0.496-4.127-0.771
			c-0.078-0.016-0.063-0.471-0.069-0.526c1.614-0.22,3.209-0.268,4.7-0.688c1.685-0.477,2.157-2.25,3.146-3.553
			c-1.226-0.709-2.394-1.455-3.626-2.073c-1.256-0.633-2.514-0.143-3.707,0.294c-0.889,0.326-1.719,0.821-2.578,1.234
			c-1.391,0.67-1.625,2.087-2.005,3.33c-0.391,1.272-0.503,2.627-0.739,3.955c-0.815-0.004-1.232-0.466-0.801-1.117
			c0.372-0.56,0.193-0.973,0.174-1.513c-0.035-0.908,0.115-1.856,0.375-2.731c0.209-0.705-0.021-0.768-0.592-0.785
			c-1.521-0.05-3.044-0.106-4.562-0.214c-0.774-0.054-0.509-0.638-0.511-0.963c1.683,0,3.303,0.093,4.906-0.04
			c0.782-0.064,1.625-0.403,2.269-0.862c1.608-1.144,3.344-1.963,5.279-2.537c-0.011-0.111,0.034-0.314-0.045-0.405
			c-0.817-0.944-1.596-1.935-2.503-2.788c-1.706-1.601-3.758-1.869-5.977-1.338c-0.242,0.059-0.537-0.104-0.81-0.164
			c0.178-0.217,0.316-0.565,0.539-0.635c1.556-0.489,3.147-0.567,4.756-0.288c0.148,0.025,0.298,0.034,0.339,0.039v-8.522h0.984
			c0,1.37-0.057,2.707,0.016,4.037c0.068,1.213,0.232,2.425,0.43,3.626c0.234,1.429,1.306,2.31,2.336,3.14
			c1.637,1.321,3.268,2.662,5.295,3.391c1.887,0.678,3.785,0.881,5.735,0.356c0.889-0.237,1.803-0.419,2.656-0.749
			c1.802-0.697,3.571-1.479,5.586-2.321c-2.645-0.461-5.073-0.933-7.218-2.21c0.02-0.102,0.037-0.202,0.056-0.305
			c0.919,0,1.896-0.204,2.743,0.038c2.158,0.621,4.33,0.705,6.483,0.289c1.802-0.35,3.122-1.57,3.845-3.241
			c0.584-1.348,0.92-2.803,1.353-4.215c0.031-0.103-0.05-0.238-0.056-0.264c-0.458-0.035-0.849-0.004-1.203-0.099
			c-1.321-0.357-2.551-0.393-3.605,0.685c-0.21,0.215-0.572,0.275-1.097,0.516c0.171-0.8,0.282-1.317,0.428-1.987
			c-1.006,0.233-2.008,0.441-2.994,0.696c-2.155,0.555-4.329,1.051-6.444,1.729c-1.266,0.407-2.457,1.07-3.631,1.713
			c-0.286,0.156-0.518,0.682-0.52,1.037c-0.01,1.127,0.102,2.253,0.161,3.381c0.014,0.251,0.002,0.509,0.002,0.772
			c-0.723,0.245-1.105,0.044-1.166-0.679c-0.107-1.303-0.169-2.609-0.345-3.902c-0.038-0.279-0.445-0.553-0.74-0.741
			c-0.332-0.21-0.728-0.319-1.096-0.472c0.002-0.102,0.003-0.201,0.005-0.302c0.646-0.15,1.299-0.281,1.941-0.458
			c0.729-0.201,1.467-0.397,2.17-0.68c2.385-0.95,4.754-1.938,7.227-2.951c-1.289-1.354-2.093-3.511-4.33-3.938
			c-2.16-0.413-4.142,0.477-6.053,1.522c-0.551-0.458-0.451-0.818,0.178-1.031c1.74-0.588,3.479-1.193,5.247-1.685
			c0.571-0.157,0.812-0.282,0.688-0.891c-0.24-1.186-0.451-2.378-0.653-3.572c-0.085-0.499-0.119-1.007-0.177-1.512
			c0.098-0.061,0.194-0.122,0.292-0.185c0.177,0.235,0.441,0.442,0.515,0.705c0.497,1.702,0.881,3.439,1.461,5.11
			c0.206,0.589,0.805,1.086,1.312,1.523c1.012,0.871,2.047,1.731,3.148,2.485c1.325,0.907,2.704,0.152,4.05-0.073
			c0.457-0.077,0.894-0.269,1.192-0.363c-1.431-1.828-2.903-3.679-4.324-5.57c-0.142-0.189,0.029-0.613,0.057-0.928
			c0.237,0.123,0.526,0.198,0.706,0.382c1.23,1.264,2.33,2.686,3.688,3.791c1.137,0.931,2.556,1.547,4.154,1.221
			c0.522-0.104,0.843-0.27,1.028-0.917c0.654-2.271,1.469-4.495,2.18-6.75c0.071-0.222-0.063-0.682-0.243-0.785
			c-2.036-1.181-4.101-2.175-6.554-2.35c-2.55-0.181-4.922,0.357-7.33,0.982c-0.412,0.105-0.933-0.2-1.398-0.475
			c2.031-1.414,4.322-1.903,6.657-2.536c-1.153-0.22-2.302-0.478-3.464-0.651c-4.121-0.616-7.798,0.753-11.354,2.616
			c-0.695,0.365-1.402,0.716-2.067,1.133c-0.843,0.533-1.462,1.29-1.466,2.317c-0.007,1.484,0.123,2.97,0.164,4.454
			c0.01,0.337-0.11,0.678-0.352,1.014c-1.076-2.021-1.266-4.18-1.193-6.677c-1.111,0.716-2.09,1.265-2.973,1.94
			c-0.894,0.682-1.693,1.486-2.533,2.238c-0.098-0.064-0.195-0.129-0.292-0.193c0.188-0.393,0.295-0.863,0.577-1.167
			c2.307-2.483,5.019-4.422,8.036-5.958c1.464-0.743,2.892-1.562,4.418-2.389c-0.923-0.746-1.468-2.109-2.993-2.06
			c-1.209,0.039-2.415,0.189-3.621,0.292c-0.022-0.154-0.042-0.31-0.062-0.465c1.348-0.396,2.695-0.791,4.105-1.202
			c-0.474-1.39-0.98-2.868-1.482-4.346c0.096-0.066,0.191-0.132,0.286-0.197c0.205,0.131,0.507,0.213,0.601,0.398
			c0.554,1.087,1.039,2.208,1.585,3.299c1.022,2.045,3.193,3.125,5.421,2.794c1.613-0.239,3.239-0.392,4.86-0.591
			c0.209-0.026,0.413-0.104,0.488-0.123c-0.204-1.829-0.493-3.557-0.56-5.29c-0.056-1.472-0.906-2.413-2.027-2.842
			c-1.671-0.644-3.489-0.909-5.252-1.309c-0.234-0.053-0.511,0.097-0.758,0.065c-0.262-0.033-0.513-0.166-0.769-0.257
			c0.234-0.199,0.451-0.549,0.703-0.575c1.343-0.146,2.694-0.21,3.886-0.29c0.15-1.997,0.297-3.98,0.466-5.961
			c0.002-0.014,0.303-0.002,0.542-0.002c0.017,0.287,0.028,0.571,0.05,0.852c0.129,1.732,0.213,3.471,0.433,5.189
			c0.044,0.329,0.593,0.64,0.964,0.869c0.723,0.444,1.484,0.828,2.176,1.208c0.231-2.44,0.558-5.007,0.691-7.587
			c0.128-2.516,0.549-4.961,0.863-7.432c0.16,0.022,0.32,0.045,0.481,0.067v5.605c0.801-0.753,1.488-1.399,2.178-2.048
			c0.121,0.087,0.242,0.174,0.362,0.259c-0.193,0.464-0.28,1.028-0.6,1.372c-2.067,2.226-2.363,4.881-1.976,7.842
			c0.52-0.618,0.955-1.217,1.482-1.718c0.198-0.189,0.612-0.147,0.928-0.21c-0.014,0.255,0.054,0.553-0.056,0.761
			c-0.966,1.853-2.461,3.508-2.667,5.649c-0.153,1.595,0.093,3.241,0.296,4.85c0.076,0.596,2.676,1.502,3.26,1.218
			c0.18-0.087,0.309-0.382,0.365-0.602c0.467-1.882,0.867-3.781,1.377-5.65c0.749-2.762,1.477-5.533,2.402-8.232
			c0.49-1.43,0.262-2.801,0.253-4.207c-0.001-0.371-0.095-0.743-0.151-1.135c0.832,0.077,0.909,0.253,1.02,1.701
			c0.057,0.758,0.185,1.512,0.301,2.441c0.684-0.802,1.291-1.508,1.893-2.22c0.673-0.798,1.269-1.679,2.033-2.377
			c0.785-0.717,0.771-1.506,0.539-2.373c-0.202-0.766-0.375-1.57-0.759-2.245c-0.291-0.515-0.835-0.951-1.364-1.248
			c-0.734-0.415-1.57-0.648-2.342-1.005c-0.229-0.104-0.387-0.358-0.577-0.544c0.068-0.126,0.136-0.251,0.204-0.377
			c1.244,0.407,2.488,0.812,3.731,1.216c0.168-2.076,0.741-3.338,1.651-3.335c-0.168,0.69-0.321,1.357-0.497,2.019
			c-0.267,1.009-0.191,1.943,0.216,2.94c0.453,1.106,0.668,2.312,1.014,3.583c1.281-0.388,2.242-1.31,2.93-2.461
			c0.41-0.687,0.531-1.542,0.801-2.317c0.07-0.2,0.213-0.373,0.322-0.559c0.119,0.038,0.237,0.076,0.354,0.115
			c-0.14,1.191-0.278,2.382-0.421,3.607c0.851,0.262,2.022,0.158,2.892,0.896c-0.017,0.105-0.03,0.209-0.044,0.314
			c-0.463,0-0.979,0.135-1.382-0.023c-1.642-0.649-2.938,0.205-4.093,1.049c-2.407,1.76-4.572,3.789-6.148,6.387
			c-1.525,2.516-2.502,5.213-3.02,8.092c-0.06,0.335-0.091,0.676-0.137,1.029c1.557-1.168,2.991-2.268,4.453-3.328
			c0.691-0.5,1.518-0.837,2.143-1.404c1.045-0.953,1.989-2.023,2.954-3.062c0.519-0.561,0.957-1.199,1.511-1.719
			c0.2-0.189,0.633-0.131,0.957-0.186c0.053,0.071,0.103,0.143,0.156,0.214c-0.945,1.51-1.89,3.02-2.938,4.691
			c1.595,0,3.072-0.004,4.552,0c0.702,0.002,1.222,0.263,1.489,1.158c-1.09,0-2.062-0.041-3.03,0.012
			c-1.186,0.061-2.458-0.036-3.53,0.366c-1.619,0.611-3.139,1.53-4.623,2.443c-1.001,0.615-1.934,1.378-2.784,2.193
			c-1.227,1.171-1.952,2.65-2.118,4.35c-0.021,0.225,0.348,0.604,0.617,0.722c1.652,0.718,3.33,1.375,4.994,2.059
			c0.143,0.061,0.27,0.168,0.398,0.261c0.933,0.672,1.604,0.576,2.477-0.104c0.748-0.586,1.183-1.417,1.857-2.043
			c0.715-0.663,1.435-1.317,2.163-1.971c1.632-1.463,3.308-2.883,4.889-4.401c1.057-1.011,1.907-2.244,2.995-3.216
			c0.757-0.68,1.019-1.666,1.692-2.305c1.597-1.512,1.45-3.532,1.701-5.39c0.729-5.407,0.591-10.86,0.624-16.302
			c0.037-6.113,0.094-12.224,0.203-18.333c0.052-2.812,0.246-5.619,0.388-8.427c0.01-0.181,0.12-0.358,0.186-0.536h6.646
			c0.064,0.309,0.181,0.616,0.188,0.927c0.078,3.12,0.152,6.24,0.2,9.361c0.077,4.973,0.124,9.944,0.204,14.917
			c0.039,2.364,0.118,4.729,0.194,7.096c0.049,1.56,0.192,3.121,0.177,4.684c-0.027,3.099,0.119,6.17,0.777,9.218
			c0.117,0.536,0.045,1.264,0.435,1.553c0.977,0.732,0.798,2.091,1.882,2.835c1.082,0.741,1.746,2.058,2.726,2.98
			c2.403,2.258,4.899,4.417,7.318,6.659c0.596,0.55,0.989,1.312,1.565,1.889c0.593,0.59,1.266,1.117,1.971,1.564
			c0.172,0.108,0.617-0.203,0.93-0.336c1.883-0.808,3.77-1.614,5.643-2.442c0.383-0.168,0.725-0.431,1.391-0.701
			c-0.516-1.225-0.855-2.571-1.6-3.634c-0.681-0.972-1.754-1.699-2.738-2.421c-1.101-0.807-2.299-1.478-3.445-2.221
			c-1.292-0.837-2.688-1.306-4.237-1.298c-1.369,0.006-2.738,0-4.099,0c-0.266-0.752,0.164-0.933,0.688-0.967
			c1.303-0.088,2.61-0.145,3.915-0.204c0.343-0.016,0.688-0.001,1.111-0.001c-1.144-1.642-2.342-3.107-2.99-4.878
			c0.11-0.107,0.221-0.216,0.33-0.326c0.322,0.25,0.713,0.442,0.945,0.755c0.76,1.021,1.359,2.174,2.209,3.104
			c0.707,0.77,1.662,1.323,2.537,1.933c2.053,1.434,4.124,2.844,6.161,4.244c-0.11-0.759-0.148-1.671-0.385-2.526
			c-1.151-4.195-3.026-8.004-6.356-10.913c-1.354-1.185-2.826-2.285-4.396-3.148c-0.694-0.383-1.763-0.098-2.661-0.09
			c-0.307,0.003-0.611,0.086-0.964-0.014c0.768-1.021,2.111-0.606,2.88-1.065c-0.17-1.271-0.325-2.446-0.48-3.62
			c0.111-0.03,0.223-0.06,0.334-0.091c0.386,1.012,0.601,2.143,1.204,3.005c0.661,0.94,1.681,1.631,2.769,2.638
			c0.591-3.156,2.649-5.776,0.69-8.866c0.752,0.066,0.785,0.055,1.332,1.47c0.233,0.609,0.295,1.285,0.42,1.863
			c1.357-0.417,2.664-0.82,3.969-1.223c0.057,0.12,0.109,0.236,0.164,0.355c-0.174,0.129-0.33,0.298-0.524,0.379
			c-0.757,0.32-1.515,0.636-2.288,0.91c-1.529,0.541-2.042,1.79-2.307,3.225c-0.035,0.188-0.072,0.375-0.1,0.564
			c-0.135,0.876-0.226,1.622,0.573,2.409c1.396,1.372,2.571,2.968,3.897,4.543c0.105-0.867,0.208-1.735,0.322-2.601
			c0.055-0.41,0.1-0.828,0.223-1.22c0.049-0.147,0.307-0.229,0.471-0.342c0.076,0.16,0.238,0.331,0.217,0.477
			c-0.334,2.332,0.021,4.514,0.777,6.779c1.216,3.64,2.021,7.416,2.987,11.139c0.064,0.245-0.059,0.55,0.036,0.771
			c0.119,0.268,0.34,0.626,0.577,0.682c1.823,0.421,3.564-0.979,3.485-2.862c-0.057-1.358,0.392-2.744-0.177-4.072
			c-0.398-0.932-0.773-1.882-1.265-2.762c-0.621-1.112-1.369-2.152-2.018-3.249c-0.133-0.229-0.062-0.578-0.086-0.872
			c0.101-0.011,0.201-0.024,0.301-0.036c1.035,1.141,2.071,2.279,3.216,3.542c-0.076-1.443-0.062-2.768-0.233-4.068
			c-0.358-2.702-2.448-4.323-4.048-6.249c-0.263-0.315-0.434-0.707-0.648-1.065c0.122-0.094,0.246-0.191,0.369-0.288
			c1.385,1.287,2.768,2.574,4.164,3.874v-5.443c0.092-0.035,0.182-0.071,0.273-0.106c0.121,0.145,0.334,0.281,0.352,0.438
			c0.345,3.224,0.672,6.445,0.993,9.67c0.168,1.678,0.324,3.359,0.479,4.969c0.76-0.441,1.555-0.998,2.426-1.391
			c1.299-0.588,0.762-1.798,0.961-2.709c0.251-1.153,0.157-2.375,0.256-3.566c0.02-0.238,0.236-0.461,0.36-0.69
			c0.135,0.254,0.381,0.503,0.388,0.759c0.036,1.643,0.017,3.285,0.022,4.93c0.001,0.185,0.046,0.37,0.062,0.492
			c1.56,0.089,3.053,0.175,4.585,0.265v0.791c-0.061,0.018-0.11,0.048-0.154,0.043c-2.611-0.282-5.029,0.351-7.226,1.715
			c-0.891,0.552-1.236,1.565-1.336,2.622c-0.157,1.683-0.326,3.364-0.497,5.107c0.751,0.076,1.604,0.168,2.46,0.253
			c1.341,0.133,2.678,0.304,4.021,0.383c2.032,0.118,3.329-1.108,4.314-2.655c0.68-1.067,1.135-2.277,1.704-3.416
			c0.105-0.21,0.273-0.389,0.413-0.582c0.089,0.021,0.179,0.045,0.269,0.068c-0.069,0.434-0.081,0.887-0.223,1.294
			c-0.322,0.932-0.667,1.86-1.086,2.75c-0.246,0.524-0.162,0.675,0.393,0.806c1.224,0.285,2.429,0.653,3.641,0.987
			c0.002,0.12,0.002,0.243,0.003,0.364c-0.316,0.042-0.638,0.143-0.945,0.111c-0.535-0.057-1.064-0.189-1.591-0.306
			c-1.933-0.436-3.011,0.828-4.22,2.149c0.904,0.435,1.791,0.792,2.61,1.267c2.044,1.179,4.127,2.309,6.058,3.652
			c1.469,1.022,2.75,2.323,4.064,3.553c0.213,0.2,0.163,0.682,0.234,1.03c-0.31-0.151-0.707-0.227-0.917-0.467
			c-1.303-1.486-2.976-2.444-4.724-3.6c0.076,2.421-0.136,4.616-1.315,6.7c-0.079-0.272-0.249-0.552-0.226-0.816
			c0.083-0.952,0.196-1.905,0.361-2.849c0.318-1.812-0.527-3.562-2.234-4.385c-1.938-0.936-3.837-2.008-5.867-2.682
			c-1.76-0.583-3.671-0.902-5.525-0.949c-1.636-0.041-3.283,0.457-4.895,0.943c1.445,0.381,2.901,0.725,4.332,1.156
			c0.818,0.248,1.598,0.632,2.385,0.975c0.115,0.051,0.219,0.19,0.26,0.315c0.018,0.053-0.133,0.236-0.212,0.238
			c-0.652,0.02-1.32,0.101-1.955-0.007c-1.093-0.184-2.153-0.576-3.249-0.731c-2.173-0.31-4.365-0.445-6.467,0.393
			c-0.994,0.396-1.934,0.927-2.9,1.391c-0.471,0.227-0.948,0.443-1.421,0.664c0.596,1.536,1.2,3.004,1.731,4.501
			c0.274,0.772,0.457,1.586,0.612,2.393c0.227,1.199,0.736,1.793,1.896,1.533c1.24-0.273,2.571-0.701,3.545-1.466
			c1.48-1.163,2.688-2.677,4.062-4.095c0.092,0.083,0.276,0.251,0.64,0.575c-1.585,1.978-3.156,3.941-4.704,5.873
			c2.312,0.845,4.18,1.661,6.368-0.193c1.561-1.324,3.224-2.563,3.847-4.644c0.373-1.245,0.635-2.522,0.983-3.774
			c0.073-0.266,0.301-0.485,0.594-0.935c0.532,2.349-0.534,4.143-0.754,6.101c2.139,0.592,4.369,0.986,6.269,2.211
			c-0.05,0.152-0.101,0.304-0.15,0.456c-0.794-0.272-1.579-0.568-2.38-0.811c-1.751-0.532-3.547-0.862-5.146,0.302
			c-0.774,0.565-1.327,1.438-1.955,2.194c-0.309,0.371-0.561,0.788-0.769,1.087c2.862,1.165,5.661,2.336,8.491,3.43
			c0.496,0.19,1.151,0.191,1.67,0.05c1.957-0.541,3.746-1.424,5.146-2.962c0.081-0.091,0.202-0.162,0.317-0.201
			c0.083-0.029,0.186,0.008,0.551,0.039c-0.35,0.525-0.535,1.083-0.918,1.334c-1.754,1.145-3.567,2.197-5.344,3.307
			c-0.193,0.118-0.395,0.378-0.42,0.59c-0.141,1.2-0.183,2.411-0.357,3.605c-0.06,0.41-0.402,0.78-0.615,1.167
			c-0.117-0.047-0.236-0.096-0.354-0.145c0.039-0.7-0.013-1.417,0.132-2.096c0.385-1.771-0.555-3.518-2.277-4.099
			c-1.203-0.401-2.386-0.874-3.606-1.212c-2.019-0.556-4.062-1.025-6.095-1.534c-0.572-0.145-1.139-0.307-1.878-0.507
			c0.378,1.053,1.561,1.697,0.812,2.732c-0.954-0.677-1.824-1.613-2.886-1.954c-1.051-0.337-2.295-0.073-3.604-0.073
			c0.753,2.928,1.401,5.635,3.812,7.258c0.938,0.632,2.285,0.877,3.453,0.898c1.584,0.027,3.171-0.365,4.762-0.508
			c0.873-0.077,1.758-0.015,2.672,0.104c-2.006,1.466-4.357,1.92-6.79,2.322c0.049,0.086,0.081,0.226,0.163,0.266
			c2.69,1.329,5.448,2.527,8.397,3.082c1.769,0.333,3.564,0.065,5.28-0.692c2.469-1.086,4.55-2.698,6.387-4.605
			c0.58-0.6,0.918-1.602,1.025-2.462c0.292-2.364,0.404-4.753,0.593-7.189c0.846-0.081,0.968,0.728,0.97,1.256
			c0.005,2.264-0.117,4.526-0.188,6.791c-0.006,0.194,0.009,0.392,0.016,0.587c0.201-0.023,0.402-0.046,0.604-0.073
			c0.471-0.062,0.969-0.255,1.411-0.168c1.246,0.244,2.574,0.259,3.681,0.983c-0.01,0.118-0.018,0.238-0.024,0.355
			c-0.556,0-1.114,0.047-1.662-0.008c-2.384-0.237-4.454,0.275-5.983,2.286c-0.563,0.741-1.212,1.419-1.852,2.158
			c0.797,0.337,1.609,0.642,2.387,1.021c0.968,0.474,1.958,0.933,2.837,1.544c0.901,0.626,1.807,1.043,2.916,1.025
			c1.534-0.024,3.069-0.007,4.64-0.007c0.075,0.673-0.223,0.946-0.797,0.976c-1.588,0.083-3.177,0.145-4.762,0.254
			c-0.138,0.01-0.381,0.332-0.361,0.483c0.201,1.622,0.475,3.237,0.652,4.863c0.036,0.345-0.238,0.723-0.371,1.087
			c-0.1-0.005-0.197-0.011-0.297-0.015c-0.088-0.238-0.199-0.471-0.262-0.716c-0.464-1.832-0.859-3.688-1.415-5.489
			c-0.153-0.494-0.708-0.971-1.196-1.231c-1.166-0.624-2.404-1.111-3.611-1.657c-1.417-0.642-2.687-0.154-3.905,0.549
			c-0.792,0.458-1.546,0.981-2.278,1.45c1.409,3.769,4.311,4.757,8.108,3.878c-0.263,1.045-0.263,1.045-4.383,1.525
			c0.585,0.696,1.162,1.3,1.644,1.974c1.506,2.111,3.752,2.679,6.123,3.02c0.854,0.121,1.707,0.246,2.559,0.391
			c1.435,0.243,2.508-0.237,3.297-1.48c0.49-0.776,1.098-1.478,1.932-2.201c-0.051,0.455,0.02,0.971-0.177,1.35
			c-0.467,0.901-1.011,1.775-1.622,2.585c-0.289,0.382-0.31,0.598-0.052,0.969c1.294,1.849,1.938,3.978,2.55,6.113
			c0.153,0.529,0.059,0.603-0.646,0.604c-0.482-2.373-1.309-4.6-2.99-6.402c-0.3-0.32-0.867-0.471-1.335-0.544
			c-0.857-0.127-1.737-0.093-2.597-0.208c-1.854-0.249-3.701-0.55-5.367-0.801c0.141,0.876,0.356,1.906,0.459,2.947
			c0.12,1.224,0.005,2.48,0.233,3.677c0.573,2.991,2.936,4.468,6.036,3.845c0.435-0.087,0.852-0.269,1.289-0.322
			c0.203-0.026,0.433,0.145,0.65,0.226c-0.162,0.195-0.298,0.522-0.494,0.563c-1.304,0.281-2.621,0.504-3.985,0.754
			c0.354,1.169,0.8,2.362,1.06,3.594c0.175,0.811,0.083,1.678,0.111,2.519H871.481z"/>
	</g>
	<g>
		<path fill-rule="evenodd" clip-rule="evenodd" fill="#D1DE58" d="M573.845,572.175c-0.219,45.479,27.547,88.653,66.594,103.734
			c12.477,4.817,25.385,6.613,38.602,3.974c26.609-5.312,40.008-28.142,31.921-54.071c-3.514-11.265-9.609-21.137-17.299-29.898
			c-5.631-6.419-9.285-13.646-11.969-21.599c-3.625-10.749-7.42-21.45-13.519-31.13c-15.403-24.445-44.705-32.692-69.932-19.715
			c-15.223,7.83-23.256,20.366-24.361,37.359C573.636,564.595,573.845,568.393,573.845,572.175z"/>
		<path fill-rule="evenodd" clip-rule="evenodd" fill="#FFFFFF" d="M692.783,622.889c-3.91-4.94-7.582-10.325-12.393-14.734
			c-11.104-10.174-17.771-8.467-22.104,5.715c-0.283,0.934-0.699,1.826-1.046,2.716c-1.974,0.191-1.888-1.489-2.549-2.292
			c-2.981-3.612-5.673-6.814,1.509-9.371c3.865-1.377,6.009-5.485,5.506-9.956c-0.844-7.512-1.705-15.045-3.129-22.461
			c-0.891-4.628-4.408-5.816-8.713-4.151c-5.461,2.112-8.16,0.319-8.266-5.616c-0.291-16.403-6.103-23.664-22.43-28.016
			c-11.58-3.086-24.846,2.505-30.554,12.879c-5.334,9.692-3.366,20.816,6.091,29.316c5.332,4.791,6.61,9.371,3.577,15.933
			c-4.271,9.238-3.741,18.846,0.845,27.775c11.234,21.873,25.758,40.009,52.527,43.04c4.543,0.514,9.067,0.408,13.562-0.525
			c9.551-1.982,14.402-7.379,14.944-17.275c0.311-5.708,0.057-11.447,0.057-17.531c4.149,3.656,8.212,7.626,12.679,11.069
			c5.18,3.993,8.988,2.309,9.594-4.365c0.366-4.039,0.723-8.038,1.926-11.884c1.444-4.613-0.572-7.63-4.577-8.925
			c-5.665-1.832-2.286,4.207-4.401,5.742C694.543,620.618,694.726,622.406,692.783,622.889z"/>
	</g>
	<path fill-rule="evenodd" clip-rule="evenodd" fill="#D1DE58" d="M559.094,755.896c1.991,2.712,1.825,5.329,0.723,8.214
		c-1.345,3.503-3.622,5.564-7.565,5.6c-2.003,0.018-4.031,0.262-6,0.655c-2.431,0.487-3.117,1.477-3.227,3.967
		c-0.025,0.532-0.093,1.081-0.005,1.599c0.513,3.102-1.554,4.723-3.809,6.722c-1.141-1.966-2.187-3.764-3.243-5.58
		c-1.923,0.684-3.905,1.345-5.882-0.226c-0.256-0.204-0.919,0.152-1.401,0.167c-1.302,0.041-2.681,0.312-3.882-0.032
		c-0.992-0.288-1.734-0.492-2.628,0.104c-0.376,0.249-1.002,0.551-1.314,0.402c-2.551-1.216-4.99,0.384-7.48,0.193
		c-0.79-0.06-1.559-0.366-2.349-0.564c-0.986,1.71-2.025,3.523-3.199,5.577c-2.089-1.984-4.011-3.422-3.842-6.494
		c0.267-4.822-0.561-5.619-5.382-6.238c-1.82-0.233-3.659-0.353-5.492-0.475c-1.937-0.131-3.518-1.005-4.366-2.663
		c-0.987-1.926-1.894-3.978-2.282-6.079c-0.224-1.223,0.338-2.843,1.061-3.938c3.019-4.554,1.319-11.116,1.103-10.63
		c-0.404-0.271-0.971-0.449-1.185-0.828c-2.271-3.968-3.567-8.239-2.799-12.798c2.296-13.701,9.14-24.097,22.482-29.242
		c4.225-1.631,8.734-2.64,13.199-3.502c5.714-1.096,11.197,0.63,16.568,2.333c14.653,4.651,22.712,15.039,25.44,29.851
		c0.872,4.748-0.377,9.193-2.731,13.327c-0.226,0.399-0.877,0.554-1.334,0.823C558.1,745.628,556.017,751.714,559.094,755.896
		 M508.568,738.592c-0.204,0.022-0.619,0.04-1.03,0.098c-8.177,1.07-12.312,10.539-7.882,18.047
		c2.082,3.526,5.646,4.858,9.475,3.373c4.073-1.583,6.988-4.484,8.592-8.532C520.268,745.144,515.7,738.581,508.568,738.592
		 M549.602,749.825c-0.372-4.889-3.8-9.373-8.596-10.834c-6.688-2.038-13.149,3.334-12.328,10.249
		c0.586,4.931,5.913,10.503,10.82,11.311c3.338,0.551,6.336-0.746,7.859-3.887C548.396,754.524,548.872,752.114,549.602,749.825
		 M526.625,764.679c0.431-0.471,0.569-1.694,0.268-2.286c-0.848-1.634-1.991-3.108-3.018-4.648
		c-0.256-0.008-0.519-0.018-0.779-0.026c-1.065,1.714-2.216,3.383-3.13,5.174c-0.227,0.438,0.16,1.625,0.588,1.85
		C521.113,765.043,525.903,765.454,526.625,764.679"/>
	<path fill-rule="evenodd" clip-rule="evenodd" fill="#D1DE58" d="M533.77,786.068c0.29-0.442,0.837-1.276,1.387-2.108
		c0.992-1.491,1.345-1.491,2.55-0.111c1.39,1.589,1.523,3.463,1.074,5.354c-0.466,1.986-2.517,2.421-4.739,1.144
		c-2.039,2.213-2.494,2.286-5.498,0.91c-1.83,1.59-2.707,1.624-5.023,0.193c-2.3,1.431-3.203,1.397-5.022-0.186
		c-2.998,1.354-3.578,1.263-5.447-0.932c-0.322,0.18-0.655,0.393-1.012,0.557c-1.313,0.59-2.469,0.277-3.35-0.79
		c-1.413-1.714-0.418-6.19,1.581-7.126c0.3-0.143,0.99,0.003,1.175,0.254c0.761,1.039,1.398,2.169,2.155,3.379
		c1.472-0.729,3.043-0.729,4.588,0.133c0.189,0.102,0.455,0.082,0.684,0.082c3.111,0.015,6.225,0.025,9.334,0.021
		c0.28,0,0.553-0.139,0.839-0.177C530.487,786.474,531.93,786.297,533.77,786.068"/>
	
		<rect x="472.117" y="801.087" transform="matrix(0.9321 0.3622 -0.3622 0.9321 326.6043 -132.498)" fill="#D1DE58" width="89.209" height="7.672"/>
	<path fill="#D1DE58" d="M484.798,786c-1.409,3.622-5.483,5.418-9.106,4.012c-3.62-1.409-5.416-5.486-4.01-9.104
		c1.409-3.625,5.485-5.42,9.105-4.013C484.409,778.304,486.205,782.382,484.798,786"/>
	<path fill="#D1DE58" d="M480.975,795.837c-1.407,3.619-5.481,5.416-9.105,4.009c-3.619-1.408-5.415-5.485-4.009-9.102
		c1.406-3.624,5.485-5.42,9.107-4.014C480.591,788.139,482.383,792.217,480.975,795.837"/>
	<path fill="#D1DE58" d="M568.843,818.656c-1.407,3.622-5.482,5.416-9.104,4.011c-3.622-1.409-5.417-5.485-4.011-9.107
		c1.411-3.621,5.486-5.415,9.105-4.007C568.457,810.958,570.253,815.035,568.843,818.656"/>
	<path fill="#D1DE58" d="M565.025,828.491c-1.411,3.622-5.485,5.417-9.107,4.007c-3.621-1.405-5.418-5.481-4.007-9.099
		c1.407-3.625,5.482-5.42,9.102-4.012C564.636,820.795,566.432,824.87,565.025,828.491"/>
	
		<rect x="486.367" y="802.568" transform="matrix(-0.9321 0.3622 -0.3622 -0.9321 1317.959 1365.7531)" fill="#D1DE58" width="89.21" height="7.674"/>
	<path fill="#D1DE58" d="M562.896,787.483c1.406,3.62,5.485,5.418,9.106,4.006c3.618-1.405,5.414-5.481,4.007-9.104
		c-1.407-3.62-5.482-5.416-9.105-4.009C563.285,779.787,561.489,783.86,562.896,787.483"/>
	<path fill="#D1DE58" d="M566.717,797.318c1.407,3.621,5.485,5.416,9.107,4.009c3.618-1.408,5.414-5.485,4.007-9.102
		c-1.407-3.624-5.485-5.42-9.105-4.011C567.105,789.62,565.311,793.698,566.717,797.318"/>
	<path fill="#D1DE58" d="M478.849,820.14c1.407,3.62,5.482,5.415,9.103,4.009c3.624-1.409,5.419-5.485,4.011-9.103
		c-1.407-3.623-5.482-5.42-9.105-4.012C479.239,812.441,477.438,816.52,478.849,820.14"/>
	<path fill="#D1DE58" d="M482.671,829.975c1.404,3.619,5.481,5.416,9.103,4.009c3.624-1.408,5.418-5.485,4.011-9.106
		c-1.407-3.62-5.485-5.416-9.105-4.008C483.057,822.276,481.264,826.354,482.671,829.975"/>
	<path fill="#3A9E99" d="M1482.733,809.264c0,0,0.767-7.117,0.886-10.721c0.183-5.525,1.991-17.162-0.479-22.108
		c-2.375-4.758-11.464-12.216-16.725-13.178l0.144-8.003l-5.648-8.158l-6.275-4.707l-9.414-4.707l-10.354-0.314l-5.021,0.941
		l-5.648,3.766l-3.451,3.451l-0.629,2.509l-2.093,3.765l1.78,2.198l-0.628,2.51l-1.255,2.824l-1.569,1.883v5.334l-1.882,3.138
		l-2.196,4.079l1.568,2.824l0.417,3.242l1.465,0.628l-0.838,1.255l1.675,4.393l2.928,1.673l6.485,1.673l3.556,5.648l-17.884,5.962
		l-20.71,13.807l-22.592,10.355l-23.534,3.451l-6.589-5.648l-6.59-3.138l-10.354-0.941l-37.341-45.185l-8.785-7.53l-5.648-2.511
		l-7.217-1.568l-4.394-0.942l-3.765,1.569l-6.903,8.158l-8.473,8.472l-6.903,9.727l-6.902,13.179l-13.807,22.592l-11.61,22.278
		l-14.12,16.63l-10.982,8.472l-12.865,5.648l-8.785,1.569h-5.021l-3.451,1.255v2.824l2.824,1.569h3.451h3.452v1.569l-2.196,1.255
		l-3.139,0.313l-1.883,1.883v2.51l3.452,1.883h4.079l22.593,0.627l26.985-0.314l6.275-1.569l1.568-2.196l0.314-4.706l-0.628-8.472
		l-0.628-4.079l1.569-4.08l4.707-5.962l9.727-8.158l16.631-16.63l6.589-4.707l45.499,48.008c0,0,5.322,6.516,7.845,7.531
		c16.52,6.647,71.229,0,71.229,0l4.707-0.313l8.472-3.138l6.59-2.51l7.217-2.51l5.334,0.941l9.728,4.393l8.158,3.138h37.34
		l5.021-1.882l2.511-3.138l-2.824-52.088l-0.628-8.158c0,0-0.171-4.481,0-5.962c0.158-1.361,1.098-3.973,1.255-5.334
		c0.118-1.013,0.391-3.138,0-4.079c-0.594-1.434-3.311-3.279-4.393-4.393c-1.354-1.393-5.334-5.647-5.334-5.647l-0.628-5.962
		l0.941-5.962l2.196-4.393l4.07-6.263c3.233,2.142,7.031,4.944,7.796,7.228c1.475,4.396-0.453,13.941,0.102,18.544
		c0.391,3.235,2.855,7.146,3.652,7.863c1.492,1.345,8.957,5.653,8.957,5.653L1482.733,809.264z"/>
	<rect x="38.708" y="210" fill="none" width="372" height="76"/>
	<text transform="matrix(1 0 0 1 38.708 224.3799)" fill="#FFFFFF" font-family="'Helvetica'" font-size="20">RESPIRATORY EFFECTS</text>
	<line fill="none" stroke="#FFFFFF" stroke-width="2" stroke-miterlimit="10" x1="39.125" y1="237.697" x2="471.103" y2="237.697"/>
	<polygon fill="#FFFFFF" points="427,245.667 446.109,264.776 465.219,245.667 	"/>
	<polygon fill="#D1DE58" points="56.596,41.189 37.487,60.298 56.596,79.408 	"/>
</g>
<g id="Layer_5">
</g>
<g id="Layer_6">
</g>
<g id="Layer_7">
</g>
</svg>
