<?xml version="1.0" encoding="utf-8"?>
<!-- Generator: Adobe Illustrator 18.0.0, SVG Export Plug-In . SVG Version: 6.00 Build 0)  -->
<!DOCTYPE svg PUBLIC "-//W3C//DTD SVG 1.1//EN" "http://www.w3.org/Graphics/SVG/1.1/DTD/svg11.dtd">
<svg version="1.1" xmlns="http://www.w3.org/2000/svg" xmlns:xlink="http://www.w3.org/1999/xlink" x="0px" y="0px"
	 viewBox="0 0 1600 1150" enable-background="new 0 0 1600 1150" xml:space="preserve">
<g id="Layer_1">
	<path fill="#FFFFFF" stroke="#000000" stroke-miterlimit="10" d="M1605.605,729.213C1572.217,709.071,1539,700,1517,668
		c-13.287-19.327-46.399-29.936-66-42c-42.365-26.076-88.909-46.245-134.547-66.044c-25.662-11.133-52.167-20.191-78.637-29.236
		c-66.911-22.863-134.132-45.808-203.714-58.382"/>
</g>
<g id="Layer_2">
</g>
<g id="Layer_3">
</g>
<g id="Layer_4">
</g>
<g id="Layer_5">
	<g>
		<defs>
			<rect id="SVGID_5_" y="-969.441" width="1600" height="344.441"/>
		</defs>
		<clipPath id="SVGID_2_">
			<use xlink:href="#SVGID_5_"  overflow="visible"/>
		</clipPath>
		<path opacity="0.5" clip-path="url(#SVGID_2_)" fill="#FFFFFF" d="M800-896.477c-1402.173,0-2538.859,1118.705-2538.859,2498.697
			S-602.173,4100.918,800,4100.918s2538.859-1118.705,2538.859-2498.697S2202.174-896.477,800-896.477z M800,4005.756
			c-1327.436,0-2403.536-1076.1-2403.536-2403.535c0-1327.438,1076.1-2403.536,2403.536-2403.536
			S3203.536,274.783,3203.536,1602.221C3203.536,2929.656,2127.438,4005.756,800,4005.756z"/>
		<path clip-path="url(#SVGID_2_)" fill="#D1DE58" d="M800-969.441c-1490.501,0-2698.792,1104.738-2698.792,2571.662
			c0,1466.922,1208.291,2656.1,2698.792,2656.1s2698.792-1189.178,2698.792-2656.1C3498.793,135.297,2290.502-969.441,800-969.441z
			 M800,4124.457c-1415.382,0-2562.777-1129.244-2562.777-2522.236S-615.382-920.016,800-920.016
			S3362.777,209.229,3362.777,1602.221S2215.384,4124.457,800,4124.457z"/>
	</g>
</g>
<g id="Layer_6">
	<rect x="2.033" y="-1.001" fill="#47BCB6" width="1600.229" height="1147.277"/>
	<g>
		<defs>
			<rect id="SVGID_7_" x="4.625" y="169.959" width="1596.375" height="979.04"/>
		</defs>
		<clipPath id="SVGID_4_">
			<use xlink:href="#SVGID_7_"  overflow="visible"/>
		</clipPath>
		<radialGradient id="SVGID_6_" cx="805" cy="1752" r="1508" gradientUnits="userSpaceOnUse">
			<stop  offset="0" style="stop-color:#48C2C5"/>
			<stop  offset="0.0912" style="stop-color:#58C4BE"/>
			<stop  offset="0.2495" style="stop-color:#79C9AB"/>
			<stop  offset="0.4559" style="stop-color:#A3D28B"/>
			<stop  offset="0.6744" style="stop-color:#D1DE58"/>
			<stop  offset="0.7321" style="stop-color:#CEDD5C"/>
			<stop  offset="0.7856" style="stop-color:#C5DB68"/>
			<stop  offset="0.8374" style="stop-color:#B6D67A"/>
			<stop  offset="0.8882" style="stop-color:#A0D18E"/>
			<stop  offset="0.9382" style="stop-color:#81CAA6"/>
			<stop  offset="0.9871" style="stop-color:#51C3C2"/>
			<stop  offset="0.9931" style="stop-color:#48C2C5"/>
		</radialGradient>
		<circle opacity="0.5" clip-path="url(#SVGID_4_)" fill="url(#SVGID_6_)" cx="805" cy="1752" r="1508"/>
		<circle clip-path="url(#SVGID_4_)" fill="none" stroke="#FFFFFF" stroke-miterlimit="10" cx="805" cy="1752" r="1112"/>
		<circle clip-path="url(#SVGID_4_)" fill="none" stroke="#FFFFFF" stroke-miterlimit="10" cx="805" cy="1752" r="1300"/>
		<circle clip-path="url(#SVGID_4_)" fill="none" stroke="#FFFFFF" stroke-miterlimit="10" cx="805" cy="1752" r="1508"/>
	</g>
	<rect x="3.625" y="983.237" fill="#FFFFFF" width="1600" height="165.762"/>
	<text transform="matrix(1 0 0 1 343.332 1045.0859)"><tspan x="0" y="0" fill="#010101" font-family="'Helvetica'" font-size="18">Re</tspan><tspan x="23.01" y="0" fill="#010101" font-family="'Helvetica'" font-size="18">f</tspan><tspan x="27.849" y="0" fill="#010101" font-family="'Helvetica'" font-size="18">erences</tspan></text>
	<g>
		<polygon fill="#2E2119" points="107.157,1044.853 107.157,1028.157 118.659,1028.157 118.659,1030.683 110.771,1030.683 
			110.771,1034.929 117.396,1034.929 117.396,1037.308 110.771,1037.308 110.771,1042.306 118.999,1042.306 118.999,1044.853 		"/>
		<path fill="#2E2119" d="M129.223,1044.853v-7.375c0-1.24-0.194-2.137-1.698-2.137c-0.801,0-1.917,0.414-2.718,0.896v8.615h-3.495
			v-11.914h3.301l0.049,1.09l0.097,0.051c1.382-0.924,3.058-1.432,4.198-1.432c3.154,0,3.736,1.869,3.736,4.102v8.104H129.223z"/>
		<path fill="#2E2119" d="M140.587,1042.548c0.121-0.314,0.776-3.082,1.164-4.32c0.535-1.553,1.53-4.949,1.651-5.289h3.494
			c-0.874,2.451-3.227,9.486-4.101,11.914h-4.732c-0.85-2.428-3.228-9.463-4.078-11.914h3.642l1.722,5.531
			c0.268,0.85,0.826,3.252,1.117,4.078H140.587z"/>
		<path fill="#2E2119" d="M150.438,1031.481c-1.287,0-1.99-0.824-1.99-1.842c0-1.068,0.729-1.871,1.99-1.871
			c1.335,0,2.062,0.803,2.062,1.871C152.5,1030.657,151.773,1031.481,150.438,1031.481 M148.715,1032.938h3.47v11.914h-3.47
			V1032.938z"/>
		<path fill="#2E2119" d="M158.707,1035.05c1.31-1.287,3.203-2.428,4.538-2.428c0.486,0,0.678,0.293,0.678,0.803
			c0,0.896-0.581,2.717-1.09,3.422l-4.053-0.049v8.055h-3.471v-11.914h3.422c0,0.557-0.072,1.48-0.145,2.039L158.707,1035.05z"/>
		<path fill="#2E2119" d="M170.718,1045.097c-4.416,0-5.945-2.766-5.945-6.188c0-3.35,1.699-6.238,6.092-6.238
			c4.439,0,5.969,2.889,5.969,6.213S175.257,1045.097,170.718,1045.097 M170.864,1035.122c-1.99,0-2.525,1.916-2.525,3.787
			c0,2.109,0.412,3.736,2.525,3.736c1.965,0,2.378-1.773,2.378-3.736C173.242,1037.015,172.854,1035.122,170.864,1035.122"/>
		<path fill="#2E2119" d="M186.708,1044.853v-7.375c0-1.24-0.195-2.137-1.699-2.137c-0.801,0-1.918,0.414-2.719,0.896v8.615h-3.494
			v-11.914h3.3l0.049,1.09l0.097,0.051c1.383-0.924,3.059-1.432,4.199-1.432c3.154,0,3.736,1.869,3.736,4.102v8.104H186.708z"/>
		<path fill="#2E2119" d="M207.696,1044.853v-7.545c0-1.312-0.34-1.943-1.578-1.943c-0.752,0-1.867,0.365-2.547,0.826
			c0.072,0.51,0.098,1.117,0.098,1.553v7.109h-3.424c0-2.598-0.023-5.193-0.023-7.789c0-1.117-0.509-1.674-1.432-1.674
			c-0.801,0-1.795,0.365-2.621,0.871v8.592h-3.47v-11.914h3.253l0.071,1.188l0.097,0.049c1.36-1.02,2.985-1.504,4.125-1.504
			c1.36,0,2.284,0.484,2.889,1.553c1.165-0.896,3.033-1.553,4.296-1.553c3.179,0,3.761,1.967,3.761,4.197v7.984H207.696z"/>
		<path fill="#2E2119" d="M224.484,1038.448v1.236h-7.788c0,1.82,0.85,2.789,2.985,2.789c1.286,0,2.596-0.289,3.833-0.752
			l0.705,2.137c-1.578,0.873-3.398,1.188-5.049,1.188c-4.805,0-5.969-2.861-5.969-6.137c0-2.621,1.117-6.287,5.823-6.287
			C224.145,1032.622,224.484,1036.31,224.484,1038.448 M216.745,1037.548h4.586c-0.023-1.576-0.51-2.717-2.16-2.717
			C217.449,1034.831,216.866,1036.118,216.745,1037.548"/>
		<path fill="#2E2119" d="M234.652,1044.853v-7.375c0-1.24-0.194-2.137-1.699-2.137c-0.801,0-1.917,0.414-2.718,0.896v8.615h-3.494
			v-11.914h3.299l0.049,1.09l0.098,0.051c1.384-0.924,3.057-1.432,4.198-1.432c3.155,0,3.737,1.869,3.737,4.102v8.104H234.652z"/>
		<path fill="#2E2119" d="M244.891,1029.638v3.277h3.471v2.279h-3.471v5.389c0,1.26,0.364,1.842,1.603,1.842
			c0.436,0,1.189-0.119,2.061-0.314l0.437,2.258c-1.019,0.461-2.377,0.678-3.396,0.678c-3.324,0-4.125-1.648-4.125-3.541v-6.311
			h-1.675v-1.893l1.893-0.559c0.171-0.412,0.704-2.449,0.85-2.863L244.891,1029.638z"/>
		<path fill="#2E2119" d="M260.978,1042.548h1.554l0.169,1.939c-0.776,0.365-1.893,0.609-2.911,0.609
			c-1.044,0-1.796-0.244-1.919-1.434c0-0.023-0.022-0.023-0.048-0.049c-1.674,1.459-3.444,1.482-4.124,1.482
			c-2.961,0-3.689-2.086-3.689-3.471c0-2.477,1.918-3.689,4.418-3.834c0.921-0.072,2.329-0.121,3.25-0.195v-0.289
			c0-1.361-0.437-2.062-2.207-2.062c-1.165,0-2.67,0.24-3.785,0.604c-0.171-0.727-0.365-1.455-0.559-2.156
			c1.406-0.609,3.469-0.996,5.168-0.996c2.863,0,4.684,1.066,4.684,4.15V1042.548z M255.274,1039.708
			c-1.141,0.098-1.674,0.68-1.674,1.625c0,0.998,0.484,1.531,1.627,1.531c0.728,0,1.674-0.391,2.449-1.068v-2.283L255.274,1039.708z
			"/>
		<polygon fill="#2E2119" points="267.916,1044.853 264.47,1044.853 264.47,1027.478 267.94,1027.478 		"/>
		<path fill="#2E2119" d="M113.782,1065.562h-3.034l0.025,6.406h-3.616v-16.695h6.333c3.811,0,5.727,1.99,5.727,5.121
			C119.217,1062.796,117.714,1065.562,113.782,1065.562 M110.748,1057.796v5.316h2.353c1.287,0,2.476-0.68,2.476-2.645
			c0-1.896-1.116-2.672-2.596-2.672H110.748z"/>
		<path fill="#2E2119" d="M131.469,1065.562v1.238h-7.788c0,1.82,0.85,2.789,2.985,2.789c1.285,0,2.597-0.291,3.833-0.752
			l0.703,2.137c-1.578,0.873-3.396,1.189-5.047,1.189c-4.805,0-5.969-2.865-5.969-6.141c0-2.621,1.115-6.283,5.823-6.283
			C131.13,1059.739,131.469,1063.427,131.469,1065.562 M123.729,1064.665h4.586c-0.024-1.578-0.51-2.719-2.16-2.719
			C124.433,1061.946,123.85,1063.231,123.729,1064.665"/>
		<path fill="#2E2119" d="M137.122,1062.163c1.311-1.283,3.203-2.424,4.538-2.424c0.485,0,0.681,0.289,0.681,0.799
			c0,0.896-0.584,2.717-1.094,3.422l-4.051-0.049v8.057h-3.472v-11.914h3.423c0,0.557-0.073,1.479-0.146,2.037L137.122,1062.163z"/>
		<path fill="#2E2119" d="M145.347,1062.31h-1.675v-1.893l1.7-0.486v-1.479c0-2.281,0.994-4.078,4.512-4.078
			c0.826,0,2.16,0.098,3.277,0.412l-0.412,2.354c-0.68-0.145-1.555-0.217-2.063-0.217c-1.237,0-1.942,0.412-1.942,1.578v1.527h3.424
			v2.281h-3.424c0,1.043-0.023,8.615-0.023,9.658h-3.373V1062.31z"/>
		<path fill="#2E2119" d="M159.129,1072.21c-4.416,0-5.945-2.766-5.945-6.188c0-3.35,1.698-6.234,6.091-6.234
			c4.44,0,5.969,2.885,5.969,6.209C165.243,1069.323,163.666,1072.21,159.129,1072.21 M159.274,1062.237
			c-1.99,0-2.523,1.918-2.523,3.785c0,2.111,0.412,3.736,2.523,3.736c1.966,0,2.379-1.77,2.379-3.736
			C161.653,1064.13,161.265,1062.237,159.274,1062.237"/>
		<path fill="#2E2119" d="M170.653,1062.163c1.311-1.283,3.204-2.424,4.539-2.424c0.486,0,0.678,0.289,0.678,0.799
			c0,0.896-0.582,2.717-1.09,3.422l-4.054-0.049v8.057h-3.47v-11.914h3.422c0,0.557-0.072,1.479-0.145,2.037L170.653,1062.163z"/>
		<path fill="#2E2119" d="M192.374,1071.968v-7.547c0-1.309-0.34-1.939-1.578-1.939c-0.752,0-1.867,0.363-2.547,0.822
			c0.072,0.51,0.098,1.117,0.098,1.553v7.111h-3.424c0-2.598-0.023-5.193-0.023-7.791c0-1.113-0.509-1.674-1.432-1.674
			c-0.801,0-1.795,0.365-2.62,0.875v8.59h-3.47v-11.914h3.25l0.073,1.189l0.097,0.049c1.36-1.021,2.985-1.504,4.125-1.504
			c1.36,0,2.283,0.482,2.889,1.553c1.165-0.9,3.033-1.553,4.296-1.553c3.179,0,3.761,1.965,3.761,4.197v7.982H192.374z"/>
		<path fill="#2E2119" d="M208.751,1069.663h1.553l0.17,1.941c-0.775,0.363-1.893,0.605-2.912,0.605
			c-1.045,0-1.797-0.242-1.917-1.432c0-0.021-0.024-0.021-0.049-0.047c-1.675,1.455-3.446,1.479-4.125,1.479
			c-2.961,0-3.688-2.086-3.688-3.471c0-2.473,1.916-3.688,4.416-3.834c0.924-0.072,2.33-0.119,3.252-0.191v-0.293
			c0-1.357-0.438-2.062-2.209-2.062c-1.164,0-2.668,0.242-3.785,0.607c-0.17-0.729-0.363-1.455-0.559-2.162
			c1.408-0.604,3.471-0.992,5.17-0.992c2.863,0,4.684,1.068,4.684,4.148V1069.663z M203.048,1066.821
			c-1.141,0.1-1.674,0.682-1.674,1.629c0,0.994,0.484,1.527,1.625,1.527c0.729,0,1.674-0.389,2.451-1.066v-2.281L203.048,1066.821z"
			/>
		<path fill="#2E2119" d="M220.18,1071.968v-7.377c0-1.238-0.194-2.135-1.699-2.135c-0.801,0-1.917,0.412-2.718,0.896v8.615h-3.494
			v-11.914h3.299l0.049,1.092l0.098,0.049c1.383-0.924,3.057-1.434,4.198-1.434c3.155,0,3.737,1.869,3.737,4.102v8.105H220.18z"/>
		<path fill="#2E2119" d="M232.043,1069.517c1.115,0,2.136-0.242,3.204-0.605l0.654,2.305c-1.189,0.605-2.862,0.947-4.488,0.947
			c-4.562,0-5.752-2.719-5.752-6.02c0-2.814,1.067-6.355,5.896-6.355c1.02,0,2.354,0.094,3.714,0.582
			c-0.171,0.799-0.34,1.6-0.534,2.426c-1.02-0.293-1.893-0.34-2.596-0.34c-1.942,0-2.961,1.334-2.961,3.541
			C229.181,1068.183,229.884,1069.517,232.043,1069.517"/>
		<path fill="#2E2119" d="M248.401,1065.562v1.238h-7.788c0,1.82,0.849,2.789,2.984,2.789c1.285,0,2.597-0.291,3.833-0.752
			l0.705,2.137c-1.578,0.873-3.398,1.189-5.049,1.189c-4.803,0-5.969-2.865-5.969-6.141c0-2.621,1.117-6.283,5.824-6.283
			C248.061,1059.739,248.401,1063.427,248.401,1065.562 M240.661,1064.665h4.587c-0.024-1.578-0.511-2.719-2.161-2.719
			C241.365,1061.946,240.782,1063.231,240.661,1064.665"/>
		<rect x="107.376" y="1082.386" fill="#2E2119" width="3.541" height="16.697"/>
		<path fill="#2E2119" d="M121.983,1099.083v-7.379c0-1.238-0.195-2.135-1.699-2.135c-0.801,0-1.917,0.412-2.718,0.896v8.617h-3.495
			v-11.916h3.301l0.049,1.092l0.097,0.051c1.383-0.924,3.058-1.434,4.198-1.434c3.154,0,3.738,1.867,3.738,4.1v8.107H121.983z"/>
		<path fill="#2E2119" d="M135.958,1087.63v-5.898h3.471v17.352H136.2l-0.072-1.068c-0.024-0.023-0.047-0.049-0.072-0.049
			c-1.164,0.945-2.645,1.285-3.664,1.285c-3.714,0-4.732-2.717-4.732-5.871c0-3.689,1.358-6.504,5.145-6.504
			C133.581,1086.876,134.964,1087.044,135.958,1087.63 M135.958,1090.054c-0.559-0.338-1.625-0.654-2.402-0.654
			c-1.188,0-2.402,0.703-2.402,3.955c0,2.816,1.043,3.471,2.354,3.471c0.704,0,1.893-0.484,2.451-0.896V1090.054z"/>
		<path fill="#2E2119" d="M152.53,1092.675v1.238h-7.79c0,1.82,0.852,2.791,2.985,2.791c1.287,0,2.597-0.291,3.835-0.754
			l0.703,2.137c-1.577,0.873-3.398,1.189-5.049,1.189c-4.804,0-5.968-2.863-5.968-6.139c0-2.623,1.115-6.285,5.824-6.285
			C152.19,1086.853,152.53,1090.54,152.53,1092.675 M144.789,1091.778h4.587c-0.024-1.578-0.51-2.719-2.161-2.719
			C145.493,1089.06,144.911,1090.345,144.789,1091.778"/>
		<polygon fill="#2E2119" points="159.833,1094.663 157.309,1099.083 153.597,1099.083 157.697,1092.87 153.912,1087.167 
			157.722,1087.167 159.882,1091.194 162.065,1087.167 165.778,1087.167 161.919,1092.845 165.973,1099.083 162.186,1099.083 		"/>
		<path fill="#F4C61B" d="M77.213,1091.688c-1.936,0-3.503-1.566-3.503-3.5c0-1.936,1.567-3.504,3.503-3.504
			c1.933,0,3.503,1.568,3.503,3.504C80.716,1090.122,79.146,1091.688,77.213,1091.688"/>
		<path fill="#F4C61B" d="M80.488,1082.669c-1.356,0-2.456-1.1-2.456-2.457s1.1-2.455,2.456-2.455c1.356,0,2.454,1.098,2.454,2.455
			S81.845,1082.669,80.488,1082.669"/>
		<path fill="#F4C61B" d="M82.944,1075.921c-0.933,0-1.689-0.756-1.689-1.688c0-0.934,0.757-1.689,1.689-1.689
			c0.934,0,1.688,0.756,1.688,1.689C84.633,1075.165,83.878,1075.921,82.944,1075.921"/>
		<path fill="#F4C61B" d="M84.582,1071.466c-0.673,0-1.22-0.545-1.22-1.221c0-0.674,0.547-1.219,1.22-1.219
			c0.673,0,1.22,0.545,1.22,1.219C85.802,1070.921,85.255,1071.466,84.582,1071.466"/>
		<path fill="#7E90C8" d="M62.667,1077.175c-1.935,0-3.502-1.57-3.502-3.504c0-1.932,1.567-3.498,3.502-3.498
			c1.934,0,3.502,1.566,3.502,3.498C66.169,1075.604,64.601,1077.175,62.667,1077.175"/>
		<path fill="#7E90C8" d="M70.61,1072.78c-1.355,0-2.451-1.1-2.451-2.455c0-1.352,1.096-2.451,2.451-2.451
			c1.354,0,2.453,1.1,2.453,2.451C73.063,1071.681,71.965,1072.78,70.61,1072.78"/>
		<path fill="#7E90C8" d="M76.569,1069.499c-0.932,0-1.684-0.752-1.684-1.682s0.752-1.686,1.684-1.686
			c0.93,0,1.684,0.756,1.684,1.686S77.499,1069.499,76.569,1069.499"/>
		<path fill="#7E90C8" d="M80.54,1067.354c-0.668,0-1.211-0.541-1.211-1.211s0.543-1.213,1.211-1.213
			c0.672,0,1.214,0.543,1.214,1.213S81.212,1067.354,80.54,1067.354"/>
		<path fill="#0F9ACC" d="M62.641,1056.628c-1.933,0-3.501-1.566-3.501-3.504c0-1.932,1.568-3.498,3.501-3.498
			c1.935,0,3.503,1.566,3.503,3.498C66.144,1055.062,64.575,1056.628,62.641,1056.628"/>
		<path fill="#0F9ACC" d="M70.625,1058.823c-1.351,0-2.448-1.094-2.448-2.447c0-1.352,1.098-2.449,2.448-2.449
			c1.352,0,2.448,1.098,2.448,2.449C73.073,1057.729,71.977,1058.823,70.625,1058.823"/>
		<path fill="#0F9ACC" d="M76.612,1060.489c-0.924,0-1.676-0.75-1.676-1.676c0-0.928,0.752-1.678,1.676-1.678
			c0.928,0,1.678,0.75,1.678,1.678C78.29,1059.739,77.54,1060.489,76.612,1060.489"/>
		<path fill="#0F9ACC" d="M80.606,1061.642c-0.666,0-1.205-0.541-1.205-1.205c0-0.662,0.539-1.203,1.205-1.203
			c0.664,0,1.203,0.541,1.203,1.203C81.81,1061.101,81.271,1061.642,80.606,1061.642"/>
		<path fill="#3FBBA3" d="M77.153,1042.083c-1.934,0-3.504-1.57-3.504-3.504c0-1.936,1.57-3.502,3.504-3.502
			c1.933,0,3.502,1.566,3.502,3.502C80.655,1040.513,79.086,1042.083,77.153,1042.083"/>
		<path fill="#3FBBA3" d="M80.478,1048.976c-1.35,0-2.444-1.092-2.444-2.443c0-1.35,1.095-2.445,2.444-2.445
			s2.445,1.096,2.445,2.445C82.923,1047.884,81.827,1048.976,80.478,1048.976"/>
		<path fill="#3FBBA3" d="M82.972,1054.169c-0.924,0-1.674-0.748-1.674-1.672s0.75-1.672,1.674-1.672c0.922,0,1.67,0.748,1.67,1.672
			S83.894,1054.169,82.972,1054.169"/>
		<path fill="#3FBBA3" d="M84.633,1057.671c-0.661,0-1.196-0.535-1.196-1.195s0.535-1.197,1.196-1.197
			c0.661,0,1.196,0.537,1.196,1.197S85.294,1057.671,84.633,1057.671"/>
		<path fill="#F89624" d="M87.532,1111.382c-2.389,0-4.326-1.936-4.326-4.326c0-2.389,1.938-4.324,4.326-4.324
			c2.389,0,4.326,1.936,4.326,4.324C91.858,1109.446,89.921,1111.382,87.532,1111.382"/>
		<path fill="#F89624" d="M87.498,1099.06c-1.833,0-3.318-1.486-3.318-3.318c0-1.83,1.485-3.318,3.318-3.318
			c1.833,0,3.317,1.488,3.317,3.318C90.815,1097.573,89.331,1099.06,87.498,1099.06"/>
		<path fill="#F89624" d="M87.472,1089.675c-1.408,0-2.551-1.145-2.551-2.553c0-1.406,1.143-2.551,2.551-2.551
			c1.408,0,2.551,1.145,2.551,2.551C90.022,1088.53,88.88,1089.675,87.472,1089.675"/>
		<path fill="#F89624" d="M87.447,1080.923c-1.041,0-1.882-0.844-1.882-1.881c0-1.039,0.841-1.885,1.882-1.885
			c1.038,0,1.882,0.846,1.882,1.885C89.329,1080.079,88.485,1080.923,87.447,1080.923"/>
		<path fill="#F36F2D" d="M56.68,1098.644c-2.39,0-4.325-1.938-4.325-4.326c0-2.391,1.936-4.326,4.325-4.326
			c2.39,0,4.325,1.936,4.325,4.326C61.005,1096.706,59.069,1098.644,56.68,1098.644"/>
		<path fill="#F36F2D" d="M64.621,1089.573c-1.831,0-3.315-1.482-3.315-3.316c0-1.83,1.484-3.312,3.315-3.312
			c1.83,0,3.313,1.482,3.313,3.312C67.935,1088.091,66.451,1089.573,64.621,1089.573"/>
		<path fill="#F36F2D" d="M70.671,1082.663c-1.406,0-2.545-1.137-2.545-2.545c0-1.406,1.139-2.545,2.545-2.545
			c1.405,0,2.545,1.139,2.545,2.545C73.216,1081.526,72.076,1082.663,70.671,1082.663"/>
		<path fill="#F36F2D" d="M76.344,1076.235c-1.036,0-1.876-0.836-1.876-1.873c0-1.035,0.84-1.875,1.876-1.875
			c1.036,0,1.876,0.84,1.876,1.875C78.22,1075.399,77.38,1076.235,76.344,1076.235"/>
		<path fill="#3676BA" d="M43.868,1067.821c-2.39,0-4.326-1.938-4.326-4.328c0-2.387,1.937-4.326,4.326-4.326
			c2.389,0,4.325,1.939,4.325,4.326C48.193,1065.884,46.257,1067.821,43.868,1067.821"/>
		<path fill="#3676BA" d="M55.181,1066.716c-1.828,0-3.31-1.482-3.31-3.311s1.481-3.311,3.31-3.311c1.828,0,3.31,1.482,3.31,3.311
			S57.009,1066.716,55.181,1066.716"/>
		<path fill="#3676BA" d="M63.801,1065.872c-1.4,0-2.536-1.137-2.536-2.533c0-1.402,1.136-2.537,2.536-2.537
			s2.534,1.135,2.534,2.537C66.335,1064.735,65.201,1065.872,63.801,1065.872"/>
		<path fill="#3676BA" d="M71.882,1065.136c-1.029,0-1.863-0.832-1.863-1.863c0-1.027,0.834-1.863,1.863-1.863
			c1.029,0,1.862,0.836,1.862,1.863C73.744,1064.304,72.911,1065.136,71.882,1065.136"/>
		<path fill="#068D8C" d="M56.606,1036.97c-2.389,0-4.326-1.939-4.326-4.326c0-2.391,1.938-4.328,4.326-4.328
			c2.389,0,4.326,1.938,4.326,4.328C60.933,1035.03,58.995,1036.97,56.606,1036.97"/>
		<path fill="#068D8C" d="M64.642,1043.911c-1.825,0-3.305-1.479-3.305-3.305c0-1.824,1.479-3.305,3.305-3.305
			c1.826,0,3.307,1.48,3.307,3.305C67.948,1042.433,66.468,1043.911,64.642,1043.911"/>
		<path fill="#068D8C" d="M70.765,1049.204c-1.396,0-2.527-1.131-2.527-2.527s1.132-2.529,2.527-2.529
			c1.396,0,2.527,1.133,2.527,2.529S72.161,1049.204,70.765,1049.204"/>
		<path fill="#068D8C" d="M76.504,1054.218c-1.022,0-1.853-0.83-1.853-1.852c0-1.025,0.83-1.854,1.853-1.854
			c1.023,0,1.853,0.828,1.853,1.854C78.356,1053.388,77.527,1054.218,76.504,1054.218"/>
		<path fill="#2CB35F" d="M87.429,1024.157c-2.391,0-4.326-1.936-4.326-4.326c0-2.387,1.936-4.326,4.326-4.326
			c2.39,0,4.325,1.939,4.325,4.326C91.754,1022.222,89.818,1024.157,87.429,1024.157"/>
		<path fill="#2CB35F" d="M87.416,1034.448c-1.825,0-3.305-1.479-3.305-3.303s1.479-3.305,3.305-3.305s3.304,1.48,3.304,3.305
			S89.241,1034.448,87.416,1034.448"/>
		<path fill="#2CB35F" d="M87.405,1042.29c-1.395,0-2.524-1.129-2.524-2.523s1.13-2.527,2.524-2.527
			c1.396,0,2.526,1.133,2.526,2.527S88.801,1042.29,87.405,1042.29"/>
		<path fill="#2CB35F" d="M87.397,1049.698c-1.023,0-1.852-0.83-1.852-1.852s0.828-1.852,1.852-1.852
			c1.021,0,1.851,0.83,1.851,1.852S88.419,1049.698,87.397,1049.698"/>
	</g>
	<rect x="68.476" y="39.994" fill="none" width="1054.143" height="38.606"/>
	<text transform="matrix(1 0 0 1 65.4756 74.5059)"><tspan x="0" y="0" fill="#FFFFFF" font-family="'Helvetica-Bold'" font-size="48">O3:</tspan><tspan x="80.016" y="0" fill="#7E90C8" font-family="'Helvetica-Bold'" font-size="48"> </tspan><tspan x="93.352" y="0" fill="#D1DE58" font-family="'Helvetica-Bold'" font-size="48">MONITORING</tspan></text>
	<rect x="69.076" y="91.465" fill="none" width="863.957" height="65.132"/>
	<text transform="matrix(1 0 0 1 69.0762 105.8447)"><tspan x="0" y="0" fill="#FFFFFF" font-family="'Helvetica'" font-size="20">MONITORING OF MERCURY SUGGESTS... Lorem ipsum dolor sit amet, </tspan><tspan x="0" y="24" fill="#FFFFFF" font-family="'Helvetica'" font-size="20">consectetur adipiscing elit. Donec at purus ut tortor facilisis tincidunt. </tspan><tspan x="0" y="48" fill="#FFFFFF" font-family="'Helvetica'" font-size="20">Pellentesque in aliquam elit. </tspan></text>
	<g>
		<g>
			<path fill="#3A9E99" d="M1315.218,969.011c0.007,0.004-8.601-17.648-13.482-21.842c-10.985-9.485-41.778-14.196-53.51-22.752
				c-15.323-11.315-49.759-58.011-49.827-57.989c0.137-0.09-69.683-46.613-99.369-50.857c-13.549-2.027-39.905,10.503-53.361,8.43
				c-5.111-0.79-11.868-8.457-17.038-9.021c-15.463-1.699-43.03,13.058-58.208,15.209c-14.616,2.037-44.708,1.979-59.627,1.646
				c-13.732-0.336-40.984-4.31-54.737-4.102c-18.449,0.225-56.401,1.76-73.021,7.659c-10.892,3.841-23.313,23.445-35.282,24.151
				c-17.431,1.017-41.225-24.756-57.952-28.674c-11.194-2.646-36.254,2.123-47.133-1.044c-8.93-2.62-18.743-19.107-28.467-18.876
				c-14.175,0.336-28.732,23.519-40.408,29.481c-6.439,3.272-20.759,8.677-28.437,9.548c-8.95,1.004-27.049-1.589-35.679-3.356
				c-5.427-1.115-14.86-7.364-20.517-6.747c-4.772,0.522-11.166,6.922-14.917,9.204c-5.785,3.507-16.563,11.478-23.253,13.922
				c-8.255,2.987-35.605,6.296-35.603,6.312c-15.2-8.065-48.195,20.46-60.582,32.175c-8.937,8.377-18.907,31.352-25.543,41.564
				c-4.32,6.609-17.93,25.961-17.919,25.96c40.156-3.161,80.333-5.94,120.529-8.342c0,0,0.01-0.19,0.025-0.548
				c245.951-14.687,492.539-15.153,738.529-1.4c-0.053,0.18-0.106,0.357-0.16,0.537C1218.61,961.96,1266.93,965.21,1315.218,969.011
				z"/>
			<g>
				<path fill="#D1D3D4" d="M697.299,895.867c0.317,17.656,0.635,35.312,0.953,52.969c6.7-0.119,13.4-0.23,20.1-0.33
					c-1.447-2.236-2.896-4.473-4.346-6.709c0.607-0.01,1.213-0.018,1.819-0.027c-1.407-2.156-2.815-4.31-4.224-6.466
					c0.647-0.011,1.293-0.021,1.94-0.03c-1.368-2.156-2.737-4.312-4.108-6.469c0.607-0.01,1.213-0.019,1.82-0.029
					c-1.412-2.154-2.824-4.309-4.238-6.463c0.73-0.013,1.461-0.024,2.19-0.037c-1.536-2.232-3.074-4.464-4.614-6.697
					c0.689-0.012,1.378-0.023,2.068-0.034c-1.456-2.153-2.914-4.306-4.373-6.458c0.772-0.014,1.544-0.026,2.316-0.039
					c-1.458-2.153-2.917-4.306-4.377-6.459c0.69-0.012,1.381-0.023,2.071-0.035C700.633,900.324,698.967,898.096,697.299,895.867z"
					/>
				<path fill="#FFFFFF" d="M697.299,895.867c0.317,17.656,0.635,35.312,0.953,52.969c-6.7,0.121-13.4,0.252-20.099,0.393
					c1.365-2.288,2.732-4.574,4.1-6.861c-0.606,0.013-1.212,0.026-1.818,0.038c1.329-2.204,2.659-4.409,3.99-6.613
					c-0.648,0.013-1.295,0.026-1.943,0.04c1.291-2.205,2.583-4.408,3.876-6.611c-0.607,0.012-1.214,0.023-1.821,0.035
					c1.333-2.203,2.667-4.408,4.003-6.611c-0.729,0.014-1.458,0.027-2.188,0.042c1.455-2.286,2.911-4.573,4.369-6.858
					c-0.69,0.013-1.38,0.026-2.07,0.039c1.377-2.203,2.756-4.406,4.137-6.611c-0.771,0.015-1.543,0.03-2.315,0.045
					c1.38-2.203,2.762-4.408,4.146-6.611c-0.692,0.013-1.384,0.025-2.076,0.039C694.125,900.44,695.712,898.154,697.299,895.867z"/>
			</g>
			<g>
				<path fill="#D1D3D4" d="M615.501,897.857c0.541,17.65,1.083,35.301,1.624,52.951c6.698-0.204,13.397-0.399,20.096-0.584
					c-1.476-2.218-2.952-4.437-4.431-6.654c0.607-0.018,1.212-0.034,1.819-0.051c-1.434-2.137-2.869-4.275-4.306-6.411
					c0.647-0.019,1.294-0.036,1.941-0.055c-1.396-2.14-2.792-4.278-4.19-6.415c0.606-0.018,1.213-0.035,1.82-0.053
					c-1.439-2.137-2.879-4.273-4.32-6.41c0.73-0.021,1.461-0.043,2.191-0.063c-1.565-2.214-3.131-4.427-4.699-6.638
					c0.69-0.02,1.379-0.041,2.068-0.06c-1.483-2.135-2.969-4.27-4.455-6.403c0.772-0.023,1.544-0.045,2.315-0.068
					c-1.485-2.134-2.972-4.269-4.46-6.401c0.691-0.022,1.381-0.042,2.071-0.062C618.892,902.269,617.197,900.062,615.501,897.857z"
					/>
				<path fill="#FFFFFF" d="M615.501,897.857c0.541,17.65,1.083,35.301,1.624,52.951c-6.698,0.205-13.396,0.422-20.094,0.648
					c1.336-2.305,2.673-4.609,4.013-6.912c-0.606,0.02-1.211,0.039-1.817,0.06c1.301-2.221,2.603-4.441,3.906-6.663
					c-0.647,0.021-1.295,0.043-1.943,0.065c1.262-2.221,2.526-4.44,3.792-6.66c-0.607,0.019-1.214,0.039-1.821,0.06
					c1.305-2.22,2.611-4.442,3.919-6.663c-0.729,0.023-1.458,0.047-2.187,0.071c1.426-2.306,2.852-4.61,4.282-6.914
					c-0.69,0.022-1.379,0.044-2.069,0.066c1.35-2.222,2.701-4.442,4.053-6.663c-0.772,0.024-1.543,0.048-2.314,0.072
					c1.352-2.223,2.706-4.441,4.061-6.662c-0.692,0.021-1.384,0.043-2.075,0.064C612.385,902.471,613.942,900.164,615.501,897.857z"
					/>
			</g>
			<g>
				<path fill="#D1D3D4" d="M415.938,908.017c1.088,17.626,2.175,35.251,3.263,52.876c6.69-0.413,13.381-0.815,20.072-1.207
					c-1.543-2.172-3.089-4.342-4.635-6.514c0.606-0.035,1.211-0.072,1.817-0.107c-1.5-2.091-3.001-4.183-4.504-6.275
					c0.646-0.038,1.293-0.077,1.939-0.115c-1.461-2.094-2.924-4.188-4.388-6.281c0.606-0.036,1.212-0.071,1.817-0.108
					c-1.504-2.092-3.01-4.184-4.518-6.275c0.729-0.043,1.458-0.088,2.188-0.132c-1.633-2.162-3.267-4.326-4.903-6.488
					c0.688-0.041,1.377-0.084,2.065-0.125c-1.549-2.088-3.1-4.176-4.651-6.262c0.77-0.047,1.541-0.094,2.312-0.141
					c-1.551-2.087-3.103-4.174-4.656-6.261c0.69-0.043,1.379-0.084,2.068-0.126C419.465,912.322,417.703,910.168,415.938,908.017z"
					/>
				<path fill="#FFFFFF" d="M415.938,908.017c1.088,17.626,2.175,35.251,3.263,52.876c-6.69,0.414-13.379,0.836-20.068,1.271
					c1.264-2.345,2.53-4.688,3.797-7.034c-0.605,0.039-1.21,0.078-1.815,0.117c1.232-2.261,2.465-4.521,3.699-6.781
					c-0.646,0.042-1.293,0.083-1.94,0.124c1.194-2.258,2.389-4.516,3.586-6.773c-0.606,0.038-1.212,0.077-1.818,0.115
					c1.235-2.262,2.472-4.521,3.711-6.782c-0.728,0.046-1.457,0.092-2.185,0.139c1.354-2.347,2.71-4.696,4.067-7.043
					c-0.689,0.043-1.378,0.087-2.066,0.13c1.28-2.262,2.562-4.523,3.845-6.785c-0.771,0.048-1.541,0.095-2.311,0.145
					c1.283-2.263,2.568-4.523,3.854-6.786c-0.691,0.044-1.382,0.087-2.073,0.13C412.966,912.724,414.452,910.369,415.938,908.017z"
					/>
			</g>
			<g>
				<g>
					<path opacity="0.75" fill="#BCBEC0" d="M751.19,939.242c4.353-2.461,6.531-3.693,10.891-6.148
						c-0.085-10.658-0.17-21.318-0.254-31.981c-4.402,0.035-6.603,0.055-11.005,0.097
						C750.944,913.889,751.067,926.568,751.19,939.242z"/>
					<path opacity="0.75" fill="#E6E7E8" d="M735.253,931.483c-1.511,0.017-2.266,0.028-3.777,0.048
						c-0.148-11.664-0.297-23.324-0.446-34.988c1.519-0.018,2.279-0.027,3.797-0.047
						C734.969,908.16,735.111,919.819,735.253,931.483z"/>
					<path opacity="0.75" fill="#D1D3D4" d="M734.828,896.496c0.141,11.664,0.284,23.323,0.426,34.987
						c-1.511,0.017-2.266,0.028-3.777,0.048c0.051,4.064,0.078,6.09,0.13,10.154c1.508-0.017,2.263-0.028,3.771-0.048
						c3.167-0.034,4.75-0.06,7.918-0.091c-0.164-15.047-0.33-30.098-0.493-45.144C739.612,896.441,738.018,896.457,734.828,896.496z
						"/>
					<path opacity="0.75" fill="#D1D3D4" d="M744.886,913.875c1.515-0.017,2.273-0.026,3.787-0.041
						c-0.105-10.46-0.159-15.685-0.264-26.143c1.673-0.018,2.511-0.027,4.184-0.041c0.049,5.229,0.074,7.846,0.123,13.074
						c0.921,1.082,1.38,1.623,2.301,2.705c0.097,10.533,0.191,21.068,0.286,31.602c0.755-0.006,1.132-0.01,1.887-0.016
						c-0.044-5.119-0.067-7.671-0.112-12.79c2.42-0.023,3.63-0.033,6.051-0.05c0.016,1.955,0.023,2.935,0.039,4.889
						c2.721-0.021,4.081-0.033,6.802-0.049c-3.013,1.678-4.517,2.514-7.526,4.195c0.012,1.505,0.018,2.261,0.03,3.76
						c-6.923,2.617-10.382,3.924-17.294,6.556C745.062,930.465,745.003,924.938,744.886,913.875z"/>
					<path opacity="0.75" fill="#BCBEC0" d="M784.313,923.266c-1.21,0.006-1.815,0.006-3.025,0.014
						c-0.026-5.154-0.038-7.73-0.063-12.885c1.213-0.007,1.818-0.008,3.031-0.014C784.279,915.535,784.29,918.109,784.313,923.266z"
						/>
					<path opacity="0.75" fill="#BCBEC0" d="M764.932,910.496c0.054,7.225,0.081,10.836,0.136,18.059
						c2.569-0.018,3.854-0.027,6.423-0.045c0.007,1.056,0.01,1.582,0.017,2.635c2.568-0.019,3.853-0.021,6.421-0.038
						c-0.005-1.054-0.009-1.579-0.015-2.636c-0.04-7.223-0.059-10.836-0.099-18.059C772.662,910.44,770.085,910.457,764.932,910.496
						z"/>
					<path opacity="0.75" fill="#D1D3D4" d="M801.987,867.625c-0.002-0.789-0.002-1.183-0.004-1.974
						c-5.378,0.012-8.069,0.014-13.448,0.038c0.003,0.791,0.004,1.182,0.008,1.973c-1.793,0.01-2.689,0.01-4.48,0.019
						c0.062,13.824,0.125,27.651,0.187,41.477c0.53-0.002,0.796-0.004,1.327-0.006c0.009,2.067,0.014,3.106,0.022,5.173
						c0.568-0.005,0.849-0.005,1.417-0.006c0.043,9.938,0.081,19.879,0.122,29.815c2.6-0.01,3.903-0.014,6.502-0.023
						c-0.03-9.935-0.061-19.882-0.091-29.815c-0.006-2.065-0.01-3.104-0.016-5.174c5.456-0.016,8.185-0.022,13.642-0.027
						c-0.013-13.828-0.023-27.65-0.039-41.477C805.076,867.621,804.047,867.622,801.987,867.625z"/>
					<path opacity="0.75" fill="#E6E7E8" d="M883.828,941.365c-4.749-0.057-7.122-0.07-11.872-0.119
						c0.094-10.227,0.188-20.443,0.281-30.662c4.772,0.046,7.156,0.064,11.929,0.121
						C884.054,920.927,883.941,931.143,883.828,941.365z"/>
					<path opacity="0.75" fill="#A7A9AC" d="M904.461,942.049c-3.731-0.054-5.597-0.08-9.328-0.127
						c0.218-17.07,0.436-34.137,0.654-51.207c3.761,0.05,5.643,0.075,9.403,0.127C904.947,907.914,904.705,924.975,904.461,942.049z
						"/>
					<path opacity="0.75" fill="#E6E7E8" d="M913.217,915.371c-2.781-0.047-4.174-0.066-6.956-0.105
						c0.528-36.487,1.055-72.98,1.583-109.467c2.02,0.031,3.033,0.045,5.054,0.076c0.09,1.692,0.136,2.545,0.226,4.238
						c0.692,0.014,1.036,0.013,1.729,0.026C914.307,845.219,913.762,880.296,913.217,915.371z"/>
					<path opacity="0.75" fill="#E6E7E8" d="M807.201,937.027c-5.43,2.829-8.141,4.248-13.561,7.083
						c-0.036-11.66-0.071-23.323-0.107-34.988c5.456-0.016,8.185-0.022,13.642-0.027
						C807.185,920.266,807.19,925.856,807.201,937.027z"/>
					<path opacity="0.75" fill="#D1D3D4" d="M950.757,895.229c-1.882-7.943-2.826-11.916-4.72-19.856
						c0.053-2.558,0.079-3.836,0.132-6.394c-1.546-0.031-2.319-0.045-3.865-0.078c0.047-2.332,0.069-3.499,0.116-5.832
						c-1.831-0.036-2.747-0.051-4.579-0.089c-0.062,3.234-0.093,4.852-0.155,8.085c3.189,9.621,4.776,14.429,7.942,24.055
						C947.68,895.16,948.704,895.185,950.757,895.229z"/>
					<path opacity="0.75" fill="#A7A9AC" d="M994.822,917.72c0.125-4.419,0.187-6.626,0.312-11.046
						c0.721,0.021,1.081,0.031,1.801,0.052c0.062-2.143,0.092-3.22,0.153-5.36c1.139,0.035,1.708,0.051,2.846,0.082
						c0.145-5.004,0.218-7.502,0.362-12.504c1.673,0.051,2.51,0.071,4.182,0.123c-0.06,2.065-0.091,3.105-0.152,5.172
						c3.95,0.117,5.927,0.179,9.877,0.299c-0.104,3.309-0.154,4.965-0.258,8.273c0.834,0.031,1.251,0.039,2.086,0.067
						c0.047-1.507,0.07-2.256,0.118-3.76c0.949,0.027,1.424,0.045,2.372,0.074c-0.068,2.144-0.102,3.222-0.171,5.357
						c1.441,0.045,2.162,0.068,3.604,0.116c-0.295,9.081-0.441,13.622-0.735,22.702c-8.221-0.269-12.33-0.388-20.551-0.633
						c0.102-3.535,0.154-5.307,0.258-8.84C998.484,917.822,997.264,917.789,994.822,917.72z"/>
					<path opacity="0.75" fill="#D1D3D4" d="M1000.712,925.182c1.077,0.03,1.617,0.052,2.694,0.079
						c-0.018,0.62-0.028,0.933-0.046,1.553c1.134,0.028,1.698,0.052,2.832,0.085c0.165-5.475,0.246-8.207,0.411-13.68
						c0.303,0.012,0.458,0.016,0.76,0.023c1.836-3.031,2.753-4.547,4.593-7.578c1.725,3.141,2.587,4.711,4.308,7.853
						c0.266,0.006,0.397,0.006,0.663,0.021c-0.1,3.119-0.148,4.687-0.247,7.802c-0.605-0.017-0.907-0.031-1.513-0.048
						c-0.146,4.68-0.22,7.021-0.367,11.702c-1.247-0.037-1.87-0.062-3.116-0.097c-0.036,1.126-0.052,1.694-0.088,2.821
						c-0.962-0.034-1.443-0.042-2.406-0.074c-0.017,0.565-0.025,0.848-0.043,1.411c-3.509-0.11-5.264-0.156-8.773-0.263
						C1000.508,932.144,1000.576,929.828,1000.712,925.182z"/>
					<path opacity="0.75" fill="#E6E7E8" d="M935.807,919.574c-0.078,4.176-0.12,6.26-0.199,10.436l0,0
						c4.108,0.082,6.163,0.122,10.272,0.204c-0.077,3.724-0.116,5.593-0.192,9.311c6.043,0.127,9.068,0.195,15.111,0.33
						c0.865-37.615,1.732-75.223,2.598-112.836c2.533,0.062,3.798,0.088,6.331,0.149c0.033-1.433,0.051-2.143,0.086-3.573
						c-4.723-0.116-7.083-0.17-11.807-0.272c-0.808,36.423-1.617,72.844-2.424,109.266c-1.662-0.035-2.495-0.053-4.156-0.092
						c0.245-11.348,0.491-22.697,0.733-34.041c-0.588-0.015-0.883-0.019-1.471-0.032c0.027-1.281,0.04-1.917,0.068-3.194
						c-2.05-0.048-3.075-0.065-5.124-0.109c0.145-7.072,0.217-10.605,0.362-17.678c0.051-2.481,0.076-3.729,0.127-6.209
						c-3.146-0.064-4.721-0.092-7.867-0.156c-0.089,8.549-0.131,12.828-0.221,21.377c-0.683-0.02-1.026-0.038-1.709-0.055
						C936.118,903.269,936.015,908.7,935.807,919.574L935.807,919.574z"/>
					<path opacity="0.75" fill="#A7A9AC" d="M807.194,929.131c0.489-0.002,0.737-0.002,1.228,0
						c-0.003-4.591-0.006-6.885-0.009-11.477c0.72-0.006,1.077-0.005,1.797-0.002c0.004,7.748,0.006,11.625,0.009,19.373
						c-1.208,0.001-1.809,0.004-3.018,0.002C807.199,933.868,807.197,932.291,807.194,929.131z"/>
					<path opacity="0.75" fill="#A7A9AC" d="M883.868,937.789c1.697,0.019,2.547,0.029,4.245,0.049
						c0.096-8.243,0.143-12.354,0.24-20.595c-1.704-0.023-2.555-0.029-4.259-0.048C884.004,925.435,883.959,929.555,883.868,937.789
						z"/>
					<path opacity="0.75" fill="#BCBEC0" d="M815.801,898.467c1.461-0.002,2.192-0.001,3.654,0.002
						c-0.001,0.681-0.001,1.016-0.002,1.691c1.404,0.004,2.106,0.006,3.51,0.004c-0.001,0.979-0.002,1.466-0.003,2.445
						c0.909-0.002,1.365,0.004,2.275,0.004c-0.005,2.219-0.007,3.328-0.011,5.547c0.342,0.002,0.512,0.002,0.852,0.002
						c-0.011,5.571-0.017,8.357-0.027,13.924c-0.132,0.004-0.196-0.002-0.329,0c0.004-1.92,0.006-2.875,0.01-4.799
						c-0.378,0-0.57,0-0.948-0.002c0.006-3.102,0.009-4.659,0.014-7.76c-3.713,0.089-5.57,0.134-9.284,0.226
						C815.627,905.234,815.685,902.981,815.801,898.467z"/>
					<path opacity="0.75" fill="#E6E7E8" d="M811.155,909.516c-0.001-1.863-0.001-2.793-0.002-4.656c0.948,0,1.422-0.002,2.37,0
						c0,0.935,0,1.397,0,2.326c0.947,0.003,1.424,0.002,2.371,0.003c0,0.928-0.003,1.397-0.003,2.328
						c3.561,0.003,5.343,0.003,8.904,0.009c-0.005,3.104-0.008,4.658-0.014,7.76c0.378,0.002,0.569,0.002,0.948,0.002
						c-0.004,1.918-0.006,2.881-0.01,4.799c-3.668-0.004-5.503-0.012-9.173-0.012c0.001-1.414,0.001-2.123,0.002-3.528
						c-0.624-0.001-0.938,0.001-1.562-0.001c0.001-2.596,0.001-3.895,0.002-6.49c-0.454,0-0.683,0.002-1.137,0.002
						c0-1.01,0-1.525,0-2.541C812.773,909.514,812.234,909.518,811.155,909.516z"/>
					<path opacity="0.75" fill="#D1D3D4" d="M811.153,904.859c0-1.354-0.001-2.035-0.001-3.387c0.36,0.002,0.539,0.002,0.898,0
						c0-2.708,0-4.059-0.001-6.772c0.304,0,0.458,0,0.761,0c0-0.846,0-1.266,0-2.115c0.398,0,0.599,0,0.997,0
						c0,0.436-0.001,0.643-0.001,1.08c0.798,0.002,1.197,0.002,1.995,0.001c-0.002,5.409-0.004,8.114-0.006,13.521
						c-0.909-0.004-1.363-0.005-2.273-0.003c0-0.929,0-1.393,0-2.326C812.575,904.859,812.102,904.859,811.153,904.859z"/>
					<path opacity="0.75" fill="#A7A9AC" d="M815.802,895.925c2.26,0,3.39,0.002,5.649,0.005c-0.002,1.691-0.003,2.535-0.006,4.231
						c-0.797,0-1.195,0-1.992,0c0.001-0.676,0.001-1.016,0.002-1.691c-1.462,0-2.193-0.003-3.654-0.002
						C815.801,897.453,815.801,896.941,815.802,895.925z"/>
					<path opacity="0.75" fill="#E6E7E8" d="M828.081,922.09c0.004-1.764,0.006-2.652,0.01-4.422c1.477,0.002,2.213,0.004,3.69,0.01
						c0.034-11.57,0.066-23.138,0.1-34.705c0.875,0,1.315,0.002,2.189,0.006c-0.022,6.886-0.033,10.325-0.055,17.211
						c1.062,0.004,1.592,0.004,2.655,0.01c-0.036,9.758-0.071,19.5-0.106,29.252c-2.397-0.006-3.597-0.01-5.994-0.019
						c0.008-2.935,0.012-4.399,0.02-7.336C829.587,922.098,829.083,922.095,828.081,922.09z"/>
					<path opacity="0.75" fill="#D1D3D4" d="M828.565,917.67c1.287,0.004,1.928,0.006,3.215,0.008
						c0.034-11.57,0.066-23.138,0.1-34.705c-1.293-0.004-1.938-0.007-3.232-0.009C828.62,894.533,828.594,906.1,828.565,917.67z"/>
					<path opacity="0.75" fill="#D1D3D4" d="M841.756,929.473c-1.058-0.008-1.584-0.004-2.643-0.012
						c0.041-10.082,0.062-15.125,0.102-25.207c1.062,0.005,1.592,0.003,2.653,0.011
						C841.823,914.344,841.801,919.391,841.756,929.473z"/>
					<path opacity="0.75" fill="#E6E7E8" d="M837.17,931.568c1.687-1.668,2.528-2.502,4.216-4.171
						c0.044-10.045,0.066-15.067,0.11-25.108c1.972,0.007,2.959,0.017,4.932,0.023c-0.016,3.042-0.023,4.572-0.039,7.617
						c0.454,0.004,0.683,0.002,1.137,0.006c-0.02,3.725-0.03,5.586-0.05,9.309c1.249,0.008,1.873,0.006,3.121,0.018
						c-0.032,5.631-0.049,8.447-0.082,14.075c-0.799,0.787-1.199,1.184-1.998,1.968c-3.006-0.021-4.511-0.021-7.517-0.037
						C839.468,933.787,838.703,933.049,837.17,931.568z"/>
					<path opacity="0.75" fill="#BCBEC0" d="M852.315,916.359c-1.93-0.016-2.894-0.013-4.824-0.027
						c-0.006,1.168-0.009,1.746-0.016,2.912c1.249,0.008,1.873,0.006,3.121,0.018c-0.032,5.631-0.049,8.447-0.082,14.075
						c0.68,0,1.019,0.003,1.697,0.011C852.253,926.555,852.274,923.152,852.315,916.359z"/>
					<path opacity="0.75" fill="#D1D3D4" d="M865.256,806.169c5.522,0.048,8.283,0.068,13.806,0.124
						c-0.023,2.387-0.036,3.584-0.059,5.971c0.347,0.003,0.519,0.005,0.865,0.009c-0.1,9.782-0.149,14.669-0.249,24.453
						c0.536,0.005,0.805,0.013,1.341,0.015c-0.033,3.156-0.05,4.738-0.082,7.901c0.498,0.005,0.744,0.005,1.242,0.013
						c-0.027,2.594-0.041,3.891-0.068,6.486c1.108,0.014,1.663,0.021,2.771,0.031c-0.318,28.875-0.636,57.74-0.954,86.617
						c-3.056-0.034-4.582-0.05-7.638-0.08c0.088-8.916,0.132-13.372,0.22-22.287c-0.492-0.002-0.738-0.004-1.231-0.012
						c0.019-1.938,0.027-2.906,0.047-4.844c-0.7-0.004-1.051-0.012-1.751-0.018c-0.511-0.006-0.768-0.01-1.278-0.012
						c0.174-18.971,0.349-37.932,0.521-56.899c-0.917-0.007-1.374-0.011-2.291-0.021c0.027-3.026,0.04-4.544,0.067-7.572
						c-1.493-0.01-2.24-0.016-3.733-0.031c0.024-3.011,0.038-4.513,0.062-7.523c-0.46-0.004-0.689-0.007-1.148-0.01
						c0.027-3.309,0.039-4.965,0.066-8.278c-0.288-0.001-0.43-0.003-0.718-0.005C865.141,820.584,865.18,815.781,865.256,806.169z"
						/>
					<path opacity="0.75" fill="#E6E7E8" d="M883.838,940.521c1.754,0.023,2.629,0.026,4.383,0.05
						c0.772-0.75,1.159-1.133,1.933-1.885c5.346,0.07,8.02,0.104,13.365,0.174c0.055-3.921,0.083-5.879,0.138-9.803
						c-1.246-0.012-1.87-0.027-3.117-0.043c-0.009,0.647-0.013,0.974-0.021,1.623c-0.681-0.006-1.02-0.014-1.7-0.023
						c0.146-10.893,0.218-16.334,0.363-27.227c-0.171-0.002-0.257-0.004-0.427-0.006c0.014-1.041,0.021-1.562,0.035-2.608
						c-0.797-0.01-1.196-0.017-1.993-0.026c0.012-0.877,0.018-1.312,0.028-2.188c-1.053-0.01-1.579-0.018-2.632-0.033
						c-0.024,1.945-0.037,2.92-0.062,4.866c-1.08-0.011-1.62-0.021-2.7-0.032c-0.115,9.496-0.23,18.995-0.346,28.496
						c-1.529-0.016-2.294-0.033-3.822-0.046c-0.027,2.408-0.041,3.607-0.069,6.018c-1.33-0.013-1.995-0.022-3.325-0.038
						C883.855,938.883,883.85,939.426,883.838,940.521z"/>
					<path opacity="0.75" fill="#D1D3D4" d="M914.852,810.14c0.317,0.002,0.475,0.006,0.793,0.013
						c-0.024,1.552-0.037,2.325-0.061,3.877c0.519,0.007,0.779,0.015,1.298,0.021c-0.066,4.204-0.1,6.308-0.166,10.509
						c-0.433-0.004-0.648-0.01-1.08-0.018c-0.145,9.256-0.218,13.883-0.362,23.135c-0.401-0.004-0.604-0.009-1.004-0.016
						C914.463,835.152,914.658,822.648,914.852,810.14z"/>
					<path opacity="0.75" fill="#A7A9AC" d="M923.07,929.783c1.647,0.023,2.469,0.037,4.114,0.072
						c0.169-9.512,0.338-19.027,0.507-28.54c-1.652-0.03-2.481-0.044-4.132-0.072C923.396,910.757,923.233,920.269,923.07,929.783z"
						/>
					<path opacity="0.75" fill="#E6E7E8" d="M928.999,929.887c-2.04-0.037-3.06-0.049-5.099-0.09c0.035-2.071,0.054-3.1,0.089-5.17
						c2.041,0.04,3.062,0.051,5.103,0.09C929.055,926.787,929.036,927.816,928.999,929.887z"/>
					<path opacity="0.75" fill="#D1D3D4" d="M924.075,919.672c2.043,0.037,3.063,0.053,5.106,0.09
						c-0.036,1.977-0.054,2.974-0.09,4.955c-2.041-0.043-3.062-0.051-5.103-0.09C924.024,922.646,924.041,921.653,924.075,919.672z"
						/>
					<path opacity="0.75" fill="#BCBEC0" d="M924.252,909.393c1.743,0.032,2.615,0.045,4.357,0.076
						c-0.074,4.108-0.111,6.164-0.185,10.28c-1.739-0.03-2.609-0.048-4.35-0.077C924.145,915.56,924.181,913.504,924.252,909.393z"
						/>
					<path opacity="0.75" fill="#A7A9AC" d="M935.607,930.01c-2.945-0.059-4.418-0.084-7.363-0.137
						c0.176-9.857,0.265-14.782,0.441-24.639c2.956,0.057,4.435,0.078,7.392,0.138C935.89,915.229,935.795,920.15,935.607,930.01z"
						/>
					<path opacity="0.75" fill="#D1D3D4" d="M973.068,855.191c-1.834-0.045-2.752-0.07-4.586-0.111
						c0.251-10.496,0.502-21.002,0.754-31.5c1.574,0.037,2.358,0.059,3.934,0.096c-0.113,4.623-0.17,6.941-0.283,11.564
						c0.269,0.003,0.403,0.011,0.672,0.018C973.362,843.231,973.265,847.218,973.068,855.191z"/>
					<path opacity="0.75" fill="#BCBEC0" d="M955.201,932.578c-1.511-0.033-2.265-0.051-3.775-0.082
						c0.156-7.258,0.234-10.889,0.392-18.148c1.515,0.033,2.271,0.048,3.785,0.083C955.442,921.688,955.362,925.325,955.201,932.578
						z"/>
					<path opacity="0.75" fill="#A7A9AC" d="M986.383,921.676c-1.702-0.05-2.553-0.069-4.255-0.113
						c0.123-4.664,0.185-6.994,0.307-11.658c1.705,0.042,2.558,0.067,4.263,0.113C986.571,914.68,986.509,917.014,986.383,921.676z"
						/>
					<path opacity="0.75" fill="#BCBEC0" d="M974.243,939.707c2.132,0.054,3.197,0.08,5.328,0.135
						c0.284-10.943,0.427-16.414,0.711-27.359c-2.141-0.057-3.212-0.08-5.352-0.137C974.656,923.293,974.519,928.76,974.243,939.707
						z"/>
					<path opacity="0.75" fill="#E6E7E8" d="M974.501,929.459c0.774,0.02,1.163,0.029,1.938,0.049
						c-0.1,3.909-0.149,5.868-0.249,9.777c1.584,0.04,2.378,0.06,3.962,0.103c0.197-7.564,0.296-11.337,0.492-18.898
						c0.945,0.023,1.415,0.037,2.361,0.062c0.04-1.506,0.06-2.258,0.099-3.759c1.136,0.027,1.708,0.049,2.843,0.074
						c0.031-1.166,0.047-1.752,0.078-2.918c2.045,0.053,3.065,0.08,5.11,0.139c-0.039,1.412-0.059,2.115-0.098,3.526
						c-0.112,4.063-0.169,6.093-0.28,10.155c-2.627-0.074-3.941-0.103-6.567-0.178c-0.147,5.53-0.221,8.294-0.368,13.822
						c-0.452-0.014-0.68-0.02-1.132-0.03c-0.022,0.846-0.034,1.27-0.056,2.115c-3.394-0.089-5.088-0.132-8.481-0.218
						C974.292,937.754,974.362,934.99,974.501,929.459z"/>
					<path opacity="0.75" fill="#D1D3D4" d="M1031.803,927.719c-2.684-0.088-4.026-0.133-6.711-0.225
						c0.08-2.429,0.12-3.639,0.2-6.063c2.687,0.091,4.032,0.132,6.717,0.226C1031.926,924.081,1031.885,925.295,1031.803,927.719z"
						/>
					<path opacity="0.75" fill="#E6E7E8" d="M1021.218,927.367c4.006,0.131,6.01,0.195,10.016,0.332
						c0.054-1.6,0.082-2.391,0.136-3.992c1.398,0.051,2.097,0.069,3.497,0.119c-0.056,1.598-0.083,2.396-0.138,3.993
						c0.377,0.013,0.568,0.023,0.945,0.032c-0.055,1.598-0.083,2.396-0.139,3.994c-1.133-0.037-1.699-0.059-2.832-0.098
						c-0.058,1.693-0.088,2.541-0.146,4.231c-5.604-0.189-8.407-0.283-14.013-0.463c-0.921-1.33-1.382-1.993-2.304-3.32
						c0.063-1.993,0.095-2.992,0.158-4.982C1018.327,927.274,1019.29,927.308,1021.218,927.367z"/>
					<path opacity="0.75" fill="#BCBEC0" d="M1025.292,921.431c0,0,0.228-13.016,0.423-12.81c0.195,0.209,4.166,0.137,4.166,0.137
						c-0.115,3.434-0.173,5.148-0.288,8.582c1.022,0.032,1.537,0.049,2.56,0.086c-0.057,1.691-0.086,2.539-0.144,4.231
						C1029.324,921.565,1027.979,921.521,1025.292,921.431z"/>
					<g>
						<path fill="#FFFFFF" d="M1035.535,931.846c-1.133-0.037-1.699-0.059-2.832-0.098c-0.058,1.693-0.088,2.541-0.146,4.231
							c-5.604-0.189-8.407-0.283-14.013-0.463c-0.921-1.33-1.382-1.993-2.304-3.32c0.138-4.344,0.206-6.514,0.344-10.858
							c-0.567-0.02-0.851-0.025-1.418-0.045c-0.072,2.314-0.108,3.472-0.182,5.783c-0.074,2.372-0.111,3.55-0.186,5.919
							c-1.247-0.037-1.87-0.062-3.116-0.097c-0.036,1.126-0.052,1.694-0.088,2.821c-0.962-0.034-1.443-0.042-2.406-0.074
							c-0.017,0.565-0.025,0.848-0.043,1.411c-3.509-0.11-5.264-0.156-8.773-0.263c0.221-7.559,0.332-11.338,0.552-18.899
							c-3.975-0.114-5.96-0.174-9.935-0.281c-0.113,4.061-0.168,6.094-0.281,10.155c-2.608-0.073-3.911-0.104-6.52-0.177
							c-0.077,2.935-0.117,4.396-0.195,7.332c-0.069,2.594-0.104,3.893-0.173,6.49c-0.452-0.014-0.68-0.02-1.132-0.03
							c-0.022,0.846-0.034,1.27-0.056,2.115c-3.394-0.089-5.088-0.132-8.481-0.218c0.737-29.335,1.475-58.668,2.211-88.009
							c-2.925-0.075-4.384-0.107-7.308-0.179c0.268-11.169,0.401-16.755,0.67-27.926c-2.533-0.061-3.797-0.088-6.331-0.149
							c-0.866,37.611-1.731,75.224-2.598,112.836c-5.94-0.134-8.915-0.2-14.854-0.324c-0.129-18.771-0.265-37.543-0.403-56.315
							c-1.826-0.036-2.74-0.054-4.565-0.092c-0.241,12.178-0.481,24.356-0.723,36.534c-3.179-0.06-4.768-0.093-7.946-0.151
							c-0.077,4.176-0.116,6.261-0.193,10.436c-4.022-0.076-6.031-0.109-10.054-0.178c0.44-25.951,0.88-51.914,1.32-77.865
							c-0.344-0.005-0.516-0.012-0.859-0.016c0.027-1.64,0.041-2.451,0.068-4.09c-0.457-0.002-0.689-0.014-1.148-0.02
							c0.154-9.254,0.232-13.877,0.385-23.134c-2.475-0.044-3.714-0.062-6.19-0.101c-0.145,9.256-0.218,13.883-0.362,23.135
							c-0.401-0.004-0.604-0.009-1.004-0.016c-0.272,17.488-0.544,34.984-0.815,52.475c-0.627-0.011-0.939-0.021-1.565-0.024
							c0.234-15.327,0.469-30.659,0.703-45.986c-0.803-0.014-1.202-0.018-2.005-0.031c0.146-9.732,0.292-19.459,0.438-29.199
							c-1.261-0.413-1.892-0.618-3.153-1.034c0.065-4.457,0.098-6.687,0.162-11.144c-0.693-0.009-1.039-0.021-1.732-0.025
							c-0.614,43.117-1.227,86.235-1.842,129.357c-0.394-0.008-0.592-0.01-0.987-0.014c0.021-1.416,0.03-2.118,0.05-3.527
							c-5.487-0.082-8.23-0.112-13.718-0.178c-0.632,0.895-0.953,1.342-1.585,2.24c-3.789-0.043-5.683-0.062-9.472-0.104
							c-1.301-0.012-1.949-0.021-3.251-0.033c-0.905-0.008-1.356-0.013-2.262-0.021c0.093-9.937,0.186-19.875,0.279-29.816
							c-0.512-0.011-0.767-0.009-1.278-0.012c0.174-18.983,0.348-37.963,0.521-56.946c-0.917-0.007-1.374-0.011-2.291-0.021
							c0.027-3.026,0.04-4.544,0.067-7.572c-1.493-0.01-2.24-0.016-3.733-0.031c0.024-3.011,0.038-4.513,0.062-7.523
							c-0.46-0.004-0.689-0.007-1.148-0.01c0.027-3.385,0.04-5.074,0.068-8.465c-0.288-0.002-0.431-0.004-0.718-0.006
							c0.075-9.541,0.113-14.303,0.189-23.841c-0.982-0.007-1.474-0.013-2.455-0.018c-0.074,9.928-0.112,14.898-0.188,24.829
							c-1.093-0.005-1.639-0.015-2.732-0.021c-0.016,2.202-0.023,3.3-0.039,5.502c-1.265-0.01-1.898-0.012-3.162-0.021
							c-0.204,30.707-0.409,61.415-0.614,92.123c-0.905-0.006-1.358-0.01-2.265-0.014c-0.013,1.92-0.019,2.886-0.03,4.808
							c-1.185-0.008-1.776-0.01-2.962-0.018c-0.857,0.848-1.287,1.277-2.146,2.118c-3.065-0.017-4.599-0.025-7.664-0.038
							c-1.737-1.748-2.605-2.624-4.344-4.367c0.002-0.643,0.003-0.958,0.006-1.6c-2.436-0.007-3.656-0.008-6.092-0.019
							c0.008-2.935,0.012-4.399,0.02-7.336c-5.617-0.013-8.424-0.022-14.041-0.022c0.001-1.414,0.001-2.123,0.002-3.528
							c-0.624-0.001-0.938,0.001-1.562-0.001c0.001-2.596,0.001-3.895,0.002-6.49c-0.454,0-0.683,0.002-1.137,0.002
							c0-1.01,0-1.525,0-2.541c-1.08-0.002-1.619,0.002-2.698,0c-0.001,0.322,0,0.48,0,0.799
							c0.003,10.682,0.006,16.023,0.009,26.711c-1.584,0.004-2.378,0-3.963,0.002c-5.43,2.829-8.141,4.248-13.561,7.083
							c-2.6,0.012-3.902,0.016-6.502,0.023c-0.042-9.942-0.08-19.874-0.122-29.815c-0.568,0.003-0.849,0.003-1.417,0.006
							c-0.009-2.073-0.014-3.104-0.022-5.173c-0.53,0.002-0.797,0.004-1.327,0.006c0.026,5.644,0.038,8.467,0.063,14.107
							c-1.626,0.012-2.44,0.007-4.066,0.019c0.011,2.073,0.017,3.105,0.027,5.174c-0.944,0.001-1.417,0.009-2.361,0.013
							c0.006,1.055,0.009,1.58,0.015,2.636c-2.568,0.013-3.852,0.025-6.421,0.038c-0.007-1.051-0.01-1.584-0.017-2.635
							c-1.704,0.012-2.555,0.017-4.259,0.029c-1.915,1.07-2.873,1.602-4.788,2.672c0.012,1.505,0.018,2.261,0.03,3.76
							c-6.923,2.617-10.382,3.924-17.294,6.556c-5.429,0.059-8.144,0.092-13.573,0.159c0.043,3.367,0.064,5.053,0.107,8.417
							c101.03-1.294,202.084-0.184,303.075,3.316c0.12-3.495,0.182-5.245,0.303-8.744
							C1035.269,939.539,1035.357,936.979,1035.535,931.846z"/>
					</g>
				</g>
			</g>
			<g>
				<path fill="#D1D3D4" d="M720.035,906.81c0.207,14.298,0.414,28.595,0.621,42.892c5.424-0.077,10.849-0.148,16.273-0.214
					c-1.166-1.814-2.334-3.629-3.502-5.443c0.491-0.006,0.982-0.012,1.473-0.018c-1.133-1.748-2.267-3.498-3.402-5.246
					c0.523-0.006,1.047-0.012,1.571-0.019c-1.102-1.748-2.205-3.498-3.308-5.246c0.491-0.007,0.982-0.013,1.473-0.02
					c-1.137-1.748-2.274-3.498-3.413-5.246c0.591-0.008,1.182-0.016,1.772-0.023c-1.237-1.812-2.475-3.624-3.714-5.435
					c0.558-0.008,1.115-0.016,1.672-0.022c-1.172-1.748-2.345-3.494-3.519-5.24c0.624-0.008,1.248-0.017,1.872-0.025
					c-1.173-1.748-2.347-3.495-3.522-5.242c0.558-0.008,1.116-0.016,1.675-0.023C722.717,910.428,721.377,908.619,720.035,906.81z"
					/>
				<path fill="#FFFFFF" d="M720.035,906.81c0.207,14.298,0.414,28.595,0.621,42.892c-5.424,0.078-10.848,0.164-16.271,0.257
					c1.112-1.848,2.226-3.695,3.34-5.542c-0.49,0.009-0.981,0.017-1.471,0.025c1.083-1.781,2.166-3.562,3.25-5.344
					c-0.524,0.01-1.048,0.017-1.572,0.026c1.051-1.78,2.104-3.562,3.157-5.341c-0.491,0.008-0.982,0.015-1.474,0.023
					c1.085-1.781,2.171-3.562,3.258-5.342c-0.59,0.01-1.18,0.018-1.77,0.027c1.184-1.848,2.369-3.693,3.555-5.539
					c-0.558,0.008-1.116,0.018-1.674,0.025c1.121-1.779,2.242-3.56,3.365-5.34c-0.624,0.01-1.248,0.02-1.872,0.029
					c1.122-1.781,2.247-3.562,3.371-5.342c-0.56,0.009-1.119,0.017-1.678,0.025C717.456,910.504,718.745,908.656,720.035,906.81z"/>
			</g>
			<g>
				<path fill="#D1D3D4" d="M632.039,908.685c0.402,14.293,0.805,28.586,1.207,42.88c5.423-0.151,10.846-0.298,16.269-0.438
					c-1.191-1.798-2.383-3.597-3.576-5.395c0.491-0.013,0.981-0.025,1.472-0.038c-1.157-1.732-2.314-3.467-3.473-5.199
					c0.523-0.014,1.047-0.029,1.57-0.042c-1.126-1.734-2.252-3.467-3.379-5.201c0.491-0.013,0.982-0.026,1.472-0.039
					c-1.16-1.733-2.321-3.466-3.484-5.198c0.591-0.017,1.181-0.032,1.772-0.049c-1.262-1.794-2.525-3.588-3.789-5.383
					c0.557-0.015,1.115-0.03,1.672-0.045c-1.196-1.731-2.393-3.461-3.59-5.191c0.624-0.017,1.248-0.034,1.872-0.051
					c-1.197-1.732-2.395-3.463-3.593-5.193c0.558-0.016,1.116-0.031,1.674-0.047C634.771,912.267,633.405,910.476,632.039,908.685z"
					/>
				<path fill="#FFFFFF" d="M632.039,908.685c0.402,14.293,0.805,28.586,1.207,42.88c-5.423,0.151-10.845,0.312-16.268,0.478
					c1.087-1.862,2.176-3.725,3.265-5.587c-0.49,0.015-0.981,0.029-1.471,0.045c1.058-1.797,2.117-3.592,3.177-5.387
					c-0.524,0.016-1.048,0.031-1.572,0.047c1.027-1.795,2.055-3.59,3.084-5.384c-0.491,0.014-0.982,0.028-1.473,0.044
					c1.061-1.795,2.123-3.592,3.186-5.387c-0.59,0.018-1.18,0.035-1.77,0.053c1.159-1.863,2.318-3.726,3.479-5.588
					c-0.558,0.016-1.116,0.031-1.673,0.049c1.096-1.795,2.193-3.59,3.292-5.385c-0.624,0.017-1.248,0.035-1.872,0.054
					c1.098-1.796,2.198-3.593,3.298-5.388c-0.559,0.017-1.119,0.032-1.678,0.049C629.511,912.414,630.774,910.551,632.039,908.685z"
					/>
			</g>
			<g>
				<path fill="#D1D3D4" d="M592.297,919.697c0.392,11.392,0.783,22.783,1.175,34.174c4.322-0.148,8.643-0.293,12.965-0.434
					c-0.959-1.428-1.918-2.854-2.879-4.281c0.391-0.012,0.782-0.025,1.173-0.037c-0.932-1.376-1.863-2.751-2.796-4.127
					c0.417-0.013,0.834-0.026,1.251-0.041c-0.906-1.375-1.812-2.752-2.72-4.129c0.391-0.013,0.782-0.024,1.173-0.037
					c-0.934-1.376-1.868-2.751-2.802-4.127c0.47-0.016,0.94-0.031,1.411-0.047c-1.015-1.424-2.029-2.848-3.045-4.272
					c0.444-0.016,0.888-0.029,1.332-0.045c-0.961-1.373-1.923-2.746-2.886-4.119c0.497-0.018,0.994-0.033,1.49-0.051
					c-0.961-1.375-1.924-2.747-2.887-4.121c0.444-0.014,0.888-0.029,1.332-0.045C594.49,922.539,593.394,921.119,592.297,919.697z"
					/>
				<path fill="#FFFFFF" d="M592.297,919.697c0.392,11.392,0.783,22.783,1.175,34.174c-4.321,0.148-8.642,0.302-12.963,0.459
					c0.858-1.49,1.717-2.98,2.576-4.469c-0.391,0.014-0.781,0.027-1.172,0.041c0.835-1.435,1.67-2.872,2.506-4.307
					c-0.417,0.014-0.835,0.029-1.252,0.045c0.81-1.437,1.621-2.871,2.432-4.307c-0.391,0.016-0.782,0.028-1.174,0.043
					c0.837-1.438,1.674-2.875,2.512-4.309c-0.47,0.017-0.939,0.032-1.409,0.049c0.914-1.49,1.829-2.98,2.744-4.471
					c-0.444,0.016-0.889,0.031-1.333,0.047c0.865-1.436,1.73-2.871,2.596-4.309c-0.497,0.017-0.993,0.035-1.49,0.053
					c0.866-1.437,1.732-2.873,2.599-4.309c-0.445,0.016-0.891,0.031-1.335,0.046C590.304,922.683,591.3,921.19,592.297,919.697z"/>
			</g>
			<g>
				<path fill="#D1D3D4" d="M573.341,920.377c0.425,11.391,0.851,22.779,1.276,34.17c4.321-0.161,8.643-0.317,12.964-0.471
					c-0.963-1.425-1.927-2.849-2.892-4.273c0.391-0.014,0.782-0.027,1.173-0.041c-0.935-1.373-1.871-2.746-2.808-4.118
					c0.417-0.014,0.833-0.028,1.25-0.044c-0.91-1.373-1.821-2.748-2.732-4.121c0.391-0.014,0.782-0.027,1.173-0.042
					c-0.938-1.372-1.876-2.745-2.815-4.118c0.47-0.017,0.94-0.033,1.411-0.051c-1.019-1.42-2.038-2.842-3.058-4.262
					c0.444-0.016,0.888-0.033,1.332-0.049c-0.965-1.371-1.931-2.741-2.898-4.112c0.497-0.018,0.994-0.036,1.49-0.054
					c-0.966-1.371-1.932-2.742-2.899-4.112c0.444-0.018,0.888-0.033,1.333-0.05C575.542,923.211,574.442,921.795,573.341,920.377z"
					/>
				<path fill="#FFFFFF" d="M573.341,920.377c0.425,11.391,0.851,22.779,1.276,34.17c-4.321,0.161-8.641,0.328-12.962,0.497
					c0.854-1.492,1.708-2.984,2.563-4.477c-0.391,0.017-0.781,0.03-1.172,0.046c0.831-1.438,1.662-2.877,2.494-4.315
					c-0.417,0.017-0.835,0.032-1.252,0.049c0.806-1.438,1.612-2.875,2.419-4.313c-0.391,0.016-0.782,0.031-1.173,0.047
					c0.832-1.441,1.665-2.879,2.498-4.316c-0.469,0.018-0.939,0.036-1.409,0.054c0.91-1.493,1.82-2.985,2.731-4.479
					c-0.444,0.018-0.889,0.035-1.333,0.051c0.86-1.438,1.721-2.877,2.583-4.315c-0.497,0.019-0.994,0.038-1.49,0.057
					c0.862-1.438,1.724-2.878,2.587-4.317c-0.445,0.018-0.89,0.033-1.336,0.051C571.356,923.367,572.348,921.873,573.341,920.377z"
					/>
			</g>
			<g>
				<path fill="#D1D3D4" d="M458.695,925.683c0.629,11.38,1.257,22.763,1.886,34.142c4.318-0.238,8.637-0.474,12.956-0.702
					c-0.988-1.406-1.978-2.813-2.967-4.221c0.391-0.021,0.781-0.042,1.172-0.064c-0.96-1.355-1.92-2.71-2.881-4.066
					c0.417-0.022,0.833-0.044,1.25-0.066c-0.935-1.357-1.87-2.714-2.806-4.071c0.391-0.021,0.781-0.042,1.172-0.063
					c-0.962-1.356-1.925-2.711-2.888-4.066c0.47-0.025,0.94-0.051,1.41-0.076c-1.044-1.402-2.089-2.805-3.134-4.207
					c0.443-0.025,0.887-0.049,1.331-0.073c-0.99-1.352-1.98-2.706-2.971-4.06c0.496-0.027,0.993-0.053,1.489-0.08
					c-0.99-1.354-1.982-2.707-2.973-4.06c0.444-0.024,0.888-0.048,1.332-0.072C460.947,928.477,459.822,927.08,458.695,925.683z"/>
				<path fill="#FFFFFF" d="M458.695,925.683c0.629,11.38,1.257,22.763,1.886,34.142c-4.318,0.24-8.636,0.482-12.954,0.728
					c0.827-1.508,1.655-3.015,2.483-4.521c-0.39,0.021-0.781,0.045-1.171,0.066c0.805-1.453,1.611-2.906,2.417-4.359
					c-0.417,0.023-0.834,0.048-1.251,0.071c0.78-1.452,1.56-2.903,2.342-4.354c-0.391,0.022-0.782,0.044-1.173,0.066
					c0.807-1.455,1.614-2.908,2.422-4.361c-0.469,0.026-0.939,0.054-1.408,0.08c0.883-1.51,1.767-3.018,2.651-4.527
					c-0.444,0.024-0.888,0.05-1.332,0.074c0.835-1.453,1.67-2.907,2.506-4.361c-0.497,0.029-0.993,0.057-1.489,0.084
					c0.836-1.455,1.672-2.909,2.509-4.362c-0.445,0.024-0.889,0.049-1.334,0.073C456.764,928.708,457.729,927.195,458.695,925.683z"
					/>
			</g>
			<g>
				<path fill="#D1D3D4" d="M655.81,917.828c0.279,11.395,0.558,22.789,0.837,34.184c4.322-0.106,8.645-0.208,12.967-0.305
					c-0.945-1.438-1.89-2.874-2.836-4.31c0.391-0.008,0.782-0.018,1.173-0.027c-0.917-1.384-1.836-2.767-2.754-4.152
					c0.417-0.008,0.835-0.019,1.251-0.028c-0.893-1.386-1.785-2.77-2.679-4.155c0.391-0.01,0.782-0.02,1.173-0.027
					c-0.92-1.385-1.84-2.769-2.761-4.152c0.47-0.012,0.941-0.023,1.411-0.034c-1-1.434-2-2.868-3.003-4.302
					c0.444-0.01,0.888-0.021,1.332-0.031c-0.948-1.384-1.896-2.767-2.845-4.148c0.497-0.012,0.994-0.023,1.491-0.035
					c-0.948-1.385-1.897-2.767-2.846-4.148c0.444-0.011,0.889-0.023,1.333-0.033C657.974,920.691,656.892,919.258,655.81,917.828z"
					/>
				<path fill="#FFFFFF" d="M655.81,917.828c0.279,11.395,0.558,22.789,0.837,34.184c-4.322,0.105-8.645,0.216-12.966,0.33
					c0.872-1.481,1.746-2.962,2.62-4.443c-0.391,0.01-0.781,0.021-1.172,0.031c0.849-1.428,1.698-2.855,2.548-4.283
					c-0.417,0.012-0.835,0.022-1.253,0.032c0.824-1.427,1.648-2.854,2.474-4.281c-0.391,0.011-0.783,0.021-1.174,0.03
					c0.851-1.428,1.702-2.855,2.554-4.283c-0.47,0.012-0.94,0.024-1.41,0.035c0.929-1.482,1.858-2.962,2.788-4.443
					c-0.444,0.012-0.889,0.023-1.333,0.034c0.878-1.428,1.758-2.856,2.638-4.282c-0.497,0.012-0.993,0.024-1.49,0.037
					c0.88-1.428,1.761-2.855,2.642-4.283c-0.445,0.011-0.891,0.022-1.336,0.033C653.787,920.793,654.798,919.31,655.81,917.828z"/>
			</g>
			<g>
				<path fill="#D1D3D4" d="M674.771,917.392c0.246,11.396,0.491,22.79,0.737,34.185c4.322-0.093,8.645-0.181,12.968-0.267
					c-0.94-1.439-1.881-2.879-2.823-4.318c0.391-0.008,0.782-0.016,1.173-0.023c-0.914-1.387-1.828-2.773-2.742-4.16
					c0.417-0.009,0.834-0.017,1.251-0.025c-0.888-1.389-1.777-2.775-2.666-4.163c0.391-0.008,0.782-0.016,1.173-0.024
					c-0.915-1.387-1.832-2.774-2.748-4.161c0.47-0.011,0.941-0.019,1.411-0.028c-0.996-1.439-1.992-2.874-2.989-4.311
					c0.444-0.01,0.888-0.019,1.332-0.027c-0.943-1.387-1.888-2.772-2.833-4.158c0.497-0.01,0.994-0.02,1.491-0.03
					c-0.944-1.386-1.889-2.772-2.833-4.157c0.444-0.009,0.889-0.018,1.333-0.028C676.927,920.261,675.849,918.825,674.771,917.392z"
					/>
				<path fill="#FFFFFF" d="M674.771,917.392c0.246,11.396,0.491,22.79,0.737,34.185c-4.323,0.093-8.645,0.19-12.967,0.292
					c0.877-1.478,1.755-2.957,2.633-4.435c-0.391,0.01-0.781,0.018-1.172,0.027c0.854-1.426,1.707-2.852,2.561-4.275
					c-0.418,0.01-0.835,0.02-1.253,0.029c0.829-1.426,1.657-2.85,2.487-4.273c-0.392,0.008-0.783,0.018-1.174,0.026
					c0.855-1.427,1.711-2.851,2.567-4.276c-0.47,0.01-0.94,0.021-1.41,0.031c0.933-1.479,1.867-2.957,2.801-4.435
					c-0.444,0.011-0.888,0.018-1.333,0.03c0.883-1.426,1.766-2.85,2.65-4.275c-0.497,0.012-0.994,0.022-1.49,0.033
					c0.884-1.424,1.769-2.85,2.654-4.275c-0.445,0.01-0.891,0.02-1.336,0.029C672.739,920.35,673.754,918.871,674.771,917.392z"/>
			</g>
			<g>
				<path fill="#D1D3D4" d="M542.809,911.816c0.601,14.287,1.201,28.572,1.802,42.859c5.421-0.228,10.842-0.45,16.264-0.663
					c-1.216-1.782-2.433-3.563-3.65-5.345c0.49-0.02,0.981-0.039,1.472-0.059c-1.181-1.717-2.363-3.436-3.546-5.15
					c0.523-0.019,1.046-0.043,1.569-0.063c-1.15-1.718-2.3-3.435-3.452-5.153c0.491-0.019,0.981-0.041,1.472-0.061
					c-1.185-1.716-2.37-3.434-3.556-5.15c0.59-0.023,1.181-0.047,1.771-0.071c-1.287-1.777-2.575-3.553-3.863-5.33
					c0.557-0.022,1.114-0.046,1.671-0.069c-1.22-1.713-2.44-3.428-3.663-5.141c0.624-0.025,1.248-0.051,1.872-0.076
					c-1.221-1.715-2.443-3.43-3.666-5.144c0.558-0.023,1.116-0.046,1.674-0.069C545.59,915.359,544.2,913.587,542.809,911.816z"/>
				<path fill="#FFFFFF" d="M542.809,911.816c0.601,14.287,1.201,28.572,1.802,42.859c-5.421,0.229-10.841,0.463-16.262,0.703
					c1.062-1.877,2.124-3.754,3.188-5.631c-0.49,0.021-0.98,0.043-1.47,0.065c1.033-1.81,2.067-3.62,3.103-5.43
					c-0.524,0.023-1.048,0.046-1.572,0.068c1.002-1.809,2.005-3.617,3.01-5.426c-0.491,0.023-0.982,0.044-1.473,0.064
					c1.036-1.81,2.073-3.619,3.111-5.43c-0.59,0.025-1.18,0.051-1.769,0.076c1.133-1.878,2.267-3.757,3.402-5.635
					c-0.558,0.024-1.115,0.049-1.673,0.072c1.071-1.811,2.144-3.621,3.217-5.431c-0.624,0.026-1.248,0.052-1.872,0.08
					c1.074-1.811,2.148-3.622,3.224-5.433c-0.559,0.024-1.119,0.048-1.678,0.071C540.332,915.58,541.57,913.699,542.809,911.816z"/>
			</g>
			<g>
				<path fill="#D1D3D4" d="M441.434,917.351c0.826,14.274,1.651,28.55,2.477,42.824c5.418-0.312,10.836-0.62,16.254-0.919
					c-1.244-1.762-2.489-3.525-3.735-5.287c0.49-0.027,0.981-0.055,1.471-0.082c-1.208-1.699-2.418-3.395-3.627-5.092
					c0.523-0.029,1.045-0.059,1.568-0.088c-1.177-1.701-2.355-3.4-3.533-5.101c0.49-0.027,0.98-0.055,1.471-0.083
					c-1.211-1.696-2.424-3.394-3.637-5.092c0.59-0.033,1.18-0.066,1.771-0.1c-1.315-1.757-2.631-3.514-3.948-5.269
					c0.557-0.032,1.113-0.063,1.67-0.096c-1.247-1.694-2.495-3.388-3.744-5.082c0.624-0.036,1.247-0.072,1.87-0.108
					c-1.248-1.695-2.497-3.389-3.746-5.083c0.557-0.032,1.115-0.065,1.672-0.096C444.271,920.85,442.853,919.1,441.434,917.351z"/>
				<path fill="#FFFFFF" d="M441.434,917.351c0.826,14.274,1.651,28.55,2.477,42.824c-5.417,0.313-10.834,0.634-16.25,0.96
					c1.032-1.895,2.065-3.787,3.099-5.682c-0.49,0.029-0.979,0.059-1.47,0.089c1.005-1.825,2.011-3.652,3.017-5.477
					c-0.523,0.031-1.047,0.062-1.571,0.094c0.974-1.824,1.948-3.648,2.924-5.473c-0.49,0.027-0.981,0.059-1.471,0.087
					c1.007-1.825,2.016-3.651,3.025-5.478c-0.589,0.035-1.179,0.07-1.768,0.105c1.103-1.897,2.207-3.794,3.313-5.69
					c-0.558,0.033-1.115,0.065-1.672,0.099c1.043-1.827,2.087-3.653,3.132-5.48c-0.624,0.036-1.247,0.072-1.87,0.109
					c1.045-1.826,2.091-3.654,3.138-5.481c-0.559,0.032-1.118,0.065-1.676,0.098C439.017,921.152,440.225,919.252,441.434,917.351z"
					/>
			</g>
			<path fill="#FFFFFF" d="M531.19,953.152c-19.803,0.875-39.603,1.84-59.399,2.898c0.033,0.628,0.067,1.255,0.101,1.883
				c19.79-1.059,39.584-2.024,59.381-2.898C531.246,954.408,531.218,953.781,531.19,953.152z"/>
			<g>
				<path fill="#47BCB6" d="M472.89,891.275c0.047,15.832,0.1,31.664,0.158,47.496c3.727-0.197,7.453-0.393,11.179-0.584
					c-1.422-15.847-2.848-31.693-4.279-47.539C477.595,890.856,475.242,891.065,472.89,891.275z"/>
				<path fill="#FFFFFF" d="M472.902,895.519c0.004,1.243,0.007,2.486,0.011,3.729c2.575-0.129,5.15-0.256,7.726-0.381
					c-0.111-1.245-0.221-2.489-0.332-3.735C477.839,895.26,475.371,895.389,472.902,895.519z"/>
				<path fill="#FFFFFF" d="M472.898,903.97c0.006,1.238,0.013,2.475,0.019,3.713c2.834-0.155,5.668-0.308,8.502-0.459
					c-0.11-1.227-0.22-2.454-0.33-3.682C478.359,903.683,475.629,903.825,472.898,903.97z"/>
				<path fill="#FFFFFF" d="M472.905,912.588c0.003,1.229,0.006,2.455,0.009,3.684c3.095-0.164,6.191-0.324,9.286-0.484
					c-0.11-1.229-0.219-2.455-0.329-3.683C478.883,912.264,475.894,912.424,472.905,912.588z"/>
				<path fill="#FFFFFF" d="M472.941,921.457c-0.002,1.228-0.004,2.457-0.005,3.684c3.357-0.184,6.715-0.363,10.073-0.541
					c-0.114-1.223-0.228-2.444-0.343-3.666C479.425,921.106,476.183,921.279,472.941,921.457z"/>
				<path fill="#FFFFFF" d="M472.98,930.633c0.004,1.232,0.007,2.467,0.011,3.699c3.61-0.188,7.22-0.369,10.83-0.55
					c-0.115-1.237-0.23-2.475-0.344-3.712C479.977,930.254,476.479,930.443,472.98,930.633z"/>
			</g>
			<g>
				<path fill="#47BCB6" d="M489.567,890.494c0.006,15.832,0.018,31.664,0.036,47.497c3.727-0.189,7.453-0.374,11.18-0.555
					c-1.381-15.851-2.767-31.702-4.157-47.552C494.273,890.086,491.92,890.291,489.567,890.494z"/>
				<path fill="#FFFFFF" d="M489.569,894.736c0,1.244,0.001,2.486,0.001,3.73c2.576-0.123,5.151-0.243,7.727-0.361
					c-0.107-1.246-0.215-2.49-0.322-3.736C494.506,894.491,492.038,894.613,489.569,894.736z"/>
				<path fill="#FFFFFF" d="M489.544,903.188c0.003,1.238,0.005,2.476,0.008,3.713c2.835-0.148,5.668-0.293,8.503-0.438
					c-0.106-1.228-0.213-2.454-0.32-3.683C495.005,902.915,492.274,903.051,489.544,903.188z"/>
				<path fill="#FFFFFF" d="M489.528,911.808c0,1.228,0,2.454,0,3.683c3.095-0.156,6.191-0.309,9.287-0.461
					c-0.106-1.229-0.213-2.455-0.319-3.683C495.506,911.498,492.517,911.652,489.528,911.808z"/>
				<path fill="#FFFFFF" d="M489.541,920.676c-0.005,1.227-0.01,2.457-0.015,3.684c3.358-0.174,6.716-0.346,10.074-0.514
					c-0.111-1.223-0.222-2.445-0.333-3.668C496.025,920.342,492.783,920.508,489.541,920.676z"/>
				<path fill="#FFFFFF" d="M489.556,929.852c0,1.233,0.001,2.465,0.002,3.698c3.61-0.176,7.22-0.352,10.831-0.521
					c-0.112-1.237-0.224-2.477-0.336-3.713C496.554,929.492,493.055,929.67,489.556,929.852z"/>
			</g>
			<path fill="#FFFFFF" d="M525.75,936.08c-0.084-1.875-0.168-3.752-0.252-5.627c-4.745-1.937-9.495-3.867-14.249-5.794
				c0.189,4.021,0.378,8.042,0.567,12.062c-0.606,0.028-1.211,0.058-1.817,0.086c-0.088-1.875-0.177-3.752-0.266-5.627
				c-4.749-1.926-9.503-3.846-14.262-5.76c0.199,4.021,0.398,8.041,0.597,12.061c-1.482,0.074-2.963,0.148-4.445,0.223
				c0.001,0.016,0.002,0.033,0.003,0.049c-2.019,0.102-4.037,0.203-6.055,0.307c-0.001-0.016-0.002-0.033-0.002-0.049
				c-0.809,0.041-1.617,0.082-2.425,0.124c0,0.011,0.001,0.021,0.001,0.028c-2.018,0.104-4.036,0.209-6.055,0.315
				c0-0.008-0.001-0.02-0.001-0.027c-1.749,0.092-3.499,0.184-5.249,0.277c0.3,5.628,0.6,11.256,0.9,16.884
				c19.329-1.029,38.662-1.972,57.998-2.826c-0.249-5.63-0.498-11.261-0.747-16.892C528.578,935.954,527.164,936.017,525.75,936.08z
				"/>
			<g>
				<path fill="#D1D3D4" d="M1077.575,899.382c-0.749,18.249-1.497,36.499-2.245,54.749c-6.925-0.283-13.851-0.557-20.776-0.818
					c1.55-2.279,3.101-4.557,4.653-6.834c-0.628-0.024-1.255-0.049-1.882-0.072c1.505-2.195,3.012-4.391,4.521-6.586
					c-0.668-0.025-1.337-0.051-2.006-0.076c1.466-2.197,2.934-4.394,4.401-6.592c-0.627-0.025-1.254-0.049-1.881-0.073
					c1.511-2.194,3.022-4.39,4.536-6.584c-0.755-0.03-1.51-0.06-2.266-0.089c1.643-2.273,3.286-4.545,4.932-6.815
					c-0.713-0.029-1.425-0.059-2.138-0.086c1.558-2.191,3.116-4.383,4.677-6.574c-0.799-0.031-1.598-0.064-2.396-0.096
					c1.559-2.191,3.119-4.383,4.682-6.574c-0.714-0.028-1.428-0.058-2.142-0.086C1074.021,903.91,1075.797,901.646,1077.575,899.382
					z"/>
				<path fill="#FFFFFF" d="M1077.575,899.382c-0.749,18.249-1.497,36.499-2.245,54.749c6.926,0.284,13.85,0.579,20.774,0.885
					c-1.356-2.397-2.716-4.794-4.075-7.191c0.626,0.027,1.252,0.055,1.879,0.082c-1.322-2.312-2.645-4.623-3.969-6.934
					c0.67,0.029,1.339,0.059,2.009,0.088c-1.282-2.31-2.565-4.621-3.851-6.93c0.627,0.026,1.255,0.053,1.883,0.08
					c-1.326-2.311-2.652-4.622-3.981-6.934c0.754,0.032,1.508,0.065,2.262,0.097c-1.45-2.398-2.902-4.797-4.355-7.195
					c0.713,0.03,1.427,0.061,2.14,0.091c-1.372-2.312-2.745-4.623-4.121-6.935c0.798,0.033,1.596,0.066,2.394,0.102
					c-1.375-2.312-2.752-4.625-4.13-6.935c0.715,0.029,1.43,0.06,2.146,0.09C1080.749,904.187,1079.163,901.784,1077.575,899.382z"
					/>
			</g>
			<g>
				<path fill="#D1D3D4" d="M1162.122,903.709c-0.987,18.238-1.975,36.477-2.963,54.715c-6.921-0.375-13.844-0.738-20.767-1.091
					c1.58-2.259,3.16-4.517,4.743-6.773c-0.627-0.033-1.253-0.066-1.88-0.098c1.534-2.176,3.069-4.352,4.606-6.525
					c-0.668-0.034-1.336-0.069-2.004-0.104c1.494-2.178,2.99-4.355,4.488-6.533c-0.628-0.032-1.255-0.065-1.882-0.098
					c1.54-2.176,3.081-4.35,4.623-6.523c-0.754-0.04-1.51-0.08-2.264-0.119c1.671-2.25,3.345-4.502,5.02-6.75
					c-0.712-0.039-1.424-0.076-2.136-0.113c1.586-2.172,3.174-4.342,4.763-6.514c-0.798-0.041-1.596-0.084-2.393-0.127
					c1.587-2.17,3.176-4.342,4.767-6.512c-0.714-0.038-1.428-0.075-2.141-0.113C1158.508,908.19,1160.314,905.949,1162.122,903.709z
					"/>
				<path fill="#FFFFFF" d="M1162.122,903.709c-0.987,18.238-1.975,36.477-2.963,54.715c6.921,0.374,13.842,0.76,20.763,1.157
					c-1.326-2.415-2.652-4.829-3.98-7.245c0.626,0.035,1.252,0.071,1.878,0.108c-1.292-2.329-2.584-4.657-3.878-6.985
					c0.669,0.038,1.339,0.075,2.008,0.113c-1.252-2.325-2.505-4.653-3.76-6.979c0.627,0.035,1.254,0.07,1.881,0.105
					c-1.295-2.329-2.592-4.657-3.891-6.985c0.754,0.043,1.507,0.082,2.261,0.126c-1.418-2.417-2.839-4.835-4.261-7.253
					c0.713,0.039,1.426,0.08,2.139,0.119c-1.342-2.33-2.686-4.66-4.03-6.989c0.798,0.044,1.595,0.087,2.392,0.132
					c-1.345-2.331-2.691-4.659-4.039-6.988c0.715,0.039,1.43,0.078,2.145,0.117C1165.232,908.553,1163.678,906.131,1162.122,903.709
					z"/>
			</g>
			<g>
				<path fill="#D1D3D4" d="M1053.856,908.638c-0.552,14.779-1.104,29.559-1.657,44.339c-5.608-0.209-11.217-0.412-16.825-0.608
					c1.249-1.849,2.499-3.697,3.75-5.545c-0.507-0.018-1.015-0.037-1.522-0.055c1.213-1.781,2.428-3.562,3.643-5.344
					c-0.541-0.019-1.082-0.039-1.623-0.059c1.18-1.782,2.361-3.565,3.544-5.348c-0.508-0.017-1.015-0.036-1.522-0.055
					c1.217-1.781,2.436-3.562,3.654-5.344c-0.611-0.021-1.222-0.045-1.833-0.065c1.323-1.845,2.646-3.689,3.971-5.531
					c-0.577-0.021-1.153-0.042-1.729-0.062c1.253-1.778,2.508-3.558,3.764-5.337c-0.646-0.023-1.291-0.047-1.936-0.07
					c1.254-1.778,2.51-3.558,3.766-5.336c-0.577-0.021-1.154-0.043-1.731-0.065C1050.996,912.315,1052.426,910.477,1053.856,908.638
					z"/>
				<path fill="#FFFFFF" d="M1053.856,908.638c-0.552,14.779-1.104,29.559-1.657,44.339c5.608,0.209,11.216,0.426,16.823,0.65
					c-1.106-1.938-2.214-3.873-3.322-5.811c0.507,0.021,1.014,0.041,1.521,0.061c-1.078-1.867-2.156-3.736-3.235-5.602
					c0.542,0.021,1.085,0.043,1.627,0.064c-1.046-1.867-2.092-3.732-3.14-5.6c0.508,0.02,1.016,0.039,1.524,0.06
					c-1.081-1.866-2.162-3.733-3.244-5.601c0.61,0.023,1.22,0.047,1.83,0.07c-1.181-1.936-2.362-3.874-3.546-5.81
					c0.577,0.022,1.154,0.044,1.731,0.065c-1.117-1.868-2.235-3.735-3.354-5.602c0.646,0.024,1.29,0.048,1.936,0.073
					c-1.119-1.868-2.239-3.734-3.36-5.602c0.578,0.022,1.157,0.043,1.735,0.065C1056.437,912.519,1055.146,910.578,1053.856,908.638
					z"/>
			</g>
			<g>
				<path fill="#D1D3D4" d="M1144.833,912.986c-0.761,14.771-1.522,29.539-2.284,44.311c-5.604-0.29-11.211-0.571-16.816-0.846
					c1.275-1.83,2.551-3.662,3.828-5.492c-0.507-0.025-1.015-0.049-1.521-0.074c1.238-1.765,2.478-3.528,3.718-5.292
					c-0.541-0.027-1.081-0.054-1.623-0.081c1.206-1.766,2.413-3.531,3.622-5.297c-0.508-0.026-1.016-0.053-1.523-0.076
					c1.242-1.765,2.485-3.528,3.729-5.291c-0.61-0.031-1.222-0.062-1.832-0.093c1.348-1.825,2.697-3.651,4.049-5.475
					c-0.576-0.03-1.152-0.06-1.729-0.087c1.278-1.762,2.559-3.523,3.839-5.283c-0.645-0.031-1.29-0.065-1.936-0.098
					c1.28-1.76,2.562-3.521,3.844-5.283c-0.578-0.029-1.154-0.059-1.731-0.088C1141.92,916.623,1143.376,914.805,1144.833,912.986z"
					/>
				<path fill="#FFFFFF" d="M1144.833,912.986c-0.761,14.771-1.522,29.539-2.284,44.311c5.605,0.289,11.21,0.584,16.814,0.889
					c-1.079-1.953-2.159-3.904-3.24-5.857c0.506,0.027,1.013,0.055,1.52,0.082c-1.051-1.883-2.104-3.764-3.156-5.647
					c0.542,0.029,1.084,0.059,1.626,0.088c-1.02-1.881-2.039-3.762-3.061-5.643c0.508,0.026,1.016,0.054,1.523,0.08
					c-1.054-1.883-2.108-3.764-3.165-5.647c0.609,0.032,1.22,0.065,1.83,0.098c-1.154-1.954-2.309-3.909-3.464-5.863
					c0.576,0.03,1.153,0.061,1.729,0.092c-1.091-1.885-2.183-3.768-3.275-5.648c0.646,0.033,1.29,0.068,1.936,0.102
					c-1.094-1.884-2.188-3.767-3.282-5.65c0.578,0.029,1.157,0.06,1.735,0.09C1147.358,916.902,1146.096,914.945,1144.833,912.986z"
					/>
			</g>
			<g>
				<path fill="#D1D3D4" d="M1185.751,924.123c-0.683,11.77-1.365,23.538-2.048,35.308c-4.467-0.259-8.935-0.513-13.402-0.763
					c1.026-1.453,2.054-2.904,3.081-4.358c-0.403-0.023-0.808-0.045-1.212-0.068c0.997-1.398,1.995-2.797,2.993-4.197
					c-0.432-0.023-0.862-0.049-1.294-0.072c0.972-1.402,1.942-2.803,2.915-4.204c-0.404-0.023-0.809-0.046-1.212-0.068
					c0.998-1.399,1.998-2.798,2.998-4.197c-0.486-0.027-0.973-0.055-1.459-0.083c1.084-1.447,2.169-2.895,3.254-4.342
					c-0.458-0.027-0.916-0.053-1.375-0.079c1.028-1.397,2.057-2.794,3.086-4.19c-0.514-0.029-1.027-0.061-1.541-0.089
					c1.028-1.397,2.058-2.794,3.087-4.191c-0.459-0.026-0.918-0.054-1.377-0.079
					C1183.413,927.007,1184.582,925.565,1185.751,924.123z"/>
				<path fill="#FFFFFF" d="M1185.751,924.123c-0.683,11.77-1.365,23.538-2.048,35.308c4.467,0.259,8.933,0.522,13.399,0.791
					c-0.852-1.561-1.703-3.122-2.556-4.684c0.403,0.024,0.807,0.048,1.211,0.072c-0.829-1.505-1.658-3.011-2.488-4.515
					c0.432,0.025,0.863,0.051,1.295,0.076c-0.803-1.504-1.606-3.008-2.411-4.512c0.404,0.023,0.809,0.049,1.213,0.072
					c-0.83-1.506-1.661-3.01-2.493-4.517c0.485,0.028,0.971,0.058,1.457,0.087c-0.909-1.563-1.819-3.126-2.729-4.689
					c0.459,0.026,0.918,0.054,1.377,0.08c-0.859-1.506-1.72-3.013-2.58-4.519c0.514,0.03,1.027,0.06,1.541,0.091
					c-0.861-1.508-1.724-3.014-2.586-4.521c0.461,0.026,0.921,0.054,1.382,0.081C1187.74,927.258,1186.746,925.69,1185.751,924.123z
					"/>
			</g>
			<g>
				<path fill="#D1D3D4" d="M1205.348,925.291c-0.718,11.766-1.437,23.533-2.155,35.3c-4.467-0.274-8.934-0.542-13.4-0.804
					c1.031-1.449,2.063-2.898,3.096-4.348c-0.404-0.025-0.809-0.048-1.213-0.072c1.002-1.396,2.004-2.793,3.006-4.188
					c-0.431-0.025-0.862-0.053-1.293-0.078c0.976-1.398,1.95-2.796,2.927-4.193c-0.403-0.024-0.808-0.049-1.212-0.072
					c1.004-1.397,2.008-2.792,3.013-4.188c-0.486-0.029-0.973-0.06-1.459-0.088c1.089-1.445,2.178-2.89,3.268-4.333
					c-0.459-0.028-0.917-0.056-1.376-0.083c1.032-1.394,2.065-2.787,3.099-4.182c-0.514-0.031-1.026-0.062-1.54-0.093
					c1.033-1.395,2.066-2.787,3.101-4.182c-0.459-0.027-0.919-0.056-1.378-0.083
					C1203.001,928.167,1204.174,926.729,1205.348,925.291z"/>
				<path fill="#FFFFFF" d="M1205.348,925.291c-0.718,11.766-1.437,23.533-2.155,35.3c4.466,0.272,8.932,0.551,13.397,0.832
					c-0.847-1.564-1.693-3.128-2.542-4.692c0.404,0.025,0.809,0.052,1.213,0.076c-0.824-1.508-1.649-3.016-2.476-4.522
					c0.432,0.026,0.863,0.054,1.295,0.08c-0.799-1.506-1.598-3.014-2.396-4.519c0.404,0.025,0.809,0.051,1.213,0.076
					c-0.826-1.508-1.653-3.017-2.48-4.523c0.485,0.03,0.971,0.061,1.457,0.09c-0.905-1.565-1.811-3.131-2.717-4.697
					c0.459,0.029,0.918,0.057,1.377,0.086c-0.854-1.51-1.71-3.018-2.566-4.527c0.514,0.032,1.027,0.063,1.541,0.095
					c-0.856-1.509-1.713-3.019-2.57-4.528c0.46,0.028,0.92,0.057,1.38,0.086C1207.328,928.431,1206.338,926.86,1205.348,925.291z"/>
			</g>
			<g>
				<path fill="#D1D3D4" d="M1120.079,920.652c-0.562,11.775-1.124,23.551-1.687,35.326c-4.469-0.214-8.938-0.423-13.406-0.627
					c1.012-1.462,2.023-2.925,3.037-4.388c-0.405-0.019-0.81-0.036-1.214-0.056c0.982-1.41,1.966-2.818,2.948-4.229
					c-0.431-0.021-0.861-0.04-1.293-0.059c0.957-1.412,1.914-2.823,2.871-4.234c-0.404-0.018-0.809-0.037-1.213-0.056
					c0.984-1.409,1.971-2.818,2.957-4.228c-0.487-0.023-0.974-0.045-1.461-0.068c1.069-1.458,2.139-2.917,3.209-4.375
					c-0.459-0.022-0.918-0.043-1.377-0.065c1.014-1.408,2.028-2.814,3.044-4.223c-0.514-0.023-1.027-0.049-1.541-0.072
					c1.014-1.408,2.028-2.814,3.043-4.223c-0.459-0.022-0.919-0.043-1.378-0.065
					C1117.771,923.559,1118.925,922.106,1120.079,920.652z"/>
				<path fill="#FFFFFF" d="M1120.079,920.652c-0.562,11.775-1.124,23.551-1.687,35.326c4.469,0.213,8.938,0.43,13.406,0.653
					c-0.867-1.553-1.735-3.105-2.604-4.657c0.404,0.021,0.808,0.04,1.212,0.061c-0.845-1.497-1.689-2.994-2.534-4.49
					c0.432,0.021,0.863,0.043,1.296,0.064c-0.818-1.498-1.637-2.992-2.456-4.488c0.404,0.021,0.809,0.04,1.214,0.06
					c-0.846-1.496-1.693-2.993-2.54-4.489c0.485,0.023,0.972,0.047,1.457,0.07c-0.926-1.554-1.852-3.106-2.778-4.66
					c0.46,0.021,0.92,0.044,1.379,0.066c-0.874-1.498-1.749-2.994-2.625-4.492c0.514,0.025,1.026,0.049,1.54,0.074
					c-0.876-1.498-1.752-2.996-2.629-4.493c0.46,0.022,0.92,0.044,1.381,0.066C1122.102,923.766,1121.091,922.209,1120.079,920.652z
					"/>
			</g>
			<g>
				<path fill="#D1D3D4" d="M1100.472,919.746c-0.526,11.775-1.053,23.555-1.579,35.33c-4.469-0.199-8.938-0.395-13.407-0.584
					c1.007-1.466,2.014-2.932,3.022-4.398c-0.404-0.017-0.81-0.033-1.214-0.051c0.979-1.414,1.957-2.826,2.937-4.238
					c-0.432-0.019-0.862-0.036-1.294-0.056c0.952-1.413,1.904-2.827,2.857-4.241c-0.403-0.018-0.808-0.035-1.212-0.053
					c0.98-1.412,1.961-2.824,2.942-4.236c-0.486-0.021-0.973-0.043-1.459-0.065c1.064-1.462,2.13-2.923,3.195-4.385
					c-0.459-0.019-0.918-0.04-1.377-0.06c1.009-1.41,2.019-2.82,3.029-4.23c-0.514-0.023-1.027-0.045-1.541-0.068
					c1.01-1.41,2.021-2.822,3.031-4.232c-0.46-0.021-0.92-0.041-1.379-0.062C1098.173,922.66,1099.321,921.203,1100.472,919.746z"/>
				<path fill="#FFFFFF" d="M1100.472,919.746c-0.526,11.775-1.053,23.555-1.579,35.33c4.47,0.199,8.938,0.404,13.407,0.613
					c-0.872-1.549-1.745-3.1-2.618-4.648c0.404,0.019,0.809,0.037,1.213,0.057c-0.849-1.494-1.697-2.988-2.548-4.483
					c0.432,0.02,0.863,0.039,1.295,0.06c-0.822-1.493-1.646-2.986-2.469-4.479c0.404,0.018,0.809,0.037,1.214,0.056
					c-0.851-1.495-1.701-2.987-2.553-4.482c0.485,0.022,0.972,0.046,1.457,0.066c-0.93-1.551-1.86-3.102-2.792-4.653
					c0.46,0.022,0.919,0.043,1.378,0.065c-0.879-1.496-1.758-2.99-2.639-4.485c0.514,0.023,1.027,0.046,1.541,0.069
					c-0.881-1.495-1.762-2.99-2.644-4.484c0.46,0.019,0.921,0.041,1.381,0.062C1102.502,922.852,1101.487,921.299,1100.472,919.746z
					"/>
			</g>
		</g>
	</g>
	<g>
		<circle fill="#FFFFFF" cx="392.979" cy="302.012" r="30.21"/>
		
			<rect x="256.813" y="319.408" transform="matrix(-0.8898 0.4564 -0.4564 -0.8898 741.3743 511.1716)" fill="#FFFFFF" width="104.307" height="51.387"/>
		
			<rect x="424.407" y="233.449" transform="matrix(-0.8898 0.4564 -0.4564 -0.8898 1018.8672 272.2258)" fill="#FFFFFF" width="104.309" height="51.386"/>
		
			<rect x="504.7" y="243.298" transform="matrix(-0.8898 0.4564 -0.4564 -0.8898 1087.1685 243.1068)" fill="#D1D3D4" width="19.06" height="19.057"/>
		
			<rect x="494.138" y="222.705" transform="matrix(-0.8897 0.4565 -0.4565 -0.8897 1057.8087 208.9505)" fill="#D1D3D4" width="19.06" height="19.058"/>
		
			<rect x="483.026" y="254.416" transform="matrix(-0.8898 0.4564 -0.4564 -0.8898 1051.2798 274.0222)" fill="#D1D3D4" width="19.056" height="19.057"/>
		
			<rect x="472.465" y="233.823" transform="matrix(-0.8898 0.4564 -0.4564 -0.8898 1021.9239 239.9025)" fill="#D1D3D4" width="19.057" height="19.058"/>
		
			<rect x="461.35" y="265.533" transform="matrix(-0.8898 0.4564 -0.4564 -0.8898 1015.3926 304.9066)" fill="#D1D3D4" width="19.057" height="19.058"/>
		
			<rect x="450.788" y="244.94" transform="matrix(-0.8898 0.4563 -0.4563 -0.8898 986.0333 270.8404)" fill="#D1D3D4" width="19.057" height="19.058"/>
		
			<rect x="439.674" y="276.649" transform="matrix(-0.8898 0.4564 -0.4564 -0.8898 979.5024 335.8136)" fill="#D1D3D4" width="19.057" height="19.058"/>
		
			<rect x="429.113" y="256.058" transform="matrix(-0.8898 0.4564 -0.4564 -0.8898 950.1495 301.6801)" fill="#D1D3D4" width="19.056" height="19.06"/>
		
			<rect x="337.231" y="329.193" transform="matrix(-0.8898 0.4563 -0.4563 -0.8898 809.8762 481.8904)" fill="#D1D3D4" width="19.058" height="19.056"/>
		
			<rect x="326.671" y="308.601" transform="matrix(-0.8898 0.4564 -0.4564 -0.8898 780.5322 447.7648)" fill="#D1D3D4" width="19.057" height="19.058"/>
		
			<rect x="315.554" y="340.31" transform="matrix(-0.8898 0.4564 -0.4564 -0.8898 773.9961 512.7667)" fill="#D1D3D4" width="19.06" height="19.058"/>
		
			<rect x="304.996" y="319.718" transform="matrix(-0.8898 0.4564 -0.4564 -0.8898 744.6467 478.6626)" fill="#D1D3D4" width="19.057" height="19.059"/>
		
			<rect x="293.88" y="351.427" transform="matrix(-0.8898 0.4564 -0.4564 -0.8898 738.1157 543.6498)" fill="#D1D3D4" width="19.058" height="19.059"/>
		
			<rect x="283.319" y="330.837" transform="matrix(-0.8898 0.4563 -0.4563 -0.8898 708.7466 509.589)" fill="#D1D3D4" width="19.057" height="19.057"/>
		
			<rect x="272.204" y="362.546" transform="matrix(-0.8897 0.4565 -0.4565 -0.8897 702.2419 574.5257)" fill="#D1D3D4" width="19.058" height="19.059"/>
		
			<rect x="261.643" y="341.955" transform="matrix(-0.8898 0.4564 -0.4564 -0.8898 672.8699 540.4664)" fill="#D1D3D4" width="19.059" height="19.057"/>
	</g>
	<path fill="#FFFFFF" d="M546.411,616.845c6.802-6.046,11.091-14.855,11.091-24.671c0-18.226-14.774-33.002-33.001-33.002
		c-18.226,0-33.001,14.776-33.001,33.002c0,9.503,4.021,18.061,10.449,24.082c9.213,13.36,14.514,83.535,21.452,88.887v70.739
		h-3.712v15.95h9.35v-15.95h-3.438v-70.967C532.315,698.118,537.546,631.351,546.411,616.845z"/>
	<g>
		<path fill-rule="evenodd" clip-rule="evenodd" fill="#FFFFFF" d="M1582.389,712.035c1.059-1.255,2.431-1.749,3.949-2.084
			c2.179-0.478,4.302-1.221,6.488-1.652c8.391-1.662,16.586-0.728,24.328,2.764c5.889,2.659,11.552,5.834,17.239,8.924
			c20.547,11.16,41.062,22.377,61.586,33.58c10.305,5.625,20.525,11.408,30.926,16.843c7.652,4.001,15.764,4.829,24.112,2.141
			c11.598-3.737,23.206-7.444,34.808-11.164c0.547-0.176,1.086-0.375,1.631-0.556c1.756-0.58,3.554-0.749,5.222,0.118
			c3.846,2.001,7.634,4.111,11.61,6.268c-11.704,10.069-23.336,20.075-35.092,30.186c0.65,0.487,1.253,0.924,1.841,1.379
			c2.6,2.004,5.306,3.89,7.756,6.065c1.551,1.377,3.222,2.452,5.02,3.407c1.803,0.956,3.589,1.938,5.334,3.108
			c-0.249-0.03-0.501-0.046-0.745-0.096c-2.627-0.526-5.255-1.037-7.874-1.601c-0.693-0.152-1.109-0.062-1.436,0.634
			c-0.403,0.856-0.767,2.055-1.469,2.358c-0.699,0.304-1.809-0.286-2.725-0.537c-16.384-4.501-32.786-8.939-49.133-13.572
			c-3.631-1.028-7.064-2.755-10.593-4.151c-12.471-4.935-23.985-11.764-35.758-18.075c-0.62-0.332-1.19-0.512-1.9-0.338
			c-0.329,0.081-0.767-0.01-1.075-0.175c-3.265-1.742-6.517-3.506-9.76-5.288c-0.275-0.153-0.632-0.464-0.648-0.72
			c-0.059-0.899-0.672-1.181-1.355-1.384c-2.198-0.659-4.406-1.288-6.611-1.928c-0.092-0.026-0.195-0.086-0.276-0.064
			c-2.003,0.539-3.491-0.668-5.069-1.513c-3.377-1.804-6.736-3.643-10.101-5.468c-2.244-1.218-2.867-2.588-2.214-5.295
			c-1.828-0.992-3.745-1.985-5.62-3.054c-12.853-7.336-25.742-14.616-38.527-22.071c-4.61-2.69-8.695-6.141-12.166-10.246
			c-1.236-1.463-2.272-3.043-2.311-5.035C1581.96,713.246,1582.213,712.533,1582.389,712.035z"/>
	</g>
	<line fill="none" stroke="#D1DE58" stroke-width="2" stroke-miterlimit="10" x1="795.091" y1="861.614" x2="795.091" y2="207.52"/>
	<line fill="none" stroke="#D1DE58" stroke-width="2" stroke-miterlimit="10" x1="802.59" y1="861.614" x2="802.59" y2="207.52"/>
	<rect x="822.589" y="753.489" fill="none" width="271.486" height="14.999"/>
	<text transform="matrix(1 0 0 1 822.5889 766.4307)" fill="#FFFFFF" font-family="'Helvetica'" font-size="18">GROUND BASED </text>
	<line fill="none" stroke="#FFFFFF" stroke-width="2" stroke-miterlimit="10" x1="815" y1="772" x2="1076.333" y2="772"/>
	<polygon fill="#FFFFFF" points="1075.83,765.498 1061.167,750.502 1046.17,765.166 	"/>
	<rect x="217.078" y="602.706" fill="none" width="271.486" height="14.999"/>
	<text transform="matrix(1 0 0 1 217.0781 615.6475)" fill="#FFFFFF" font-family="'Helvetica'" font-size="18">BALLOON SONDES</text>
	
		<line fill="none" stroke="#FFFFFF" stroke-width="2" stroke-miterlimit="10" x1="209.489" y1="621.217" x2="470.822" y2="621.217"/>
	<polygon fill="#FFFFFF" points="439.115,627.403 454.177,641.998 468.772,626.936 	"/>
	<polyline fill="none" points="825.022,747.493 825.022,655.997 1060.511,655.997 	"/>
	<text transform="matrix(1 0 0 1 825.0225 664.625)"><tspan x="0" y="0" fill="#FFFFFF" font-family="'Helvetica'" font-size="12">WORD WORDS  WORD WORDS </tspan><tspan x="0" y="14.4" fill="#FFFFFF" font-family="'Helvetica'" font-size="12">WORD WORDS WORD </tspan><tspan x="0" y="28.8" fill="#FFFFFF" font-family="'Helvetica'" font-size="12">WORDS WORD WORDS </tspan><tspan x="0" y="43.2" fill="#FFFFFF" font-family="'Helvetica'" font-size="12">WORD WORDS </tspan><tspan x="0" y="57.6" fill="#FFFFFF" font-family="'Helvetica'" font-size="12">WORD </tspan><tspan x="0" y="72" fill="#FFFFFF" font-family="'Helvetica'" font-size="12">WO</tspan></text>
	<rect x="1253.067" y="482.563" fill="none" width="271.486" height="14.999"/>
	<text transform="matrix(1 0 0 1 1253.0674 495.5049)" fill="#FFFFFF" font-family="'Helvetica'" font-size="18">AIRCRAFT</text>
	
		<line fill="none" stroke="#FFFFFF" stroke-width="2" stroke-miterlimit="10" x1="1245.479" y1="501.074" x2="1506.812" y2="501.074"/>
	<polygon fill="#FFFFFF" points="1503.829,495.112 1488.799,480.485 1474.171,495.515 	"/>
	<polyline fill="none" points="1255.501,476.567 1255.501,385.071 1490.989,385.071 	"/>
	<text transform="matrix(1 0 0 1 1255.501 393.6992)"><tspan x="0" y="0" fill="#FFFFFF" font-family="'Helvetica'" font-size="12">WORD WORDS  WORD WORDS </tspan><tspan x="0" y="14.4" fill="#FFFFFF" font-family="'Helvetica'" font-size="12">WORD WORDS WORD </tspan><tspan x="0" y="28.8" fill="#FFFFFF" font-family="'Helvetica'" font-size="12">WORDS WORD WORDS </tspan><tspan x="0" y="43.2" fill="#FFFFFF" font-family="'Helvetica'" font-size="12">WORD WORDS </tspan><tspan x="0" y="57.6" fill="#FFFFFF" font-family="'Helvetica'" font-size="12">WORD </tspan><tspan x="0" y="72" fill="#FFFFFF" font-family="'Helvetica'" font-size="12">WO</tspan></text>
	<rect x="218.455" y="634.467" fill="none" width="235.488" height="91.496"/>
	<text transform="matrix(1 0 0 1 218.4551 643.0947)"><tspan x="0" y="0" fill="#FFFFFF" font-family="'Helvetica'" font-size="12">WORD WORDS  WORD WORDS WORD </tspan><tspan x="0" y="14.4" fill="#FFFFFF" font-family="'Helvetica'" font-size="12">WORDS WORD WORDS WORD WORDS </tspan><tspan x="0" y="28.8" fill="#FFFFFF" font-family="'Helvetica'" font-size="12">WORD WORDS WORD WORDS WORD </tspan><tspan x="0" y="43.2" fill="#FFFFFF" font-family="'Helvetica'" font-size="12">WORDS WORD WORDS WORD WORDS </tspan><tspan x="0" y="57.6" fill="#FFFFFF" font-family="'Helvetica'" font-size="12">WORD WORDS WORD WORDS WORD </tspan><tspan x="0" y="72" fill="#FFFFFF" font-family="'Helvetica'" font-size="12">WORDS WORD WORDS </tspan></text>
	<rect x="475.335" y="312.274" fill="none" width="271.486" height="14.999"/>
	<text transform="matrix(1 0 0 1 475.335 325.2158)" fill="#FFFFFF" font-family="'Helvetica'" font-size="18">SATELLITE</text>
	
		<line fill="none" stroke="#FFFFFF" stroke-width="2" stroke-miterlimit="10" x1="467.746" y1="330.785" x2="729.079" y2="330.785"/>
	<polygon fill="#FFFFFF" points="697.376,337.299 712.65,351.672 727.024,336.399 	"/>
	<rect x="476.712" y="344.035" fill="none" width="235.488" height="91.496"/>
	<text transform="matrix(1 0 0 1 476.7119 352.6631)"><tspan x="0" y="0" fill="#FFFFFF" font-family="'Helvetica'" font-size="12">WORD WORDS  WORD WORDS WORD </tspan><tspan x="0" y="14.4" fill="#FFFFFF" font-family="'Helvetica'" font-size="12">WORDS WORD WORDS WORD WORDS </tspan><tspan x="0" y="28.8" fill="#FFFFFF" font-family="'Helvetica'" font-size="12">WORD WORDS WORD WORDS WORD </tspan><tspan x="0" y="43.2" fill="#FFFFFF" font-family="'Helvetica'" font-size="12">WORDS WORD WORDS WORD WORDS </tspan><tspan x="0" y="57.6" fill="#FFFFFF" font-family="'Helvetica'" font-size="12">WORD WORDS WORD WORDS WORD </tspan><tspan x="0" y="72" fill="#FFFFFF" font-family="'Helvetica'" font-size="12">WORDS WORD WORDS </tspan></text>
	<g>
		<defs>
			<rect id="SVGID_10_" x="1245.479" y="501.074" width="262" height="129"/>
		</defs>
		<clipPath id="SVGID_8_">
			<use xlink:href="#SVGID_10_"  overflow="visible"/>
		</clipPath>
		<g clip-path="url(#SVGID_8_)">
			<defs>
				<rect id="SVGID_12_" x="4.625" y="169.959" width="1596.375" height="979.04"/>
			</defs>
			<clipPath id="SVGID_9_">
				<use xlink:href="#SVGID_12_"  overflow="visible"/>
			</clipPath>
			<radialGradient id="SVGID_11_" cx="805" cy="1752" r="1508" gradientUnits="userSpaceOnUse">
				<stop  offset="0" style="stop-color:#48C2C5"/>
				<stop  offset="0.0912" style="stop-color:#58C4BE"/>
				<stop  offset="0.2495" style="stop-color:#79C9AB"/>
				<stop  offset="0.4559" style="stop-color:#A3D28B"/>
				<stop  offset="0.6744" style="stop-color:#D1DE58"/>
				<stop  offset="0.7321" style="stop-color:#CEDD5C"/>
				<stop  offset="0.7856" style="stop-color:#C5DB68"/>
				<stop  offset="0.8374" style="stop-color:#B6D67A"/>
				<stop  offset="0.8882" style="stop-color:#A0D18E"/>
				<stop  offset="0.9382" style="stop-color:#81CAA6"/>
				<stop  offset="0.9871" style="stop-color:#51C3C2"/>
				<stop  offset="0.9931" style="stop-color:#48C2C5"/>
			</radialGradient>
			<circle opacity="0.5" clip-path="url(#SVGID_9_)" fill="url(#SVGID_11_)" cx="805" cy="1752" r="1508"/>
			<circle clip-path="url(#SVGID_9_)" fill="none" stroke="#FFFFFF" stroke-miterlimit="10" cx="805" cy="1752" r="1112"/>
			<circle clip-path="url(#SVGID_9_)" fill="none" stroke="#FFFFFF" stroke-miterlimit="10" cx="805" cy="1752" r="1300"/>
			<circle clip-path="url(#SVGID_9_)" fill="none" stroke="#FFFFFF" stroke-miterlimit="10" cx="805" cy="1752" r="1508"/>
		</g>
	</g>
	<polygon fill="#D1DE58" points="56.596,41.189 37.487,60.299 56.596,79.408 	"/>
	<path fill="none" stroke="#000000" stroke-miterlimit="10" d="M1011.886,463.645"/>
	<path fill="none" stroke="#000000" stroke-miterlimit="10" d="M1585.047,709.994c-28.897-18.597-57.794-37.195-86.692-55.792
		C1459,630,1462.731,632.892,1445,622c-18.495-11.361-34-20-56.234-30.993c-48.469-23.965-97.646-47.377-148.338-66.188
		c-58.323-21.643-119.05-35.985-179.596-50.274"/>
</g>
<g id="Layer_7">
</g>
</svg>
