<?xml version="1.0" encoding="utf-8"?>
<!-- Generator: Adobe Illustrator 18.0.0, SVG Export Plug-In . SVG Version: 6.00 Build 0)  -->
<!DOCTYPE svg PUBLIC "-//W3C//DTD SVG 1.1//EN" "http://www.w3.org/Graphics/SVG/1.1/DTD/svg11.dtd">
<svg version="1.1" xmlns="http://www.w3.org/2000/svg" xmlns:xlink="http://www.w3.org/1999/xlink" x="0px" y="0px" viewBox="0 0 1600 1150" enable-background="new 0 0 1600 1150" xml:space="preserve">
<svg>
<g id="Layer_1">
	<rect fill="#47BCB6" width="1600.229" height="1147.277"/>

	<rect x="1.592" y="984.238" fill="#FFFFFF" width="1600" height="165.762"/>
	<text transform="matrix(1 0 0 1 341.2988 1046.0869)"><tspan x="0" y="0" fill="#010101" font-family="'Helvetica'" font-size="18">Re</tspan><tspan x="23.01" y="0" fill="#010101" font-family="'Helvetica'" font-size="18">f</tspan><tspan x="27.849" y="0" fill="#010101" font-family="'Helvetica'" font-size="18">erences</tspan></text>
	<g>
		<polygon fill="#2E2119" points="105.124,1045.854 105.124,1029.158 116.626,1029.158 116.626,1031.684 108.737,1031.684 
			108.737,1035.93 115.362,1035.93 115.362,1038.309 108.737,1038.309 108.737,1043.307 116.966,1043.307 116.966,1045.854 		"/>
		<path fill="#2E2119" d="M127.189,1045.854v-7.375c0-1.24-0.194-2.137-1.698-2.137c-0.801,0-1.917,0.414-2.718,0.896v8.615h-3.495
			v-11.914h3.301l0.049,1.09l0.097,0.051c1.382-0.924,3.058-1.432,4.198-1.432c3.154,0,3.736,1.869,3.736,4.102v8.104H127.189z"/>
		<path fill="#2E2119" d="M138.554,1043.549c0.121-0.314,0.776-3.082,1.164-4.32c0.535-1.553,1.53-4.949,1.651-5.289h3.494
			c-0.874,2.451-3.227,9.486-4.101,11.914h-4.732c-0.85-2.428-3.229-9.463-4.078-11.914h3.642l1.722,5.531
			c0.268,0.85,0.826,3.252,1.117,4.078H138.554z"/>
		<path fill="#2E2119" d="M148.405,1032.482c-1.287,0-1.99-0.824-1.99-1.842c0-1.068,0.729-1.871,1.99-1.871
			c1.335,0,2.062,0.803,2.062,1.871C150.467,1031.658,149.74,1032.482,148.405,1032.482 M146.682,1033.939h3.47v11.914h-3.47
			V1033.939z"/>
		<path fill="#2E2119" d="M156.674,1036.051c1.31-1.287,3.203-2.428,4.538-2.428c0.486,0,0.678,0.293,0.678,0.803
			c0,0.896-0.581,2.717-1.09,3.422l-4.053-0.049v8.055h-3.471v-11.914h3.422c0,0.557-0.072,1.48-0.145,2.039L156.674,1036.051z"/>
		<path fill="#2E2119" d="M168.685,1046.098c-4.416,0-5.945-2.766-5.945-6.188c0-3.35,1.699-6.238,6.092-6.238
			c4.439,0,5.969,2.889,5.969,6.213S173.224,1046.098,168.685,1046.098 M168.831,1036.123c-1.99,0-2.525,1.916-2.525,3.787
			c0,2.109,0.412,3.736,2.525,3.736c1.965,0,2.378-1.773,2.378-3.736C171.209,1038.016,170.82,1036.123,168.831,1036.123"/>
		<path fill="#2E2119" d="M184.675,1045.854v-7.375c0-1.24-0.195-2.137-1.699-2.137c-0.801,0-1.918,0.414-2.719,0.896v8.615h-3.494
			v-11.914h3.3l0.049,1.09l0.097,0.051c1.383-0.924,3.059-1.432,4.199-1.432c3.154,0,3.736,1.869,3.736,4.102v8.104H184.675z"/>
		<path fill="#2E2119" d="M205.663,1045.854v-7.545c0-1.312-0.34-1.943-1.578-1.943c-0.752,0-1.867,0.365-2.547,0.826
			c0.072,0.51,0.098,1.117,0.098,1.553v7.109h-3.424c0-2.598-0.023-5.193-0.023-7.789c0-1.117-0.509-1.674-1.432-1.674
			c-0.801,0-1.795,0.365-2.621,0.871v8.592h-3.47v-11.914h3.253l0.071,1.188l0.097,0.049c1.36-1.02,2.985-1.504,4.125-1.504
			c1.36,0,2.284,0.484,2.889,1.553c1.165-0.896,3.033-1.553,4.296-1.553c3.179,0,3.761,1.967,3.761,4.197v7.984H205.663z"/>
		<path fill="#2E2119" d="M222.451,1039.449v1.236h-7.788c0,1.82,0.85,2.789,2.985,2.789c1.286,0,2.596-0.289,3.833-0.752
			l0.705,2.137c-1.578,0.873-3.398,1.188-5.049,1.188c-4.805,0-5.969-2.861-5.969-6.137c0-2.621,1.117-6.287,5.823-6.287
			C222.112,1033.623,222.451,1037.311,222.451,1039.449 M214.712,1038.549h4.586c-0.023-1.576-0.51-2.717-2.16-2.717
			C215.416,1035.832,214.833,1037.119,214.712,1038.549"/>
		<path fill="#2E2119" d="M232.619,1045.854v-7.375c0-1.24-0.194-2.137-1.699-2.137c-0.801,0-1.917,0.414-2.718,0.896v8.615h-3.494
			v-11.914h3.299l0.049,1.09l0.098,0.051c1.384-0.924,3.057-1.432,4.198-1.432c3.155,0,3.737,1.869,3.737,4.102v8.104H232.619z"/>
		<path fill="#2E2119" d="M242.857,1030.639v3.277h3.471v2.279h-3.471v5.389c0,1.26,0.364,1.842,1.603,1.842
			c0.436,0,1.189-0.119,2.061-0.314l0.436,2.258c-1.018,0.461-2.377,0.678-3.396,0.678c-3.324,0-4.125-1.648-4.125-3.541v-6.311
			h-1.675v-1.893l1.893-0.559c0.171-0.412,0.704-2.449,0.85-2.863L242.857,1030.639z"/>
		<path fill="#2E2119" d="M258.944,1043.549h1.554l0.169,1.939c-0.776,0.365-1.893,0.609-2.911,0.609
			c-1.044,0-1.796-0.244-1.919-1.434c0-0.023-0.022-0.023-0.048-0.049c-1.674,1.459-3.444,1.482-4.124,1.482
			c-2.961,0-3.689-2.086-3.689-3.471c0-2.477,1.918-3.689,4.418-3.834c0.921-0.072,2.329-0.121,3.25-0.195v-0.289
			c0-1.361-0.437-2.062-2.207-2.062c-1.165,0-2.67,0.24-3.785,0.604c-0.171-0.727-0.365-1.455-0.559-2.156
			c1.406-0.609,3.469-0.996,5.168-0.996c2.863,0,4.684,1.066,4.684,4.15V1043.549z M253.241,1040.709
			c-1.141,0.098-1.674,0.68-1.674,1.625c0,0.998,0.484,1.531,1.627,1.531c0.728,0,1.674-0.391,2.449-1.068v-2.283L253.241,1040.709z
			"/>
		<polygon fill="#2E2119" points="265.883,1045.854 262.436,1045.854 262.436,1028.479 265.907,1028.479 		"/>
		<path fill="#2E2119" d="M111.749,1066.562h-3.034l0.025,6.406h-3.616v-16.695h6.333c3.811,0,5.727,1.99,5.727,5.121
			C117.184,1063.797,115.681,1066.562,111.749,1066.562 M108.715,1058.797v5.316h2.353c1.287,0,2.476-0.68,2.476-2.645
			c0-1.896-1.116-2.672-2.596-2.672H108.715z"/>
		<path fill="#2E2119" d="M129.436,1066.562v1.238h-7.788c0,1.82,0.85,2.789,2.985,2.789c1.285,0,2.597-0.291,3.833-0.752
			l0.703,2.137c-1.578,0.873-3.396,1.189-5.047,1.189c-4.805,0-5.969-2.865-5.969-6.141c0-2.621,1.115-6.283,5.823-6.283
			C129.097,1060.74,129.436,1064.428,129.436,1066.562 M121.696,1065.666h4.586c-0.024-1.578-0.51-2.719-2.16-2.719
			C122.399,1062.947,121.816,1064.232,121.696,1065.666"/>
		<path fill="#2E2119" d="M135.089,1063.164c1.311-1.283,3.203-2.424,4.538-2.424c0.485,0,0.681,0.289,0.681,0.799
			c0,0.896-0.584,2.717-1.094,3.422l-4.051-0.049v8.057h-3.472v-11.914h3.423c0,0.557-0.073,1.479-0.146,2.037L135.089,1063.164z"/>
		<path fill="#2E2119" d="M143.313,1063.311h-1.675v-1.893l1.7-0.486v-1.479c0-2.281,0.994-4.078,4.512-4.078
			c0.826,0,2.16,0.098,3.277,0.412l-0.412,2.354c-0.68-0.145-1.555-0.217-2.063-0.217c-1.237,0-1.942,0.412-1.942,1.578v1.527h3.424
			v2.281h-3.424c0,1.043-0.024,8.615-0.024,9.658h-3.373V1063.311z"/>
		<path fill="#2E2119" d="M157.096,1073.211c-4.416,0-5.945-2.766-5.945-6.188c0-3.35,1.698-6.234,6.091-6.234
			c4.44,0,5.969,2.885,5.969,6.209C163.21,1070.324,161.633,1073.211,157.096,1073.211 M157.241,1063.238
			c-1.99,0-2.523,1.918-2.523,3.785c0,2.111,0.412,3.736,2.523,3.736c1.966,0,2.379-1.77,2.379-3.736
			C159.62,1065.131,159.231,1063.238,157.241,1063.238"/>
		<path fill="#2E2119" d="M168.62,1063.164c1.311-1.283,3.204-2.424,4.539-2.424c0.486,0,0.678,0.289,0.678,0.799
			c0,0.896-0.582,2.717-1.09,3.422l-4.054-0.049v8.057h-3.47v-11.914h3.422c0,0.557-0.072,1.479-0.145,2.037L168.62,1063.164z"/>
		<path fill="#2E2119" d="M190.341,1072.969v-7.547c0-1.309-0.34-1.939-1.578-1.939c-0.752,0-1.867,0.363-2.547,0.822
			c0.072,0.51,0.098,1.117,0.098,1.553v7.111h-3.424c0-2.598-0.023-5.193-0.023-7.791c0-1.113-0.509-1.674-1.432-1.674
			c-0.801,0-1.795,0.365-2.62,0.875v8.59h-3.47v-11.914h3.25l0.073,1.189l0.097,0.049c1.36-1.021,2.985-1.504,4.125-1.504
			c1.36,0,2.283,0.482,2.889,1.553c1.165-0.9,3.033-1.553,4.296-1.553c3.179,0,3.761,1.965,3.761,4.197v7.982H190.341z"/>
		<path fill="#2E2119" d="M206.718,1070.664h1.553l0.17,1.941c-0.775,0.363-1.893,0.605-2.912,0.605
			c-1.045,0-1.797-0.242-1.917-1.432c0-0.021-0.024-0.021-0.049-0.047c-1.675,1.455-3.446,1.479-4.125,1.479
			c-2.961,0-3.689-2.086-3.689-3.471c0-2.473,1.916-3.688,4.416-3.834c0.924-0.072,2.33-0.119,3.252-0.191v-0.293
			c0-1.357-0.438-2.062-2.209-2.062c-1.164,0-2.668,0.242-3.785,0.607c-0.17-0.729-0.363-1.455-0.559-2.162
			c1.408-0.604,3.471-0.992,5.17-0.992c2.863,0,4.684,1.068,4.684,4.148V1070.664z M201.015,1067.822
			c-1.141,0.1-1.674,0.682-1.674,1.629c0,0.994,0.484,1.527,1.625,1.527c0.729,0,1.674-0.389,2.451-1.066v-2.281L201.015,1067.822z"
			/>
		<path fill="#2E2119" d="M218.146,1072.969v-7.377c0-1.238-0.194-2.135-1.699-2.135c-0.801,0-1.917,0.412-2.718,0.896v8.615h-3.494
			v-11.914h3.299l0.049,1.092l0.098,0.049c1.383-0.924,3.057-1.434,4.198-1.434c3.155,0,3.737,1.869,3.737,4.102v8.105H218.146z"/>
		<path fill="#2E2119" d="M230.01,1070.518c1.115,0,2.136-0.242,3.204-0.605l0.654,2.305c-1.189,0.605-2.862,0.947-4.488,0.947
			c-4.562,0-5.752-2.719-5.752-6.02c0-2.814,1.067-6.355,5.896-6.355c1.02,0,2.354,0.094,3.714,0.582
			c-0.171,0.799-0.34,1.6-0.534,2.426c-1.02-0.293-1.893-0.34-2.596-0.34c-1.942,0-2.961,1.334-2.961,3.541
			C227.147,1069.184,227.851,1070.518,230.01,1070.518"/>
		<path fill="#2E2119" d="M246.368,1066.562v1.238h-7.788c0,1.82,0.849,2.789,2.984,2.789c1.285,0,2.597-0.291,3.833-0.752
			l0.705,2.137c-1.578,0.873-3.398,1.189-5.049,1.189c-4.803,0-5.969-2.865-5.969-6.141c0-2.621,1.117-6.283,5.824-6.283
			C246.028,1060.74,246.368,1064.428,246.368,1066.562 M238.628,1065.666h4.587c-0.024-1.578-0.511-2.719-2.161-2.719
			C239.332,1062.947,238.749,1064.232,238.628,1065.666"/>
		<rect x="105.343" y="1083.387" fill="#2E2119" width="3.541" height="16.697"/>
		<path fill="#2E2119" d="M119.95,1100.084v-7.379c0-1.238-0.195-2.135-1.699-2.135c-0.801,0-1.917,0.412-2.718,0.896v8.617h-3.495
			v-11.916h3.301l0.049,1.092l0.097,0.051c1.383-0.924,3.058-1.434,4.198-1.434c3.154,0,3.738,1.867,3.738,4.1v8.107H119.95z"/>
		<path fill="#2E2119" d="M133.925,1088.631v-5.898h3.471v17.352h-3.228l-0.072-1.068c-0.024-0.023-0.047-0.049-0.072-0.049
			c-1.164,0.945-2.645,1.285-3.664,1.285c-3.714,0-4.732-2.717-4.732-5.871c0-3.689,1.358-6.504,5.144-6.504
			C131.548,1087.877,132.931,1088.045,133.925,1088.631 M133.925,1091.055c-0.559-0.338-1.625-0.654-2.402-0.654
			c-1.188,0-2.402,0.703-2.402,3.955c0,2.816,1.043,3.471,2.354,3.471c0.704,0,1.893-0.484,2.451-0.896V1091.055z"/>
		<path fill="#2E2119" d="M150.497,1093.676v1.238h-7.79c0,1.82,0.852,2.791,2.985,2.791c1.287,0,2.597-0.291,3.835-0.754
			l0.703,2.137c-1.577,0.873-3.398,1.189-5.049,1.189c-4.804,0-5.968-2.863-5.968-6.139c0-2.623,1.115-6.285,5.824-6.285
			C150.157,1087.854,150.497,1091.541,150.497,1093.676 M142.756,1092.779h4.587c-0.023-1.578-0.51-2.719-2.161-2.719
			C143.46,1090.061,142.878,1091.346,142.756,1092.779"/>
		<polygon fill="#2E2119" points="157.8,1095.664 155.275,1100.084 151.563,1100.084 155.664,1093.871 151.879,1088.168 
			155.688,1088.168 157.849,1092.195 160.032,1088.168 163.745,1088.168 159.886,1093.846 163.939,1100.084 160.153,1100.084 		"/>
		<path fill="#F4C61B" d="M75.18,1092.689c-1.936,0-3.503-1.566-3.503-3.5c0-1.936,1.567-3.504,3.503-3.504
			c1.933,0,3.503,1.568,3.503,3.504C78.683,1091.123,77.112,1092.689,75.18,1092.689"/>
		<path fill="#F4C61B" d="M78.455,1083.67c-1.356,0-2.456-1.1-2.456-2.457s1.1-2.455,2.456-2.455c1.356,0,2.454,1.098,2.454,2.455
			S79.812,1083.67,78.455,1083.67"/>
		<path fill="#F4C61B" d="M80.911,1076.922c-0.933,0-1.689-0.756-1.689-1.688c0-0.934,0.757-1.689,1.689-1.689
			c0.934,0,1.688,0.756,1.688,1.689C82.6,1076.166,81.845,1076.922,80.911,1076.922"/>
		<path fill="#F4C61B" d="M82.549,1072.467c-0.673,0-1.22-0.545-1.22-1.221c0-0.674,0.547-1.219,1.22-1.219
			c0.673,0,1.22,0.545,1.22,1.219C83.769,1071.922,83.222,1072.467,82.549,1072.467"/>
		<path fill="#7E90C8" d="M60.634,1078.176c-1.935,0-3.502-1.57-3.502-3.504c0-1.932,1.567-3.498,3.502-3.498
			c1.934,0,3.502,1.566,3.502,3.498C64.136,1076.605,62.567,1078.176,60.634,1078.176"/>
		<path fill="#7E90C8" d="M68.577,1073.781c-1.355,0-2.451-1.1-2.451-2.455c0-1.352,1.096-2.451,2.451-2.451
			c1.354,0,2.453,1.1,2.453,2.451C71.03,1072.682,69.932,1073.781,68.577,1073.781"/>
		<path fill="#7E90C8" d="M74.536,1070.5c-0.932,0-1.684-0.752-1.684-1.682s0.752-1.686,1.684-1.686c0.93,0,1.684,0.756,1.684,1.686
			S75.466,1070.5,74.536,1070.5"/>
		<path fill="#7E90C8" d="M78.507,1068.355c-0.668,0-1.211-0.541-1.211-1.211s0.543-1.213,1.211-1.213
			c0.672,0,1.214,0.543,1.214,1.213S79.179,1068.355,78.507,1068.355"/>
		<path fill="#0F9ACC" d="M60.607,1057.629c-1.933,0-3.501-1.566-3.501-3.504c0-1.932,1.568-3.498,3.501-3.498
			c1.935,0,3.503,1.566,3.503,3.498C64.11,1056.062,62.542,1057.629,60.607,1057.629"/>
		<path fill="#0F9ACC" d="M68.592,1059.824c-1.351,0-2.448-1.094-2.448-2.447c0-1.352,1.098-2.449,2.448-2.449
			c1.352,0,2.448,1.098,2.448,2.449C71.04,1058.73,69.943,1059.824,68.592,1059.824"/>
		<path fill="#0F9ACC" d="M74.579,1061.49c-0.924,0-1.676-0.75-1.676-1.676c0-0.928,0.752-1.678,1.676-1.678
			c0.928,0,1.678,0.75,1.678,1.678C76.257,1060.74,75.507,1061.49,74.579,1061.49"/>
		<path fill="#0F9ACC" d="M78.573,1062.643c-0.666,0-1.205-0.541-1.205-1.205c0-0.662,0.539-1.203,1.205-1.203
			c0.664,0,1.203,0.541,1.203,1.203C79.776,1062.102,79.237,1062.643,78.573,1062.643"/>
		<path fill="#3FBBA3" d="M75.12,1043.084c-1.934,0-3.504-1.57-3.504-3.504c0-1.936,1.57-3.502,3.504-3.502
			c1.933,0,3.502,1.566,3.502,3.502C78.622,1041.514,77.053,1043.084,75.12,1043.084"/>
		<path fill="#3FBBA3" d="M78.444,1049.977c-1.35,0-2.444-1.092-2.444-2.443c0-1.35,1.095-2.445,2.444-2.445
			c1.35,0,2.445,1.096,2.445,2.445C80.89,1048.885,79.794,1049.977,78.444,1049.977"/>
		<path fill="#3FBBA3" d="M80.938,1055.17c-0.924,0-1.674-0.748-1.674-1.672s0.75-1.672,1.674-1.672c0.922,0,1.67,0.748,1.67,1.672
			S81.86,1055.17,80.938,1055.17"/>
		<path fill="#3FBBA3" d="M82.6,1058.672c-0.661,0-1.196-0.535-1.196-1.195s0.535-1.197,1.196-1.197
			c0.661,0,1.196,0.537,1.196,1.197S83.261,1058.672,82.6,1058.672"/>
		<path fill="#F89624" d="M85.499,1112.383c-2.389,0-4.326-1.936-4.326-4.326c0-2.389,1.938-4.324,4.326-4.324
			c2.389,0,4.326,1.936,4.326,4.324C89.825,1110.447,87.888,1112.383,85.499,1112.383"/>
		<path fill="#F89624" d="M85.465,1100.061c-1.833,0-3.318-1.486-3.318-3.318c0-1.83,1.485-3.318,3.318-3.318
			c1.833,0,3.317,1.488,3.317,3.318C88.782,1098.574,87.298,1100.061,85.465,1100.061"/>
		<path fill="#F89624" d="M85.438,1090.676c-1.408,0-2.551-1.145-2.551-2.553c0-1.406,1.143-2.551,2.551-2.551
			s2.551,1.145,2.551,2.551C87.989,1089.531,86.847,1090.676,85.438,1090.676"/>
		<path fill="#F89624" d="M85.414,1081.924c-1.041,0-1.882-0.844-1.882-1.881c0-1.039,0.841-1.885,1.882-1.885
			c1.038,0,1.882,0.846,1.882,1.885C87.296,1081.08,86.452,1081.924,85.414,1081.924"/>
		<path fill="#F36F2D" d="M54.646,1099.645c-2.39,0-4.325-1.938-4.325-4.326c0-2.391,1.936-4.326,4.325-4.326
			c2.39,0,4.325,1.936,4.325,4.326C58.972,1097.707,57.036,1099.645,54.646,1099.645"/>
		<path fill="#F36F2D" d="M62.588,1090.574c-1.831,0-3.315-1.482-3.315-3.316c0-1.83,1.484-3.312,3.315-3.312
			c1.83,0,3.313,1.482,3.313,3.312C65.901,1089.092,64.418,1090.574,62.588,1090.574"/>
		<path fill="#F36F2D" d="M68.638,1083.664c-1.406,0-2.545-1.137-2.545-2.545c0-1.406,1.139-2.545,2.545-2.545
			c1.405,0,2.545,1.139,2.545,2.545C71.183,1082.527,70.043,1083.664,68.638,1083.664"/>
		<path fill="#F36F2D" d="M74.311,1077.236c-1.036,0-1.876-0.836-1.876-1.873c0-1.035,0.84-1.875,1.876-1.875
			c1.036,0,1.876,0.84,1.876,1.875C76.187,1076.4,75.347,1077.236,74.311,1077.236"/>
		<path fill="#3676BA" d="M41.835,1068.822c-2.39,0-4.326-1.938-4.326-4.328c0-2.387,1.937-4.326,4.326-4.326
			c2.389,0,4.325,1.939,4.325,4.326C46.16,1066.885,44.224,1068.822,41.835,1068.822"/>
		<path fill="#3676BA" d="M53.147,1067.717c-1.828,0-3.31-1.482-3.31-3.311s1.481-3.311,3.31-3.311c1.828,0,3.31,1.482,3.31,3.311
			S54.976,1067.717,53.147,1067.717"/>
		<path fill="#3676BA" d="M61.768,1066.873c-1.4,0-2.536-1.137-2.536-2.533c0-1.402,1.136-2.537,2.536-2.537
			c1.4,0,2.534,1.135,2.534,2.537C64.302,1065.736,63.168,1066.873,61.768,1066.873"/>
		<path fill="#3676BA" d="M69.849,1066.137c-1.029,0-1.863-0.832-1.863-1.863c0-1.027,0.834-1.863,1.863-1.863
			c1.029,0,1.862,0.836,1.862,1.863C71.711,1065.305,70.878,1066.137,69.849,1066.137"/>
		<path fill="#068D8C" d="M54.573,1037.971c-2.389,0-4.326-1.939-4.326-4.326c0-2.391,1.938-4.328,4.326-4.328
			c2.389,0,4.326,1.938,4.326,4.328C58.899,1036.031,56.962,1037.971,54.573,1037.971"/>
		<path fill="#068D8C" d="M62.608,1044.912c-1.825,0-3.305-1.479-3.305-3.305c0-1.824,1.479-3.305,3.305-3.305
			c1.826,0,3.307,1.48,3.307,3.305C65.915,1043.434,64.435,1044.912,62.608,1044.912"/>
		<path fill="#068D8C" d="M68.731,1050.205c-1.396,0-2.527-1.131-2.527-2.527s1.132-2.529,2.527-2.529
			c1.396,0,2.527,1.133,2.527,2.529S70.128,1050.205,68.731,1050.205"/>
		<path fill="#068D8C" d="M74.471,1055.219c-1.023,0-1.853-0.83-1.853-1.852c0-1.025,0.83-1.854,1.853-1.854
			c1.023,0,1.852,0.828,1.852,1.854C76.323,1054.389,75.494,1055.219,74.471,1055.219"/>
		<path fill="#2CB35F" d="M85.396,1025.158c-2.391,0-4.326-1.935-4.326-4.326c0-2.387,1.936-4.326,4.326-4.326
			c2.39,0,4.325,1.939,4.325,4.326C89.721,1023.223,87.785,1025.158,85.396,1025.158"/>
		<path fill="#2CB35F" d="M85.383,1035.449c-1.825,0-3.305-1.479-3.305-3.303s1.479-3.305,3.305-3.305
			c1.825,0,3.304,1.48,3.304,3.305S87.208,1035.449,85.383,1035.449"/>
		<path fill="#2CB35F" d="M85.372,1043.291c-1.395,0-2.524-1.129-2.524-2.523s1.13-2.527,2.524-2.527
			c1.396,0,2.526,1.133,2.526,2.527S86.768,1043.291,85.372,1043.291"/>
		<path fill="#2CB35F" d="M85.364,1050.699c-1.024,0-1.852-0.83-1.852-1.852s0.828-1.852,1.852-1.852c1.021,0,1.85,0.83,1.85,1.852
			S86.386,1050.699,85.364,1050.699"/>
	</g>
	<g id="first">
		<path id="mountains" fill="#3A9E99" d="M1918.204,865.157c0,0-21.397-36.287-32.502-44.461c-25.046-18.439-91.55-23.752-117.819-40.42
		c-34.536-21.912-113.756-117.319-113.756-117.319s-152.812-91.315-215.324-97.936c-28.659-3.038-83.146,26.038-111.723,22.6
		c-10.846-1.305-25.638-17.236-36.565-18.08c-32.64-2.521-89.872,30.791-121.881,36.161c-30.774,5.164-94.396,6.299-125.944,6.027
		c-29.055-0.247-86.741-8.138-115.787-7.532c-38.983,0.812-119.158,4.161-154.383,16.572c-23.05,8.123-49.697,49.977-75.161,51.229
		c-37.112,1.826-86.767-54.188-121.881-63.283c-23.536-6.096-76.716,2.928-99.537-4.519c-18.737-6.117-38.437-42.047-58.909-42.189
		c-29.823-0.206-62.157,48.428-87.349,60.27c-13.858,6.514-44.607,16.905-60.938,18.08c-19.036,1.371-57.1-5.886-75.163-10.548
		c-11.37-2.932-30.658-17.291-42.655-16.573c-10.124,0.605-24.319,13.62-32.503,18.08c-12.606,6.873-36.322,22.695-50.784,27.123
		c-17.828,5.455-76.175,9.04-76.175,9.04c-31.046-19.188-104.84,37.138-133.054,60.251c-20.235,16.576-45.082,64.118-60.942,84.881
		c-10.27,13.446-42.658,52.547-42.658,52.547H14.824c0,0,0.045-0.404,0.124-1.169h1590.87l-0.28,1.169H1918.204z"/>
	<path id="smog" fill="#D1DE58" fill-opacity="0.15" d="M1428.658,657.031c-17.418-20.245-33.68-26.311-58.05-35.536
		c-20.151-7.628-33.861-21.287-53.602-29.939c-36.194-15.865-62.657-16.793-103.289-13.555c-18.046,1.438-40.896,4.444-58.718-0.295
		c-29.648-7.884-54.699-37.708-82.811-49.495c-45.819-19.213-118.156-14.058-163.737,5.901
		c-17.412,7.624-31.528,13.625-51.167,11.534c-15.676-1.668-30.562-6.904-46.715-7.737c-29.646-1.529-59.295,2.16-88.864,1.751
		c-32.847-0.454-48.655-3.506-76.245,18.588c-5.999,4.804-3.689,8.707-10.956,12.256c-18.005,8.793-51.144,9.947-70.759,13.253
		c-29.158,4.914-58.223,3.565-87.398,6.253c-21.528,1.983-79.773,24.743-69.634,53.446c3.253,9.21,15.812,8.582,24.552,12.714
		c15.956,7.541,29.176,20.047,45.132,28.125C502.759,697.637,478.86,715.44,508,716.5c17.688,7.232,35.979,13.679,46,32
		c12.738,23.288-14.208,27.322,9.463,42.403c25.821,16.452,58.299,19.659,88.388,13.684c39.054-7.754,75.16-11.729,115.758-6.267
		c27.923,3.756,52.81,18.251,81.185,17.726c20.056-0.372,38.467-9.228,57.872-13.644c48.248-10.982,93.293-4.709,141.56,1.798
		c44.615,6.015,100.298,3.948,144.968-0.104c35.694-3.237,82.576-16.794,112.945-35.311c32.626,27.184,59.932,18.682,97.187,11.13
		c28.994-5.878,60.937-20.382,61.851-56.446C1465.814,698.25,1444.225,675.125,1428.658,657.031z"/>
	<rect class="page1" x="38.524" y="40.995" fill="none" width="1054.143" height="38.606"/>
	<text class="page1" transform="matrix(1 0 0 1 35.5244 75.5068)"><tspan x="0" y="0" fill="#FFFFFF" font-family="'Helvetica-Bold'" font-size="48">O3:</tspan><tspan x="80.016" y="0" fill="#7E90C8" font-family="'Helvetica-Bold'" font-size="48"> </tspan><tspan x="93.352" y="0" fill="#D1DE58" font-family="'Helvetica-Bold'" font-size="48">OZONE</tspan></text>
	<rect class="page1" x="39.125" y="92.466" fill="none" width="863.957" height="65.132"/>
	<text class="page1" transform="matrix(1 0 0 1 39.125 106.8457)"><tspan x="0" y="0" fill="#FFFFFF" font-family="'Helvetica'" font-size="20">MONITORING OF MERCURY SUGGESTS... Lorem ipsum dolor sit amet, </tspan><tspan x="0" y="24" fill="#FFFFFF" font-family="'Helvetica'" font-size="20">consectetur adipiscing elit. Donec at purus ut tortor facilisis tincidunt. </tspan><tspan x="0" y="48" fill="#FFFFFF" font-family="'Helvetica'" font-size="20">Pellentesque in aliquam elit. </tspan></text>
	<rect class="page1" x="40.533" y="200.731" fill="none" width="222.265" height="54.375"/>
	<text class="page1" transform="matrix(1 0 0 1 40.5332 210.7969)"><tspan x="0" y="0" fill="#D1DE58" font-family="'Helvetica-Bold'" font-size="14">WHERE DOES IT COME FROM?</tspan><tspan x="0" y="16.8" fill="#FFFFFF" font-family="'Helvetica'" font-size="14">PM can be linked to both </tspan><tspan x="157.985" y="16.8" fill="#F36F2B" font-family="'Helvetica'" font-size="14">direct </tspan><tspan x="0" y="33.6" fill="#FFFFFF" font-family="'Helvetica'" font-size="14">and </tspan><tspan x="27.248" y="33.6" fill="#F36F2B" font-family="'Helvetica'" font-size="14">indirect </tspan><tspan x="76.269" y="33.6" fill="#FFFFFF" font-family="'Helvetica'" font-size="14">sources.</tspan></text>
	<polygon class="page1" opacity="0.3" fill="#FFFFFF" points="257.098,186.773 275.959,186.773 300.098,223.697 274.959,259.106 257.098,259.106 
		281.891,223.44 	"/>
	<rect class="page1" x="328.795" y="199.731" fill="none" width="222.265" height="54.375"/>
	<text class="page1" transform="matrix(1 0 0 1 328.7949 209.7969)"><tspan x="0" y="0" fill="#D1DE58" font-family="'Helvetica-Bold'" font-size="14">WHAT ARE THE RISKS?</tspan><tspan x="0" y="16.8" fill="#FFFFFF" font-family="'Helvetica'" font-size="14">PM exposure can have serious </tspan><tspan x="0" y="33.6" fill="#FFFFFF" font-family="'Helvetica'" font-size="14">health impacts</tspan></text>
	<polygon class="page1" opacity="0.3" fill="#FFFFFF" points="545.359,187.773 564.221,187.773 588.359,224.697 563.221,260.106 545.359,260.106 
		570.152,224.44 	"/>
	<rect class="page1" x="617.057" y="198.731" fill="none" width="222.265" height="54.375"/>
	<text class="page1" transform="matrix(1 0 0 1 617.0566 208.7969)"><tspan x="0" y="0" fill="#D1DE58" font-family="'Helvetica-Bold'" font-size="14">WHAT IS ITS IMPACT?</tspan><tspan x="0" y="16.8" fill="#FFFFFF" font-family="'Helvetica'" font-size="14">Variations in temperature and </tspan><tspan x="0" y="33.6" fill="#FFFFFF" font-family="'Helvetica'" font-size="14">topography can impact PM</tspan></text>
	<polygon class="page1" opacity="0.3" fill="#FFFFFF" points="833.496,187.773 852.357,187.773 876.496,224.697 851.357,260.106 833.496,260.106 
		858.289,224.44 	"/>
	<rect class="page1" x="905.193" y="199.731" fill="none" width="222.266" height="54.375"/>
	<text class="page1" transform="matrix(1 0 0 1 905.1938 209.7969)"><tspan x="0" y="0" fill="#D1DE58" font-family="'Helvetica-Bold'" font-size="14">HOW DO WE MEASURE IT? </tspan><tspan x="0" y="16.8" fill="#FFFFFF" font-family="'Helvetica'" font-size="14">PM concentrations are monitored </tspan><tspan x="0" y="33.6" fill="#FFFFFF" font-family="'Helvetica'" font-size="14">on the ground and by satellite</tspan></text>
	<polygon class="page1" opacity="0.3" fill="#FFFFFF" points="1431.357,187.773 1140.357,187.773 1135.476,187.773 1121.496,187.773 
		1146.289,224.44 1121.496,260.106 1136.809,260.106 1139.357,260.106 1430.357,260.106 1455.496,224.697 	"/>
	<rect class="page1" x="1193.193" y="199.731" fill="none" width="222.266" height="58.375"/>
	<text class="page1" transform="matrix(1 0 0 1 1193.1934 209.7969)"><tspan x="0" y="0" fill="#D1DE58" font-family="'Helvetica-Bold'" font-size="14">WHAT CAN WE DO ABOUT IT?</tspan><tspan x="0" y="16.8" fill="#FFFFFF" font-family="'Helvetica'" font-size="14">Future changes can improve the </tspan><tspan x="0" y="33.6" fill="#FFFFFF" font-family="'Helvetica'" font-size="14">impacts of PM</tspan></text>
	<g>
		<polygon fill="#D1D3D4" points="1493.629,746.189 1493.629,863.956 1538.266,863.956 1528.848,848.897 1532.884,848.897 
			1523.744,834.381 1528.045,834.381 1519.175,819.859 1523.205,819.859 1514.061,805.336 1518.906,805.336 1508.955,790.282 
			1513.523,790.282 1504.111,775.764 1509.222,775.764 1499.813,761.244 1504.381,761.244 		"/>
		<polygon fill="#FFFFFF" points="1493.629,746.189 1493.629,863.956 1448.994,863.956 1458.405,848.897 1454.373,848.897 
			1463.516,834.381 1459.209,834.381 1468.085,819.859 1464.053,819.859 1473.195,805.336 1468.355,805.336 1478.305,790.282 
			1473.731,790.282 1483.141,775.764 1478.031,775.764 1487.446,761.244 1482.869,761.244 		"/>
	</g>
	<g id="trees" cursor="pointer">
		<g>
			<polygon class="tree-gray" fill="#D1D3D4" points="588.167,746.425 588.167,858.844 630.777,858.844 621.787,844.469 625.64,844.469 
				616.915,830.612 621.021,830.612 612.554,816.75 616.4,816.75 607.672,802.886 612.297,802.886 602.798,788.515 607.159,788.515 
				598.174,774.657 603.053,774.657 594.071,760.795 598.432,760.795 			"/>
			<polygon class="tree" fill="#FFFFFF" points="588.167,746.425 588.167,858.844 545.56,858.844 554.543,844.469 550.694,844.469 
				559.422,830.612 555.31,830.612 563.784,816.75 559.935,816.75 568.662,802.886 564.042,802.886 573.539,788.515 
				569.174,788.515 578.156,774.657 573.278,774.657 582.266,760.795 577.896,760.795 			"/>
		</g>
		<g>
			<polygon class="tree-gray" fill="#D1D3D4" points="416.167,746.425 416.167,858.844 458.777,858.844 449.787,844.469 453.64,844.469 
				444.915,830.612 449.021,830.612 440.554,816.75 444.4,816.75 435.672,802.886 440.297,802.886 430.798,788.515 435.159,788.515 
				426.174,774.657 431.053,774.657 422.071,760.795 426.432,760.795 			"/>
			<polygon class="tree" fill="#FFFFFF" points="416.167,746.425 416.167,858.844 373.56,858.844 382.543,844.469 378.694,844.469 
				387.422,830.612 383.31,830.612 391.784,816.75 387.935,816.75 396.662,802.886 392.042,802.886 401.539,788.515 
				397.174,788.515 406.156,774.657 401.278,774.657 410.266,760.795 405.896,760.795 			"/>
		</g>
		<g>
			<polygon class="tree-gray" fill="#D1D3D4" points="-3.833,748.425 -3.833,860.844 38.777,860.844 29.787,846.469 33.64,846.469 24.916,832.612 
				29.021,832.612 20.554,818.75 24.4,818.75 15.672,804.886 20.297,804.886 10.798,790.515 15.159,790.515 6.174,776.657 
				11.053,776.657 2.071,762.795 6.432,762.795 			"/>
		</g>
		<g>
			<polygon class="tree-gray" fill="#D1D3D4" points="1342.137,731.19 1342.137,848.957 1386.773,848.957 1377.355,833.898 1381.392,833.898 
				1372.252,819.381 1376.553,819.381 1367.683,804.859 1371.713,804.859 1362.568,790.337 1367.414,790.337 1357.463,775.282 
				1362.031,775.282 1352.619,760.765 1357.729,760.765 1348.321,746.244 1352.889,746.244 			"/>
			<polygon class="tree" fill="#FFFFFF" points="1342.137,731.19 1342.137,848.957 1297.502,848.957 1306.913,833.898 1302.881,833.898 
				1312.023,819.381 1307.717,819.381 1316.593,804.859 1312.561,804.859 1321.703,790.337 1316.863,790.337 1326.812,775.282 
				1322.239,775.282 1331.648,760.765 1326.539,760.765 1335.954,746.244 1331.377,746.244 			"/>
		</g>
		<g>
			<polygon class="tree-gray" fill="#D1D3D4" points="635.623,770.425 635.623,861.453 670.125,861.453 662.846,849.812 665.965,849.812 
				658.901,838.592 662.225,838.592 655.369,827.368 658.484,827.368 651.416,816.143 655.161,816.143 647.47,804.506 651,804.506 
				643.726,793.285 647.676,793.285 640.404,782.061 643.934,782.061 			"/>
			<polygon class="tree" fill="#FFFFFF" points="635.623,770.425 635.623,861.453 601.123,861.453 608.397,849.812 605.281,849.812 
				612.348,838.592 609.019,838.592 615.879,827.368 612.763,827.368 619.829,816.143 616.088,816.143 623.778,804.506 
				620.244,804.506 627.517,793.285 623.567,793.285 630.845,782.061 627.307,782.061 			"/>
		</g>
		<g>
			<polygon class="tree-gray" fill="#D1D3D4" points="450.275,770.425 450.275,861.453 484.777,861.453 477.498,849.812 480.618,849.812 
				473.553,838.592 476.877,838.592 470.021,827.368 473.136,827.368 466.068,816.143 469.813,816.143 462.122,804.506 
				465.653,804.506 458.378,793.285 462.328,793.285 455.056,782.061 458.586,782.061 			"/>
			<polygon class="tree" fill="#FFFFFF" points="450.275,770.425 450.275,861.453 415.775,861.453 423.05,849.812 419.933,849.812 427,838.592 
				423.671,838.592 430.532,827.368 427.415,827.368 434.481,816.143 430.741,816.143 438.431,804.506 434.896,804.506 
				442.169,793.285 438.22,793.285 445.497,782.061 441.959,782.061 			"/>
		</g>
		<g>
			<polygon class="tree-gray" fill="#D1D3D4" points="365.845,791.146 365.845,863.705 393.347,863.705 387.544,854.426 390.031,854.426 
				384.4,845.482 387.05,845.482 381.585,836.535 384.067,836.535 378.434,827.587 381.419,827.587 375.288,818.312 
				378.102,818.312 372.304,809.367 375.452,809.367 369.656,800.421 372.47,800.421 			"/>
			<polygon class="tree" fill="#FFFFFF" points="365.845,791.146 365.845,863.705 338.345,863.705 344.143,854.426 341.659,854.426 
				347.292,845.482 344.638,845.482 350.107,836.535 347.623,836.535 353.255,827.587 350.273,827.587 356.403,818.312 
				353.586,818.312 359.383,809.367 356.235,809.367 362.036,800.421 359.216,800.421 			"/>
		</g>
		<g>
			<polygon class="tree-gray" fill="#D1D3D4" points="325.845,791.146 325.845,863.705 353.347,863.705 347.544,854.426 350.031,854.426 
				344.4,845.482 347.05,845.482 341.585,836.535 344.067,836.535 338.434,827.587 341.419,827.587 335.288,818.312 
				338.102,818.312 332.304,809.367 335.452,809.367 329.656,800.421 332.47,800.421 			"/>
			<polygon class="tree" fill="#FFFFFF" points="325.845,791.146 325.845,863.705 298.345,863.705 304.143,854.426 301.659,854.426 
				307.292,845.482 304.638,845.482 310.107,836.535 307.623,836.535 313.255,827.587 310.273,827.587 316.403,818.312 
				313.586,818.312 319.383,809.367 316.235,809.367 322.036,800.421 319.216,800.421 			"/>
		</g>
		<g>
			<polygon class="tree-gray" fill="#D1D3D4" points="83.845,791.146 83.845,863.705 111.347,863.705 105.544,854.426 108.031,854.426 102.4,845.482 
				105.05,845.482 99.585,836.535 102.067,836.535 96.434,827.587 99.419,827.587 93.288,818.312 96.103,818.312 90.304,809.367 
				93.452,809.367 87.656,800.421 90.47,800.421 			"/>
			<polygon class="tree" fill="#FFFFFF" points="83.845,791.146 83.845,863.705 56.345,863.705 62.143,854.426 59.659,854.426 65.292,845.482 
				62.638,845.482 68.107,836.535 65.623,836.535 71.255,827.587 68.273,827.587 74.403,818.312 71.586,818.312 77.383,809.367 
				74.235,809.367 80.036,800.421 77.216,800.421 			"/>
		</g>
		<g>
			<polygon class="tree-gray" fill="#D1D3D4" points="499.845,791.146 499.845,863.705 527.347,863.705 521.544,854.426 524.031,854.426 
				518.4,845.482 521.05,845.482 515.584,836.535 518.067,836.535 512.434,827.587 515.419,827.587 509.288,818.312 
				512.102,818.312 506.304,809.367 509.452,809.367 503.656,800.421 506.47,800.421 			"/>
			<polygon class="tree" fill="#FFFFFF" points="499.845,791.146 499.845,863.705 472.345,863.705 478.143,854.426 475.659,854.426 
				481.292,845.482 478.638,845.482 484.107,836.535 481.623,836.535 487.255,827.587 484.273,827.587 490.403,818.312 
				487.586,818.312 493.383,809.367 490.235,809.367 496.036,800.421 493.216,800.421 			"/>
		</g>
		<g>
			<polygon class="tree-gray" fill="#D1D3D4" points="539.845,791.146 539.845,863.705 567.347,863.705 561.544,854.426 564.031,854.426 
				558.4,845.482 561.05,845.482 555.584,836.535 558.067,836.535 552.434,827.587 555.419,827.587 549.288,818.312 
				552.102,818.312 546.304,809.367 549.452,809.367 543.656,800.421 546.47,800.421 			"/>
			<polygon class="tree" fill="#FFFFFF" points="539.845,791.146 539.845,863.705 512.345,863.705 518.143,854.426 515.659,854.426 
				521.292,845.482 518.638,845.482 524.107,836.535 521.623,836.535 527.255,827.587 524.273,827.587 530.403,818.312 
				527.586,818.312 533.383,809.367 530.235,809.367 536.036,800.421 533.216,800.421 			"/>
		</g>
		<g>
			<polygon class="tree-gray" fill="#D1D3D4" points="262.275,770.425 262.275,861.453 296.777,861.453 289.498,849.812 292.618,849.812 
				285.553,838.592 288.877,838.592 282.021,827.368 285.136,827.368 278.068,816.143 281.814,816.143 274.122,804.506 
				277.653,804.506 270.378,793.285 274.328,793.285 267.056,782.061 270.586,782.061 			"/>
			<polygon class="tree" fill="#FFFFFF" points="262.275,770.425 262.275,861.453 227.775,861.453 235.05,849.812 231.933,849.812 239,838.592 
				235.671,838.592 242.532,827.368 239.415,827.368 246.481,816.143 242.741,816.143 250.431,804.506 246.896,804.506 
				254.169,793.285 250.22,793.285 257.497,782.061 253.959,782.061 			"/>
		</g>
		<g>
			<polygon class="tree-gray" fill="#D1D3D4" points="48.527,771.425 48.527,862.453 83.029,862.453 75.75,850.812 78.87,850.812 71.805,839.592 
				75.129,839.592 68.273,828.368 71.388,828.368 64.32,817.143 68.065,817.143 60.374,805.506 63.905,805.506 56.63,794.285 
				60.58,794.285 53.308,783.061 56.838,783.061 			"/>
			<polygon class="tree" fill="#FFFFFF" points="48.527,771.425 48.527,862.453 14.027,862.453 21.302,850.812 18.185,850.812 25.252,839.592 
				21.923,839.592 28.784,828.368 25.667,828.368 32.733,817.143 28.993,817.143 36.683,805.506 33.148,805.506 40.421,794.285 
				36.472,794.285 43.749,783.061 40.211,783.061 			"/>
		</g>
		<g>
			<polygon class="tree-gray" fill="#D1D3D4" points="1373.366,684.166 1373.366,850.062 1436.245,850.062 1422.979,828.849 1428.664,828.849 
				1415.789,808.4 1421.848,808.4 1409.353,787.943 1415.029,787.943 1402.147,767.485 1408.974,767.485 1394.956,746.278 
				1401.392,746.278 1388.133,725.828 1395.331,725.828 1382.078,705.373 1388.512,705.373 			"/>
			<polygon class="tree" fill="#FFFFFF" points="1373.366,684.166 1373.366,850.062 1310.49,850.062 1323.747,828.849 1318.067,828.849 
				1330.946,808.4 1324.879,808.4 1337.383,787.943 1331.703,787.943 1344.582,767.485 1337.764,767.485 1351.779,746.278 
				1345.337,746.278 1358.592,725.828 1351.395,725.828 1364.656,705.373 1358.209,705.373 			"/>
		</g>
		<g>
			<polygon class="tree-gray" fill="#D1D3D4" points="1444.132,731.19 1444.132,848.957 1488.769,848.957 1479.351,833.898 1483.387,833.898 
				1474.247,819.381 1478.548,819.381 1469.678,804.859 1473.708,804.859 1464.563,790.337 1469.409,790.337 1459.458,775.282 
				1464.026,775.282 1454.614,760.765 1459.725,760.765 1450.316,746.244 1454.884,746.244 			"/>
			<polygon class="tree" fill="#FFFFFF" points="1444.132,731.19 1444.132,848.957 1399.497,848.957 1408.908,833.898 1404.876,833.898 
				1414.019,819.381 1409.712,819.381 1418.588,804.859 1414.556,804.859 1423.698,790.337 1418.858,790.337 1428.808,775.282 
				1424.234,775.282 1433.644,760.765 1428.534,760.765 1437.949,746.244 1433.372,746.244 			"/>
		</g>
		<g>
			<polygon class="tree-gray" fill="#D1D3D4" points="1489.737,660.693 1489.737,856.002 1563.764,856.002 1548.145,831.027 1554.839,831.027 
				1539.681,806.954 1546.813,806.954 1532.103,782.87 1538.787,782.87 1523.621,758.785 1531.657,758.785 1515.154,733.818 
				1522.73,733.818 1507.121,709.742 1515.597,709.742 1499.993,685.66 1507.568,685.66 			"/>
			<polygon class="tree" fill="#FFFFFF" points="1489.737,660.693 1489.737,856.002 1415.713,856.002 1431.321,831.027 1424.634,831.027 
				1439.796,806.954 1432.653,806.954 1447.374,782.87 1440.687,782.87 1455.849,758.785 1447.822,758.785 1464.322,733.818 
				1456.738,733.818 1472.343,709.742 1463.869,709.742 1479.483,685.66 1471.893,685.66 			"/>
		</g>
		<g>
			<polygon class="tree-gray" fill="#D1D3D4" points="1565.135,567.696 1565.135,832.526 1665.511,832.526 1644.332,798.661 1653.409,798.661 
				1632.855,766.018 1642.527,766.018 1622.58,733.362 1631.644,733.362 1611.08,700.704 1621.977,700.704 1599.599,666.85 
				1609.872,666.85 1588.706,634.204 1600.199,634.204 1579.041,601.55 1589.312,601.55 			"/>
			<polygon class="tree" fill="#FFFFFF" points="1565.135,567.696 1565.135,832.526 1464.762,832.526 1485.926,798.661 1476.858,798.661 
				1497.417,766.018 1487.732,766.018 1507.692,733.362 1498.625,733.362 1519.184,700.704 1508.301,700.704 1530.674,666.85 
				1520.39,666.85 1541.549,634.204 1530.059,634.204 1551.231,601.55 1540.938,601.55 			"/>
		</g>
	</g>
	<rect id="factory-line" x="108" y="857" fill="#FFFFFF" width="126" height="4"/>
	<g cursor="pointer" id="buildings">
		<g>
			<g>
				<path opacity="0.75" fill="#BCBEC0" d="M700.571,840.039c9.262-5.137,13.893-7.705,23.155-12.842c0-22.621,0-45.241,0-67.862
					c-9.262,0-13.893,0-23.155,0C700.571,786.237,700.572,813.138,700.571,840.039z"/>
				<path opacity="0.75" fill="#E6E7E8" d="M667.038,823.204c-3.194,0-4.791,0-7.985,0c0-24.748-0.001-49.498,0-74.246
					c3.194,0,4.79,0,7.983,0C667.04,773.706,667.038,798.456,667.038,823.204z"/>
				<path opacity="0.75" fill="#D1D3D4" d="M667.037,748.958c0.003,24.748,0.001,49.498,0.001,74.246c-3.194,0-4.791,0-7.985,0
					c0,8.622,0,12.934,0,21.556c3.194,0,4.791,0,7.985,0c6.706,0,10.059,0,16.766,0c0.003-31.934,0.001-63.868,0.001-95.802
					C677.098,748.958,673.743,748.958,667.037,748.958z"/>
				<path opacity="0.75" fill="#D1D3D4" d="M687.795,786.081c3.194,0,4.791,0,7.985,0c0.001-18.495,0-36.99,0-55.485
					c3.513,0,5.271,0,8.784,0c0,11.097,0,16.646,0,27.743c1.917,2.315,2.875,3.472,4.792,5.787c-0.001,22.354-0.002,44.708,0,67.062
					c1.597,0,2.395,0,3.991,0c0-10.857,0-16.286,0-27.144c5.11,0,7.665,0,12.775,0c0,4.151,0,6.227,0,10.378
					c5.749,0,8.622,0,14.37,0c-6.387,3.513-9.58,5.27-15.969,8.782c0,3.193,0,4.79,0,7.983
					c-12.242,4.524-24.483,9.049-36.726,13.573C687.798,825.201,687.795,805.641,687.795,786.081z"/>
				<path opacity="0.75" fill="#BCBEC0" d="M770.833,806.638c-2.556,0-3.834,0-6.389,0c0-10.937,0-16.406,0-27.343
					c2.555,0,3.833,0,6.389,0C770.833,790.232,770.833,795.701,770.833,806.638z"/>
				<path opacity="0.75" fill="#BCBEC0" d="M730.112,779.295c0,12.774,0,25.547,0,38.321c5.43,0,8.144,0,13.574,0
					c0,2.235,0,3.352,0,5.587c5.429,0,8.143,0,13.572,0c0-2.235,0-3.352,0-5.587c0.002-12.774,0.002-25.547,0-38.321
					C746.399,779.295,740.972,779.295,730.112,779.295z"/>
				<path opacity="0.75" fill="#D1D3D4" d="M808.357,688.682c0-1.677-0.001-2.514-0.001-4.19c-9.381,0-18.762,0-28.143,0
					c0,1.677,0,2.514,0,4.19c-3.752,0-5.631,0-9.383,0c0.003,29.339,0.003,58.679,0,88.018c1.117,0,1.678,0,2.795,0
					c0,4.391,0,6.586,0,10.977c1.197,0,1.797,0,2.994,0c-0.001,21.089,0,42.179,0,63.269c5.509,0,8.263,0,13.772,0
					c0-21.089,0-42.179,0-63.269c0-4.391,0-6.586,0-10.977c9.582,0,19.163,0,28.744,0c-0.002-29.339-0.002-58.679,0-88.018
					C814.825,688.682,812.669,688.682,808.357,688.682z"/>
				<path opacity="0.75" fill="#E6E7E8" d="M981.382,844.36c-10.057,0-15.084,0-25.141,0c-0.002-21.688-0.002-43.377-0.002-65.065
					c10.057,0,15.086,0,25.143,0C981.383,800.983,981.384,822.672,981.382,844.36z"/>
				<path opacity="0.75" fill="#A7A9AC" d="M1025.084,845.257c-7.902,0-11.853,0-19.755,0c-0.002-36.225,0-72.449,0-108.674
					c7.902,0,11.852,0,19.754,0C1025.087,772.808,1025.083,809.033,1025.084,845.257z"/>
				<path opacity="0.75" fill="#E6E7E8" d="M1042.742,788.376c-5.866,0-8.799,0-14.665,0c0-77.439,0-154.879,0-232.318
					c4.189,0,6.285,0,10.475,0c0.24,3.592,0.359,5.389,0.6,8.982c1.437,0,2.154,0,3.591,0
					C1042.742,639.485,1042.739,713.931,1042.742,788.376z"/>
				<path opacity="0.75" fill="#E6E7E8" d="M819.136,835.977c-9.582,4.988-19.162,9.981-28.744,14.969c0-24.748,0-49.498,0-74.246
					c9.582,0,19.163,0,28.744,0C819.134,796.459,819.136,816.218,819.136,835.977z"/>
				<path opacity="0.75" fill="#D1D3D4" d="M1120.978,744.169c-3.592-13.971-7.182-27.942-10.771-41.914
					c0-5.429-0.001-8.142-0.001-13.571c-3.237,0-4.855,0-8.093,0c0-4.95,0-7.425,0-12.375c-3.832,0-5.748,0-9.58,0
					c0,6.866,0,10.297,0,17.163c5.886,16.899,11.775,33.797,17.66,50.696C1114.506,744.169,1116.664,744.169,1120.978,744.169z"/>
				<path opacity="0.75" fill="#A7A9AC" d="M1214.891,789.573c0-9.38-0.002-14.069-0.002-23.45c1.517,0,2.276,0,3.794,0
					c0-4.55,0-6.826,0-11.376c2.395,0,3.592,0,5.987,0c0-10.618,0.001-15.928,0.001-26.546c3.514,0,5.269,0,8.781,0
					c0,4.391,0,6.587,0,10.978c8.305,0,12.457,0,20.762,0c0,7.025-0.002,10.538-0.002,17.563c1.756,0,2.635,0,4.391,0
					c0-3.193,0-4.79,0-7.983c1.996,0,2.994,0,4.99,0c0,4.551,0,6.826,0,11.376c3.034,0,4.551,0,7.585,0
					c-0.001,16.067,0.002,32.133,0.001,48.2c-14.472,0-28.943,0-43.414,0c0-7.505,0-11.258,0-18.763
					C1222.615,789.573,1220.04,789.573,1214.891,789.573z"/>
				<path opacity="0.75" fill="#D1D3D4" d="M1227.765,805.042c2.275,0,3.412,0,5.688,0c0,1.317,0,1.977,0,3.294
					c2.396,0,3.594,0,5.988,0c0-9.68,0-19.36,0-29.04c0.639,0,0.959,0,1.598,0c3.672-6.546,5.51-9.82,9.183-16.366
					c3.833,6.546,5.747,9.82,9.579,16.366c0.559,0,0.84,0,1.399,0c0,6.626-0.001,9.938-0.001,16.565c-1.277,0-1.916,0-3.193,0
					c0,9.939,0,14.909,0,24.849c-2.635,0-3.953,0-6.588,0c0,2.395,0,3.593,0,5.988c-2.035,0-3.053,0-5.088,0
					c0,1.197,0,1.796,0,2.994c-7.426,0-11.139,0-18.564,0C1227.765,819.831,1227.765,814.901,1227.765,805.042z"/>
				<path opacity="0.75" fill="#E6E7E8" d="M1090.536,796.459c0,8.861,0.001,13.293,0.001,22.154l0,0c8.685,0,13.025,0,21.71,0
					c0,7.904,0,11.856,0,19.76c10.66,0,21.322,0,31.982,0c0.004-79.835,0-159.67,0-239.505c5.27,0,7.904,0,13.174,0
					c0-3.033-0.001-4.55-0.001-7.583c-9.82,0-14.729,0-24.55,0c0,77.306,0,154.612,0,231.919c-3.513,0-5.268,0-8.781,0
					c0-24.083,0.002-48.167,0-72.25c-1.238,0-1.855,0-3.094,0c0-2.714,0-4.071,0-6.786c-4.309,0-6.463,0-10.771,0
					c0.002-12.507-0.004-25.015-0.001-37.522c0-5.269,0-7.904,0-13.173c-6.591,0-9.886-0.001-16.476-0.001
					c0.134,15.119,0.267,30.237,0.4,45.356c-1.438-0.017-2.156-0.025-3.593-0.042
					C1090.537,758.011,1090.534,777.235,1090.536,796.459L1090.536,796.459z"/>
				<path opacity="0.75" fill="#A7A9AC" d="M819.136,819.213c1.037,0,1.557,0,2.594,0c0-9.74,0.002-14.61,0.002-24.35
					c1.517,0,2.274,0,3.791,0c0.002,13.705,0,27.41,0.001,41.114c-2.556,0-3.833,0-6.388,0
					C819.136,829.271,819.136,825.919,819.136,819.213z"/>
				<path opacity="0.75" fill="#A7A9AC" d="M981.382,836.773c3.593,0,5.389,0,8.982,0c-0.001-14.569,0-29.138-0.001-43.707
					c-3.592,0-5.389,0-8.981,0C981.382,807.635,981.382,822.204,981.382,836.773z"/>
				<path opacity="0.75" fill="#BCBEC0" d="M837.302,754.146c3.073,0,4.609,0,7.684,0c0,1.437,0,2.155,0,3.592
					c2.955,0,4.432,0,7.387,0c0,2.076,0,3.113,0,5.189c1.916,0,2.872,0,4.788,0c0,4.711,0.001,7.066,0.001,11.776
					c0.719,0,1.077,0,1.796,0c-0.001,9.847,0.001,19.693,0.001,29.54c-0.279,0-0.42,0-0.699,0c0-4.071,0-6.108,0-10.179
					c-0.799,0-1.197,0-1.996,0c0-6.587,0-9.879,0-16.465c-7.824,0.199-11.736,0.298-19.561,0.497
					C836.941,768.516,837.061,763.726,837.302,754.146z"/>
				<path opacity="0.75" fill="#E6E7E8" d="M827.519,777.599c0-3.952,0-5.928,0-9.88c1.996,0,2.994,0,4.99,0c0,1.976,0,2.964,0,4.94
					c1.996,0,2.994,0,4.99,0c0,1.976,0,2.964,0,4.94c7.505,0,11.258,0,18.764,0c0,6.587,0,9.879,0,16.465c0.799,0,1.197,0,1.996,0
					c0,4.071,0,6.108,0,10.179c-7.746,0-11.617,0-19.363,0c0-2.994,0-4.491,0-7.484c-1.318,0-1.976,0-3.293,0
					c0-5.509,0.001-8.263,0.001-13.771c-0.958,0-1.436,0-2.393,0c0-2.155-0.002-3.233-0.002-5.389
					C830.933,777.599,829.794,777.599,827.519,777.599z"/>
				<path opacity="0.75" fill="#D1D3D4" d="M827.519,767.719c0-2.874-0.001-4.312-0.001-7.186c0.759,0,1.14,0,1.897,0
					c0-5.748,0.002-8.623,0.002-14.371c0.639,0,0.957,0,1.596,0c0-1.796-0.001-2.694-0.001-4.491c0.839,0,1.259,0,2.097,0
					c0,0.918,0,1.376,0,2.294c1.676,0,2.516,0,4.191,0c0.002,9.564,0.002,19.128,0.001,28.692c-1.916,0-2.876,0-4.792,0
					c0-1.976,0-2.964,0-4.94C830.513,767.719,829.515,767.719,827.519,767.719z"/>
				<path opacity="0.75" fill="#A7A9AC" d="M837.302,748.757c4.75,0,7.123,0,11.873,0c0,3.593,0.001,5.389,0.001,8.982
					c-1.677,0-2.513,0-4.19,0c0-1.437,0-2.155,0-3.592c-3.074,0-4.61,0-7.684,0C837.302,751.99,837.302,750.913,837.302,748.757z"/>
				<path opacity="0.75" fill="#E6E7E8" d="M863.248,804.243c0-3.752-0.001-5.628-0.001-9.38c3.114,0,4.67,0,7.784,0
					c0.001-24.55-0.001-49.099-0.001-73.649c1.837,0,2.756,0,4.592,0c0.001,12.175,0.002,24.35,0,36.524c2.235,0,3.352,0,5.588,0
					c-0.002,20.69,0,41.381-0.001,62.071c-5.067,0-7.601,0-12.671,0c0-6.227,0.002-9.34,0.002-15.567
					C866.423,804.243,865.364,804.243,863.248,804.243z"/>
				<path opacity="0.75" fill="#D1D3D4" d="M864.245,794.863c2.715,0,4.072,0,6.786,0c0.001-24.55-0.001-49.099-0.001-73.649
					c-2.714,0-4.072,0-6.786,0C864.246,745.764,864.245,770.313,864.245,794.863z"/>
				<path opacity="0.75" fill="#D1D3D4" d="M892.185,819.81c-2.234,0-3.354,0-5.588,0c0-17.83,0-35.66,0-53.49
					c2.234,0,3.352,0,5.588,0C892.186,784.15,892.188,801.98,892.185,819.81z"/>
				<path opacity="0.75" fill="#E6E7E8" d="M882.506,824.301c3.552-3.552,5.329-5.328,8.882-8.88c0-17.764,0-35.527,0-53.291
					c4.15,0,6.225,0,10.375,0c0,6.467,0,9.7,0,16.167c0.959,0,1.436,0,2.394,0c0,7.904,0,11.854,0,19.758c2.635,0,3.953,0,6.587,0
					c0.001,9.956-0.001,19.911,0,29.866c-1.681,1.682-2.522,2.521-4.204,4.203c-6.361,0-9.541,0-15.901,0
					C887.386,828.994,885.759,827.43,882.506,824.301z"/>
				<path opacity="0.75" fill="#BCBEC0" d="M914.335,791.868c-4.071,0-6.108,0-10.178,0c0,2.475,0,3.711,0,6.186
					c2.635,0,3.953,0,6.587,0c0.001,9.956-0.001,19.911,0,29.866c1.437,0,2.153,0,3.591,0
					C914.332,815.903,914.332,803.886,914.335,791.868z"/>
				<path opacity="0.75" fill="#D1D3D4" d="M939.776,557.854c9.545,0,19.09,0.001,28.634,0c0,5.068,0,7.602,0,12.671
					c0.718,0,1.078,0,1.796,0c0,17.298,0.002,34.595,0,51.893c1.118,0,1.677,0,2.795,0c0,6.706,0,10.059,0,16.765
					c1.037,0,1.556,0,2.594,0c0,5.509,0,8.263,0,13.771c2.315,0,3.473,0,5.787,0c0,61.273,0,122.546,0,183.819
					c-6.465,0-9.699,0-16.164,0c0-15.767,0-31.534,0-47.301c-1.038,0-1.557,0-2.594,0c0-4.111,0-6.166,0-10.277
					c-1.477,0-2.214,0-3.689,0c-1.078,0-1.617,0-2.695,0c0-40.25,0.004-80.5,0-120.749c-1.915,0-2.873,0-4.789,0
					c0-6.428,0-9.641,0-16.069c-3.112,0-4.669,0-7.781,0c0-6.386,0-9.579,0-15.965c-0.959,0-1.438,0-2.395,0
					c0-7.026,0-10.539,0-17.565c-0.6,0-0.898,0-1.498,0C939.776,591.85,939.776,574.852,939.776,557.854z"/>
				<path opacity="0.75" fill="#E6E7E8" d="M981.382,842.563c3.713,0,5.567,0,9.279,0c1.617-1.617,2.425-2.424,4.041-4.041
					c9.429,0,18.857,0,28.285,0c0-8.323,0-12.484,0-20.807c-2.635,0-3.949,0-6.583,0c0,1.377-0.001,2.065-0.001,3.442
					c-1.438,0-2.154,0-3.592,0c0-19.26,0.001-38.52,0-57.78c-0.359,0-0.539,0-0.898,0c0-2.215,0.001-3.324,0.001-5.54
					c-1.677,0-2.516,0-4.192,0c0-1.856,0-2.783,0-4.639c-2.215,0-3.322,0-5.537,0c0,4.131,0,6.197,0,10.329
					c-2.275,0-3.412,0-5.686,0c0,20.158,0,40.316,0,60.474c-3.232,0-4.85,0-8.082,0c0,5.109,0,7.662,0,12.771
					c-2.815,0-4.221,0-7.035,0C981.382,839.089,981.382,840.248,981.382,842.563z"/>
				<path opacity="0.75" fill="#D1D3D4" d="M1042.742,565.04c0.659,0,0.989,0,1.647,0c0,3.293,0,4.94,0,8.233
					c1.077,0,1.616,0,2.693,0c0,8.921,0,13.382,0,22.304c-0.898,0-1.347,0-2.244,0c0,16.366,0,32.732,0,49.098
					c-0.838,0-1.259,0-2.097,0C1042.742,618.129,1042.742,591.584,1042.742,565.04z"/>
				<path opacity="0.75" fill="#A7A9AC" d="M1064.039,818.613c3.479,0,5.216,0,8.694,0c0-20.191,0-40.382,0-60.574
					c-3.479,0-5.216,0-8.694,0C1064.039,778.231,1064.039,798.422,1064.039,818.613z"/>
				<path opacity="0.75" fill="#E6E7E8" d="M1076.567,818.613c-4.31,0-6.465,0-10.774,0c0-4.391-0.001-6.586-0.001-10.977
					c4.31,0,6.466,0,10.775,0C1076.567,812.027,1076.567,814.223,1076.567,818.613z"/>
				<path opacity="0.75" fill="#D1D3D4" d="M1065.792,797.126c4.311,0,6.466,0,10.775,0c0,4.204,0,6.307,0,10.511
					c-4.31,0-6.466,0-10.775,0C1065.792,803.433,1065.792,801.33,1065.792,797.126z"/>
				<path opacity="0.75" fill="#BCBEC0" d="M1065.791,775.304c3.672,0,5.51,0,9.182,0c0,8.729,0,13.093,0,21.822
					c-3.672,0-5.509,0-9.181,0C1065.792,788.398,1065.791,784.033,1065.791,775.304z"/>
				<path opacity="0.75" fill="#A7A9AC" d="M1090.537,818.613c-6.228,0-9.339,0-15.564,0c0-17.431,0.001-34.862,0-52.293
					c6.226,0,9.335,0,15.562,0C1090.538,783.751,1090.536,801.182,1090.537,818.613z"/>
				<path opacity="0.75" fill="#D1D3D4" d="M1165.788,658.146c-3.833,0-5.749,0-9.582,0c0.002-22.287,0-44.573,0-66.86
					c3.273,0,4.91,0,8.184,0c0,9.819,0,14.729,0,24.548c0.559,0,0.84,0,1.398,0C1165.788,629.938,1165.786,644.042,1165.788,658.146
					z"/>
				<path opacity="0.75" fill="#BCBEC0" d="M1132.054,823.205c-3.193,0-4.789,0-7.982,0c0-12.84,0.002-25.68-0.001-38.52
					c3.193,0,4.79,0,7.983,0C1132.054,797.524,1132.054,810.365,1132.054,823.205z"/>
				<path opacity="0.75" fill="#A7A9AC" d="M1197.326,798.456c-3.593,0-5.39,0-8.982,0c0-9.9-0.001-14.849-0.001-24.748
					c3.594,0,5.391,0,8.982,0C1197.325,783.607,1197.326,788.557,1197.326,798.456z"/>
				<path opacity="0.75" fill="#BCBEC0" d="M1172.673,837.375c4.512,0,6.768,0,11.279,0c0.001-19.36,0-38.72,0-58.08
					c-4.512,0-6.768,0-11.279,0C1172.673,798.656,1172.673,818.016,1172.673,837.375z"/>
				<path opacity="0.75" fill="#E6E7E8" d="M1172.673,815.622c1.638,0,2.456,0,4.094,0c0,8.303,0,12.454,0,20.756
					c3.354,0,5.029,0,8.383,0c0-13.372,0-26.745,0-40.117c1.996,0,2.994,0,4.99,0c0-3.193,0-4.791,0-7.984c2.396,0,3.593,0,5.988,0
					c0-2.475-0.001-3.712-0.001-6.187c4.312,0,6.469,0,10.78,0c0,2.993,0,4.489,0,7.483c0,8.622,0,12.934,0,21.556
					c-5.549,0-8.325,0-13.875,0c0,9.78,0.002,19.559,0,29.339c-0.958,0-1.436,0-2.395,0c0,1.796,0,2.695,0,4.491
					c-7.186,0-10.778,0-17.965,0C1172.673,835.18,1172.673,825.401,1172.673,815.622z"/>
				<path opacity="0.75" fill="#D1D3D4" d="M1293.534,808.336c-5.668,0-8.504,0-14.172,0c0-5.149,0.002-7.725,0.002-12.874
					c5.668,0,8.502,0,14.17,0C1293.534,800.611,1293.534,803.187,1293.534,808.336z"/>
				<path opacity="0.75" fill="#E6E7E8" d="M1271.179,808.336c8.463,0,12.693,0,21.157,0c0-3.393,0-5.09,0-8.483
					c2.954,0,4.433,0,7.388,0c0,3.393,0,5.09,0,8.483c0.798,0,1.197,0,1.995,0c0,3.393-0.001,5.087-0.001,8.48
					c-2.395,0-3.592,0-5.986,0c0,3.593-0.001,5.391-0.001,8.983c-9.88,0-19.761,0-29.642,0c-2.035-2.754-3.055-4.132-5.09-6.887
					c0-4.23-0.001-6.346-0.001-10.577C1265.069,808.336,1267.106,808.336,1271.179,808.336z"/>
				<path opacity="0.75" fill="#BCBEC0" d="M1279.364,795.461c0,0-0.426-27.617-0.002-27.193c0.424,0.425,8.782,0,8.782,0
					c0,7.285,0.001,10.927,0.001,18.212c2.156,0,3.232,0,5.389,0c0,3.593,0,5.388,0,8.98
					C1287.866,795.461,1285.032,795.461,1279.364,795.461z"/>
				<g>
					<path id="front-buildings" fill="#FFFFFF" d="M1301.718,816.816c-2.395,0-3.592,0-5.986,0c0,3.593-0.001,5.391-0.001,8.983
						c-9.88,0-19.761,0-29.642,0c-2.035-2.754-3.055-4.132-5.09-6.887c0-9.221,0-13.831,0-23.052c-1.197,0-1.796,0-2.994,0
						c0,4.91,0.001,7.365,0.001,12.275c0,5.029-0.001,7.544-0.001,12.574c-2.635,0-3.953,0-6.588,0c0,2.395,0,3.593,0,5.988
						c-2.035,0-3.053,0-5.088,0c0,1.197,0,1.796,0,2.994c-7.426,0-11.139,0-18.564,0c-0.005-13.373-0.002-26.745,0-40.118
						c-8.383,0-12.575,0-20.959,0c0,8.622,0,12.934,0,21.556c-5.509,0-8.264,0-13.773,0c0,6.227,0,9.341,0,15.568
						c0,5.508,0,8.263,0,13.771c-0.958,0-1.436,0-2.395,0c0,1.796,0,2.695,0,4.491c-7.186,0-10.778,0-17.965,0
						c0-62.271,0.002-124.542,0-186.812c-6.107,0-9.162,0-15.27,0c0.006-19.759-0.004-39.518,0-59.277c-5.27,0-7.904,0-13.174,0
						c0,79.835,0.004,159.67,0,239.505c-10.479,0-20.959,0-31.438,0c-1.101-39.818-2.195-79.636-3.293-119.454
						c-3.832,0-5.748,0-9.581,0c-0.004,25.847-0.003,51.693-0.001,77.54c-6.707,0-10.061,0-16.766,0c0,8.861,0,13.293,0,22.154
						c-8.501,0-12.75,0-21.251,0c-0.005-55.086,0.001-110.171-0.001-165.257c-0.718,0-1.077,0-1.795,0c0-3.473,0-5.209,0-8.682
						c-0.959,0-1.438,0-2.395,0c0-16.366,0-32.732,0-49.098c-5.148,0-7.723,0-12.871,0c0,16.366,0,32.732,0,49.098
						c-0.838,0-1.259,0-2.097,0c0,37.123,0,74.246,0,111.369c-1.317,0-1.975,0-3.292,0c0-32.532,0-65.065,0-97.597
						c-1.676,0-2.514,0-4.189,0c0-20.657,0-41.315,0-61.972c-2.635-0.838-3.951-1.257-6.586-2.096c0-9.46,0-14.191,0-23.651
						c-1.436,0-2.154,0-3.592,0c0,91.51-0.002,183.02,0.001,274.53c-0.839,0-1.259,0-2.097,0c0-2.994,0.001-4.49,0.001-7.484
						c-9.679,0-19.357,0-29.034,0c-1.317,1.916-1.976,2.874-3.293,4.79c-8.021,0-12.032,0-20.055,0c-2.754,0-4.131,0-6.885,0
						c-1.915,0-2.871,0-4.787,0c0-21.089,0-42.179,0-63.268c-1.078,0-1.617,0-2.695,0c0-40.283,0-80.566,0-120.85
						c-1.915,0-2.873,0-4.789,0c0-6.428,0-9.641,0-16.069c-3.112,0-4.669,0-7.781,0c0-6.386,0-9.579,0-15.965
						c-0.959,0-1.438,0-2.395,0c0-7.185,0-10.778,0-17.963c-0.6,0-0.898,0-1.498,0c0-16.865,0-33.73,0-50.595
						c-2.035,0-3.053,0-5.088,0c0,17.564,0,35.127,0.001,52.69c-2.274,0-3.412-0.001-5.687-0.001c0,4.67,0,7.006,0,11.676
						c-2.635,0-3.951,0-6.586,0c-0.007,65.165,0.004,130.331-0.001,195.496c-1.915,0-2.872,0-4.787,0
						c0,4.082-0.001,6.123-0.001,10.204c-2.504,0-3.757,0-6.262,0c-1.805,1.806-2.709,2.708-4.514,4.514c-6.486,0-9.728,0-16.213,0
						c-3.691-3.692-5.539-5.538-9.23-9.23c0-1.357,0.001-2.037,0.001-3.394c-5.147,0-7.722,0-12.872,0
						c0-6.227,0.002-9.34,0.002-15.567c-9.882,0-19.763,0-29.644,0c0-2.994,0-4.491,0-7.484c-1.318,0-1.976,0-3.293,0
						c0-5.509,0.001-8.263,0.001-13.771c-0.958,0-1.436,0-2.393,0c0-2.155-0.002-3.233-0.002-5.389c-2.275,0-3.414,0-5.689,0
						c0,0.679,0,1.018,0,1.697c0.001,18.894,0,37.788,0,56.682c-3.354,0-5.029,0-8.383,0c-9.582,4.988-19.162,9.981-28.744,14.969
						c-5.509,0-8.263,0-13.772,0c0-21.089-0.001-42.179,0-63.269c-1.197,0-1.797,0-2.994,0c0-4.391,0-6.586,0-10.977
						c-1.117,0-1.678,0-2.795,0c0.002,9.979,0,19.958,0.002,29.938c-3.434,0-5.15,0-8.584,0c0,4.391-0.002,6.587-0.002,10.979
						c-1.995,0-2.993,0-4.988,0c0,2.235,0,3.352,0,5.587c-5.43,0-8.144,0-13.572,0c0-2.235,0-3.352,0-5.587
						c-3.601,0-5.402,0-9.002,0c-4.065,2.235-6.098,3.352-10.162,5.587c0,3.193,0,4.79,0,7.983
						c-12.242,4.524-24.483,9.049-36.726,13.573c-9.581,0-19.163,0-28.744,0c0,7.145,0,10.717,0,17.862
						c214.222,0,428.444,0,642.666,0c0-7.425,0-11.137,0-18.562C1301.719,833.163,1301.718,827.713,1301.718,816.816z"/>
				</g>
			</g>
		</g>
		<g cursor="pointer" >
			<polygon fill="#47BCB6" points="117.549,719.861 112.598,820.528 136.251,820.528 132.401,719.312 			"/>
			<polygon class="smoke-stack" fill="#FFFFFF" points="117.107,728.854 116.717,736.757 132.962,736.805 132.67,728.854 			"/>
			<polygon class="smoke-stack" fill="#FFFFFF" points="116.164,746.762 115.79,754.632 133.695,754.6 133.401,746.762 			"/>
			<polygon class="smoke-stack" fill="#FFFFFF" points="115.22,765.026 114.831,772.832 134.41,772.832 134.117,764.993 			"/>
			<polygon class="smoke-stack" fill="#FFFFFF" points="114.31,783.824 113.887,791.63 135.158,791.598 134.832,783.792 			"/>
			<polygon class="smoke-stack" fill="#FFFFFF" points="113.367,803.274 112.976,811.113 135.873,811.146 135.548,803.243 			"/>
		</g>
		<g cursor="pointer" >
			<polygon fill="#47BCB6" points="152.569,720.024 147.618,820.69 171.271,820.69 167.421,719.475 			"/>
			<polygon class="smoke-stack" fill="#FFFFFF" points="152.126,729.016 151.736,736.92 167.981,736.968 167.689,729.016 			"/>
			<polygon class="smoke-stack" fill="#FFFFFF" points="151.183,746.924 150.81,754.795 168.714,754.762 168.421,746.924 			"/>
			<polygon class="smoke-stack" fill="#FFFFFF" points="150.24,765.189 149.85,772.994 169.43,772.994 169.136,765.157 			"/>
			<polygon class="smoke-stack" fill="#FFFFFF" points="149.33,783.986 148.907,791.793 170.177,791.761 169.852,783.954 			"/>
			<polygon class="smoke-stack" fill="#FFFFFF" points="148.386,803.437 147.996,811.276 170.893,811.308 170.568,803.405 			"/>
		</g>
		<polygon cursor="pointer" id="factory" fill="#FFFFFF" points="224.106,820.295 224.106,808.339 194.631,794.672 194.631,820.295 190.787,820.295 
			190.787,808.339 161.316,794.672 161.316,820.295 151.913,820.295 151.913,820.4 139.102,820.4 139.102,820.295 133.971,820.295 
			133.971,820.354 121.161,820.354 121.161,820.295 110.056,820.295 110.056,856.175 233.077,856.175 233.077,820.295 		"/>
	</g>
</g>
	<path id="balloon" cursor="pointer" fill="#FFFFFF" d="M581.393,448.009c7.42-6.595,12.1-16.205,12.1-26.913c0-19.883-16.118-36.001-36.001-36.001
		c-19.883,0-36.002,16.119-36.002,36.001c0,10.366,4.387,19.703,11.399,26.272c10.05,14.574,15.833,91.129,23.402,96.967v77.169
		h-4.05v17.401h10.2v-17.401h-3.75v-77.417C566.016,536.671,571.722,463.834,581.393,448.009z"/>

	<path id="beach" fill="#FFFFFF" d="M669,984c280-22,493.521-162,944-162v162H669z"/>
	<path id="person" cursor="pointer" fill="#3A9E99" d="M1508.98,833.908c0.284,2.354,2.078,5.201,2.658,5.723c1.086,0.979,6.52,4.115,6.52,4.115l-1.548-4.824
		c0,0,0.558-5.18,0.645-7.803c0.133-4.021,1.449-12.491-0.349-16.092c-1.432-2.867-6.209-7.076-9.985-8.839l0.079-4.438l-4.5-6.5
		l-5-3.75l-7.5-3.75l-8.25-0.25l-4,0.75l-4.5,3l-2.75,2.75l-0.501,1.999l-1.667,3l1.418,1.751l-0.5,2l-1,2.25l-1.25,1.5v4.25
		l-1.5,2.5l-1.75,3.25l1.25,2.25l0.332,2.583l1.167,0.5l-0.667,1l1.334,3.5l2.333,1.333l5.167,1.333l2.833,4.5l-14.249,4.75
		l-16.5,11l-18,8.25l-18.75,2.75l-5.25-4.5l-5.25-2.5l-8.25-0.75l-29.75-36l-7-6l-4.5-2l-5.75-1.25l-3.5-0.75l-3,1.25l-5.5,6.5
		l-6.75,6.75l-5.5,7.75l-5.5,10.5l-11,18l-9.25,17.75L1283,888.25l-8.75,6.75l-10.25,4.5l-7,1.25h-4l-2.75,1V904l2.25,1.25h2.75
		h2.75v1.25l-1.75,1l-2.5,0.25l-1.5,1.5v2l2.75,1.5h3.25l18,0.5l21.5-0.25l5-1.25L1304,910l0.25-3.75l-0.5-6.75l-0.5-3.25l1.25-3.25
		l3.75-4.75l7.75-6.5l13.25-13.25l5.25-3.75l36.25,38.25l6.25,6h56.75l3.75-0.25l6.75-2.5l5.25-2l5.75-2l4.25,0.75l7.75,3.5l6.5,2.5
		h29.75l4-1.5l2-2.5l-2.25-41.5l-0.5-6.5c0,0-0.137-3.57,0-4.75c0.126-1.084,0.874-3.166,1-4.25c0.094-0.807,0.311-2.5,0-3.25
		c-0.474-1.143-2.638-2.613-3.5-3.5c-1.078-1.11-4.25-4.5-4.25-4.5l-0.5-4.75l0.75-4.75l1.75-3.5l3.25-5l0.793-1.585
		c1.375,1.093,2.525,2.238,2.863,3.246C1509.979,823.61,1508.576,830.558,1508.98,833.908z"/>
</g>
</svg>
<g id="Layer_2" style="display: none;">
	<g xmlns="http://www.w3.org/2000/svg">
		<circle fill-rule="evenodd" clip-rule="evenodd" fill="#FFFFFF" cx="1318.511" cy="179.551" r="55.788"/>
		<g>
			<polygon fill-rule="evenodd" clip-rule="evenodd" fill="#FFFFFF" points="1318.387,102.028 1318.387,101.854 1318.475,101.941      1318.561,101.854 1318.561,102.028 1330.611,114.078 1318.561,114.078 1318.387,114.078 1306.338,114.078    "/>
			<polygon fill-rule="evenodd" clip-rule="evenodd" fill="#FFFFFF" points="1318.387,261.046 1318.387,261.221 1318.475,261.133      1318.561,261.221 1318.561,261.046 1330.611,248.997 1318.561,248.997 1318.387,248.997 1306.338,248.997    "/>
		</g>
		<g>
			<polygon fill-rule="evenodd" clip-rule="evenodd" fill="#FFFFFF" points="1278.645,112.725 1278.556,112.573 1278.676,112.605      1278.709,112.486 1278.795,112.637 1295.257,117.047 1284.82,123.072 1284.668,123.16 1274.234,129.184    "/>
			<polygon fill-rule="evenodd" clip-rule="evenodd" fill="#FFFFFF" points="1358.152,250.438 1358.24,250.589 1358.271,250.469      1358.391,250.502 1358.303,250.35 1362.717,233.891 1352.281,239.915 1352.127,240.003 1341.691,246.027    "/>
		</g>
		<g>
			<polygon fill-rule="evenodd" clip-rule="evenodd" fill="#FFFFFF" points="1249.574,141.86 1249.42,141.772 1249.543,141.74      1249.509,141.62 1249.66,141.708 1266.121,137.297 1260.098,147.732 1260.008,147.885 1253.984,158.318    "/>
			<polygon fill-rule="evenodd" clip-rule="evenodd" fill="#FFFFFF" points="1387.287,221.369 1387.438,221.456 1387.406,221.336      1387.525,221.304 1387.373,221.216 1382.965,204.756 1376.939,215.192 1376.852,215.343 1370.828,225.778    "/>
		</g>
		<g>
			<polygon fill-rule="evenodd" clip-rule="evenodd" fill="#FFFFFF" points="1238.967,181.626 1238.789,181.626 1238.879,181.538      1238.789,181.45 1238.964,181.45 1251.016,169.4 1251.016,181.45 1251.016,181.626 1251.015,193.673    "/>
			<polygon fill-rule="evenodd" clip-rule="evenodd" fill="#FFFFFF" points="1397.982,181.626 1398.156,181.626 1398.07,181.538      1398.156,181.45 1397.982,181.45 1385.932,169.399 1385.932,181.45 1385.932,181.626 1385.932,193.673    "/>
		</g>
		<g>
			<polygon fill-rule="evenodd" clip-rule="evenodd" fill="#FFFFFF" points="1249.66,221.368 1249.51,221.456 1249.543,221.335      1249.42,221.304 1249.574,221.216 1253.984,204.755 1260.008,215.19 1260.098,215.343 1266.121,225.777    "/>
			<polygon fill-rule="evenodd" clip-rule="evenodd" fill="#FFFFFF" points="1387.375,141.859 1387.527,141.772 1387.406,141.74      1387.438,141.62 1387.287,141.708 1370.828,137.296 1376.852,147.732 1376.941,147.883 1382.963,158.317    "/>
		</g>
		<g>
			<polygon fill-rule="evenodd" clip-rule="evenodd" fill="#FFFFFF" points="1278.797,250.437 1278.709,250.589 1278.676,250.469      1278.556,250.502 1278.645,250.35 1274.231,233.889 1284.668,239.915 1284.821,240.002 1295.255,246.027    "/>
			<polygon fill-rule="evenodd" clip-rule="evenodd" fill="#FFFFFF" points="1358.307,112.724 1358.393,112.573 1358.273,112.605      1358.24,112.486 1358.152,112.637 1341.691,117.046 1352.129,123.072 1352.283,123.159 1362.717,129.183    "/>
		</g>
	</g>
</g>
<g id="Layer_3">
</g>
<g id="Layer_4">
</g>
<g id="Layer_5">
</g>
<g id="Layer_6">
</g>
<g id="Layer_7">
</g>
</svg>
