<?xml version="1.0" encoding="utf-8"?>
<!-- Generator: Adobe Illustrator 18.0.0, SVG Export Plug-In . SVG Version: 6.00 Build 0)  -->
<!DOCTYPE svg PUBLIC "-//W3C//DTD SVG 1.1//EN" "http://www.w3.org/Graphics/SVG/1.1/DTD/svg11.dtd">
<svg version="1.1" xmlns="http://www.w3.org/2000/svg" xmlns:xlink="http://www.w3.org/1999/xlink" x="0px" y="0px"
	 viewBox="0 0 1600 1150" enable-background="new 0 0 1600 1150" xml:space="preserve">
<g id="Layer_1">
</g>
<g id="Layer_2">
	<rect fill="#47BCB6" width="1600.229" height="1147.277"/>
	<g id="Layer_8">
		<rect y="172.563" opacity="0.5" fill-rule="evenodd" clip-rule="evenodd" fill="#D1DE58" width="1383.522" height="338.103"/>
		<g>
			
				<line fill="none" stroke="#FFFFFF" stroke-width="2" stroke-miterlimit="10" x1="472.382" y1="361.95" x2="396.689" y2="418.72"/>
			
				<line fill="none" stroke="#FFFFFF" stroke-width="2" stroke-miterlimit="10" x1="467.435" y1="369.049" x2="543.129" y2="425.819"/>
			<line fill="none" stroke="#FFFFFF" stroke-width="2" stroke-miterlimit="10" x1="482.13" y1="361.95" x2="557.823" y2="418.72"/>
			<circle fill-rule="evenodd" clip-rule="evenodd" fill="#FFFFFF" cx="396.688" cy="418.72" r="30.467"/>
			<circle fill-rule="evenodd" clip-rule="evenodd" fill="#FFFFFF" cx="548.075" cy="418.72" r="30.467"/>
			<circle fill-rule="evenodd" clip-rule="evenodd" fill="#FFFFFF" cx="472.382" cy="361.95" r="30.466"/>
			<rect x="412.585" y="411.151" fill="none" width="119.596" height="49.958"/>
			<text transform="matrix(1 0 0 1 455.6987 432.9199)" fill="#3A9E99" font-family="'Helvetica'" font-size="30.2774">O</text>
			<text transform="matrix(0.583 0 0 0.583 479.2495 443.0024)" fill="#3A9E99" font-family="'Helvetica'" font-size="30.2774">3</text>
			<rect x="99.336" y="292.169" fill="none" width="119.596" height="49.958"/>
			<text transform="matrix(1 0 0 1 142.4497 313.938)" fill="#3A9E99" font-family="'Helvetica'" font-size="30.2774">O</text>
			<text transform="matrix(0.583 0 0 0.583 166.0005 324.0205)" fill="#3A9E99" font-family="'Helvetica'" font-size="30.2774">3</text>
		</g>
		<g>
			
				<line fill="none" stroke="#FFFFFF" stroke-width="2" stroke-miterlimit="10" x1="110.874" y1="254.361" x2="94.17" y2="347.492"/>
			
				<line fill="none" stroke="#FFFFFF" stroke-width="2" stroke-miterlimit="10" x1="112.092" y1="262.927" x2="206.175" y2="252.887"/>
			
				<line fill="none" stroke="#FFFFFF" stroke-width="2" stroke-miterlimit="10" x1="118.008" y1="247.718" x2="212.09" y2="237.677"/>
			<circle fill-rule="evenodd" clip-rule="evenodd" fill="#FFFFFF" cx="94.17" cy="347.492" r="30.466"/>
			<circle fill-rule="evenodd" clip-rule="evenodd" fill="#FFFFFF" cx="204.956" cy="244.321" r="30.467"/>
			<circle fill-rule="evenodd" clip-rule="evenodd" fill="#FFFFFF" cx="110.875" cy="254.361" r="30.466"/>
		</g>
		<g>
			
				<line fill="none" stroke="#FFFFFF" stroke-width="2" stroke-miterlimit="10" x1="660.983" y1="246.488" x2="649.386" y2="299.692"/>
			
				<line fill="none" stroke="#FFFFFF" stroke-width="2" stroke-miterlimit="10" x1="661.501" y1="251.441" x2="715.825" y2="247.678"/>
			
				<line fill="none" stroke="#FFFFFF" stroke-width="2" stroke-miterlimit="10" x1="665.229" y1="242.82" x2="719.552" y2="239.057"/>
			<circle fill-rule="evenodd" clip-rule="evenodd" fill="#FFFFFF" cx="649.387" cy="299.692" r="17.534"/>
			<circle fill-rule="evenodd" clip-rule="evenodd" fill="#FFFFFF" cx="715.307" cy="242.725" r="17.534"/>
			<circle fill-rule="evenodd" clip-rule="evenodd" fill="#FFFFFF" cx="660.984" cy="246.488" r="17.534"/>
		</g>
		<g>
			
				<line fill="none" stroke="#FFFFFF" stroke-width="2" stroke-miterlimit="10" x1="332.966" y1="325.846" x2="340.495" y2="271.915"/>
			
				<line fill="none" stroke="#FFFFFF" stroke-width="2" stroke-miterlimit="10" x1="332.073" y1="320.946" x2="278.19" y2="328.818"/>
			
				<line fill="none" stroke="#FFFFFF" stroke-width="2" stroke-miterlimit="10" x1="329.009" y1="329.825" x2="275.129" y2="337.697"/>
			<circle fill-rule="evenodd" clip-rule="evenodd" fill="#FFFFFF" cx="340.494" cy="271.915" r="17.533"/>
			<circle fill-rule="evenodd" clip-rule="evenodd" fill="#FFFFFF" cx="279.083" cy="333.717" r="17.534"/>
			<circle fill-rule="evenodd" clip-rule="evenodd" fill="#FFFFFF" cx="332.964" cy="325.845" r="17.534"/>
		</g>
		<g>
			
				<line fill="none" stroke="#FFFFFF" stroke-width="2" stroke-miterlimit="10" x1="750.815" y1="399.347" x2="701.552" y2="422.549"/>
			
				<line fill="none" stroke="#FFFFFF" stroke-width="2" stroke-miterlimit="10" x1="747.202" y1="402.773" x2="783.269" y2="443.568"/>
			
				<line fill="none" stroke="#FFFFFF" stroke-width="2" stroke-miterlimit="10" x1="756.309" y1="400.479" x2="792.377" y2="441.275"/>
			<circle fill-rule="evenodd" clip-rule="evenodd" fill="#FFFFFF" cx="701.551" cy="422.549" r="17.533"/>
			<circle fill-rule="evenodd" clip-rule="evenodd" fill="#FFFFFF" cx="786.883" cy="440.142" r="17.534"/>
			<circle fill-rule="evenodd" clip-rule="evenodd" fill="#FFFFFF" cx="750.815" cy="399.346" r="17.534"/>
		</g>
		<g>
			
				<line fill="none" stroke="#FFFFFF" stroke-width="2" stroke-miterlimit="10" x1="1188.035" y1="230.292" x2="1140.781" y2="257.353"/>
			
				<line fill="none" stroke="#FFFFFF" stroke-width="2" stroke-miterlimit="10" x1="1184.708" y1="233.995" x2="1223.916" y2="271.781"/>
			
				<line fill="none" stroke="#FFFFFF" stroke-width="2" stroke-miterlimit="10" x1="1193.602" y1="230.981" x2="1232.813" y2="268.768"/>
			<circle fill-rule="evenodd" clip-rule="evenodd" fill="#FFFFFF" cx="1140.781" cy="257.353" r="17.533"/>
			<circle fill-rule="evenodd" clip-rule="evenodd" fill="#FFFFFF" cx="1227.244" cy="268.077" r="17.534"/>
			<circle fill-rule="evenodd" clip-rule="evenodd" fill="#FFFFFF" cx="1188.035" cy="230.291" r="17.534"/>
		</g>
		<g>
			
				<line fill="none" stroke="#FFFFFF" stroke-width="2" stroke-miterlimit="10" x1="1176.329" y1="387.561" x2="1181.905" y2="441.729"/>
			
				<line fill="none" stroke="#FFFFFF" stroke-width="2" stroke-miterlimit="10" x1="1178.364" y1="392.104" x2="1228.804" y2="371.585"/>
			
				<line fill="none" stroke="#FFFFFF" stroke-width="2" stroke-miterlimit="10" x1="1179.216" y1="382.752" x2="1229.655" y2="362.23"/>
			<circle fill-rule="evenodd" clip-rule="evenodd" fill="#FFFFFF" cx="1181.905" cy="441.729" r="17.533"/>
			<circle fill-rule="evenodd" clip-rule="evenodd" fill="#FFFFFF" cx="1226.766" cy="367.041" r="17.534"/>
			<circle fill-rule="evenodd" clip-rule="evenodd" fill="#FFFFFF" cx="1176.328" cy="387.561" r="17.534"/>
		</g>
		<g>
			
				<line fill="none" stroke="#FFFFFF" stroke-width="2" stroke-miterlimit="10" x1="970.699" y1="373.321" x2="1016.115" y2="290.317"/>
			
				<line fill="none" stroke="#FFFFFF" stroke-width="2" stroke-miterlimit="10" x1="972.266" y1="364.811" x2="879.865" y2="344.452"/>
			
				<line fill="none" stroke="#FFFFFF" stroke-width="2" stroke-miterlimit="10" x1="961.824" y1="377.355" x2="869.424" y2="356.996"/>
			<circle fill-rule="evenodd" clip-rule="evenodd" fill="#FFFFFF" cx="1016.115" cy="290.317" r="30.467"/>
			<circle fill-rule="evenodd" clip-rule="evenodd" fill="#FFFFFF" cx="878.299" cy="352.962" r="30.467"/>
			<circle fill-rule="evenodd" clip-rule="evenodd" fill="#FFFFFF" cx="970.699" cy="373.321" r="30.467"/>
			<rect x="890.764" y="297.508" fill="none" width="119.596" height="49.958"/>
			<text transform="matrix(1 0 0 1 933.8765 319.2773)" fill="#3A9E99" font-family="'Helvetica'" font-size="30.2774">O</text>
			<text transform="matrix(0.583 0 0 0.583 957.4272 329.3599)" fill="#3A9E99" font-family="'Helvetica'" font-size="30.2774">3</text>
		</g>
		<rect x="1302.486" y="264.279" fill-rule="evenodd" clip-rule="evenodd" fill="none" width="71.997" height="152.505"/>
		<text transform="matrix(1 0 0 1 1367.3037 264.2793)" writing-mode="tb"><tspan x="0" y="0" fill="#FFFFFF" font-family="'Helvetica-Bold'" font-size="20" glyph-orientation-vertical="0" letter-spacing="13">OZON</tspan><tspan x="0" y="132.505" fill="#FFFFFF" font-family="'Helvetica-Bold'" font-size="20" glyph-orientation-vertical="0">E</tspan></text>
	</g>
	<path fill="#3A9E99" d="M2285.619,966.019c0,0-25.99-44.073-39.477-54.003c-30.42-22.395-111.195-28.849-143.102-49.093
		c-41.947-26.614-138.166-142.494-138.166-142.494s-185.603-110.909-261.528-118.952c-34.81-3.69-100.987,31.626-135.697,27.449
		c-13.173-1.584-31.139-20.934-44.411-21.959c-39.644-3.062-109.157,37.398-148.034,43.92c-37.378,6.272-114.651,7.651-152.97,7.32
		c-35.289-0.3-105.354-9.884-140.633-9.148c-47.349,0.986-144.728,5.054-187.512,20.128c-27.996,9.866-60.361,60.702-91.288,62.223
		c-45.076,2.218-105.386-65.816-148.034-76.862c-28.587-7.404-93.178,3.556-120.896-5.488c-22.758-7.43-46.686-51.07-71.55-51.243
		c-36.222-0.25-75.495,58.82-106.093,73.203c-16.832,7.912-54.18,20.532-74.014,21.961c-23.121,1.664-69.354-7.15-91.292-12.813
		c-13.81-3.561-37.237-21.002-51.809-20.128c-12.297,0.735-29.538,16.542-39.478,21.959c-15.312,8.349-44.117,27.566-61.682,32.944
		c-21.653,6.625-92.521,10.979-92.521,10.979c-37.707-23.306-127.337,45.108-161.605,73.18
		c-24.576,20.133-54.754,77.877-74.018,103.096c-12.474,16.332-51.812,63.822-51.812,63.822h315.809c0,0,0.055-0.491,0.15-1.42
		h1932.242l-0.341,1.42H2285.619z"/>
	<g>
		<polygon fill="#D1D3D4" points="666.477,827.223 666.477,966.774 719.371,966.774 708.211,948.93 712.994,948.93 702.164,931.728 
			707.26,931.728 696.748,914.52 701.524,914.52 690.69,897.31 696.43,897.31 684.639,879.472 690.051,879.472 678.898,862.268 
			684.955,862.268 673.806,845.062 679.219,845.062 		"/>
		<polygon fill="#FFFFFF" points="666.477,827.223 666.477,966.774 613.586,966.774 624.737,948.93 619.959,948.93 630.794,931.728 
			625.69,931.728 636.207,914.52 631.43,914.52 642.264,897.31 636.528,897.31 648.317,879.472 642.898,879.472 654.049,862.268 
			647.994,862.268 659.15,845.062 653.727,845.062 		"/>
	</g>
	<g>
		<polygon fill="#D1D3D4" points="452.965,827.223 452.965,966.774 505.858,966.774 494.698,948.93 499.481,948.93 488.65,931.728 
			493.747,931.728 483.236,914.52 488.012,914.52 477.176,897.31 482.918,897.31 471.126,879.472 476.539,879.472 465.387,862.268 
			471.441,862.268 460.293,845.062 465.706,845.062 		"/>
		<polygon fill="#FFFFFF" points="452.965,827.223 452.965,966.774 400.073,966.774 411.226,948.93 406.447,948.93 417.281,931.728 
			412.178,931.728 422.695,914.52 417.918,914.52 428.751,897.31 423.016,897.31 434.806,879.472 429.387,879.472 440.537,862.268 
			434.481,862.268 445.639,845.062 440.215,845.062 		"/>
	</g>
	<rect x="1.592" y="984.238" fill="#FFFFFF" width="1600" height="165.762"/>
	<text transform="matrix(1 0 0 1 341.2988 1046.0869)"><tspan x="0" y="0" fill="#010101" font-family="'Helvetica'" font-size="18">Re</tspan><tspan x="23.01" y="0" fill="#010101" font-family="'Helvetica'" font-size="18">f</tspan><tspan x="27.849" y="0" fill="#010101" font-family="'Helvetica'" font-size="18">erences</tspan></text>
	<g>
		<polygon fill="#2E2119" points="105.124,1045.854 105.124,1029.158 116.626,1029.158 116.626,1031.684 108.737,1031.684 
			108.737,1035.93 115.362,1035.93 115.362,1038.309 108.737,1038.309 108.737,1043.307 116.966,1043.307 116.966,1045.854 		"/>
		<path fill="#2E2119" d="M127.189,1045.854v-7.375c0-1.24-0.194-2.137-1.698-2.137c-0.801,0-1.917,0.414-2.718,0.896v8.615h-3.495
			v-11.914h3.301l0.049,1.09l0.097,0.051c1.382-0.924,3.058-1.432,4.198-1.432c3.154,0,3.736,1.869,3.736,4.102v8.104H127.189z"/>
		<path fill="#2E2119" d="M138.554,1043.549c0.121-0.314,0.776-3.082,1.164-4.32c0.535-1.553,1.53-4.949,1.651-5.289h3.494
			c-0.874,2.451-3.227,9.486-4.101,11.914h-4.732c-0.85-2.428-3.229-9.463-4.078-11.914h3.642l1.722,5.531
			c0.268,0.85,0.826,3.252,1.117,4.078H138.554z"/>
		<path fill="#2E2119" d="M148.405,1032.482c-1.287,0-1.99-0.824-1.99-1.842c0-1.068,0.729-1.871,1.99-1.871
			c1.335,0,2.061,0.803,2.061,1.871C150.467,1031.658,149.74,1032.482,148.405,1032.482 M146.682,1033.939h3.47v11.914h-3.47
			V1033.939z"/>
		<path fill="#2E2119" d="M156.674,1036.051c1.31-1.287,3.203-2.428,4.538-2.428c0.486,0,0.678,0.293,0.678,0.803
			c0,0.896-0.581,2.717-1.09,3.422l-4.053-0.049v8.055h-3.471v-11.914h3.422c0,0.557-0.072,1.48-0.145,2.039L156.674,1036.051z"/>
		<path fill="#2E2119" d="M168.685,1046.098c-4.416,0-5.945-2.766-5.945-6.188c0-3.35,1.699-6.238,6.092-6.238
			c4.439,0,5.969,2.889,5.969,6.213S173.224,1046.098,168.685,1046.098 M168.831,1036.123c-1.99,0-2.525,1.916-2.525,3.787
			c0,2.109,0.412,3.736,2.525,3.736c1.965,0,2.378-1.773,2.378-3.736C171.209,1038.016,170.82,1036.123,168.831,1036.123"/>
		<path fill="#2E2119" d="M184.675,1045.854v-7.375c0-1.24-0.195-2.137-1.699-2.137c-0.801,0-1.918,0.414-2.719,0.896v8.615h-3.494
			v-11.914h3.3l0.049,1.09l0.097,0.051c1.383-0.924,3.059-1.432,4.199-1.432c3.154,0,3.736,1.869,3.736,4.102v8.104H184.675z"/>
		<path fill="#2E2119" d="M205.663,1045.854v-7.545c0-1.312-0.34-1.943-1.578-1.943c-0.752,0-1.867,0.365-2.547,0.826
			c0.072,0.51,0.098,1.117,0.098,1.553v7.109h-3.424c0-2.598-0.023-5.193-0.023-7.789c0-1.117-0.509-1.674-1.432-1.674
			c-0.801,0-1.795,0.365-2.621,0.871v8.592h-3.47v-11.914h3.253l0.071,1.188l0.097,0.049c1.36-1.02,2.985-1.504,4.125-1.504
			c1.36,0,2.284,0.484,2.889,1.553c1.165-0.896,3.033-1.553,4.296-1.553c3.179,0,3.761,1.967,3.761,4.197v7.984H205.663z"/>
		<path fill="#2E2119" d="M222.451,1039.449v1.236h-7.788c0,1.82,0.85,2.789,2.985,2.789c1.286,0,2.596-0.289,3.833-0.752
			l0.705,2.137c-1.578,0.873-3.398,1.188-5.049,1.188c-4.805,0-5.969-2.861-5.969-6.137c0-2.621,1.117-6.287,5.823-6.287
			C222.112,1033.623,222.451,1037.311,222.451,1039.449 M214.712,1038.549h4.586c-0.023-1.576-0.51-2.717-2.16-2.717
			C215.416,1035.832,214.833,1037.119,214.712,1038.549"/>
		<path fill="#2E2119" d="M232.619,1045.854v-7.375c0-1.24-0.194-2.137-1.699-2.137c-0.801,0-1.917,0.414-2.718,0.896v8.615h-3.494
			v-11.914h3.299l0.049,1.09l0.098,0.051c1.384-0.924,3.057-1.432,4.198-1.432c3.155,0,3.737,1.869,3.737,4.102v8.104H232.619z"/>
		<path fill="#2E2119" d="M242.857,1030.639v3.277h3.471v2.279h-3.471v5.389c0,1.26,0.364,1.842,1.603,1.842
			c0.436,0,1.189-0.119,2.061-0.314l0.436,2.258c-1.018,0.461-2.377,0.678-3.396,0.678c-3.324,0-4.125-1.648-4.125-3.541v-6.311
			h-1.675v-1.893l1.893-0.559c0.171-0.412,0.704-2.449,0.85-2.863L242.857,1030.639z"/>
		<path fill="#2E2119" d="M258.944,1043.549h1.554l0.169,1.939c-0.776,0.365-1.893,0.609-2.911,0.609
			c-1.044,0-1.796-0.244-1.919-1.434c0-0.023-0.022-0.023-0.048-0.049c-1.674,1.459-3.444,1.482-4.124,1.482
			c-2.961,0-3.689-2.086-3.689-3.471c0-2.477,1.918-3.689,4.418-3.834c0.921-0.072,2.329-0.121,3.25-0.195v-0.289
			c0-1.361-0.437-2.062-2.207-2.062c-1.165,0-2.67,0.24-3.785,0.604c-0.171-0.727-0.365-1.455-0.559-2.156
			c1.406-0.609,3.469-0.996,5.168-0.996c2.863,0,4.684,1.066,4.684,4.15V1043.549z M253.241,1040.709
			c-1.141,0.098-1.674,0.68-1.674,1.625c0,0.998,0.484,1.531,1.627,1.531c0.728,0,1.674-0.391,2.449-1.068v-2.283L253.241,1040.709z
			"/>
		<polygon fill="#2E2119" points="265.883,1045.854 262.436,1045.854 262.436,1028.479 265.907,1028.479 		"/>
		<path fill="#2E2119" d="M111.749,1066.562h-3.034l0.025,6.406h-3.616v-16.695h6.333c3.811,0,5.727,1.99,5.727,5.121
			C117.184,1063.797,115.681,1066.562,111.749,1066.562 M108.715,1058.797v5.316h2.353c1.287,0,2.476-0.68,2.476-2.645
			c0-1.896-1.116-2.672-2.596-2.672H108.715z"/>
		<path fill="#2E2119" d="M129.436,1066.562v1.238h-7.788c0,1.82,0.85,2.789,2.985,2.789c1.285,0,2.597-0.291,3.833-0.752
			l0.703,2.137c-1.578,0.873-3.396,1.189-5.047,1.189c-4.805,0-5.969-2.865-5.969-6.141c0-2.621,1.115-6.283,5.823-6.283
			C129.097,1060.74,129.436,1064.428,129.436,1066.562 M121.696,1065.666h4.586c-0.024-1.578-0.51-2.719-2.16-2.719
			C122.399,1062.947,121.816,1064.232,121.696,1065.666"/>
		<path fill="#2E2119" d="M135.089,1063.164c1.311-1.283,3.203-2.424,4.538-2.424c0.485,0,0.681,0.289,0.681,0.799
			c0,0.896-0.584,2.717-1.094,3.422l-4.051-0.049v8.057h-3.472v-11.914h3.423c0,0.557-0.073,1.479-0.146,2.037L135.089,1063.164z"/>
		<path fill="#2E2119" d="M143.314,1063.311h-1.675v-1.893l1.7-0.486v-1.479c0-2.281,0.994-4.078,4.512-4.078
			c0.826,0,2.16,0.098,3.277,0.412l-0.412,2.354c-0.68-0.145-1.555-0.217-2.064-0.217c-1.237,0-1.942,0.412-1.942,1.578v1.527h3.424
			v2.281h-3.424c0,1.043-0.024,8.615-0.024,9.658h-3.373V1063.311z"/>
		<path fill="#2E2119" d="M157.096,1073.211c-4.416,0-5.945-2.766-5.945-6.188c0-3.35,1.698-6.234,6.091-6.234
			c4.44,0,5.969,2.885,5.969,6.209C163.21,1070.324,161.633,1073.211,157.096,1073.211 M157.241,1063.238
			c-1.99,0-2.523,1.918-2.523,3.785c0,2.111,0.412,3.736,2.523,3.736c1.966,0,2.379-1.77,2.379-3.736
			C159.62,1065.131,159.231,1063.238,157.241,1063.238"/>
		<path fill="#2E2119" d="M168.62,1063.164c1.311-1.283,3.204-2.424,4.539-2.424c0.486,0,0.678,0.289,0.678,0.799
			c0,0.896-0.582,2.717-1.09,3.422l-4.054-0.049v8.057h-3.47v-11.914h3.422c0,0.557-0.072,1.479-0.145,2.037L168.62,1063.164z"/>
		<path fill="#2E2119" d="M190.341,1072.969v-7.547c0-1.309-0.34-1.939-1.578-1.939c-0.752,0-1.867,0.363-2.547,0.822
			c0.072,0.51,0.098,1.117,0.098,1.553v7.111h-3.424c0-2.598-0.023-5.193-0.023-7.791c0-1.113-0.509-1.674-1.432-1.674
			c-0.801,0-1.795,0.365-2.62,0.875v8.59h-3.47v-11.914h3.25l0.073,1.189l0.097,0.049c1.36-1.021,2.985-1.504,4.125-1.504
			c1.36,0,2.283,0.482,2.889,1.553c1.165-0.9,3.033-1.553,4.296-1.553c3.179,0,3.761,1.965,3.761,4.197v7.982H190.341z"/>
		<path fill="#2E2119" d="M206.718,1070.664h1.553l0.17,1.941c-0.775,0.363-1.893,0.605-2.912,0.605
			c-1.045,0-1.797-0.242-1.917-1.432c0-0.021-0.024-0.021-0.049-0.047c-1.675,1.455-3.446,1.479-4.125,1.479
			c-2.961,0-3.689-2.086-3.689-3.471c0-2.473,1.916-3.688,4.416-3.834c0.924-0.072,2.33-0.119,3.252-0.191v-0.293
			c0-1.357-0.438-2.062-2.209-2.062c-1.164,0-2.668,0.242-3.785,0.607c-0.17-0.729-0.363-1.455-0.559-2.162
			c1.408-0.604,3.471-0.992,5.17-0.992c2.863,0,4.684,1.068,4.684,4.148V1070.664z M201.015,1067.822
			c-1.141,0.1-1.674,0.682-1.674,1.629c0,0.994,0.484,1.527,1.625,1.527c0.729,0,1.674-0.389,2.451-1.066v-2.281L201.015,1067.822z"
			/>
		<path fill="#2E2119" d="M218.146,1072.969v-7.377c0-1.238-0.194-2.135-1.699-2.135c-0.801,0-1.917,0.412-2.718,0.896v8.615h-3.494
			v-11.914h3.299l0.049,1.092l0.098,0.049c1.383-0.924,3.057-1.434,4.198-1.434c3.155,0,3.737,1.869,3.737,4.102v8.105H218.146z"/>
		<path fill="#2E2119" d="M230.01,1070.518c1.115,0,2.136-0.242,3.204-0.605l0.654,2.305c-1.189,0.605-2.862,0.947-4.488,0.947
			c-4.562,0-5.752-2.719-5.752-6.02c0-2.814,1.067-6.355,5.896-6.355c1.02,0,2.354,0.094,3.714,0.582
			c-0.171,0.799-0.34,1.6-0.534,2.426c-1.02-0.293-1.893-0.34-2.596-0.34c-1.942,0-2.961,1.334-2.961,3.541
			C227.148,1069.184,227.851,1070.518,230.01,1070.518"/>
		<path fill="#2E2119" d="M246.368,1066.562v1.238h-7.788c0,1.82,0.849,2.789,2.984,2.789c1.285,0,2.597-0.291,3.833-0.752
			l0.705,2.137c-1.578,0.873-3.398,1.189-5.049,1.189c-4.803,0-5.969-2.865-5.969-6.141c0-2.621,1.117-6.283,5.824-6.283
			C246.028,1060.74,246.368,1064.428,246.368,1066.562 M238.628,1065.666h4.587c-0.024-1.578-0.511-2.719-2.161-2.719
			C239.332,1062.947,238.749,1064.232,238.628,1065.666"/>
		<rect x="105.343" y="1083.387" fill="#2E2119" width="3.541" height="16.697"/>
		<path fill="#2E2119" d="M119.95,1100.084v-7.379c0-1.238-0.195-2.135-1.699-2.135c-0.801,0-1.917,0.412-2.718,0.896v8.617h-3.495
			v-11.916h3.301l0.049,1.092l0.097,0.051c1.383-0.924,3.058-1.434,4.198-1.434c3.154,0,3.738,1.867,3.738,4.1v8.107H119.95z"/>
		<path fill="#2E2119" d="M133.925,1088.631v-5.898h3.471v17.352h-3.228l-0.072-1.068c-0.024-0.023-0.047-0.049-0.072-0.049
			c-1.164,0.945-2.646,1.285-3.664,1.285c-3.714,0-4.732-2.717-4.732-5.871c0-3.689,1.358-6.504,5.144-6.504
			C131.548,1087.877,132.931,1088.045,133.925,1088.631 M133.925,1091.055c-0.559-0.338-1.625-0.654-2.402-0.654
			c-1.189,0-2.402,0.703-2.402,3.955c0,2.816,1.043,3.471,2.354,3.471c0.704,0,1.893-0.484,2.451-0.896V1091.055z"/>
		<path fill="#2E2119" d="M150.497,1093.676v1.238h-7.79c0,1.82,0.852,2.791,2.985,2.791c1.287,0,2.597-0.291,3.835-0.754
			l0.703,2.137c-1.577,0.873-3.398,1.189-5.049,1.189c-4.804,0-5.968-2.863-5.968-6.139c0-2.623,1.115-6.285,5.824-6.285
			C150.157,1087.854,150.497,1091.541,150.497,1093.676 M142.756,1092.779h4.587c-0.023-1.578-0.51-2.719-2.161-2.719
			C143.46,1090.061,142.878,1091.346,142.756,1092.779"/>
		<polygon fill="#2E2119" points="157.8,1095.664 155.275,1100.084 151.564,1100.084 155.664,1093.871 151.879,1088.168 
			155.689,1088.168 157.849,1092.195 160.032,1088.168 163.745,1088.168 159.886,1093.846 163.939,1100.084 160.153,1100.084 		"/>
		<path fill="#F4C61B" d="M75.18,1092.689c-1.936,0-3.503-1.566-3.503-3.5c0-1.936,1.567-3.504,3.503-3.504
			c1.933,0,3.503,1.568,3.503,3.504C78.683,1091.123,77.112,1092.689,75.18,1092.689"/>
		<path fill="#F4C61B" d="M78.455,1083.67c-1.356,0-2.456-1.1-2.456-2.457s1.1-2.455,2.456-2.455c1.356,0,2.454,1.098,2.454,2.455
			S79.812,1083.67,78.455,1083.67"/>
		<path fill="#F4C61B" d="M80.911,1076.922c-0.933,0-1.689-0.756-1.689-1.688c0-0.934,0.757-1.689,1.689-1.689
			c0.934,0,1.688,0.756,1.688,1.689C82.6,1076.166,81.845,1076.922,80.911,1076.922"/>
		<path fill="#F4C61B" d="M82.549,1072.467c-0.673,0-1.22-0.545-1.22-1.221c0-0.674,0.547-1.219,1.22-1.219
			c0.673,0,1.22,0.545,1.22,1.219C83.769,1071.922,83.222,1072.467,82.549,1072.467"/>
		<path fill="#7E90C8" d="M60.634,1078.176c-1.935,0-3.502-1.57-3.502-3.504c0-1.932,1.567-3.498,3.502-3.498
			c1.934,0,3.502,1.566,3.502,3.498C64.136,1076.605,62.567,1078.176,60.634,1078.176"/>
		<path fill="#7E90C8" d="M68.577,1073.781c-1.355,0-2.451-1.1-2.451-2.455c0-1.352,1.096-2.451,2.451-2.451
			c1.354,0,2.453,1.1,2.453,2.451C71.03,1072.682,69.932,1073.781,68.577,1073.781"/>
		<path fill="#7E90C8" d="M74.536,1070.5c-0.932,0-1.684-0.752-1.684-1.682s0.752-1.686,1.684-1.686c0.93,0,1.684,0.756,1.684,1.686
			S75.466,1070.5,74.536,1070.5"/>
		<path fill="#7E90C8" d="M78.507,1068.355c-0.668,0-1.211-0.541-1.211-1.211s0.543-1.213,1.211-1.213
			c0.672,0,1.214,0.543,1.214,1.213S79.179,1068.355,78.507,1068.355"/>
		<path fill="#0F9ACC" d="M60.607,1057.629c-1.933,0-3.501-1.566-3.501-3.504c0-1.932,1.568-3.498,3.501-3.498
			c1.935,0,3.503,1.566,3.503,3.498C64.11,1056.062,62.542,1057.629,60.607,1057.629"/>
		<path fill="#0F9ACC" d="M68.592,1059.824c-1.351,0-2.448-1.094-2.448-2.447c0-1.352,1.098-2.449,2.448-2.449
			c1.352,0,2.448,1.098,2.448,2.449C71.04,1058.73,69.943,1059.824,68.592,1059.824"/>
		<path fill="#0F9ACC" d="M74.579,1061.49c-0.924,0-1.676-0.75-1.676-1.676c0-0.928,0.752-1.678,1.676-1.678
			c0.928,0,1.678,0.75,1.678,1.678C76.257,1060.74,75.507,1061.49,74.579,1061.49"/>
		<path fill="#0F9ACC" d="M78.573,1062.643c-0.666,0-1.205-0.541-1.205-1.205c0-0.662,0.539-1.203,1.205-1.203
			c0.664,0,1.203,0.541,1.203,1.203C79.776,1062.102,79.237,1062.643,78.573,1062.643"/>
		<path fill="#3FBBA3" d="M75.12,1043.084c-1.934,0-3.504-1.57-3.504-3.504c0-1.936,1.57-3.502,3.504-3.502
			c1.933,0,3.502,1.566,3.502,3.502C78.622,1041.514,77.053,1043.084,75.12,1043.084"/>
		<path fill="#3FBBA3" d="M78.444,1049.977c-1.35,0-2.444-1.092-2.444-2.443c0-1.35,1.095-2.445,2.444-2.445
			c1.35,0,2.445,1.096,2.445,2.445C80.89,1048.885,79.794,1049.977,78.444,1049.977"/>
		<path fill="#3FBBA3" d="M80.938,1055.17c-0.924,0-1.674-0.748-1.674-1.672s0.75-1.672,1.674-1.672c0.922,0,1.67,0.748,1.67,1.672
			S81.86,1055.17,80.938,1055.17"/>
		<path fill="#3FBBA3" d="M82.6,1058.672c-0.661,0-1.196-0.535-1.196-1.195s0.535-1.197,1.196-1.197
			c0.661,0,1.196,0.537,1.196,1.197S83.261,1058.672,82.6,1058.672"/>
		<path fill="#F89624" d="M85.499,1112.383c-2.389,0-4.326-1.936-4.326-4.326c0-2.389,1.938-4.324,4.326-4.324
			c2.389,0,4.326,1.936,4.326,4.324C89.825,1110.447,87.888,1112.383,85.499,1112.383"/>
		<path fill="#F89624" d="M85.465,1100.061c-1.833,0-3.318-1.486-3.318-3.318c0-1.83,1.485-3.318,3.318-3.318
			c1.833,0,3.317,1.488,3.317,3.318C88.782,1098.574,87.298,1100.061,85.465,1100.061"/>
		<path fill="#F89624" d="M85.438,1090.676c-1.408,0-2.551-1.145-2.551-2.553c0-1.406,1.143-2.551,2.551-2.551
			s2.551,1.145,2.551,2.551C87.989,1089.531,86.847,1090.676,85.438,1090.676"/>
		<path fill="#F89624" d="M85.414,1081.924c-1.041,0-1.882-0.844-1.882-1.881c0-1.039,0.841-1.885,1.882-1.885
			c1.038,0,1.882,0.846,1.882,1.885C87.296,1081.08,86.452,1081.924,85.414,1081.924"/>
		<path fill="#F36F2D" d="M54.646,1099.645c-2.39,0-4.325-1.938-4.325-4.326c0-2.391,1.936-4.326,4.325-4.326
			c2.39,0,4.325,1.936,4.325,4.326C58.972,1097.707,57.036,1099.645,54.646,1099.645"/>
		<path fill="#F36F2D" d="M62.588,1090.574c-1.831,0-3.315-1.482-3.315-3.316c0-1.83,1.484-3.312,3.315-3.312
			c1.83,0,3.313,1.482,3.313,3.312C65.901,1089.092,64.418,1090.574,62.588,1090.574"/>
		<path fill="#F36F2D" d="M68.638,1083.664c-1.406,0-2.545-1.137-2.545-2.545c0-1.406,1.139-2.545,2.545-2.545
			c1.405,0,2.545,1.139,2.545,2.545C71.183,1082.527,70.043,1083.664,68.638,1083.664"/>
		<path fill="#F36F2D" d="M74.311,1077.236c-1.036,0-1.876-0.836-1.876-1.873c0-1.035,0.84-1.875,1.876-1.875
			c1.036,0,1.876,0.84,1.876,1.875C76.187,1076.4,75.347,1077.236,74.311,1077.236"/>
		<path fill="#3676BA" d="M41.835,1068.822c-2.39,0-4.326-1.938-4.326-4.328c0-2.387,1.937-4.326,4.326-4.326
			c2.389,0,4.325,1.939,4.325,4.326C46.16,1066.885,44.224,1068.822,41.835,1068.822"/>
		<path fill="#3676BA" d="M53.147,1067.717c-1.828,0-3.31-1.482-3.31-3.311s1.481-3.311,3.31-3.311c1.828,0,3.31,1.482,3.31,3.311
			S54.976,1067.717,53.147,1067.717"/>
		<path fill="#3676BA" d="M61.768,1066.873c-1.4,0-2.536-1.137-2.536-2.533c0-1.402,1.136-2.537,2.536-2.537
			c1.4,0,2.534,1.135,2.534,2.537C64.302,1065.736,63.168,1066.873,61.768,1066.873"/>
		<path fill="#3676BA" d="M69.849,1066.137c-1.029,0-1.863-0.832-1.863-1.863c0-1.027,0.834-1.863,1.863-1.863
			c1.029,0,1.862,0.836,1.862,1.863C71.711,1065.305,70.878,1066.137,69.849,1066.137"/>
		<path fill="#068D8C" d="M54.573,1037.971c-2.389,0-4.326-1.939-4.326-4.326c0-2.391,1.938-4.328,4.326-4.328
			c2.389,0,4.326,1.938,4.326,4.328C58.899,1036.031,56.962,1037.971,54.573,1037.971"/>
		<path fill="#068D8C" d="M62.608,1044.912c-1.825,0-3.305-1.479-3.305-3.305c0-1.824,1.479-3.305,3.305-3.305
			c1.826,0,3.307,1.48,3.307,3.305C65.915,1043.434,64.435,1044.912,62.608,1044.912"/>
		<path fill="#068D8C" d="M68.731,1050.205c-1.396,0-2.527-1.131-2.527-2.527s1.132-2.529,2.527-2.529
			c1.396,0,2.527,1.133,2.527,2.529S70.128,1050.205,68.731,1050.205"/>
		<path fill="#068D8C" d="M74.471,1055.219c-1.023,0-1.853-0.83-1.853-1.852c0-1.025,0.83-1.854,1.853-1.854
			c1.023,0,1.852,0.828,1.852,1.854C76.323,1054.389,75.494,1055.219,74.471,1055.219"/>
		<path fill="#2CB35F" d="M85.396,1025.158c-2.391,0-4.326-1.935-4.326-4.326c0-2.387,1.936-4.326,4.326-4.326
			c2.39,0,4.325,1.939,4.325,4.326C89.721,1023.223,87.785,1025.158,85.396,1025.158"/>
		<path fill="#2CB35F" d="M85.383,1035.449c-1.825,0-3.305-1.479-3.305-3.303s1.479-3.305,3.305-3.305
			c1.825,0,3.304,1.48,3.304,3.305S87.208,1035.449,85.383,1035.449"/>
		<path fill="#2CB35F" d="M85.372,1043.291c-1.395,0-2.524-1.129-2.524-2.523s1.13-2.527,2.524-2.527
			c1.396,0,2.526,1.133,2.526,2.527S86.768,1043.291,85.372,1043.291"/>
		<path fill="#2CB35F" d="M85.364,1050.699c-1.024,0-1.852-0.83-1.852-1.852s0.828-1.852,1.852-1.852c1.021,0,1.85,0.83,1.85,1.852
			S86.386,1050.699,85.364,1050.699"/>
	</g>
	<rect x="69.906" y="40.995" fill="none" width="1054.142" height="38.606"/>
	<text transform="matrix(1 0 0 1 66.9058 75.5068)"><tspan x="0" y="0" fill="#FFFFFF" font-family="'Helvetica-Bold'" font-size="48">O3:</tspan><tspan x="80.016" y="0" fill="#7E90C8" font-family="'Helvetica-Bold'" font-size="48"> </tspan><tspan x="93.352" y="0" fill="#D1DE58" font-family="'Helvetica-Bold'" font-size="48">SOURCES</tspan></text>
	<rect x="70.506" y="92.466" fill="none" width="863.957" height="65.132"/>
	<text transform="matrix(1 0 0 1 70.5063 106.8457)"><tspan x="0" y="0" fill="#FFFFFF" font-family="'Helvetica'" font-size="20">MONITORING OF MERCURY SUGGESTS... Lorem ipsum dolor sit amet, </tspan><tspan x="0" y="24" fill="#FFFFFF" font-family="'Helvetica'" font-size="20">consectetur adipiscing elit. Donec at purus ut tortor facilisis tincidunt. </tspan><tspan x="0" y="48" fill="#FFFFFF" font-family="'Helvetica'" font-size="20">Pellentesque in aliquam elit. </tspan></text>
	<g>
		<g>
			<path opacity="0.75" fill="#BCBEC0" d="M806.011,941.575c9.58-5.314,19.161-10.627,28.741-15.941c0-28.08,0-56.159,0-84.239
				c-9.58,0-19.161,0-28.741,0C806.008,874.788,806.011,908.182,806.011,941.575z"/>
			<path opacity="0.75" fill="#E6E7E8" d="M764.382,920.677c-3.964,0-5.946,0-9.911,0c0-30.722,0-61.444,0-92.165
				c3.965,0,5.947,0,9.911,0C764.382,859.233,764.382,889.955,764.382,920.677z"/>
			<path opacity="0.75" fill="#D1D3D4" d="M764.382,828.512c0,30.722,0,61.443,0,92.165c-3.964,0-5.946,0-9.911,0
				c0,10.703,0,16.056,0,26.759c3.965,0,5.947,0,9.911,0c8.325,0,12.487,0,20.812,0c0-39.642,0-79.283,0-118.925
				C776.869,828.511,772.707,828.512,764.382,828.512z"/>
			<path opacity="0.75" fill="#D1D3D4" d="M790.15,874.595c3.965,0,5.947,0,9.912,0c0-22.959,0.002-45.918,0-68.877
				c4.361,0,6.541,0,10.902,0c0,11.48,0,22.959,0,34.439c2.379,2.874,3.568,4.311,5.947,7.184c0,27.748,0,55.497,0,83.246
				c1.982,0,2.973,0.001,4.954,0.001c0-11.232,0-22.463,0-33.695c6.344,0,9.516,0,15.859,0c0,5.153,0,7.729,0,12.882
				c7.136,0,10.702,0,17.838,0c-7.929,4.361-11.893,6.541-19.821,10.902c0,3.964,0,5.947,0,9.911
				c-15.197,5.615-30.394,11.231-45.591,16.848C790.151,923.155,790.152,898.875,790.15,874.595z"/>
			<path opacity="0.75" fill="#BCBEC0" d="M893.229,900.113c-3.172,0-4.756,0-7.928,0c0-11.313,0-22.627-0.002-33.941
				c3.172,0,4.758,0,7.93,0C893.229,877.485,893.229,888.799,893.229,900.113z"/>
			<path opacity="0.75" fill="#BCBEC0" d="M842.68,866.171c0,15.856,0,31.713,0,47.569c6.74,0,10.109,0,16.85,0
				c0,2.775,0,4.163,0,6.938c6.739,0,10.11,0,16.85,0c0-2.775,0-4.163,0-6.938c0-15.856,0-31.713,0-47.569
				C865.146,866.171,853.913,866.171,842.68,866.171z"/>
			<path opacity="0.75" fill="#D1D3D4" d="M939.81,753.69c0-2.082,0-3.122,0-5.203c-11.646,0-23.292,0-34.938,0
				c0,2.082,0,3.122,0,5.203c-4.657,0-6.987,0-11.644,0c0,36.42,0,72.84,0,109.261c1.387,0,2.08,0,3.467,0
				c0,5.451-0.001,8.176-0.001,13.627c1.487,0,2.232,0,3.719,0c0,26.18,0,52.359,0,78.54c6.839,0,10.258,0,17.097,0
				c0-26.18,0-52.36,0-78.54c0-5.451,0-8.176,0-13.627c11.893,0,23.786,0,35.68,0c0-36.42,0-72.84,0-109.261
				C947.838,753.69,945.162,753.69,939.81,753.69z"/>
			<path opacity="0.75" fill="#E6E7E8" d="M1154.594,946.94c-10.403,0-20.806,0-31.209,0c0-26.923,0-53.846,0-80.769
				c10.403,0,20.806,0,31.209,0C1154.594,893.094,1154.594,920.017,1154.594,946.94z"/>
			<path opacity="0.75" fill="#A7A9AC" d="M1208.844,948.056c-9.81,0-14.714,0-24.523,0c0-44.968,0-89.937,0-134.905
				c9.81,0,14.714,0,24.523,0C1208.844,858.119,1208.844,903.087,1208.844,948.056z"/>
			<path opacity="0.75" fill="#E6E7E8" d="M1230.766,877.445c-7.282,0-10.924,0-18.206,0c0-96.13,0-192.259,0-288.389
				c5.202,0,7.804,0,13.005,0c0.297,4.459,0.445,6.689,0.742,11.149c1.783,0,2.676,0,4.459,0
				C1230.766,692.618,1230.766,785.032,1230.766,877.445z"/>
			<path opacity="0.75" fill="#E6E7E8" d="M953.19,936.535c-11.895,6.191-23.786,12.389-35.68,18.581c0-30.722,0-61.444,0-92.167
				c11.893,0,23.786,0,35.68,0C953.19,887.479,953.19,912.007,953.19,936.535z"/>
			<path opacity="0.75" fill="#D1D3D4" d="M1327.881,822.566c-4.459-17.343-8.915-34.687-13.373-52.029c0-6.739,0-10.109,0-16.848
				c-4.019,0-6.026,0-10.045,0c0-6.145,0-9.216,0-15.36c-4.757,0-7.136,0-11.893,0c0,8.523,0,12.784,0,21.307
				c7.31,20.977,14.613,41.955,21.925,62.931C1319.85,822.566,1322.526,822.566,1327.881,822.566z"/>
			<path opacity="0.75" fill="#A7A9AC" d="M1444.458,878.931c0-9.704,0-19.408,0-29.111c1.884,0,2.826,0,4.71,0
				c0-5.649,0-8.473,0-14.122c2.974,0,4.458,0,7.432,0c0-10.984,0-21.968,0.002-32.952c4.361,0,6.539,0,10.9,0
				c0,5.451,0.003,8.176,0.003,13.627c10.308,0,15.459,0,25.767,0c0,8.721,0,13.081,0,21.802c2.181,0,3.271,0,5.451,0
				c0-3.964,0-5.945,0-9.909c2.479,0,3.718,0,6.196,0c0,5.649-0.001,8.473-0.001,14.122c3.766,0,5.646,0,9.412,0
				c0.003,19.944,0.001,39.889,0.001,59.833c-17.963,0-35.926,0-53.889,0c0-9.316,0-13.974,0-23.289
				C1454.049,878.931,1450.852,878.931,1444.458,878.931z"/>
			<path opacity="0.75" fill="#D1D3D4" d="M1460.442,898.133c2.824,0,4.236,0,7.061,0c0,1.636,0,2.452,0,4.088
				c2.973,0,4.46,0,7.433,0c0-12.017-0.001-24.033,0.001-36.05c0.794,0,1.188,0,1.982,0c4.56-8.126,6.839-12.188,11.397-20.315
				c4.757,8.126,7.136,12.189,11.893,20.315c0.694,0,1.043,0,1.737,0c0,8.226-0.001,12.338-0.001,20.563c-1.586,0-2.38,0-3.966,0
				c0,10.282,0,20.564,0,30.847c-3.271,0-4.904,0-8.175,0c0,2.973-0.002,4.459-0.002,7.433c-2.527,0-3.79,0-6.317,0
				c0,1.487,0,2.23,0,3.717c-9.218,0-13.825,0-23.043,0C1460.442,918.531,1460.442,908.332,1460.442,898.133z"/>
			<path opacity="0.75" fill="#E6E7E8" d="M1290.094,887.479c0,11,0,16.5,0,27.5l0,0c10.779,0,16.17,0,26.949,0
				c0,9.811,0,14.717,0,24.528c13.234,0,26.469,0,39.703,0c0-99.102,0-198.206,0-297.308c6.541,0,9.811,0,16.352,0
				c0-3.765,0-5.648,0-9.413c-10.158,0-20.315,0-30.474,0c0,95.964,0,191.929,0,287.893c-4.36,0-6.541,0-10.901,0
				c0-29.896,0-59.792,0-89.689c-1.536,0-2.306-0.001-3.842-0.001c0-3.369,0-5.054,0-8.423c-5.349,0-8.024,0-13.373,0
				c0-15.526,0-31.052,0-46.578c0-6.54,0-9.811,0-16.352c-8.181,0-12.271,0-20.451-0.001c0.168,18.767,0.331,37.535,0.496,56.302
				c-1.783-0.021-2.676-0.033-4.459-0.054C1290.094,839.748,1290.094,863.614,1290.094,887.479L1290.094,887.479z"/>
			<path opacity="0.75" fill="#A7A9AC" d="M953.19,915.724c1.288,0,1.933,0,3.221,0c0-10.076,0-20.151,0-30.227
				c1.884,0,2.826,0,4.71,0c0,17.013,0,34.026,0,51.038c-3.171,0-4.759,0-7.931,0C953.19,928.211,953.19,924.048,953.19,915.724z"/>
			<path opacity="0.75" fill="#A7A9AC" d="M1154.594,937.523c4.459,0,6.687,0,11.146,0c0-18.086,0-36.173,0-54.259
				c-4.459,0-6.687,0-11.146,0C1154.594,901.351,1154.594,919.437,1154.594,937.523z"/>
			<path opacity="0.75" fill="#BCBEC0" d="M975.737,834.951c3.815,0,5.725,0.001,9.54,0.001c0,1.784,0,2.677,0,4.461
				c3.668,0,5.502,0,9.17,0c0,2.576,0,3.864,0,6.44c2.378,0,3.566,0,5.944,0c0,5.847,0.001,8.771,0.001,14.618
				c0.893,0,1.339,0,2.231,0c-0.005,12.223,0,24.446,0,36.669c-0.348,0-0.521,0-0.868,0c0-5.054,0-7.582,0-12.636
				c-0.991,0-1.487,0-2.479,0c0-8.176,0-12.264,0-20.44c-9.713,0.247-14.57,0.371-24.283,0.618
				C975.243,854.773,975.493,844.862,975.737,834.951z"/>
			<path opacity="0.75" fill="#E6E7E8" d="M963.596,864.065c0-4.906,0-7.358,0-12.264c2.479,0,3.719,0,6.197,0
				c0,2.453,0,3.679,0,6.131c2.477,0,3.717,0,6.194,0c0,2.453,0,3.68,0,6.132c9.316,0,13.974,0,23.29,0c0,8.176,0,12.264,0,20.44
				c0.991,0,1.487,0,2.479,0c0,5.054,0,7.582,0,12.636c-9.614,0-14.421,0-24.035,0c0-3.716,0-5.575,0-9.292
				c-1.636,0-2.453,0-4.089,0c0-6.838,0-10.257,0-17.095c-1.189,0-1.784,0-2.974,0c0-2.676,0-4.015,0-6.69
				C967.833,864.065,966.421,864.065,963.596,864.065z"/>
			<path opacity="0.75" fill="#D1D3D4" d="M963.596,851.801c0-3.568,0-5.353,0-8.921c0.942,0,1.416,0,2.358,0
				c0-7.136,0-10.704,0-17.839c0.792,0,1.188,0,1.98,0c0-2.23-0.001-3.343-0.001-5.573c1.041,0,1.56,0,2.602,0
				c0,1.14,0.001,1.709,0.001,2.849c2.082,0,3.119,0,5.201,0c0,11.872,0,23.744,0,35.616c-2.378,0-3.566,0-5.944,0
				c0-2.453,0-3.678,0-6.131C967.315,851.801,966.074,851.801,963.596,851.801z"/>
			<path opacity="0.75" fill="#A7A9AC" d="M975.737,828.261c5.898,0,8.848,0,14.745,0c0,4.461,0,6.692,0,11.152
				c-2.082,0-3.123,0-5.205,0c0-1.784,0-2.677,0-4.461c-3.815,0-5.725-0.001-9.54-0.001
				C975.737,832.275,975.737,830.937,975.737,828.261z"/>
			<path opacity="0.75" fill="#E6E7E8" d="M1007.946,897.141c0-4.657,0-6.986,0-11.644c3.865,0,5.798,0,9.663,0
				c0-30.474,0-60.948,0-91.422c2.28,0,3.42,0,5.7,0c0,15.113,0,30.226,0,45.339c2.774,0,4.162,0,6.937,0
				c-0.002,25.685,0,51.369,0,77.054c-6.292,0-9.436,0-15.729,0c0-7.73,0-11.596,0-19.326
				C1011.89,897.141,1010.573,897.141,1007.946,897.141z"/>
			<path opacity="0.75" fill="#D1D3D4" d="M1009.187,885.497c3.369,0,5.054,0,8.423,0c0-30.474,0-60.948,0-91.422
				c-3.369,0-5.054,0-8.423,0C1009.187,824.548,1009.187,855.023,1009.187,885.497z"/>
			<path opacity="0.75" fill="#D1D3D4" d="M1043.872,916.467c-2.774,0-4.164,0-6.938,0c0-22.134,0-44.268,0-66.402
				c2.774,0,4.164,0,6.938,0C1043.872,872.199,1043.872,894.333,1043.872,916.467z"/>
			<path opacity="0.75" fill="#E6E7E8" d="M1031.855,922.039c4.409-4.41,6.613-6.613,11.022-11.023c0-22.051-0.002-44.103,0-66.154
				c5.152,0,7.729,0,12.882,0c0,8.028,0,12.042,0,20.07c1.188,0,1.782,0,2.971,0c0,9.811,0.002,14.716,0.002,24.527
				c3.271,0,4.906,0,8.176,0c-0.002,12.357-0.001,24.715-0.001,37.072c-2.087,2.087-3.132,3.13-5.219,5.217
				c-7.896,0-11.845,0-19.74,0C1037.91,927.864,1035.894,925.923,1031.855,922.039z"/>
			<path opacity="0.75" fill="#BCBEC0" d="M1071.365,881.778c-5.054,0-7.581,0-12.635,0c0,3.072,0.002,4.608,0.002,7.681
				c3.271,0,4.906,0,8.176,0c-0.002,12.357-0.001,24.715-0.001,37.072c1.783,0,2.675,0,4.458,0
				C1071.365,911.613,1071.365,896.696,1071.365,881.778z"/>
			<path opacity="0.75" fill="#D1D3D4" d="M1102.949,591.285c11.848,0,23.695,0,35.543,0c0,6.291,0,9.439,0,15.73
				c0.892,0,1.337,0,2.229,0c0,21.472,0,42.943,0,64.415c1.388,0,2.08,0,3.468,0c0,8.325,0,12.487,0,20.812c1.287,0,1.933,0,3.22,0
				c0,6.838,0,10.257,0,17.095c2.874,0,4.312,0,7.186,0c0,76.062,0,152.124,0,228.187c-8.025,0-12.039,0-20.064,0
				c0-19.573,0-39.146,0-58.72c-1.288,0-1.933,0-3.221,0c0-5.103,0-7.654,0-12.757c-1.832,0-2.749,0-4.581,0
				c-1.337,0-2.006,0-3.343,0c0-49.964,0-99.929,0-149.893c-2.378,0-3.567,0-5.945,0c0-7.979,0-11.968,0-19.947
				c-3.864,0-5.797,0-9.661,0c0-7.927,0-11.89,0-19.817c-1.189,0-1.783,0-2.973,0c0-8.722,0-13.084,0-21.806
				c-0.743,0-1.113,0-1.856,0C1102.949,633.484,1102.949,612.384,1102.949,591.285z"/>
			<path opacity="0.75" fill="#E6E7E8" d="M1154.594,944.71c4.608,0,6.911,0,11.52,0c2.007-2.007,3.011-3.01,5.018-5.017
				c11.704,0,23.407,0,35.111,0c0-10.332,0-15.497,0-25.829c-3.27,0-4.903,0-8.173,0c0,1.709,0,2.563,0,4.273
				c-1.784,0-2.676,0-4.46,0c0-23.909,0-47.817,0-71.726c-0.446,0-0.669,0-1.115,0c0-2.75,0-4.125,0-6.875c-2.08,0-3.121,0-5.201,0
				c0-2.304,0-3.456,0-5.76c-2.751,0-4.126,0-6.877,0c0,5.128,0,7.692,0,12.821c-2.823,0-4.233,0-7.057,0
				c0,25.024,0,50.048,0,75.071c-4.013,0-6.021,0-10.034,0c0,6.342,0,9.513,0,15.854c-3.493,0-5.238,0-8.731,0
				C1154.594,940.398,1154.594,941.835,1154.594,944.71z"/>
			<path opacity="0.75" fill="#D1D3D4" d="M1230.766,600.205c0.817,0,1.227,0,2.044,0c0,4.088,0,6.132,0,10.22
				c1.338,0,2.004,0,3.342,0c0,11.075,0,16.612,0,27.687c-1.115,0-1.671,0-2.786,0c0,20.315,0,40.631,0,60.947c-1.04,0-1.56,0-2.6,0
				C1230.766,666.107,1230.766,633.156,1230.766,600.205z"/>
			<path opacity="0.75" fill="#A7A9AC" d="M1257.201,914.979c4.317,0,6.475,0,10.792,0c0-25.064,0-50.128,0-75.192
				c-4.317,0-6.475,0-10.792,0C1257.201,864.85,1257.201,889.914,1257.201,914.979z"/>
			<path opacity="0.75" fill="#E6E7E8" d="M1272.754,914.979c-5.351,0-8.026,0-13.377,0c0-5.45,0-8.175,0-13.625
				c5.351,0,8.026,0,13.377,0C1272.754,906.804,1272.754,909.528,1272.754,914.979z"/>
			<path opacity="0.75" fill="#D1D3D4" d="M1259.377,888.306c5.351,0,8.026,0,13.377,0c0,5.219,0,7.829,0,13.048
				c-5.351,0-8.026,0-13.377,0C1259.377,896.135,1259.377,893.524,1259.377,888.306z"/>
			<path opacity="0.75" fill="#BCBEC0" d="M1259.377,861.217c4.559,0,6.838,0,11.396,0c0,10.836,0,16.253,0,27.089
				c-4.558,0-6.837,0-11.396,0C1259.377,877.47,1259.377,872.053,1259.377,861.217z"/>
			<path opacity="0.75" fill="#A7A9AC" d="M1290.094,914.979c-7.73,0-11.595,0-19.323,0c0.004-21.638,0.002-43.276,0.002-64.914
				c7.729,0,11.591,0,19.321,0C1290.094,871.703,1290.094,893.341,1290.094,914.979z"/>
			<path opacity="0.75" fill="#D1D3D4" d="M1383.506,715.783c-4.757,0-7.136,0-11.893,0c0-27.666,0-55.331,0-82.998
				c4.063,0,6.095,0,10.158,0c0,10.158,0,20.315,0,30.473c0.693,0,1.041,0,1.734-0.001
				C1383.506,680.766,1383.506,698.274,1383.506,715.783z"/>
			<path opacity="0.75" fill="#BCBEC0" d="M1341.631,920.679c-3.964,0-5.944,0-9.908,0c0-15.939-0.001-31.878,0.001-47.817
				c3.964,0,5.943,0,9.907,0C1341.631,888.801,1341.631,904.739,1341.631,920.679z"/>
			<path opacity="0.75" fill="#A7A9AC" d="M1422.656,889.956c-4.46,0-6.69,0-11.15,0c-0.004-10.24,0.002-20.481-0.002-30.721
				c4.46,0,6.692,0,11.152,0C1422.656,869.476,1422.656,879.716,1422.656,889.956z"/>
			<path opacity="0.75" fill="#BCBEC0" d="M1392.055,938.269c5.6,0,8.4,0,14,0c0-24.033,0-48.065,0-72.099c-5.601,0-8.399,0-14,0
				C1392.055,890.204,1392.055,914.236,1392.055,938.269z"/>
			<path opacity="0.75" fill="#E6E7E8" d="M1392.055,911.264c2.032,0,3.045,0,5.077,0c0,10.307,0,15.459,0,25.766
				c4.163,0,6.246,0,10.409,0c0-16.599,0-33.198,0-49.797c2.479,0,3.717,0,6.195,0c0-3.964,0-5.947,0-9.911c2.973,0,4.459,0,7.432,0
				c0-3.072,0-4.608,0-7.681c5.353,0,8.029,0,13.382,0c0,3.716-0.001,5.574-0.001,9.291c0,10.703,0,16.054,0,26.757
				c-6.889,0-10.332,0-17.221,0c0,12.14,0,24.28,0,36.42c-1.189,0-1.785,0-2.975,0c0,2.23,0,3.346,0,5.576
				c-8.92,0-13.379,0-22.299,0C1392.055,935.544,1392.055,923.404,1392.055,911.264z"/>
			<path opacity="0.75" fill="#D1D3D4" d="M1542.086,902.221c-7.037,0-10.558,0-17.595,0c0-6.392,0-9.587,0-15.979
				c7.037,0,10.558,0,17.595,0C1542.086,892.633,1542.086,895.829,1542.086,902.221z"/>
			<path opacity="0.75" fill="#E6E7E8" d="M1514.331,902.221c10.506,0,15.764,0,26.27,0c0-4.212,0-6.318,0-10.531
				c3.668,0,5.502,0,9.17,0c0,4.212,0,6.318,0,10.531c0.991,0,1.483,0,2.475,0c0,4.211,0,6.317,0,10.528c-2.974,0-4.459,0-7.433,0
				c0,4.46,0,6.689,0,11.149c-12.266,0-24.532,0-36.798,0c-2.527-3.419-3.79-5.129-6.317-8.549c0-5.252,0.001-7.877,0.001-13.129
				C1506.752,902.221,1509.277,902.221,1514.331,902.221z"/>
			<path opacity="0.75" fill="#BCBEC0" d="M1524.491,886.241c-0.162-11.236,0-33.758,0-33.758c0.06-0.023,10.902,0,10.902,0
				c0,9.044,0,13.565,0,22.608c2.677,0,4.016,0,6.692,0c0,4.46,0,6.69,0,11.149C1535.049,886.241,1531.528,886.241,1524.491,886.241
				z"/>
			<g>
				<path fill="#FFFFFF" d="M1552.245,912.749c-2.974,0-4.459,0-7.433,0c0,4.46,0,6.689,0,11.149c-12.266,0-24.532,0-36.798,0
					c-2.527-3.419-3.79-5.129-6.317-8.549c0.002-9.538,0.001-19.077,0.001-28.615c-1.487,0-2.231,0-3.719,0
					c0,6.095-0.001,9.143-0.001,15.238c0,6.244,0.001,9.366,0.001,15.609c-3.271,0-4.904,0-8.175,0c0,2.973-0.002,4.459-0.002,7.433
					c-2.527,0-3.79,0-6.317,0c0,1.487,0,2.23,0,3.717c-9.218,0-13.825,0-23.043,0c0-16.6-0.007-33.199,0-49.799
					c-10.407,0-15.611,0-26.019,0c0,10.703,0,16.054,0,26.757c-6.838,0-10.258,0-17.096,0c0,7.73,0,11.595,0,19.326
					c0,6.838,0,10.257,0,17.095c-1.189,0-1.785,0-2.975,0c0,2.23,0,3.346,0,5.576c-8.92,0-13.379,0-22.299,0
					c0-77.3,0-154.601,0-231.901c-7.582,0-11.375,0-18.957,0c0-24.528,0-49.056,0-73.584c-6.541,0-9.811,0-16.352,0
					c0,99.103,0,198.206,0,297.308c-13.008,0-26.017,0-39.024,0c-1.369-49.428-2.728-98.855-4.089-148.283
					c-4.758,0-7.136,0-11.894,0c0,32.085-0.005,64.17,0,96.255c-8.326,0-12.491,0-20.815,0c0,11,0,16.5,0,27.5
					c-10.552,0-15.828,0-26.38,0c0-68.381,0-136.762,0-205.143c-0.892,0-1.335,0-2.228,0c0-4.311,0-6.467,0-10.778
					c-1.188,0-1.784,0-2.973,0c0-20.315,0-40.631,0-60.947c-6.392,0-9.587,0-15.979,0c0,20.315,0,40.631,0,60.947
					c-1.04,0-1.56,0-2.6,0c0,46.083,0,92.165,0,138.248c-1.635,0-2.454,0.001-4.089,0.001c0-40.384,0-80.768,0-121.153
					c-2.081,0-3.119,0-5.2,0c0-25.643,0-51.285,0-76.927c-3.271-1.041-4.905-1.562-8.176-2.603c0-9.786,0-19.572,0-29.358
					c-1.783,0-2.674,0-4.457,0c0,113.597,0,227.193,0,340.79c-1.04,0-1.562,0-2.602,0c0-3.717,0-5.575,0-9.292
					c-12.014,0-24.027,0-36.041,0c-1.635,2.378-2.453,3.567-4.088,5.946c-9.958,0-14.937,0-24.895,0c-3.418,0-5.128,0-8.546,0
					c-2.378,0-3.567,0-5.945,0c0-26.18,0.002-52.359-0.002-78.539c-1.337,0-2.004,0-3.341,0c0-50.006,0-100.011,0-150.017
					c-2.378,0-3.567,0-5.945,0c0-7.979,0-11.968,0-19.947c-3.864,0-5.797,0-9.661,0c0-7.927,0-11.89,0-19.817
					c-1.189,0-1.783,0-2.973,0c0-8.919,0-13.38,0-22.299c-0.743,0-1.113,0-1.856,0c0-20.935,0-41.871,0-62.806
					c-2.526,0-3.789,0-6.315,0c0,21.802,0,43.604,0,65.406c-2.824,0-4.237,0-7.062,0c0,5.798,0,8.697,0,14.495
					c-3.27,0-4.904,0-8.174,0c0,80.893,0,161.786,0,242.678c-2.378,0-3.567,0-5.945,0c0,5.067,0,7.6,0,12.667
					c-3.108,0-4.664,0-7.772,0c-2.241,2.242-3.364,3.363-5.605,5.605c-8.051,0-12.076,0-20.127,0
					c-4.582-4.583-6.872-6.876-11.454-11.46c0-1.685,0-2.526,0-4.21c-6.391,0-9.585,0-15.978,0c0-7.73,0-11.596,0-19.326
					c-12.266,0-24.53,0-36.796,0c0-3.716,0-5.575,0-9.292c-1.636,0-2.453,0-4.089,0c0-6.838,0-10.257,0-17.095
					c-1.189,0-1.784,0-2.974,0c0-2.676,0-4.015,0-6.69c-2.825,0-4.237,0-7.062,0c0,0.843-0.002,1.264-0.002,2.106
					c0.004,23.455,0.002,46.909,0.002,70.364c-4.162,0-6.244,0-10.406,0c-11.895,6.191-23.786,12.389-35.68,18.581
					c-6.839,0-10.258,0-17.097,0c0-26.18,0-52.36,0-78.54c-1.487,0-2.232,0-3.719,0c0-5.451,0.001-8.176,0.001-13.627
					c-1.387,0-2.08,0-3.467,0c0,12.388,0,24.775,0,37.163c-4.263,0-6.393,0-10.656,0c0,5.451,0,8.178,0,13.629
					c-2.478,0-3.716-0.001-6.193-0.001c0,2.775,0,4.163,0,6.938c-6.739,0-10.11,0-16.85,0c0-2.775,0-4.163,0-6.938
					c-4.47,0-6.704,0-11.174,0c-5.045,2.775-7.568,4.162-12.613,6.937c0,3.964,0,5.947,0,9.911
					c-15.197,5.615-30.394,11.231-45.591,16.848c-11.894-0.001-23.787,0.001-35.681,0c0,8.87,0,13.304,0,22.173
					c265.925,0,531.85,0,797.774,0c0-9.217,0-13.825,0-23.042C1552.245,935.295,1552.245,924.021,1552.245,912.749z"/>
			</g>
		</g>
	</g>
	<g>
		<polygon fill="#D1D3D4" points="725.386,855.161 725.386,968.158 768.215,968.158 759.18,953.708 763.051,953.708 754.281,939.78 
			758.407,939.78 749.898,925.846 753.765,925.846 744.99,911.912 749.64,911.912 740.092,897.467 744.475,897.467 735.443,883.538 
			740.348,883.538 731.321,869.605 735.702,869.605 		"/>
		<polygon fill="#FFFFFF" points="725.386,855.161 725.386,968.158 682.56,968.158 691.59,953.708 687.721,953.708 696.493,939.78 
			692.36,939.78 700.877,925.846 697.008,925.846 705.779,911.912 701.136,911.912 710.683,897.467 706.295,897.467 
			715.323,883.538 710.42,883.538 719.454,869.605 715.062,869.605 		"/>
	</g>
	<g>
		<polygon fill="#D1D3D4" points="495.305,855.161 495.305,968.158 538.133,968.158 529.098,953.708 532.97,953.708 524.2,939.78 
			528.327,939.78 519.816,925.846 523.684,925.846 514.909,911.912 519.558,911.912 510.01,897.467 514.393,897.467 
			505.363,883.538 510.267,883.538 501.238,869.605 505.621,869.605 		"/>
		<polygon fill="#FFFFFF" points="495.305,855.161 495.305,968.158 452.478,968.158 461.508,953.708 457.639,953.708 
			466.412,939.78 462.279,939.78 470.795,925.846 466.927,925.846 475.699,911.912 471.055,911.912 480.602,897.467 
			476.214,897.467 485.241,883.538 480.34,883.538 489.373,869.605 484.98,869.605 		"/>
	</g>
	<g>
		<polygon fill="#D1D3D4" points="390.496,880.881 390.496,970.953 424.636,970.953 417.434,959.435 420.52,959.435 
			413.529,948.333 416.819,948.333 410.035,937.227 413.117,937.227 406.124,926.119 409.829,926.119 402.219,914.605 
			405.713,914.605 398.514,903.502 402.422,903.502 395.228,892.396 398.721,892.396 		"/>
		<polygon fill="#FFFFFF" points="390.496,880.881 390.496,970.953 356.359,970.953 363.557,959.435 360.473,959.435 
			367.467,948.333 364.172,948.333 370.96,937.227 367.877,937.227 374.868,926.119 371.167,926.119 378.776,914.605 
			375.279,914.605 382.476,903.502 378.568,903.502 385.769,892.396 382.268,892.396 		"/>
	</g>
	<g>
		<polygon fill="#D1D3D4" points="340.842,880.881 340.842,970.953 374.982,970.953 367.779,959.435 370.865,959.435 
			363.876,948.333 367.164,948.333 360.381,937.227 363.463,937.227 356.469,926.119 360.176,926.119 352.565,914.605 
			356.059,914.605 348.86,903.502 352.769,903.502 345.573,892.396 349.066,892.396 		"/>
		<polygon fill="#FFFFFF" points="340.842,880.881 340.842,970.953 306.705,970.953 313.902,959.435 310.818,959.435 
			317.811,948.333 314.518,948.333 321.307,937.227 318.223,937.227 325.215,926.119 321.513,926.119 329.122,914.605 
			325.625,914.605 332.822,903.502 328.914,903.502 336.115,892.396 332.613,892.396 		"/>
	</g>
	<g>
		<polygon fill="#D1D3D4" points="556.838,880.881 556.838,970.953 590.977,970.953 583.775,959.435 586.861,959.435 
			579.871,948.333 583.16,948.333 576.375,937.227 579.459,937.227 572.465,926.119 576.17,926.119 568.56,914.605 572.054,914.605 
			564.856,903.502 568.764,903.502 561.568,892.396 565.06,892.396 		"/>
		<polygon fill="#FFFFFF" points="556.838,880.881 556.838,970.953 522.701,970.953 529.898,959.435 526.815,959.435 
			533.807,948.333 530.514,948.333 537.301,937.227 534.217,937.227 541.21,926.119 537.508,926.119 545.117,914.605 
			541.62,914.605 548.816,903.502 544.908,903.502 552.109,892.396 548.608,892.396 		"/>
	</g>
	<g>
		<polygon fill="#D1D3D4" points="-24.695,855.161 -24.695,968.158 18.133,968.158 9.098,953.708 12.97,953.708 4.2,939.78 
			8.327,939.78 -0.184,925.846 3.684,925.846 -5.091,911.912 -0.442,911.912 -9.99,897.467 -5.607,897.467 -14.637,883.538 
			-9.733,883.538 -18.762,869.605 -14.379,869.605 		"/>
	</g>
	<g>
		<polygon fill="#D1D3D4" points="36.838,880.881 36.838,970.953 70.977,970.953 63.775,959.435 66.861,959.435 59.871,948.333 
			63.16,948.333 56.375,937.227 59.459,937.227 52.465,926.119 56.17,926.119 48.561,914.605 52.054,914.605 44.855,903.502 
			48.764,903.502 41.568,892.396 45.061,892.396 		"/>
		<polygon fill="#FFFFFF" points="36.838,880.881 36.838,970.953 2.701,970.953 9.898,959.435 6.814,959.435 13.807,948.333 
			10.514,948.333 17.301,937.227 14.217,937.227 21.21,926.119 17.508,926.119 25.117,914.605 21.62,914.605 28.816,903.502 
			24.908,903.502 32.109,892.396 28.608,892.396 		"/>
	</g>
	<g>
		<polygon fill="#D1D3D4" points="606.491,880.881 606.491,970.953 640.631,970.953 633.429,959.435 636.516,959.435 
			629.525,948.333 632.815,948.333 626.029,937.227 629.112,937.227 622.119,926.119 625.824,926.119 618.214,914.605 
			621.707,914.605 614.51,903.502 618.418,903.502 611.223,892.396 614.715,892.396 		"/>
		<polygon fill="#FFFFFF" points="606.491,880.881 606.491,970.953 572.354,970.953 579.552,959.435 576.467,959.435 
			583.461,948.333 580.168,948.333 586.956,937.227 583.872,937.227 590.864,926.119 587.162,926.119 594.771,914.605 
			591.273,914.605 598.471,903.502 594.562,903.502 601.764,892.396 598.263,892.396 		"/>
	</g>
	<g>
		<polygon fill="#D1D3D4" points="261.931,855.161 261.931,968.158 304.76,968.158 295.724,953.708 299.596,953.708 290.826,939.78 
			294.953,939.78 286.442,925.846 290.309,925.846 281.535,911.912 286.184,911.912 276.637,897.467 281.02,897.467 
			271.988,883.538 276.893,883.538 267.865,869.605 272.248,869.605 		"/>
		<polygon fill="#FFFFFF" points="261.931,855.161 261.931,968.158 219.104,968.158 228.135,953.708 224.266,953.708 
			233.037,939.78 228.905,939.78 237.422,925.846 233.553,925.846 242.324,911.912 237.682,911.912 247.227,897.467 242.84,897.467 
			251.867,883.538 246.965,883.538 255.998,869.605 251.607,869.605 		"/>
	</g>
	<rect x="70.42" y="962.631" fill="#FFFFFF" width="156.41" height="4.965"/>
	<g>
		<polygon fill="#47BCB6" points="82.274,792.394 76.129,917.355 105.49,917.355 100.711,791.711 		"/>
		<polygon fill="#FFFFFF" points="81.726,803.555 81.24,813.367 101.407,813.426 101.045,803.555 		"/>
		<polygon fill="#FFFFFF" points="80.555,825.787 80.09,835.556 102.316,835.516 101.953,825.787 		"/>
		<polygon fill="#FFFFFF" points="79.383,848.459 78.9,858.149 103.205,858.149 102.84,848.418 		"/>
		<polygon fill="#FFFFFF" points="78.254,871.794 77.729,881.483 104.133,881.444 103.729,871.754 		"/>
		<polygon fill="#FFFFFF" points="77.082,895.938 76.598,905.669 105.021,905.71 104.617,895.899 		"/>
	</g>
	<g>
		<polygon fill="#47BCB6" points="125.746,792.596 119.6,917.557 148.962,917.557 144.183,791.914 		"/>
		<polygon fill="#FFFFFF" points="125.197,803.758 124.713,813.569 144.879,813.628 144.516,803.758 		"/>
		<polygon fill="#FFFFFF" points="124.025,825.987 123.562,835.759 145.789,835.717 145.424,825.987 		"/>
		<polygon fill="#FFFFFF" points="122.855,848.661 122.371,858.35 146.676,858.35 146.312,848.621 		"/>
		<polygon fill="#FFFFFF" points="121.725,871.996 121.2,881.686 147.605,881.646 147.201,871.955 		"/>
		<polygon fill="#FFFFFF" points="120.554,896.14 120.07,905.87 148.492,905.91 148.089,896.1 		"/>
	</g>
	<polygon fill="#FFFFFF" points="214.549,917.067 214.549,902.225 177.96,885.26 177.96,917.067 173.188,917.067 173.188,902.225 
		136.605,885.26 136.605,917.067 124.932,917.067 124.932,917.197 109.029,917.197 109.029,917.067 102.66,917.067 102.66,917.14 
		86.758,917.14 86.758,917.067 72.973,917.067 72.973,961.606 225.686,961.606 225.686,917.067 	"/>
	<g>
		<path fill="#3A9E99" d="M890.473,918.175h-12.85c-11.268,0-15.461,13.923-15.461,13.923h28.311V918.175z"/>
		<path fill="#3A9E99" d="M900.667,918.175h-7.305v13.923h22.745C916.107,932.099,911.937,918.175,900.667,918.175"/>
		<path fill="#3A9E99" d="M929.523,957.482c0.236-0.786,0.392-1.629,0.392-2.511V944.01c0-5.1-4.127-9.248-9.242-9.248h-66.295
			c-5.106,0-9.251,4.148-9.251,9.248v10.961c0,0.458,0.071,0.899,0.13,1.343c-1.553,0.266-2.764,1.576-2.764,3.219
			c0,1.839,1.497,3.331,3.335,3.331h3.777c1.388,0.843,3.005,1.357,4.772,1.357h1.31c-0.431-1.19-0.682-2.452-0.682-3.791
			c0-6.117,4.967-11.083,11.084-11.083c6.126,0,11.077,4.966,11.077,11.083c0,1.339-0.246,2.601-0.68,3.791h20.948
			c-0.431-1.19-0.683-2.452-0.683-3.791c0-6.117,4.967-11.083,11.077-11.083c6.118,0,11.082,4.966,11.082,11.083
			c0,1.339-0.249,2.601-0.68,3.791h2.44c2.16,0,4.129-0.773,5.695-2.009c0.172,0.048,0.357,0.122,0.549,0.122h2.277
			c1.358,0,2.461-1.108,2.461-2.468C931.655,958.626,930.726,957.653,929.523,957.482 M847.661,952.68
			c-0.529,0-0.953-1.925-0.953-4.285c0-2.368,0.424-4.293,0.953-4.293c0.535,0,0.967,1.925,0.967,4.293
			C848.628,950.755,848.196,952.68,847.661,952.68 M887.525,941.771c0,0.606-0.487,1.079-1.088,1.079h-7.735
			c-0.608,0-1.079-0.473-1.079-1.079v-1.282c0-0.608,0.471-1.088,1.079-1.088h7.735c0.601,0,1.088,0.48,1.088,1.088V941.771z"/>
		<path fill="#3A9E99" d="M866.09,951.388c-5.001,0-9.043,4.042-9.043,9.042c0,4.994,4.042,9.05,9.043,9.05
			c5.003,0,9.052-4.056,9.052-9.05C875.142,955.43,871.093,951.388,866.09,951.388 M866.09,964.57c-2.29,0-4.142-1.844-4.142-4.14
			c0-2.282,1.852-4.137,4.142-4.137c2.29,0,4.135,1.854,4.135,4.137C870.225,962.726,868.38,964.57,866.09,964.57"/>
		<path fill="#3A9E99" d="M907.83,951.388c-4.995,0-9.044,4.042-9.044,9.042c0,4.994,4.049,9.05,9.044,9.05
			c5.009,0,9.044-4.056,9.044-9.05C916.874,955.43,912.839,951.388,907.83,951.388 M907.83,964.57c-2.283,0-4.135-1.844-4.135-4.14
			c0-2.282,1.852-4.137,4.135-4.137c2.297,0,4.136,1.854,4.136,4.137C911.966,962.726,910.127,964.57,907.83,964.57"/>
	</g>
	<g>
		<circle fill-rule="evenodd" clip-rule="evenodd" fill="#FFFFFF" cx="1480.012" cy="338.958" r="55.788"/>
		<g>
			<polygon fill-rule="evenodd" clip-rule="evenodd" fill="#FFFFFF" points="1479.888,261.435 1479.888,261.26 1479.976,261.348 
				1480.062,261.26 1480.062,261.435 1492.112,273.484 1480.062,273.484 1479.888,273.484 1467.839,273.484 			"/>
			<polygon fill-rule="evenodd" clip-rule="evenodd" fill="#FFFFFF" points="1479.888,420.453 1479.888,420.627 1479.976,420.54 
				1480.062,420.627 1480.062,420.453 1492.112,408.403 1480.062,408.403 1479.888,408.403 1467.839,408.403 			"/>
		</g>
		<g>
			<polygon fill-rule="evenodd" clip-rule="evenodd" fill="#FFFFFF" points="1440.146,272.132 1440.057,271.979 1440.177,272.012 
				1440.21,271.893 1440.296,272.044 1456.758,276.454 1446.321,282.478 1446.169,282.566 1435.735,288.59 			"/>
			<polygon fill-rule="evenodd" clip-rule="evenodd" fill="#FFFFFF" points="1519.653,409.845 1519.741,409.996 1519.772,409.876 
				1519.892,409.909 1519.804,409.757 1524.218,393.297 1513.782,399.322 1513.628,399.41 1503.192,405.434 			"/>
		</g>
		<g>
			<polygon fill-rule="evenodd" clip-rule="evenodd" fill="#FFFFFF" points="1411.075,301.267 1410.921,301.179 1411.044,301.147 
				1411.01,301.027 1411.161,301.114 1427.622,296.704 1421.599,307.139 1421.509,307.292 1415.485,317.725 			"/>
			<polygon fill-rule="evenodd" clip-rule="evenodd" fill="#FFFFFF" points="1548.788,380.775 1548.938,380.863 1548.907,380.743 
				1549.026,380.711 1548.874,380.623 1544.466,364.163 1538.44,374.599 1538.353,374.75 1532.329,385.185 			"/>
		</g>
		<g>
			<polygon fill-rule="evenodd" clip-rule="evenodd" fill="#FFFFFF" points="1400.468,341.033 1400.29,341.032 1400.38,340.944 
				1400.29,340.857 1400.465,340.857 1412.517,328.807 1412.517,340.857 1412.517,341.033 1412.516,353.08 			"/>
			<polygon fill-rule="evenodd" clip-rule="evenodd" fill="#FFFFFF" points="1559.483,341.033 1559.657,341.033 1559.571,340.944 
				1559.657,340.857 1559.483,340.857 1547.433,328.806 1547.433,340.857 1547.433,341.033 1547.433,353.08 			"/>
		</g>
		<g>
			<polygon fill-rule="evenodd" clip-rule="evenodd" fill="#FFFFFF" points="1411.161,380.774 1411.011,380.862 1411.044,380.742 
				1410.921,380.71 1411.075,380.623 1415.485,364.162 1421.509,374.597 1421.599,374.75 1427.622,385.184 			"/>
			<polygon fill-rule="evenodd" clip-rule="evenodd" fill="#FFFFFF" points="1548.876,301.266 1549.028,301.179 1548.907,301.147 
				1548.938,301.027 1548.788,301.114 1532.329,296.703 1538.353,307.139 1538.442,307.29 1544.464,317.724 			"/>
		</g>
		<g>
			<polygon fill-rule="evenodd" clip-rule="evenodd" fill="#FFFFFF" points="1440.298,409.844 1440.21,409.996 1440.177,409.875 
				1440.057,409.909 1440.146,409.757 1435.732,393.296 1446.169,399.321 1446.322,399.409 1456.756,405.434 			"/>
			<polygon fill-rule="evenodd" clip-rule="evenodd" fill="#FFFFFF" points="1519.808,272.131 1519.894,271.979 1519.774,272.012 
				1519.741,271.893 1519.653,272.044 1503.192,276.453 1513.63,282.478 1513.784,282.566 1524.218,288.59 			"/>
		</g>
	</g>
	<g>
		<polygon fill="#FFFFFF" points="1617.366,803.166 1617.366,969.062 1554.49,969.062 1567.747,947.849 1562.067,947.849 
			1574.946,927.4 1568.879,927.4 1581.383,906.943 1575.703,906.943 1588.582,886.485 1581.764,886.485 1595.779,865.278 
			1589.337,865.278 1602.592,844.828 1595.395,844.828 1608.656,824.373 1602.209,824.373 		"/>
	</g>
	<g>
		<rect x="39.048" y="537.639" fill="none" width="351.001" height="36"/>
		<text transform="matrix(1 0 0 1 47.2974 552.0186)" fill="#FFFFFF" font-family="'Helvetica'" font-size="20">PLANTS, FACTORIES, REFINERIES</text>
	</g>
	<g>
		<rect x="319.805" y="537.639" fill="none" width="351" height="36"/>
		<text transform="matrix(1 0 0 1 448.0781 552.0186)" fill="#FFFFFF" font-family="'Helvetica'" font-size="20">FORESTS</text>
	</g>
	<g>
		<rect x="636.482" y="537.639" fill="none" width="351.001" height="36"/>
		<text transform="matrix(1 0 0 1 722.5254 552.0186)" fill="#FFFFFF" font-family="'Helvetica'" font-size="20">MOTOR VEHICLES</text>
	</g>
	<g>
		<rect x="987.483" y="537.639" fill="none" width="351" height="36"/>
		<text transform="matrix(1 0 0 1 1130.7568 552.0186)" fill="#FFFFFF" font-family="'Helvetica'" font-size="20">CITIES</text>
	</g>
	<rect x="1428.107" y="537.639" fill="none" width="123" height="15.5"/>
	<text transform="matrix(1 0 0 1 1428.1074 552.0186)" fill="#FFFFFF" font-family="'Helvetica'" font-size="20">SUNLIGHT</text>
	
		<circle fill-rule="evenodd" clip-rule="evenodd" fill="none" stroke="#FFFFFF" stroke-miterlimit="10" cx="1181" cy="693.331" r="5.331"/>
	
		<circle fill-rule="evenodd" clip-rule="evenodd" fill="none" stroke="#FFFFFF" stroke-miterlimit="10" cx="881" cy="844.862" r="5.331"/>
	
		<circle fill-rule="evenodd" clip-rule="evenodd" fill="none" stroke="#FFFFFF" stroke-miterlimit="10" cx="495.305" cy="819.862" r="5.331"/>
	
		<circle fill-rule="evenodd" clip-rule="evenodd" fill="none" stroke="#FFFFFF" stroke-miterlimit="10" cx="184" cy="845.862" r="5.331"/>
	<polyline fill-rule="evenodd" clip-rule="evenodd" fill="none" stroke="#FFFFFF" stroke-miterlimit="10" points="1163.977,565 
		1163.977,596.431 1181,596.431 1181,688 	"/>
	<polyline fill-rule="evenodd" clip-rule="evenodd" fill="none" stroke="#FFFFFF" stroke-miterlimit="10" points="807.51,565 
		807.51,612.739 881,612.739 881,838.701 	"/>
	
		<line fill-rule="evenodd" clip-rule="evenodd" fill="none" stroke="#FFFFFF" stroke-miterlimit="10" x1="495.566" y1="565" x2="495.566" y2="814.531"/>
	<polyline fill-rule="evenodd" clip-rule="evenodd" fill="none" stroke="#FFFFFF" stroke-miterlimit="10" points="214.548,565 
		214.548,723 184,723 184,841.396 	"/>
	<polygon fill="#D1DE58" points="56.596,41.189 37.486,60.298 56.596,79.408 	"/>
</g>
<g id="Layer_3">
</g>
<g id="Layer_4">
	<polygon fill="#D1DE58" points="1473.837,358.067 1492.946,338.958 1473.837,319.849 	"/>
</g>
<g id="Layer_5">
</g>
<g id="Layer_6">
</g>
<g id="Layer_7">
</g>
</svg>
