<?xml version="1.0" encoding="utf-8"?>
<!-- Generator: Adobe Illustrator 18.0.0, SVG Export Plug-In . SVG Version: 6.00 Build 0)  -->
<!DOCTYPE svg PUBLIC "-//W3C//DTD SVG 1.1//EN" "http://www.w3.org/Graphics/SVG/1.1/DTD/svg11.dtd">
<svg version="1.1" xmlns="http://www.w3.org/2000/svg" xmlns:xlink="http://www.w3.org/1999/xlink" x="0px" y="0px"
	 viewBox="0 0 1600 1150" enable-background="new 0 0 1600 1150" xml:space="preserve">
<g id="Layer_1">
</g>
<g id="Layer_2">
</g>
<g id="Layer_3">
	<rect fill="#47BCB6" width="1600.229" height="1147.277"/>
	<rect x="1.592" y="984.238" fill="#FFFFFF" width="1600" height="165.762"/>
	<text transform="matrix(1 0 0 1 341.2988 1046.0869)"><tspan x="0" y="0" fill="#010101" font-family="'Helvetica'" font-size="18">Re</tspan><tspan x="23.01" y="0" fill="#010101" font-family="'Helvetica'" font-size="18">f</tspan><tspan x="27.849" y="0" fill="#010101" font-family="'Helvetica'" font-size="18">erences</tspan></text>
	<g>
		<polygon fill="#2E2119" points="105.124,1045.854 105.124,1029.158 116.626,1029.158 116.626,1031.684 108.737,1031.684 
			108.737,1035.93 115.362,1035.93 115.362,1038.309 108.737,1038.309 108.737,1043.307 116.966,1043.307 116.966,1045.854 		"/>
		<path fill="#2E2119" d="M127.189,1045.854v-7.375c0-1.24-0.194-2.137-1.698-2.137c-0.801,0-1.917,0.414-2.718,0.896v8.615h-3.495
			v-11.914h3.301l0.049,1.09l0.097,0.051c1.382-0.924,3.058-1.432,4.198-1.432c3.154,0,3.736,1.869,3.736,4.102v8.104H127.189z"/>
		<path fill="#2E2119" d="M138.554,1043.549c0.121-0.314,0.776-3.082,1.164-4.32c0.535-1.553,1.53-4.949,1.651-5.289h3.494
			c-0.874,2.451-3.227,9.486-4.101,11.914h-4.732c-0.85-2.428-3.229-9.463-4.078-11.914h3.642l1.722,5.531
			c0.268,0.85,0.826,3.252,1.117,4.078H138.554z"/>
		<path fill="#2E2119" d="M148.405,1032.482c-1.287,0-1.99-0.824-1.99-1.842c0-1.068,0.729-1.871,1.99-1.871
			c1.335,0,2.062,0.803,2.062,1.871C150.467,1031.658,149.74,1032.482,148.405,1032.482 M146.682,1033.939h3.47v11.914h-3.47
			V1033.939z"/>
		<path fill="#2E2119" d="M156.674,1036.051c1.31-1.287,3.203-2.428,4.538-2.428c0.486,0,0.678,0.293,0.678,0.803
			c0,0.896-0.581,2.717-1.09,3.422l-4.053-0.049v8.055h-3.471v-11.914h3.422c0,0.557-0.072,1.48-0.145,2.039L156.674,1036.051z"/>
		<path fill="#2E2119" d="M168.685,1046.098c-4.416,0-5.945-2.766-5.945-6.188c0-3.35,1.699-6.238,6.092-6.238
			c4.439,0,5.969,2.889,5.969,6.213S173.224,1046.098,168.685,1046.098 M168.831,1036.123c-1.99,0-2.525,1.916-2.525,3.787
			c0,2.109,0.412,3.736,2.525,3.736c1.965,0,2.378-1.773,2.378-3.736C171.209,1038.016,170.82,1036.123,168.831,1036.123"/>
		<path fill="#2E2119" d="M184.675,1045.854v-7.375c0-1.24-0.195-2.137-1.699-2.137c-0.801,0-1.918,0.414-2.719,0.896v8.615h-3.494
			v-11.914h3.3l0.049,1.09l0.097,0.051c1.383-0.924,3.059-1.432,4.199-1.432c3.154,0,3.736,1.869,3.736,4.102v8.104H184.675z"/>
		<path fill="#2E2119" d="M205.663,1045.854v-7.545c0-1.312-0.34-1.943-1.578-1.943c-0.752,0-1.867,0.365-2.547,0.826
			c0.072,0.51,0.098,1.117,0.098,1.553v7.109h-3.424c0-2.598-0.023-5.193-0.023-7.789c0-1.117-0.509-1.674-1.432-1.674
			c-0.801,0-1.795,0.365-2.621,0.871v8.592h-3.47v-11.914h3.253l0.071,1.188l0.097,0.049c1.36-1.02,2.985-1.504,4.125-1.504
			c1.36,0,2.284,0.484,2.889,1.553c1.165-0.896,3.033-1.553,4.296-1.553c3.179,0,3.761,1.967,3.761,4.197v7.984H205.663z"/>
		<path fill="#2E2119" d="M222.451,1039.449v1.236h-7.788c0,1.82,0.85,2.789,2.985,2.789c1.286,0,2.596-0.289,3.833-0.752
			l0.705,2.137c-1.578,0.873-3.398,1.188-5.049,1.188c-4.805,0-5.969-2.861-5.969-6.137c0-2.621,1.117-6.287,5.823-6.287
			C222.112,1033.623,222.451,1037.311,222.451,1039.449 M214.712,1038.549h4.586c-0.023-1.576-0.51-2.717-2.16-2.717
			C215.416,1035.832,214.833,1037.119,214.712,1038.549"/>
		<path fill="#2E2119" d="M232.619,1045.854v-7.375c0-1.24-0.194-2.137-1.699-2.137c-0.801,0-1.917,0.414-2.718,0.896v8.615h-3.494
			v-11.914h3.299l0.049,1.09l0.098,0.051c1.384-0.924,3.057-1.432,4.198-1.432c3.155,0,3.737,1.869,3.737,4.102v8.104H232.619z"/>
		<path fill="#2E2119" d="M242.857,1030.639v3.277h3.471v2.279h-3.471v5.389c0,1.26,0.364,1.842,1.603,1.842
			c0.436,0,1.189-0.119,2.061-0.314l0.436,2.258c-1.018,0.461-2.377,0.678-3.396,0.678c-3.324,0-4.125-1.648-4.125-3.541v-6.311
			h-1.675v-1.893l1.893-0.559c0.171-0.412,0.704-2.449,0.85-2.863L242.857,1030.639z"/>
		<path fill="#2E2119" d="M258.944,1043.549h1.554l0.169,1.939c-0.776,0.365-1.893,0.609-2.911,0.609
			c-1.044,0-1.796-0.244-1.919-1.434c0-0.023-0.022-0.023-0.048-0.049c-1.674,1.459-3.444,1.482-4.124,1.482
			c-2.961,0-3.689-2.086-3.689-3.471c0-2.477,1.918-3.689,4.418-3.834c0.921-0.072,2.329-0.121,3.25-0.195v-0.289
			c0-1.361-0.437-2.062-2.207-2.062c-1.165,0-2.67,0.24-3.785,0.604c-0.171-0.727-0.365-1.455-0.559-2.156
			c1.406-0.609,3.469-0.996,5.168-0.996c2.863,0,4.684,1.066,4.684,4.15V1043.549z M253.241,1040.709
			c-1.141,0.098-1.674,0.68-1.674,1.625c0,0.998,0.484,1.531,1.627,1.531c0.728,0,1.674-0.391,2.449-1.068v-2.283L253.241,1040.709z
			"/>
		<polygon fill="#2E2119" points="265.883,1045.854 262.436,1045.854 262.436,1028.479 265.907,1028.479 		"/>
		<path fill="#2E2119" d="M111.749,1066.562h-3.034l0.025,6.406h-3.616v-16.695h6.333c3.811,0,5.727,1.99,5.727,5.121
			C117.184,1063.797,115.681,1066.562,111.749,1066.562 M108.715,1058.797v5.316h2.353c1.287,0,2.476-0.68,2.476-2.645
			c0-1.896-1.116-2.672-2.596-2.672H108.715z"/>
		<path fill="#2E2119" d="M129.436,1066.562v1.238h-7.788c0,1.82,0.85,2.789,2.985,2.789c1.285,0,2.597-0.291,3.833-0.752
			l0.703,2.137c-1.578,0.873-3.396,1.189-5.047,1.189c-4.805,0-5.969-2.865-5.969-6.141c0-2.621,1.115-6.283,5.823-6.283
			C129.097,1060.74,129.436,1064.428,129.436,1066.562 M121.696,1065.666h4.586c-0.024-1.578-0.51-2.719-2.16-2.719
			C122.399,1062.947,121.816,1064.232,121.696,1065.666"/>
		<path fill="#2E2119" d="M135.089,1063.164c1.311-1.283,3.203-2.424,4.538-2.424c0.485,0,0.681,0.289,0.681,0.799
			c0,0.896-0.584,2.717-1.094,3.422l-4.051-0.049v8.057h-3.472v-11.914h3.423c0,0.557-0.073,1.479-0.146,2.037L135.089,1063.164z"/>
		<path fill="#2E2119" d="M143.313,1063.311h-1.675v-1.893l1.7-0.486v-1.479c0-2.281,0.994-4.078,4.512-4.078
			c0.826,0,2.16,0.098,3.277,0.412l-0.412,2.354c-0.68-0.145-1.555-0.217-2.063-0.217c-1.237,0-1.942,0.412-1.942,1.578v1.527h3.424
			v2.281h-3.424c0,1.043-0.024,8.615-0.024,9.658h-3.373V1063.311z"/>
		<path fill="#2E2119" d="M157.096,1073.211c-4.416,0-5.945-2.766-5.945-6.188c0-3.35,1.698-6.234,6.091-6.234
			c4.44,0,5.969,2.885,5.969,6.209C163.21,1070.324,161.633,1073.211,157.096,1073.211 M157.241,1063.238
			c-1.99,0-2.523,1.918-2.523,3.785c0,2.111,0.412,3.736,2.523,3.736c1.966,0,2.379-1.77,2.379-3.736
			C159.62,1065.131,159.231,1063.238,157.241,1063.238"/>
		<path fill="#2E2119" d="M168.62,1063.164c1.311-1.283,3.204-2.424,4.539-2.424c0.486,0,0.678,0.289,0.678,0.799
			c0,0.896-0.582,2.717-1.09,3.422l-4.054-0.049v8.057h-3.47v-11.914h3.422c0,0.557-0.072,1.479-0.145,2.037L168.62,1063.164z"/>
		<path fill="#2E2119" d="M190.341,1072.969v-7.547c0-1.309-0.34-1.939-1.578-1.939c-0.752,0-1.867,0.363-2.547,0.822
			c0.072,0.51,0.098,1.117,0.098,1.553v7.111h-3.424c0-2.598-0.023-5.193-0.023-7.791c0-1.113-0.509-1.674-1.432-1.674
			c-0.801,0-1.795,0.365-2.62,0.875v8.59h-3.47v-11.914h3.25l0.073,1.189l0.097,0.049c1.36-1.021,2.985-1.504,4.125-1.504
			c1.36,0,2.283,0.482,2.889,1.553c1.165-0.9,3.033-1.553,4.296-1.553c3.179,0,3.761,1.965,3.761,4.197v7.982H190.341z"/>
		<path fill="#2E2119" d="M206.718,1070.664h1.553l0.17,1.941c-0.775,0.363-1.893,0.605-2.912,0.605
			c-1.045,0-1.797-0.242-1.917-1.432c0-0.021-0.024-0.021-0.049-0.047c-1.675,1.455-3.446,1.479-4.125,1.479
			c-2.961,0-3.689-2.086-3.689-3.471c0-2.473,1.916-3.688,4.416-3.834c0.924-0.072,2.33-0.119,3.252-0.191v-0.293
			c0-1.357-0.438-2.062-2.209-2.062c-1.164,0-2.668,0.242-3.785,0.607c-0.17-0.729-0.363-1.455-0.559-2.162
			c1.408-0.604,3.471-0.992,5.17-0.992c2.863,0,4.684,1.068,4.684,4.148V1070.664z M201.015,1067.822
			c-1.141,0.1-1.674,0.682-1.674,1.629c0,0.994,0.484,1.527,1.625,1.527c0.729,0,1.674-0.389,2.451-1.066v-2.281L201.015,1067.822z"
			/>
		<path fill="#2E2119" d="M218.146,1072.969v-7.377c0-1.238-0.194-2.135-1.699-2.135c-0.801,0-1.917,0.412-2.718,0.896v8.615h-3.494
			v-11.914h3.299l0.049,1.092l0.098,0.049c1.383-0.924,3.057-1.434,4.198-1.434c3.155,0,3.737,1.869,3.737,4.102v8.105H218.146z"/>
		<path fill="#2E2119" d="M230.01,1070.518c1.115,0,2.136-0.242,3.204-0.605l0.654,2.305c-1.189,0.605-2.862,0.947-4.488,0.947
			c-4.562,0-5.752-2.719-5.752-6.02c0-2.814,1.067-6.355,5.896-6.355c1.02,0,2.354,0.094,3.714,0.582
			c-0.171,0.799-0.34,1.6-0.534,2.426c-1.02-0.293-1.893-0.34-2.596-0.34c-1.942,0-2.961,1.334-2.961,3.541
			C227.147,1069.184,227.851,1070.518,230.01,1070.518"/>
		<path fill="#2E2119" d="M246.368,1066.562v1.238h-7.788c0,1.82,0.849,2.789,2.984,2.789c1.285,0,2.597-0.291,3.833-0.752
			l0.705,2.137c-1.578,0.873-3.398,1.189-5.049,1.189c-4.803,0-5.969-2.865-5.969-6.141c0-2.621,1.117-6.283,5.824-6.283
			C246.028,1060.74,246.368,1064.428,246.368,1066.562 M238.628,1065.666h4.587c-0.024-1.578-0.511-2.719-2.161-2.719
			C239.332,1062.947,238.749,1064.232,238.628,1065.666"/>
		<rect x="105.343" y="1083.387" fill="#2E2119" width="3.541" height="16.697"/>
		<path fill="#2E2119" d="M119.95,1100.084v-7.379c0-1.238-0.195-2.135-1.699-2.135c-0.801,0-1.917,0.412-2.718,0.896v8.617h-3.495
			v-11.916h3.301l0.049,1.092l0.097,0.051c1.383-0.924,3.058-1.434,4.198-1.434c3.154,0,3.738,1.867,3.738,4.1v8.107H119.95z"/>
		<path fill="#2E2119" d="M133.925,1088.631v-5.898h3.471v17.352h-3.228l-0.072-1.068c-0.024-0.023-0.047-0.049-0.072-0.049
			c-1.164,0.945-2.645,1.285-3.664,1.285c-3.714,0-4.732-2.717-4.732-5.871c0-3.689,1.358-6.504,5.144-6.504
			C131.548,1087.877,132.931,1088.045,133.925,1088.631 M133.925,1091.055c-0.559-0.338-1.625-0.654-2.402-0.654
			c-1.188,0-2.402,0.703-2.402,3.955c0,2.816,1.043,3.471,2.354,3.471c0.704,0,1.893-0.484,2.451-0.896V1091.055z"/>
		<path fill="#2E2119" d="M150.497,1093.676v1.238h-7.79c0,1.82,0.852,2.791,2.985,2.791c1.287,0,2.597-0.291,3.835-0.754
			l0.703,2.137c-1.577,0.873-3.398,1.189-5.049,1.189c-4.804,0-5.968-2.863-5.968-6.139c0-2.623,1.115-6.285,5.824-6.285
			C150.157,1087.854,150.497,1091.541,150.497,1093.676 M142.756,1092.779h4.587c-0.023-1.578-0.51-2.719-2.161-2.719
			C143.46,1090.061,142.878,1091.346,142.756,1092.779"/>
		<polygon fill="#2E2119" points="157.8,1095.664 155.275,1100.084 151.563,1100.084 155.664,1093.871 151.879,1088.168 
			155.688,1088.168 157.849,1092.195 160.032,1088.168 163.745,1088.168 159.886,1093.846 163.939,1100.084 160.153,1100.084 		"/>
		<path fill="#F4C61B" d="M75.18,1092.689c-1.936,0-3.503-1.566-3.503-3.5c0-1.936,1.567-3.504,3.503-3.504
			c1.933,0,3.503,1.568,3.503,3.504C78.683,1091.123,77.112,1092.689,75.18,1092.689"/>
		<path fill="#F4C61B" d="M78.455,1083.67c-1.356,0-2.456-1.1-2.456-2.457s1.1-2.455,2.456-2.455c1.356,0,2.454,1.098,2.454,2.455
			S79.812,1083.67,78.455,1083.67"/>
		<path fill="#F4C61B" d="M80.911,1076.922c-0.933,0-1.689-0.756-1.689-1.688c0-0.934,0.757-1.689,1.689-1.689
			c0.934,0,1.688,0.756,1.688,1.689C82.6,1076.166,81.845,1076.922,80.911,1076.922"/>
		<path fill="#F4C61B" d="M82.549,1072.467c-0.673,0-1.22-0.545-1.22-1.221c0-0.674,0.547-1.219,1.22-1.219
			c0.673,0,1.22,0.545,1.22,1.219C83.769,1071.922,83.222,1072.467,82.549,1072.467"/>
		<path fill="#7E90C8" d="M60.634,1078.176c-1.935,0-3.502-1.57-3.502-3.504c0-1.932,1.567-3.498,3.502-3.498
			c1.934,0,3.502,1.566,3.502,3.498C64.136,1076.605,62.567,1078.176,60.634,1078.176"/>
		<path fill="#7E90C8" d="M68.577,1073.781c-1.355,0-2.451-1.1-2.451-2.455c0-1.352,1.096-2.451,2.451-2.451
			c1.354,0,2.453,1.1,2.453,2.451C71.03,1072.682,69.932,1073.781,68.577,1073.781"/>
		<path fill="#7E90C8" d="M74.536,1070.5c-0.932,0-1.684-0.752-1.684-1.682s0.752-1.686,1.684-1.686c0.93,0,1.684,0.756,1.684,1.686
			S75.466,1070.5,74.536,1070.5"/>
		<path fill="#7E90C8" d="M78.507,1068.355c-0.668,0-1.211-0.541-1.211-1.211s0.543-1.213,1.211-1.213
			c0.672,0,1.214,0.543,1.214,1.213S79.179,1068.355,78.507,1068.355"/>
		<path fill="#0F9ACC" d="M60.607,1057.629c-1.933,0-3.501-1.566-3.501-3.504c0-1.932,1.568-3.498,3.501-3.498
			c1.935,0,3.503,1.566,3.503,3.498C64.11,1056.062,62.542,1057.629,60.607,1057.629"/>
		<path fill="#0F9ACC" d="M68.592,1059.824c-1.351,0-2.448-1.094-2.448-2.447c0-1.352,1.098-2.449,2.448-2.449
			c1.352,0,2.448,1.098,2.448,2.449C71.04,1058.73,69.943,1059.824,68.592,1059.824"/>
		<path fill="#0F9ACC" d="M74.579,1061.49c-0.924,0-1.676-0.75-1.676-1.676c0-0.928,0.752-1.678,1.676-1.678
			c0.928,0,1.678,0.75,1.678,1.678C76.257,1060.74,75.507,1061.49,74.579,1061.49"/>
		<path fill="#0F9ACC" d="M78.573,1062.643c-0.666,0-1.205-0.541-1.205-1.205c0-0.662,0.539-1.203,1.205-1.203
			c0.664,0,1.203,0.541,1.203,1.203C79.776,1062.102,79.237,1062.643,78.573,1062.643"/>
		<path fill="#3FBBA3" d="M75.12,1043.084c-1.934,0-3.504-1.57-3.504-3.504c0-1.936,1.57-3.502,3.504-3.502
			c1.933,0,3.502,1.566,3.502,3.502C78.622,1041.514,77.053,1043.084,75.12,1043.084"/>
		<path fill="#3FBBA3" d="M78.444,1049.977c-1.35,0-2.444-1.092-2.444-2.443c0-1.35,1.095-2.445,2.444-2.445
			c1.35,0,2.445,1.096,2.445,2.445C80.89,1048.885,79.794,1049.977,78.444,1049.977"/>
		<path fill="#3FBBA3" d="M80.938,1055.17c-0.924,0-1.674-0.748-1.674-1.672s0.75-1.672,1.674-1.672c0.922,0,1.67,0.748,1.67,1.672
			S81.86,1055.17,80.938,1055.17"/>
		<path fill="#3FBBA3" d="M82.6,1058.672c-0.661,0-1.196-0.535-1.196-1.195s0.535-1.197,1.196-1.197
			c0.661,0,1.196,0.537,1.196,1.197S83.261,1058.672,82.6,1058.672"/>
		<path fill="#F89624" d="M85.499,1112.383c-2.389,0-4.326-1.936-4.326-4.326c0-2.389,1.938-4.324,4.326-4.324
			c2.389,0,4.326,1.936,4.326,4.324C89.825,1110.447,87.888,1112.383,85.499,1112.383"/>
		<path fill="#F89624" d="M85.465,1100.061c-1.833,0-3.318-1.486-3.318-3.318c0-1.83,1.485-3.318,3.318-3.318
			c1.833,0,3.317,1.488,3.317,3.318C88.782,1098.574,87.298,1100.061,85.465,1100.061"/>
		<path fill="#F89624" d="M85.438,1090.676c-1.408,0-2.551-1.145-2.551-2.553c0-1.406,1.143-2.551,2.551-2.551
			s2.551,1.145,2.551,2.551C87.989,1089.531,86.847,1090.676,85.438,1090.676"/>
		<path fill="#F89624" d="M85.414,1081.924c-1.041,0-1.882-0.844-1.882-1.881c0-1.039,0.841-1.885,1.882-1.885
			c1.038,0,1.882,0.846,1.882,1.885C87.296,1081.08,86.452,1081.924,85.414,1081.924"/>
		<path fill="#F36F2D" d="M54.646,1099.645c-2.39,0-4.325-1.938-4.325-4.326c0-2.391,1.936-4.326,4.325-4.326
			c2.39,0,4.325,1.936,4.325,4.326C58.972,1097.707,57.036,1099.645,54.646,1099.645"/>
		<path fill="#F36F2D" d="M62.588,1090.574c-1.831,0-3.315-1.482-3.315-3.316c0-1.83,1.484-3.312,3.315-3.312
			c1.83,0,3.313,1.482,3.313,3.312C65.901,1089.092,64.418,1090.574,62.588,1090.574"/>
		<path fill="#F36F2D" d="M68.638,1083.664c-1.406,0-2.545-1.137-2.545-2.545c0-1.406,1.139-2.545,2.545-2.545
			c1.405,0,2.545,1.139,2.545,2.545C71.183,1082.527,70.043,1083.664,68.638,1083.664"/>
		<path fill="#F36F2D" d="M74.311,1077.236c-1.036,0-1.876-0.836-1.876-1.873c0-1.035,0.84-1.875,1.876-1.875
			c1.036,0,1.876,0.84,1.876,1.875C76.187,1076.4,75.347,1077.236,74.311,1077.236"/>
		<path fill="#3676BA" d="M41.835,1068.822c-2.39,0-4.326-1.938-4.326-4.328c0-2.387,1.937-4.326,4.326-4.326
			c2.389,0,4.325,1.939,4.325,4.326C46.16,1066.885,44.224,1068.822,41.835,1068.822"/>
		<path fill="#3676BA" d="M53.147,1067.717c-1.828,0-3.31-1.482-3.31-3.311s1.481-3.311,3.31-3.311c1.828,0,3.31,1.482,3.31,3.311
			S54.976,1067.717,53.147,1067.717"/>
		<path fill="#3676BA" d="M61.768,1066.873c-1.4,0-2.536-1.137-2.536-2.533c0-1.402,1.136-2.537,2.536-2.537
			c1.4,0,2.534,1.135,2.534,2.537C64.302,1065.736,63.168,1066.873,61.768,1066.873"/>
		<path fill="#3676BA" d="M69.849,1066.137c-1.029,0-1.863-0.832-1.863-1.863c0-1.027,0.834-1.863,1.863-1.863
			c1.029,0,1.862,0.836,1.862,1.863C71.711,1065.305,70.878,1066.137,69.849,1066.137"/>
		<path fill="#068D8C" d="M54.573,1037.971c-2.389,0-4.326-1.939-4.326-4.326c0-2.391,1.938-4.328,4.326-4.328
			c2.389,0,4.326,1.938,4.326,4.328C58.899,1036.031,56.962,1037.971,54.573,1037.971"/>
		<path fill="#068D8C" d="M62.608,1044.912c-1.825,0-3.305-1.479-3.305-3.305c0-1.824,1.479-3.305,3.305-3.305
			c1.826,0,3.307,1.48,3.307,3.305C65.915,1043.434,64.435,1044.912,62.608,1044.912"/>
		<path fill="#068D8C" d="M68.731,1050.205c-1.396,0-2.527-1.131-2.527-2.527s1.132-2.529,2.527-2.529
			c1.396,0,2.527,1.133,2.527,2.529S70.128,1050.205,68.731,1050.205"/>
		<path fill="#068D8C" d="M74.471,1055.219c-1.023,0-1.853-0.83-1.853-1.852c0-1.025,0.83-1.854,1.853-1.854
			c1.023,0,1.852,0.828,1.852,1.854C76.323,1054.389,75.494,1055.219,74.471,1055.219"/>
		<path fill="#2CB35F" d="M85.396,1025.158c-2.391,0-4.326-1.935-4.326-4.326c0-2.387,1.936-4.326,4.326-4.326
			c2.39,0,4.325,1.939,4.325,4.326C89.721,1023.223,87.785,1025.158,85.396,1025.158"/>
		<path fill="#2CB35F" d="M85.383,1035.449c-1.825,0-3.305-1.479-3.305-3.303s1.479-3.305,3.305-3.305
			c1.825,0,3.304,1.48,3.304,3.305S87.208,1035.449,85.383,1035.449"/>
		<path fill="#2CB35F" d="M85.372,1043.291c-1.395,0-2.524-1.129-2.524-2.523s1.13-2.527,2.524-2.527
			c1.396,0,2.526,1.133,2.526,2.527S86.768,1043.291,85.372,1043.291"/>
		<path fill="#2CB35F" d="M85.364,1050.699c-1.024,0-1.852-0.83-1.852-1.852s0.828-1.852,1.852-1.852c1.021,0,1.85,0.83,1.85,1.852
			S86.386,1050.699,85.364,1050.699"/>
	</g>
	<rect x="72.435" y="40.995" fill="none" width="1054.142" height="38.606"/>
	<text transform="matrix(1 0 0 1 69.4346 75.5068)"><tspan x="0" y="0" fill="#FFFFFF" font-family="'Helvetica-Bold'" font-size="48">O3:</tspan><tspan x="80.016" y="0" fill="#7E90C8" font-family="'Helvetica-Bold'" font-size="48"> </tspan><tspan x="93.352" y="0" fill="#D1DE58" font-family="'Helvetica-Bold'" font-size="48">HEALTH RISKS</tspan></text>
	<rect x="73.035" y="92.466" fill="none" width="863.957" height="65.132"/>
	<text transform="matrix(1 0 0 1 73.0352 106.8457)"><tspan x="0" y="0" fill="#FFFFFF" font-family="'Helvetica'" font-size="20">MONITORING OF MERCURY SUGGESTS... Lorem ipsum dolor sit amet, </tspan><tspan x="0" y="24" fill="#FFFFFF" font-family="'Helvetica'" font-size="20">consectetur adipiscing elit. Donec at purus ut tortor facilisis tincidunt. </tspan><tspan x="0" y="48" fill="#FFFFFF" font-family="'Helvetica'" font-size="20">Pellentesque in aliquam elit. </tspan></text>
	<g>
		<polygon fill="#D1D3D4" points="1259.635,666.69 1259.635,814.504 1315.659,814.504 1303.839,795.602 1308.904,795.602 
			1297.433,777.383 1302.831,777.383 1291.698,759.155 1296.756,759.155 1285.279,740.928 1291.36,740.928 1278.871,722.032 
			1284.604,722.032 1272.791,703.81 1279.205,703.81 1267.396,685.586 1273.13,685.586 		"/>
		<polygon fill="#FFFFFF" points="1259.635,666.69 1259.635,814.504 1203.612,814.504 1215.424,795.602 1210.363,795.602 
			1221.838,777.383 1216.433,777.383 1227.573,759.155 1222.513,759.155 1233.987,740.928 1227.913,740.928 1240.4,722.032 
			1234.66,722.032 1246.471,703.81 1240.058,703.81 1251.874,685.586 1246.13,685.586 		"/>
	</g>
	<g>
		<polygon fill="#D1D3D4" points="1298.832,607.669 1298.832,815.892 1377.753,815.892 1361.102,789.265 1368.237,789.265 
			1352.078,763.6 1359.682,763.6 1343.999,737.923 1351.124,737.923 1334.956,712.246 1343.523,712.246 1325.93,685.629 
			1334.007,685.629 1317.365,659.96 1326.4,659.96 1309.766,634.287 1317.841,634.287 		"/>
		<polygon fill="#FFFFFF" points="1298.832,607.669 1298.832,815.892 1219.914,815.892 1236.553,789.265 1229.424,789.265 
			1245.589,763.6 1237.974,763.6 1253.668,737.923 1246.539,737.923 1262.703,712.246 1254.146,712.246 1271.737,685.629 
			1263.651,685.629 1280.288,659.96 1271.254,659.96 1287.899,634.287 1279.808,634.287 		"/>
	</g>
	<g>
		<polygon fill="#D1D3D4" points="1387.651,666.69 1387.651,814.504 1443.677,814.504 1431.855,795.602 1436.922,795.602 
			1425.45,777.383 1430.848,777.383 1419.715,759.155 1424.773,759.155 1413.296,740.928 1419.378,740.928 1406.888,722.032 
			1412.622,722.032 1400.809,703.81 1407.223,703.81 1395.414,685.586 1401.146,685.586 		"/>
		<polygon fill="#FFFFFF" points="1387.651,666.69 1387.651,814.504 1331.629,814.504 1343.441,795.602 1338.381,795.602 
			1349.855,777.383 1344.45,777.383 1355.591,759.155 1350.529,759.155 1362.005,740.928 1355.93,740.928 1368.418,722.032 
			1362.678,722.032 1374.487,703.81 1368.074,703.81 1379.892,685.586 1374.146,685.586 		"/>
	</g>
	<g>
		<polygon fill="#D1D3D4" points="1449.776,685.517 1449.776,833.33 1505.802,833.33 1493.98,814.429 1499.047,814.429 
			1487.575,796.209 1492.974,796.209 1481.84,777.982 1486.898,777.982 1475.421,759.754 1481.503,759.754 1469.013,740.858 
			1474.747,740.858 1462.934,722.637 1469.348,722.637 1457.539,704.412 1463.271,704.412 		"/>
		<polygon fill="#FFFFFF" points="1449.776,685.517 1449.776,833.33 1393.754,833.33 1405.566,814.429 1400.506,814.429 
			1411.98,796.209 1406.575,796.209 1417.716,777.982 1412.654,777.982 1424.13,759.754 1418.056,759.754 1430.543,740.858 
			1424.803,740.858 1436.612,722.637 1430.199,722.637 1442.017,704.412 1436.271,704.412 		"/>
	</g>
	<g>
		<polygon fill="#D1D3D4" points="1444.893,578.208 1444.893,823.347 1537.805,823.347 1518.201,792 1526.604,792 1507.578,761.784 
			1516.53,761.784 1498.066,731.556 1506.456,731.556 1487.421,701.326 1497.507,701.326 1476.794,669.989 1486.303,669.989 
			1466.711,639.771 1477.35,639.771 1457.765,609.545 1467.272,609.545 		"/>
		<polygon fill="#FFFFFF" points="1444.893,578.208 1444.893,823.347 1351.982,823.347 1371.572,792 1363.179,792 1382.209,761.784 
			1373.244,761.784 1391.721,731.556 1383.327,731.556 1402.357,701.326 1392.283,701.326 1412.993,669.989 1403.475,669.989 
			1423.06,639.771 1412.425,639.771 1432.022,609.545 1422.495,609.545 		"/>
	</g>
	<path fill="#FFFFFF" d="M414.761,984c351.436-27.613,619.434-203.331,1184.842-203.331V984H414.761z"/>
	<g>
		<polygon fill="#D1D3D4" points="1539.525,461.485 1539.525,793.881 1665.511,793.881 1638.929,751.376 1650.322,751.376 
			1624.524,710.404 1636.664,710.404 1611.627,669.417 1623.003,669.417 1597.193,628.427 1610.869,628.427 1582.782,585.936 
			1595.677,585.936 1569.111,544.961 1583.536,544.961 1556.98,503.977 1569.872,503.977 		"/>
		<polygon fill="#FFFFFF" points="1539.525,461.485 1539.525,793.881 1413.545,793.881 1440.108,751.376 1428.728,751.376 
			1454.531,710.404 1442.376,710.404 1467.428,669.417 1456.048,669.417 1481.852,628.427 1468.191,628.427 1496.273,585.936 
			1483.365,585.936 1509.923,544.961 1495.501,544.961 1522.075,503.977 1509.156,503.977 		"/>
	</g>
	<path fill="none" stroke="#FFFFFF" stroke-width="2" stroke-miterlimit="10" d="M1206.261,385.068
		c49.907-17.406,101.223-31.806,153.729-42.991v42.991"/>
	<g>
		<g>
			<path fill="none" stroke="#FFFFFF" stroke-width="5" stroke-miterlimit="10" d="M1295.238,376.046
				c13.478-3.917,27.227-7.183,41.208-9.764"/>
			<g>
				<polygon fill="#FFFFFF" points="1299.5,382.605 1284.94,379.181 1295.185,368.282 				"/>
			</g>
		</g>
	</g>
	<g>
		<g>
			<path fill="#FFFFFF" d="M1375.674,356.386h1.963v5.928h7.373v-5.928h1.963v14.346h-1.963v-6.709h-7.373v6.709h-1.963V356.386z"/>
			<path fill="#FFFFFF" d="M1390.254,356.386h10.41v1.758h-8.516v4.355h7.871v1.66h-7.871v4.863h8.662v1.709h-10.557V356.386z"/>
			<path fill="#FFFFFF" d="M1407.595,356.386h2.193l5.207,14.346h-2.129l-1.498-4.297h-5.628l-1.556,4.297h-1.992L1407.595,356.386z
				 M1410.817,364.853l-2.209-6.338l-2.295,6.338H1410.817z"/>
			<path fill="#FFFFFF" d="M1416.748,356.386h1.943v12.637h7.197v1.709h-9.141V356.386z"/>
			<path fill="#FFFFFF" d="M1436.826,356.386v1.709h-4.834v12.637h-1.963v-12.637h-4.834v-1.709H1436.826z"/>
			<path fill="#FFFFFF" d="M1438.662,356.386h1.963v5.928h7.373v-5.928h1.963v14.346h-1.963v-6.709h-7.373v6.709h-1.963V356.386z"/>
			<path fill="#FFFFFF" d="M1458.799,356.386h10.41v1.758h-8.516v4.355h7.871v1.66h-7.871v4.863h8.662v1.709h-10.557V356.386z"/>
			<path fill="#FFFFFF" d="M1472.139,356.386h9.951v1.758h-8.008v4.355h7.041v1.709h-7.041v6.523h-1.943V356.386z"/>
			<path fill="#FFFFFF" d="M1484.355,356.386h9.951v1.758h-8.008v4.355h7.041v1.709h-7.041v6.523h-1.943V356.386z"/>
			<path fill="#FFFFFF" d="M1496.572,356.386h10.41v1.758h-8.516v4.355h7.871v1.66h-7.871v4.863h8.662v1.709h-10.557V356.386z"/>
			<path fill="#FFFFFF" d="M1519.873,357.431c0.991,0.957,1.541,2.044,1.65,3.262h-1.895c-0.211-0.924-0.632-1.657-1.261-2.197
				c-0.63-0.54-1.515-0.81-2.652-0.81c-1.388,0-2.508,0.497-3.361,1.49c-0.854,0.994-1.28,2.517-1.28,4.569
				c0,1.681,0.386,3.045,1.156,4.091c0.771,1.045,1.92,1.568,3.448,1.568c1.407,0,2.479-0.55,3.214-1.65
				c0.39-0.58,0.681-1.341,0.873-2.285h1.895c-0.167,1.51-0.721,2.777-1.66,3.799c-1.126,1.23-2.646,1.846-4.557,1.846
				c-1.647,0-3.031-0.505-4.15-1.515c-1.474-1.335-2.211-3.397-2.211-6.186c0-2.117,0.554-3.854,1.66-5.208
				c1.196-1.472,2.848-2.209,4.951-2.209C1517.489,355.995,1518.882,356.474,1519.873,357.431z"/>
			<path fill="#FFFFFF" d="M1534.6,356.386v1.709h-4.834v12.637h-1.963v-12.637h-4.834v-1.709H1534.6z"/>
			<path fill="#FFFFFF" d="M1537.656,366.103c0.044,0.814,0.229,1.475,0.555,1.982c0.621,0.951,1.716,1.426,3.283,1.426
				c0.702,0,1.342-0.104,1.919-0.312c1.116-0.404,1.675-1.126,1.675-2.168c0-0.781-0.236-1.338-0.71-1.67
				c-0.479-0.326-1.229-0.609-2.251-0.85l-1.883-0.439c-1.229-0.287-2.101-0.602-2.611-0.947c-0.883-0.599-1.324-1.494-1.324-2.685
				c0-1.289,0.434-2.347,1.302-3.174c0.868-0.827,2.097-1.24,3.688-1.24c1.464,0,2.707,0.363,3.729,1.089
				c1.023,0.726,1.535,1.886,1.535,3.481h-1.826c-0.094-0.768-0.293-1.357-0.6-1.768c-0.567-0.748-1.532-1.123-2.893-1.123
				c-1.099,0-1.889,0.241-2.369,0.723c-0.48,0.482-0.721,1.042-0.721,1.68c0,0.703,0.284,1.217,0.852,1.543
				c0.372,0.208,1.214,0.469,2.526,0.781l1.949,0.459c0.94,0.221,1.665,0.524,2.176,0.908c0.884,0.67,1.325,1.644,1.325,2.92
				c0,1.588-0.563,2.725-1.69,3.408s-2.437,1.025-3.929,1.025c-1.739,0-3.102-0.456-4.086-1.367
				c-0.984-0.905-1.467-2.132-1.447-3.682H1537.656z"/>
		</g>
	</g>
	<rect x="38.708" y="210" fill="none" width="372" height="76"/>
	<text transform="matrix(1 0 0 1 38.708 224.3799)" fill="#FFFFFF" font-family="'Helvetica'" font-size="20">RESPIRATORY EFFECTS</text>
	<path fill="#3A9E99" d="M1482.733,809.264c0,0,0.767-7.117,0.886-10.721c0.183-5.525,1.991-17.162-0.479-22.108
		c-2.375-4.758-11.464-12.216-16.725-13.178l0.144-8.003l-5.648-8.158l-6.275-4.707l-9.414-4.707l-10.354-0.314l-5.021,0.941
		l-5.648,3.766l-3.451,3.451l-0.629,2.509l-2.093,3.765l1.78,2.198l-0.628,2.51l-1.255,2.824l-1.569,1.883v5.334l-1.882,3.138
		l-2.196,4.079l1.568,2.824l0.417,3.242l1.465,0.628l-0.838,1.255l1.675,4.393l2.928,1.673l6.485,1.673l3.556,5.648l-17.884,5.962
		l-20.71,13.807l-22.592,10.355l-23.534,3.451l-6.589-5.648l-6.59-3.138l-10.354-0.941l-37.341-45.185l-8.785-7.53l-5.648-2.511
		l-7.217-1.568l-4.394-0.942l-3.765,1.569l-6.903,8.158l-8.473,8.472l-6.903,9.727l-6.902,13.179l-13.807,22.592l-11.61,22.278
		l-14.12,16.63l-10.982,8.472l-12.865,5.648l-8.785,1.569h-5.021l-3.451,1.255v2.824l2.824,1.569h3.451h3.452v1.569l-2.196,1.255
		l-3.139,0.313l-1.883,1.883v2.51l3.452,1.883h4.079l22.593,0.627l26.985-0.314l6.275-1.569l1.568-2.196l0.314-4.706l-0.628-8.472
		l-0.628-4.079l1.569-4.08l4.707-5.962l9.727-8.158l16.631-16.63l6.589-4.707l45.499,48.008l7.845,7.531h71.229l4.707-0.313
		l8.472-3.138l6.59-2.51l7.217-2.51l5.334,0.941l9.728,4.393l8.158,3.138h37.34l5.021-1.882l2.511-3.138l-2.824-52.088l-0.628-8.158
		c0,0-0.171-4.481,0-5.962c0.158-1.361,1.098-3.973,1.255-5.334c0.118-1.013,0.391-3.138,0-4.079
		c-0.594-1.434-3.311-3.279-4.393-4.393c-1.354-1.393-5.334-5.647-5.334-5.647l-0.628-5.962l0.941-5.962l2.196-4.393l4.07-6.262
		c3.233,2.141,7.031,4.943,7.796,7.228c1.475,4.396-0.453,13.941,0.102,18.544c0.391,3.235,2.855,7.146,3.652,7.863
		c1.492,1.345,8.957,5.653,8.957,5.653L1482.733,809.264z"/>
</g>
<g id="Layer_4">
	<line fill="none" stroke="#FFFFFF" stroke-width="2" stroke-miterlimit="10" x1="39.125" y1="237.697" x2="471.103" y2="237.697"/>
	<rect x="39.125" y="237.698" fill="#D1DE58" width="431.978" height="95.996"/>
	<rect x="39.125" y="338.252" fill="#D9E37D" width="431.978" height="89.303"/>
	<rect x="39.125" y="432.113" fill="#E2E99C" width="431.978" height="66.303"/>
	<rect x="39.125" y="502.975" fill="#EBF0BC" width="431.978" height="55.303"/>
	<rect x="39.125" y="562.836" fill="#F3F6DC" width="431.978" height="55.303"/>
	<rect x="39.125" y="622.697" fill="#F5F8E2" width="431.978" height="62.819"/>
	
		<line fill="none" stroke="#FFFFFF" stroke-width="2" stroke-miterlimit="10" stroke-dasharray="8" x1="39.125" y1="333.693" x2="589.666" y2="333.693"/>
	
		<line fill="none" stroke="#FFFFFF" stroke-width="2" stroke-miterlimit="10" stroke-dasharray="8" x1="39.125" y1="427.555" x2="589.666" y2="427.555"/>
	
		<line fill="none" stroke="#FFFFFF" stroke-width="2" stroke-miterlimit="10" stroke-dasharray="8" x1="39.125" y1="498.416" x2="589.666" y2="498.416"/>
	
		<line fill="none" stroke="#FFFFFF" stroke-width="2" stroke-miterlimit="10" stroke-dasharray="8" x1="39.125" y1="558.277" x2="589.666" y2="558.277"/>
	
		<line fill="none" stroke="#FFFFFF" stroke-width="2" stroke-miterlimit="10" stroke-dasharray="8" x1="39.125" y1="618.139" x2="589.666" y2="618.139"/>
	
		<line fill="none" stroke="#FFFFFF" stroke-width="2" stroke-miterlimit="10" stroke-dasharray="8" x1="39.125" y1="685.517" x2="589.666" y2="685.517"/>
	<rect x="62.204" y="279.235" fill="none" width="385.404" height="13.53"/>
	<text transform="matrix(1 0 0 1 62.2036 289.3013)" fill="#3A9E99" font-family="'Helvetica'" font-size="14">CONCENTRATIONS USED IN FOOD INDUSTRY</text>
	<rect x="62.204" y="458.5" fill="none" width="385.404" height="13.53"/>
	<text transform="matrix(1 0 0 1 62.2036 468.5659)" fill="#3A9E99" font-family="'Helvetica'" font-size="14">SEVERE SYMPTOMS &amp; SHALLOW BREATHING</text>
	<rect x="62.204" y="348.691" fill="none" width="385.404" height="13.53"/>
	<text transform="matrix(1 0 0 1 284.2427 358.7573)" fill="#3A9E99" font-family="'Helvetica'" font-size="14">SENSOR’S UPPER LIMIT</text>
	<rect x="204.262" y="219.399" fill="none" width="385.404" height="17.9"/>
	<text transform="matrix(1 0 0 1 527.5957 233.7788)" fill="#FFFFFF" font-family="'Helvetica'" font-size="20">0</text>
	<text transform="matrix(0.583 0 0 0.583 538.7188 240.439)" fill="#FFFFFF" font-family="'Helvetica'" font-size="20">3</text>
	<text transform="matrix(1 0 0 1 545.2031 233.7788)" fill="#FFFFFF" font-family="'Helvetica'" font-size="20"> ppm</text>
	<rect x="204.262" y="304.895" fill="none" width="385.404" height="17.9"/>
	<text transform="matrix(1 0 0 1 578.543 319.2744)" fill="#FFFFFF" font-family="'Helvetica'" font-size="20">1</text>
	<rect x="204.262" y="400.89" fill="none" width="385.404" height="17.9"/>
	<text transform="matrix(1 0 0 1 539.6172 415.2695)" fill="#FFFFFF" font-family="'Helvetica'" font-size="20">0.404</text>
	<rect x="204.262" y="472.03" fill="none" width="385.404" height="17.9"/>
	<text transform="matrix(1 0 0 1 539.6172 486.4097)" fill="#FFFFFF" font-family="'Helvetica'" font-size="20">0.115</text>
	<rect x="204.262" y="532.44" fill="none" width="385.404" height="17.9"/>
	<text transform="matrix(1 0 0 1 539.6172 546.8203)" fill="#FFFFFF" font-family="'Helvetica'" font-size="20">0.095</text>
	<rect x="204.262" y="592.252" fill="none" width="385.404" height="17.9"/>
	<text transform="matrix(1 0 0 1 539.6172 606.6318)" fill="#FFFFFF" font-family="'Helvetica'" font-size="20">0.075</text>
	<rect x="204.262" y="662.815" fill="none" width="385.404" height="17.9"/>
	<text transform="matrix(1 0 0 1 550.7402 677.1948)" fill="#FFFFFF" font-family="'Helvetica'" font-size="20">0.01</text>
	<rect x="62.204" y="665" fill="none" width="385.404" height="13.53"/>
	<text transform="matrix(1 0 0 1 281.1392 675.0659)" fill="#3A9E99" font-family="'Helvetica'" font-size="14">SENSOR’S LOWER LIMIT</text>
	<rect x="62.204" y="523.861" fill="none" width="385.404" height="13.53"/>
	<text transform="matrix(1 0 0 1 62.2036 533.9268)" fill="#3A9E99" font-family="'Helvetica'" font-size="14">COUGH &amp; CHEST PAIN, REDUCED LUNG FUNCTION</text>
	<rect x="62.204" y="583.722" fill="none" width="385.404" height="13.53"/>
	<text transform="matrix(1 0 0 1 62.2036 593.7881)" fill="#3A9E99" font-family="'Helvetica'" font-size="14">COUGH &amp; CHEST PAIN</text>
	<polygon fill="#FFFFFF" points="465.219,716.555 446.109,697.445 427,716.555 	"/>
	<polygon fill="#D1DE58" points="56.596,41.189 37.487,60.298 56.596,79.408 	"/>
</g>
<g id="Layer_5">
</g>
<g id="Layer_6">
</g>
<g id="Layer_7">
</g>
</svg>
