<?xml version="1.0" encoding="utf-8"?>
<!-- Generator: Adobe Illustrator 18.0.0, SVG Export Plug-In . SVG Version: 6.00 Build 0)  -->
<!DOCTYPE svg PUBLIC "-//W3C//DTD SVG 1.1//EN" "http://www.w3.org/Graphics/SVG/1.1/DTD/svg11.dtd">
<svg version="1.1" xmlns="http://www.w3.org/2000/svg" xmlns:xlink="http://www.w3.org/1999/xlink" x="0px" y="0px"
	 viewBox="0 0 1600 1150" enable-background="new 0 0 1600 1150" xml:space="preserve">
<g id="Layer_1">
</g>
<g id="Layer_2">
</g>
<g id="Layer_3">
</g>
<g id="Layer_4">
</g>
<g id="Layer_5">
	<rect x="-414" y="20" fill="#47BCB6" width="1600.229" height="1147.277"/>
	<path fill="#3A9E99" d="M1290.338,1140.004c0,0-22.139-37.545-33.629-46.002c-25.913-19.079-94.723-24.576-121.902-41.822
		c-35.734-22.672-117.699-121.386-117.699-121.386s-158.11-94.479-222.789-101.331c-29.653-3.144-86.028,26.941-115.596,23.383
		c-11.222-1.35-26.527-17.834-37.834-18.707c-33.77-2.609-92.986,31.858-126.105,37.414c-31.841,5.343-97.667,6.518-130.31,6.236
		c-30.061-0.256-89.749-8.42-119.801-7.794c-40.336,0.841-123.29,4.306-159.736,17.147c-23.849,8.404-51.42,51.709-77.766,53.005
		c-38.399,1.89-89.774-56.067-126.106-65.478c-24.352-6.307-79.375,3.029-102.988-4.675c-19.387-6.329-39.77-43.505-60.951-43.651
		c-30.857-0.214-64.312,50.105-90.377,62.359c-14.338,6.739-46.153,17.49-63.051,18.707c-19.696,1.418-59.079-6.092-77.768-10.915
		c-11.764-3.033-31.721-17.89-44.134-17.147c-10.476,0.626-25.163,14.093-33.63,18.706c-13.043,7.111-37.582,23.482-52.544,28.064
		c-18.446,5.644-78.816,9.354-78.816,9.354c-32.122-19.854-108.475,38.425-137.666,62.339
		c-20.937,17.151-46.645,66.341-63.055,87.823c-10.625,13.914-44.136,54.369-44.136,54.369h269.028c0,0,0.046-0.418,0.128-1.209
		H967.122l-0.289,1.209H1290.338z"/>
	<rect x="1.592" y="984.238" fill="#FFFFFF" width="1600" height="165.762"/>
	<text transform="matrix(1 0 0 1 341.2988 1046.0869)"><tspan x="0" y="0" fill="#010101" font-family="'Helvetica'" font-size="18">Re</tspan><tspan x="23.01" y="0" fill="#010101" font-family="'Helvetica'" font-size="18">f</tspan><tspan x="27.849" y="0" fill="#010101" font-family="'Helvetica'" font-size="18">erences</tspan></text>
	<g>
		<polygon fill="#2E2119" points="105.124,1045.854 105.124,1029.158 116.626,1029.158 116.626,1031.684 108.737,1031.684 
			108.737,1035.93 115.362,1035.93 115.362,1038.309 108.737,1038.309 108.737,1043.307 116.966,1043.307 116.966,1045.854 		"/>
		<path fill="#2E2119" d="M127.189,1045.854v-7.375c0-1.24-0.194-2.137-1.698-2.137c-0.801,0-1.917,0.414-2.718,0.896v8.615h-3.495
			v-11.914h3.301l0.049,1.09l0.097,0.051c1.382-0.924,3.058-1.432,4.198-1.432c3.154,0,3.736,1.869,3.736,4.102v8.104H127.189z"/>
		<path fill="#2E2119" d="M138.554,1043.549c0.121-0.314,0.776-3.082,1.164-4.32c0.535-1.553,1.53-4.949,1.651-5.289h3.494
			c-0.874,2.451-3.227,9.486-4.101,11.914h-4.732c-0.85-2.428-3.229-9.463-4.078-11.914h3.642l1.722,5.531
			c0.268,0.85,0.826,3.252,1.117,4.078H138.554z"/>
		<path fill="#2E2119" d="M148.405,1032.482c-1.287,0-1.99-0.824-1.99-1.842c0-1.068,0.729-1.871,1.99-1.871
			c1.335,0,2.062,0.803,2.062,1.871C150.467,1031.658,149.74,1032.482,148.405,1032.482 M146.682,1033.939h3.47v11.914h-3.47
			V1033.939z"/>
		<path fill="#2E2119" d="M156.674,1036.051c1.31-1.287,3.203-2.428,4.538-2.428c0.486,0,0.678,0.293,0.678,0.803
			c0,0.896-0.581,2.717-1.09,3.422l-4.053-0.049v8.055h-3.471v-11.914h3.422c0,0.557-0.072,1.48-0.145,2.039L156.674,1036.051z"/>
		<path fill="#2E2119" d="M168.685,1046.098c-4.416,0-5.945-2.766-5.945-6.188c0-3.35,1.699-6.238,6.092-6.238
			c4.439,0,5.969,2.889,5.969,6.213S173.224,1046.098,168.685,1046.098 M168.831,1036.123c-1.99,0-2.525,1.916-2.525,3.787
			c0,2.109,0.412,3.736,2.525,3.736c1.965,0,2.378-1.773,2.378-3.736C171.209,1038.016,170.82,1036.123,168.831,1036.123"/>
		<path fill="#2E2119" d="M184.675,1045.854v-7.375c0-1.24-0.195-2.137-1.699-2.137c-0.801,0-1.918,0.414-2.719,0.896v8.615h-3.494
			v-11.914h3.3l0.049,1.09l0.097,0.051c1.383-0.924,3.059-1.432,4.199-1.432c3.154,0,3.736,1.869,3.736,4.102v8.104H184.675z"/>
		<path fill="#2E2119" d="M205.663,1045.854v-7.545c0-1.312-0.34-1.943-1.578-1.943c-0.752,0-1.867,0.365-2.547,0.826
			c0.072,0.51,0.098,1.117,0.098,1.553v7.109h-3.424c0-2.598-0.023-5.193-0.023-7.789c0-1.117-0.509-1.674-1.432-1.674
			c-0.801,0-1.795,0.365-2.621,0.871v8.592h-3.47v-11.914h3.253l0.071,1.188l0.097,0.049c1.36-1.02,2.985-1.504,4.125-1.504
			c1.36,0,2.284,0.484,2.889,1.553c1.165-0.896,3.033-1.553,4.296-1.553c3.179,0,3.761,1.967,3.761,4.197v7.984H205.663z"/>
		<path fill="#2E2119" d="M222.451,1039.449v1.236h-7.788c0,1.82,0.85,2.789,2.985,2.789c1.286,0,2.596-0.289,3.833-0.752
			l0.705,2.137c-1.578,0.873-3.398,1.188-5.049,1.188c-4.805,0-5.969-2.861-5.969-6.137c0-2.621,1.117-6.287,5.823-6.287
			C222.112,1033.623,222.451,1037.311,222.451,1039.449 M214.712,1038.549h4.586c-0.023-1.576-0.51-2.717-2.16-2.717
			C215.416,1035.832,214.833,1037.119,214.712,1038.549"/>
		<path fill="#2E2119" d="M232.619,1045.854v-7.375c0-1.24-0.194-2.137-1.699-2.137c-0.801,0-1.917,0.414-2.718,0.896v8.615h-3.494
			v-11.914h3.299l0.049,1.09l0.098,0.051c1.384-0.924,3.057-1.432,4.198-1.432c3.155,0,3.737,1.869,3.737,4.102v8.104H232.619z"/>
		<path fill="#2E2119" d="M242.857,1030.639v3.277h3.471v2.279h-3.471v5.389c0,1.26,0.364,1.842,1.603,1.842
			c0.436,0,1.189-0.119,2.061-0.314l0.436,2.258c-1.018,0.461-2.377,0.678-3.396,0.678c-3.324,0-4.125-1.648-4.125-3.541v-6.311
			h-1.675v-1.893l1.893-0.559c0.171-0.412,0.704-2.449,0.85-2.863L242.857,1030.639z"/>
		<path fill="#2E2119" d="M258.944,1043.549h1.554l0.169,1.939c-0.776,0.365-1.893,0.609-2.911,0.609
			c-1.044,0-1.796-0.244-1.919-1.434c0-0.023-0.022-0.023-0.048-0.049c-1.674,1.459-3.444,1.482-4.124,1.482
			c-2.961,0-3.689-2.086-3.689-3.471c0-2.477,1.918-3.689,4.418-3.834c0.921-0.072,2.329-0.121,3.25-0.195v-0.289
			c0-1.361-0.437-2.062-2.207-2.062c-1.165,0-2.67,0.24-3.785,0.604c-0.171-0.727-0.365-1.455-0.559-2.156
			c1.406-0.609,3.469-0.996,5.168-0.996c2.863,0,4.684,1.066,4.684,4.15V1043.549z M253.241,1040.709
			c-1.141,0.098-1.674,0.68-1.674,1.625c0,0.998,0.484,1.531,1.627,1.531c0.728,0,1.674-0.391,2.449-1.068v-2.283L253.241,1040.709z
			"/>
		<polygon fill="#2E2119" points="265.883,1045.854 262.436,1045.854 262.436,1028.479 265.907,1028.479 		"/>
		<path fill="#2E2119" d="M111.749,1066.562h-3.034l0.025,6.406h-3.616v-16.695h6.333c3.811,0,5.727,1.99,5.727,5.121
			C117.184,1063.797,115.681,1066.562,111.749,1066.562 M108.715,1058.797v5.316h2.353c1.287,0,2.476-0.68,2.476-2.645
			c0-1.896-1.116-2.672-2.596-2.672H108.715z"/>
		<path fill="#2E2119" d="M129.436,1066.562v1.238h-7.788c0,1.82,0.85,2.789,2.985,2.789c1.285,0,2.597-0.291,3.833-0.752
			l0.703,2.137c-1.578,0.873-3.396,1.189-5.047,1.189c-4.805,0-5.969-2.865-5.969-6.141c0-2.621,1.115-6.283,5.823-6.283
			C129.097,1060.74,129.436,1064.428,129.436,1066.562 M121.696,1065.666h4.586c-0.024-1.578-0.51-2.719-2.16-2.719
			C122.399,1062.947,121.816,1064.232,121.696,1065.666"/>
		<path fill="#2E2119" d="M135.089,1063.164c1.311-1.283,3.203-2.424,4.538-2.424c0.485,0,0.681,0.289,0.681,0.799
			c0,0.896-0.584,2.717-1.094,3.422l-4.051-0.049v8.057h-3.472v-11.914h3.423c0,0.557-0.073,1.479-0.146,2.037L135.089,1063.164z"/>
		<path fill="#2E2119" d="M143.313,1063.311h-1.675v-1.893l1.7-0.486v-1.479c0-2.281,0.994-4.078,4.512-4.078
			c0.826,0,2.16,0.098,3.277,0.412l-0.412,2.354c-0.68-0.145-1.555-0.217-2.063-0.217c-1.237,0-1.942,0.412-1.942,1.578v1.527h3.424
			v2.281h-3.424c0,1.043-0.024,8.615-0.024,9.658h-3.373V1063.311z"/>
		<path fill="#2E2119" d="M157.096,1073.211c-4.416,0-5.945-2.766-5.945-6.188c0-3.35,1.698-6.234,6.091-6.234
			c4.44,0,5.969,2.885,5.969,6.209C163.21,1070.324,161.633,1073.211,157.096,1073.211 M157.241,1063.238
			c-1.99,0-2.523,1.918-2.523,3.785c0,2.111,0.412,3.736,2.523,3.736c1.966,0,2.379-1.77,2.379-3.736
			C159.62,1065.131,159.231,1063.238,157.241,1063.238"/>
		<path fill="#2E2119" d="M168.62,1063.164c1.311-1.283,3.204-2.424,4.539-2.424c0.486,0,0.678,0.289,0.678,0.799
			c0,0.896-0.582,2.717-1.09,3.422l-4.054-0.049v8.057h-3.47v-11.914h3.422c0,0.557-0.072,1.479-0.145,2.037L168.62,1063.164z"/>
		<path fill="#2E2119" d="M190.341,1072.969v-7.547c0-1.309-0.34-1.939-1.578-1.939c-0.752,0-1.867,0.363-2.547,0.822
			c0.072,0.51,0.098,1.117,0.098,1.553v7.111h-3.424c0-2.598-0.023-5.193-0.023-7.791c0-1.113-0.509-1.674-1.432-1.674
			c-0.801,0-1.795,0.365-2.62,0.875v8.59h-3.47v-11.914h3.25l0.073,1.189l0.097,0.049c1.36-1.021,2.985-1.504,4.125-1.504
			c1.36,0,2.283,0.482,2.889,1.553c1.165-0.9,3.033-1.553,4.296-1.553c3.179,0,3.761,1.965,3.761,4.197v7.982H190.341z"/>
		<path fill="#2E2119" d="M206.718,1070.664h1.553l0.17,1.941c-0.775,0.363-1.893,0.605-2.912,0.605
			c-1.045,0-1.797-0.242-1.917-1.432c0-0.021-0.024-0.021-0.049-0.047c-1.675,1.455-3.446,1.479-4.125,1.479
			c-2.961,0-3.689-2.086-3.689-3.471c0-2.473,1.916-3.688,4.416-3.834c0.924-0.072,2.33-0.119,3.252-0.191v-0.293
			c0-1.357-0.438-2.062-2.209-2.062c-1.164,0-2.668,0.242-3.785,0.607c-0.17-0.729-0.363-1.455-0.559-2.162
			c1.408-0.604,3.471-0.992,5.17-0.992c2.863,0,4.684,1.068,4.684,4.148V1070.664z M201.015,1067.822
			c-1.141,0.1-1.674,0.682-1.674,1.629c0,0.994,0.484,1.527,1.625,1.527c0.729,0,1.674-0.389,2.451-1.066v-2.281L201.015,1067.822z"
			/>
		<path fill="#2E2119" d="M218.146,1072.969v-7.377c0-1.238-0.194-2.135-1.699-2.135c-0.801,0-1.917,0.412-2.718,0.896v8.615h-3.494
			v-11.914h3.299l0.049,1.092l0.098,0.049c1.383-0.924,3.057-1.434,4.198-1.434c3.155,0,3.737,1.869,3.737,4.102v8.105H218.146z"/>
		<path fill="#2E2119" d="M230.01,1070.518c1.115,0,2.136-0.242,3.204-0.605l0.654,2.305c-1.189,0.605-2.862,0.947-4.488,0.947
			c-4.562,0-5.752-2.719-5.752-6.02c0-2.814,1.067-6.355,5.896-6.355c1.02,0,2.354,0.094,3.714,0.582
			c-0.171,0.799-0.34,1.6-0.534,2.426c-1.02-0.293-1.893-0.34-2.596-0.34c-1.942,0-2.961,1.334-2.961,3.541
			C227.147,1069.184,227.851,1070.518,230.01,1070.518"/>
		<path fill="#2E2119" d="M246.368,1066.562v1.238h-7.788c0,1.82,0.849,2.789,2.984,2.789c1.285,0,2.597-0.291,3.833-0.752
			l0.705,2.137c-1.578,0.873-3.398,1.189-5.049,1.189c-4.803,0-5.969-2.865-5.969-6.141c0-2.621,1.117-6.283,5.824-6.283
			C246.028,1060.74,246.368,1064.428,246.368,1066.562 M238.628,1065.666h4.587c-0.024-1.578-0.511-2.719-2.161-2.719
			C239.332,1062.947,238.749,1064.232,238.628,1065.666"/>
		<rect x="105.343" y="1083.387" fill="#2E2119" width="3.541" height="16.697"/>
		<path fill="#2E2119" d="M119.95,1100.084v-7.379c0-1.238-0.195-2.135-1.699-2.135c-0.801,0-1.917,0.412-2.718,0.896v8.617h-3.495
			v-11.916h3.301l0.049,1.092l0.097,0.051c1.383-0.924,3.058-1.434,4.198-1.434c3.154,0,3.738,1.867,3.738,4.1v8.107H119.95z"/>
		<path fill="#2E2119" d="M133.925,1088.631v-5.898h3.471v17.352h-3.228l-0.072-1.068c-0.024-0.023-0.047-0.049-0.072-0.049
			c-1.164,0.945-2.645,1.285-3.664,1.285c-3.714,0-4.732-2.717-4.732-5.871c0-3.689,1.358-6.504,5.144-6.504
			C131.548,1087.877,132.931,1088.045,133.925,1088.631 M133.925,1091.055c-0.559-0.338-1.625-0.654-2.402-0.654
			c-1.188,0-2.402,0.703-2.402,3.955c0,2.816,1.043,3.471,2.354,3.471c0.704,0,1.893-0.484,2.451-0.896V1091.055z"/>
		<path fill="#2E2119" d="M150.497,1093.676v1.238h-7.79c0,1.82,0.852,2.791,2.985,2.791c1.287,0,2.597-0.291,3.835-0.754
			l0.703,2.137c-1.577,0.873-3.398,1.189-5.049,1.189c-4.804,0-5.968-2.863-5.968-6.139c0-2.623,1.115-6.285,5.824-6.285
			C150.157,1087.854,150.497,1091.541,150.497,1093.676 M142.756,1092.779h4.587c-0.023-1.578-0.51-2.719-2.161-2.719
			C143.46,1090.061,142.878,1091.346,142.756,1092.779"/>
		<polygon fill="#2E2119" points="157.8,1095.664 155.275,1100.084 151.563,1100.084 155.664,1093.871 151.879,1088.168 
			155.688,1088.168 157.849,1092.195 160.032,1088.168 163.745,1088.168 159.886,1093.846 163.939,1100.084 160.153,1100.084 		"/>
		<path fill="#F4C61B" d="M75.18,1092.689c-1.936,0-3.503-1.566-3.503-3.5c0-1.936,1.567-3.504,3.503-3.504
			c1.933,0,3.503,1.568,3.503,3.504C78.683,1091.123,77.112,1092.689,75.18,1092.689"/>
		<path fill="#F4C61B" d="M78.455,1083.67c-1.356,0-2.456-1.1-2.456-2.457s1.1-2.455,2.456-2.455c1.356,0,2.454,1.098,2.454,2.455
			S79.812,1083.67,78.455,1083.67"/>
		<path fill="#F4C61B" d="M80.911,1076.922c-0.933,0-1.689-0.756-1.689-1.688c0-0.934,0.757-1.689,1.689-1.689
			c0.934,0,1.688,0.756,1.688,1.689C82.6,1076.166,81.845,1076.922,80.911,1076.922"/>
		<path fill="#F4C61B" d="M82.549,1072.467c-0.673,0-1.22-0.545-1.22-1.221c0-0.674,0.547-1.219,1.22-1.219
			c0.673,0,1.22,0.545,1.22,1.219C83.769,1071.922,83.222,1072.467,82.549,1072.467"/>
		<path fill="#7E90C8" d="M60.634,1078.176c-1.935,0-3.502-1.57-3.502-3.504c0-1.932,1.567-3.498,3.502-3.498
			c1.934,0,3.502,1.566,3.502,3.498C64.136,1076.605,62.567,1078.176,60.634,1078.176"/>
		<path fill="#7E90C8" d="M68.577,1073.781c-1.355,0-2.451-1.1-2.451-2.455c0-1.352,1.096-2.451,2.451-2.451
			c1.354,0,2.453,1.1,2.453,2.451C71.03,1072.682,69.932,1073.781,68.577,1073.781"/>
		<path fill="#7E90C8" d="M74.536,1070.5c-0.932,0-1.684-0.752-1.684-1.682s0.752-1.686,1.684-1.686c0.93,0,1.684,0.756,1.684,1.686
			S75.466,1070.5,74.536,1070.5"/>
		<path fill="#7E90C8" d="M78.507,1068.355c-0.668,0-1.211-0.541-1.211-1.211s0.543-1.213,1.211-1.213
			c0.672,0,1.214,0.543,1.214,1.213S79.179,1068.355,78.507,1068.355"/>
		<path fill="#0F9ACC" d="M60.607,1057.629c-1.933,0-3.501-1.566-3.501-3.504c0-1.932,1.568-3.498,3.501-3.498
			c1.935,0,3.503,1.566,3.503,3.498C64.11,1056.062,62.542,1057.629,60.607,1057.629"/>
		<path fill="#0F9ACC" d="M68.592,1059.824c-1.351,0-2.448-1.094-2.448-2.447c0-1.352,1.098-2.449,2.448-2.449
			c1.352,0,2.448,1.098,2.448,2.449C71.04,1058.73,69.943,1059.824,68.592,1059.824"/>
		<path fill="#0F9ACC" d="M74.579,1061.49c-0.924,0-1.676-0.75-1.676-1.676c0-0.928,0.752-1.678,1.676-1.678
			c0.928,0,1.678,0.75,1.678,1.678C76.257,1060.74,75.507,1061.49,74.579,1061.49"/>
		<path fill="#0F9ACC" d="M78.573,1062.643c-0.666,0-1.205-0.541-1.205-1.205c0-0.662,0.539-1.203,1.205-1.203
			c0.664,0,1.203,0.541,1.203,1.203C79.776,1062.102,79.237,1062.643,78.573,1062.643"/>
		<path fill="#3FBBA3" d="M75.12,1043.084c-1.934,0-3.504-1.57-3.504-3.504c0-1.936,1.57-3.502,3.504-3.502
			c1.933,0,3.502,1.566,3.502,3.502C78.622,1041.514,77.053,1043.084,75.12,1043.084"/>
		<path fill="#3FBBA3" d="M78.444,1049.977c-1.35,0-2.444-1.092-2.444-2.443c0-1.35,1.095-2.445,2.444-2.445
			c1.35,0,2.445,1.096,2.445,2.445C80.89,1048.885,79.794,1049.977,78.444,1049.977"/>
		<path fill="#3FBBA3" d="M80.938,1055.17c-0.924,0-1.674-0.748-1.674-1.672s0.75-1.672,1.674-1.672c0.922,0,1.67,0.748,1.67,1.672
			S81.86,1055.17,80.938,1055.17"/>
		<path fill="#3FBBA3" d="M82.6,1058.672c-0.661,0-1.196-0.535-1.196-1.195s0.535-1.197,1.196-1.197
			c0.661,0,1.196,0.537,1.196,1.197S83.261,1058.672,82.6,1058.672"/>
		<path fill="#F89624" d="M85.499,1112.383c-2.389,0-4.326-1.936-4.326-4.326c0-2.389,1.938-4.324,4.326-4.324
			c2.389,0,4.326,1.936,4.326,4.324C89.825,1110.447,87.888,1112.383,85.499,1112.383"/>
		<path fill="#F89624" d="M85.465,1100.061c-1.833,0-3.318-1.486-3.318-3.318c0-1.83,1.485-3.318,3.318-3.318
			c1.833,0,3.317,1.488,3.317,3.318C88.782,1098.574,87.298,1100.061,85.465,1100.061"/>
		<path fill="#F89624" d="M85.438,1090.676c-1.408,0-2.551-1.145-2.551-2.553c0-1.406,1.143-2.551,2.551-2.551
			s2.551,1.145,2.551,2.551C87.989,1089.531,86.847,1090.676,85.438,1090.676"/>
		<path fill="#F89624" d="M85.414,1081.924c-1.041,0-1.882-0.844-1.882-1.881c0-1.039,0.841-1.885,1.882-1.885
			c1.038,0,1.882,0.846,1.882,1.885C87.296,1081.08,86.452,1081.924,85.414,1081.924"/>
		<path fill="#F36F2D" d="M54.646,1099.645c-2.39,0-4.325-1.938-4.325-4.326c0-2.391,1.936-4.326,4.325-4.326
			c2.39,0,4.325,1.936,4.325,4.326C58.972,1097.707,57.036,1099.645,54.646,1099.645"/>
		<path fill="#F36F2D" d="M62.588,1090.574c-1.831,0-3.315-1.482-3.315-3.316c0-1.83,1.484-3.312,3.315-3.312
			c1.83,0,3.313,1.482,3.313,3.312C65.901,1089.092,64.418,1090.574,62.588,1090.574"/>
		<path fill="#F36F2D" d="M68.638,1083.664c-1.406,0-2.545-1.137-2.545-2.545c0-1.406,1.139-2.545,2.545-2.545
			c1.405,0,2.545,1.139,2.545,2.545C71.183,1082.527,70.043,1083.664,68.638,1083.664"/>
		<path fill="#F36F2D" d="M74.311,1077.236c-1.036,0-1.876-0.836-1.876-1.873c0-1.035,0.84-1.875,1.876-1.875
			c1.036,0,1.876,0.84,1.876,1.875C76.187,1076.4,75.347,1077.236,74.311,1077.236"/>
		<path fill="#3676BA" d="M41.835,1068.822c-2.39,0-4.326-1.938-4.326-4.328c0-2.387,1.937-4.326,4.326-4.326
			c2.389,0,4.325,1.939,4.325,4.326C46.16,1066.885,44.224,1068.822,41.835,1068.822"/>
		<path fill="#3676BA" d="M53.147,1067.717c-1.828,0-3.31-1.482-3.31-3.311s1.481-3.311,3.31-3.311c1.828,0,3.31,1.482,3.31,3.311
			S54.976,1067.717,53.147,1067.717"/>
		<path fill="#3676BA" d="M61.768,1066.873c-1.4,0-2.536-1.137-2.536-2.533c0-1.402,1.136-2.537,2.536-2.537
			c1.4,0,2.534,1.135,2.534,2.537C64.302,1065.736,63.168,1066.873,61.768,1066.873"/>
		<path fill="#3676BA" d="M69.849,1066.137c-1.029,0-1.863-0.832-1.863-1.863c0-1.027,0.834-1.863,1.863-1.863
			c1.029,0,1.862,0.836,1.862,1.863C71.711,1065.305,70.878,1066.137,69.849,1066.137"/>
		<path fill="#068D8C" d="M54.573,1037.971c-2.389,0-4.326-1.939-4.326-4.326c0-2.391,1.938-4.328,4.326-4.328
			c2.389,0,4.326,1.938,4.326,4.328C58.899,1036.031,56.962,1037.971,54.573,1037.971"/>
		<path fill="#068D8C" d="M62.608,1044.912c-1.825,0-3.305-1.479-3.305-3.305c0-1.824,1.479-3.305,3.305-3.305
			c1.826,0,3.307,1.48,3.307,3.305C65.915,1043.434,64.435,1044.912,62.608,1044.912"/>
		<path fill="#068D8C" d="M68.731,1050.205c-1.396,0-2.527-1.131-2.527-2.527s1.132-2.529,2.527-2.529
			c1.396,0,2.527,1.133,2.527,2.529S70.128,1050.205,68.731,1050.205"/>
		<path fill="#068D8C" d="M74.471,1055.219c-1.023,0-1.853-0.83-1.853-1.852c0-1.025,0.83-1.854,1.853-1.854
			c1.023,0,1.852,0.828,1.852,1.854C76.323,1054.389,75.494,1055.219,74.471,1055.219"/>
		<path fill="#2CB35F" d="M85.396,1025.158c-2.391,0-4.326-1.935-4.326-4.326c0-2.387,1.936-4.326,4.326-4.326
			c2.39,0,4.325,1.939,4.325,4.326C89.721,1023.223,87.785,1025.158,85.396,1025.158"/>
		<path fill="#2CB35F" d="M85.383,1035.449c-1.825,0-3.305-1.479-3.305-3.303s1.479-3.305,3.305-3.305
			c1.825,0,3.304,1.48,3.304,3.305S87.208,1035.449,85.383,1035.449"/>
		<path fill="#2CB35F" d="M85.372,1043.291c-1.395,0-2.524-1.129-2.524-2.523s1.13-2.527,2.524-2.527
			c1.396,0,2.526,1.133,2.526,2.527S86.768,1043.291,85.372,1043.291"/>
		<path fill="#2CB35F" d="M85.364,1050.699c-1.024,0-1.852-0.83-1.852-1.852s0.828-1.852,1.852-1.852c1.021,0,1.85,0.83,1.85,1.852
			S86.386,1050.699,85.364,1050.699"/>
	</g>
	<rect x="70.927" y="40.995" fill="none" width="1054.143" height="38.606"/>
	<text transform="matrix(1 0 0 1 67.9272 75.5068)"><tspan x="0" y="0" fill="#FFFFFF" font-family="'Helvetica-Bold'" font-size="48">O3:</tspan><tspan x="80.016" y="0" fill="#7E90C8" font-family="'Helvetica-Bold'" font-size="48"> </tspan><tspan x="93.352" y="0" fill="#D1DE58" font-family="'Helvetica-Bold'" font-size="48">ECOSYSTEM IMPACTS</tspan></text>
	<rect x="71.528" y="92.466" fill="none" width="863.957" height="65.132"/>
	<text transform="matrix(1 0 0 1 71.5278 106.8457)"><tspan x="0" y="0" fill="#FFFFFF" font-family="'Helvetica'" font-size="20">MONITORING OF MERCURY SUGGESTS... Lorem ipsum dolor sit amet, </tspan><tspan x="0" y="24" fill="#FFFFFF" font-family="'Helvetica'" font-size="20">consectetur adipiscing elit. Donec at purus ut tortor facilisis tincidunt. </tspan><tspan x="0" y="48" fill="#FFFFFF" font-family="'Helvetica'" font-size="20">Pellentesque in aliquam elit. </tspan></text>
	<path opacity="0.5" fill="#D1DE58" d="M1350.295,677.391c-18.016-20.94-34.836-27.214-60.042-36.756
		c-20.843-7.89-35.023-22.019-55.44-30.968c-37.438-16.408-64.809-17.369-106.834-14.019c-18.665,1.487-42.299,4.597-60.732-0.305
		c-30.666-8.156-56.576-39.004-85.652-51.194c-47.392-19.873-122.211-14.542-169.356,6.104
		c-18.011,7.886-32.611,14.092-52.924,11.931c-16.213-1.728-31.61-7.143-48.317-8.004c-30.664-1.58-61.33,2.234-91.913,1.811
		c-33.975-0.47-50.325-3.626-78.861,19.225c-6.205,4.97-3.815,9.007-11.332,12.678c-18.622,9.095-52.899,10.288-73.187,13.707
		c-30.158,5.082-60.221,3.686-90.397,6.467c-22.266,2.051-82.511,25.593-72.023,55.28c3.365,9.527,16.354,8.877,25.394,13.15
		c16.503,7.799,30.676-1.063,47.179,7.292c27.265,13.803,0.434,48.634,32.188,55.111c18.294,7.481,37.213,14.148,47.578,33.098
		c13.175,24.086-14.696,28.26,9.788,43.858c26.707,17.017,60.3,20.334,91.421,14.154c40.394-8.021,77.739-12.132,119.729-6.483
		c28.881,3.886,54.622,18.878,83.971,18.335c20.744-0.384,39.786-9.544,59.857-14.113c49.904-11.358,96.495-4.869,146.418,1.859
		c46.146,6.223,103.739,4.085,149.942-0.107c36.919-3.347,85.409-17.368,116.821-36.521c33.745,28.117,61.988,19.322,100.521,11.511
		c29.988-6.078,63.027-21.081,63.973-58.382C1388.726,720.023,1366.396,696.106,1350.295,677.391z"/>
	<g>
		<polygon fill="#D1D3D4" points="578.962,851.014 578.962,967.291 623.035,967.291 613.735,952.422 617.721,952.422 
			608.697,938.09 612.943,938.09 604.185,923.752 608.164,923.752 599.136,909.413 603.92,909.413 594.095,894.55 598.605,894.55 
			589.312,880.214 594.358,880.214 585.068,865.877 589.579,865.877 		"/>
		<polygon fill="#FFFFFF" points="578.962,851.014 578.962,967.291 534.893,967.291 544.185,952.422 540.203,952.422 549.23,938.09 
			544.978,938.09 553.742,923.752 549.761,923.752 558.787,909.413 554.009,909.413 563.832,894.55 559.317,894.55 568.607,880.214 
			563.562,880.214 572.858,865.877 568.339,865.877 		"/>
	</g>
	<g>
		<polygon fill="#D1D3D4" points="401.06,851.659 401.06,967.937 445.132,967.937 435.833,953.067 439.819,953.067 430.795,938.735 
			435.041,938.735 426.283,924.398 430.262,924.398 421.234,910.059 426.018,910.059 416.193,895.194 420.703,895.194 
			411.41,880.859 416.456,880.859 407.167,866.523 411.677,866.523 		"/>
		<polygon fill="#FFFFFF" points="401.06,851.659 401.06,967.937 356.99,967.937 366.282,953.067 362.301,953.067 371.328,938.735 
			367.076,938.735 375.84,924.398 371.858,924.398 380.885,910.059 376.107,910.059 385.93,895.194 381.415,895.194 
			390.705,880.859 385.66,880.859 394.956,866.523 390.436,866.523 		"/>
	</g>
	<g>
		<polygon fill="#D1D3D4" points="4.648,843.92 4.648,960.197 48.72,960.197 39.421,945.329 43.406,945.329 34.382,930.995 
			38.628,930.995 29.871,916.659 33.85,916.659 26.821,902.319 29.605,902.319 19.78,887.455 24.291,887.455 14.998,873.12 
			20.044,873.12 10.754,858.784 15.264,858.784 		"/>
		<path fill="#FFFFFF" d="M4.646,846.854v111.742c0,0.608-0.493,1.101-1.101,1.101h-40.983c-0.865,0-1.392-0.951-0.934-1.684
			l7.187-11.499c0.458-0.733-0.069-1.684-0.934-1.684h0c-0.866,0-1.393-0.955-0.932-1.688l6.902-10.959
			c0.462-0.733-0.065-1.688-0.932-1.688h-0.294c-0.86,0-1.388-0.942-0.939-1.675l6.715-10.985c0.448-0.734-0.08-1.675-0.939-1.675
			h-0.023c-0.866,0-1.393-0.954-0.932-1.688l6.902-10.965c0.462-0.733-0.065-1.688-0.932-1.688h-0.737
			c-0.877,0-1.402-0.976-0.919-1.708l7.565-11.448c0.484-0.732-0.041-1.708-0.919-1.708h-0.442c-0.873,0-1.399-0.967-0.924-1.7
			l7.087-10.935c0.475-0.733-0.051-1.7-0.924-1.7h-0.993c-0.873,0-1.399-0.967-0.924-1.7l7.092-10.936
			c0.475-0.732-0.051-1.7-0.924-1.7h-0.353c-0.896,0-1.417-1.013-0.896-1.741l7.382-10.329
			C3.272,845.343,4.646,845.783,4.646,846.854z"/>
	</g>
	<g>
		<g>
			<path opacity="0.75" fill="#BCBEC0" d="M529.989,952.27c6.857-5.524,10.282-8.287,17.137-13.811c0-24.322,0-48.645,0-72.966
				c-6.854,0-10.28,0-17.137,0C529.989,894.418,529.989,923.344,529.989,952.27z"/>
			<path opacity="0.75" fill="#E6E7E8" d="M505.164,934.167c-2.364,0-3.546,0-5.911,0c0-26.611,0-53.223,0-79.834
				c2.364,0,3.546,0,5.911,0C505.164,880.945,505.164,907.556,505.164,934.167z"/>
			<path opacity="0.75" fill="#D1D3D4" d="M505.164,854.333c0,26.612,0,53.223,0,79.834c-2.364,0-3.546,0-5.911,0
				c0,9.271,0,13.907,0,23.178c2.364,0,3.546,0,5.911,0c4.965,0,7.448,0,12.413,0c0-34.337,0-68.675,0-103.012
				C512.612,854.333,510.129,854.333,505.164,854.333z"/>
			<path opacity="0.75" fill="#D1D3D4" d="M520.532,894.251c2.364,0,3.546,0,5.91,0c0-19.888,0-39.775,0-59.663
				c2.601,0,3.902,0,6.502,0c0,9.944,0,19.889,0,29.833c1.418,2.489,2.127,3.734,3.545,6.224c0,24.036,0,48.072,0,72.108
				c1.182,0,1.773,0,2.955,0c0-9.729,0-19.458,0-29.187c3.782,0,5.673,0,9.454,0c0,4.464,0,6.696,0,11.16c4.254,0,6.381,0,10.635,0
				c-4.727,3.777-7.091,5.666-11.818,9.442c0,3.434,0,5.151,0,8.585c-9.061,4.865-18.122,9.729-27.184,14.593
				C520.532,936.314,520.532,915.282,520.532,894.251z"/>
			<path opacity="0.75" fill="#BCBEC0" d="M581.988,916.355c-1.891,0-2.836,0-4.727,0c0-9.8,0-19.601,0-29.401
				c1.891,0,2.836,0,4.727,0C581.989,896.755,581.988,906.555,581.988,916.355z"/>
			<path opacity="0.75" fill="#BCBEC0" d="M551.853,886.955c0,13.734,0,27.469,0,41.203c4.018,0,6.027,0,10.046,0
				c0,2.404,0,3.606,0,6.01c4.018,0,6.027,0,10.044,0c0-2.404,0-3.606,0-6.01c0-13.734,0-27.468,0-41.203
				C563.907,886.955,559.889,886.955,551.853,886.955z"/>
			<path opacity="0.75" fill="#D1D3D4" d="M609.761,789.522c0-1.803,0-2.705,0-4.507c-8.332,0-12.498,0-20.83,0
				c0,1.803,0,2.705,0,4.507c-2.777,0-4.165,0-6.942,0c0,31.547,0,63.094,0,94.641c0.827,0,1.24,0,2.067,0c0,4.722,0,7.082,0,11.804
				c0.887,0,1.33,0,2.216,0c0,22.677,0,45.354,0,68.031c4.077,0,6.116,0,10.193,0c0-22.677,0-45.354,0-68.031
				c0-4.722,0-7.083,0-11.804c8.509,0,12.763,0,21.272,0c0-31.547,0-63.094,0-94.641
				C614.546,789.522,612.951,789.522,609.761,789.522z"/>
			<path opacity="0.75" fill="#E6E7E8" d="M737.835,956.916c-7.445,0-11.168,0-18.612,0c0-23.321,0-46.641,0-69.961
				c7.445,0,11.168,0,18.613,0C737.835,910.275,737.835,933.595,737.835,956.916z"/>
			<path opacity="0.75" fill="#A7A9AC" d="M770.193,957.881c-5.852,0-8.778,0-14.629,0c0-38.951,0.001-77.902,0.001-116.854
				c5.852,0,8.778,0,14.629,0C770.193,879.979,770.193,918.93,770.193,957.881z"/>
			<path opacity="0.75" fill="#E6E7E8" d="M783.271,896.718c-4.344,0-6.517,0-10.861,0c0-83.268,0-166.535,0-249.803
				c3.103,0,4.654,0,7.757,0c0.177,3.862,0.266,5.793,0.443,9.656c1.064,0,1.596,0,2.661,0
				C783.271,736.62,783.271,816.669,783.271,896.718z"/>
			<path opacity="0.75" fill="#E6E7E8" d="M617.736,947.903c-8.509,6.438-12.763,9.657-21.272,16.095c0-26.612,0-53.224,0-79.835
				c8.509,0,12.763,0,21.272,0C617.737,905.409,617.737,926.656,617.736,947.903z"/>
			<path opacity="0.75" fill="#D1D3D4" d="M841.197,849.183c-2.658-15.022-5.316-30.045-7.974-45.067c0-5.838,0-8.756,0-14.594
				c-2.396,0-3.594,0-5.991,0c0-5.323,0-7.983,0-13.307c-2.837,0-4.256,0-7.093,0c0,7.383,0,11.074,0,18.457
				c4.359,18.17,8.717,36.34,13.076,54.511C836.407,849.183,838.004,849.183,841.197,849.183z"/>
			<path opacity="0.75" fill="#A7A9AC" d="M821.959,737.91c0-10.087,0-15.131,0-25.217c30.523,53.366,61.045,106.731,91.568,160.097
				c0-4.893,0-7.339,0-12.231c1.774,0,2.66,0,4.434,0c0-9.515,0-19.03,0-28.545c2.601,0,3.901,0,6.502,0c0,4.722,0,7.083,0,11.805
				c6.147,0,9.22,0,15.367,0c0,7.554,0,11.331,0,18.884c1.3,0,1.95,0,3.25,0c0-3.433,0-5.15,0-8.583c1.478,0,2.217,0,3.695,0
				c0,4.892,0,7.339,0,12.231c2.246,0,3.369,0,5.615,0c0,17.276,0,34.553,0,51.829c-10.713,0-21.426,0-32.139,0
				c0-8.069,0-12.104,0-20.173C887.487,844.642,854.723,791.276,821.959,737.91z"/>
			<path opacity="0.75" fill="#D1D3D4" d="M920.251,914.64c1.684,0,2.526,0,4.211,0c0,1.417,0,2.125,0,3.541c1.773,0,2.66,0,4.433,0
				c0-10.408,0-20.817,0-31.225c0.473,0,0.709,0,1.182,0c2.719-7.04,4.079-10.56,6.798-17.599c2.837,7.04,4.256,10.56,7.093,17.599
				c0.413,0,0.62,0,1.033,0c0,7.124,0,10.687,0,17.811c-0.946,0-1.419,0-2.364,0c0,10.688,0,16.03,0,26.718c-1.95,0-2.925,0-4.876,0
				c0,2.576,0,3.864,0,6.439c-1.507,0-2.261,0-3.768,0c0,1.288,0,1.931,0,3.218c-5.497,0-8.245,0-13.742,0
				C920.251,930.541,920.251,925.241,920.251,914.64z"/>
			<path opacity="0.75" fill="#E6E7E8" d="M818.661,905.409c0,9.528,0,14.293,0,23.821l0,0c6.429,0,9.643,0,16.072,0
				c0,8.5,0,12.75,0,21.249c9.471,0,14.206,0,23.676,0c0-85.843,0-171.687,0-257.53c3.901,0,5.852,0,9.754,0
				c0-3.262,0-4.893,0-8.154c-7.27,0-10.905,0-18.175,0c0,83.125,0,166.25,0,249.374c-2.601,0-3.901,0-6.502,0
				c0-25.896,0-51.792,0-77.689c-0.916,0-1.374,0-2.29,0c0-2.919,0-4.378,0-7.296c-3.19,0-4.785,0-7.975,0
				c0-13.449,0-26.897,0-40.346c0-5.666,0-8.499,0-14.165c-4.878,0-7.318,0-12.196,0c0.098,16.256,0.197,32.513,0.295,48.77
				c-1.064-0.019-1.596-0.028-2.66-0.047C818.661,864.066,818.661,884.738,818.661,905.409L818.661,905.409z"/>
			<path opacity="0.75" fill="#A7A9AC" d="M617.737,929.875c0.768,0,1.152,0,1.92,0c0-10.472,0-15.709,0-26.182
				c1.123,0,1.684,0,2.807,0c0,14.736,0,29.473,0,44.209c-1.891,0-2.837,0-4.728,0C617.737,940.691,617.737,937.086,617.737,929.875
				z"/>
			<path opacity="0.75" fill="#A7A9AC" d="M737.835,948.758c2.659,0,3.989,0,6.649,0c0-15.666,0-31.332,0-46.998
				c-2.659,0-3.989,0-6.649,0C737.835,917.426,737.835,933.092,737.835,948.758z"/>
			<path opacity="0.75" fill="#BCBEC0" d="M631.18,859.913c2.275,0,3.413,0,5.688,0c0,1.544,0,2.317,0,3.862
				c2.186,0,3.279,0,5.465,0c0,2.232,0,3.348,0,5.58c1.418,0,2.127,0,3.545,0c0,5.064,0,7.596,0,12.661c0.532,0,0.798,0,1.33,0
				c0,10.588,0,21.176,0,31.764c-0.207,0-0.31,0-0.517,0c0-4.377,0-6.566,0-10.944c-0.591,0-0.886,0-1.477,0
				c0-7.082,0-10.623,0-17.705c-5.791,0.214-8.687,0.321-14.478,0.535C630.914,875.364,631.003,870.214,631.18,859.913z"/>
			<path opacity="0.75" fill="#E6E7E8" d="M623.942,885.13c0-4.25,0-6.375,0-10.624c1.477,0,2.216,0,3.693,0
				c0,2.125,0,3.187,0,5.312c1.477,0,2.216,0,3.693,0c0,2.125,0,3.188,0,5.312c5.555,0,8.332,0,13.886,0c0,7.082,0,10.623,0,17.705
				c0.591,0,0.886,0,1.477,0c0,4.378,0,6.567,0,10.944c-5.732,0-8.598,0-14.33,0c0-3.219,0-4.828,0-8.047c-0.975,0-1.462,0-2.437,0
				c0-5.923,0-8.885,0-14.808c-0.709,0-1.064,0-1.773,0c0-2.317,0-3.476,0-5.794C626.467,885.13,625.625,885.13,623.942,885.13z"/>
			<path opacity="0.75" fill="#D1D3D4" d="M623.942,874.506c0-3.091,0-4.636,0-7.727c0.561,0,0.842,0,1.403,0
				c0-6.181,0-9.271,0-15.453c0.472,0,0.709,0,1.181,0c0-1.932,0-2.897,0-4.829c0.621,0,0.931,0,1.551,0c0,0.988,0,1.481,0,2.469
				c1.241,0,1.862,0,3.103,0c0,10.284,0,20.567,0,30.851c-1.418,0-2.127,0-3.545,0c0-2.125,0-3.187,0-5.312
				C626.158,874.506,625.419,874.506,623.942,874.506z"/>
			<path opacity="0.75" fill="#A7A9AC" d="M631.18,854.116c3.516,0,5.274,0,8.79,0c0,3.864,0,5.795,0,9.659
				c-1.241,0-1.861,0-3.102,0c0-1.545,0-2.317,0-3.862c-2.275,0-3.413,0-5.688,0C631.18,857.594,631.18,856.435,631.18,854.116z"/>
			<path opacity="0.75" fill="#E6E7E8" d="M650.383,913.779c0-4.034,0-6.051,0-10.085c2.305,0,3.457,0,5.761,0
				c0-26.397,0-52.794,0-79.191c1.359,0,2.039,0,3.398,0c0,13.091,0,26.182,0,39.273c1.654,0,2.481,0,4.136,0
				c0,22.248,0,44.496,0,66.744c-3.752,0-5.628,0-9.38,0c0-6.696,0-10.044,0-16.74C652.732,913.779,651.949,913.779,650.383,913.779
				z"/>
			<path opacity="0.75" fill="#D1D3D4" d="M651.122,903.693c2.009,0,3.013,0,5.022,0c0-26.397,0-52.794,0-79.191
				c-2.009,0-3.013,0-5.022,0C651.122,850.899,651.122,877.296,651.122,903.693z"/>
			<path opacity="0.75" fill="#D1D3D4" d="M671.803,930.519c-1.654,0-2.482,0-4.136,0c0-19.172,0-38.344,0-57.516
				c1.655,0,2.482,0,4.136,0C671.803,892.175,671.803,911.347,671.803,930.519z"/>
			<path opacity="0.75" fill="#E6E7E8" d="M664.638,935.347c2.63-3.82,3.944-5.729,6.574-9.549c0-19.101,0-38.202,0-57.302
				c3.073,0,4.609,0,7.682,0c0,6.953,0,10.431,0,17.384c0.709,0,1.064,0,1.773,0c0,8.499,0,12.747,0,21.246c1.95,0,2.925,0,4.874,0
				c0,10.705,0,21.409,0,32.114c-1.244,1.808-1.866,2.711-3.111,4.519c-4.709,0-7.063,0-11.772,0
				C668.25,940.394,667.046,938.711,664.638,935.347z"/>
			<path opacity="0.75" fill="#BCBEC0" d="M688.201,900.473c-3.013,0-4.52,0-7.533,0c0,2.661,0,3.991,0,6.652
				c1.95,0,2.925,0,4.874,0c0,10.705,0,21.409,0,32.114c1.064,0,1.595,0,2.659,0C688.2,926.317,688.201,913.395,688.201,900.473z"/>
			<path opacity="0.75" fill="#D1D3D4" d="M707.036,648.846c8.479,0,12.718,0,21.197,0c0,5.45,0,8.175,0,13.625
				c0.532,0,0.797,0,1.329,0c0,18.6,0,37.199,0,55.798c0.828,0,1.242,0,2.069,0c0,7.21,0,10.815,0,18.026c0.768,0,1.152,0,1.92,0
				c0,5.923,0,8.885,0,14.808c1.714,0,2.571,0,4.285,0c0,65.885,0,131.77,0,197.654c-4.786,0-7.18,0-11.966,0
				c0-16.954,0-33.908,0-50.862c-0.768,0-1.152,0-1.92,0c0-4.42,0-6.63,0-11.05c-1.093,0-1.639,0-2.732,0c-0.798,0-1.197,0-1.994,0
				c0-43.28,0-86.56,0-129.839c-1.418,0-2.127,0-3.545,0c0-6.911,0-10.366,0-17.277c-2.304,0-3.457,0-5.761,0
				c0-6.866,0-10.3,0-17.166c-0.709,0-1.063,0-1.772,0c0-7.555,0-11.333,0-18.888c-0.443,0-0.665,0-1.108,0
				C707.036,685.4,707.036,667.123,707.036,648.846z"/>
			<path opacity="0.75" fill="#E6E7E8" d="M737.835,954.985c2.748,0,4.122,0,6.87,0c1.197-1.739,1.795-2.607,2.992-4.346
				c8.376,0,12.566,0,20.944,0c0-8.949,0-13.424,0-22.374c-1.95,0-2.925,0-4.876,0c0,1.481,0,2.221,0,3.703
				c-1.064,0-1.597,0-2.661,0c0-20.71,0-41.419,0-62.129c-0.266,0-0.398,0-0.664,0c0-2.382,0-3.573,0-5.956
				c-1.241,0-1.862,0-3.103,0c0-1.995,0-2.993,0-4.989c-1.641,0-2.462,0-4.102,0c0,4.442,0,6.664,0,11.105c-1.684,0-2.525,0-4.209,0
				c0,21.675,0,43.351,0,65.025c-2.393,0-3.59,0-5.983,0c0,5.494,0,8.24,0,13.733c-2.083,0-3.125,0-5.208,0
				C737.835,951.249,737.835,952.495,737.835,954.985z"/>
			<path opacity="0.75" fill="#D1D3D4" d="M783.27,656.571c0.487,0,0.731,0,1.218,0c0,3.541,0,5.312,0,8.853
				c0.798,0,1.197,0,1.995,0c0,9.593,0,14.39,0,23.982c-0.665,0-0.997,0-1.662,0c0,17.598,0,35.196,0,52.794
				c-0.621,0-0.931,0-1.552,0C783.271,713.657,783.271,685.114,783.27,656.571z"/>
			<path opacity="0.75" fill="#A7A9AC" d="M799.04,929.23c2.576,0,3.864,0,6.44,0c0-21.71,0-43.421,0-65.132
				c-2.576,0-3.864,0-6.439,0C799.04,885.809,799.04,907.52,799.04,929.23z"/>
			<path opacity="0.75" fill="#E6E7E8" d="M808.318,929.23c-3.192,0-4.788,0-7.98,0c0-4.721,0-7.081,0-11.802
				c3.192,0,4.788,0,7.98,0C808.318,922.149,808.318,924.51,808.318,929.23z"/>
			<path opacity="0.75" fill="#D1D3D4" d="M800.338,906.126c3.192,0,4.788,0,7.98,0c0,4.521,0,6.782,0,11.303
				c-3.192,0-4.788,0-7.98,0C800.338,912.908,800.338,910.647,800.338,906.126z"/>
			<path opacity="0.75" fill="#BCBEC0" d="M800.338,882.663c2.719,0,4.079,0,6.798,0c0,9.385,0,14.078,0,23.463
				c-2.719,0-4.079,0-6.798,0C800.338,896.741,800.338,892.048,800.338,882.663z"/>
			<path opacity="0.75" fill="#A7A9AC" d="M818.661,929.23c-4.61,0-6.915,0-11.525,0c0-18.742,0-37.485,0-56.227
				c4.61,0,6.915,0,11.525,0C818.661,891.746,818.661,910.488,818.661,929.23z"/>
			<path opacity="0.75" fill="#D1D3D4" d="M874.369,756.687c-2.837,0-4.256,0-7.093,0c0-23.964,0-47.928,0-71.892
				c2.423,0,3.635,0,6.059,0c0,10.558,0,15.837,0,26.395c0.414,0,0.621,0,1.035,0C874.369,726.355,874.369,741.521,874.369,756.687z
				"/>
			<path opacity="0.75" fill="#BCBEC0" d="M849.397,934.168c-2.364,0-3.546,0-5.91,0c0-13.806,0-27.613,0-41.419
				c2.364,0,3.546,0,5.91,0C849.397,906.556,849.397,920.362,849.397,934.168z"/>
			<path opacity="0.75" fill="#A7A9AC" d="M897.717,907.558c-2.66,0-3.99,0-6.65,0c0-10.645,0-15.968,0-26.612c2.66,0,3.99,0,6.65,0
				C897.717,891.59,897.717,896.913,897.717,907.558z"/>
			<path opacity="0.75" fill="#BCBEC0" d="M879.467,949.405c3.34,0,5.01,0,8.35,0c0-20.817,0-41.633,0-62.45c-3.34,0-5.01,0-8.35,0
				C879.467,907.772,879.467,928.588,879.467,949.405z"/>
			<path opacity="0.75" fill="#E6E7E8" d="M879.467,926.014c1.212,0,1.818,0,3.03,0c0,8.928,0,13.392,0,22.319
				c2.482,0,3.724,0,6.206,0c0-14.378,0-28.757,0-43.136c1.478,0,2.217,0,3.695,0c0-3.435,0-5.151,0-8.586c1.773,0,2.66,0,4.432,0
				c0-2.661,0-3.992,0-6.653c3.192,0,4.788,0,7.979,0c0,3.219,0,4.83,0,8.049c0,9.271,0,13.906,0,23.177c-4.108,0-6.162,0-10.271,0
				c0,10.516,0,21.031,0,31.547c-0.709,0-1.064,0-1.773,0c0,1.932,0,2.897,0,4.83c-5.32,0-7.979,0-13.299,0
				C879.467,947.045,879.467,936.53,879.467,926.014z"/>
			<path opacity="0.75" fill="#D1D3D4" d="M968.94,918.181c-4.196,0-6.295,0-10.491,0c0-5.537,0-8.306,0-13.842
				c4.197,0,6.295,0,10.491,0C968.94,909.875,968.94,912.644,968.94,918.181z"/>
			<path opacity="0.75" fill="#E6E7E8" d="M952.39,918.181c6.265,0,9.398,0,15.663,0c0-3.648,0-5.473,0-9.121
				c2.187,0,3.281,0,5.469,0c0,3.648,0,5.473,0,9.121c0.591,0,0.886,0,1.477,0c0,3.648,0,5.471,0,9.119c-1.773,0-2.66,0-4.433,0
				c0,3.863,0,5.795,0,9.658c-8.778,0-13.167,0-21.944,0c-1.507-2.961-2.261-4.443-3.768-7.404c0-4.549,0-6.823,0-11.373
				C947.869,918.181,949.376,918.181,952.39,918.181z"/>
			<path opacity="0.75" fill="#BCBEC0" d="M958.449,904.338c-0.099-9.733,0-29.241,0-29.241c0.028-0.008,6.501,0,6.501,0
				c0,7.833,0,11.75,0,19.583c1.596,0,2.394,0,3.99,0c0,3.863,0,5.795,0,9.658C964.744,904.338,962.646,904.338,958.449,904.338z"/>
			<g>
				<path fill="#FFFFFF" d="M974.999,927.3c-1.773,0-2.66,0-4.433,0c0,3.863,0,5.795,0,9.658c-8.778,0-13.167,0-21.944,0
					c-1.507-2.961-2.261-4.443-3.768-7.404c0-9.915,0-14.872,0-24.787c-0.887,0-1.33,0-2.217,0c0,5.279,0,7.919,0,13.198
					c0,5.408,0,8.112,0,13.52c-1.95,0-2.925,0-4.876,0c0,2.576,0,3.864,0,6.439c-1.507,0-2.261,0-3.768,0c0,1.288,0,1.931,0,3.218
					c-5.497,0-8.245,0-13.742,0c0-14.378,0-28.756,0-43.135c-6.207,0-9.31,0-15.516,0c0,9.271,0,13.906,0,23.177
					c-4.078,0-6.118,0-10.196,0c0,6.696,0,10.044,0,16.74c0,5.923,0,8.884,0,14.807c-0.709,0-1.064,0-1.773,0
					c0,1.932,0,2.897,0,4.83c-5.32,0-7.979,0-13.299,0c0-66.958,0-133.916,0-200.874c-4.522,0-6.782,0-11.304,0
					c0-21.246,0-42.492,0-63.738c-3.901,0-5.852,0-9.754,0c0,85.843,0,171.687,0,257.53c-9.309,0-13.964,0-23.273,0
					c-0.813-42.815-1.625-85.63-2.438-128.445c-2.837,0-4.255,0-7.092,0c0,27.792,0,55.583,0,83.375c-4.965,0-7.448,0-12.413,0
					c0,9.528,0,14.293,0,23.821c-6.295,0-9.442,0-15.737,0c0-59.231,0-118.463,0-177.694c-0.532,0-0.798,0-1.33,0
					c0-3.734,0-5.602,0-9.336c-0.709,0-1.064,0-1.773,0c0-17.598,0-35.196,0-52.794c-3.812,0-5.719,0-9.531,0
					c0,17.598,0,35.196,0,52.794c-0.621,0-0.931,0-1.552,0c0,39.917,0,79.834,0,119.751c-0.975,0-1.463,0-2.438,0
					c0-34.981,0-69.963,0-104.944c-1.241,0-1.862,0-3.104,0c0-22.211,0-44.422,0-66.633c-1.951-0.901-2.926-1.353-4.876-2.254
					c0-10.172,0-15.259,0-25.432c-1.064,0-1.595,0-2.659,0c0.001,98.398,0.001,196.795,0,295.193c-0.621,0-0.931,0-1.552,0
					c0-3.219,0-4.829,0-8.048c-8.6,0-12.901,0-21.498,0c-0.975,2.061-1.463,3.091-2.438,5.151c-5.939,0-8.908,0-14.847,0
					c-2.039,0-3.058,0-5.096,0c-1.418,0-2.127,0-3.545,0c0-22.677,0-45.354,0-68.03c-0.798,0-1.197,0-1.994,0
					c0-43.316,0-86.631,0-129.947c-1.418,0-2.127,0-3.545,0c0-6.911,0-10.366,0-17.277c-2.304,0-3.457,0-5.761,0
					c0-6.866,0-10.3,0-17.166c-0.709,0-1.063,0-1.772,0c0-7.727,0-11.589,0-19.316c-0.443,0-0.665,0-1.108,0
					c0-18.134,0-36.269,0-54.403c-1.507,0-2.26,0-3.767,0c0,18.885,0,37.771,0,56.657c-1.684,0-2.526,0-4.21,0
					c0,5.022,0,7.532,0,12.554c-1.95,0-2.925,0-4.876,0c0,70.069,0,140.139,0,210.208c-1.418,0-2.127,0-3.544,0
					c0,4.389,0,6.584,0,10.974c-1.854,0-2.781,0-4.635,0c-1.337,1.942-2.005,2.913-3.342,4.854c-4.801,0-7.202,0-12.003,0
					c-2.733-3.97-4.099-5.955-6.832-9.926c0-1.459,0-2.189,0-3.648c-3.811,0-5.717,0-9.528,0c0-6.696,0-10.044,0-16.74
					c-8.775,0-13.162,0-21.937,0c0-3.219,0-4.828,0-8.047c-0.975,0-1.462,0-2.437,0c0-5.923,0-8.885,0-14.808
					c-0.709,0-1.064,0-1.773,0c0-2.317,0-3.476,0-5.794c-1.684,0-2.526,0-4.21,0c0,0.73,0,1.095,0,1.825c0,20.316,0,40.632,0,60.948
					c-2.482,0-3.723,0-6.205,0c-8.509,6.438-12.763,9.657-21.272,16.095c-4.077,0-6.116,0-10.193,0c0-22.677,0-45.354,0-68.031
					c-0.887,0-1.33,0-2.216,0c0-4.722,0-7.083,0-11.804c-0.827,0-1.24,0-2.067,0c0,10.731,0,21.462,0,32.193
					c-2.541,0-3.812,0-6.353,0c0,4.721,0,7.081,0,11.802c-1.477,0-2.215,0-3.692,0c0,2.404,0,3.606,0,6.01
					c-4.018,0-6.027,0-10.044,0c0-2.404,0-3.606,0-6.01c-2.665,0-3.997,0-6.662,0c-3.008,2.404-4.512,3.606-7.52,6.01
					c0,3.434,0,5.151,0,8.585c-9.061,4.865-18.122,9.729-27.184,14.593c-8.512,0-12.767,0-21.279,0
					c-62.991,0.165-125.982,0.33-188.973,0.495c158.582,0,317.164,0,475.745,0c62.991-0.416,125.982-0.832,188.974-1.247
					C974.999,946.829,974.999,937.064,974.999,927.3z"/>
			</g>
		</g>
	</g>
	<g>
		<polygon fill="#D1D3D4" points="628.046,872.61 628.046,966.763 663.732,966.763 656.203,954.724 659.43,954.724 652.123,943.117 
			655.561,943.117 648.47,931.507 651.692,931.507 644.381,919.898 648.255,919.898 640.3,907.862 643.951,907.862 636.427,896.256 
			640.513,896.256 632.991,884.646 636.643,884.646 		"/>
		<polygon fill="#FFFFFF" points="628.046,872.61 628.046,966.763 592.362,966.763 599.887,954.724 596.663,954.724 
			603.972,943.117 600.529,943.117 607.625,931.507 604.401,931.507 611.71,919.898 607.841,919.898 615.795,907.862 
			612.139,907.862 619.662,896.256 615.577,896.256 623.104,884.646 619.444,884.646 		"/>
	</g>
	<g>
		<polygon fill="#D1D3D4" points="436.338,873.256 436.338,967.408 472.024,967.408 464.495,955.368 467.722,955.368 
			460.415,943.763 463.853,943.763 456.762,932.152 459.984,932.152 452.673,920.544 456.547,920.544 448.592,908.507 
			452.244,908.507 444.719,896.901 448.805,896.901 441.283,885.291 444.935,885.291 		"/>
		<polygon fill="#FFFFFF" points="436.338,873.256 436.338,967.408 400.654,967.408 408.179,955.368 404.955,955.368 
			412.264,943.763 408.821,943.763 415.917,932.152 412.694,932.152 420.002,920.544 416.133,920.544 424.087,908.507 
			420.432,908.507 427.954,896.901 423.869,896.901 431.396,885.291 427.736,885.291 		"/>
	</g>
	<g>
		<polygon fill="#D1D3D4" points="349.011,892.106 349.011,967.156 377.456,967.156 371.455,957.56 374.026,957.56 368.203,948.309 
			370.943,948.309 365.29,939.054 367.858,939.054 362.031,929.8 365.119,929.8 358.778,920.206 361.689,920.206 355.691,910.954 
			358.948,910.954 352.952,901.7 355.863,901.7 		"/>
		<polygon fill="#FFFFFF" points="349.011,892.106 349.011,967.156 320.567,967.156 326.564,957.56 323.995,957.56 329.821,948.309 
			327.076,948.309 332.732,939.054 330.163,939.054 335.989,929.8 332.905,929.8 339.245,920.206 336.331,920.206 342.327,910.954 
			339.071,910.954 345.071,901.7 342.154,901.7 		"/>
	</g>
	<g>
		<polygon fill="#D1D3D4" points="307.638,892.106 307.638,967.156 336.084,967.156 330.082,957.56 332.654,957.56 326.83,948.309 
			329.571,948.309 323.918,939.054 326.486,939.054 320.659,929.8 323.747,929.8 317.405,920.206 320.316,920.206 314.319,910.954 
			317.575,910.954 311.58,901.7 314.49,901.7 		"/>
		<polygon fill="#FFFFFF" points="307.638,892.106 307.638,967.156 279.194,967.156 285.191,957.56 282.622,957.56 288.449,948.309 
			285.704,948.309 291.36,939.054 288.79,939.054 294.617,929.8 291.532,929.8 297.873,920.206 294.958,920.206 300.955,910.954 
			297.699,910.954 303.699,901.7 300.781,901.7 		"/>
	</g>
	<g>
		<polygon fill="#D1D3D4" points="57.333,892.106 57.333,967.156 85.779,967.156 79.778,957.56 82.35,957.56 76.525,948.309 
			79.267,948.309 73.613,939.054 76.182,939.054 70.354,929.8 73.442,929.8 67.101,920.206 70.012,920.206 64.014,910.954 
			67.271,910.954 61.275,901.7 64.186,901.7 		"/>
		<polygon fill="#FFFFFF" points="57.333,892.106 57.333,967.156 28.89,967.156 34.887,957.56 32.318,957.56 38.144,948.309 
			35.399,948.309 41.056,939.054 38.486,939.054 44.312,929.8 41.228,929.8 47.568,920.206 44.654,920.206 50.65,910.954 
			47.395,910.954 53.395,901.7 50.477,901.7 		"/>
	</g>
	<g>
		<polygon fill="#D1D3D4" points="487.609,892.106 487.609,967.156 516.055,967.156 510.053,957.56 512.625,957.56 506.801,948.309 
			509.541,948.309 503.889,939.054 506.456,939.054 500.629,929.8 503.717,929.8 497.376,920.206 500.287,920.206 494.29,910.954 
			497.546,910.954 491.55,901.7 494.461,901.7 		"/>
		<polygon fill="#FFFFFF" points="487.609,892.106 487.609,967.156 459.165,967.156 465.163,957.56 462.593,957.56 468.419,948.309 
			465.674,948.309 471.331,939.054 468.761,939.054 474.587,929.8 471.503,929.8 477.844,920.206 474.929,920.206 480.926,910.954 
			477.669,910.954 483.669,901.7 480.752,901.7 		"/>
	</g>
	<g>
		<polygon fill="#D1D3D4" points="528.981,892.106 528.981,967.156 557.427,967.156 551.426,957.56 553.997,957.56 548.173,948.309 
			550.914,948.309 545.261,939.054 547.829,939.054 542.002,929.8 545.09,929.8 538.749,920.206 541.66,920.206 535.662,910.954 
			538.918,910.954 532.923,901.7 535.834,901.7 		"/>
		<polygon fill="#FFFFFF" points="528.981,892.106 528.981,967.156 500.538,967.156 506.535,957.56 503.965,957.56 509.792,948.309 
			507.047,948.309 512.703,939.054 510.134,939.054 515.96,929.8 512.876,929.8 519.216,920.206 516.302,920.206 522.298,910.954 
			519.042,910.954 525.042,901.7 522.125,901.7 		"/>
	</g>
	<g>
		<g>
			<polygon fill="#D1D3D4" points="1387.653,851.014 1387.653,967.291 1343.582,967.291 1352.88,952.422 1348.895,952.422 
				1357.919,938.09 1353.673,938.09 1362.43,923.752 1358.452,923.752 1367.479,909.413 1362.695,909.413 1372.521,894.55 
				1368.01,894.55 1377.304,880.214 1372.258,880.214 1381.547,865.877 1377.037,865.877 			"/>
			<polygon fill="#FFFFFF" points="1387.653,851.014 1387.653,967.291 1431.724,967.291 1422.431,952.422 1426.412,952.422 
				1417.385,938.09 1421.638,938.09 1412.874,923.752 1416.855,923.752 1407.829,909.413 1412.606,909.413 1402.783,894.55 
				1407.299,894.55 1398.009,880.214 1403.054,880.214 1393.758,865.877 1398.277,865.877 			"/>
		</g>
		<g>
			<polygon fill="#D1D3D4" points="1565.556,851.659 1565.556,967.937 1521.483,967.937 1530.782,953.067 1526.797,953.067 
				1535.82,938.735 1531.575,938.735 1540.333,924.398 1536.354,924.398 1545.382,910.059 1540.598,910.059 1550.423,895.194 
				1545.912,895.194 1555.206,880.859 1550.16,880.859 1559.449,866.523 1554.938,866.523 			"/>
			<polygon fill="#FFFFFF" points="1565.556,851.659 1565.556,967.937 1609.625,967.937 1600.333,953.067 1604.314,953.067 
				1595.288,938.735 1599.54,938.735 1590.775,924.398 1594.758,924.398 1585.73,910.059 1590.509,910.059 1580.686,895.194 
				1585.201,895.194 1575.91,880.859 1580.955,880.859 1571.659,866.523 1576.179,866.523 			"/>
		</g>
		<g>
			<polygon fill="#D1D3D4" points="1338.569,872.61 1338.569,966.763 1302.883,966.763 1310.412,954.724 1307.186,954.724 
				1314.492,943.117 1311.055,943.117 1318.146,931.507 1314.924,931.507 1322.234,919.898 1318.361,919.898 1326.316,907.862 
				1322.664,907.862 1330.188,896.256 1326.104,896.256 1333.625,884.646 1329.973,884.646 			"/>
			<polygon fill="#FFFFFF" points="1338.569,872.61 1338.569,966.763 1374.253,966.763 1366.729,954.724 1369.952,954.724 
				1362.644,943.117 1366.087,943.117 1358.99,931.507 1362.214,931.507 1354.905,919.898 1358.774,919.898 1350.82,907.862 
				1354.477,907.862 1346.954,896.256 1351.039,896.256 1343.512,884.646 1347.171,884.646 			"/>
		</g>
		<g>
			<polygon fill="#D1D3D4" points="1530.276,873.256 1530.276,967.408 1494.592,967.408 1502.121,955.368 1498.894,955.368 
				1506.201,943.763 1502.763,943.763 1509.854,932.152 1506.632,932.152 1513.942,920.544 1510.068,920.544 1518.023,908.507 
				1514.372,908.507 1521.896,896.901 1517.811,896.901 1525.332,885.291 1521.682,885.291 			"/>
			<polygon fill="#FFFFFF" points="1530.276,873.256 1530.276,967.408 1565.961,967.408 1558.438,955.368 1561.66,955.368 
				1554.352,943.763 1557.795,943.763 1550.698,932.152 1553.922,932.152 1546.613,920.544 1550.482,920.544 1542.528,908.507 
				1546.185,908.507 1538.662,896.901 1542.746,896.901 1535.22,885.291 1538.879,885.291 			"/>
		</g>
		<g>
			<polygon fill="#D1D3D4" points="1617.605,892.106 1617.605,967.156 1589.159,967.156 1595.16,957.56 1592.59,957.56 
				1598.414,948.309 1595.672,948.309 1601.325,939.054 1598.758,939.054 1604.584,929.8 1601.496,929.8 1607.838,920.206 
				1604.927,920.206 1610.925,910.954 1607.668,910.954 1613.663,901.7 1610.753,901.7 			"/>
		</g>
		<g>
			<polygon fill="#D1D3D4" points="1479.007,892.106 1479.007,967.156 1450.562,967.156 1456.562,957.56 1453.99,957.56 
				1459.814,948.309 1457.074,948.309 1462.728,939.054 1460.158,939.054 1465.986,929.8 1462.898,929.8 1469.239,920.206 
				1466.328,920.206 1472.326,910.954 1469.07,910.954 1475.065,901.7 1472.154,901.7 			"/>
			<polygon fill="#FFFFFF" points="1479.007,892.106 1479.007,967.156 1507.45,967.156 1501.453,957.56 1504.023,957.56 
				1498.196,948.309 1500.941,948.309 1495.285,939.054 1497.854,939.054 1492.028,929.8 1495.112,929.8 1488.771,920.206 
				1491.687,920.206 1485.69,910.954 1488.945,910.954 1482.946,901.7 1485.863,901.7 			"/>
		</g>
		<g>
			<polygon fill="#D1D3D4" points="1437.635,892.106 1437.635,967.156 1409.188,967.156 1415.189,957.56 1412.618,957.56 
				1418.442,948.309 1415.701,948.309 1421.354,939.054 1418.786,939.054 1424.613,929.8 1421.526,929.8 1427.867,920.206 
				1424.955,920.206 1430.953,910.954 1427.697,910.954 1433.692,901.7 1430.781,901.7 			"/>
			<polygon fill="#FFFFFF" points="1437.635,892.106 1437.635,967.156 1466.078,967.156 1460.08,957.56 1462.65,957.56 
				1456.824,948.309 1459.568,948.309 1453.912,939.054 1456.481,939.054 1450.656,929.8 1453.74,929.8 1447.399,920.206 
				1450.313,920.206 1444.317,910.954 1447.573,910.954 1441.574,901.7 1444.49,901.7 			"/>
		</g>
	</g>
	<g>
		<polygon fill="#D1D3D4" points="241.887,870.675 241.887,964.827 277.573,964.827 270.044,952.787 273.271,952.787 
			265.964,941.181 269.402,941.181 262.31,929.571 265.533,929.571 258.222,917.962 262.096,917.962 254.141,905.926 
			257.792,905.926 250.268,894.319 254.354,894.319 246.832,882.71 250.483,882.71 		"/>
		<polygon fill="#FFFFFF" points="241.887,870.675 241.887,964.827 206.204,964.827 213.727,952.787 210.504,952.787 
			217.813,941.181 214.37,941.181 221.466,929.571 218.242,929.571 225.551,917.962 221.682,917.962 229.636,905.926 
			225.98,905.926 233.503,894.319 229.418,894.319 236.945,882.71 233.285,882.71 		"/>
	</g>
	<g>
		<polygon fill="#D1D3D4" points="20.804,871.71 20.804,965.862 56.49,965.862 48.961,953.821 52.188,953.821 44.881,942.216 
			48.319,942.216 41.228,930.606 44.45,930.606 37.139,918.995 41.013,918.995 33.058,906.96 36.709,906.96 29.185,895.354 
			33.271,895.354 25.75,883.744 29.4,883.744 		"/>
		<polygon fill="#FFFFFF" points="20.804,871.71 20.804,965.862 -14.879,965.862 -7.355,953.821 -10.579,953.821 -3.27,942.216 
			-6.713,942.216 0.383,930.606 -2.84,930.606 4.468,918.995 0.599,918.995 8.553,906.96 4.897,906.96 12.42,895.354 8.335,895.354 
			15.862,883.744 12.203,883.744 		"/>
	</g>
	<rect x="82.318" y="960.221" fill="#FFFFFF" width="130.324" height="4.138"/>
	<g>
		<polygon fill="#47BCB6" points="92.195,818.377 87.074,922.497 111.539,922.497 107.557,817.81 		"/>
		<polygon fill="#FFFFFF" points="91.737,827.678 91.334,835.852 108.136,835.901 107.834,827.678 		"/>
		<polygon fill="#FFFFFF" points="90.761,846.2 90.375,854.341 108.895,854.308 108.591,846.2 		"/>
		<polygon fill="#FFFFFF" points="89.786,865.092 89.383,873.165 109.634,873.165 109.331,865.058 		"/>
		<polygon fill="#FFFFFF" points="88.845,884.534 88.407,892.608 110.407,892.574 110.071,884.501 		"/>
		<polygon fill="#FFFFFF" points="87.869,904.65 87.465,912.76 111.147,912.795 110.812,904.619 		"/>
	</g>
	<g>
		<polygon fill="#47BCB6" points="128.416,818.546 123.295,922.665 147.76,922.665 143.778,817.977 		"/>
		<polygon fill="#FFFFFF" points="127.958,827.846 127.555,836.021 144.357,836.07 144.056,827.846 		"/>
		<polygon fill="#FFFFFF" points="126.983,846.368 126.597,854.509 145.116,854.475 144.812,846.368 		"/>
		<polygon fill="#FFFFFF" points="126.008,865.261 125.604,873.333 145.855,873.333 145.552,865.226 		"/>
		<polygon fill="#FFFFFF" points="125.065,884.702 124.628,892.777 146.629,892.743 146.292,884.668 		"/>
		<polygon fill="#FFFFFF" points="124.09,904.821 123.687,912.927 147.369,912.962 147.033,904.787 		"/>
	</g>
	<polygon fill="#FFFFFF" points="202.408,922.256 202.408,909.89 171.922,895.754 171.922,922.256 167.946,922.256 167.946,909.89 
		137.464,895.754 137.464,922.256 127.737,922.256 127.737,922.366 114.487,922.366 114.487,922.256 109.18,922.256 109.18,922.317 
		95.93,922.317 95.93,922.256 84.444,922.256 84.444,959.368 211.687,959.368 211.687,922.256 	"/>
	<g>
		<path fill="#FFFFFF" d="M165.348,509.587l0.864,3.076l-5.198,1.46l4.017,14.298l-3.654,1.026l-4.016-14.298l-5.222,1.467
			l-0.864-3.076L165.348,509.587z"/>
		<path fill="#FFFFFF" d="M178.84,506.373c0.716,0.101,1.371,0.358,1.962,0.772c0.489,0.341,0.915,0.749,1.275,1.226
			c0.361,0.477,0.636,1.058,0.823,1.742c0.226,0.827,0.239,1.697,0.04,2.61c-0.199,0.913-0.733,1.666-1.604,2.259
			c0.892,0.104,1.585,0.407,2.082,0.91c0.497,0.503,0.913,1.364,1.246,2.585l0.319,1.169c0.217,0.795,0.396,1.326,0.538,1.592
			c0.219,0.423,0.533,0.692,0.943,0.809l0.119,0.437l-4.015,1.098c-0.216-0.355-0.379-0.646-0.491-0.868
			c-0.228-0.463-0.416-0.948-0.564-1.458l-0.466-1.611c-0.318-1.107-0.712-1.794-1.182-2.063c-0.47-0.27-1.211-0.266-2.224,0.011
			l-3.552,0.972l1.865,6.826l-3.555,0.971l-4.757-17.408l8.327-2.275C177.167,506.374,178.124,506.273,178.84,506.373z
			 M172.026,511.003l1.278,4.677l3.915-1.07c0.778-0.212,1.335-0.466,1.672-0.762c0.598-0.519,0.763-1.266,0.496-2.242
			c-0.288-1.055-0.814-1.673-1.579-1.853c-0.43-0.103-1.019-0.052-1.766,0.152L172.026,511.003z"/>
		<path fill="#FFFFFF" d="M202.782,516.523c-0.959,1.706-2.684,2.889-5.178,3.549c-2.493,0.66-4.578,0.485-6.255-0.523
			c-2.208-1.197-3.727-3.362-4.556-6.494c-0.846-3.196-0.597-5.828,0.747-7.899c0.958-1.705,2.685-2.889,5.178-3.549
			c2.494-0.659,4.579-0.485,6.255,0.523c2.184,1.136,3.698,3.302,4.544,6.497C204.345,511.762,204.101,514.394,202.782,516.523z
			 M199.802,514.476c0.566-1.29,0.589-2.917,0.069-4.882c-0.518-1.957-1.343-3.358-2.474-4.202
			c-1.131-0.845-2.419-1.076-3.863-0.693c-1.444,0.382-2.455,1.22-3.033,2.512c-0.578,1.293-0.607,2.922-0.087,4.887
			c0.52,1.965,1.351,3.366,2.493,4.203c1.142,0.838,2.435,1.065,3.879,0.684C198.23,516.601,199.235,515.766,199.802,514.476z"/>
		<path fill="#FFFFFF" d="M218.378,506.093c-0.804,1.116-2.156,1.918-4.056,2.404l-3.64,0.934l1.612,6.285l-3.629,0.931
			l-4.482-17.48l7.505-1.925c1.73-0.443,3.226-0.347,4.485,0.291c1.26,0.638,2.132,1.901,2.617,3.79
			C219.32,503.386,219.183,504.977,218.378,506.093z M213.976,500.51c-0.562-0.269-1.259-0.296-2.093-0.082l-3.292,0.844l1.32,5.147
			l3.292-0.845c0.833-0.214,1.428-0.589,1.783-1.127c0.355-0.537,0.416-1.261,0.183-2.17
			C214.935,501.368,214.538,500.779,213.976,500.51z"/>
		<path fill="#FFFFFF" d="M237.842,507.63c-0.985,1.69-2.729,2.847-5.232,3.468c-2.503,0.622-4.585,0.415-6.247-0.619
			c-2.189-1.23-3.674-3.419-4.455-6.563c-0.796-3.208-0.507-5.837,0.868-7.886c0.985-1.69,2.729-2.847,5.232-3.468
			c2.503-0.622,4.585-0.415,6.247,0.619c2.165,1.17,3.647,3.358,4.443,6.566C239.479,502.893,239.193,505.52,237.842,507.63z
			 M234.894,505.536c0.586-1.281,0.634-2.908,0.145-4.881c-0.487-1.964-1.291-3.377-2.408-4.239
			c-1.118-0.862-2.402-1.113-3.852-0.754c-1.45,0.36-2.474,1.183-3.072,2.466c-0.598,1.284-0.652,2.912-0.163,4.885
			c0.49,1.973,1.299,3.386,2.428,4.241c1.128,0.855,2.418,1.103,3.868,0.743C233.29,507.637,234.308,506.816,234.894,505.536z"/>
		<path fill="#FFFFFF" d="M244.963,501.816c0.306,0.774,0.672,1.32,1.1,1.637c0.781,0.577,1.909,0.688,3.384,0.334
			c0.883-0.212,1.578-0.48,2.083-0.803c0.958-0.615,1.317-1.42,1.08-2.412c-0.139-0.579-0.503-0.966-1.091-1.16
			c-0.587-0.187-1.464-0.266-2.633-0.237l-2,0.04c-1.966,0.035-3.357-0.105-4.171-0.422c-1.377-0.525-2.272-1.649-2.686-3.372
			c-0.377-1.571-0.112-3.016,0.795-4.333c0.907-1.317,2.481-2.245,4.723-2.783c1.872-0.449,3.586-0.343,5.144,0.32
			c1.557,0.663,2.591,1.919,3.104,3.769l-3.524,0.846c-0.318-1.039-0.97-1.676-1.956-1.91c-0.656-0.152-1.419-0.125-2.29,0.084
			c-0.968,0.232-1.696,0.608-2.182,1.129c-0.486,0.52-0.647,1.12-0.483,1.803c0.15,0.627,0.548,1.027,1.192,1.2
			c0.415,0.118,1.251,0.174,2.505,0.166l3.254-0.013c1.426-0.007,2.539,0.175,3.341,0.545c1.244,0.574,2.054,1.643,2.429,3.207
			c0.385,1.603,0.085,3.083-0.9,4.44c-0.985,1.357-2.608,2.307-4.871,2.85c-2.311,0.555-4.252,0.47-5.827-0.257
			c-1.574-0.726-2.58-2.001-3.018-3.827L244.963,501.816z"/>
		<path fill="#FFFFFF" d="M269.87,493.636c-0.83,1.098-2.199,1.869-4.109,2.313l-3.66,0.851l1.47,6.32l-3.649,0.849l-4.088-17.577
			l7.547-1.755c1.74-0.405,3.233-0.274,4.478,0.392c1.245,0.665,2.089,1.948,2.531,3.849
			C270.872,490.951,270.699,492.538,269.87,493.636z M265.594,487.956c-0.556-0.281-1.253-0.325-2.091-0.13l-3.31,0.77l1.204,5.176
			l3.31-0.771c0.838-0.194,1.441-0.557,1.808-1.086c0.367-0.53,0.445-1.252,0.232-2.166
			C266.534,488.835,266.149,488.237,265.594,487.956z"/>
		<path fill="#FFFFFF" d="M276.099,500.219l-3.957-17.608l3.655-0.821l1.509,6.713l6.845-1.538l-1.509-6.714l3.655-0.821
			l3.958,17.607l-3.655,0.821l-1.767-7.859l-6.845,1.538l1.767,7.859L276.099,500.219z"/>
		<path fill="#FFFFFF" d="M303.64,478.926l-9.332,2.025l0.812,3.744l8.567-1.858l0.665,3.062l-8.566,1.859l0.984,4.534l9.763-2.118
			l0.688,3.171l-13.365,2.899l-3.827-17.636l12.934-2.807L303.64,478.926z"/>
		<path fill="#FFFFFF" d="M317.784,473.162c0.709,0.145,1.346,0.44,1.912,0.889c0.468,0.369,0.867,0.803,1.199,1.3
			c0.332,0.498,0.57,1.095,0.716,1.789c0.176,0.839,0.137,1.709-0.117,2.608c-0.254,0.9-0.833,1.619-1.737,2.159
			c0.883,0.157,1.558,0.502,2.024,1.033c0.465,0.532,0.828,1.418,1.087,2.656l0.249,1.186c0.169,0.807,0.315,1.347,0.441,1.621
			c0.192,0.435,0.49,0.723,0.892,0.864l0.093,0.443l-4.074,0.853c-0.194-0.368-0.34-0.667-0.438-0.897
			c-0.2-0.476-0.358-0.972-0.474-1.489l-0.368-1.638c-0.251-1.123-0.603-1.833-1.055-2.13c-0.453-0.298-1.193-0.339-2.221-0.124
			l-3.605,0.755l1.45,6.927l-3.607,0.754l-3.696-17.663l8.449-1.769C316.114,473.061,317.075,473.02,317.784,473.162z
			 M310.702,477.371l0.993,4.746l3.972-0.831c0.789-0.166,1.361-0.386,1.715-0.659c0.628-0.483,0.838-1.218,0.631-2.209
			c-0.224-1.07-0.712-1.719-1.464-1.945c-0.423-0.128-1.014-0.112-1.772,0.046L310.702,477.371z"/>
		<path fill="#FFFFFF" d="M337.903,471.86l-9.362,1.887l0.757,3.757l8.593-1.732l0.619,3.073l-8.593,1.732l0.917,4.549l9.794-1.974
			l0.641,3.181l-13.406,2.701l-3.565-17.69l12.974-2.614L337.903,471.86z"/>
	</g>
	<g>
		<path fill="#FFFFFF" d="M131.724,448.846c0.349,0.787,0.75,1.336,1.205,1.646c0.83,0.561,1.998,0.629,3.503,0.201
			c0.901-0.257,1.605-0.562,2.112-0.917c0.96-0.677,1.296-1.522,1.007-2.537c-0.169-0.593-0.56-0.977-1.175-1.153
			c-0.613-0.168-1.521-0.212-2.725-0.133l-2.06,0.125c-2.025,0.12-3.464,0.033-4.317-0.259c-1.442-0.485-2.413-1.608-2.914-3.37
			c-0.458-1.607-0.247-3.11,0.631-4.51c0.878-1.398,2.46-2.424,4.747-3.074c1.91-0.543,3.682-0.505,5.315,0.113
			c1.633,0.619,2.754,1.873,3.362,3.763l-3.595,1.022c-0.374-1.061-1.073-1.691-2.099-1.891c-0.684-0.13-1.469-0.069-2.357,0.184
			c-0.988,0.281-1.721,0.7-2.2,1.257c-0.479,0.558-0.619,1.185-0.42,1.884c0.182,0.642,0.609,1.037,1.28,1.189
			c0.434,0.105,1.297,0.127,2.59,0.066l3.353-0.151c1.469-0.066,2.625,0.074,3.467,0.423c1.308,0.541,2.188,1.61,2.643,3.21
			c0.466,1.64,0.221,3.181-0.735,4.624c-0.956,1.443-2.588,2.494-4.896,3.15c-2.357,0.67-4.363,0.664-6.017-0.02
			c-1.654-0.684-2.746-1.958-3.277-3.825L131.724,448.846z"/>
		<path fill="#FFFFFF" d="M155.221,428.863l0.882,3.185l-5.366,1.486l4.1,14.799l-3.772,1.046l-4.1-14.799l-5.391,1.493
			l-0.882-3.184L155.221,428.863z"/>
		<path fill="#FFFFFF" d="M169.134,425.606c0.738,0.107,1.413,0.376,2.021,0.806c0.503,0.354,0.941,0.778,1.312,1.272
			c0.371,0.495,0.652,1.096,0.843,1.805c0.23,0.856,0.242,1.756,0.034,2.699c-0.208,0.942-0.762,1.719-1.662,2.328
			c0.919,0.111,1.634,0.428,2.146,0.95c0.511,0.522,0.937,1.414,1.277,2.678l0.326,1.21c0.222,0.823,0.405,1.372,0.55,1.648
			c0.224,0.438,0.547,0.718,0.97,0.84l0.122,0.452l-4.145,1.116c-0.221-0.368-0.389-0.668-0.504-0.899
			c-0.233-0.478-0.426-0.982-0.577-1.51l-0.476-1.668c-0.325-1.146-0.729-1.857-1.213-2.139c-0.484-0.28-1.249-0.279-2.294,0.002
			l-3.668,0.988l1.904,7.066l-3.67,0.989l-4.854-18.018l8.596-2.315C167.408,425.6,168.395,425.5,169.134,425.606z M162.09,430.362
			l1.304,4.841l4.042-1.089c0.803-0.216,1.378-0.477,1.727-0.78c0.618-0.533,0.791-1.306,0.519-2.315
			c-0.294-1.093-0.835-1.733-1.623-1.923c-0.443-0.108-1.051-0.058-1.823,0.15L162.09,430.362z"/>
		<path fill="#FFFFFF" d="M180.782,422.028l4.258-1.112l11.087,16.392l-4.081,1.065l-2.158-3.401l-6.632,1.732l-0.251,4.03
			l-3.936,1.027L180.782,422.028z M183.467,433.325l4.612-1.204l-4.13-6.511L183.467,433.325z"/>
		<path fill="#FFFFFF" d="M206.926,415.321l0.812,3.202l-5.398,1.369l3.774,14.885l-3.795,0.962l-3.773-14.885l-5.423,1.375
			l-0.812-3.203L206.926,415.321z"/>
		<path fill="#FFFFFF" d="M227.194,427.838c-1.019,1.746-2.82,2.936-5.404,3.57s-4.731,0.415-6.442-0.66
			c-2.256-1.279-3.784-3.546-4.583-6.8c-0.815-3.319-0.512-6.036,0.911-8.149c1.019-1.745,2.82-2.935,5.404-3.569
			c2.583-0.635,4.73-0.415,6.442,0.659c2.231,1.216,3.755,3.483,4.571,6.803C228.892,422.945,228.592,425.661,227.194,427.838z
			 M224.157,425.664c0.607-1.322,0.66-3.004,0.159-5.045c-0.499-2.032-1.325-3.496-2.476-4.391
			c-1.152-0.894-2.476-1.158-3.972-0.791c-1.496,0.368-2.554,1.214-3.173,2.54c-0.619,1.325-0.678,3.008-0.177,5.049
			c0.501,2.041,1.333,3.505,2.497,4.393c1.163,0.888,2.492,1.147,3.988,0.78C222.498,427.832,223.55,426.986,224.157,425.664z"/>
		<path fill="#FFFFFF" d="M234.562,421.849c0.314,0.802,0.691,1.367,1.132,1.696c0.805,0.598,1.968,0.717,3.49,0.355
			c0.911-0.216,1.628-0.49,2.15-0.822c0.989-0.634,1.362-1.464,1.118-2.491c-0.142-0.599-0.517-1-1.123-1.203
			c-0.605-0.194-1.51-0.279-2.716-0.253l-2.063,0.034c-2.028,0.031-3.462-0.118-4.302-0.448c-1.419-0.548-2.341-1.713-2.764-3.494
			c-0.386-1.626-0.11-3.118,0.828-4.478c0.939-1.359,2.564-2.313,4.878-2.863c1.932-0.459,3.7-0.343,5.305,0.347
			c1.605,0.69,2.669,1.993,3.194,3.906l-3.636,0.864c-0.327-1.076-0.998-1.736-2.014-1.981c-0.677-0.16-1.464-0.134-2.363,0.08
			c-0.999,0.237-1.75,0.624-2.253,1.159c-0.502,0.536-0.67,1.157-0.502,1.863c0.154,0.648,0.563,1.063,1.227,1.244
			c0.429,0.124,1.29,0.184,2.585,0.18l3.357-0.003c1.471-0.003,2.619,0.188,3.445,0.573c1.282,0.599,2.115,1.706,2.499,3.323
			c0.394,1.659,0.081,3.189-0.938,4.588c-1.019,1.4-2.695,2.377-5.03,2.932c-2.384,0.566-4.388,0.472-6.01-0.283
			c-1.622-0.756-2.658-2.078-3.106-3.967L234.562,421.849z"/>
		<path fill="#FFFFFF" d="M260.279,413.467c-0.857,1.133-2.272,1.926-4.243,2.379l-3.777,0.868l1.503,6.539l-3.766,0.866
			l-4.182-18.186l7.789-1.791c1.795-0.413,3.335-0.273,4.618,0.418c1.283,0.692,2.151,2.022,2.603,3.987
			C261.318,410.694,261.136,412.334,260.279,413.467z M255.879,407.581c-0.573-0.293-1.292-0.34-2.156-0.141l-3.416,0.785
			l1.231,5.355l3.416-0.785c0.865-0.199,1.487-0.571,1.867-1.118c0.38-0.546,0.461-1.292,0.244-2.238
			C256.847,408.493,256.452,407.873,255.879,407.581z"/>
		<path fill="#FFFFFF" d="M266.672,420.296l-4.047-18.216l3.772-0.838l1.543,6.945l7.064-1.569l-1.543-6.945l3.772-0.838
			l4.046,18.216l-3.772,0.838l-1.807-8.132l-7.064,1.569l1.807,8.132L266.672,420.296z"/>
		<path fill="#FFFFFF" d="M295.133,398.364l-9.63,2.065l0.831,3.874l8.84-1.896l0.679,3.169l-8.84,1.896l1.005,4.691l10.076-2.16
			l0.703,3.28l-13.792,2.957l-3.911-18.246l13.347-2.861L295.133,398.364z"/>
		<path fill="#FFFFFF" d="M309.717,392.455c0.731,0.15,1.388,0.459,1.97,0.924c0.481,0.384,0.893,0.833,1.234,1.349
			c0.341,0.516,0.586,1.133,0.734,1.852c0.18,0.868,0.137,1.767-0.126,2.695c-0.264,0.93-0.863,1.672-1.797,2.227
			c0.911,0.165,1.606,0.523,2.086,1.075c0.479,0.552,0.852,1.468,1.116,2.749l0.253,1.228c0.173,0.835,0.323,1.394,0.452,1.678
			c0.198,0.45,0.504,0.749,0.919,0.896l0.095,0.459l-4.205,0.869c-0.199-0.382-0.349-0.691-0.45-0.929
			c-0.205-0.492-0.367-1.006-0.486-1.541l-0.376-1.693c-0.256-1.162-0.618-1.897-1.084-2.207c-0.466-0.309-1.23-0.353-2.29-0.134
			l-3.72,0.769l1.48,7.166l-3.722,0.768l-3.776-18.273l8.719-1.802C307.995,392.346,308.986,392.305,309.717,392.455z
			 M302.403,396.784l1.015,4.909l4.099-0.847c0.814-0.168,1.404-0.394,1.77-0.676c0.648-0.496,0.867-1.257,0.655-2.281
			c-0.229-1.107-0.731-1.779-1.506-2.016c-0.436-0.134-1.045-0.12-1.828,0.041L302.403,396.784z"/>
		<path fill="#FFFFFF" d="M330.482,391.169l-9.66,1.922l0.773,3.887l8.868-1.765l0.632,3.179l-8.867,1.764l0.936,4.706l10.106-2.01
			l0.654,3.29l-13.834,2.752l-3.64-18.302l13.388-2.663L330.482,391.169z"/>
	</g>
	<g>
		<circle fill-rule="evenodd" clip-rule="evenodd" fill="#FFFFFF" cx="1423.45" cy="123.045" r="55.788"/>
		<g>
			<polygon fill-rule="evenodd" clip-rule="evenodd" fill="#FFFFFF" points="1423.326,45.522 1423.326,45.348 1423.414,45.436 
				1423.5,45.348 1423.5,45.522 1435.551,57.572 1423.5,57.572 1423.326,57.572 1411.277,57.572 			"/>
			<polygon fill-rule="evenodd" clip-rule="evenodd" fill="#FFFFFF" points="1423.326,204.54 1423.326,204.715 1423.414,204.627 
				1423.5,204.715 1423.5,204.54 1435.551,192.49 1423.5,192.49 1423.326,192.49 1411.277,192.49 			"/>
		</g>
		<g>
			<polygon fill-rule="evenodd" clip-rule="evenodd" fill="#FFFFFF" points="1383.584,56.219 1383.496,56.066 1383.615,56.1 
				1383.648,55.98 1383.734,56.131 1400.197,60.541 1389.76,66.566 1389.607,66.654 1379.174,72.678 			"/>
			<polygon fill-rule="evenodd" clip-rule="evenodd" fill="#FFFFFF" points="1463.092,193.932 1463.18,194.084 1463.211,193.963 
				1463.33,193.996 1463.242,193.844 1467.656,177.385 1457.221,183.409 1457.066,183.498 1446.631,189.521 			"/>
		</g>
		<g>
			<polygon fill-rule="evenodd" clip-rule="evenodd" fill="#FFFFFF" points="1354.514,85.354 1354.359,85.266 1354.482,85.234 
				1354.449,85.114 1354.6,85.201 1371.061,80.791 1365.037,91.227 1364.947,91.379 1358.924,101.812 			"/>
			<polygon fill-rule="evenodd" clip-rule="evenodd" fill="#FFFFFF" points="1492.227,164.863 1492.377,164.95 1492.346,164.83 
				1492.465,164.799 1492.312,164.711 1487.904,148.25 1481.879,158.686 1481.791,158.838 1475.768,169.273 			"/>
		</g>
		<g>
			<polygon fill-rule="evenodd" clip-rule="evenodd" fill="#FFFFFF" points="1343.906,125.121 1343.729,125.119 1343.818,125.031 
				1343.729,124.944 1343.904,124.944 1355.955,112.895 1355.955,124.944 1355.955,125.121 1355.955,137.168 			"/>
			<polygon fill-rule="evenodd" clip-rule="evenodd" fill="#FFFFFF" points="1502.922,125.121 1503.096,125.121 1503.01,125.031 
				1503.096,124.944 1502.922,124.944 1490.871,112.893 1490.871,124.944 1490.871,125.121 1490.871,137.168 			"/>
		</g>
		<g>
			<polygon fill-rule="evenodd" clip-rule="evenodd" fill="#FFFFFF" points="1354.6,164.861 1354.449,164.949 1354.482,164.83 
				1354.359,164.798 1354.514,164.711 1358.924,148.25 1364.947,158.685 1365.037,158.838 1371.061,169.271 			"/>
			<polygon fill-rule="evenodd" clip-rule="evenodd" fill="#FFFFFF" points="1492.314,85.354 1492.467,85.266 1492.346,85.234 
				1492.377,85.114 1492.227,85.201 1475.768,80.79 1481.791,91.227 1481.881,91.377 1487.902,101.811 			"/>
		</g>
		<g>
			<polygon fill-rule="evenodd" clip-rule="evenodd" fill="#FFFFFF" points="1383.736,193.932 1383.648,194.084 1383.615,193.963 
				1383.496,193.996 1383.584,193.844 1379.172,177.383 1389.607,183.408 1389.762,183.496 1400.195,189.521 			"/>
			<polygon fill-rule="evenodd" clip-rule="evenodd" fill="#FFFFFF" points="1463.246,56.219 1463.332,56.066 1463.213,56.1 
				1463.18,55.98 1463.092,56.131 1446.631,60.541 1457.068,66.566 1457.223,66.653 1467.656,72.678 			"/>
		</g>
	</g>
	<path opacity="0.5" fill="#D1DE58" d="M98.126,800.315c-2.699-10.609,8.849-22.359,19.17-30.447
		c14.825-11.616,21.685-24.334,34.947-37.033c9.258-8.865,16.976-15.759,23.129-26.53c4.999-8.751,6.874-18.997,11.206-28.247
		c7.104-15.163,25.781-24.173,37.469-36.789c15.43-16.657,20.571-39.489,37.565-53.799c12.519-10.543,27.451-16.85,45.636-18.486
		c29.03-2.613,102.738,11.918,65.5,45.727c-24.114,21.895-67.427,27.002-90.46,46.891c-13.628,11.768-30.731,21.094-42.718,33.412
		c-12.21,12.547-23.62,24.521-34.944,37.317c-9.688,10.948-22.452,17.628-32.63,26.276c-9.77,8.301-6.248,17.141-12.75,27.107
		c-5.116,7.844-13.748,17.174-25.157,15.904c-4.312-0.48-21.288-15.865-24.225-0.252c-2.32,0.617-6.157,0.539-8.512,0.029
		c-0.333-1.641-0.209-3.212-0.227-4.898"/>
	<g>
		<defs>
			<rect id="SVGID_5_" y="230.559" width="1600" height="344.441"/>
		</defs>
		<clipPath id="SVGID_2_">
			<use xlink:href="#SVGID_5_"  overflow="visible"/>
		</clipPath>
		<path opacity="0.5" clip-path="url(#SVGID_2_)" fill="#FFFFFF" d="M800,303.523c-1402.173,0-2538.859,1118.705-2538.859,2498.697
			S-602.173,5300.918,800,5300.918s2538.859-1118.705,2538.859-2498.697S2202.174,303.523,800,303.523z M800,5205.756
			c-1327.436,0-2403.536-1076.1-2403.536-2403.535c0-1327.438,1076.1-2403.536,2403.536-2403.536
			s2403.536,1076.099,2403.536,2403.536C3203.536,4129.656,2127.438,5205.756,800,5205.756z"/>
		<path clip-path="url(#SVGID_2_)" fill="#D1DE58" d="M800,230.559c-1490.501,0-2698.792,1104.738-2698.792,2571.662
			c0,1466.922,1208.291,2656.1,2698.792,2656.1s2698.792-1189.178,2698.792-2656.1C3498.793,1335.297,2290.502,230.559,800,230.559z
			 M800,5324.457c-1415.382,0-2562.777-1129.244-2562.777-2522.236S-615.382,279.984,800,279.984
			s2562.777,1129.244,2562.777,2522.236S2215.384,5324.457,800,5324.457z"/>
	</g>
	<g>
		<path fill="#FFFFFF" d="M130.408,349.609c-1.003,1.848-2.837,3.143-5.502,3.885c-2.665,0.742-4.904,0.581-6.718-0.482
			c-2.386-1.26-4.047-3.57-4.982-6.931c-0.955-3.428-0.727-6.264,0.684-8.508c1.003-1.848,2.837-3.143,5.502-3.885
			c2.664-0.742,4.904-0.581,6.718,0.482c2.359,1.194,4.016,3.506,4.97,6.934C132.016,344.465,131.792,347.3,130.408,349.609z
			 M127.181,347.443c0.588-1.395,0.589-3.146,0.002-5.254c-0.584-2.099-1.49-3.596-2.715-4.49c-1.226-0.895-2.61-1.127-4.154-0.697
			c-1.543,0.43-2.615,1.344-3.216,2.742c-0.601,1.398-0.608,3.152-0.021,5.26c0.587,2.107,1.499,3.604,2.736,4.491
			c1.237,0.887,2.627,1.115,4.171,0.686C125.527,349.751,126.593,348.838,127.181,347.443z"/>
		<path fill="#FFFFFF" d="M134.42,346.741l6.271-14.706l-9.309,2.518l-0.898-3.32l14.159-3.829l0.85,3.143l-6.347,14.918
			l9.699-2.623l0.895,3.308l-14.425,3.9L134.42,346.741z"/>
		<path fill="#FFFFFF" d="M166.416,339.971c-1.031,1.833-2.884,3.101-5.559,3.803c-2.676,0.702-4.913,0.508-6.71-0.582
			c-2.367-1.296-3.994-3.63-4.879-7.004c-0.903-3.441-0.633-6.273,0.811-8.497c1.03-1.832,2.883-3.101,5.559-3.803
			c2.676-0.702,4.912-0.508,6.71,0.583c2.341,1.229,3.963,3.564,4.867,7.007C168.1,334.851,167.833,337.683,166.416,339.971z
			 M163.222,337.757c0.609-1.386,0.636-3.137,0.08-5.253c-0.553-2.107-1.436-3.617-2.648-4.53c-1.213-0.912-2.594-1.165-4.143-0.759
			c-1.55,0.407-2.635,1.305-3.257,2.694c-0.622,1.39-0.655,3.143-0.1,5.258c0.555,2.116,1.445,3.627,2.669,4.532
			c1.224,0.905,2.611,1.154,4.16,0.747C161.534,340.04,162.613,339.144,163.222,337.757z"/>
		<path fill="#FFFFFF" d="M167.8,321.328l4.109-1.043l10.78,11.237l-3.333-13.128l3.653-0.928l4.781,18.828l-3.919,0.995
			l-11.029-11.42l3.392,13.359l-3.652,0.927L167.8,321.328z"/>
		<path fill="#FFFFFF" d="M201.529,316.442l-9.946,2.447l0.985,4.005l9.13-2.246l0.806,3.276l-9.129,2.246l1.193,4.851l10.405-2.56
			l0.834,3.391l-14.243,3.504l-4.641-18.863l13.784-3.391L201.529,316.442z"/>
		<path fill="#FFFFFF" d="M211.624,310.478l3.937-0.927l3.654,15.508l9.407-2.216l0.801,3.399l-13.343,3.143L211.624,310.478z"/>
		<path fill="#FFFFFF" d="M233.124,305.463l4.461-1.018l10.997,17.417l-4.276,0.975l-2.133-3.608l-6.949,1.585l-0.391,4.184
			l-4.124,0.942L233.124,305.463z M235.552,317.305l4.833-1.103l-4.083-6.908L235.552,317.305z"/>
		<path fill="#FFFFFF" d="M257.539,299.998l4.475-0.986l-3.71,13.251l1.567,7.112l-3.95,0.87l-1.567-7.113l-9.152-10.416
			l4.655-1.025l5.745,7.397L257.539,299.998z"/>
		<path fill="#FFFFFF" d="M279.095,298.892l-10.018,2.133l0.859,4.034l9.195-1.957l0.703,3.3l-9.196,1.957l1.04,4.886l10.48-2.23
			l0.727,3.416l-14.346,3.053l-4.044-19l13.884-2.955L279.095,298.892z"/>
		<path fill="#FFFFFF" d="M294.273,292.763c0.76,0.158,1.443,0.48,2.048,0.966c0.5,0.399,0.927,0.868,1.282,1.405
			c0.354,0.537,0.608,1.181,0.762,1.929c0.185,0.904,0.14,1.84-0.135,2.806c-0.275,0.968-0.899,1.738-1.871,2.314
			c0.947,0.174,1.669,0.548,2.167,1.123c0.498,0.575,0.884,1.529,1.157,2.863l0.262,1.278c0.178,0.87,0.334,1.452,0.467,1.747
			c0.205,0.47,0.523,0.781,0.954,0.935l0.098,0.478l-4.374,0.897c-0.207-0.397-0.362-0.72-0.466-0.968
			c-0.212-0.512-0.38-1.047-0.503-1.604l-0.389-1.764c-0.265-1.21-0.64-1.977-1.125-2.299c-0.484-0.322-1.278-0.37-2.381-0.144
			l-3.87,0.793l1.531,7.463l-3.872,0.794l-3.903-19.03l9.069-1.859C292.483,292.646,293.514,292.604,294.273,292.763z
			 M286.662,297.257l1.048,5.112l4.264-0.875c0.847-0.174,1.461-0.407,1.842-0.7c0.675-0.516,0.903-1.307,0.685-2.374
			c-0.236-1.153-0.758-1.853-1.564-2.101c-0.453-0.14-1.087-0.127-1.901,0.04L286.662,297.257z"/>
	</g>
	<g>
		<g>
			<polyline fill="none" stroke="#FFFFFF" stroke-width="2" stroke-miterlimit="10" points="1349.842,188.379 1250.862,254.509 
				1130.942,177.057 			"/>
			<g>
				<polygon fill="#FFFFFF" points="1138.804,170.264 1118.886,169.27 1127.982,187.018 				"/>
			</g>
		</g>
	</g>
	<g>
		<g>
			<polyline fill="none" stroke="#FFFFFF" stroke-width="2" stroke-miterlimit="10" points="1367.663,198.602 1250.862,277.485 
				1130.942,200.033 			"/>
			<g>
				<polygon fill="#FFFFFF" points="1138.804,193.24 1118.886,192.247 1127.982,209.994 				"/>
			</g>
		</g>
	</g>
	<g>
		<g>
			<polyline fill="none" stroke="#FFFFFF" stroke-width="2" stroke-miterlimit="10" points="1383,211.89 1250.862,300.462 
				1130.942,223.01 			"/>
			<g>
				<polygon fill="#FFFFFF" points="1138.804,216.217 1118.886,215.224 1127.982,232.971 				"/>
			</g>
		</g>
	</g>
	<rect x="972.665" y="451.937" fill="#47BCB6" width="261.698" height="81.568"/>
	<polygon fill="#D1DE58" points="56.596,41.189 37.487,60.299 56.596,79.408 	"/>
	
		<rect x="72.233" y="759.134" opacity="0.8" fill="#3A9E99" stroke="#FFFFFF" stroke-miterlimit="10" width="230.728" height="81.568"/>
	
		<rect x="747.102" y="451.937" opacity="0.8" fill="#3A9E99" stroke="#FFFFFF" stroke-miterlimit="10" width="230.729" height="81.568"/>
	
		<rect x="1114.943" y="657.134" opacity="0.8" fill="#3A9E99" stroke="#FFFFFF" stroke-miterlimit="10" width="230.729" height="81.568"/>
	
		<rect x="471.104" y="759.134" opacity="0.8" fill="#3A9E99" stroke="#FFFFFF" stroke-miterlimit="10" width="230.729" height="81.568"/>
	<g>
		<circle fill="#21716E" cx="300.515" cy="799.918" r="40.784"/>
		<g>
			<g>
				<path fill="#D1DE58" d="M305.33,813.086c-2.778,2.861-6.794,4.292-12.05,4.292c-5.256,0-9.272-1.431-12.05-4.292
					c-3.726-3.509-5.589-8.564-5.589-15.168c0-6.736,1.863-11.793,5.589-15.17c2.778-2.859,6.794-4.291,12.05-4.291
					c5.256,0,9.272,1.432,12.05,4.291c3.709,3.377,5.564,8.434,5.564,15.17C310.894,804.521,309.039,809.577,305.33,813.086z
					 M300.527,807.498c1.788-2.246,2.682-5.439,2.682-9.58c0-4.125-0.894-7.315-2.682-9.568c-1.788-2.254-4.204-3.381-7.247-3.381
					c-3.044,0-5.472,1.123-7.285,3.369c-1.813,2.244-2.719,5.438-2.719,9.58c0,4.141,0.906,7.334,2.719,9.58
					c1.813,2.245,4.241,3.368,7.285,3.368C296.324,810.866,298.739,809.743,300.527,807.498z"/>
				<path fill="#D1DE58" d="M317.723,810.123c0,0.844,0.136,1.54,0.406,2.094c0.503,1.018,1.417,1.527,2.742,1.527
					c0.813,0,1.522-0.279,2.126-0.836c0.604-0.559,0.907-1.361,0.907-2.408c0-1.387-0.56-2.312-1.682-2.779
					c-0.638-0.26-1.644-0.391-3.015-0.391v-2.969c1.343-0.019,2.28-0.149,2.812-0.393c0.918-0.406,1.376-1.231,1.376-2.473
					c0-0.805-0.234-1.459-0.704-1.962c-0.469-0.506-1.129-0.757-1.98-0.757c-0.976,0-1.694,0.309-2.154,0.932
					c-0.459,0.619-0.68,1.449-0.66,2.486h-3.869c0.04-1.048,0.218-2.042,0.537-2.982c0.34-0.824,0.873-1.586,1.599-2.284
					c0.542-0.492,1.186-0.872,1.932-1.134c0.746-0.261,1.662-0.393,2.747-0.393c2.014,0,3.639,0.523,4.874,1.564
					c1.235,1.042,1.853,2.441,1.853,4.196c0,1.24-0.369,2.289-1.105,3.141c-0.466,0.535-0.951,0.898-1.455,1.092
					c0.378,0,0.921,0.324,1.629,0.975c1.057,0.981,1.586,2.318,1.586,4.016c0,1.783-0.618,3.352-1.853,4.705
					c-1.235,1.353-3.064,2.029-5.484,2.029c-2.984,0-5.058-0.977-6.22-2.924c-0.61-1.037-0.949-2.395-1.017-4.072H317.723z"/>
			</g>
		</g>
	</g>
	<g>
		<circle fill="#21716E" cx="471.103" cy="799.918" r="40.784"/>
		<g>
			<g>
				<path fill="#D1DE58" d="M475.919,813.086c-2.778,2.861-6.794,4.292-12.05,4.292c-5.256,0-9.272-1.431-12.05-4.292
					c-3.726-3.509-5.589-8.564-5.589-15.168c0-6.736,1.863-11.793,5.589-15.17c2.778-2.859,6.794-4.291,12.05-4.291
					c5.256,0,9.272,1.432,12.05,4.291c3.709,3.377,5.564,8.434,5.564,15.17C481.482,804.521,479.628,809.577,475.919,813.086z
					 M471.116,807.498c1.788-2.246,2.682-5.439,2.682-9.58c0-4.125-0.894-7.315-2.682-9.568c-1.788-2.254-4.204-3.381-7.247-3.381
					c-3.044,0-5.472,1.123-7.285,3.369c-1.813,2.244-2.719,5.438-2.719,9.58c0,4.141,0.906,7.334,2.719,9.58
					c1.813,2.245,4.241,3.368,7.285,3.368C466.913,810.866,469.328,809.743,471.116,807.498z"/>
				<path fill="#D1DE58" d="M488.311,810.123c0,0.844,0.136,1.54,0.406,2.094c0.503,1.018,1.417,1.527,2.742,1.527
					c0.813,0,1.522-0.279,2.126-0.836c0.605-0.559,0.907-1.361,0.907-2.408c0-1.387-0.56-2.312-1.682-2.779
					c-0.638-0.26-1.644-0.391-3.015-0.391v-2.969c1.343-0.019,2.28-0.149,2.811-0.393c0.918-0.406,1.376-1.231,1.376-2.473
					c0-0.805-0.234-1.459-0.704-1.962c-0.469-0.506-1.129-0.757-1.98-0.757c-0.976,0-1.694,0.309-2.154,0.932
					c-0.46,0.619-0.68,1.449-0.66,2.486h-3.869c0.04-1.048,0.218-2.042,0.537-2.982c0.34-0.824,0.873-1.586,1.599-2.284
					c0.542-0.492,1.186-0.872,1.932-1.134c0.746-0.261,1.662-0.393,2.747-0.393c2.014,0,3.639,0.523,4.874,1.564
					c1.235,1.042,1.853,2.441,1.853,4.196c0,1.24-0.369,2.289-1.105,3.141c-0.466,0.535-0.951,0.898-1.455,1.092
					c0.378,0,0.921,0.324,1.629,0.975c1.057,0.981,1.586,2.318,1.586,4.016c0,1.783-0.618,3.352-1.853,4.705
					c-1.235,1.353-3.064,2.029-5.484,2.029c-2.984,0-5.058-0.977-6.22-2.924c-0.61-1.037-0.949-2.395-1.017-4.072H488.311z"/>
			</g>
		</g>
	</g>
	<g>
		<circle fill="#21716E" cx="972.665" cy="492.722" r="40.784"/>
		<g>
			<g>
				<path fill="#D1DE58" d="M977.48,505.89c-2.777,2.861-6.795,4.292-12.051,4.292c-5.256,0-9.271-1.431-12.05-4.292
					c-3.726-3.509-5.589-8.564-5.589-15.168c0-6.736,1.863-11.793,5.589-15.17c2.778-2.859,6.794-4.291,12.05-4.291
					c5.256,0,9.273,1.432,12.051,4.291c3.709,3.377,5.563,8.434,5.563,15.17C983.044,497.325,981.189,502.381,977.48,505.89z
					 M972.678,500.302c1.788-2.246,2.682-5.439,2.682-9.58c0-4.125-0.894-7.315-2.682-9.568c-1.788-2.254-4.203-3.381-7.248-3.381
					c-3.043,0-5.472,1.123-7.285,3.369c-1.812,2.244-2.719,5.438-2.719,9.58c0,4.141,0.906,7.334,2.719,9.58
					c1.814,2.245,4.242,3.368,7.285,3.368C968.475,503.67,970.89,502.547,972.678,500.302z"/>
				<path fill="#D1DE58" d="M989.873,502.927c0,0.844,0.136,1.54,0.406,2.094c0.503,1.018,1.417,1.527,2.742,1.527
					c0.812,0,1.522-0.279,2.126-0.836c0.605-0.559,0.907-1.361,0.907-2.408c0-1.387-0.561-2.312-1.682-2.779
					c-0.639-0.26-1.645-0.391-3.016-0.391v-2.969c1.343-0.018,2.279-0.149,2.812-0.393c0.918-0.406,1.376-1.23,1.376-2.473
					c0-0.805-0.233-1.459-0.703-1.962c-0.469-0.506-1.129-0.757-1.981-0.757c-0.977,0-1.694,0.309-2.154,0.932
					c-0.459,0.619-0.68,1.449-0.66,2.486h-3.869c0.04-1.048,0.219-2.042,0.537-2.982c0.341-0.824,0.873-1.586,1.6-2.284
					c0.543-0.492,1.186-0.872,1.932-1.134c0.746-0.261,1.662-0.393,2.748-0.393c2.014,0,3.639,0.522,4.873,1.563
					c1.235,1.042,1.854,2.441,1.854,4.196c0,1.24-0.369,2.289-1.106,3.141c-0.466,0.535-0.951,0.898-1.455,1.092
					c0.378,0,0.921,0.324,1.629,0.975c1.057,0.98,1.586,2.318,1.586,4.016c0,1.783-0.618,3.352-1.854,4.705
					c-1.234,1.353-3.063,2.029-5.484,2.029c-2.984,0-5.058-0.977-6.22-2.924c-0.61-1.037-0.949-2.395-1.017-4.072H989.873z"/>
			</g>
		</g>
	</g>
	<g>
		<circle fill="#21716E" cx="1364.632" cy="723.918" r="40.784"/>
		<g>
			<g>
				<path fill="#D1DE58" d="M1451.447,813.086c-2.777,2.861-6.795,4.292-12.051,4.292s-9.271-1.431-12.05-4.292
					c-3.726-3.509-5.589-8.564-5.589-15.168c0-6.736,1.863-11.793,5.589-15.17c2.778-2.859,6.794-4.291,12.05-4.291
					s9.273,1.432,12.051,4.291c3.709,3.377,5.563,8.434,5.563,15.17C1457.011,804.521,1455.156,809.577,1451.447,813.086z
					 M1446.645,807.498c1.788-2.246,2.682-5.439,2.682-9.58c0-4.125-0.894-7.315-2.682-9.568s-4.203-3.381-7.248-3.381
					c-3.043,0-5.472,1.123-7.285,3.369c-1.812,2.244-2.719,5.438-2.719,9.58c0,4.141,0.906,7.334,2.719,9.58
					c1.813,2.245,4.242,3.368,7.285,3.368C1442.441,810.866,1444.856,809.743,1446.645,807.498z"/>
				<path fill="#D1DE58" d="M1463.84,810.123c0,0.844,0.136,1.54,0.406,2.094c0.503,1.018,1.417,1.527,2.742,1.527
					c0.812,0,1.521-0.279,2.126-0.836c0.604-0.559,0.907-1.361,0.907-2.408c0-1.387-0.561-2.312-1.682-2.779
					c-0.639-0.26-1.645-0.391-3.016-0.391v-2.969c1.343-0.019,2.279-0.149,2.812-0.393c0.918-0.406,1.376-1.231,1.376-2.473
					c0-0.805-0.233-1.459-0.703-1.962c-0.469-0.506-1.129-0.757-1.98-0.757c-0.977,0-1.694,0.309-2.154,0.932
					c-0.459,0.619-0.68,1.449-0.66,2.486h-3.869c0.04-1.048,0.219-2.042,0.537-2.982c0.341-0.824,0.873-1.586,1.6-2.284
					c0.543-0.492,1.186-0.872,1.932-1.134c0.746-0.261,1.662-0.393,2.748-0.393c2.014,0,3.639,0.523,4.873,1.564
					c1.235,1.042,1.854,2.441,1.854,4.196c0,1.24-0.369,2.289-1.105,3.141c-0.466,0.535-0.951,0.898-1.455,1.092
					c0.378,0,0.921,0.324,1.629,0.975c1.057,0.981,1.586,2.318,1.586,4.016c0,1.783-0.618,3.352-1.854,4.705
					c-1.234,1.353-3.063,2.029-5.484,2.029c-2.984,0-5.058-0.977-6.22-2.924c-0.61-1.037-0.949-2.395-1.017-4.072H1463.84z"/>
			</g>
		</g>
	</g>
</g>
<g id="Layer_6">
	<rect x="81.483" y="766.667" fill="none" width="137.941" height="69.403"/>
	<text transform="matrix(1 0 0 1 81.4829 775.2949)"><tspan x="0" y="0" fill="#FFFFFF" font-family="'Helvetica'" font-size="12">WORD WORDS  WORD </tspan><tspan x="0" y="14.4" fill="#FFFFFF" font-family="'Helvetica'" font-size="12">WORDS WORD WORDS </tspan><tspan x="0" y="28.8" fill="#FFFFFF" font-family="'Helvetica'" font-size="12">WORD WORDS WORD </tspan><tspan x="0" y="43.2" fill="#FFFFFF" font-family="'Helvetica'" font-size="12">WORDS</tspan></text>
	<rect x="758.813" y="459.471" fill="none" width="139.174" height="69.403"/>
	<text transform="matrix(1 0 0 1 758.813 468.0986)"><tspan x="0" y="0" fill="#FFFFFF" font-family="'Helvetica'" font-size="12">WORD WORDS  WORD </tspan><tspan x="0" y="14.4" fill="#FFFFFF" font-family="'Helvetica'" font-size="12">WORDS WORD WORDS </tspan><tspan x="0" y="28.8" fill="#FFFFFF" font-family="'Helvetica'" font-size="12">WORD WORDS WORD </tspan><tspan x="0" y="43.2" fill="#FFFFFF" font-family="'Helvetica'" font-size="12">WORDS</tspan></text>
	<rect x="1230.051" y="766.667" fill="none" width="144.202" height="69.403"/>
	<text transform="matrix(1 0 0 1 1230.0503 775.2949)"><tspan x="0" y="0" fill="#FFFFFF" font-family="'Helvetica'" font-size="12">WORD WORDS  WORD </tspan><tspan x="0" y="14.4" fill="#FFFFFF" font-family="'Helvetica'" font-size="12">WORDS WORD WORDS </tspan><tspan x="0" y="28.8" fill="#FFFFFF" font-family="'Helvetica'" font-size="12">WORD WORDS WORD </tspan><tspan x="0" y="43.2" fill="#FFFFFF" font-family="'Helvetica'" font-size="12">WORDS</tspan></text>
	<rect x="549" y="766.667" fill="none" width="143.679" height="69.403"/>
	<text transform="matrix(1 0 0 1 560.6963 775.2949)"><tspan x="0" y="0" fill="#FFFFFF" font-family="'Helvetica'" font-size="12">WORD WORDS  WORD </tspan><tspan x="-4.67" y="14.4" fill="#FFFFFF" font-family="'Helvetica'" font-size="12">WORDS WORD WORDS </tspan><tspan x="3.334" y="28.8" fill="#FFFFFF" font-family="'Helvetica'" font-size="12">WORD WORDS WORD </tspan><tspan x="85.986" y="43.2" fill="#FFFFFF" font-family="'Helvetica'" font-size="12">WORDS</tspan></text>
</g>
<g id="Layer_7">
	<polygon fill="#D1DE58" points="249.934,780.809 230.824,799.918 249.934,819.027 	"/>
	<polygon fill="#D1DE58" points="923.808,473.612 904.698,492.722 923.808,511.831 	"/>
	<polygon fill="#D1DE58" points="1399.688,780.809 1380.578,799.918 1399.688,819.027 	"/>
	<polygon fill="#D1DE58" points="521.685,780.809 540.794,799.918 521.685,819.027 	"/>
</g>
</svg>
