<?xml version="1.0" encoding="utf-8"?>
<!-- Generator: Adobe Illustrator 18.0.0, SVG Export Plug-In . SVG Version: 6.00 Build 0)  -->
<!DOCTYPE svg PUBLIC "-//W3C//DTD SVG 1.1//EN" "http://www.w3.org/Graphics/SVG/1.1/DTD/svg11.dtd">
<svg version="1.1" id="Layer_1" xmlns="http://www.w3.org/2000/svg" xmlns:xlink="http://www.w3.org/1999/xlink" x="0px" y="0px"
	 viewBox="0 0 612 792" enable-background="new 0 0 612 792" xml:space="preserve">
<path fill="none" d="M1.077,45.046"/>
<rect x="-10.756" y="47.068" fill="#FFFFFF" stroke="#FFFFFF" stroke-miterlimit="10" width="167.5" height="54.479"/>
<g>
	<path fill="#44C6CC" d="M148.415,94.546H4.418c-1.556,0-2.829-1.273-2.829-2.829V56.529c0-1.556,1.273-2.829,2.829-2.829h143.996
		c1.556,0,2.829,1.273,2.829,2.829v35.188C151.244,93.273,149.971,94.546,148.415,94.546z"/>
	<polyline fill="#44C6CC" points="10.244,90.546 0.831,99.408 1.744,88.046 	"/>
</g>
<path fill="#97CCCC" d="M29.244,100.546"/>
<line fill="#97CCCC" x1="47.831" y1="98.408" x2="48.744" y2="87.046"/>
<line fill="#97CCCC" x1="0.744" y1="44.754" x2="1.656" y2="33.392"/>
<path fill="#97CCCC" d="M1.656,33.392"/>
<path fill="#97CCCC" d="M0.744,44.754"/>
<polyline fill="#97CCCC" points="10.156,35.343 0.744,46.113 1.656,34.751 "/>
<path fill="#97CCCC" d="M147.949,40.846H3.953c-1.556,0-2.829-1.273-2.829-2.829V2.829C1.124,1.273,2.397,0,3.953,0h143.996
	c1.556,0,2.829,1.273,2.829,2.829v35.188C150.778,39.573,149.505,40.846,147.949,40.846z"/>
</svg>
