<?xml version="1.0" encoding="UTF-8" standalone="no"?>
<!-- Created with Inkscape (http://www.inkscape.org/) -->

<svg
   xmlns:dc="http://purl.org/dc/elements/1.1/"
   xmlns:cc="http://creativecommons.org/ns#"
   xmlns:rdf="http://www.w3.org/1999/02/22-rdf-syntax-ns#"
   xmlns:svg="http://www.w3.org/2000/svg"
   xmlns="http://www.w3.org/2000/svg"
   xmlns:xlink="http://www.w3.org/1999/xlink"
   version="1.1"
   width="100%"
   height="100%"
   viewBox="0 0 300 260"
   id="svg2"
   xml:space="preserve"><metadata
     id="metadata606"><rdf:RDF><cc:Work
         rdf:about=""><dc:format>image/svg+xml</dc:format><dc:type
           rdf:resource="http://purl.org/dc/dcmitype/StillImage" /><dc:title></dc:title></cc:Work></rdf:RDF></metadata><defs
     id="defs4"><clipPath
       id="biome1"><rect
         width="39"
         height="0"
         x="69"
         y="61"
         transform="matrix(-1,0,0,-1,177,159)"
         id="rect7" /></clipPath><clipPath
       id="biome2"><rect
         width="39"
         height="0"
         x="0"
         y="0"
         id="rect10" /></clipPath><clipPath
       id="biome3"><rect
         width="39"
         height="0"
         x="0"
         y="0"
         id="rect13" /></clipPath><clipPath
       id="biome4"><rect
         width="39"
         height="0"
         x="0"
         y="0"
         id="rect16" /></clipPath><clipPath
       id="biome5"><rect
         width="39"
         height="0"
         x="0"
         y="0"
         id="rect19" /></clipPath><clipPath
       id="biome6"><rect
         width="39"
         height="0"
         x="0"
         y="0"
         id="rect22" /></clipPath><clipPath
       id="biome7"><rect
         width="39"
         height="0"
         x="0"
         y="0"
         id="rect25" /></clipPath><clipPath
       id="biome8"><rect
         width="39"
         height="0"
         x="0"
         y="0"
         id="rect28" /></clipPath><clipPath
       id="biome9"><rect
         width="39"
         height="0"
         x="0"
         y="0"
         id="rect31" /></clipPath><clipPath
       id="biome10"><rect
         width="39"
         height="0"
         x="0"
         y="0"
         id="rect34" /></clipPath></defs><g
     id="Layer_2"><g
       id="g37"><path
         d="m 151,26.7 c -36.1,0 -68.5,16 -90.5,41.4 l 0,-0.1 c 0,0.1 -0.1,0.1 -0.1,0.2 -3.3,3.8 -6.3,7.8 -9.1,12 -20.2,22 -45.3,24.6 -45.3,24.6 0,0 21,13.5 25.5,46.2 0.1,3.3 0.4,6.5 0.8,9.8 0,0.1 0,0.3 0,0.4 l 0,-0.1 C 39.6,220.2 90,266 151.1,266 217.2,266 270.8,212.4 270.8,146.3 270.8,80.2 217.1,26.7 151,26.7 z"
         id="path39"
         style="opacity:0.8;fill:#c9c9c9" /><g
         id="g41"><g
           id="g43"><path
             d="m 92,196.7 c 0,9.9 -8,17.8 -17.8,17.8 -9.9,0 -17.8,-8 -17.8,-17.8 0,-9.9 8,-17.8 17.8,-17.8 9.8,-0.1 17.8,7.9 17.8,17.8"
             id="path45"
             style="fill:#ffffff" /><path
             d="m 92,196.7 c 0,9.9 -8,17.8 -17.8,17.8 -9.9,0 -17.8,-8 -17.8,-17.8 0,-9.9 8,-17.8 17.8,-17.8 9.8,-0.1 17.8,7.9 17.8,17.8"
             clip-path="url(#biome10)"
             id="path47"
             style="fill:#08b900" /><path
             d="m 86.2,194.9 c -1.1,0.2 -2.1,0.3 -3.2,0.5 0.6,0.2 1.3,0.5 1.9,0.7 0,0.1 0,0.2 -0.1,0.3 h -3.6 c 0.7,0.4 1.4,0.7 2.1,1.1 0,0.1 -0.1,0.2 -0.1,0.3 -1.5,0.3 -2.8,-0.4 -4.3,-0.7 0.9,0.7 1.8,1.3 2.7,1.9 -0.1,0.1 -0.1,0.2 -0.2,0.3 -1.4,0.1 -2.6,-0.6 -4.1,-1.3 0.9,0.8 1.7,1.5 2.5,2.3 -1.4,0.2 -2.4,-0.5 -3.4,-1 0.5,0.6 1,1.2 1.5,1.8 -0.1,0.1 -0.2,0.2 -0.3,0.3 -1.2,-0.6 -2.5,-1.2 -3.4,-1.7 0.6,0.6 1.3,1.3 2.2,2.3 -1.5,0.1 -2.4,-0.6 -3.4,-1.1 0.6,0.6 1.2,1.2 1.7,1.8 -0.1,0.1 -0.1,0.2 -0.2,0.3 -1,-0.4 -2,-0.9 -3.1,-1.3 0.6,0.7 1.3,1.4 1.9,2.1 -1.5,0.1 -2.5,-0.7 -3.6,-1.3 0.8,0.8 1.5,1.6 2.3,2.4 -0.1,0.1 -0.1,0.1 -0.2,0.2 -1.4,-0.1 -2.5,-1.1 -3.7,-1.7 0.9,0.9 1.8,1.9 2.7,2.8 -0.1,0.1 -0.1,0.1 -0.2,0.2 -1.2,0.1 -2.1,-0.7 -3,-1.4 -0.9,-0.7 -1.8,-1.5 -2.9,-2.4 -1.1,1.1 -2.1,2.2 -3.1,3.2 -0.4,-0.6 -0.4,-1.2 0.4,-1.7 0.6,-0.4 1,-0.9 1.6,-1.3 0.9,-0.5 1,-1.2 0.9,-2.1 -0.1,-1.7 0,-3.3 0,-5 0,-0.3 0.2,-0.7 0.4,-1 0.8,1.5 0.7,3.1 1,5 0.2,-2 -0.2,-4 0.8,-5.6 0.1,0 0.2,0 0.4,0 0.1,1.3 0.2,2.7 0.4,4 0.3,-1.5 0.2,-3.2 1.3,-4.7 0.6,1.7 0.3,3.2 0.4,4.8 0.3,-1.8 0.3,-3.6 1.4,-5 0.1,0 0.2,0 0.3,0 v 3.5 c 0.5,-1.3 0.6,-2.7 1.7,-3.8 0.6,1.2 0,2.4 0.1,3.8 0.5,-1.4 0.5,-2.8 1.7,-4 v 3.7 c 0.5,-1.3 0.6,-2.7 1.7,-3.7 0.1,0 0.2,0 0.3,0 0,0.9 -0.1,1.8 -0.1,2.9 0.5,-1.2 0.6,-2.4 1.7,-3.4 v 2.6 c 0.4,-0.9 0.9,-1.9 1.4,-3 0.1,0 0.2,0.1 0.3,0.1 v 2.6 c 0.5,-1.1 0.5,-2.3 1.6,-3.2 v 2 c 0.4,-0.9 0.8,-1.7 1.2,-2.5 0.1,0 0.2,0.1 0.3,0.1 0,0.5 0,0.9 0.1,1.4 0.3,-0.7 0.7,-1.4 1,-2.1 0.1,0 0.2,0 0.3,0.1 0,0.4 0,0.9 0.1,1.4 0.3,-0.8 0.6,-1.4 0.9,-2.1 0.1,0 0.2,0 0.3,0.1 0,0.4 0.1,0.9 0.1,1.2 0.7,-0.7 1.4,-1.4 2.1,-2.2 0.1,0.1 0.2,0.1 0.3,0.2 -0.5,1 -1,1.9 -1.4,2.8 0.3,0 0.8,-0.1 1.3,-0.1 0,0.1 0.1,0.2 0.1,0.3 -0.7,0.4 -1.4,0.7 -2.1,1.1 0.3,0 0.7,0.1 1.1,0.1 0,0.1 0,0.2 0,0.3 -0.9,0.3 -1.8,0.6 -2.6,0.9 0.5,0.1 1,0.2 1.6,0.3 0.2,0.1 0.2,0.2 0.2,0.3"
             id="path49"
             style="fill:#d19c24;fill-rule:evenodd" /></g><g
           id="g51"><path
             d="m 239.9,83.9 c 0,9.9 -8,17.9 -17.9,17.9 -9.9,0 -17.9,-8 -17.9,-17.9 0,-9.9 8,-17.9 17.9,-17.9 9.9,0 17.9,8 17.9,17.9"
             id="path53"
             style="fill:#ffffff" /><path
             d="m 239.9,83.9 c 0,9.9 -8,17.9 -17.9,17.9 -9.9,0 -17.9,-8 -17.9,-17.9 0,-9.9 8,-17.9 17.9,-17.9 9.9,0 17.9,8 17.9,17.9"
             clip-path="url(#biome4)"
             id="path55"
             style="fill:#08b900" /><path
             d="m 219.5,72.9 v 27.2 c 0,2.3 3.6,2.3 3.6,0 V 72.9 c 0,-2.4 -3.6,-2.4 -3.6,0"
             id="path57"
             style="fill:#d19c24" /><path
             d="m 219.7,84.9 c -0.7,0.2 -1.3,0.3 -2,0.3 0.2,0 -0.4,-0.1 -0.5,-0.1 0.3,0.1 -0.5,-0.4 -0.3,-0.2 -0.4,-0.3 -0.5,-0.5 -0.8,-1.1 -0.1,-0.3 -0.4,-1.2 -0.5,-1.8 -0.5,-2.4 -0.2,-5.2 -0.2,-7.7 0,-2.3 -3.6,-2.3 -3.6,0 0,3.3 -0.3,6.6 0.6,9.8 0.5,1.6 1.3,3.1 2.8,4 1.6,1.1 3.7,0.9 5.4,0.3 2.3,-0.7 1.4,-4.2 -0.9,-3.5"
             id="path59"
             style="fill:#d19c24" /><path
             d="m 223.2,95.3 c 7.4,-1 6.8,-10.8 6.8,-16.3 0,-2.3 -3.6,-2.3 -3.6,0 0,3.8 1.1,12 -4.1,12.8 -1,0.1 -1.5,1.4 -1.3,2.2 0.3,1.1 1.3,1.4 2.2,1.3"
             id="path61"
             style="fill:#d19c24" /><path
             d="m 204.4,84.1 c 0,9.9 8,17.9 17.9,17.9 9.9,0 17.9,-8 17.9,-17.9 0,-9.9 -8,-17.9 -17.9,-17.9 -9.9,0 -17.9,8 -17.9,17.9"
             id="path63"
             style="fill:none" /></g><g
           id="g65"><path
             d="m 175.7,238.6 c 0,9.9 -8,17.8 -17.8,17.8 -9.9,0 -17.8,-8 -17.8,-17.8 0,-9.9 8,-17.8 17.8,-17.8 9.8,0 17.8,7.9 17.8,17.8"
             id="path67"
             style="fill:#ffffff" /><path
             d="m 175.7,238.6 c 0,9.9 -8,17.8 -17.8,17.8 -9.9,0 -17.8,-8 -17.8,-17.8 0,-9.9 8,-17.8 17.8,-17.8 9.8,0 17.8,7.9 17.8,17.8"
             clip-path="url(#biome8)"
             id="path69"
             style="fill:#08b900" /><g
             id="g71"><path
               d="m 156.9,249.7 c 0.4,-0.4 0.8,-0.8 1.1,-1.2 -0.3,-0.2 -0.4,-0.3 -0.6,-0.5 -1,0.6 -1,0.6 -1.5,-0.1 -0.6,0.2 -1.1,0.4 -1.7,0.6 0,-0.1 0,-0.2 0,-0.3 -0.1,-0.5 -0.4,-0.6 -0.8,-0.5 -0.5,0.1 -0.9,0.3 -1.4,0.3 -0.3,0.1 -0.7,0 -0.8,-0.4 0,-0.1 -0.2,-0.2 -0.4,-0.2 -0.2,-0.1 -0.4,-0.2 -0.6,-0.3 0.8,-0.1 1.5,-0.4 2.1,-0.9 0.4,-0.4 0.8,-0.8 1.2,-1.3 -0.4,0 -0.7,0 -0.9,0 -0.4,0 -0.7,-0.1 -0.4,-0.6 -0.3,-0.1 -0.6,-0.3 -1,-0.4 0.3,-0.2 0.4,-0.3 0.6,-0.4 -0.3,-0.3 -0.6,-0.5 -0.9,-0.8 1.1,-0.2 2,-0.3 2.8,-1.2 -0.3,0 -0.7,0.1 -0.6,-0.5 0,-0.1 -0.3,-0.2 -0.4,-0.3 0.2,-0.2 0.4,-0.3 0.7,-0.5 -0.5,-0.3 -1.1,-0.2 -1.2,-0.8 0.4,-0.1 0.9,-0.1 1.1,-0.3 0.2,-0.2 0,-0.7 -0.1,-1.1 0.3,-0.1 0.6,-0.3 0.9,-0.4 -0.4,-0.2 -0.7,-0.4 -1.2,-0.7 1.3,-0.3 2.3,-0.7 3,-1.8 -0.6,-0.2 -1.2,-0.4 -1.9,-0.6 0.5,-0.4 1,-0.7 1.5,-1.1 -0.4,-0.1 -0.6,-0.2 -0.9,-0.3 0.7,-0.4 1.3,-0.8 1.9,-1.2 -0.2,-0.2 -0.3,-0.4 -0.4,-0.5 -0.3,0 -0.7,-0.1 -1,-0.1 0.8,-0.8 1.6,-1.5 2.3,-2.4 0.7,-0.8 1.2,-1.8 1.8,-2.7 0.2,0.5 0.4,1.1 0.7,1.6 0.3,0.5 0.7,1 1.1,1.5 0,0 -0.1,0.1 -0.2,0.2 0.6,0.7 1.3,1.3 1.9,2 -0.4,0.2 -0.9,0.4 -1.5,0.6 0.5,0.3 1,0.6 1.4,0.9 0,0 0,0.1 -0.1,0.1 0.2,0 0.5,0.1 0.8,0.1 -0.2,0.2 -0.3,0.3 -0.5,0.5 0.3,0.1 0.5,0.2 0.8,0.2 -0.4,0.5 -1,0.4 -1.6,0.6 0.6,0.5 1.2,1 1.9,1.6 -0.4,0 -0.8,0.1 -1.3,0.1 0.5,0.2 0.9,0.4 1.4,0.7 -0.2,0.1 -0.3,0.3 -0.5,0.4 0.3,0.4 0.4,0.9 1.1,0.8 -0.1,0.7 -0.7,0.7 -1.1,0.9 0.5,0.2 1,0.4 1.5,0.6 -0.1,0.5 -0.6,0.4 -1,0.6 0.7,0.6 1.5,0.9 2.5,0.9 -0.7,0.9 -0.9,2 -2.4,1.8 1,0.9 2,1.2 3.1,1.4 -0.2,0.5 -0.6,0.5 -1,0.5 -0.4,0 -0.8,0 -1.2,0 0,0 -0.1,0.1 -0.1,0.1 0.4,0.4 0.8,0.9 1.3,1.3 0,0 -0.1,0.2 -0.2,0.4 0.8,0.1 1.6,0.1 2.5,0.2 -0.2,0.2 -0.4,0.3 -0.5,0.4 -0.3,0.1 -0.6,0.2 -0.9,0.3 -0.6,0.2 -1.2,0.4 -1.8,0.5 -0.5,0.1 -1.1,-0.1 -1.7,-0.1 0.3,0.4 0.5,0.9 0.8,1.4 -1.3,0.2 -2.3,-0.6 -3.4,-1.2 0,0.8 0.4,1.3 1,1.8 -1.8,-0.1 -3.5,-0.2 -5.1,-0.2"
               id="path73"
               style="fill:#d19c24;fill-rule:evenodd" /></g></g><g
           id="g75"><path
             d="m 149.6,59 c 0,9.9 -8,17.8 -17.8,17.8 -9.9,0 -17.8,-8 -17.8,-17.8 0,-9.9 8,-17.8 17.8,-17.8 9.8,0 17.8,8 17.8,17.8"
             id="path77"
             style="fill:#ffffff" /><path
             d="m 149.6,59 c 0,9.9 -8,17.8 -17.8,17.8 -9.9,0 -17.8,-8 -17.8,-17.8 0,-9.9 8,-17.8 17.8,-17.8 9.8,0 17.8,8 17.8,17.8"
             clip-path="url(#biome2)"
             id="path79"
             style="fill:#08b900" /><path
             d="m 123.6,59.1 c -0.2,-0.1 -0.3,-0.2 -0.5,-0.4 0.1,-0.2 0.2,-0.4 0.2,-0.6 0.1,-0.2 0.4,-0.4 0.1,-0.7 0,0 0.2,-0.3 0.4,-0.4 0.2,-0.1 0.5,-0.2 0.7,-0.3 -0.1,-0.2 -0.1,-0.3 -0.2,-0.4 -0.1,0.1 -0.2,0.1 -0.3,0.2 -0.2,-0.1 -0.3,-0.2 -0.5,-0.4 0,-0.1 0.1,-0.3 0.2,-0.4 0.1,-0.3 0.5,-0.5 0.2,-0.9 0,0 0.2,-0.3 0.4,-0.4 0.3,-0.1 0.6,-0.2 0.6,-0.6 0,-0.1 0.1,-0.1 0.1,-0.2 0.1,-0.1 0.1,-0.2 0.2,-0.3 -0.1,-0.1 -0.2,-0.1 -0.4,-0.2 0,-0.1 0,-0.2 0.1,-0.3 0.1,-0.4 0.5,-0.6 0.3,-1.1 0,0 0.1,-0.1 0.1,-0.2 0.8,-0.3 0.9,-1.3 1.5,-1.8 0.2,-0.1 0.1,-0.5 0.3,-0.7 0.1,-0.2 0.2,-0.4 0.4,-0.5 0.4,-0.1 0.7,-0.3 0.5,-0.8 0.3,0 0.5,-0.1 0.7,0 0.8,0.1 1,-0.1 1.2,-0.8 0,-0.1 0.1,-0.1 0,-0.1 0.3,-0.1 0.6,-0.1 0.9,-0.2 0.2,0 0.4,0 0.6,0.1 0.4,0.2 0.8,0.4 1.3,0.5 0.4,0.1 0.9,0 1.3,-0.1 0.4,-0.1 0.8,0.1 0.9,0.5 0,0.1 0.1,0.3 0.3,0.3 0.6,0.4 0.9,1.1 0.8,1.8 0,0.1 -0.1,0.3 -0.1,0.4 0.1,0 0.1,0.1 0.1,0.1 1,-0.4 1.5,0.4 1.9,1 0.3,0.4 0.3,0.9 0.5,1.3 0,0 0,0.1 0,0.1 -0.5,0.3 0,0.7 0,1.1 0,0.1 0.2,0.2 0.4,0.3 0.3,0.2 0.5,0.3 0.4,0.8 -0.1,0.4 0,0.9 0.1,1.4 -0.2,-0.1 -0.3,-0.1 -0.5,-0.2 0,0.1 -0.1,0.2 -0.1,0.3 0.2,0.4 0.4,0.7 0.6,1.1 0.2,0.4 0.5,0.7 0.7,1 -0.3,0.2 -0.5,0.3 -0.7,0.5 0.1,0.1 0.2,0.3 0.2,0.4 0,0.2 0,0.4 0,0.5 -0.2,0.4 -0.6,0.6 -1.1,0.8 -0.2,0.1 -0.5,0.3 -0.6,0.4 -0.2,-0.2 -0.3,-0.4 -0.5,-0.5 -0.1,0 -0.1,0.1 -0.2,0.1 0.2,0.3 0.3,0.7 0.5,1 0.3,0.5 -0.1,0.7 -0.3,1 -0.1,0.2 -0.3,0.3 -0.5,0.4 -0.4,0.2 -0.7,0.3 -1,0.4 -0.2,-0.1 -0.3,-0.3 -0.5,-0.4 -0.1,0.1 -0.2,0.3 -0.3,0.5 -0.3,-0.1 -0.7,-0.2 -1.1,-0.3 0,0 0,0.1 0,0.1 -0.2,-0.1 -0.4,-0.2 -0.6,-0.4 0.2,-0.3 0.4,-0.7 0.6,-1.1 -0.6,-0.1 -1.1,0.3 -1.1,0.9 0,2.6 0,5.3 0,7.9 0,0.2 0,0.4 0,0.6 h -1.5 c 0,-1 0,-1.9 0,-2.8 0,-1 0.2,-2.1 0,-3 -0.1,-0.7 -0.8,-1.3 -1.2,-1.9 0,0 -0.2,-0.1 -0.3,0 -0.3,0.2 -0.7,0.4 -1,0.6 -0.2,0.1 -0.4,0.2 -0.5,-0.1 -0.1,-0.1 -0.3,-0.2 -0.4,-0.3 -0.1,0.1 -0.1,0.3 -0.3,0.5 -0.5,-0.1 -1.1,-0.3 -1.8,-0.4 0.1,-0.3 0.2,-0.5 0.3,-0.8 0.1,-0.2 0.4,-0.4 0.1,-0.7 0,0 0.3,-0.4 0.4,-0.5 -0.1,-0.2 -0.2,-0.5 -0.3,-0.7 -0.1,-0.1 -0.4,-0.3 -0.5,-0.2 -0.5,0.4 -1,0.2 -1.6,0.1 -0.1,0 -0.2,0 -0.4,-0.1 0.1,-0.3 0.2,-0.5 0.3,-0.7 0.1,-0.2 0.1,-0.5 0.2,-0.7 -0.1,-0.4 -0.4,-0.4 -0.7,-0.4 0.1,0 0.1,0 0,0 m 7.2,4 c 0.1,0 0.1,0 0.2,0 0.2,-0.5 0.3,-1 0.2,-1.5 0,-0.2 -0.2,-0.4 -0.3,-0.6 -0.3,0.2 -0.6,0.3 -0.9,0.5 -0.1,0 -0.1,0.2 -0.1,0.3 0.3,0.4 0.6,0.8 0.9,1.3 m -1.7,-9.7 c 0.5,-0.4 0.7,-1.1 0.5,-1.5 -0.2,-0.4 -0.4,-0.8 -0.5,-1.2 -0.1,-0.4 -0.4,-0.3 -0.6,-0.2 0.2,0.4 0.4,0.8 0.6,1.2 0.1,0.2 0.4,0.4 0.1,0.7 -0.2,0.1 -0.3,0.4 -0.5,0.6 0.1,0.1 0.2,0.3 0.4,0.4 m 0.3,4.5 c -0.1,-0.2 -0.2,-0.3 -0.4,-0.4 -0.4,-0.2 -0.6,-0.5 -0.6,-0.9 0,-0.4 -0.2,-0.5 -0.6,-0.3 0,0.7 0.2,1.4 0.8,1.9 0.3,-0.1 0.5,-0.2 0.8,-0.3 m 4.3,0.5 c 0,0 -0.2,0.1 -0.3,0.2 -0.2,0.3 -0.4,0.7 -0.6,1 -0.3,0.5 -0.3,1 -0.3,1.6 0.7,-0.3 0.7,-0.3 0.4,-1 0,-0.1 0,-0.1 0,-0.2 0.3,-0.5 0.5,-1.1 0.8,-1.6 m 2.4,-5.1 c -0.1,-0.1 -0.2,-0.2 -0.4,-0.3 -0.1,-0.1 -0.3,-0.1 -0.4,-0.1 0,0.1 -0.1,0.3 0,0.4 0.1,0.2 0.3,0.3 0.6,0.4 0.2,-0.3 0.4,-0.6 0.6,-0.9 -0.1,0 -0.1,-0.1 -0.2,-0.1 0,0.2 0,0.3 -0.2,0.6 m -1.2,2.3 -0.1,-0.1 c -0.2,0.1 -0.4,0.3 -0.6,0.4 0.1,0 0.3,0.1 0.4,0.2 0.1,0 0.1,0.1 0.2,0.1 0.4,0 0.7,-0.1 1.1,-0.1 0,0 0,0 0.1,-0.2 -0.1,-0.1 -0.2,-0.2 -0.2,-0.2 -0.4,0.1 -0.7,0.2 -1,0.4 0.1,-0.3 0.1,-0.4 0.1,-0.5 m -7.7,0.9 c 0.2,1.3 0.8,2.2 1,2 -0.3,-0.6 -0.6,-1.2 -1,-2 m 3.7,-6.6 c 0,0 0,0.1 0,0.1 0.2,0 0.5,0 0.5,-0.1 0.2,-0.2 0.2,-0.6 0.3,-0.8 0,0 -0.1,0 -0.1,0 -0.2,0.2 -0.5,0.5 -0.7,0.8 m -2,3.8 c -0.5,-0.6 -0.9,-0.6 -1.2,-0.2 0.4,0 0.7,0.1 1.2,0.2 m 3.1,4.6 c 0,0 0.1,0.1 0.1,0.1 h 0.6 c 0,0 0.1,-0.1 0.1,-0.1 -0.2,-0.1 -0.3,-0.3 -0.5,-0.4 0,0.1 -0.1,0.3 -0.3,0.4 m 0,-2.9 c 0.4,-0.1 0.8,-0.1 1.1,-0.1 -0.2,-0.1 -0.5,-0.2 -0.7,-0.3 -0.3,-0.2 -0.5,0.1 -0.4,0.4 m 1.6,-2.7 h -0.5 c 0,0.2 0.2,0.3 0.2,0.3 0.3,-0.1 0.7,-0.2 0.4,-0.8 0,0.1 0,0.3 -0.1,0.5 m -2.2,3.1 c 0,0 0.1,0 0.1,-0.1 -0.1,-0.4 -0.2,-0.7 -0.4,-1.1 -0.1,0 -0.1,0 -0.2,0.1 0.1,0.2 0.1,0.5 0.2,0.7 0.2,0.2 0.3,0.3 0.3,0.4"
             id="path81"
             style="fill:#d19c24;fill-rule:evenodd" /></g><g
           id="g83"><path
             d="m 127.7,228.7 c 0,9.9 -8,17.8 -17.8,17.8 -9.9,0 -17.8,-8 -17.8,-17.8 0,-9.9 8,-17.8 17.8,-17.8 9.8,-0.1 17.8,7.9 17.8,17.8"
             id="path85"
             style="fill:#ffffff" /><path
             d="m 127.7,228.7 c 0,9.9 -8,17.8 -17.8,17.8 -9.9,0 -17.8,-8 -17.8,-17.8 0,-9.9 8,-17.8 17.8,-17.8 9.8,-0.1 17.8,7.9 17.8,17.8"
             clip-path="url(#biome9)"
             id="path87"
             style="fill:#08b900" /><path
             d="m 110.4,227.2 c 0,-0.1 0.1,-0.2 0.1,-0.3 0.1,-0.3 0.2,-0.6 0.3,-0.8 0,-0.1 0,-0.1 0,-0.2 0,-0.4 0.2,-0.7 0.3,-1.1 0.1,-0.4 0.2,-0.8 0.3,-1.3 0,-0.2 0.1,-0.4 0.1,-0.5 0.1,-0.3 0.2,-0.6 0.2,-0.9 0.1,-0.3 0.1,-0.5 0.2,-0.8 0.1,-0.4 0.1,-0.8 0.2,-1.1 0.1,-0.4 0.2,-0.7 0.3,-1 0,-0.1 0.1,-0.1 0.1,-0.1 0.1,0 0.1,0 0.1,0.1 0,0.1 0.1,0.2 0.1,0.3 0,0.3 0.1,0.5 0.1,0.8 0.1,0.5 0.2,1 0.3,1.6 0.1,0.4 0,0.7 0,1.1 0,0.4 0,0.8 0,1.2 0,0 0,0 0,0 0.1,0.2 0,0.4 0,0.7 0,0.5 0,0.9 0,1.4 0,0.2 0.1,0.4 0.1,0.6 0.3,-0.3 0.6,-0.5 0.8,-0.8 0,0 0.1,-0.1 0.1,0 0,0 0,0 0,0 0,-0.2 0.2,-0.3 0.3,-0.4 0,-0.1 0.1,-0.1 0.2,-0.2 0,-0.1 0.1,-0.2 0.2,-0.2 0.2,-0.1 0.3,-0.2 0.4,-0.4 0,0 0,0 0,0 0.3,-0.1 0.4,-0.4 0.7,-0.7 0.1,-0.3 0.4,-0.5 0.7,-0.7 0.2,-0.3 0.5,-0.4 0.7,-0.7 0.1,-0.1 0.2,-0.1 0.2,-0.1 0.1,-0.1 0.3,0 0.3,0.2 0,0.2 0,0.4 -0.1,0.5 -0.2,0.3 -0.5,0.6 -0.7,1 -0.4,0.6 -0.9,1.2 -1.3,1.9 -0.3,0.4 -0.5,0.8 -0.8,1.2 -0.3,0.6 -0.7,1.2 -0.9,1.8 -0.3,0.6 -0.5,1.3 -0.7,1.9 0,0.1 -0.1,0.2 -0.1,0.4 0.1,-0.1 0.2,-0.2 0.3,-0.3 0.2,-0.1 0.3,-0.3 0.4,-0.4 0.2,-0.1 0.3,-0.3 0.4,-0.4 0,-0.1 0.1,-0.1 0.1,0 0.1,0 0.2,0 0.2,-0.1 0.1,-0.2 0.2,-0.2 0.4,-0.4 0.2,-0.2 0.5,-0.4 0.7,-0.6 0.1,-0.1 0.2,-0.2 0.3,-0.4 0,-0.1 0.1,-0.1 0.1,0 0.1,0.1 0.1,0 0.2,0 0.3,-0.2 0.7,-0.4 1,-0.7 0,0 0,0 0,0 0.2,0 0.4,-0.2 0.6,-0.3 0.2,-0.1 0.4,-0.2 0.5,-0.3 0.3,-0.1 0.6,-0.3 0.9,-0.4 0.3,-0.1 0.6,-0.2 0.8,-0.2 0.1,0 0.2,-0.1 0.2,0 0.1,0.1 0,0.2 0,0.3 -0.1,0.3 -0.3,0.5 -0.6,0.8 -0.3,0.3 -0.5,0.6 -0.8,0.9 -0.2,0.3 -0.4,0.7 -0.7,1 -0.3,0.3 -0.4,0.6 -0.7,0.9 -0.1,0.1 -0.1,0.3 -0.2,0.4 -0.1,0.1 -0.1,0.1 -0.2,0.2 -0.1,0.1 -0.2,0.3 -0.3,0.4 -0.1,0.2 -0.2,0.3 -0.3,0.5 -0.1,0.1 -0.1,0.2 -0.1,0.4 0,0.1 -0.1,0.1 -0.1,0.2 -0.1,0 -0.2,0.1 -0.2,0.2 -0.2,0.3 -0.4,0.5 -0.5,0.8 -0.2,0.3 -0.3,0.6 -0.5,0.8 0,0 0,0.1 0,0.1 0,0.1 -0.1,0.2 -0.2,0.3 -0.2,0.1 -0.3,0.3 -0.4,0.5 -0.2,0.3 -0.4,0.6 -0.5,0.9 -0.1,0.2 -0.2,0.4 -0.2,0.7 0,0.1 0,0.2 -0.1,0.3 0,0.1 -0.1,0.1 -0.1,0.2 -0.2,0.1 -0.3,0.2 -0.4,0.4 -0.3,0.4 -0.4,0.8 -0.7,1.2 -0.2,0.3 -0.3,0.5 -0.5,0.8 -0.1,0.2 -0.4,0.3 -0.6,0.3 -0.2,0 -0.5,0 -0.7,0.1 -0.1,0 -0.2,0 -0.2,0 -0.1,0 -0.2,0 -0.3,0.1 -0.1,0.1 -0.2,0.1 -0.3,0.1 -0.1,0 -0.2,0 -0.3,0.1 -0.1,0 -0.2,0.1 -0.3,0 -0.1,0 -0.1,0 -0.2,0 0,0.1 -0.1,0.1 -0.2,0.1 -0.1,0 -0.2,0 -0.3,0.1 0,0 0,0 -0.1,0 -0.1,0 -0.2,0 -0.3,0 -0.2,0 -0.5,0 -0.7,0 -0.2,0 -0.3,0 -0.5,0 -0.2,-0.1 -0.4,-0.1 -0.6,-0.1 -0.1,-0.1 -0.3,0 -0.5,-0.1 -0.1,-0.1 -0.3,-0.1 -0.3,-0.3 0,0 0,0 -0.1,0 -0.1,0.1 -0.2,0 -0.3,-0.1 0,0 -0.1,-0.1 -0.1,-0.1 -0.1,0 -0.1,-0.1 -0.1,-0.2 -0.1,-0.2 -0.2,-0.4 -0.2,-0.7 -0.1,-0.2 -0.1,-0.3 -0.1,-0.5 0,-0.1 -0.1,-0.3 -0.1,-0.4 -0.1,-0.3 -0.1,-0.6 -0.2,-0.9 -0.1,-0.4 -0.2,-0.8 -0.3,-1.2 -0.1,-0.5 -0.3,-1 -0.5,-1.6 -0.2,-0.5 -0.4,-1 -0.7,-1.5 -0.3,-0.6 -0.6,-1.1 -1,-1.7 -0.3,-0.5 -0.6,-1 -1,-1.5 -0.4,-0.5 -0.8,-1.1 -1.3,-1.6 -0.2,-0.3 -0.5,-0.6 -0.7,-0.9 -0.1,-0.1 -0.1,-0.2 -0.1,-0.3 -0.1,-0.2 0,-0.3 0.1,-0.4 0.1,-0.1 0.3,-0.1 0.4,0 0.1,0.1 0.3,0.2 0.4,0.3 0.3,0.3 0.6,0.5 0.9,0.8 0.3,0.3 0.7,0.6 1,0.9 0.1,0.1 0.3,0.2 0.5,0.3 0.1,0 0.1,0 0,0.1 -0.1,0.1 0,0.1 0,0.2 0.2,0.2 0.4,0.5 0.6,0.7 0.1,0.1 0.2,0.2 0.3,0.3 0.1,0.1 0.2,0.2 0.4,0.2 0.1,0 0.1,0.1 0.1,0.1 0,0.1 0,0.1 0,0.1 0.3,0.3 0.5,0.7 0.8,1 0.1,0.1 0.2,0.2 0.4,0.2 0.1,0 0.1,0 0.1,0.1 0,0.1 0,0.2 0.1,0.3 0.2,0.2 0.3,0.5 0.5,0.7 0,0.1 0.1,0.2 0.1,0.2 0,0 0,0 0,0 0,0 0,0 0,-0.1 0,-0.2 0.1,-0.4 0.1,-0.6 0,-0.4 0.1,-0.9 0,-1.3 0,-0.8 -0.1,-1.5 -0.3,-2.3 -0.2,-0.7 -0.4,-1.3 -0.8,-1.9 -0.3,-0.4 -0.5,-0.9 -0.8,-1.3 -0.4,-0.6 -0.8,-1.1 -1.3,-1.7 -0.3,-0.3 -0.6,-0.6 -0.9,-0.9 -0.3,-0.3 -0.6,-0.6 -0.9,-1 -0.1,-0.1 -0.1,-0.2 -0.1,-0.3 0,-0.1 0.1,-0.1 0.2,-0.1 0.3,0.1 0.5,0.2 0.7,0.4 0.3,0.3 0.7,0.5 1,0.7 0.4,0.3 0.7,0.6 1.1,0.9 0,0 0,0 0.1,0 0.2,0.1 0.3,0.2 0.4,0.4 0.1,0.2 0.3,0.3 0.4,0.4 0.2,0.2 0.4,0.4 0.6,0.6 0.1,0.1 0.1,0.1 0.2,0.1 0,0 0.1,0 0.1,0.1 0.1,0.2 0.2,0.3 0.3,0.5 0.1,0.2 0.3,0.3 0.4,0.5 0.1,0.1 0.2,0.2 0.3,0.3 0.1,0 0.1,0.1 0.2,0.2 0,0.1 0.1,0.2 0.1,0.3 0.1,0.2 0.2,0.3 0.3,0.5 0,0.1 0.1,0.1 0.1,0.2 0.1,0.2 0.2,0.3 0.4,0.4 0.1,0 0.1,0 0.1,-0.1 0,-0.3 0.1,-0.7 0.1,-1 0,-0.1 0,-0.3 0.1,-0.4 0,-0.2 0,-0.3 0,-0.5 0,-0.3 0.1,-0.7 0.1,-1 0,-0.3 0,-0.5 0,-0.8 0,-0.3 0,-0.6 0,-0.9 0,-0.2 0,-0.3 0.1,-0.5 0,-0.1 0.1,-0.2 0.2,-0.3 0.1,-0.1 0.1,0 0.2,0 0.1,0.1 0.2,0.3 0.3,0.5 0.3,0.7 0.5,1.5 0.7,2.2 0,0.1 0.1,0.3 0.1,0.4 0.1,0.1 0,0.3 0,0.4 0.9,0.2 0.9,0.4 1,0.6"
             id="path89"
             style="fill:#d19c24;fill-rule:evenodd" /></g><g
           id="g91"><path
             d="m 106.2,79.3 c 0,9.9 -8,17.8 -17.8,17.8 -9.9,0 -17.8,-8 -17.8,-17.8 0,-9.9 8,-17.8 17.8,-17.8 9.8,0 17.8,8 17.8,17.8"
             id="path93"
             style="fill:#ffffff" /><path
             d="m 106.2,79.3 c 0,9.9 -8,17.8 -17.8,17.8 -9.9,0 -17.8,-8 -17.8,-17.8 0,-9.9 8,-17.8 17.8,-17.8 9.8,0 17.8,8 17.8,17.8"
             clip-path="url(#biome1)"
             id="path95"
             style="fill:#08b900" /><path
             d="m 80.6,76.7 c 0.3,0 0.6,-0.1 0.8,0 0.5,0.1 0.6,0 0.5,-0.5 -0.4,-0.1 -0.8,-0.8 -0.7,-1.3 0.1,-0.5 0.2,-1.1 0.4,-1.5 0.2,-0.2 0.4,-0.5 0.7,-0.8 0.5,0.1 0.4,-0.6 0.7,-0.8 -0.1,0 -0.2,0 -0.3,0 0,0 0,-0.1 -0.1,-0.1 0.3,-0.2 0.6,-0.4 0.9,-0.5 0.3,-0.1 0.7,-0.1 1.1,-0.1 0,-0.1 0,-0.3 -0.1,-0.5 h 1 c 0,-0.1 0.1,-0.4 0.2,-0.7 0.1,0 0.3,0 0.4,0 0.2,-0.3 0.3,-0.5 0.5,-0.8 0.2,0.2 0.3,0.3 0.4,0.4 0.1,0 0.1,0 0.2,0 -0.1,-0.3 -0.1,-0.5 -0.2,-0.9 0.2,0 0.3,0.1 0.5,0.1 0.1,-0.4 0.3,-0.4 0.6,-0.3 0.2,0.1 0.6,0.1 0.7,0.3 0.2,0.1 0.1,0.4 0.2,0.6 0.1,0.3 0,0.4 -0.2,0.5 0,0 0,0.1 0,0.2 0.1,0 0.2,0 0.3,0 0.4,-0.2 0.8,-0.3 1.3,-0.3 0.5,0 0.3,0.4 0.6,0.6 0.7,-0.1 1.2,0.2 1.5,0.9 0.1,0.1 0.3,0.3 0.3,0.4 0,0.2 -0.1,0.5 -0.2,0.7 0.2,0.1 0.6,0.2 1,0.4 0.1,-0.1 0.2,-0.3 0.4,-0.4 -0.1,-0.1 -0.1,-0.3 -0.2,-0.5 0,0 0.1,-0.1 0.1,-0.1 0.1,0.1 0.2,0.1 0.3,0.2 0.2,0.2 0.3,0.4 0.4,0 0,0 0.3,0 0.4,0.1 0,0 0,0.1 0,0.1 0.2,-0.1 0.3,-0.2 0.5,-0.2 0,0.4 -0.1,0.8 -0.1,1.2 0,0 0.1,0 0.1,0 0.1,0.3 0.2,0.6 0.3,1 0,0 0,0.1 0,0.1 -0.7,0.3 -0.1,0.7 -0.1,1 -0.2,0.3 -0.3,0.6 -0.5,0.9 0.5,0 0.9,0 1,-0.7 0.6,0.5 1,1 1.6,1.5 -0.2,0.1 -0.3,0.1 -0.3,0.1 -0.2,0.1 -0.4,0.1 -0.6,0.2 0.2,0.1 0.3,0.2 0.5,0.3 0.2,0.1 0.4,0.3 0.6,0.4 -0.2,0.9 -0.2,0.9 -0.8,1 0.1,0.3 0.3,0.5 0.3,0.8 0,0.3 -0.1,0.6 -0.1,0.8 0.3,0.3 0.8,0.2 0.9,0.8 0,0.3 0.4,0.5 0.7,0.8 0.2,0.3 0.3,0.6 0.2,0.9 -0.2,0.6 -0.4,1.2 -0.6,1.8 -0.2,0.4 -0.5,0.7 -0.9,0.8 -0.5,0.1 -1,0.4 -1.5,0.5 -0.1,0 -0.3,0.1 -0.4,0 C 95.3,85.9 94.9,85.6 94.4,85.4 94.2,85.3 94,85.2 93.7,85 93.5,84.6 92.9,84.5 92.4,84.8 92.2,84.9 91.9,85 91.7,85 c -0.4,-0.2 -0.6,-0.1 -0.9,0.2 -0.3,0.3 -0.6,0.6 -0.9,0.9 -0.6,0.6 -0.9,1.4 -0.8,2.3 0.1,1.1 0,2.3 0,3.4 0,0.3 0.2,0.6 0.3,0.9 h -1.8 c 0.2,-0.3 0.5,-0.7 0.6,-1.2 0.1,-0.6 0.1,-1.2 0.1,-1.7 0,-0.8 0,-1.5 0,-2.3 0,-0.2 -0.1,-0.4 -0.2,-0.6 -0.2,-0.4 -0.5,-0.8 -0.9,-1.2 -0.1,0.1 -0.2,0.3 -0.3,0.4 -0.3,0.5 -0.8,0.6 -1.3,0.3 C 85.5,86.3 85.4,86.3 85.3,86.2 85,86 84.8,86 84.7,86.4 c 0,0.1 -0.2,0.3 -0.4,0.4 -0.1,0.3 -0.6,0.8 -1.1,0.8 -0.2,0 -0.3,0.1 -0.5,0.2 0,0.1 0,0.1 0,0.2 -0.1,0 -0.2,0 -0.2,-0.1 -0.2,-0.3 -0.3,-0.6 -0.7,-0.7 0,0 -0.1,-0.2 -0.1,-0.2 0.2,-0.4 0,-0.7 -0.3,-0.8 -0.4,-0.2 -0.7,-0.1 -1,0.3 0,0 0,0 -0.1,0 0,-0.4 -0.3,-0.4 -0.6,-0.6 -0.4,-0.2 -0.7,-0.6 -1.1,-0.9 -0.1,-0.1 -0.2,-0.2 -0.2,-0.2 -0.6,-0.2 -1,-0.8 -0.8,-1.4 0,-0.1 0.1,-0.2 0.1,-0.3 -0.5,-0.6 -0.5,-1 0,-1.6 0,0 0,0 0,0 0.1,-0.8 0.6,-1.6 0.3,-2.4 -0.2,-0.6 0,-1.1 0.5,-1.4 0.1,0 0.1,-0.1 0.1,-0.2 0,-0.1 0,-0.2 0.1,-0.2 0.7,-1.1 1.5,-1 1.9,-0.6"
             id="path97"
             style="fill:#d19c24;fill-rule:evenodd" /></g><g
           id="g99"><path
             d="m 234.4,119.5 c 1.1,0.6 1.8,1.6 2.4,2.6 0.8,1.6 1.1,3.3 1.1,5 0,0.2 0,0.3 -0.3,0.3 -0.2,0 -0.4,0 -0.7,0 -0.3,0 -0.4,-0.1 -0.4,-0.4 0.1,-2 -0.3,-3.9 -1.1,-5.7 -0.2,-0.6 -0.6,-1.2 -1,-1.8 0,0 0,0 0,0"
             id="path101"
             style="fill:#d19c24;fill-rule:evenodd" /><path
             d="m 233.4,122.3 c 0.2,-0.1 0.2,0 0.3,0.1 1.7,1.1 2.5,2.7 2.7,4.7 0,0.2 0,0.3 -0.3,0.3 -0.4,0 -0.8,0.1 -1.1,-0.1 -0.2,-0.2 -0.1,-0.7 -0.1,-1 -0.2,-1.4 -0.6,-2.7 -1.4,-3.8 0,0 -0.1,-0.1 -0.1,-0.2"
             id="path103"
             style="fill:#d19c24;fill-rule:evenodd" /><path
             d="m 239.3,121.8 c -0.5,0.9 -0.9,1.8 -1.1,2.8 -0.1,-0.5 -0.2,-0.9 -0.3,-1.3 0,0 0,-0.1 0.1,-0.1 0.3,-0.5 0.8,-0.9 1.3,-1.4"
             id="path105"
             style="fill:#d19c24;fill-rule:evenodd" /><g
             id="g107"><path
               d="m 262.1,129.7 c 0,9.9 -8,17.8 -17.8,17.8 -9.9,0 -17.8,-8 -17.8,-17.8 0,-9.9 8,-17.8 17.8,-17.8 9.8,0 17.8,7.9 17.8,17.8"
               id="path109"
               style="fill:#ffffff" /><path
               d="m 262.1,129.7 c 0,9.9 -8,17.8 -17.8,17.8 -9.9,0 -17.8,-8 -17.8,-17.8 0,-9.9 8,-17.8 17.8,-17.8 9.8,0 17.8,7.9 17.8,17.8"
               clip-path="url(#biome5)"
               id="path111"
               style="fill:#08b900" /><g
               id="g113"><defs
                 id="defs115"><path
                   d="m 225.9,129.7 c 0,9.9 8,17.8 17.8,17.8 9.9,0 17.8,-8 17.8,-17.8 0,-9.9 -8,-17.8 -17.8,-17.8 -9.8,0 -17.8,7.9 -17.8,17.8"
                   id="SVGID_1_" /></defs><clipPath
                 id="SVGID_2_"><use
                   id="use119"
                   style="overflow:visible"
                   x="0"
                   y="0"
                   width="300"
                   height="260"
                   xlink:href="#SVGID_1_" /></clipPath><path
                 d="m 226.2,126 c 0,0 36.3,-2.4 19.1,7.7 -17.2,10.2 6.5,11.8 6.5,11.8 0,0 -30.4,13.8 -25.6,-19.5"
                 clip-path="url(#SVGID_2_)"
                 id="path121"
                 style="fill:#d19c24;fill-rule:evenodd" /></g><path
               d="m 241.2,122.3 c -0.5,0.8 -0.9,1.6 -1.1,2.4 -0.3,0.8 -0.4,1.7 -0.3,2.5 0,0.2 0,0.3 -0.2,0.2 -0.2,0 -0.3,0 -0.5,0 -0.5,0 -0.6,0 -0.5,-0.5 0.1,-1.7 0.8,-3.2 2.2,-4.4 0.1,-0.1 0.2,-0.2 0.4,-0.2"
               id="path123"
               style="fill:#d19c24;fill-rule:evenodd" /><path
               d="m 238.4,116.5 c 1.4,0.9 2.4,2.1 3.2,3.6 1.1,2.1 1.5,4.4 1.5,6.8 0,0.3 0,0.4 -0.4,0.4 -0.3,0 -0.6,0 -0.9,0 -0.4,0.1 -0.5,-0.1 -0.5,-0.5 0.1,-2.7 -0.4,-5.3 -1.5,-7.8 -0.4,-0.8 -1,-1.6 -1.4,-2.5 -0.1,0.1 -0.1,0.1 0,0"
               id="path125"
               style="fill:#d19c24;fill-rule:evenodd" /><path
               d="m 236.9,120.4 c 0.2,-0.1 0.3,0.1 0.5,0.1 2.3,1.5 3.3,3.7 3.6,6.3 0,0.3 0,0.4 -0.4,0.4 -0.5,0 -1.1,0.1 -1.5,-0.1 -0.3,-0.2 -0.1,-0.9 -0.2,-1.4 -0.2,-1.9 -0.8,-3.6 -1.9,-5.2 0.1,0.1 0,0 -0.1,-0.1"
               id="path127"
               style="fill:#d19c24;fill-rule:evenodd" /><path
               d="m 247.6,120.4 c -0.6,1.1 -1.2,2.1 -1.5,3.2 -0.3,1.1 -0.6,2.3 -0.4,3.5 0,0.2 0,0.3 -0.3,0.3 -0.2,0 -0.5,0 -0.7,0 -0.7,0 -0.7,0 -0.7,-0.7 0.2,-2.4 1.1,-4.4 3,-5.9 0.1,-0.2 0.2,-0.4 0.6,-0.4"
               id="path129"
               style="fill:#d19c24;fill-rule:evenodd" /><path
               d="m 244.9,119.7 c -0.7,1.2 -1.2,2.4 -1.5,3.7 -0.2,-0.6 -0.3,-1.2 -0.4,-1.7 0,0 0,-0.1 0.1,-0.2 0.5,-0.6 1.1,-1.2 1.8,-1.8"
               id="path131"
               style="fill:#d19c24;fill-rule:evenodd" /></g></g><g
           id="g133"><path
             d="m 228.8,184.2 c 0.3,0.2 0.6,0.5 0.7,0.8 0.3,0.5 0.3,1 0.3,1.6 0,0.1 0,0.1 -0.1,0.1 -0.1,0 -0.1,0 -0.2,0 -0.1,0 -0.1,0 -0.1,-0.1 0,-0.6 -0.1,-1.2 -0.4,-1.8 0.1,-0.2 -0.1,-0.4 -0.2,-0.6 0,0 0,0 0,0"
             id="path135"
             style="fill:#d19c24;fill-rule:evenodd" /><path
             d="m 228.5,185.1 c 0,0 0.1,0 0.1,0 0.5,0.3 0.8,0.8 0.8,1.4 0,0.1 0,0.1 -0.1,0.1 -0.1,0 -0.3,0 -0.3,0 -0.1,-0.1 0,-0.2 0,-0.3 -0.1,-0.4 -0.2,-0.8 -0.5,-1.2 0,0.1 0,0.1 0,0"
             id="path137"
             style="fill:#d19c24;fill-rule:evenodd" /><path
             d="m 227.4,185.1 c -0.1,0.2 -0.3,0.5 -0.3,0.7 -0.1,0.3 -0.1,0.5 -0.1,0.8 0,0.1 0,0.1 -0.1,0.1 -0.1,0 -0.1,0 -0.2,0 -0.2,0 -0.2,0 -0.2,-0.2 0,-0.5 0.2,-1 0.7,-1.4 0.1,0.1 0.1,0 0.2,0"
             id="path139"
             style="fill:#d19c24;fill-rule:evenodd" /><path
             d="m 226.8,184.9 c -0.2,0.3 -0.3,0.5 -0.4,0.9 0,-0.1 -0.1,-0.3 -0.1,-0.4 0,0 0,0 0,0 0.2,-0.2 0.4,-0.3 0.5,-0.5"
             id="path141"
             style="fill:#d19c24;fill-rule:evenodd" /><g
             id="g143"><path
               d="m 246.6,185.1 c 0,0 0.1,0 0.1,0 0.5,0.3 0.8,0.8 0.8,1.4 0,0.1 0,0.1 -0.1,0.1 -0.1,0 -0.3,0 -0.3,0 -0.1,-0.1 0,-0.2 0,-0.3 0,-0.4 -0.2,-0.8 -0.5,-1.2 0.1,0.1 0.1,0.1 0,0"
               id="path145"
               style="fill:#d19c24;fill-rule:evenodd" /><g
               id="g147"><path
                 d="m 253.3,178.8 c 0,9.9 -8,17.8 -17.8,17.8 -9.9,0 -17.8,-8 -17.8,-17.8 0,-9.9 8,-17.8 17.8,-17.8 9.8,0 17.8,8 17.8,17.8"
                 id="path149"
                 style="fill:#ffffff" /><path
                 d="m 253.4,178.8 c 0,9.9 -8,17.8 -17.8,17.8 -9.9,0 -17.8,-8 -17.8,-17.8 0,-9.9 8,-17.8 17.8,-17.8 9.8,0 17.8,8 17.8,17.8"
                 clip-path="url(#biome6)"
                 id="path151"
                 style="fill:#08b900" /><g
                 id="g153"><defs
                   id="defs155"><path
                     d="m 216.5,186.2 c -0.4,0 -0.7,0.3 -0.7,0.7 v 24.2 c 0,0.4 0.3,0.7 0.7,0.7 h 40.9 c 0.4,0 0.7,-0.3 0.7,-0.7 v -24.2 c 0,-0.4 -0.3,-0.7 -0.7,-0.7 h -40.9 z"
                     id="SVGID_3_" /></defs><clipPath
                   id="SVGID_4_"><use
                     id="use159"
                     style="overflow:visible"
                     x="0"
                     y="0"
                     width="300"
                     height="260"
                     xlink:href="#SVGID_3_" /></clipPath><path
                   d="m 253.5,178.9 c 0,9.9 -8,17.8 -17.8,17.8 -9.9,0 -17.8,-8 -17.8,-17.8 0,-9.9 8,-17.8 17.8,-17.8 9.8,0 17.8,8 17.8,17.8"
                   clip-path="url(#SVGID_4_)"
                   id="path161"
                   style="fill:#d19c24" /></g><path
                 d="m 241.9,183.6 c 0.5,0.3 0.9,0.7 1.1,1.3 0.4,0.8 0.5,1.6 0.5,2.4 0,0.1 0,0.1 -0.1,0.1 -0.1,0 -0.2,0 -0.3,0 -0.1,0 -0.2,0 -0.2,-0.2 0,-1 -0.1,-1.9 -0.5,-2.7 -0.1,-0.4 -0.3,-0.6 -0.5,-0.9 0,0 0,0 0,0"
                 id="path163"
                 style="fill:#d19c24;fill-rule:evenodd" /><path
                 d="m 241.4,184.9 c 0.1,0 0.1,0 0.2,0.1 0.8,0.5 1.2,1.3 1.3,2.2 0,0.1 0,0.2 -0.1,0.1 -0.2,0 -0.4,0.1 -0.5,0 -0.1,-0.1 0,-0.3 -0.1,-0.5 -0.1,-0.7 -0.3,-1.3 -0.7,-1.8 0,0 -0.1,0 -0.1,-0.1"
                 id="path165"
                 style="fill:#d19c24;fill-rule:evenodd" /><path
                 d="m 245.1,184.9 c -0.2,0.4 -0.4,0.7 -0.5,1.1 -0.1,0.4 -0.2,0.8 -0.2,1.2 0,0.1 0,0.1 -0.1,0.1 -0.1,0 -0.2,0 -0.2,0 -0.3,0 -0.3,0 -0.2,-0.3 0.1,-0.8 0.4,-1.5 1,-2.1 0.1,0.1 0.1,0 0.2,0"
                 id="path167"
                 style="fill:#d19c24;fill-rule:evenodd" /><path
                 d="m 244.2,184.7 c -0.3,0.4 -0.4,0.8 -0.5,1.3 -0.1,-0.2 -0.1,-0.4 -0.2,-0.6 0,0 0,0 0,-0.1 0.3,-0.2 0.5,-0.4 0.7,-0.6"
                 id="path169"
                 style="fill:#d19c24;fill-rule:evenodd" /><path
                 d="m 230.9,185.1 c -0.1,0.2 -0.3,0.5 -0.3,0.7 -0.1,0.3 -0.1,0.5 -0.1,0.8 0,0.1 0,0.1 -0.1,0.1 -0.1,0 -0.1,0 -0.2,0 -0.2,0 -0.2,0 -0.2,-0.2 0,-0.5 0.2,-1 0.7,-1.4 0.1,0.1 0.2,0 0.2,0"
                 id="path171"
                 style="fill:#d19c24;fill-rule:evenodd" /><path
                 d="m 230.3,184.9 c -0.2,0.3 -0.3,0.5 -0.4,0.9 0,-0.1 -0.1,-0.3 -0.1,-0.4 0,0 0,0 0,0 0.2,-0.2 0.4,-0.3 0.5,-0.5"
                 id="path173"
                 style="fill:#d19c24;fill-rule:evenodd" /><path
                 d="m 225.2,174 c -0.2,-0.4 -0.4,-0.8 -0.3,-1.2 0,-0.1 0.2,-0.6 0.1,-0.7 -0.2,-0.1 -0.2,0.3 -0.3,0.4 -0.1,0.4 -0.4,0.8 -0.3,1.2 0.1,0.4 0.3,0.9 0.7,0.9 -0.1,0.1 -0.7,0.4 -0.5,0.6 0.1,0.1 0.2,0.3 0.3,0.4 0.1,0 0.4,0 0.4,0.1 0.1,0.5 0.3,1.4 0.1,2 -0.1,0.3 -0.1,0.6 0,0.9 0,0.1 0.6,0.4 0.7,0.5 0.7,0.2 1.2,0 1.7,-0.4 0,0.2 0.1,0.6 0.2,0.7 0.2,0.2 0.5,0.3 0.7,0.5 0.4,0.4 0.9,0.7 1.4,1.1 0.2,0.2 0.5,0.4 0.5,0.7 0.1,0.4 0.5,0.1 0.7,0.3 0.1,0.1 0,0.7 0,0.8 0,0.3 -0.1,0.6 -0.1,0.9 0,0.3 0.1,0.6 0,0.9 0,0.3 -0.2,0.5 -0.2,0.8 0,0.2 -0.1,0.7 0,0.8 0.2,0.3 0.5,0.2 0.9,0.2 0.7,0 0.5,-2.7 0.5,-3.2 0.2,0.8 0.6,1.6 0.5,2.4 -0.1,0.3 -0.4,0.8 -0.1,1.1 0.1,0.1 0.4,0.1 0.6,0.1 0.3,-0.1 0.3,-0.2 0.3,-0.5 0.1,-0.2 0.1,-1 0.2,-1.1 0.3,-0.2 0.7,-0.4 0.8,-0.8 0.2,-0.9 0,-1.7 -0.1,-2.6 0.7,0 1.3,0.1 2,0.2 0.7,0.1 1.4,0.1 2,0.1 0.2,0 0.9,0.1 1,0 0.3,-0.3 0.5,-0.5 0.8,-0.7 0.2,-0.2 0.5,-0.5 0.7,-0.6 0.4,-0.2 0.7,0.3 0.9,0.5 0.5,0.4 0.8,1.1 1.1,1.6 0.3,0.6 0.7,1.2 0.8,1.8 0.1,0.3 0,0.7 0,1 0,0.3 -0.2,0.7 -0.1,1.1 0.1,0.3 0.6,0.1 0.8,0 0.3,-0.2 0.2,-0.6 0.2,-1 0.1,-0.9 0.1,-1.7 0.3,-2.6 0.1,-0.4 -0.2,-0.7 -0.2,-1.1 0,-0.5 0,-0.9 0,-1.4 0.1,-0.9 0.4,-1.8 0.4,-2.7 0,-0.5 0,-1 0,-1.6 0,-0.5 -0.4,-0.7 -0.8,-0.8 0.7,0 1.3,0 1.5,0.8 0.1,0.3 0.1,0.6 0.1,0.9 0,0.1 0,0.3 0.2,0.3 0.3,-0.1 0.2,-0.1 0.3,-0.4 0.2,-0.7 -0.2,-1.3 -0.6,-1.8 -0.5,-0.5 -1.3,-0.4 -1.9,-0.6 -2.6,-1 -5.5,-1.7 -8.3,-2.2 -1,-0.2 -1.9,-0.5 -3,-0.5 -1.1,0 -2.2,0 -3.3,0.4 -0.2,0.1 -0.4,0.3 -0.6,0.3 -0.3,0.1 -0.6,-0.1 -0.8,-0.2 -0.5,-0.2 -0.9,-0.3 -1.4,-0.3 -0.3,0 -0.5,0 -0.7,0.1 -0.3,0.1 -0.3,0.4 -0.5,0.6 0.2,0 -0.3,1 -0.3,1"
                 id="path175"
                 style="fill:#d19c24" /></g></g></g><g
           id="g177"><g
             id="g179"><path
               d="m 197,58.9 c 0,9.9 -8,17.8 -17.8,17.8 -9.9,0 -17.8,-8 -17.8,-17.8 0,-9.9 8,-17.8 17.8,-17.8 C 189,41 197,49 197,58.9"
               id="path181"
               style="fill:#ffffff" /><path
               d="m 197,58.9 c 0,9.9 -8,17.8 -17.8,17.8 -9.9,0 -17.8,-8 -17.8,-17.8 0,-9.9 8,-17.8 17.8,-17.8 C 189,41 197,49 197,58.9"
               clip-path="url(#biome3)"
               id="path183"
               style="fill:#08b900" /><g
               id="g185"><defs
                 id="defs187"><path
                   d="m 178.2,46.5 c -1.6,1.1 -1.8,3.7 -0.4,5.7 1.4,2 3.8,2.7 5.5,1.6 1.6,-1.1 1.8,-3.7 0.4,-5.7 -0.9,-1.4 -2.4,-2.1 -3.7,-2.1 -0.7,0 -1.3,0.1 -1.8,0.5"
                   id="SVGID_5_" /></defs><clipPath
                 id="SVGID_6_"><use
                   id="use191"
                   style="overflow:visible"
                   x="0"
                   y="0"
                   width="300"
                   height="260"
                   xlink:href="#SVGID_5_" /></clipPath><path
                 d="m 179.6,50.9 c 1.4,2 1.2,4.5 -0.4,5.7 -1.6,1.1 -4.1,0.4 -5.5,-1.6 -1.4,-2 -1.2,-4.5 0.4,-5.7 1.6,-1.1 4.1,-0.4 5.5,1.6"
                 clip-path="url(#SVGID_6_)"
                 id="path193"
                 style="fill:#d19c24;fill-rule:evenodd" /></g><g
               id="g195"><defs
                 id="defs197"><path
                   d="m 180.8,50 c -1.4,2 -1.2,4.5 0.4,5.7 1.6,1.1 4.1,0.4 5.5,-1.6 1.4,-2 1.2,-4.5 -0.4,-5.7 -0.5,-0.4 -1.1,-0.5 -1.8,-0.5 -1.3,0 -2.7,0.8 -3.7,2.1"
                   id="SVGID_7_" /></defs><clipPath
                 id="SVGID_8_"><use
                   id="use201"
                   style="overflow:visible"
                   x="0"
                   y="0"
                   width="300"
                   height="260"
                   xlink:href="#SVGID_7_" /></clipPath><path
                 d="m 184.9,52.9 c -1.4,2 -1.2,4.5 0.4,5.7 1.6,1.1 4.1,0.4 5.5,-1.6 1.4,-2 1.2,-4.5 -0.4,-5.7 -1.6,-1.1 -4.1,-0.4 -5.5,1.6"
                 clip-path="url(#SVGID_8_)"
                 id="path203"
                 style="fill:#d19c24;fill-rule:evenodd" /></g><g
               id="g205"><defs
                 id="defs207"><path
                   d="m 175.7,48.8 c -0.8,2.3 0,4.7 1.9,5.4 1.9,0.7 4,-0.7 4.8,-3 0.8,-2.3 0,-4.7 -1.9,-5.4 -0.3,-0.1 -0.6,-0.2 -1,-0.2 -1.6,0.1 -3.2,1.3 -3.8,3.2"
                   id="SVGID_9_" /></defs><clipPath
                 id="SVGID_10_"><use
                   id="use211"
                   style="overflow:visible"
                   x="0"
                   y="0"
                   width="300"
                   height="260"
                   xlink:href="#SVGID_9_" /></clipPath><path
                 d="m 180.4,50.5 c -0.8,2.3 0,4.7 1.9,5.4 1.9,0.7 4,-0.7 4.8,-3 0.8,-2.3 0,-4.7 -1.9,-5.4 -1.9,-0.7 -4,0.7 -4.8,3"
                 clip-path="url(#SVGID_10_)"
                 id="path213"
                 style="fill:#d19c24;fill-rule:evenodd" /></g><g
               id="g215"><defs
                 id="defs217"><path
                   d="m 171.9,50 c -2.3,0.9 -3.5,3.1 -2.8,5 0.7,1.8 3.2,2.6 5.4,1.7 2.3,-0.9 3.5,-3.1 2.8,-5 -0.5,-1.3 -1.9,-2.1 -3.5,-2.1 -0.6,0 -1.3,0.1 -1.9,0.4"
                   id="SVGID_11_" /></defs><clipPath
                 id="SVGID_12_"><use
                   id="use221"
                   style="overflow:visible"
                   x="0"
                   y="0"
                   width="300"
                   height="260"
                   xlink:href="#SVGID_11_" /></clipPath><path
                 d="m 173.7,54.6 c -2.3,0.9 -3.5,3.1 -2.8,5 0.7,1.8 3.2,2.6 5.4,1.7 2.3,-0.9 3.5,-3.1 2.8,-5 -0.7,-1.9 -3.1,-2.6 -5.4,-1.7"
                 clip-path="url(#SVGID_12_)"
                 id="path223"
                 style="fill:#d19c24;fill-rule:evenodd" /></g><g
               id="g225"><defs
                 id="defs227"><path
                   d="m 179.5,47.3 c -2,1.4 -2.7,3.8 -1.6,5.5 1.1,1.6 3.7,1.8 5.7,0.4 2,-1.4 2.7,-3.8 1.6,-5.5 -0.6,-0.9 -1.7,-1.4 -2.8,-1.4 -0.9,0.1 -2,0.4 -2.9,1"
                   id="SVGID_13_" /></defs><clipPath
                 id="SVGID_14_"><use
                   id="use231"
                   style="overflow:visible"
                   x="0"
                   y="0"
                   width="300"
                   height="260"
                   xlink:href="#SVGID_13_" /></clipPath><path
                 d="m 182.4,51.4 c -2,1.4 -2.7,3.8 -1.6,5.5 1.1,1.6 3.7,1.8 5.7,0.4 2,-1.4 2.7,-3.8 1.6,-5.5 -1.2,-1.6 -3.7,-1.8 -5.7,-0.4"
                 clip-path="url(#SVGID_14_)"
                 id="path233"
                 style="fill:#d19c24;fill-rule:evenodd" /></g><g
               id="g235"><defs
                 id="defs237"><path
                   d="m 176.6,52.4 c -1.6,1.1 -1.8,3.7 -0.4,5.7 1.4,2 3.8,2.7 5.5,1.6 1.6,-1.1 1.8,-3.7 0.4,-5.7 -0.9,-1.4 -2.4,-2.1 -3.7,-2.1 -0.6,0 -1.2,0.2 -1.8,0.5"
                   id="SVGID_15_" /></defs><clipPath
                 id="SVGID_16_"><use
                   id="use241"
                   style="overflow:visible"
                   x="0"
                   y="0"
                   width="300"
                   height="260"
                   xlink:href="#SVGID_15_" /></clipPath><path
                 d="m 178,56.9 c 1.4,2 1.2,4.5 -0.4,5.7 -1.6,1.1 -4.1,0.4 -5.5,-1.6 -1.4,-2 -1.2,-4.5 0.4,-5.7 1.7,-1.1 4.1,-0.4 5.5,1.6"
                 clip-path="url(#SVGID_16_)"
                 id="path243"
                 style="fill:#d19c24;fill-rule:evenodd" /></g><g
               id="g245"><defs
                 id="defs247"><path
                   d="m 175.2,53.6 c -1.4,2 -1.2,4.5 0.4,5.7 1.6,1.1 4.1,0.4 5.5,-1.6 1.4,-2 1.2,-4.5 -0.4,-5.7 -0.5,-0.4 -1.1,-0.5 -1.8,-0.5 -1.3,-0.1 -2.7,0.7 -3.7,2.1"
                   id="SVGID_17_" /></defs><clipPath
                 id="SVGID_18_"><use
                   id="use251"
                   style="overflow:visible"
                   x="0"
                   y="0"
                   width="300"
                   height="260"
                   xlink:href="#SVGID_17_" /></clipPath><path
                 d="m 179.3,56.4 c -1.4,2 -1.2,4.5 0.4,5.7 1.6,1.1 4.1,0.4 5.5,-1.6 1.4,-2 1.2,-4.5 -0.4,-5.7 -1.6,-1.1 -4.1,-0.4 -5.5,1.6"
                 clip-path="url(#SVGID_18_)"
                 id="path253"
                 style="fill:#d19c24;fill-rule:evenodd" /></g><g
               id="g255"><defs
                 id="defs257"><path
                   d="m 179.3,51.7 c -2.3,0.9 -3.5,3.1 -2.8,5 0.7,1.8 3.2,2.6 5.4,1.7 2.3,-0.9 3.5,-3.1 2.8,-5 -0.5,-1.3 -1.9,-2.1 -3.5,-2.1 -0.6,0 -1.3,0.1 -1.9,0.4"
                   id="SVGID_19_" /></defs><clipPath
                 id="SVGID_20_"><use
                   id="use261"
                   style="overflow:visible"
                   x="0"
                   y="0"
                   width="300"
                   height="260"
                   xlink:href="#SVGID_19_" /></clipPath><path
                 d="m 181.1,56.3 c -2.3,0.9 -3.5,3.1 -2.8,5 0.7,1.8 3.2,2.6 5.4,1.7 2.3,-0.9 3.5,-3.1 2.8,-5 -0.7,-1.9 -3.1,-2.6 -5.4,-1.7"
                 clip-path="url(#SVGID_20_)"
                 id="path263"
                 style="fill:#d19c24;fill-rule:evenodd" /></g><g
               id="g265"><defs
                 id="defs267"><path
                   d="m 184.7,48.2 c -2.3,0.9 -3.5,3.1 -2.8,5 0.7,1.8 3.2,2.6 5.4,1.7 2.3,-0.9 3.5,-3.1 2.8,-5 -0.5,-1.3 -1.9,-2.1 -3.5,-2.1 -0.5,0 -1.2,0.1 -1.9,0.4"
                   id="SVGID_21_" /></defs><clipPath
                 id="SVGID_22_"><use
                   id="use271"
                   style="overflow:visible"
                   x="0"
                   y="0"
                   width="300"
                   height="260"
                   xlink:href="#SVGID_21_" /></clipPath><path
                 d="m 186.6,52.8 c -2.3,0.9 -3.5,3.1 -2.8,5 0.7,1.8 3.2,2.6 5.4,1.7 2.3,-0.9 3.5,-3.1 2.8,-5 -0.7,-1.9 -3.1,-2.6 -5.4,-1.7"
                 clip-path="url(#SVGID_22_)"
                 id="path273"
                 style="fill:#d19c24;fill-rule:evenodd" /></g><path
               d="m 178.7,58.7 c -0.1,0.9 -0.2,1.9 -0.3,2.8 0,0.5 0.7,0.5 0.7,0 0.1,-0.9 0.2,-1.9 0.3,-2.8 0.1,-0.5 -0.6,-0.5 -0.7,0"
               id="path275"
               style="fill:#d19c24" /><path
               d="m 179.1,61.9 c 2.6,-2 4.1,-5 6.1,-7.7 0.3,-0.4 -0.3,-0.7 -0.6,-0.4 -1.9,2.6 -3.4,5.5 -5.9,7.5 -0.5,0.4 0,0.9 0.4,0.6"
               id="path277"
               style="fill:#d19c24" /><path
               d="m 179.8,52.8 c 0,1.6 0.1,3.3 0,4.9 0,1 0,2.6 -0.8,3.4 -0.3,0.3 0.2,0.8 0.5,0.5 0.8,-0.8 0.9,-2.1 1,-3.2 0.1,-1.9 0.1,-3.8 0.1,-5.7 -0.1,-0.4 -0.8,-0.4 -0.8,0.1"
               id="path279"
               style="fill:#d19c24" /><path
               d="m 173.2,53.1 c 1.4,3.2 2.9,6.4 5.4,9 l 0.5,-0.5 c -2.4,-2.3 -4.9,-4.6 -7.2,-6.9 -0.3,-0.3 -0.8,0.2 -0.5,0.5 2.4,2.3 4.9,4.6 7.2,6.9 0.3,0.3 0.8,-0.2 0.5,-0.5 -2.4,-2.5 -3.9,-5.7 -5.3,-8.8 -0.2,-0.5 -0.8,-0.2 -0.6,0.3"
               id="path281"
               style="fill:#d19c24" /><path
               d="m 178.4,61.7 c 0.2,2.9 -0.2,5.8 -0.2,8.7 0,0.5 0.7,0.5 0.7,0 0.1,-2.9 0.4,-5.8 0.2,-8.7 0,-0.5 -0.7,-0.5 -0.7,0"
               id="path283"
               style="fill:#d19c24" /><path
               d="m 175.6,71.4 c 0.1,-2.2 1.2,-5.6 3.4,-6.6 -0.1,-0.1 -0.3,-0.1 -0.4,-0.2 1.3,2 3.2,4.6 2.6,7.1 -0.1,0.5 0.6,0.7 0.7,0.2 0.6,-2.7 -1.3,-5.5 -2.7,-7.6 -0.1,-0.1 -0.3,-0.2 -0.4,-0.2 -2.6,1.1 -3.8,4.7 -4,7.3 0.1,0.4 0.8,0.4 0.8,0"
               id="path285"
               style="fill:#d19c24" /><path
               d="m 178.6,64.8 c 0.1,2.1 1.2,4 1.4,6.1 0,0.5 0.8,0.5 0.7,0 -0.2,-2.1 -1.3,-4 -1.4,-6.1 0,-0.4 -0.7,-0.4 -0.7,0"
               id="path287"
               style="fill:#d19c24" /></g><g
             id="g289"><g
               id="g291"><defs
                 id="defs293"><path
                   d="m 170.7,49.3 c -1.6,1.1 -1.8,3.7 -0.4,5.7 1.4,2 3.8,2.7 5.5,1.6 1.6,-1.1 1.8,-3.7 0.4,-5.7 -0.9,-1.4 -2.4,-2.1 -3.7,-2.1 -0.7,0 -1.3,0.1 -1.8,0.5"
                   id="SVGID_23_" /></defs><clipPath
                 id="SVGID_24_"><use
                   id="use297"
                   style="overflow:visible"
                   x="0"
                   y="0"
                   width="300"
                   height="260"
                   xlink:href="#SVGID_23_" /></clipPath><path
                 d="m 172.1,53.7 c 1.4,2 1.2,4.5 -0.4,5.7 -1.6,1.1 -4.1,0.4 -5.5,-1.6 -1.4,-2 -1.2,-4.5 0.4,-5.7 1.6,-1.1 4.1,-0.4 5.5,1.6"
                 clip-path="url(#SVGID_24_)"
                 id="path299"
                 style="fill:#d19c24;fill-rule:evenodd" /></g><g
               id="g301"><defs
                 id="defs303"><path
                   d="m 172.3,46.3 c -1.6,1.1 -1.8,3.7 -0.4,5.7 1.4,2 3.8,2.7 5.5,1.6 1.6,-1.1 1.8,-3.7 0.4,-5.7 -0.9,-1.4 -2.4,-2.1 -3.7,-2.1 -0.7,-0.1 -1.3,0.1 -1.8,0.5"
                   id="SVGID_25_" /></defs><clipPath
                 id="SVGID_26_"><use
                   id="use307"
                   style="overflow:visible"
                   x="0"
                   y="0"
                   width="300"
                   height="260"
                   xlink:href="#SVGID_25_" /></clipPath><path
                 d="m 173.6,50.7 c 1.4,2 1.2,4.5 -0.4,5.7 -1.6,1.1 -4.1,0.4 -5.5,-1.6 -1.4,-2 -1.2,-4.5 0.4,-5.7 1.7,-1.1 4.1,-0.4 5.5,1.6"
                 clip-path="url(#SVGID_26_)"
                 id="path309"
                 style="fill:#d19c24;fill-rule:evenodd" /></g><g
               id="g311"><defs
                 id="defs313"><path
                   d="m 171.6,48.2 c -1.4,2 -1.2,4.5 0.4,5.7 1.6,1.1 4.1,0.4 5.5,-1.6 1.4,-2 1.2,-4.5 -0.4,-5.7 -0.5,-0.4 -1.1,-0.5 -1.8,-0.5 -1.3,0 -2.7,0.8 -3.7,2.1"
                   id="SVGID_27_" /></defs><clipPath
                 id="SVGID_28_"><use
                   id="use317"
                   style="overflow:visible"
                   x="0"
                   y="0"
                   width="300"
                   height="260"
                   xlink:href="#SVGID_27_" /></clipPath><path
                 d="m 175.7,51.1 c -1.4,2 -1.2,4.5 0.4,5.7 1.6,1.1 4.1,0.4 5.5,-1.6 1.4,-2 1.2,-4.5 -0.4,-5.7 -1.7,-1.2 -4.1,-0.5 -5.5,1.6"
                 clip-path="url(#SVGID_28_)"
                 id="path319"
                 style="fill:#d19c24;fill-rule:evenodd" /></g><g
               id="g321"><defs
                 id="defs323"><path
                   d="m 169.5,50.6 c -1.4,2 -1.2,4.5 0.4,5.7 1.6,1.1 4.1,0.4 5.5,-1.6 1.4,-2 1.2,-4.5 -0.4,-5.7 -0.5,-0.4 -1.1,-0.5 -1.8,-0.5 -1.3,0 -2.7,0.8 -3.7,2.1"
                   id="SVGID_29_" /></defs><clipPath
                 id="SVGID_30_"><use
                   id="use327"
                   style="overflow:visible"
                   x="0"
                   y="0"
                   width="300"
                   height="260"
                   xlink:href="#SVGID_29_" /></clipPath><path
                 d="m 173.6,53.5 c -1.4,2 -1.2,4.5 0.4,5.7 1.6,1.1 4.1,0.4 5.5,-1.6 1.4,-2 1.2,-4.5 -0.4,-5.7 -1.6,-1.1 -4.1,-0.4 -5.5,1.6"
                 clip-path="url(#SVGID_30_)"
                 id="path329"
                 style="fill:#d19c24;fill-rule:evenodd" /></g></g></g><g
           id="g331"><path
             d="m 222.2,220.8 c 0,9.9 -8,17.8 -17.8,17.8 -9.9,0 -17.8,-8 -17.8,-17.8 0,-9.9 8,-17.8 17.8,-17.8 9.8,-0.1 17.8,7.9 17.8,17.8"
             id="path333"
             style="fill:#ffffff" /><path
             d="m 222.2,220.8 c 0,9.9 -8,17.8 -17.8,17.8 -9.9,0 -17.8,-8 -17.8,-17.8 0,-9.9 8,-17.8 17.8,-17.8 9.8,-0.1 17.8,7.9 17.8,17.8"
             clip-path="url(#biome7)"
             id="path335"
             style="fill:#08b900" /><g
             id="g337"><path
               d="m 209,217.9 c 0.1,0.1 -0.3,0.4 0.1,0.3 0.3,-0.1 0.4,0 0.6,0.2 -0.1,0.2 -0.3,0.2 -0.4,0.2 0.1,0.1 0.2,0 0.3,0.1 0.3,0 0,-0.2 0.2,-0.3 0.2,0.1 0.4,0.2 0.4,0.4 0.1,0.2 0.2,0.2 0.3,0.1 0.2,-0.1 0.3,0 0.3,0.1 0,0.2 0.1,0.5 -0.1,0.6 l -0.1,0 -0.1,0 c -0.1,-0.1 -0.1,-0.2 -0.2,-0.3 0,0 -0.1,0 -0.1,0 0,0 0,0 0,0.1 0,0.3 -0.1,0.5 -0.3,0.7 -0.2,0.2 -0.5,0.1 -0.7,0.3 0,0 -0.1,0.1 -0.1,0.1 -0.2,0.2 -0.4,0.1 -0.7,0.1 -0.1,0 0,0.1 0,0 0,0 0,0 0,0 0.2,0 0.4,-0.1 0.5,0.1 -0.2,0.2 -0.8,0 -0.7,0.4 0,0.3 0.6,0.1 0.9,0.2 0.4,0.1 0.8,-0.3 1.2,0 -0.1,0.2 -0.3,0.2 -0.4,0.2 -0.3,0.1 -0.7,0.1 -1,0.1 -0.1,0 -0.1,0 -0.2,0 -0.1,0 -0.1,0.1 0,0 0,-0.1 0.1,0.1 0.1,0 0.4,0 0.7,0.1 1.1,0 0.2,0 0.3,0 0.5,0 0.2,0.1 0.4,-0.1 0.5,-0.1 0.2,0 0.4,0 0.7,0 0.1,0 0.1,0.1 0.1,0.1 0,0.2 -0.1,0.4 0,0.6 0,0.2 -0.1,0.2 -0.2,0.3 -0.1,0.1 -0.2,0.2 -0.3,0.3 0,0 -0.1,0.1 -0.1,0.1 -0.4,0.4 -0.4,1 -0.9,1.3 -0.1,0.1 -0.1,0.2 0,0.3 -0.2,0.2 -0.4,0.2 -0.7,0.3 -0.3,-0.3 -0.5,0.1 -0.7,0.2 -0.4,0.1 -0.7,0.3 -1,0.2 -0.2,0 -0.1,0.2 -0.1,0.1 0,0 0,-0.1 0,-0.1 0.2,0 0.4,-0.2 0.4,0.2 l 0,0 c -0.2,0.1 -0.4,0 -0.6,0.1 -0.1,0 -0.3,0.1 -0.4,0.1 -0.1,0 -0.1,0 -0.2,0 -0.1,0 -0.1,0 -0.2,0 -0.1,0 -0.3,-0.1 -0.4,-0.2 -0.1,-0.1 -0.2,-0.2 -0.2,-0.3 -0.1,-0.2 -0.3,-0.3 -0.5,-0.4 -0.1,-0.1 -0.2,0 -0.2,0.1 -0.4,0.1 -0.2,0.4 -0.2,0.6 0,2.2 0,4.3 0,6.5 0,0.2 0.1,0.4 -0.2,0.5 -0.2,-0.2 -0.1,-0.5 -0.1,-0.8 0,-2 0,-3.9 0,-5.6 0,1.8 0,3.9 0,6.1 0,0.1 -0.1,0.1 -0.2,0.2 -0.3,0 -0.6,0 -0.7,-0.4 -0.1,-1.6 0,-3.1 -0.1,-4.7 0,-0.7 0,-1.3 0,-2 -0.1,-0.2 -0.3,-0.1 -0.4,-0.2 0,-0.4 -0.4,-0.2 -0.5,-0.3 -0.1,-0.1 -0.1,-0.1 0,-0.2 0,0 0.1,-0.1 0.1,-0.1 0,0 -0.1,0.1 -0.1,0.1 -0.2,0.1 -0.3,0.2 -0.5,0.2 -0.4,0 -0.8,-0.1 -1.1,0 -0.3,0.1 -0.6,0 -0.8,0.1 -0.3,0.2 -0.6,0.1 -0.8,0 0.3,0.4 0.7,-0.1 1.1,0.2 0,0.1 0,0.1 0,0.2 -0.6,0.2 -1.2,0.1 -1.8,-0.3 -0.4,-0.2 -0.8,-0.2 -1.2,-0.4 0.1,-0.1 0.2,-0.2 0.3,-0.2 0.2,0 0.4,-0.1 0.4,-0.4 0.1,0 0.1,0 0.2,0 0.1,0.2 0,0.4 0.1,0.6 0,-0.3 0,-0.5 0.1,-0.6 0,0 0.1,-0.1 0.2,-0.1 0.1,0 0.2,0.3 0.4,0.1 0.5,-0.1 0.3,-0.4 0.1,-0.6 -0.1,-0.1 -0.1,-0.1 -0.1,-0.2 0,-0.5 -0.4,-0.5 -0.7,-0.6 -0.3,0 -0.5,0.1 -0.8,-0.1 h 0 c 0,-0.1 0,-0.1 0,-0.2 0.1,-0.1 0.2,-0.1 0.3,-0.1 0.2,0 0.5,0 0.8,0.1 -0.4,-0.1 -0.7,-0.1 -0.9,-0.2 -0.1,0 -0.2,-0.1 -0.2,-0.2 0,-0.2 0.1,-0.2 0.3,-0.3 0.2,0 0.2,-0.3 0.4,-0.3 0.1,0 0.1,0 0.2,0 0,0 0,0.1 0.1,0.1 0,0 0,0 0,-0.1 0.1,-0.1 0.2,-0.2 0.3,-0.3 0.1,0 0.2,0 0.3,0 0.1,0 0.2,-0.1 0.3,-0.1 0.2,0 0.2,-0.1 0.1,-0.2 -0.1,-0.1 -0.2,-0.2 -0.3,-0.3 -0.1,0 -0.1,-0.1 -0.2,-0.2 -0.1,-0.1 -0.2,-0.2 -0.2,-0.3 0.1,-0.1 0.2,-0.2 0.3,-0.2 0.2,-0.2 0,-0.3 -0.1,-0.4 -0.1,-0.2 -0.4,-0.3 -0.5,-0.5 l 0,0 c 0,0 0,-0.1 0,-0.1 0,0 0,0 0,0 0.3,0.1 0.4,-0.1 0.4,-0.4 0,-0.2 -0.1,-0.4 0,-0.7 0.4,-0.6 0.4,-0.6 1.1,-0.3 0.2,0.1 0.3,0.4 0.5,0.1 0.1,-0.2 -0.1,-0.3 -0.2,-0.5 0,-0.1 -0.1,-0.2 -0.1,-0.2 0.1,-0.1 0.1,-0.3 0,-0.4 -0.1,-0.2 -0.3,-0.3 -0.4,-0.5 0.1,-0.1 0.1,-0.3 0.3,-0.4 0.1,0 0.2,0 0.3,0.1 0,0 0.1,0.2 0.1,0 -0.1,-0.2 -0.4,-0.3 -0.3,-0.6 0.3,0 0.5,-0.7 0.9,-0.2 0,0 0,0.1 0.1,0 0,-0.1 -0.2,-0.3 -0.1,-0.4 0,-0.1 0.1,-0.2 0.2,-0.3 0.3,-0.2 0,-0.3 -0.1,-0.5 0,-0.2 0.1,-0.4 0.4,-0.3 0.6,0.1 0.4,-0.4 0.4,-0.7 0,0 0.1,0 0.1,0 0.1,0 0.2,0.1 0.2,0.1 0,0 0,0.1 0.1,0.1 0,-0.1 0,-0.1 -0.1,-0.2 -0.3,-0.4 -0.1,-0.7 0.1,-1 0.1,-0.2 0.3,0.2 0.3,-0.1 0,-0.1 0,-0.2 0.1,-0.3 0.2,-0.4 -0.1,-0.9 0.2,-1.3 0,-0.1 0.1,0 0.2,-0.1 -0.1,0 -0.1,0 -0.2,0 -0.1,0 -0.1,-0.1 -0.1,-0.1 0.1,-0.3 0,-0.7 0.5,-0.8 0.1,-0.2 0.2,-0.5 0.3,-0.7 0.1,0 0.1,0.1 0.1,0.2 0,0.2 0,0.4 0,0.6 0,0.1 -0.1,0.2 -0.1,0.2 0.1,-0.1 0.1,-0.2 0.1,-0.3 0,-0.2 0,-0.4 0,-0.5 0.1,-0.2 0.2,-0.5 0.2,-0.7 0,-0.1 0,-0.1 -0.1,-0.2 -0.1,0 -0.1,0 -0.1,-0.1 0.1,-0.6 0.5,-0.7 1,-0.8 0.1,0 0.1,0 0.1,0.1 0,0.1 0,0.3 0,0.4 0,0.1 -0.1,0.1 -0.1,0.1 -0.1,0.1 0,0.3 -0.1,0.5 0.1,-0.2 0,-0.4 0.1,-0.5 0.2,0 0.2,0.2 0.3,0.4 0,0.2 0.1,0.4 0,0.7 -0.2,0.1 -0.1,0.3 -0.1,0.5 0,-0.1 0,-0.2 0,-0.4 0.1,-0.1 0.2,-0.1 0.3,0 0.1,0.1 0.1,0.1 0.2,0.2 0.1,0.2 0.1,0.3 0.1,0.5 0.1,0.2 0.1,0.5 0.4,0.3 0.1,0.4 0.1,0.8 0.3,1.2 l 0,0 c 0.1,0.1 0.1,0.2 0.1,0.3 -0.4,0.1 -0.3,-0.3 -0.4,-0.4 0.2,0.2 0.1,0.6 0.5,0.6 0.1,0 0.1,0 0.1,0.1 0,0 0.1,0.1 0.1,0.1 0.1,0 0.2,0.1 0.2,0.2 0,0.1 0,0.2 0.1,0.1 0.1,0 0.1,0 0.1,0.1 -0.1,0.3 0.1,0.4 0.4,0.4 0.1,0 0.1,0.1 0.1,0.1 -0.2,0.4 -0.4,0.8 -0.3,1.3 0,0.2 0,0.5 -0.1,0.7 0,0 -0.1,0.1 -0.1,0.1 -0.2,0.2 -0.1,0.4 0,0.6 0,0.1 0,0.2 0,0.3 0,0.6 0.6,0.5 0.9,0.7 0.2,0.2 0.3,0.1 0.5,0 0,0 0.1,-0.1 0.1,-0.1 0.2,-0.1 0.1,-0.3 0.1,-0.4 0.3,-0.2 0.4,0 0.5,0.3 0,0.2 0.6,-0.1 0.3,0.4 -0.1,0.1 -0.2,0.1 -0.3,0.2 0,0 -0.1,0.1 -0.1,0.1 -0.1,0.2 -0.1,0.4 -0.1,0.5 -0.5,1 -0.5,1 -0.6,1.2 l 0,0 c -0.1,-0.1 -0.2,0 -0.2,0 0,0 0.1,-0.1 0.2,0 z"
               id="path339"
               style="fill:#d19c24;fill-rule:evenodd" /><path
               d="m 203.5,225.3 c 0.2,0.1 0.4,-0.1 0.5,-0.3 0.1,0.4 0.1,0.9 0.1,1.4 0,1.9 0,3.8 0,5.8 0,0.1 0,0.3 0,0.4 -0.3,0 -0.2,-0.2 -0.2,-0.3 0,-2.1 0,-4.1 0,-6.2 0,2.1 0,4.1 0,6.2 0,0.1 -0.1,0.1 -0.2,0.1 0,-1.7 0,-3.3 0,-5 -0.2,-0.8 -0.2,-1.4 -0.2,-2.1 z"
               id="path341"
               style="fill:#d19c24;fill-rule:evenodd" /><path
               d="m 204.8,232.5 c 0,-2.5 0,-4.9 0,-7.4 0.1,0 0.2,0 0.3,0 0,2.5 0,5 0,7.6 0,0 -0.1,0.1 -0.1,0.1 -0.2,-0.1 -0.2,-0.2 -0.2,-0.3 z"
               id="path343"
               style="fill:#d19c24;fill-rule:evenodd" /><path
               d="m 210.6,219.2 c 0,0.2 0,0.3 0,0.5 -0.3,0.6 0.1,0.4 0.4,0.3 0.2,0 0.3,-0.1 0.4,0.1 0.1,0.1 0,0.2 -0.2,0.2 -0.1,-0.1 -0.2,-0.1 -0.3,-0.1 0.1,0 0.2,0 0.3,0.1 -0.7,0.3 -1.5,0.4 -2.2,0.4 -0.2,-0.1 -0.5,0.1 -0.7,-0.2 0.3,-0.1 0.6,0 0.8,-0.2 0,0 0.1,-0.1 0.2,-0.1 0.2,0 0.4,0.1 0.6,0.1 0,-0.1 -0.1,-0.1 -0.1,-0.2 0,-0.1 0,-0.1 0.1,-0.2 0.4,-0.1 0.2,-0.4 0.3,-0.7 0.1,0.1 0.2,0 0.4,0 z"
               id="path345"
               style="fill:#d19c24;fill-rule:evenodd" /><path
               d="m 200.2,216.3 c 0.2,0.2 0.4,0.4 0.6,0.7 0.1,0.1 0.2,0.2 0.1,0.3 -0.1,0.1 -0.2,0 -0.4,0 -0.3,-0.4 -0.7,-0.7 -0.9,-1.2 0.1,-0.1 0.2,-0.1 0.3,0 0,0 0.1,0.1 0.1,0.1 0.1,0 0.1,0.1 0.2,0.1 z"
               id="path347"
               style="fill:#d19c24;fill-rule:evenodd" /><path
               d="m 211.6,221.9 c 0,0 0,-0.1 0,-0.1 -0.2,-0.2 -0.5,-0.1 -0.7,-0.1 -0.1,0 -0.2,0 -0.2,0.1 -0.1,0 -0.1,0 -0.1,-0.1 0.7,-0.5 1.2,-0.3 1.3,0.5 0,0.1 0.1,0.3 0.2,0.4 0,0.2 -0.2,0.2 -0.3,0.3 -0.1,0 -0.3,0 -0.4,-0.1 0.1,-0.1 0.2,-0.2 0.3,-0.3 -0.3,-0.3 -0.1,-0.5 -0.1,-0.6 z"
               id="path349"
               style="fill:#d19c24;fill-rule:evenodd" /><path
               d="m 199.1,220.4 c 0.1,0.1 0.2,0.2 0.3,0.3 -0.1,0.2 -0.2,0.3 -0.1,0.5 0.1,0.2 0.1,0.4 0,0.5 -0.1,-0.1 -0.2,-0.2 -0.3,-0.3 -0.1,0 -0.2,0 -0.3,-0.1 -0.1,-0.1 -0.1,-0.2 -0.1,-0.3 -0.1,-0.2 0.3,-0.3 0.2,-0.5 -0.1,-0.1 -0.1,-0.3 0,-0.4 0.2,-0.1 0.3,0.1 0.3,0.3 z"
               id="path351"
               style="fill:#d19c24;fill-rule:evenodd" /><path
               d="m 210,224.5 c 0.4,-0.4 0.5,-1.1 1.1,-1.4 0.1,0.1 0.1,0.2 0,0.3 0,0.1 -0.1,0.2 -0.1,0.3 -0.1,0 -0.1,0.1 -0.1,0.2 0,0.2 0.1,0.4 -0.2,0.6 -0.2,0.1 -0.3,0.3 -0.5,0.3 -0.1,-0.2 -0.1,-0.2 -0.2,-0.3 z"
               id="path353"
               style="fill:#d19c24;fill-rule:evenodd" /><path
               d="m 208.1,216.7 c -0.3,-0.2 -0.7,-0.1 -0.9,-0.4 -0.1,-0.1 -0.2,-0.2 0,-0.4 0,0 0.1,-0.1 0.2,0 0.2,0.1 0.3,0.3 0.6,0.3 0.3,0 0.5,0.3 0.7,0.1 0,0 0.1,-0.1 0.1,-0.1 0,0 0,0 0.1,0.1 0.1,0.1 0,0.2 -0.1,0.3 l 0,0 c -0.3,0.2 -0.5,0.2 -0.7,0.1 z"
               id="path355"
               style="fill:#d19c24;fill-rule:evenodd" /><path
               d="m 208.1,225.7 c -0.1,-0.2 -0.4,-0.1 -0.6,-0.2 0.5,0 0.9,-0.4 1.4,-0.3 0.1,0 0.1,0 0.2,0 0,0.3 -0.3,0.4 -0.6,0.5 -0.2,0 -0.3,0 -0.4,0 z"
               id="path357"
               style="fill:#d19c24;fill-rule:evenodd" /><path
               d="m 200.7,225.4 c 0,-0.1 0,-0.1 0,-0.2 0.3,-0.3 0.6,-0.1 0.9,-0.2 0.3,-0.1 0.5,-0.1 0.8,0 0.1,0 0.1,0.1 0.1,0.1 -0.5,0.3 -1.2,0.4 -1.8,0.3 z"
               id="path359"
               style="fill:#d19c24;fill-rule:evenodd" /><path
               d="m 201.5,214.9 c -0.1,0 -0.1,0 -0.2,-0.1 0,-0.1 0.2,-1 0.3,-1.1 0.2,-0.1 0.3,-0.1 0.4,0.1 -0.2,0 -0.3,0.2 -0.3,0.4 0.1,0.1 0.1,0.3 0,0.4 -0.1,0.1 -0.2,0.2 -0.2,0.3 z"
               id="path361"
               style="fill:#d19c24;fill-rule:evenodd" /><path
               d="m 198.6,224.2 c 0,0 -0.1,0 -0.1,0 -0.1,-0.1 -0.2,-0.3 -0.3,-0.4 -0.1,-0.4 -0.1,-0.7 0.4,-0.5 0,0.1 0.1,0.1 0.1,0.2 0,0.1 0,0.3 0,0.4 0,0.2 0,0.3 -0.1,0.3 z"
               id="path363"
               style="fill:#d19c24;fill-rule:evenodd" /><path
               d="m 204.8,232.5 c 0.1,0.1 0.1,0.2 0.1,0.3 -0.4,0.2 -0.7,0.3 -1.1,0 0,-0.1 0.2,-0.2 0.3,-0.2 0.2,0 0.4,-0.1 0.5,0 0.1,-0.1 0.1,-0.1 0.2,-0.1 z"
               id="path365"
               style="fill:#d19c24;fill-rule:evenodd" /><path
               d="m 202.3,213.2 c -0.3,-0.5 0,-0.9 0,-1.4 0,-0.2 0.2,-0.2 0.4,-0.1 0,0.1 0,0.1 0,0.1 -0.1,0.1 -0.1,0.2 -0.1,0.4 0,0.3 -0.1,0.7 -0.3,1 l 0,0 z"
               id="path367"
               style="fill:#d19c24;fill-rule:evenodd" /><path
               d="m 203.1,211.5 c -0.1,-0.4 0.1,-0.7 0.1,-1.1 0,0 0.1,0 0.1,0 0,0 0,0 0,0.1 0,0 0,0 0,0 -0.2,0.4 0,0.9 -0.3,1.3 -0.1,0.1 -0.2,0.1 -0.2,0.1 -0.1,0 -0.2,-0.1 -0.2,-0.2 0,0 0,0 0.1,-0.1 0.2,0.1 0.4,0.2 0.4,-0.1 z"
               id="path369"
               style="fill:#d19c24;fill-rule:evenodd" /><path
               d="m 198.1,224.6 c -0.1,0.1 -0.2,0.1 -0.3,0.2 -0.2,0 -0.5,-0.1 -0.4,-0.4 0.1,-0.2 0.3,0 0.5,0 0,0.1 0.1,0.2 0.2,0.2 z"
               id="path371"
               style="fill:#d19c24;fill-rule:evenodd" /><path
               d="m 209.1,225.2 c 0,0 -0.1,0 -0.1,0 0,0 -0.1,0 -0.1,0 0.1,-0.3 0.3,-0.4 0.6,-0.4 0.2,0 0,0.2 0,0.3 -0.1,0 -0.2,0.1 -0.4,0.1 z"
               id="path373"
               style="fill:#d19c24;fill-rule:evenodd" /><path
               d="m 205.7,224.9 c 0.2,0.2 0.5,0.2 0.5,0.5 -0.2,-0.1 -0.2,0 -0.3,0.1 -0.1,-0.1 -0.3,-0.3 -0.4,-0.4 0,-0.1 0.1,-0.1 0.2,-0.2 z"
               id="path375"
               style="fill:#d19c24;fill-rule:evenodd" /><path
               d="m 210.8,223.7 c 0,0.4 0.4,0.2 0.5,0.4 -0.2,0.1 -0.4,0.3 -0.6,0.3 0.2,-0.2 -0.1,-0.5 0.1,-0.7 z"
               id="path377"
               style="fill:#d19c24;fill-rule:evenodd" /><path
               d="m 206.9,225.8 c 0,0 0.1,0 0.1,0 0.1,0 0.2,0.1 0.2,0.1 0,0.1 0,0.1 0,0.2 -0.1,0.1 -0.2,0.2 -0.3,0.4 -0.5,-0.3 -0.5,-0.3 0,-0.7 z"
               id="path379"
               style="fill:#d19c24;fill-rule:evenodd" /><path
               d="m 209.3,216.9 c 0.1,-0.2 0.3,-0.1 0.4,-0.1 -0.3,0.2 0.1,0.6 -0.3,0.8 -0.2,-0.3 -0.3,-0.5 -0.1,-0.7 z"
               id="path381"
               style="fill:#d19c24;fill-rule:evenodd" /><path
               d="m 206.9,225.8 c 0,0.2 -0.5,0.4 0,0.7 -0.4,0.2 -0.4,-0.2 -0.5,-0.4 0,-0.2 0.2,-0.2 0.4,-0.3 0,0 0,0 0.1,0 z"
               id="path383"
               style="fill:#d19c24;fill-rule:evenodd" /><path
               d="m 204,208 c 0,0 0.1,0 0.1,0 0.1,0.1 0.1,0.2 0.1,0.3 0,0.3 0,0.5 -0.4,0.7 0,-0.1 0,-0.1 0,-0.2 0.1,-0.3 0,-0.5 0.2,-0.8 z"
               id="path385"
               style="fill:#d19c24;fill-rule:evenodd" /><path
               d="m 209.3,216.9 c 0,0.2 0.1,0.4 0.1,0.6 -0.1,0.1 -0.1,0.4 -0.4,0.3 0,-0.1 0,-0.2 0,-0.3 0.2,-0.2 0,-0.5 0.1,-0.7 0.1,0.1 0.1,0.1 0.2,0.1 z"
               id="path387"
               style="fill:#d19c24;fill-rule:evenodd" /><path
               d="m 198.2,222 c 0,0 0,-0.1 0,-0.1 0,-0.1 0,-0.2 0,-0.3 -0.1,-0.1 -0.1,-0.3 0.1,-0.3 0.2,0 0.3,0 0.4,0.2 0,0.1 -0.1,0.2 -0.2,0.2 -0.1,0.1 -0.2,0.3 -0.3,0.4 -0.1,0 -0.1,0 0,-0.1 0,0 0,0 0,0 z"
               id="path389"
               style="fill:#d19c24;fill-rule:evenodd" /><path
               d="m 202.6,225.2 c 0,0 -0.1,0 -0.1,0 -0.1,0 -0.1,-0.1 -0.1,-0.2 0,0 0,0 0.1,-0.1 0.2,-0.1 0.3,-0.2 0.5,-0.1 l 0,0 c 0,0.1 0,0.2 0,0.2 -0.2,0 -0.3,0.1 -0.4,0.2 z"
               id="path391"
               style="fill:#d19c24;fill-rule:evenodd" /><path
               d="m 206.8,225.8 c -0.1,0.1 -0.2,0.2 -0.4,0.3 -0.2,-0.1 -0.3,-0.2 -0.3,-0.4 0.1,-0.1 0.2,0 0.3,0 0.1,0 0.2,0.1 0.4,0.1 z"
               id="path393"
               style="fill:#d19c24;fill-rule:evenodd" /><path
               d="m 204.1,232.7 c -0.1,0 -0.2,0.1 -0.3,0.1 -0.2,-0.1 -0.3,-0.3 -0.3,-0.5 0,0 0.1,0 0.1,0 0,-0.1 0.1,-0.1 0.1,0 0,0.1 0,0.2 0.1,0.3 0.3,-0.1 0.4,-0.1 0.3,0.1 z"
               id="path395"
               style="fill:#d19c24;fill-rule:evenodd" /><path
               d="m 209,217.9 c -0.2,0.2 -0.4,0.3 -0.7,0.6 0.2,-0.5 0.4,-0.7 0.7,-0.6 0,-0.1 0,0 0,0 z"
               id="path397"
               style="fill:#d19c24;fill-rule:evenodd" /><path
               d="m 207.2,226.1 c 0,-0.1 0,-0.1 0,-0.1 0,-0.2 0.2,-0.2 0.3,-0.3 0.2,0 0.4,0 0.7,0 -0.4,0.1 -0.8,0.2 -1,0.4 z"
               id="path399"
               style="fill:#d19c24;fill-rule:evenodd" /><path
               d="m 199.2,219.8 c -0.1,0 -0.2,-0.1 -0.2,-0.1 -0.1,-0.1 -0.2,-0.1 -0.1,-0.3 0.2,0.1 0.6,0 0.6,0.4 -0.1,0 -0.2,0 -0.3,0 z"
               id="path401"
               style="fill:#d19c24;fill-rule:evenodd" /><path
               d="m 211.1,223.3 c 0,-0.1 0,-0.2 0,-0.3 h 0 c 0.2,-0.2 0.4,-0.3 0.7,-0.2 0.1,0 0.1,0.1 0.1,0.1 -0.2,0.2 -0.5,0.3 -0.8,0.4 z"
               id="path403"
               style="fill:#d19c24;fill-rule:evenodd" /><path
               d="m 200.3,215.7 c 0,0 0.1,0 0.1,0 0.1,0.1 0.1,0.3 0,0.4 -0.1,0.1 -0.2,0.2 -0.2,0.3 0,0 -0.1,-0.1 -0.1,-0.1 0,-0.3 0.1,-0.4 0.2,-0.6 z"
               id="path405"
               style="fill:#d19c24;fill-rule:evenodd" /><path
               d="m 210.3,221.9 c -0.1,0 -0.3,-0.1 -0.4,-0.1 0,0 -0.1,0 -0.1,-0.1 0,0 0,0 0,0 0.1,0 0.3,-0.1 0.4,-0.1 0.1,0 0.2,0.1 0.3,0.1 0,0 0,0 0,0.1 0.1,0 -0.1,-0.1 -0.2,0.1 z"
               id="path407"
               style="fill:#d19c24;fill-rule:evenodd" /><path
               d="m 206.4,225.7 c -0.1,0.1 -0.2,0 -0.3,0 0,0 -0.1,-0.1 -0.1,-0.1 0,-0.2 0.1,-0.2 0.3,-0.1 0,0 0,0.1 0.1,0.2 z"
               id="path409"
               style="fill:#d19c24;fill-rule:evenodd" /><path
               d="m 198.9,219.2 c 0,0 0,0.1 0,0.1 -0.1,0 -0.3,0 -0.3,-0.2 0,0 0.1,-0.1 0.1,-0.1 0.1,0 0.2,0.1 0.2,0.2 z"
               id="path411"
               style="fill:#d19c24;fill-rule:evenodd" /><path
               d="m 210.8,218.7 c 0.1,0.1 0.1,0.3 0,0.4 l 0,0 c 0,0 -0.1,0 -0.1,0 -0.1,-0.1 -0.2,-0.1 -0.3,-0.2 0.1,-0.1 0.3,-0.1 0.4,-0.2 z"
               id="path413"
               style="fill:#d19c24;fill-rule:evenodd" /><path
               d="m 210,224.5 c 0.1,0.1 0.1,0.1 0.2,0.2 0,0 0,0.1 0,0.1 -0.1,0 -0.3,0 -0.3,-0.1 -0.1,-0.2 0.1,-0.2 0.1,-0.2 z"
               id="path415"
               style="fill:#d19c24;fill-rule:evenodd" /><path
               d="m 205.7,224.9 c 0,0.1 -0.1,0.2 -0.1,0.3 0,0 -0.1,-0.1 -0.1,-0.1 0,-0.1 -0.1,-0.2 -0.1,-0.3 0.1,-0.1 0.2,0 0.3,0.1 z"
               id="path417"
               style="fill:#d19c24;fill-rule:evenodd" /><path
               d="m 199.9,216.1 c -0.1,0 -0.2,0 -0.3,0 -0.1,-0.1 -0.2,-0.2 0,-0.2 0.2,-0.1 0.3,0 0.3,0.2 z"
               id="path419"
               style="fill:#d19c24;fill-rule:evenodd" /><path
               d="m 212.2,222.5 c 0,0.2 -0.1,0.3 -0.2,0.3 -0.1,0 -0.2,0 -0.2,-0.1 0.1,0 0.2,-0.1 0.3,-0.1 0,-0.1 0,-0.1 0.1,-0.1 z"
               id="path421"
               style="fill:#d19c24;fill-rule:evenodd" /><path
               d="m 204,232.3 c 0,-2.4 0,-4.8 0,-7.2 0.2,0.2 0.1,0.5 0.1,0.7 0,2.2 0,4.4 0,6.6 0,-0.1 -0.1,-0.1 -0.1,-0.1 z"
               id="path423"
               style="fill:#d19c24;fill-rule:evenodd" /><path
               d="m 207.8,214.7 c 0,0 -0.1,0 0,0 -0.3,0.1 -0.1,0.4 -0.3,0.5 -0.1,0 -0.2,-0.1 -0.2,-0.1 0,-0.1 0,-0.1 0,-0.2 0.2,-0.6 0.1,-1.2 0.1,-1.8 0,-0.4 0.3,-0.1 0.4,-0.2 0.1,0.1 0.2,0.2 0.2,0.3 -0.3,0.5 -0.2,1 -0.2,1.5 z"
               id="path425"
               style="fill:#d19c24;fill-rule:evenodd" /><path
               d="m 201.7,225.2 c -0.3,0.3 -0.7,0.1 -1.1,0.1 -0.4,0 -0.9,0.2 -1.2,-0.2 0.3,-0.3 0.6,0.2 0.8,-0.1 0.1,-0.1 0.2,-0.1 0.2,0 0.2,0.1 0.4,0.1 0.6,0 0.1,0 0.1,0 0.2,-0.1 0.3,0 0.4,0.1 0.5,0.3 z"
               id="path427"
               style="fill:#d19c24;fill-rule:evenodd" /><path
               d="m 202.8,211.9 c 0.1,0 0.2,0 0.3,0 0,0.1 0,0.2 0,0.4 -0.1,0.1 -0.2,0.1 -0.3,0 -0.2,0.3 -0.3,0.7 -0.1,1.1 0,0.1 -0.1,0.1 -0.1,0 -0.1,0 -0.1,-0.1 -0.2,-0.1 0,-0.4 0.1,-0.8 0.1,-1.2 0,-0.3 0.2,-0.2 0.3,-0.2 z"
               id="path429"
               style="fill:#d19c24;fill-rule:evenodd" /><path
               d="m 209.9,221.6 c 0,0 0,0.1 0,0.1 -0.4,0.2 -0.9,0.2 -1.3,0 0,-0.1 0,-0.2 0.1,-0.1 0.4,0 0.8,0 1.2,0 z"
               id="path431"
               style="fill:#d19c24;fill-rule:evenodd" /><path
               d="m 199.2,221.7 c 0,-0.2 0,-0.4 -0.1,-0.5 0,-0.2 0.2,-0.3 0.4,-0.4 0.1,0 0.2,0.1 0.3,0.3 0.1,0.2 0,0.3 -0.1,0.4 -0.2,0.1 -0.3,0.1 -0.5,0.2 z"
               id="path433"
               style="fill:#d19c24;fill-rule:evenodd" /><path
               d="m 199.5,223.6 c 0.2,0.1 0.3,0.3 0.3,0.5 0,0.2 0.1,0.4 -0.1,0.5 -0.2,0.1 -0.3,-0.2 -0.4,-0.2 -0.1,0 -0.1,-0.1 -0.1,-0.2 0.1,-0.2 0.1,-0.5 0.3,-0.6 z"
               id="path435"
               style="fill:#d19c24;fill-rule:evenodd" /><path
               d="m 206.6,211.6 c 0,0.1 0.1,0.2 0.1,0.3 0,0.2 -0.2,0.2 -0.2,0.1 -0.2,-0.4 -0.4,-0.7 -0.4,-1.2 0.3,0.2 0.2,0.6 0.5,0.8 z"
               id="path437"
               style="fill:#d19c24;fill-rule:evenodd" /><path
               d="m 208.9,218.7 c 0.1,-0.5 0.6,-0.2 0.8,-0.3 l 0,0 c 0,0.2 0.3,0.3 0.2,0.4 0,0 -0.2,0 -0.3,0 -0.3,-0.1 -0.5,0.1 -0.7,-0.1 z"
               id="path439"
               style="fill:#d19c24;fill-rule:evenodd" /><path
               d="m 203.9,209 c 0.1,-0.2 0.2,-0.4 0.2,-0.7 0.1,0 0.1,0 0.2,0 0.1,0.2 0,0.4 -0.2,0.6 0,0.2 0,0.4 0,0.7 -0.1,0.1 -0.2,0.1 -0.3,0 0.1,-0.2 0.1,-0.4 0.1,-0.6 z"
               id="path441"
               style="fill:#d19c24;fill-rule:evenodd" /><path
               d="m 198.6,224.2 c 0,-0.1 0,-0.2 0,-0.3 0,0 0.1,0 0.2,0 0.1,0.1 0.2,0.2 0.1,0.3 0,0.2 -0.2,0.5 0.2,0.7 -0.8,0 -0.5,-0.4 -0.5,-0.7 z"
               id="path443"
               style="fill:#d19c24;fill-rule:evenodd" /><path
               d="m 199.6,219.3 c -0.1,-0.1 -0.2,-0.2 -0.2,-0.2 0,-0.2 -0.1,-0.6 0.1,-0.6 0.4,-0.1 0.1,0.2 0.1,0.4 0,0.1 0,0.1 0,0.2 0,0 0,0.1 0,0.2 z"
               id="path445"
               style="fill:#d19c24;fill-rule:evenodd" /><path
               d="m 199.5,223.6 c -0.1,0.2 0.2,0.6 -0.2,0.7 -0.2,-0.1 -0.1,-0.3 -0.2,-0.4 0,0 0,-0.1 0,-0.1 0,-0.1 0,-0.1 0.1,-0.1 0.1,-0.1 0.2,-0.1 0.3,-0.1 -0.1,-0.1 0,-0.1 0,0 z"
               id="path447"
               style="fill:#d19c24;fill-rule:evenodd" /><path
               d="m 208.1,216.7 c 0.2,-0.2 0.4,-0.1 0.7,-0.1 -0.2,0.3 -0.4,0.6 -0.7,0.1 z"
               id="path449"
               style="fill:#d19c24;fill-rule:evenodd" /><path
               d="m 198.1,222.3 c 0.3,0.1 0.5,0.2 0.8,0.3 0,0 0,0.1 0,0.1 -0.3,0 -0.5,0 -0.8,0 -0.1,-0.2 -0.1,-0.3 0,-0.4 z"
               id="path451"
               style="fill:#d19c24;fill-rule:evenodd" /><path
               d="m 200.4,216.1 c 0,-0.1 0,-0.3 0,-0.4 0,0 0.1,-0.1 0.1,-0.1 0.2,0.2 0.3,0.3 0.5,0.5 -0.1,0.1 -0.3,0.1 -0.4,0.1 0,-0.1 -0.1,-0.1 -0.2,-0.1 z"
               id="path453"
               style="fill:#d19c24;fill-rule:evenodd" /><path
               d="m 199.2,219.8 c 0.1,0 0.2,0 0.3,0 0.1,0.2 0.3,0.3 0.2,0.5 -0.1,0.1 -0.2,0.1 -0.2,0 0,-0.3 -0.1,-0.4 -0.3,-0.5 z"
               id="path455"
               style="fill:#d19c24;fill-rule:evenodd" /><path
               d="m 210.8,221.6 c 0.3,-0.2 0.6,-0.2 0.8,0.1 -0.3,0 -0.5,0 -0.8,0 0,0 0,0 0,-0.1 0,0 0,0 0,0 z"
               id="path457"
               style="fill:#d19c24;fill-rule:evenodd" /><path
               d="m 211.8,222.6 c 0.1,0 0.1,0.1 0.2,0.1 0,0 -0.1,0.1 -0.1,0.1 -0.3,-0.1 -0.5,0.1 -0.7,0.1 0.1,-0.1 0.2,-0.3 0.3,-0.4 0,0.1 0.1,0.1 0.3,0.1 z"
               id="path459"
               style="fill:#d19c24;fill-rule:evenodd" /><path
               d="m 205.1,207.4 c 0.5,0.1 0.4,0.5 0.4,0.8 0,0.1 0,0.1 0,0.2 -0.1,0 -0.1,0 -0.2,0 -0.1,-0.2 0,-0.5 -0.2,-0.7 -0.1,-0.2 -0.2,-0.3 0,-0.3 z"
               id="path461"
               style="fill:#d19c24;fill-rule:evenodd" /><path
               d="m 205.3,208.3 c 0,0 0.1,0 0.1,0 0.1,0.3 0.3,0.5 0.2,0.8 -0.1,0 -0.2,-0.1 -0.3,-0.1 v 0 c 0,-0.2 -0.1,-0.4 -0.1,-0.7 0,-0.1 0.1,-0.1 0.1,0 z"
               id="path463"
               style="fill:#d19c24;fill-rule:evenodd" /><path
               d="m 201.6,214.6 c 0,-0.1 0,-0.3 0,-0.4 0.1,0 0.2,-0.3 0.3,-0.1 0.2,0.3 0,0.5 -0.3,0.5 z"
               id="path465"
               style="fill:#d19c24;fill-rule:evenodd" /><path
               d="m 201.2,224.9 c 0.4,-0.2 0.8,-0.2 1.2,0 l 0,0 c -0.3,0.2 -0.7,0.1 -1.2,0 0.1,0 0.1,0 0,0 z"
               id="path467"
               style="fill:#d19c24;fill-rule:evenodd" /><path
               d="m 205.9,209.7 c 0.1,0.1 0.2,0.2 0.4,0.3 0,0.1 -0.1,0.2 -0.1,0.3 -0.2,-0.2 -0.5,-0.2 -0.3,-0.6 z"
               id="path469"
               style="fill:#d19c24;fill-rule:evenodd" /><path
               d="m 203.9,209.6 c 0.1,0 0.2,0 0.3,0 0,0.1 -0.1,0.1 -0.1,0.2 -0.1,0.1 -0.1,0.3 -0.3,0.3 -0.1,0 -0.2,-0.1 -0.2,-0.2 0,-0.2 0.2,-0.1 0.3,-0.3 z"
               id="path471"
               style="fill:#d19c24;fill-rule:evenodd" /><path
               d="m 199.6,221.5 c 0,-0.1 0.1,-0.3 0.1,-0.4 0.2,0.1 0.3,0.2 0.2,0.4 0,0.1 -0.2,0.1 -0.3,0 z"
               id="path473"
               style="fill:#d19c24;fill-rule:evenodd" /><path
               d="m 205.6,209.1 c -0.1,-0.3 -0.1,-0.5 -0.2,-0.8 0,-0.1 0,-0.1 0,-0.2 0.1,0.2 0.2,0.4 0.2,0.6 0,0.2 0,0.3 0,0.5 0.1,0 0,-0.1 0,-0.1 z"
               id="path475"
               style="fill:#d19c24;fill-rule:evenodd" /><path
               d="m 200.4,218.4 c 0,-0.1 -0.1,-0.2 0,-0.2 0.2,0 0.4,-0.1 0.5,0.2 -0.1,0.1 -0.3,0.2 -0.5,0 z"
               id="path477"
               style="fill:#d19c24;fill-rule:evenodd" /><path
               d="m 204,232.3 c 0,0 0.1,0 0.1,0 0.1,0.2 0.4,0 0.5,0.3 -0.2,0.1 -0.3,0.2 -0.5,0.1 0,0 -0.1,-0.1 -0.1,-0.1 0,-0.2 0,-0.3 0,-0.3 z"
               id="path479"
               style="fill:#d19c24;fill-rule:evenodd" /><path
               d="m 207.3,214.9 c 0,0 0,0.1 0,0.1 0.1,0.2 0.2,0.5 0.1,0.7 0,0.1 -0.1,0.1 -0.1,0.2 0,0 -0.1,0 -0.1,0 0,-0.1 0,-0.2 0,-0.3 -0.1,-0.3 -0.1,-0.5 0,-0.8 0,0.1 0,0.1 0.1,0.1 z"
               id="path481"
               style="fill:#d19c24;fill-rule:evenodd" /><path
               d="m 198.1,222.3 c 0,0.1 0,0.3 0,0.4 -0.1,0 -0.2,0 -0.3,0 0,-0.1 -0.1,-0.1 -0.1,-0.2 0,0 0,-0.1 0,-0.1 0,0 0.1,-0.1 0.1,-0.1 0.1,0 0.2,0 0.3,0 z"
               id="path483"
               style="fill:#d19c24;fill-rule:evenodd" /><path
               d="m 208.7,216.3 c 0,0 0.1,-0.1 0.1,-0.1 0.1,0 0.2,0 0.2,0.2 0,0.2 -0.2,0.2 -0.3,0.2 0,-0.1 0,-0.2 0,-0.3 z"
               id="path485"
               style="fill:#d19c24;fill-rule:evenodd" /><path
               d="m 197.8,222.3 c 0,0 -0.1,0.1 -0.1,0.1 -0.2,-0.7 0.3,-0.3 0.5,-0.4 0,0 0,0.1 0,0.1 -0.1,0 -0.3,0 -0.4,0.2 z"
               id="path487"
               style="fill:#d19c24;fill-rule:evenodd" /><path
               d="m 198.7,221.7 c 0,0.1 0.3,0.1 0.2,0.3 0,0 -0.2,0.1 -0.2,0 -0.2,-0.1 -0.2,-0.2 -0.1,-0.4 0,0.1 0.1,0.1 0.1,0.1 z"
               id="path489"
               style="fill:#d19c24;fill-rule:evenodd" /><path
               d="m 199.5,220.8 c -0.1,0.1 -0.3,0.3 -0.4,0.4 -0.2,-0.3 0,-0.4 0.3,-0.5 0,0 0.1,0.1 0.1,0.1 z"
               id="path491"
               style="fill:#d19c24;fill-rule:evenodd" /><path
               d="m 198.7,221.7 c 0,0 -0.1,0 -0.1,0 0,0 -0.1,0 -0.1,0 0,0 0.1,-0.1 0.1,-0.1 0.1,0 0.1,-0.2 0.1,-0.3 0.1,0 0.2,0.1 0.3,0.1 0,0.2 -0.1,0.3 -0.3,0.3 z"
               id="path493"
               style="fill:#d19c24;fill-rule:evenodd" /><path
               d="m 200.6,225 c -0.1,0 -0.2,0 -0.3,0 0.3,-0.3 0.6,-0.1 0.9,-0.1 l 0,0 c 0,0 0.1,0.1 0,0.1 0,0 0,0 0,0 l 0,0 c -0.2,0.1 -0.4,0.1 -0.6,0 z"
               id="path495"
               style="fill:#d19c24;fill-rule:evenodd" /><path
               d="m 205,207.9 c 0,0.2 0,0.4 0,0.6 -0.1,-0.3 -0.2,-0.5 0,-0.8 0.1,0.1 0.1,0.1 0,0.2 0.1,0 0.1,0 0,0 z"
               id="path497"
               style="fill:#d19c24;fill-rule:evenodd" /><path
               d="m 202.9,224.8 c 0.1,-0.3 0.2,-0.3 0.5,-0.1 -0.1,0.1 -0.3,0 -0.5,0.1 l 0,0 z"
               id="path499"
               style="fill:#d19c24;fill-rule:evenodd" /><path
               d="m 205,207.9 c 0,0 0,-0.1 0,-0.1 0,0 0,-0.1 0,-0.1 0.4,0.1 0.2,0.4 0.3,0.7 0,0 -0.1,0 -0.1,0 0,-0.3 0,-0.4 -0.2,-0.5 z"
               id="path501"
               style="fill:#d19c24;fill-rule:evenodd" /><path
               d="m 207.2,212.2 c 0,0.1 0.1,0.1 0.1,0.2 0,0.1 -0.1,0.1 -0.1,0.2 -0.1,-0.1 -0.1,-0.1 -0.2,-0.2 -0.1,-0.1 0.1,-0.1 0.2,-0.2 z"
               id="path503"
               style="fill:#d19c24;fill-rule:evenodd" /><path
               d="m 204.1,209 c 0,-0.2 0.1,-0.4 0.1,-0.7 -0.1,-0.1 0,-0.2 0.1,-0.1 0.1,0.2 0.2,0.6 -0.2,0.8 z"
               id="path505"
               style="fill:#d19c24;fill-rule:evenodd" /><path
               d="m 200.4,218.4 c 0.2,0 0.4,0 0.5,0 -0.1,0.3 -0.3,0.5 -0.5,0 z"
               id="path507"
               style="fill:#d19c24;fill-rule:evenodd" /><path
               d="m 209.9,220 c 0,0.1 0,0.2 0,0.3 -0.3,0.2 -0.5,0.1 -0.8,0 0.2,-0.3 0.6,-0.1 0.8,-0.3 z"
               id="path509"
               style="fill:#d19c24;fill-rule:evenodd" /><path
               d="m 209.1,220.3 c 0.3,0 0.5,0 0.8,0 0,0 0.1,0.1 0.1,0.1 -0.3,0.1 -0.5,0.1 -0.8,0 0,0 -0.1,0 -0.1,0 0,0 0,-0.1 0,-0.1 z"
               id="path511"
               style="fill:#d19c24;fill-rule:evenodd" /><path
               d="m 200.7,216.2 c 0.1,-0.2 0.3,-0.1 0.4,-0.1 0,0.1 0,0.3 -0.1,0.3 -0.1,0 -0.2,-0.1 -0.3,-0.2 z"
               id="path513"
               style="fill:#d19c24;fill-rule:evenodd" /><path
               d="m 208.7,221.6 c 0,0 -0.1,0.1 -0.1,0.1 -0.1,0 -0.4,0.1 -0.3,-0.2 0.1,-0.1 0.3,-0.1 0.4,0.1 z"
               id="path515"
               style="fill:#d19c24;fill-rule:evenodd" /><path
               d="m 211.6,221.9 c 0.1,0.2 -0.1,0.4 0,0.5 -0.4,-0.2 -0.1,-0.4 0,-0.5 z"
               id="path517"
               style="fill:#d19c24;fill-rule:evenodd" /><path
               d="m 201.4,217.8 c 0,0.1 -0.1,0.1 -0.1,0.1 -0.1,0 -0.1,-0.1 -0.1,-0.1 0,0 0.1,-0.1 0.1,-0.1 0,0 0,0.1 0.1,0.1 z"
               id="path519"
               style="fill:#d19c24;fill-rule:evenodd" /><path
               d="m 204.4,208.2 c 0,0 -0.1,0.1 -0.1,0.1 0,0 -0.1,0 -0.1,0 0,-0.1 0,-0.2 0,-0.3 0,-0.1 0.1,-0.2 0.2,-0.2 0,0.1 0,0.3 0,0.4 z"
               id="path521"
               style="fill:#d19c24;fill-rule:evenodd" /><path
               d="m 203.3,210.5 c 0,0 0,-0.1 0,-0.1 0.1,-0.1 0.2,-0.1 0.2,0 0,0.1 0.1,0.2 0,0.3 0,0 -0.1,-0.1 -0.2,-0.2 z"
               id="path523"
               style="fill:#d19c24;fill-rule:evenodd" /><path
               d="m 207.1,214.9 c 0,0.3 0,0.5 0,0.8 -0.2,-0.3 -0.1,-0.6 0,-0.8 z"
               id="path525"
               style="fill:#d19c24;fill-rule:evenodd" /><path
               d="m 200.5,222.8 c 0.1,0 0.1,-0.1 0.2,-0.1 0.1,0 0.1,0.1 0.1,0.2 0,0 -0.1,0.1 -0.1,0.1 -0.1,-0.1 -0.1,-0.1 -0.2,-0.2 z"
               id="path527"
               style="fill:#d19c24;fill-rule:evenodd" /><path
               d="m 202.8,212.2 c 0.1,0 0.2,0 0.3,0 0.1,0.2 -0.1,0.3 -0.2,0.3 -0.2,0 -0.1,-0.2 -0.1,-0.3 z"
               id="path529"
               style="fill:#d19c24;fill-rule:evenodd" /><path
               d="m 210.8,221.6 c 0,0 0,0.1 0,0.1 -0.2,0.1 -0.3,0.2 -0.5,0.1 0.1,-0.1 0.2,-0.2 0.3,-0.2 0.1,0 0.1,0 0.2,0 z"
               id="path531"
               style="fill:#d19c24;fill-rule:evenodd" /><path
               d="m 209.1,216.9 c 0,0.2 0.1,0.5 -0.1,0.7 0,-0.3 -0.1,-0.6 0.1,-0.7 z"
               id="path533"
               style="fill:#d19c24;fill-rule:evenodd" /><path
               d="m 202.5,213.3 c 0,0 0.1,0 0.1,0 0,0.2 0.1,0.4 -0.2,0.4 0.1,-0.1 0.1,-0.3 0.1,-0.4 z"
               id="path535"
               style="fill:#d19c24;fill-rule:evenodd" /><path
               d="m 208.9,218.7 c 0.2,0 0.5,-0.1 0.7,0.1 -0.3,0 -0.6,0.1 -0.7,-0.1 z"
               id="path537"
               style="fill:#d19c24;fill-rule:evenodd" /><path
               d="m 210.6,219.2 c -0.1,0 -0.3,0.1 -0.4,0.1 0,-0.2 0.2,-0.3 0.4,-0.1 z"
               id="path539"
               style="fill:#d19c24;fill-rule:evenodd" /><path
               d="m 207.4,225.7 c -0.1,0.1 -0.2,0.2 -0.3,0.3 0,0 -0.1,-0.1 -0.1,-0.1 0.1,-0.2 0.3,-0.2 0.4,-0.2 z"
               id="path541"
               style="fill:#d19c24;fill-rule:evenodd" /><path
               d="m 205.3,209 c 0,0.2 0,0.3 0,0.6 -0.2,-0.3 -0.2,-0.5 0,-0.6 l 0,0 z"
               id="path543"
               style="fill:#d19c24;fill-rule:evenodd" /><path
               d="m 201.5,215.4 c 0,0.1 0.1,0.2 -0.1,0.3 0,0 -0.1,0 -0.2,-0.1 0.1,-0.2 0.2,-0.2 0.3,-0.2 l 0,0 z"
               id="path545"
               style="fill:#d19c24;fill-rule:evenodd" /><path
               d="m 203.9,232.3 c 0,0 -0.1,0 -0.1,0 0,-2.1 0,-4.2 0,-6.3 0,0 0.1,0 0.1,0 0,2.1 0,4.2 0,6.3 z"
               id="path547"
               style="fill:#d19c24;fill-rule:evenodd" /><path
               d="m 209.3,220.4 c 0.3,0 0.5,0 0.8,0 -0.3,0.3 -0.6,0.2 -0.8,0 z"
               id="path549"
               style="fill:#d19c24;fill-rule:evenodd" /><path
               d="m 211.2,220.4 c -0.2,0 -0.3,0 -0.5,0 0.2,0 0.4,-0.4 0.5,0 l 0,0 z"
               id="path551"
               style="fill:#d19c24;fill-rule:evenodd" /><path
               d="m 207.3,215.9 c 0,0 0,-0.1 0,-0.1 0.2,-0.2 0,-0.5 0.1,-0.7 0.1,-0.1 0.2,-0.3 0.3,-0.4 0,0.4 0,0.7 -0.2,1.1 -0.2,0.4 0.2,0.4 0.3,0.5 -0.2,0.1 -0.5,0 -0.5,-0.4 z"
               id="path553"
               style="fill:#d19c24;fill-rule:evenodd" /><path
               d="m 201.2,225 c 0,0 0,-0.1 0,-0.1 0.4,0 0.8,0 1.2,0 0,0.1 0,0.2 0,0.3 -0.2,0.1 -0.5,-0.1 -0.7,0 -0.1,-0.1 -0.3,-0.1 -0.5,-0.2 z"
               id="path555"
               style="fill:#d19c24;fill-rule:evenodd" /><path
               d="m 202.8,211.9 c -0.1,0.1 -0.2,0.1 -0.4,0.1 0,-0.2 0.1,-0.2 0.2,-0.2 0.1,0 0.1,0 0.2,0.1 z"
               id="path557"
               style="fill:#d19c24;fill-rule:evenodd" /><path
               d="m 207.4,215.1 c 0,0.2 0.1,0.5 -0.1,0.7 0,-0.3 0,-0.5 0,-0.8 0,0.1 0.1,0.1 0.1,0.1 z"
               id="path559"
               style="fill:#d19c24;fill-rule:evenodd" /><path
               d="m 200.6,225 c 0.2,0 0.4,0 0.7,0 -0.3,0.2 -0.5,0.2 -0.7,0 z"
               id="path561"
               style="fill:#d19c24;fill-rule:evenodd" /></g></g><path
           d="m 151.7,83.2 c -34.9,0 -63.2,28.3 -63.2,63.2 0,34.9 28.3,63.2 63.2,63.2 34.9,0 63.2,-28.3 63.2,-63.2 0,-34.9 -28.3,-63.2 -63.2,-63.2 z m 0,112.6 c -27.3,0 -49.5,-22.1 -49.5,-49.5 0,-27.4 22.1,-49.5 49.5,-49.5 27.4,0 49.5,22.1 49.5,49.5 0,27.4 -22.1,49.5 -49.5,49.5 z"
           id="path563"
           style="fill:#494846;fill-rule:evenodd" /><g
           id="g565"><defs
             id="defs567"><polygon
               points="151.7,146.4 207.3,102 151.7,77.3 "
               id="global_clip" /></defs><clipPath
             id="SVGID_32_"><use
               id="use571"
               style="overflow:visible"
               x="0"
               y="0"
               width="300"
               height="260"
               xlink:href="#global_clip" /></clipPath><path
             d="m 151.7,83.2 c -34.9,0 -63.2,28.3 -63.2,63.2 0,34.9 28.3,63.2 63.2,63.2 34.9,0 63.2,-28.3 63.2,-63.2 0,-34.9 -28.3,-63.2 -63.2,-63.2 z m 0,112.6 c -27.3,0 -49.5,-22.1 -49.5,-49.5 0,-27.4 22.1,-49.5 49.5,-49.5 27.4,0 49.5,22.1 49.5,49.5 0,27.4 -22.1,49.5 -49.5,49.5 z"
             clip-path="url(#SVGID_32_)"
             id="path573"
             style="fill:#08b900;fill-rule:evenodd" /></g><g
           id="g575"><path
             d="m 154.1,96.5 c 0.2,0 0.4,0.1 0.6,0.1 2.7,0.4 5.5,0.6 8.2,1.1 3.6,0.8 7.1,2 10.4,3.6 3.4,1.7 6.7,3.7 9.6,6.1 1.7,1.4 3.4,3 4.9,4.7 3.1,3.7 6.1,7.5 8.2,11.9 3,6 4.8,12.4 5.3,19.1 0.7,10.9 -1.8,21.1 -7.7,30.2 -7.4,11.4 -17.8,18.6 -31,21.6 -2.3,0.5 -4.8,0.7 -7.2,1.1 -0.2,0 -0.5,0.1 -0.7,0.1 -1.9,0 -3.8,0 -5.7,0 -0.3,-0.1 -0.5,-0.1 -0.8,-0.2 -3,-0.5 -6,-0.8 -8.9,-1.5 -10,-2.6 -18.4,-7.9 -25.1,-15.7 -6.3,-7.4 -10.1,-15.9 -11.4,-25.5 -0.2,-1.3 -0.3,-2.6 -0.5,-3.9 0,-1.9 0,-3.8 0,-5.7 0,-0.2 0.1,-0.5 0.1,-0.7 0.3,-2.4 0.6,-4.8 1,-7.2 0.8,-4 2.2,-7.7 4,-11.4 1.8,-3.6 4,-7 6.7,-10.1 2.6,-3.1 5.7,-5.7 8.9,-8.2 3.2,-2.4 6.8,-4 10.2,-5.9 3,-1.7 6.5,-2.5 10,-3 2.1,-0.3 4.2,-0.6 6.4,-0.9 1.4,0.3 2.9,0.3 4.5,0.3 z m 28.4,25.2 0,0 c -0.2,-0.4 -0.3,-1 -0.7,-1.2 -1.2,-0.6 -1.3,-1.7 -1.6,-2.8 -0.2,-0.8 -0.4,-1.7 -0.8,-2.4 -0.5,-0.9 -1.1,-1.7 -1.3,-2.8 0,-0.2 -0.2,-0.4 -0.4,-0.5 -0.8,-0.4 -1.7,-0.9 -2.5,-1.3 -0.2,-0.1 -0.4,0 -0.8,-0.1 0.3,0.4 0.5,0.7 0.7,0.9 -0.3,0.3 -0.5,0.5 -0.7,0.7 1.5,1.1 3,2.3 4.5,3.4 -0.7,0.5 -1.6,0.5 -1.9,1.5 0,0.1 -0.3,0.2 -0.4,0.1 -1.3,-0.3 -2.6,-0.6 -3.3,-1.9 -0.5,-1.1 -1.4,-1.9 -2.6,-2.4 -0.6,-0.3 -1.2,-0.7 -1.8,-0.9 -1.1,-0.4 -1.7,-1.3 -2.2,-2.2 1,-1.1 2.3,-1 3.5,-1.3 -0.1,-0.9 -0.6,-1.3 -1,-0.9 -0.6,0.7 -1.3,0.2 -2,0.4 0.1,-0.5 0.1,-0.8 0.1,-0.9 -0.8,-0.7 -1.4,-1.3 -2,-1.8 -1.1,-0.8 -2.4,-1.5 -3.5,-2.4 -0.6,-0.4 -1,-0.4 -1.4,0.2 -0.5,0.6 -1.3,0.8 -2.2,0.5 -1.2,-0.4 -2.5,-0.6 -3.7,0 -1.6,0.8 -3.1,0.8 -4.8,0.4 -0.7,-0.2 -1.3,-0.4 -1.3,-1.3 -0.9,0 -1.7,-0.3 -2.4,0.5 -0.1,0.1 -0.5,0.1 -0.7,0.2 -1,0.1 -2.1,0.3 -3.1,0.4 -0.1,1.2 -0.4,1.6 -1.4,1.7 -0.3,0.1 -0.7,0.1 -1,0.1 -0.4,0.1 -0.8,0.3 -1.3,0.4 0.3,1.2 0,1.5 -1,1.7 -0.5,0.1 -1,0.1 -1.5,0.2 -0.2,0.1 -0.5,0.3 -0.5,0.5 0,1 -0.5,1.7 -1.3,2.3 -0.9,0.7 -1.7,1.7 -2.6,2.5 -0.6,0.4 -1.3,0.6 -2,0.9 -0.1,-0.1 -0.1,-0.2 -0.2,-0.3 0.3,-0.4 0.5,-0.8 0.8,-1.3 0.4,-0.7 0.3,-0.9 -0.5,-1 -0.3,0 -0.7,-0.3 -0.9,-0.5 -0.3,-0.3 -0.5,-0.7 -0.7,-1.1 -0.1,-0.1 -0.2,-0.4 -0.1,-0.5 0.7,-0.7 1.3,-1.4 2.1,-1.9 0.8,-0.4 1.5,-1.1 1.2,-1.9 -0.3,-1 0.1,-1.5 1,-1.7 0.2,-0.1 0.4,-0.2 0.6,-0.3 0.8,-0.2 1,-0.8 1,-1.5 0,-1 -0.7,-1.5 -1.6,-1.1 -5.3,2.2 -10.1,5.3 -14.2,9.2 -9.3,8.7 -14.7,19.4 -15.8,32.2 -0.8,9.9 1,19.3 5.9,27.9 7.6,13.5 19.1,21.8 34.3,24.7 7.2,1.4 14.4,1.1 21.5,-0.8 11.7,-3.1 21,-9.7 28,-19.6 4.8,-6.9 7.7,-14.6 8.5,-23 0.5,-5 0.3,-9.9 -0.7,-14.8 -0.4,-2.1 -1,-4.1 -1.6,-6.2 -0.1,0 -0.1,0 -0.2,0.1 0,0.1 0,0.2 0,0.3 1.7,5.7 2.2,11.6 1.7,17.5 -0.1,0.7 -0.2,1.1 -0.9,1.4 -0.2,0.1 -0.4,0.3 -0.5,0.5 -0.5,0.7 -0.9,1.4 -1.3,2 -0.1,0.2 -0.4,0.4 -0.6,0.4 -0.9,-0.2 -1.8,-0.4 -2.5,-1.2 -1.1,-1.2 -1.7,-2.7 -2.2,-4.1 -1.1,-2.7 -1.2,-5.5 -1,-8.4 0.1,-1.1 -0.1,-2.2 -0.6,-3.2 -0.5,-1.1 -1.2,-2.3 -0.5,-3.7 -0.4,0.3 -0.7,0.6 -1.1,0.8 -0.2,0.1 -0.5,0.2 -0.6,0.1 -0.7,-0.5 -1.8,-0.6 -1.7,-1.9 0,-0.1 -0.2,-0.3 -0.3,-0.4 -1,-1 -1.1,-1.6 -0.1,-2.7 0.6,-0.7 0.3,-1.5 -0.5,-1.8 -0.3,-0.1 -0.6,-0.2 -0.9,-0.2 -1.3,-0.2 -1.6,-0.5 -1.5,-1.8 0.3,-0.9 0.4,-1.9 -0.4,-2.6 z m 6.3,-7.7 c 0,0.7 0,1.1 0,1.6 0,1 0.2,1.9 1.2,2.4 0.2,0.1 0.4,0.6 0.4,0.9 0,0.9 -0.8,0.8 -1.4,0.9 -0.4,0.1 -0.8,0.1 -1.1,0.2 0,0.1 0,0.1 0,0.2 0.4,0.2 0.8,0.3 1.2,0.6 0.2,0.1 0.5,0.5 0.4,0.6 -0.1,0.3 -0.4,0.5 -0.7,0.6 -0.4,0.1 -0.8,0 -1.3,0 0.1,0.5 0.2,0.8 0.2,1.1 0.1,0.6 0.4,1.2 0.4,1.8 0.1,1.6 1.1,2.8 2,4 0.1,0.1 0.2,0.1 0.4,0.2 0,-0.4 0,-0.7 0,-1 0,-0.9 0,-1.8 0,-2.8 0,-1.2 0.2,-1.3 1.3,-1.1 0.1,0 0.2,0 0.3,0 0.6,-1.9 -1.2,-2.8 -1.6,-4 0.4,-0.4 0.8,-0.6 0.8,-0.9 0,-0.9 0,-1.9 -0.4,-2.7 -0.4,-0.8 -1.3,-1.7 -2.1,-2.6 z"
             id="path577"
             style="fill:#8f8f8f;fill-rule:evenodd" /><path
             d="m 182.5,121.7 c 0.8,0.7 0.7,1.6 0.6,2.5 -0.1,1.3 0.2,1.6 1.5,1.8 0.3,0 0.6,0.1 0.9,0.2 0.8,0.2 1.1,1.1 0.5,1.8 -0.9,1.1 -0.9,1.7 0.1,2.7 0.1,0.1 0.3,0.3 0.3,0.4 -0.1,1.3 1,1.4 1.7,1.9 0.1,0.1 0.5,0 0.6,-0.1 0.3,-0.2 0.6,-0.5 1.1,-0.8 -0.7,1.4 0,2.6 0.5,3.7 0.5,1 0.7,2.1 0.6,3.2 -0.2,2.9 -0.1,5.7 1,8.4 0.6,1.5 1.1,2.9 2.2,4.1 0.7,0.8 1.6,1 2.5,1.2 0.2,0 0.5,-0.2 0.6,-0.4 0.5,-0.7 0.9,-1.4 1.3,-2 0.1,-0.2 0.3,-0.5 0.5,-0.5 0.7,-0.2 0.8,-0.7 0.9,-1.4 0.5,-5.9 0,-11.8 -1.7,-17.5 0,-0.1 0,-0.2 0,-0.3 0.1,0 0.1,0 0.2,-0.1 0.5,2.1 1.1,4.1 1.6,6.2 1,4.9 1.2,9.8 0.7,14.8 -0.9,8.4 -3.7,16.1 -8.5,23 -7,9.9 -16.3,16.5 -28,19.6 -7.1,1.9 -14.3,2.2 -21.5,0.8 -15.2,-3 -26.7,-11.3 -34.3,-24.7 -4.9,-8.6 -6.8,-18 -5.9,-27.9 1.1,-12.8 6.4,-23.5 15.8,-32.2 4.2,-3.9 9,-6.9 14.2,-9.2 0.9,-0.4 1.5,0.1 1.6,1.1 0,0.8 -0.2,1.3 -1,1.5 -0.2,0.1 -0.4,0.2 -0.6,0.3 -0.9,0.3 -1.3,0.7 -1,1.7 0.2,0.9 -0.5,1.5 -1.2,1.9 -0.8,0.5 -1.4,1.2 -2.1,1.9 -0.1,0.1 0,0.4 0.1,0.5 0.2,0.4 0.4,0.8 0.7,1.1 0.2,0.2 0.6,0.5 0.9,0.5 0.8,0.1 0.9,0.3 0.5,1 -0.3,0.4 -0.5,0.8 -0.8,1.3 0.1,0.1 0.1,0.2 0.2,0.3 0.7,-0.3 1.5,-0.4 2,-0.9 0.9,-0.7 1.7,-1.7 2.6,-2.5 0.8,-0.6 1.3,-1.3 1.3,-2.3 0,-0.2 0.3,-0.4 0.5,-0.5 0.5,-0.1 1,-0.1 1.5,-0.2 1,-0.2 1.3,-0.5 1,-1.7 0.4,-0.1 0.8,-0.3 1.3,-0.4 0.3,-0.1 0.7,-0.1 1,-0.1 1,-0.2 1.4,-0.6 1.4,-1.7 1,-0.1 2,-0.3 3.1,-0.4 0.2,0 0.6,0 0.7,-0.2 0.7,-0.8 1.5,-0.5 2.4,-0.5 0,0.9 0.6,1.1 1.3,1.3 1.6,0.4 3.2,0.4 4.8,-0.4 1.2,-0.6 2.4,-0.4 3.7,0 0.8,0.3 1.6,0.2 2.2,-0.5 0.5,-0.6 0.8,-0.6 1.4,-0.2 1.1,0.8 2.4,1.5 3.5,2.4 0.7,0.5 1.3,1.2 2,1.8 0,0.1 -0.1,0.4 -0.1,0.9 0.7,-0.1 1.4,0.3 2,-0.4 0.4,-0.4 0.9,0 1,0.9 -1.2,0.3 -2.6,0.3 -3.5,1.3 0.6,0.9 1.1,1.8 2.2,2.2 0.6,0.2 1.2,0.6 1.8,0.9 1.1,0.5 2,1.2 2.6,2.4 0.7,1.4 2,1.7 3.3,1.9 0.1,0 0.4,-0.1 0.4,-0.1 0.2,-1 1.2,-1 1.9,-1.5 -1.5,-1.1 -3,-2.3 -4.5,-3.4 0.2,-0.2 0.4,-0.4 0.7,-0.7 -0.2,-0.3 -0.4,-0.5 -0.7,-0.9 0.4,0 0.6,0 0.8,0.1 0.9,0.4 1.7,0.8 2.5,1.3 0.2,0.1 0.4,0.3 0.4,0.5 0.2,1.1 0.8,1.9 1.3,2.8 0.4,0.7 0.6,1.6 0.8,2.4 0.2,1.1 0.4,2.1 1.6,2.8 0.2,0.3 0.3,0.9 0.5,1.3 -1,-0.5 -2.1,-1 -3.2,-1.5 -0.6,-0.3 -1.2,-0.5 -1.6,-1 -0.6,-0.6 -1,-0.5 -1.5,-0.1 0.6,1.6 1.2,3.1 1.8,4.5 0.3,0.7 1.6,1.3 2.7,1.3 -0.6,-0.8 -1.2,-1.4 -1.9,-2.3 1.3,0.6 2.3,1 3.5,1.5 0.1,-0.9 0.2,-1.6 0.2,-2.4 z M 160,145.2 c 1,-0.6 1.9,-1.2 2.9,-1.8 0.4,-0.2 0.5,-0.5 0.3,-0.9 -0.2,-0.5 -0.5,-0.5 -0.9,-0.4 -0.5,0 -1.1,0.5 -1.4,-0.4 -0.3,-0.9 -0.9,-1.2 -1.7,-0.6 -0.4,0.3 -0.8,0.5 -1.2,0.8 0,-0.1 -0.1,-0.1 -0.1,-0.2 0.8,-1 1.8,-1.7 3.2,-1.9 0.8,-0.2 1.5,-0.6 2.2,-0.8 0.5,1.7 1.7,3.4 4.1,2.5 -0.3,-0.4 -0.5,-0.8 -0.9,-1.2 -1.3,-1.3 -3.1,-2.1 -3.9,-4 0,0 -0.1,-0.1 -0.1,-0.1 -1,-0.9 -2,-1.9 -3,-2.7 -0.4,-0.4 -1.1,-0.5 -1.6,-0.6 -0.5,-0.2 -1.3,-0.1 -1.5,-0.5 -0.8,-1.1 -2,-1.4 -3.1,-1.8 -0.3,-0.1 -1.2,0.3 -1.2,0.5 0,1.5 -0.4,3 0.5,4.1 -0.3,1.4 -0.6,2.7 -0.8,4.1 -0.8,-0.5 -1.5,-1.3 -1.6,-2.2 0,-1.1 -0.6,-1.4 -1.4,-1.7 -0.4,-0.1 -0.9,-0.3 -1.3,-0.3 -0.7,-0.1 -1.1,-0.6 -1.1,-1.1 0,-0.9 0,-1.8 0.4,-2.6 0.7,-1.6 2.1,-2.7 3.5,-3.7 0.5,-0.4 1.1,-0.8 1.6,-1.2 -0.1,-0.1 -0.2,-0.2 -0.3,-0.3 -0.2,-0.2 -0.4,-0.5 -0.6,-0.8 1,0.3 2.1,0.3 2.4,1.4 0.5,1.4 -0.5,2.1 -1.5,2.8 1.2,0.4 2.4,0.8 3.5,1.1 0.5,0.1 1,0.1 1.4,0.1 0.2,0 1.4,-2.3 1.3,-2.5 -0.4,-0.7 -0.7,-1.5 -1.6,-1.7 -0.8,-0.2 -1.3,-0.7 -1.5,-1.5 -0.1,-0.3 -0.2,-0.6 -0.5,-0.8 -1.4,-0.7 -2.8,-1.3 -4.2,-2 -0.8,-0.4 -1.2,0.2 -1.6,0.7 -0.1,0.2 0.1,0.7 0.4,1 0.3,0.5 0.8,0.9 1.4,1.5 -0.7,0 -1.5,0.1 -1.7,-0.1 -0.5,-0.7 -0.6,-1.6 -0.9,-2.4 -0.5,-0.1 -1,0 -1,0.8 0,0.2 0,0.5 -0.1,0.6 -0.2,0.3 -0.5,0.5 -0.7,0.7 -0.2,-0.3 -0.5,-0.6 -0.4,-0.8 0.5,-2.2 -1.5,-3.1 -2.5,-4.5 -0.1,-0.1 -0.3,-0.1 -0.4,-0.1 -0.8,0 -1.6,0.2 -2,1 0.4,0.5 0.8,0.8 1,1.3 0.2,0.6 0.4,1.1 0.9,1.4 0.5,0.3 0.5,0.7 0.2,1.3 -1.9,-1.6 -3.7,-3 -5.5,-4.6 -0.7,-0.6 -1.2,-1.4 -1.1,-2.5 0,-0.4 -0.2,-0.8 -0.2,-1.2 0,-0.9 -0.6,-1.3 -1.5,-1.2 -1.1,0 -2.2,0.1 -3.3,0.3 -0.3,0 -0.5,0.4 -0.6,0.7 -0.3,0.6 -0.5,1 -1.3,0.8 -1.1,-0.3 -1.9,0.2 -2.4,1.2 -0.3,0.6 -0.5,1.2 -0.8,1.9 -0.7,-0.3 -1.3,-0.7 -2,-1 0.1,0.8 0.3,1.5 1.2,1.8 0.8,0.2 1.6,0.6 2.3,0.9 1.2,0.4 2.2,1.1 2.2,2.5 0.1,0.9 0.1,1.8 -0.1,2.7 -0.2,1.2 -0.6,2.4 -0.9,3.5 -0.4,1.7 -0.6,3.4 -0.2,5.1 0.1,0.3 0,0.6 -0.2,0.8 -2.2,2.5 -3.2,5.5 -3.4,8.8 -0.1,1.1 -0.4,2.2 -0.1,3.2 0.7,2.7 1.6,5.3 2.4,8 0.3,1.1 1.5,1.9 2.2,1.8 -0.4,-0.9 -0.9,-1.7 -1.2,-2.7 -0.7,-2.5 -0.6,-2.5 -0.1,-2.8 0,0.1 0.1,0.1 0.1,0.2 0.6,2.2 1.3,4.4 2.4,6.5 0.3,0.5 0.3,1.2 0.3,1.8 -0.1,0.9 0.1,2 1,2.3 1.4,0.5 2.3,1.6 3.4,2.5 0.4,0.4 0.9,0.7 1.4,0.9 1.8,0.7 3.7,1.3 5.5,2.1 1.9,0.8 3.5,1.9 4.1,4 0.1,0.3 0.2,0.7 0.5,0.8 1.4,0.5 2.7,1.5 4.3,1.2 0.6,-0.1 1.2,0 1.8,0 0,0.9 0,1.6 0,2.3 0,0.8 -0.3,1.5 -1.3,1.7 -0.4,0.1 -0.9,0.4 -1.1,0.8 -0.9,1.5 -1.1,3.3 1.1,4.4 1.8,0.9 3.2,2.4 4.5,3.8 0.5,0.6 1,1.3 2.2,1.1 -0.2,0.8 -0.3,1.5 -0.5,2.1 -0.3,0.8 0,1.5 0.7,1.3 3.2,-0.8 6.5,-1.4 9.6,-2.5 5.1,-1.8 9.8,-4.5 14,-7.9 0.2,-0.2 0.5,-0.5 0.5,-0.8 0.1,-1.7 0.8,-3 1.8,-4.3 0.5,-0.7 1,-1.4 1.5,-2.2 -0.8,-0.5 -1.3,-1.4 -2.4,-1 -1.5,0.5 -2.9,0.9 -4.4,1.3 -2.3,0.5 -2.4,0.5 -3.9,-1.3 -0.1,-0.1 -0.1,-0.1 -0.2,-0.2 -0.3,-0.5 -0.7,-0.6 -1.3,-0.6 -2.6,0.2 -5,-0.1 -7.4,-1.3 -0.2,-0.1 -0.5,-0.2 -0.8,-0.1 -1.6,0.1 -3.1,0.3 -4.7,0.5 -0.2,0 -0.5,0.1 -0.7,0.2 -0.6,0.4 -1.3,0.4 -1.9,0.1 -1.2,-0.7 -2.2,-0.2 -3.2,0.6 -0.5,0.3 -0.9,0.8 -1.3,1.1 -0.2,0.2 -0.5,0.2 -0.8,0.2 -0.6,0 -1.3,0 -1.8,-0.2 -0.7,-0.3 -1.5,-0.7 -2.1,-1.3 -0.2,-0.2 0,-1 0.1,-1.5 0.4,-1.6 0.3,-1.8 -1.3,-2.5 -0.7,-0.3 -1.5,-0.3 -2.2,-0.3 -0.9,0 -1,-0.3 -0.7,-1.1 0.2,-0.6 0.4,-1.3 0.5,-2 0,-0.2 -0.2,-0.6 -0.4,-0.8 -0.8,-0.6 -1.9,-0.3 -2.4,0.5 -0.4,0.8 -1.1,1 -1.8,0.6 -0.8,-0.4 -1.6,-1 -2.3,-1.6 -0.1,-0.1 -0.2,-0.3 -0.2,-0.5 0,-0.8 -0.1,-1.6 0,-2.3 0.5,-2.6 2.6,-3.7 5,-2.8 0.5,0.2 1.2,0.2 1.6,0 1.5,-0.6 3.3,-0.1 4.2,1.2 0.3,0.4 0.6,0.9 0.9,1.3 0.4,0.7 0.9,0.9 1.7,0.3 -0.2,-0.6 -0.3,-1.3 -0.6,-1.9 -0.5,-0.9 -0.4,-1.8 0.2,-2.6 0.5,-0.8 1.3,-1.4 2.1,-2 0.9,-0.7 1.5,-1.3 1.5,-2.6 0.1,-1.5 0.5,-3.1 2.1,-3.9 0.1,-0.1 0.2,-0.3 0.3,-0.5 0.2,-0.4 0.4,-0.8 0.7,-1.2 0.6,-1.8 0.9,-1.9 1.8,-1.4 z m -9.8,-29.4 c -0.2,1 -0.2,1.6 -0.4,2.3 -0.3,0.9 -0.2,1.5 0.6,2.2 0.4,0.3 0.9,0.6 1.4,0.9 0.4,-1 0.7,-2 1.1,-3 0.1,0 0.2,0 0.3,0.1 0.2,1.3 1,2.1 2,2.7 1.2,0.8 2.3,1.6 3.5,2.4 0.8,0.6 1.2,1.4 1.2,2.4 0,0.8 0.1,1.6 1.1,1.9 0.1,0 0.2,0.1 0.2,0.2 0.2,1.3 1.5,1.5 2.3,2.2 0.2,0.1 0.4,0.2 0.6,0.2 1.2,-0.4 2.4,-0.8 3.7,-1.2 -0.5,-0.4 -1,-0.6 -1.5,-0.8 -0.8,-0.3 -1.2,-1 -1.1,-1.7 0.1,-1.1 0.2,-2.2 0.2,-3.2 0,-0.7 0.2,-1.3 0.8,-1.7 0.6,-0.5 0.6,-2 0,-2.5 -0.8,-0.7 -1.5,-1.6 -2.5,-2.1 -1.7,-1 -3.5,-1.8 -5.2,-2.7 0,0 -0.1,0 -0.2,0 -1.6,-0.1 -3.3,-0.2 -4.5,1.4 -0.1,0.2 -0.6,0 -1,0.1 0,-0.6 -0.4,-0.5 -0.8,-0.5 -0.5,0 -1.3,0.2 -1.8,0.4 z m 17.9,5.1 c -0.1,0 -0.2,0 -0.3,0.1 0.3,0.8 0.5,1.6 0.9,2.2 0.3,0.4 0.9,0.9 1.4,0.4 1,-0.8 1.5,-1.8 1.7,-3.1 0,-0.1 0,-0.3 -0.1,-0.4 -0.5,-0.8 -1.9,-0.9 -2.6,-0.2 -0.3,0.4 -0.7,0.7 -1,1 z M 148,163.5 c 0,0.1 0,0.2 0,0.3 2.1,0.2 4,0.8 5.7,2.2 0.7,0.6 2.1,-0.1 2.3,-1 -0.2,-0.1 -0.3,-0.2 -0.5,-0.3 -2.1,-0.5 -4.2,-1.1 -6.3,-1.6 -0.2,-0.1 -0.7,0.3 -1.2,0.4 z m 13,3.1 c -0.5,-0.4 -1.2,-0.6 -1.3,-0.9 -0.2,-0.8 -0.8,-0.7 -1.3,-0.6 -0.5,0 -1,0.1 -1.5,0.3 -0.2,0.1 -0.5,0.3 -0.5,0.5 0,0.2 0.2,0.5 0.4,0.6 1.4,0.7 2.7,0.5 4.2,0.1 z"
             id="path579"
             style="opacity:0.8;fill:#c9c9c9;fill-rule:evenodd" /><path
             d="m 188.8,114 c 0.8,1 1.7,1.8 2.2,2.8 0.4,0.8 0.4,1.8 0.4,2.7 0,0.2 -0.4,0.5 -0.8,0.9 0.4,1.2 2.2,2.1 1.6,4 -0.1,0 -0.2,0 -0.3,0 -1.2,-0.2 -1.3,-0.1 -1.3,1.1 0,0.9 0,1.8 0,2.8 0,0.3 0,0.6 0,1 -0.2,-0.1 -0.4,-0.1 -0.4,-0.2 -0.9,-1.2 -1.9,-2.4 -2,-4 0,-0.6 -0.3,-1.2 -0.4,-1.8 -0.1,-0.3 -0.1,-0.6 -0.2,-1.1 0.5,0 0.9,0.1 1.3,0 0.3,-0.1 0.6,-0.4 0.7,-0.6 0.1,-0.1 -0.2,-0.5 -0.4,-0.6 -0.4,-0.2 -0.8,-0.4 -1.2,-0.6 0,-0.1 0,-0.2 0,-0.2 0.4,-0.1 0.8,-0.1 1.1,-0.2 0.6,-0.2 1.4,0 1.4,-0.9 0,-0.3 -0.2,-0.8 -0.4,-0.9 -1,-0.5 -1.2,-1.4 -1.2,-2.4 -0.1,-0.7 -0.1,-1.2 -0.1,-1.8 z"
             id="path581"
             style="opacity:0.8;fill:#c9c9c9;fill-rule:evenodd" /><path
             d="m 160,145.2 c -1,-0.4 -1.2,-0.4 -1.9,0.7 -0.2,0.4 -0.4,0.8 -0.7,1.2 -0.1,0.2 -0.2,0.4 -0.3,0.5 -1.6,0.8 -2,2.4 -2.1,3.9 -0.1,1.3 -0.7,1.9 -1.5,2.6 -0.7,0.6 -1.5,1.2 -2.1,2 -0.5,0.7 -0.6,1.7 -0.2,2.6 0.3,0.6 0.4,1.3 0.6,1.9 -0.8,0.6 -1.3,0.4 -1.7,-0.3 -0.3,-0.5 -0.6,-0.9 -0.9,-1.3 -0.9,-1.3 -2.7,-1.8 -4.2,-1.2 -0.5,0.2 -1.2,0.2 -1.6,0 -2.5,-0.9 -4.5,0.2 -5,2.8 -0.2,0.7 0,1.5 0,2.3 0,0.2 0.1,0.4 0.2,0.5 0.8,0.5 1.5,1.1 2.3,1.6 0.7,0.4 1.4,0.2 1.8,-0.6 0.5,-0.8 1.7,-1.1 2.4,-0.5 0.2,0.2 0.4,0.5 0.4,0.8 -0.1,0.7 -0.3,1.4 -0.5,2 -0.3,0.8 -0.2,1.1 0.7,1.1 0.7,0 1.5,0.1 2.2,0.3 1.6,0.6 1.7,0.9 1.3,2.5 -0.1,0.5 -0.3,1.2 -0.1,1.5 0.6,0.6 1.3,1 2.1,1.3 0.5,0.2 1.2,0.2 1.8,0.2 0.3,0 0.6,-0.1 0.8,-0.2 0.5,-0.3 0.9,-0.8 1.3,-1.1 1,-0.7 2,-1.3 3.2,-0.6 0.6,0.4 1.3,0.4 1.9,-0.1 0.2,-0.1 0.5,-0.2 0.7,-0.2 1.6,-0.2 3.1,-0.3 4.7,-0.5 0.3,0 0.6,0 0.8,0.1 2.3,1.2 4.8,1.6 7.4,1.3 0.5,0 1,0.1 1.3,0.6 0,0.1 0.1,0.1 0.2,0.2 1.6,1.8 1.6,1.9 3.9,1.3 1.5,-0.3 2.9,-0.8 4.4,-1.3 1.1,-0.3 1.6,0.5 2.4,1 -0.5,0.8 -1,1.5 -1.5,2.2 -1,1.3 -1.6,2.7 -1.8,4.3 0,0.3 -0.3,0.6 -0.5,0.8 -4.3,3.4 -8.9,6.1 -14,7.9 -3.1,1.1 -6.4,1.7 -9.6,2.5 -0.6,0.2 -1,-0.5 -0.7,-1.3 0.2,-0.6 0.3,-1.2 0.5,-2.1 -1.2,0.3 -1.7,-0.5 -2.2,-1.1 -1.3,-1.5 -2.6,-3 -4.5,-3.8 -2.2,-1.1 -2,-2.9 -1.1,-4.4 0.2,-0.4 0.7,-0.7 1.1,-0.8 0.9,-0.3 1.2,-0.9 1.3,-1.7 0,-0.7 0,-1.4 0,-2.3 -0.6,0 -1.2,-0.1 -1.8,0 -1.6,0.3 -2.9,-0.7 -4.3,-1.2 -0.2,-0.1 -0.4,-0.5 -0.5,-0.8 -0.7,-2.1 -2.3,-3.2 -4.1,-4 -1.8,-0.8 -3.6,-1.3 -5.5,-2.1 -0.5,-0.2 -1,-0.5 -1.4,-0.9 -1.1,-0.9 -2,-1.9 -3.4,-2.5 -0.8,-0.3 -1.1,-1.4 -1,-2.3 0.1,-0.6 0,-1.3 -0.3,-1.8 -1.1,-2 -1.8,-4.2 -2.4,-6.5 0,-0.1 -0.1,-0.1 -0.1,-0.2 -0.6,0.2 -0.6,0.3 0.1,2.8 0.3,1 0.8,1.8 1.2,2.7 -0.7,0 -1.8,-0.8 -2.2,-1.8 -0.9,-2.6 -1.7,-5.3 -2.4,-8 -0.3,-1 0.1,-2.2 0.1,-3.2 0.2,-3.3 1.2,-6.3 3.4,-8.8 0.2,-0.2 0.2,-0.6 0.2,-0.8 -0.3,-1.7 -0.2,-3.4 0.2,-5.1 0.3,-1.2 0.7,-2.3 0.9,-3.5 0.2,-0.9 0.2,-1.8 0.1,-2.7 -0.1,-1.4 -1,-2 -2.2,-2.5 -0.8,-0.3 -1.5,-0.6 -2.3,-0.9 -0.9,-0.3 -1.2,-0.9 -1.2,-1.8 0.7,0.3 1.3,0.7 2,1 0.3,-0.8 0.6,-1.4 0.8,-1.9 0.5,-1.1 1.3,-1.5 2.4,-1.2 0.8,0.2 1.1,-0.1 1.3,-0.8 0.1,-0.3 0.4,-0.7 0.6,-0.7 1.1,-0.2 2.2,-0.3 3.3,-0.3 1,0 1.5,0.3 1.5,1.2 0,0.4 0.3,0.8 0.2,1.2 -0.1,1.1 0.4,1.9 1.1,2.5 1.8,1.6 3.6,3.1 5.5,4.6 0.4,-0.6 0.3,-1 -0.2,-1.3 -0.5,-0.3 -0.8,-0.8 -0.9,-1.4 -0.1,-0.5 -0.6,-0.9 -1,-1.3 0.4,-0.8 1.1,-1 2,-1 0.1,0 0.3,0 0.4,0.1 0.9,1.4 3,2.3 2.5,4.5 -0.1,0.2 0.3,0.6 0.4,0.8 0.2,-0.2 0.5,-0.4 0.7,-0.7 0.1,-0.2 0.1,-0.4 0.1,-0.6 0,-0.8 0.4,-0.9 1,-0.8 0.3,0.9 0.5,1.7 0.9,2.4 0.2,0.3 1,0.1 1.7,0.1 -0.6,-0.6 -1,-1 -1.4,-1.5 -0.2,-0.3 -0.5,-0.8 -0.4,-1 0.4,-0.5 0.8,-1.1 1.6,-0.7 1.4,0.7 2.8,1.3 4.2,2 0.2,0.1 0.4,0.5 0.5,0.8 0.3,0.8 0.8,1.3 1.5,1.5 0.9,0.2 1.2,1 1.6,1.7 0.1,0.2 -1,2.5 -1.3,2.5 -0.5,0 -1,0 -1.4,-0.1 -1.1,-0.3 -2.3,-0.7 -3.5,-1.1 1,-0.7 2,-1.4 1.5,-2.8 -0.4,-1.1 -1.4,-1.1 -2.4,-1.4 0.2,0.3 0.4,0.6 0.6,0.8 0.1,0.1 0.2,0.2 0.3,0.3 -0.5,0.4 -1.1,0.8 -1.6,1.2 -1.4,1 -2.8,2.1 -3.5,3.7 -0.4,0.8 -0.4,1.7 -0.4,2.6 0,0.5 0.4,1 1.1,1.1 0.4,0.1 0.9,0.2 1.3,0.3 0.8,0.3 1.4,0.6 1.4,1.7 0,0.9 0.7,1.6 1.6,2.2 0.3,-1.3 0.5,-2.6 0.8,-4.1 -0.9,-1.1 -0.5,-2.7 -0.5,-4.1 0,-0.2 0.9,-0.6 1.2,-0.5 1.1,0.4 2.3,0.7 3.1,1.8 0.2,0.3 1,0.3 1.5,0.5 0.6,0.2 1.2,0.3 1.6,0.6 1.1,0.8 2,1.8 3,2.7 0,0 0.1,0.1 0.1,0.1 0.7,1.9 2.5,2.7 3.9,4 0.3,0.3 0.6,0.8 0.9,1.2 -2.4,0.9 -3.7,-0.9 -4.1,-2.5 -0.7,0.3 -1.5,0.7 -2.2,0.8 -1.3,0.3 -2.4,0.9 -3.2,1.9 0,0.1 0.1,0.1 0.1,0.2 0.4,-0.3 0.8,-0.5 1.2,-0.8 0.8,-0.6 1.4,-0.4 1.7,0.6 0.2,0.8 0.9,0.4 1.4,0.4 0.4,0 0.7,-0.1 0.9,0.4 0.2,0.4 0.1,0.7 -0.3,0.9 -0.8,1.2 -1.7,1.8 -2.8,2.5 z"
             id="path583"
             style="fill:#8f8f8f;fill-rule:evenodd" /><path
             d="m 150.2,115.8 c 0.5,-0.1 1.3,-0.4 2.1,-0.6 0.3,-0.1 0.8,-0.1 0.8,0.5 0.3,0 0.8,0.1 1,-0.1 1.2,-1.6 2.8,-1.4 4.5,-1.4 0.1,0 0.1,0 0.2,0 1.7,0.9 3.5,1.7 5.2,2.7 0.9,0.5 1.7,1.4 2.5,2.1 0.6,0.5 0.6,2 0,2.5 -0.5,0.5 -0.8,1 -0.8,1.7 0,1.1 -0.1,2.2 -0.2,3.2 -0.1,0.8 0.3,1.5 1.1,1.7 0.5,0.2 1,0.4 1.5,0.8 -1.2,0.4 -2.4,0.8 -3.7,1.2 -0.2,0.1 -0.4,-0.1 -0.6,-0.2 -0.9,-0.6 -2.1,-0.8 -2.3,-2.2 0,-0.1 -0.1,-0.2 -0.2,-0.2 -1,-0.3 -1.1,-1.1 -1.1,-1.9 0,-1 -0.4,-1.8 -1.2,-2.4 -1.2,-0.8 -2.3,-1.6 -3.5,-2.4 -1,-0.7 -1.8,-1.5 -2,-2.7 -0.1,0 -0.2,0 -0.3,-0.1 -0.4,1 -0.7,1.9 -1.1,3 -0.5,-0.3 -1,-0.6 -1.4,-0.9 -0.8,-0.6 -0.9,-1.2 -0.6,-2.2 -0.1,-0.5 0,-1.2 0.1,-2.1 z"
             id="path585"
             style="fill:#8f8f8f;fill-rule:evenodd" /><path
             d="m 182.5,121.7 c 0,0.7 -0.1,1.5 -0.1,2.4 -1.2,-0.5 -2.2,-1 -3.5,-1.5 0.7,0.8 1.2,1.5 1.9,2.3 -1.1,0.1 -2.4,-0.5 -2.7,-1.3 -0.6,-1.5 -1.2,-3 -1.8,-4.5 0.4,-0.4 0.9,-0.5 1.5,0.1 0.4,0.4 1,0.7 1.6,1 1,0.6 2.1,1 3.1,1.5 0,0.1 0,0 0,0 z"
             id="path587"
             style="fill:#8f8f8f;fill-rule:evenodd" /><path
             d="m 168.1,120.9 c 0.3,-0.3 0.7,-0.6 1,-0.9 0.7,-0.7 2,-0.6 2.6,0.2 0.1,0.1 0.1,0.3 0.1,0.4 -0.2,1.2 -0.7,2.3 -1.7,3.1 -0.6,0.5 -1.2,0 -1.4,-0.4 -0.4,-0.7 -0.6,-1.5 -0.9,-2.2 0.1,-0.2 0.2,-0.2 0.3,-0.2 z"
             id="path589"
             style="fill:#8f8f8f;fill-rule:evenodd" /><path
             d="m 148,163.5 c 0.5,-0.1 0.9,-0.5 1.3,-0.4 2.1,0.5 4.2,1 6.3,1.6 0.2,0 0.3,0.2 0.5,0.3 -0.2,0.9 -1.6,1.6 -2.3,1 -1.7,-1.3 -3.6,-2 -5.7,-2.2 0,-0.1 -0.1,-0.2 -0.1,-0.3 z"
             id="path591"
             style="fill:#8f8f8f;fill-rule:evenodd" /><path
             d="m 161,166.6 c -1.5,0.4 -2.8,0.6 -4.1,-0.1 -0.2,-0.1 -0.4,-0.4 -0.4,-0.6 0,-0.2 0.3,-0.5 0.5,-0.5 0.5,-0.2 1,-0.3 1.5,-0.3 0.5,0 1.1,-0.1 1.3,0.6 0,0.3 0.7,0.5 1.2,0.9 z"
             id="path593"
             style="fill:#8f8f8f;fill-rule:evenodd" /></g><path
           d="M 151.7,273.1 C 81.7,273.1 25,216.4 25,146.4 25,76.4 81.7,19.7 151.7,19.7 c 70,0 126.7,56.7 126.7,126.7 0.1,70 -56.7,126.7 -126.7,126.7 z"
           id="SVGID_x5F_33_x5F_"
           style="fill:none" /><text
           id="text596"><textPath
             xlink:href="#SVGID_x5F_33_x5F_"
             id="textPath598"><tspan
   id="country"
   style="font-size:19.71509933px;fill:#ffffff;font-family:Helvetica-Bold">HOVER OVER A COUNTRY</tspan></textPath></text>
<text
           transform="translate(34,140)"
           id="text601"><tspan
             id="score"
             style="font-size:24px;fill:#ffffff;font-family:Helvetica-Bold" /></text>
</g><path
         d="m 295.25424,158.09322 a 110.72034,112.92373 0 1 1 -221.440672,0 110.72034,112.92373 0 1 1 221.440672,0 z"
         transform="matrix(1.0746268,0,0,1.0585365,-47.372882,-20.822034)"
         id="path3583"
         style="opacity:0.6;fill:#d19c24;fill-opacity:1" /></g></g></svg>