<!DOCTYPE svg PUBLIC "-//W3C//DTD SVG 1.1//EN" "http://www.w3.org/Graphics/SVG/1.1/DTD/svg11.dtd">
<svg xmlns="http://www.w3.org/2000/svg" xmlns:xlink="http://www.w3.org/1999/xlink" version="1.1" x="0px" y="0px" viewBox="0 0 300 260" enable-background="new 0 0 775 515" xml:space="preserve" xmlns:xml="http://www.w3.org/XML/1998/namespace">

<g id="Layer_2">
	<g>
		<path opacity="0.8" fill="#C9C9C9" d="M151,26.7c-36.1,0-68.5,16-90.5,41.4l0-0.1c0,0.1-0.1,0.1-0.1,0.2c-3.3,3.8-6.3,7.8-9.1,12    C31.1,102.2,6,104.8,6,104.8s21,13.5,25.5,46.2c0.1,3.3,0.4,6.5,0.8,9.8c0,0.1,0,0.3,0,0.4l0-0.1c7.3,59.1,57.7,104.9,118.8,104.9    c66.1,0,119.7-53.6,119.7-119.7S217.1,26.7,151,26.7z"/>
		<g>
			<g>
				<path fill="#FFFFFF" d="M92,196.7c0,9.9-8,17.8-17.8,17.8c-9.9,0-17.8-8-17.8-17.8c0-9.9,8-17.8,17.8-17.8      C84,178.8,92,186.8,92,196.7"/>
				<path fill-rule="evenodd" clip-rule="evenodd" fill="#D19C24" d="M86.2,194.9c-1.1,0.2-2.1,0.3-3.2,0.5c0.6,0.2,1.3,0.5,1.9,0.7      c0,0.1,0,0.2-0.1,0.3h-3.6c0.7,0.4,1.4,0.7,2.1,1.1c0,0.1-0.1,0.2-0.1,0.3c-1.5,0.3-2.8-0.4-4.3-0.7c0.9,0.7,1.8,1.3,2.7,1.9      c-0.1,0.1-0.1,0.2-0.2,0.3c-1.4,0.1-2.6-0.6-4.1-1.3c0.9,0.8,1.7,1.5,2.5,2.3c-1.4,0.2-2.4-0.5-3.4-1c0.5,0.6,1,1.2,1.5,1.8      c-0.1,0.1-0.2,0.2-0.3,0.3c-1.2-0.6-2.5-1.2-3.4-1.7c0.6,0.6,1.3,1.3,2.2,2.3c-1.5,0.1-2.4-0.6-3.4-1.1c0.6,0.6,1.2,1.2,1.7,1.8      c-0.1,0.1-0.1,0.2-0.2,0.3c-1-0.4-2-0.9-3.1-1.3c0.6,0.7,1.3,1.4,1.9,2.1c-1.5,0.1-2.5-0.7-3.6-1.3c0.8,0.8,1.5,1.6,2.3,2.4      c-0.1,0.1-0.1,0.1-0.2,0.2c-1.4-0.1-2.5-1.1-3.7-1.7c0.9,0.9,1.8,1.9,2.7,2.8c-0.1,0.1-0.1,0.1-0.2,0.2c-1.2,0.1-2.1-0.7-3-1.4      c-0.9-0.7-1.8-1.5-2.9-2.4c-1.1,1.1-2.1,2.2-3.1,3.2c-0.4-0.6-0.4-1.2,0.4-1.7c0.6-0.4,1-0.9,1.6-1.3c0.9-0.5,1-1.2,0.9-2.1      c-0.1-1.7,0-3.3,0-5c0-0.3,0.2-0.7,0.4-1c0.8,1.5,0.7,3.1,1,5c0.2-2-0.2-4,0.8-5.6c0.1,0,0.2,0,0.4,0c0.1,1.3,0.2,2.7,0.4,4      c0.3-1.5,0.2-3.2,1.3-4.7c0.6,1.7,0.3,3.2,0.4,4.8c0.3-1.8,0.3-3.6,1.4-5c0.1,0,0.2,0,0.3,0v3.5c0.5-1.3,0.6-2.7,1.7-3.8      c0.6,1.2,0,2.4,0.1,3.8c0.5-1.4,0.5-2.8,1.7-4v3.7c0.5-1.3,0.6-2.7,1.7-3.7c0.1,0,0.2,0,0.3,0c0,0.9-0.1,1.8-0.1,2.9      c0.5-1.2,0.6-2.4,1.7-3.4v2.6c0.4-0.9,0.9-1.9,1.4-3c0.1,0,0.2,0.1,0.3,0.1v2.6c0.5-1.1,0.5-2.3,1.6-3.2v2      c0.4-0.9,0.8-1.7,1.2-2.5c0.1,0,0.2,0.1,0.3,0.1c0,0.5,0,0.9,0.1,1.4c0.3-0.7,0.7-1.4,1-2.1c0.1,0,0.2,0,0.3,0.1      c0,0.4,0,0.9,0.1,1.4c0.3-0.8,0.6-1.4,0.9-2.1c0.1,0,0.2,0,0.3,0.1c0,0.4,0.1,0.9,0.1,1.2c0.7-0.7,1.4-1.4,2.1-2.2      c0.1,0.1,0.2,0.1,0.3,0.2c-0.5,1-1,1.9-1.4,2.8c0.3,0,0.8-0.1,1.3-0.1c0,0.1,0.1,0.2,0.1,0.3c-0.7,0.4-1.4,0.7-2.1,1.1      c0.3,0,0.7,0.1,1.1,0.1c0,0.1,0,0.2,0,0.3c-0.9,0.3-1.8,0.6-2.6,0.9c0.5,0.1,1,0.2,1.6,0.3C86.2,194.7,86.2,194.8,86.2,194.9"/>
			</g>
			<g>
				<path fill="#FFFFFF" d="M239.9,83.9c0,9.9-8,17.9-17.9,17.9c-9.9,0-17.9-8-17.9-17.9c0-9.9,8-17.9,17.9-17.9      C231.9,66,239.9,74,239.9,83.9"/>
				<path fill="#D19C24" d="M219.5,72.9v27.2c0,2.3,3.6,2.3,3.6,0V72.9C223.1,70.5,219.5,70.5,219.5,72.9"/>
				<path fill="#D19C24" d="M219.7,84.9c-0.7,0.2-1.3,0.3-2,0.3c0.2,0-0.4-0.1-0.5-0.1c0.3,0.1-0.5-0.4-0.3-0.2      c-0.4-0.3-0.5-0.5-0.8-1.1c-0.1-0.3-0.4-1.2-0.5-1.8c-0.5-2.4-0.2-5.2-0.2-7.7c0-2.3-3.6-2.3-3.6,0c0,3.3-0.3,6.6,0.6,9.8      c0.5,1.6,1.3,3.1,2.8,4c1.6,1.1,3.7,0.9,5.4,0.3C222.9,87.7,222,84.2,219.7,84.9"/>
				<path fill="#D19C24" d="M223.2,95.3c7.4-1,6.8-10.8,6.8-16.3c0-2.3-3.6-2.3-3.6,0c0,3.8,1.1,12-4.1,12.8c-1,0.1-1.5,1.4-1.3,2.2      C221.3,95.1,222.3,95.4,223.2,95.3"/>
				<path fill="none" d="M204.4,84.1c0,9.9,8,17.9,17.9,17.9c9.9,0,17.9-8,17.9-17.9s-8-17.9-17.9-17.9      C212.4,66.2,204.4,74.2,204.4,84.1"/>
			</g>
			<g>
				<path fill="#FFFFFF" d="M175.7,238.6c0,9.9-8,17.8-17.8,17.8c-9.9,0-17.8-8-17.8-17.8c0-9.9,8-17.8,17.8-17.8      C167.7,220.8,175.7,228.7,175.7,238.6"/>
				<g>
					<path fill-rule="evenodd" clip-rule="evenodd" fill="#D19C24" d="M156.9,249.7c0.4-0.4,0.8-0.8,1.1-1.2       c-0.3-0.2-0.4-0.3-0.6-0.5c-1,0.6-1,0.6-1.5-0.1c-0.6,0.2-1.1,0.4-1.7,0.6c0-0.1,0-0.2,0-0.3c-0.1-0.5-0.4-0.6-0.8-0.5       c-0.5,0.1-0.9,0.3-1.4,0.3c-0.3,0.1-0.7,0-0.8-0.4c0-0.1-0.2-0.2-0.4-0.2c-0.2-0.1-0.4-0.2-0.6-0.3c0.8-0.1,1.5-0.4,2.1-0.9       c0.4-0.4,0.8-0.8,1.2-1.3c-0.4,0-0.7,0-0.9,0c-0.4,0-0.7-0.1-0.4-0.6c-0.3-0.1-0.6-0.3-1-0.4c0.3-0.2,0.4-0.3,0.6-0.4       c-0.3-0.3-0.6-0.5-0.9-0.8c1.1-0.2,2-0.3,2.8-1.2c-0.3,0-0.7,0.1-0.6-0.5c0-0.1-0.3-0.2-0.4-0.3c0.2-0.2,0.4-0.3,0.7-0.5       c-0.5-0.3-1.1-0.2-1.2-0.8c0.4-0.1,0.9-0.1,1.1-0.3c0.2-0.2,0-0.7-0.1-1.1c0.3-0.1,0.6-0.3,0.9-0.4c-0.4-0.2-0.7-0.4-1.2-0.7       c1.3-0.3,2.3-0.7,3-1.8c-0.6-0.2-1.2-0.4-1.9-0.6c0.5-0.4,1-0.7,1.5-1.1c-0.4-0.1-0.6-0.2-0.9-0.3c0.7-0.4,1.3-0.8,1.9-1.2       c-0.2-0.2-0.3-0.4-0.4-0.5c-0.3,0-0.7-0.1-1-0.1c0.8-0.8,1.6-1.5,2.3-2.4c0.7-0.8,1.2-1.8,1.8-2.7c0.2,0.5,0.4,1.1,0.7,1.6       c0.3,0.5,0.7,1,1.1,1.5c0,0-0.1,0.1-0.2,0.2c0.6,0.7,1.3,1.3,1.9,2c-0.4,0.2-0.9,0.4-1.5,0.6c0.5,0.3,1,0.6,1.4,0.9       c0,0,0,0.1-0.1,0.1c0.2,0,0.5,0.1,0.8,0.1c-0.2,0.2-0.3,0.3-0.5,0.5c0.3,0.1,0.5,0.2,0.8,0.2c-0.4,0.5-1,0.4-1.6,0.6       c0.6,0.5,1.2,1,1.9,1.6c-0.4,0-0.8,0.1-1.3,0.1c0.5,0.2,0.9,0.4,1.4,0.7c-0.2,0.1-0.3,0.3-0.5,0.4c0.3,0.4,0.4,0.9,1.1,0.8       c-0.1,0.7-0.7,0.7-1.1,0.9c0.5,0.2,1,0.4,1.5,0.6c-0.1,0.5-0.6,0.4-1,0.6c0.7,0.6,1.5,0.9,2.5,0.9c-0.7,0.9-0.9,2-2.4,1.8       c1,0.9,2,1.2,3.1,1.4c-0.2,0.5-0.6,0.5-1,0.5c-0.4,0-0.8,0-1.2,0c0,0-0.1,0.1-0.1,0.1c0.4,0.4,0.8,0.9,1.3,1.3       c0,0-0.1,0.2-0.2,0.4c0.8,0.1,1.6,0.1,2.5,0.2c-0.2,0.2-0.4,0.3-0.5,0.4c-0.3,0.1-0.6,0.2-0.9,0.3c-0.6,0.2-1.2,0.4-1.8,0.5       c-0.5,0.1-1.1-0.1-1.7-0.1c0.3,0.4,0.5,0.9,0.8,1.4c-1.3,0.2-2.3-0.6-3.4-1.2c0,0.8,0.4,1.3,1,1.8       C160.2,249.8,158.5,249.7,156.9,249.7"/>
				</g>
			</g>
			<g>
				<path fill="#FFFFFF" d="M149.6,59c0,9.9-8,17.8-17.8,17.8c-9.9,0-17.8-8-17.8-17.8c0-9.9,8-17.8,17.8-17.8      C141.6,41.2,149.6,49.2,149.6,59"/>
				<path fill-rule="evenodd" clip-rule="evenodd" fill="#D19C24" d="M123.6,59.1c-0.2-0.1-0.3-0.2-0.5-0.4c0.1-0.2,0.2-0.4,0.2-0.6      c0.1-0.2,0.4-0.4,0.1-0.7c0,0,0.2-0.3,0.4-0.4c0.2-0.1,0.5-0.2,0.7-0.3c-0.1-0.2-0.1-0.3-0.2-0.4c-0.1,0.1-0.2,0.1-0.3,0.2      c-0.2-0.1-0.3-0.2-0.5-0.4c0-0.1,0.1-0.3,0.2-0.4c0.1-0.3,0.5-0.5,0.2-0.9c0,0,0.2-0.3,0.4-0.4c0.3-0.1,0.6-0.2,0.6-0.6      c0-0.1,0.1-0.1,0.1-0.2c0.1-0.1,0.1-0.2,0.2-0.3c-0.1-0.1-0.2-0.1-0.4-0.2c0-0.1,0-0.2,0.1-0.3c0.1-0.4,0.5-0.6,0.3-1.1      c0,0,0.1-0.1,0.1-0.2c0.8-0.3,0.9-1.3,1.5-1.8c0.2-0.1,0.1-0.5,0.3-0.7c0.1-0.2,0.2-0.4,0.4-0.5c0.4-0.1,0.7-0.3,0.5-0.8      c0.3,0,0.5-0.1,0.7,0c0.8,0.1,1-0.1,1.2-0.8c0-0.1,0.1-0.1,0-0.1c0.3-0.1,0.6-0.1,0.9-0.2c0.2,0,0.4,0,0.6,0.1      c0.4,0.2,0.8,0.4,1.3,0.5c0.4,0.1,0.9,0,1.3-0.1c0.4-0.1,0.8,0.1,0.9,0.5c0,0.1,0.1,0.3,0.3,0.3c0.6,0.4,0.9,1.1,0.8,1.8      c0,0.1-0.1,0.3-0.1,0.4c0.1,0,0.1,0.1,0.1,0.1c1-0.4,1.5,0.4,1.9,1c0.3,0.4,0.3,0.9,0.5,1.3c0,0,0,0.1,0,0.1      c-0.5,0.3,0,0.7,0,1.1c0,0.1,0.2,0.2,0.4,0.3c0.3,0.2,0.5,0.3,0.4,0.8c-0.1,0.4,0,0.9,0.1,1.4c-0.2-0.1-0.3-0.1-0.5-0.2      c0,0.1-0.1,0.2-0.1,0.3c0.2,0.4,0.4,0.7,0.6,1.1c0.2,0.4,0.5,0.7,0.7,1c-0.3,0.2-0.5,0.3-0.7,0.5c0.1,0.1,0.2,0.3,0.2,0.4      c0,0.2,0,0.4,0,0.5c-0.2,0.4-0.6,0.6-1.1,0.8c-0.2,0.1-0.5,0.3-0.6,0.4c-0.2-0.2-0.3-0.4-0.5-0.5c-0.1,0-0.1,0.1-0.2,0.1      c0.2,0.3,0.3,0.7,0.5,1c0.3,0.5-0.1,0.7-0.3,1c-0.1,0.2-0.3,0.3-0.5,0.4c-0.4,0.2-0.7,0.3-1,0.4c-0.2-0.1-0.3-0.3-0.5-0.4      c-0.1,0.1-0.2,0.3-0.3,0.5c-0.3-0.1-0.7-0.2-1.1-0.3c0,0,0,0.1,0,0.1c-0.2-0.1-0.4-0.2-0.6-0.4c0.2-0.3,0.4-0.7,0.6-1.1      c-0.6-0.1-1.1,0.3-1.1,0.9c0,2.6,0,5.3,0,7.9c0,0.2,0,0.4,0,0.6h-1.5c0-1,0-1.9,0-2.8c0-1,0.2-2.1,0-3c-0.1-0.7-0.8-1.3-1.2-1.9      c0,0-0.2-0.1-0.3,0c-0.3,0.2-0.7,0.4-1,0.6c-0.2,0.1-0.4,0.2-0.5-0.1c-0.1-0.1-0.3-0.2-0.4-0.3c-0.1,0.1-0.1,0.3-0.3,0.5      c-0.5-0.1-1.1-0.3-1.8-0.4c0.1-0.3,0.2-0.5,0.3-0.8c0.1-0.2,0.4-0.4,0.1-0.7c0,0,0.3-0.4,0.4-0.5c-0.1-0.2-0.2-0.5-0.3-0.7      c-0.1-0.1-0.4-0.3-0.5-0.2c-0.5,0.4-1,0.2-1.6,0.1c-0.1,0-0.2,0-0.4-0.1c0.1-0.3,0.2-0.5,0.3-0.7c0.1-0.2,0.1-0.5,0.2-0.7      C124.2,59.1,123.9,59.1,123.6,59.1C123.7,59.1,123.7,59.1,123.6,59.1 M130.8,63.1c0.1,0,0.1,0,0.2,0c0.2-0.5,0.3-1,0.2-1.5      c0-0.2-0.2-0.4-0.3-0.6c-0.3,0.2-0.6,0.3-0.9,0.5c-0.1,0-0.1,0.2-0.1,0.3C130.2,62.2,130.5,62.6,130.8,63.1 M129.1,53.4      c0.5-0.4,0.7-1.1,0.5-1.5c-0.2-0.4-0.4-0.8-0.5-1.2c-0.1-0.4-0.4-0.3-0.6-0.2c0.2,0.4,0.4,0.8,0.6,1.2c0.1,0.2,0.4,0.4,0.1,0.7      c-0.2,0.1-0.3,0.4-0.5,0.6C128.8,53.1,128.9,53.3,129.1,53.4 M129.4,57.9c-0.1-0.2-0.2-0.3-0.4-0.4c-0.4-0.2-0.6-0.5-0.6-0.9      c0-0.4-0.2-0.5-0.6-0.3c0,0.7,0.2,1.4,0.8,1.9C128.9,58.1,129.1,58,129.4,57.9 M133.7,58.4c0,0-0.2,0.1-0.3,0.2      c-0.2,0.3-0.4,0.7-0.6,1c-0.3,0.5-0.3,1-0.3,1.6c0.7-0.3,0.7-0.3,0.4-1c0-0.1,0-0.1,0-0.2C133.2,59.5,133.4,58.9,133.7,58.4       M136.1,53.3c-0.1-0.1-0.2-0.2-0.4-0.3c-0.1-0.1-0.3-0.1-0.4-0.1c0,0.1-0.1,0.3,0,0.4c0.1,0.2,0.3,0.3,0.6,0.4      c0.2-0.3,0.4-0.6,0.6-0.9c-0.1,0-0.1-0.1-0.2-0.1C136.3,52.9,136.3,53,136.1,53.3 M134.9,55.6l-0.1-0.1      c-0.2,0.1-0.4,0.3-0.6,0.4c0.1,0,0.3,0.1,0.4,0.2c0.1,0,0.1,0.1,0.2,0.1c0.4,0,0.7-0.1,1.1-0.1c0,0,0,0,0.1-0.2      c-0.1-0.1-0.2-0.2-0.2-0.2c-0.4,0.1-0.7,0.2-1,0.4C134.9,55.8,134.9,55.7,134.9,55.6 M127.2,56.5c0.2,1.3,0.8,2.2,1,2      C127.9,57.9,127.6,57.3,127.2,56.5 M130.9,49.9c0,0,0,0.1,0,0.1c0.2,0,0.5,0,0.5-0.1c0.2-0.2,0.2-0.6,0.3-0.8c0,0-0.1,0-0.1,0      C131.4,49.3,131.1,49.6,130.9,49.9 M128.9,53.7c-0.5-0.6-0.9-0.6-1.2-0.2C128.1,53.5,128.4,53.6,128.9,53.7 M132,58.3      c0,0,0.1,0.1,0.1,0.1h0.6c0,0,0.1-0.1,0.1-0.1c-0.2-0.1-0.3-0.3-0.5-0.4C132.3,58,132.2,58.2,132,58.3 M132,55.4      c0.4-0.1,0.8-0.1,1.1-0.1c-0.2-0.1-0.5-0.2-0.7-0.3C132.1,54.8,131.9,55.1,132,55.4 M133.6,52.7h-0.5c0,0.2,0.2,0.3,0.2,0.3      c0.3-0.1,0.7-0.2,0.4-0.8C133.7,52.3,133.7,52.5,133.6,52.7 M131.4,55.8c0,0,0.1,0,0.1-0.1c-0.1-0.4-0.2-0.7-0.4-1.1      c-0.1,0-0.1,0-0.2,0.1c0.1,0.2,0.1,0.5,0.2,0.7C131.3,55.6,131.4,55.7,131.4,55.8"/>
			</g>
			<g>
				<path fill="#FFFFFF" d="M127.7,228.7c0,9.9-8,17.8-17.8,17.8c-9.9,0-17.8-8-17.8-17.8c0-9.9,8-17.8,17.8-17.8      C119.7,210.8,127.7,218.8,127.7,228.7"/>
				<path fill-rule="evenodd" clip-rule="evenodd" fill="#D19C24" d="M110.4,227.2c0-0.1,0.1-0.2,0.1-0.3c0.1-0.3,0.2-0.6,0.3-0.8      c0-0.1,0-0.1,0-0.2c0-0.4,0.2-0.7,0.3-1.1c0.1-0.4,0.2-0.8,0.3-1.3c0-0.2,0.1-0.4,0.1-0.5c0.1-0.3,0.2-0.6,0.2-0.9      c0.1-0.3,0.1-0.5,0.2-0.8c0.1-0.4,0.1-0.8,0.2-1.1c0.1-0.4,0.2-0.7,0.3-1c0-0.1,0.1-0.1,0.1-0.1c0.1,0,0.1,0,0.1,0.1      c0,0.1,0.1,0.2,0.1,0.3c0,0.3,0.1,0.5,0.1,0.8c0.1,0.5,0.2,1,0.3,1.6c0.1,0.4,0,0.7,0,1.1c0,0.4,0,0.8,0,1.2c0,0,0,0,0,0      c0.1,0.2,0,0.4,0,0.7c0,0.5,0,0.9,0,1.4c0,0.2,0.1,0.4,0.1,0.6c0.3-0.3,0.6-0.5,0.8-0.8c0,0,0.1-0.1,0.1,0c0,0,0,0,0,0      c0-0.2,0.2-0.3,0.3-0.4c0-0.1,0.1-0.1,0.2-0.2c0-0.1,0.1-0.2,0.2-0.2c0.2-0.1,0.3-0.2,0.4-0.4c0,0,0,0,0,0      c0.3-0.1,0.4-0.4,0.7-0.7c0.1-0.3,0.4-0.5,0.7-0.7c0.2-0.3,0.5-0.4,0.7-0.7c0.1-0.1,0.2-0.1,0.2-0.1c0.1-0.1,0.3,0,0.3,0.2      c0,0.2,0,0.4-0.1,0.5c-0.2,0.3-0.5,0.6-0.7,1c-0.4,0.6-0.9,1.2-1.3,1.9c-0.3,0.4-0.5,0.8-0.8,1.2c-0.3,0.6-0.7,1.2-0.9,1.8      c-0.3,0.6-0.5,1.3-0.7,1.9c0,0.1-0.1,0.2-0.1,0.4c0.1-0.1,0.2-0.2,0.3-0.3c0.2-0.1,0.3-0.3,0.4-0.4c0.2-0.1,0.3-0.3,0.4-0.4      c0-0.1,0.1-0.1,0.1,0c0.1,0,0.2,0,0.2-0.1c0.1-0.2,0.2-0.2,0.4-0.4c0.2-0.2,0.5-0.4,0.7-0.6c0.1-0.1,0.2-0.2,0.3-0.4      c0-0.1,0.1-0.1,0.1,0c0.1,0.1,0.1,0,0.2,0c0.3-0.2,0.7-0.4,1-0.7c0,0,0,0,0,0c0.2,0,0.4-0.2,0.6-0.3c0.2-0.1,0.4-0.2,0.5-0.3      c0.3-0.1,0.6-0.3,0.9-0.4c0.3-0.1,0.6-0.2,0.8-0.2c0.1,0,0.2-0.1,0.2,0c0.1,0.1,0,0.2,0,0.3c-0.1,0.3-0.3,0.5-0.6,0.8      c-0.3,0.3-0.5,0.6-0.8,0.9c-0.2,0.3-0.4,0.7-0.7,1c-0.3,0.3-0.4,0.6-0.7,0.9c-0.1,0.1-0.1,0.3-0.2,0.4c-0.1,0.1-0.1,0.1-0.2,0.2      c-0.1,0.1-0.2,0.3-0.3,0.4c-0.1,0.2-0.2,0.3-0.3,0.5c-0.1,0.1-0.1,0.2-0.1,0.4c0,0.1-0.1,0.1-0.1,0.2c-0.1,0-0.2,0.1-0.2,0.2      c-0.2,0.3-0.4,0.5-0.5,0.8c-0.2,0.3-0.3,0.6-0.5,0.8c0,0,0,0.1,0,0.1c0,0.1-0.1,0.2-0.2,0.3c-0.2,0.1-0.3,0.3-0.4,0.5      c-0.2,0.3-0.4,0.6-0.5,0.9c-0.1,0.2-0.2,0.4-0.2,0.7c0,0.1,0,0.2-0.1,0.3c0,0.1-0.1,0.1-0.1,0.2c-0.2,0.1-0.3,0.2-0.4,0.4      c-0.3,0.4-0.4,0.8-0.7,1.2c-0.2,0.3-0.3,0.5-0.5,0.8c-0.1,0.2-0.4,0.3-0.6,0.3c-0.2,0-0.5,0-0.7,0.1c-0.1,0-0.2,0-0.2,0      c-0.1,0-0.2,0-0.3,0.1c-0.1,0.1-0.2,0.1-0.3,0.1c-0.1,0-0.2,0-0.3,0.1c-0.1,0-0.2,0.1-0.3,0c-0.1,0-0.1,0-0.2,0      c0,0.1-0.1,0.1-0.2,0.1c-0.1,0-0.2,0-0.3,0.1c0,0,0,0-0.1,0c-0.1,0-0.2,0-0.3,0c-0.2,0-0.5,0-0.7,0c-0.2,0-0.3,0-0.5,0      c-0.2-0.1-0.4-0.1-0.6-0.1c-0.1-0.1-0.3,0-0.5-0.1c-0.1-0.1-0.3-0.1-0.3-0.3c0,0,0,0-0.1,0c-0.1,0.1-0.2,0-0.3-0.1      c0,0-0.1-0.1-0.1-0.1c-0.1,0-0.1-0.1-0.1-0.2c-0.1-0.2-0.2-0.4-0.2-0.7c-0.1-0.2-0.1-0.3-0.1-0.5c0-0.1-0.1-0.3-0.1-0.4      c-0.1-0.3-0.1-0.6-0.2-0.9c-0.1-0.4-0.2-0.8-0.3-1.2c-0.1-0.5-0.3-1-0.5-1.6c-0.2-0.5-0.4-1-0.7-1.5c-0.3-0.6-0.6-1.1-1-1.7      c-0.3-0.5-0.6-1-1-1.5c-0.4-0.5-0.8-1.1-1.3-1.6c-0.2-0.3-0.5-0.6-0.7-0.9c-0.1-0.1-0.1-0.2-0.1-0.3c-0.1-0.2,0-0.3,0.1-0.4      c0.1-0.1,0.3-0.1,0.4,0c0.1,0.1,0.3,0.2,0.4,0.3c0.3,0.3,0.6,0.5,0.9,0.8c0.3,0.3,0.7,0.6,1,0.9c0.1,0.1,0.3,0.2,0.5,0.3      c0.1,0,0.1,0,0,0.1c-0.1,0.1,0,0.1,0,0.2c0.2,0.2,0.4,0.5,0.6,0.7c0.1,0.1,0.2,0.2,0.3,0.3c0.1,0.1,0.2,0.2,0.4,0.2      c0.1,0,0.1,0.1,0.1,0.1c0,0.1,0,0.1,0,0.1c0.3,0.3,0.5,0.7,0.8,1c0.1,0.1,0.2,0.2,0.4,0.2c0.1,0,0.1,0,0.1,0.1      c0,0.1,0,0.2,0.1,0.3c0.2,0.2,0.3,0.5,0.5,0.7c0,0.1,0.1,0.2,0.1,0.2c0,0,0,0,0,0c0,0,0,0,0-0.1c0-0.2,0.1-0.4,0.1-0.6      c0-0.4,0.1-0.9,0-1.3c0-0.8-0.1-1.5-0.3-2.3c-0.2-0.7-0.4-1.3-0.8-1.9c-0.3-0.4-0.5-0.9-0.8-1.3c-0.4-0.6-0.8-1.1-1.3-1.7      c-0.3-0.3-0.6-0.6-0.9-0.9c-0.3-0.3-0.6-0.6-0.9-1c-0.1-0.1-0.1-0.2-0.1-0.3c0-0.1,0.1-0.1,0.2-0.1c0.3,0.1,0.5,0.2,0.7,0.4      c0.3,0.3,0.7,0.5,1,0.7c0.4,0.3,0.7,0.6,1.1,0.9c0,0,0,0,0.1,0c0.2,0.1,0.3,0.2,0.4,0.4c0.1,0.2,0.3,0.3,0.4,0.4      c0.2,0.2,0.4,0.4,0.6,0.6c0.1,0.1,0.1,0.1,0.2,0.1c0,0,0.1,0,0.1,0.1c0.1,0.2,0.2,0.3,0.3,0.5c0.1,0.2,0.3,0.3,0.4,0.5      c0.1,0.1,0.2,0.2,0.3,0.3c0.1,0,0.1,0.1,0.2,0.2c0,0.1,0.1,0.2,0.1,0.3c0.1,0.2,0.2,0.3,0.3,0.5c0,0.1,0.1,0.1,0.1,0.2      c0.1,0.2,0.2,0.3,0.4,0.4c0.1,0,0.1,0,0.1-0.1c0-0.3,0.1-0.7,0.1-1c0-0.1,0-0.3,0.1-0.4c0-0.2,0-0.3,0-0.5c0-0.3,0.1-0.7,0.1-1      c0-0.3,0-0.5,0-0.8c0-0.3,0-0.6,0-0.9c0-0.2,0-0.3,0.1-0.5c0-0.1,0.1-0.2,0.2-0.3c0.1-0.1,0.1,0,0.2,0c0.1,0.1,0.2,0.3,0.3,0.5      c0.3,0.7,0.5,1.5,0.7,2.2c0,0.1,0.1,0.3,0.1,0.4c0.1,0.1,0,0.3,0,0.4C110.3,226.8,110.3,227,110.4,227.2"/>
			</g>
			<g>
				<path fill="#FFFFFF" d="M106.2,79.3c0,9.9-8,17.8-17.8,17.8c-9.9,0-17.8-8-17.8-17.8c0-9.9,8-17.8,17.8-17.8      C98.2,61.5,106.2,69.5,106.2,79.3"/>
				<path fill-rule="evenodd" clip-rule="evenodd" fill="#D19C24" d="M80.6,76.7c0.3,0,0.6-0.1,0.8,0c0.5,0.1,0.6,0,0.5-0.5      c-0.4-0.1-0.8-0.8-0.7-1.3c0.1-0.5,0.2-1.1,0.4-1.5c0.2-0.2,0.4-0.5,0.7-0.8c0.5,0.1,0.4-0.6,0.7-0.8c-0.1,0-0.2,0-0.3,0      c0,0,0-0.1-0.1-0.1c0.3-0.2,0.6-0.4,0.9-0.5c0.3-0.1,0.7-0.1,1.1-0.1c0-0.1,0-0.3-0.1-0.5h1c0-0.1,0.1-0.4,0.2-0.7      c0.1,0,0.3,0,0.4,0c0.2-0.3,0.3-0.5,0.5-0.8c0.2,0.2,0.3,0.3,0.4,0.4c0.1,0,0.1,0,0.2,0c-0.1-0.3-0.1-0.5-0.2-0.9      c0.2,0,0.3,0.1,0.5,0.1c0.1-0.4,0.3-0.4,0.6-0.3c0.2,0.1,0.6,0.1,0.7,0.3c0.2,0.1,0.1,0.4,0.2,0.6c0.1,0.3,0,0.4-0.2,0.5      c0,0,0,0.1,0,0.2c0.1,0,0.2,0,0.3,0c0.4-0.2,0.8-0.3,1.3-0.3c0.5,0,0.3,0.4,0.6,0.6c0.7-0.1,1.2,0.2,1.5,0.9      c0.1,0.1,0.3,0.3,0.3,0.4c0,0.2-0.1,0.5-0.2,0.7c0.2,0.1,0.6,0.2,1,0.4c0.1-0.1,0.2-0.3,0.4-0.4c-0.1-0.1-0.1-0.3-0.2-0.5      c0,0,0.1-0.1,0.1-0.1c0.1,0.1,0.2,0.1,0.3,0.2c0.2,0.2,0.3,0.4,0.4,0c0,0,0.3,0,0.4,0.1c0,0,0,0.1,0,0.1      c0.2-0.1,0.3-0.2,0.5-0.2c0,0.4-0.1,0.8-0.1,1.2c0,0,0.1,0,0.1,0c0.1,0.3,0.2,0.6,0.3,1c0,0,0,0.1,0,0.1c-0.7,0.3-0.1,0.7-0.1,1      c-0.2,0.3-0.3,0.6-0.5,0.9c0.5,0,0.9,0,1-0.7c0.6,0.5,1,1,1.6,1.5c-0.2,0.1-0.3,0.1-0.3,0.1c-0.2,0.1-0.4,0.1-0.6,0.2      c0.2,0.1,0.3,0.2,0.5,0.3c0.2,0.1,0.4,0.3,0.6,0.4c-0.2,0.9-0.2,0.9-0.8,1c0.1,0.3,0.3,0.5,0.3,0.8c0,0.3-0.1,0.6-0.1,0.8      c0.3,0.3,0.8,0.2,0.9,0.8c0,0.3,0.4,0.5,0.7,0.8c0.2,0.3,0.3,0.6,0.2,0.9c-0.2,0.6-0.4,1.2-0.6,1.8c-0.2,0.4-0.5,0.7-0.9,0.8      c-0.5,0.1-1,0.4-1.5,0.5c-0.1,0-0.3,0.1-0.4,0c-0.5-0.2-0.9-0.5-1.4-0.7c-0.2-0.1-0.4-0.2-0.7-0.4c-0.2-0.4-0.8-0.5-1.3-0.2      c-0.2,0.1-0.5,0.2-0.7,0.2c-0.4-0.2-0.6-0.1-0.9,0.2c-0.3,0.3-0.6,0.6-0.9,0.9c-0.6,0.6-0.9,1.4-0.8,2.3c0.1,1.1,0,2.3,0,3.4      c0,0.3,0.2,0.6,0.3,0.9h-1.8c0.2-0.3,0.5-0.7,0.6-1.2c0.1-0.6,0.1-1.2,0.1-1.7c0-0.8,0-1.5,0-2.3c0-0.2-0.1-0.4-0.2-0.6      c-0.2-0.4-0.5-0.8-0.9-1.2c-0.1,0.1-0.2,0.3-0.3,0.4c-0.3,0.5-0.8,0.6-1.3,0.3c-0.1-0.1-0.2-0.1-0.3-0.2      c-0.3-0.2-0.5-0.2-0.6,0.2c0,0.1-0.2,0.3-0.4,0.4c-0.1,0.3-0.6,0.8-1.1,0.8c-0.2,0-0.3,0.1-0.5,0.2c0,0.1,0,0.1,0,0.2      c-0.1,0-0.2,0-0.2-0.1c-0.2-0.3-0.3-0.6-0.7-0.7c0,0-0.1-0.2-0.1-0.2c0.2-0.4,0-0.7-0.3-0.8c-0.4-0.2-0.7-0.1-1,0.3      c0,0,0,0-0.1,0c0-0.4-0.3-0.4-0.6-0.6c-0.4-0.2-0.7-0.6-1.1-0.9c-0.1-0.1-0.2-0.2-0.2-0.2c-0.6-0.2-1-0.8-0.8-1.4      c0-0.1,0.1-0.2,0.1-0.3c-0.5-0.6-0.5-1,0-1.6c0,0,0,0,0,0c0.1-0.8,0.6-1.6,0.3-2.4c-0.2-0.6,0-1.1,0.5-1.4      c0.1,0,0.1-0.1,0.1-0.2c0-0.1,0-0.2,0.1-0.2C79.4,76.2,80.2,76.3,80.6,76.7"/>
			</g>
			<g>
				<path fill-rule="evenodd" clip-rule="evenodd" fill="#D19C24" d="M234.4,119.5c1.1,0.6,1.8,1.6,2.4,2.6c0.8,1.6,1.1,3.3,1.1,5      c0,0.2,0,0.3-0.3,0.3c-0.2,0-0.4,0-0.7,0c-0.3,0-0.4-0.1-0.4-0.4c0.1-2-0.3-3.9-1.1-5.7C235.2,120.7,234.8,120.1,234.4,119.5      C234.4,119.5,234.4,119.5,234.4,119.5"/>
				<path fill-rule="evenodd" clip-rule="evenodd" fill="#D19C24" d="M233.4,122.3c0.2-0.1,0.2,0,0.3,0.1c1.7,1.1,2.5,2.7,2.7,4.7      c0,0.2,0,0.3-0.3,0.3c-0.4,0-0.8,0.1-1.1-0.1c-0.2-0.2-0.1-0.7-0.1-1c-0.2-1.4-0.6-2.7-1.4-3.8      C233.5,122.5,233.4,122.4,233.4,122.3"/>
				<path fill-rule="evenodd" clip-rule="evenodd" fill="#D19C24" d="M239.3,121.8c-0.5,0.9-0.9,1.8-1.1,2.8      c-0.1-0.5-0.2-0.9-0.3-1.3c0,0,0-0.1,0.1-0.1C238.3,122.7,238.8,122.3,239.3,121.8"/>
				<g>
					<path fill="#FFFFFF" d="M262.1,129.7c0,9.9-8,17.8-17.8,17.8c-9.9,0-17.8-8-17.8-17.8c0-9.9,8-17.8,17.8-17.8       C254.1,111.9,262.1,119.8,262.1,129.7"/>
					<g>
						<defs>
							<path id="SVGID_1_" d="M225.9,129.7c0,9.9,8,17.8,17.8,17.8c9.9,0,17.8-8,17.8-17.8c0-9.9-8-17.8-17.8-17.8         C233.9,111.9,225.9,119.8,225.9,129.7"/>
						</defs>
						<clipPath id="SVGID_2_">
							<use xlink:href="#SVGID_1_" overflow="visible"/>
						</clipPath>
						<path clip-path="url(#SVGID_2_)" fill-rule="evenodd" clip-rule="evenodd" fill="#D19C24" d="M226.2,126        c0,0,36.3-2.4,19.1,7.7c-17.2,10.2,6.5,11.8,6.5,11.8S221.4,159.3,226.2,126"/>
					</g>
					<path fill-rule="evenodd" clip-rule="evenodd" fill="#D19C24" d="M241.2,122.3c-0.5,0.8-0.9,1.6-1.1,2.4       c-0.3,0.8-0.4,1.7-0.3,2.5c0,0.2,0,0.3-0.2,0.2c-0.2,0-0.3,0-0.5,0c-0.5,0-0.6,0-0.5-0.5c0.1-1.7,0.8-3.2,2.2-4.4       C240.9,122.4,241,122.3,241.2,122.3"/>
					<path fill-rule="evenodd" clip-rule="evenodd" fill="#D19C24" d="M238.4,116.5c1.4,0.9,2.4,2.1,3.2,3.6       c1.1,2.1,1.5,4.4,1.5,6.8c0,0.3,0,0.4-0.4,0.4c-0.3,0-0.6,0-0.9,0c-0.4,0.1-0.5-0.1-0.5-0.5c0.1-2.7-0.4-5.3-1.5-7.8       C239.4,118.2,238.8,117.4,238.4,116.5C238.3,116.6,238.3,116.6,238.4,116.5"/>
					<path fill-rule="evenodd" clip-rule="evenodd" fill="#D19C24" d="M236.9,120.4c0.2-0.1,0.3,0.1,0.5,0.1       c2.3,1.5,3.3,3.7,3.6,6.3c0,0.3,0,0.4-0.4,0.4c-0.5,0-1.1,0.1-1.5-0.1c-0.3-0.2-0.1-0.9-0.2-1.4c-0.2-1.9-0.8-3.6-1.9-5.2       C237.1,120.6,237,120.5,236.9,120.4"/>
					<path fill-rule="evenodd" clip-rule="evenodd" fill="#D19C24" d="M247.6,120.4c-0.6,1.1-1.2,2.1-1.5,3.2       c-0.3,1.1-0.6,2.3-0.4,3.5c0,0.2,0,0.3-0.3,0.3c-0.2,0-0.5,0-0.7,0c-0.7,0-0.7,0-0.7-0.7c0.2-2.4,1.1-4.4,3-5.9       C247.1,120.6,247.2,120.4,247.6,120.4"/>
					<path fill-rule="evenodd" clip-rule="evenodd" fill="#D19C24" d="M244.9,119.7c-0.7,1.2-1.2,2.4-1.5,3.7       c-0.2-0.6-0.3-1.2-0.4-1.7c0,0,0-0.1,0.1-0.2C243.6,120.9,244.2,120.3,244.9,119.7"/>
				</g>
			</g>
			<g>
				<path fill-rule="evenodd" clip-rule="evenodd" fill="#08B900" d="M228.8,184.2c0.3,0.2,0.6,0.5,0.7,0.8c0.3,0.5,0.3,1,0.3,1.6      c0,0.1,0,0.1-0.1,0.1c-0.1,0-0.1,0-0.2,0c-0.1,0-0.1,0-0.1-0.1c0-0.6-0.1-1.2-0.4-1.8C229.1,184.6,228.9,184.4,228.8,184.2      C228.8,184.2,228.8,184.2,228.8,184.2"/>
				<path fill-rule="evenodd" clip-rule="evenodd" fill="#08B900" d="M228.5,185.1c0,0,0.1,0,0.1,0c0.5,0.3,0.8,0.8,0.8,1.4      c0,0.1,0,0.1-0.1,0.1c-0.1,0-0.3,0-0.3,0c-0.1-0.1,0-0.2,0-0.3C228.9,185.9,228.8,185.5,228.5,185.1      C228.5,185.2,228.5,185.2,228.5,185.1"/>
				<path fill-rule="evenodd" clip-rule="evenodd" fill="#08B900" d="M227.4,185.1c-0.1,0.2-0.3,0.5-0.3,0.7      c-0.1,0.3-0.1,0.5-0.1,0.8c0,0.1,0,0.1-0.1,0.1c-0.1,0-0.1,0-0.2,0c-0.2,0-0.2,0-0.2-0.2c0-0.5,0.2-1,0.7-1.4      C227.3,185.2,227.3,185.1,227.4,185.1"/>
				<path fill-rule="evenodd" clip-rule="evenodd" fill="#08B900" d="M226.8,184.9c-0.2,0.3-0.3,0.5-0.4,0.9c0-0.1-0.1-0.3-0.1-0.4      c0,0,0,0,0,0C226.5,185.2,226.7,185.1,226.8,184.9"/>
				<g>
					<path fill-rule="evenodd" clip-rule="evenodd" fill="#08B900" d="M246.6,185.1c0,0,0.1,0,0.1,0c0.5,0.3,0.8,0.8,0.8,1.4       c0,0.1,0,0.1-0.1,0.1c-0.1,0-0.3,0-0.3,0c-0.1-0.1,0-0.2,0-0.3C247.1,185.9,246.9,185.5,246.6,185.1       C246.7,185.2,246.7,185.2,246.6,185.1"/>
					<g>
						<path fill="#FFFFFF" d="M253.3,178.8c0,9.9-8,17.8-17.8,17.8c-9.9,0-17.8-8-17.8-17.8c0-9.9,8-17.8,17.8-17.8        C245.3,161,253.3,169,253.3,178.8"/>
						<path fill="#FFFFFF" d="M253.4,178.8c0,9.9-8,17.8-17.8,17.8c-9.9,0-17.8-8-17.8-17.8c0-9.9,8-17.8,17.8-17.8        C245.4,161,253.4,169,253.4,178.8"/>
						<g>
							<defs>
								<path id="SVGID_3_" d="M216.5,186.2c-0.4,0-0.7,0.3-0.7,0.7v24.2c0,0.4,0.3,0.7,0.7,0.7h40.9c0.4,0,0.7-0.3,0.7-0.7v-24.2          c0-0.4-0.3-0.7-0.7-0.7H216.5z"/>
							</defs>
							<clipPath id="SVGID_4_">
								<use xlink:href="#SVGID_3_" overflow="visible"/>
							</clipPath>
							<path clip-path="url(#SVGID_4_)" fill="#08B900" d="M253.5,178.9c0,9.9-8,17.8-17.8,17.8c-9.9,0-17.8-8-17.8-17.8         c0-9.9,8-17.8,17.8-17.8C245.5,161.1,253.5,169.1,253.5,178.9"/>
						</g>
						<path fill-rule="evenodd" clip-rule="evenodd" fill="#08B900" d="M241.9,183.6c0.5,0.3,0.9,0.7,1.1,1.3        c0.4,0.8,0.5,1.6,0.5,2.4c0,0.1,0,0.1-0.1,0.1c-0.1,0-0.2,0-0.3,0c-0.1,0-0.2,0-0.2-0.2c0-1-0.1-1.9-0.5-2.7        C242.3,184.1,242.1,183.9,241.9,183.6C241.9,183.6,241.9,183.6,241.9,183.6"/>
						<path fill-rule="evenodd" clip-rule="evenodd" fill="#08B900" d="M241.4,184.9c0.1,0,0.1,0,0.2,0.1c0.8,0.5,1.2,1.3,1.3,2.2        c0,0.1,0,0.2-0.1,0.1c-0.2,0-0.4,0.1-0.5,0c-0.1-0.1,0-0.3-0.1-0.5c-0.1-0.7-0.3-1.3-0.7-1.8C241.5,185,241.4,185,241.4,184.9        "/>
						<path fill-rule="evenodd" clip-rule="evenodd" fill="#08B900" d="M245.1,184.9c-0.2,0.4-0.4,0.7-0.5,1.1        c-0.1,0.4-0.2,0.8-0.2,1.2c0,0.1,0,0.1-0.1,0.1c-0.1,0-0.2,0-0.2,0c-0.3,0-0.3,0-0.2-0.3c0.1-0.8,0.4-1.5,1-2.1        C245,185,245,184.9,245.1,184.9"/>
						<path fill-rule="evenodd" clip-rule="evenodd" fill="#08B900" d="M244.2,184.7c-0.3,0.4-0.4,0.8-0.5,1.3        c-0.1-0.2-0.1-0.4-0.2-0.6c0,0,0,0,0-0.1C243.8,185.1,244,184.9,244.2,184.7"/>
						<path fill-rule="evenodd" clip-rule="evenodd" fill="#08B900" d="M230.9,185.1c-0.1,0.2-0.3,0.5-0.3,0.7        c-0.1,0.3-0.1,0.5-0.1,0.8c0,0.1,0,0.1-0.1,0.1c-0.1,0-0.1,0-0.2,0c-0.2,0-0.2,0-0.2-0.2c0-0.5,0.2-1,0.7-1.4        C230.8,185.2,230.9,185.1,230.9,185.1"/>
						<path fill-rule="evenodd" clip-rule="evenodd" fill="#08B900" d="M230.3,184.9c-0.2,0.3-0.3,0.5-0.4,0.9        c0-0.1-0.1-0.3-0.1-0.4c0,0,0,0,0,0C230,185.2,230.2,185.1,230.3,184.9"/>
						<path fill="#08B900" d="M225.2,174c-0.2-0.4-0.4-0.8-0.3-1.2c0-0.1,0.2-0.6,0.1-0.7c-0.2-0.1-0.2,0.3-0.3,0.4        c-0.1,0.4-0.4,0.8-0.3,1.2c0.1,0.4,0.3,0.9,0.7,0.9c-0.1,0.1-0.7,0.4-0.5,0.6c0.1,0.1,0.2,0.3,0.3,0.4c0.1,0,0.4,0,0.4,0.1        c0.1,0.5,0.3,1.4,0.1,2c-0.1,0.3-0.1,0.6,0,0.9c0,0.1,0.6,0.4,0.7,0.5c0.7,0.2,1.2,0,1.7-0.4c0,0.2,0.1,0.6,0.2,0.7        c0.2,0.2,0.5,0.3,0.7,0.5c0.4,0.4,0.9,0.7,1.4,1.1c0.2,0.2,0.5,0.4,0.5,0.7c0.1,0.4,0.5,0.1,0.7,0.3c0.1,0.1,0,0.7,0,0.8        c0,0.3-0.1,0.6-0.1,0.9c0,0.3,0.1,0.6,0,0.9c0,0.3-0.2,0.5-0.2,0.8c0,0.2-0.1,0.7,0,0.8c0.2,0.3,0.5,0.2,0.9,0.2        c0.7,0,0.5-2.7,0.5-3.2c0.2,0.8,0.6,1.6,0.5,2.4c-0.1,0.3-0.4,0.8-0.1,1.1c0.1,0.1,0.4,0.1,0.6,0.1c0.3-0.1,0.3-0.2,0.3-0.5        c0.1-0.2,0.1-1,0.2-1.1c0.3-0.2,0.7-0.4,0.8-0.8c0.2-0.9,0-1.7-0.1-2.6c0.7,0,1.3,0.1,2,0.2c0.7,0.1,1.4,0.1,2,0.1        c0.2,0,0.9,0.1,1,0c0.3-0.3,0.5-0.5,0.8-0.7c0.2-0.2,0.5-0.5,0.7-0.6c0.4-0.2,0.7,0.3,0.9,0.5c0.5,0.4,0.8,1.1,1.1,1.6        c0.3,0.6,0.7,1.2,0.8,1.8c0.1,0.3,0,0.7,0,1c0,0.3-0.2,0.7-0.1,1.1c0.1,0.3,0.6,0.1,0.8,0c0.3-0.2,0.2-0.6,0.2-1        c0.1-0.9,0.1-1.7,0.3-2.6c0.1-0.4-0.2-0.7-0.2-1.1c0-0.5,0-0.9,0-1.4c0.1-0.9,0.4-1.8,0.4-2.7c0-0.5,0-1,0-1.6        c0-0.5-0.4-0.7-0.8-0.8c0.7,0,1.3,0,1.5,0.8c0.1,0.3,0.1,0.6,0.1,0.9c0,0.1,0,0.3,0.2,0.3c0.3-0.1,0.2-0.1,0.3-0.4        c0.2-0.7-0.2-1.3-0.6-1.8c-0.5-0.5-1.3-0.4-1.9-0.6c-2.6-1-5.5-1.7-8.3-2.2c-1-0.2-1.9-0.5-3-0.5c-1.1,0-2.2,0-3.3,0.4        c-0.2,0.1-0.4,0.3-0.6,0.3c-0.3,0.1-0.6-0.1-0.8-0.2c-0.5-0.2-0.9-0.3-1.4-0.3c-0.3,0-0.5,0-0.7,0.1c-0.3,0.1-0.3,0.4-0.5,0.6        C225.7,173,225.2,174,225.2,174"/>
					</g>
				</g>
			</g>
			<g>
				<g>
					<path fill="#FFFFFF" d="M197,58.9c0,9.9-8,17.8-17.8,17.8c-9.9,0-17.8-8-17.8-17.8c0-9.9,8-17.8,17.8-17.8       C189,41,197,49,197,58.9"/>
					<g>
						<defs>
							<path id="SVGID_5_" d="M178.2,46.5c-1.6,1.1-1.8,3.7-0.4,5.7c1.4,2,3.8,2.7,5.5,1.6c1.6-1.1,1.8-3.7,0.4-5.7         c-0.9-1.4-2.4-2.1-3.7-2.1C179.3,46,178.7,46.1,178.2,46.5"/>
						</defs>
						<clipPath id="SVGID_6_">
							<use xlink:href="#SVGID_5_" overflow="visible"/>
						</clipPath>
						<path clip-path="url(#SVGID_6_)" fill-rule="evenodd" clip-rule="evenodd" fill="#D19C24" d="M179.6,50.9        c1.4,2,1.2,4.5-0.4,5.7c-1.6,1.1-4.1,0.4-5.5-1.6c-1.4-2-1.2-4.5,0.4-5.7C175.7,48.2,178.2,48.9,179.6,50.9"/>
					</g>
					<g>
						<defs>
							<path id="SVGID_7_" d="M180.8,50c-1.4,2-1.2,4.5,0.4,5.7c1.6,1.1,4.1,0.4,5.5-1.6c1.4-2,1.2-4.5-0.4-5.7         c-0.5-0.4-1.1-0.5-1.8-0.5C183.2,47.9,181.8,48.7,180.8,50"/>
						</defs>
						<clipPath id="SVGID_8_">
							<use xlink:href="#SVGID_7_" overflow="visible"/>
						</clipPath>
						<path clip-path="url(#SVGID_8_)" fill-rule="evenodd" clip-rule="evenodd" fill="#D19C24" d="M184.9,52.9        c-1.4,2-1.2,4.5,0.4,5.7c1.6,1.1,4.1,0.4,5.5-1.6c1.4-2,1.2-4.5-0.4-5.7C188.8,50.2,186.3,50.9,184.9,52.9"/>
					</g>
					<g>
						<defs>
							<path id="SVGID_9_" d="M175.7,48.8c-0.8,2.3,0,4.7,1.9,5.4c1.9,0.7,4-0.7,4.8-3c0.8-2.3,0-4.7-1.9-5.4         c-0.3-0.1-0.6-0.2-1-0.2C177.9,45.7,176.3,46.9,175.7,48.8"/>
						</defs>
						<clipPath id="SVGID_10_">
							<use xlink:href="#SVGID_9_" overflow="visible"/>
						</clipPath>
						<path clip-path="url(#SVGID_10_)" fill-rule="evenodd" clip-rule="evenodd" fill="#D19C24" d="M180.4,50.5        c-0.8,2.3,0,4.7,1.9,5.4c1.9,0.7,4-0.7,4.8-3c0.8-2.3,0-4.7-1.9-5.4C183.3,46.8,181.2,48.2,180.4,50.5"/>
					</g>
					<g>
						<defs>
							<path id="SVGID_11_" d="M171.9,50c-2.3,0.9-3.5,3.1-2.8,5c0.7,1.8,3.2,2.6,5.4,1.7c2.3-0.9,3.5-3.1,2.8-5         c-0.5-1.3-1.9-2.1-3.5-2.1C173.2,49.6,172.5,49.7,171.9,50"/>
						</defs>
						<clipPath id="SVGID_12_">
							<use xlink:href="#SVGID_11_" overflow="visible"/>
						</clipPath>
						<path clip-path="url(#SVGID_12_)" fill-rule="evenodd" clip-rule="evenodd" fill="#D19C24" d="M173.7,54.6        c-2.3,0.9-3.5,3.1-2.8,5c0.7,1.8,3.2,2.6,5.4,1.7c2.3-0.9,3.5-3.1,2.8-5C178.4,54.4,176,53.7,173.7,54.6"/>
					</g>
					<g>
						<defs>
							<path id="SVGID_13_" d="M179.5,47.3c-2,1.4-2.7,3.8-1.6,5.5c1.1,1.6,3.7,1.8,5.7,0.4c2-1.4,2.7-3.8,1.6-5.5         c-0.6-0.9-1.7-1.4-2.8-1.4C181.5,46.4,180.4,46.7,179.5,47.3"/>
						</defs>
						<clipPath id="SVGID_14_">
							<use xlink:href="#SVGID_13_" overflow="visible"/>
						</clipPath>
						<path clip-path="url(#SVGID_14_)" fill-rule="evenodd" clip-rule="evenodd" fill="#D19C24" d="M182.4,51.4        c-2,1.4-2.7,3.8-1.6,5.5c1.1,1.6,3.7,1.8,5.7,0.4c2-1.4,2.7-3.8,1.6-5.5C186.9,50.2,184.4,50,182.4,51.4"/>
					</g>
					<g>
						<defs>
							<path id="SVGID_15_" d="M176.6,52.4c-1.6,1.1-1.8,3.7-0.4,5.7c1.4,2,3.8,2.7,5.5,1.6c1.6-1.1,1.8-3.7,0.4-5.7         c-0.9-1.4-2.4-2.1-3.7-2.1C177.8,51.9,177.2,52.1,176.6,52.4"/>
						</defs>
						<clipPath id="SVGID_16_">
							<use xlink:href="#SVGID_15_" overflow="visible"/>
						</clipPath>
						<path clip-path="url(#SVGID_16_)" fill-rule="evenodd" clip-rule="evenodd" fill="#D19C24" d="M178,56.9        c1.4,2,1.2,4.5-0.4,5.7c-1.6,1.1-4.1,0.4-5.5-1.6c-1.4-2-1.2-4.5,0.4-5.7C174.2,54.2,176.6,54.9,178,56.9"/>
					</g>
					<g>
						<defs>
							<path id="SVGID_17_" d="M175.2,53.6c-1.4,2-1.2,4.5,0.4,5.7c1.6,1.1,4.1,0.4,5.5-1.6c1.4-2,1.2-4.5-0.4-5.7         c-0.5-0.4-1.1-0.5-1.8-0.5C177.6,51.4,176.2,52.2,175.2,53.6"/>
						</defs>
						<clipPath id="SVGID_18_">
							<use xlink:href="#SVGID_17_" overflow="visible"/>
						</clipPath>
						<path clip-path="url(#SVGID_18_)" fill-rule="evenodd" clip-rule="evenodd" fill="#D19C24" d="M179.3,56.4        c-1.4,2-1.2,4.5,0.4,5.7c1.6,1.1,4.1,0.4,5.5-1.6c1.4-2,1.2-4.5-0.4-5.7C183.2,53.7,180.7,54.4,179.3,56.4"/>
					</g>
					<g>
						<defs>
							<path id="SVGID_19_" d="M179.3,51.7c-2.3,0.9-3.5,3.1-2.8,5c0.7,1.8,3.2,2.6,5.4,1.7c2.3-0.9,3.5-3.1,2.8-5         c-0.5-1.3-1.9-2.1-3.5-2.1C180.6,51.3,179.9,51.4,179.3,51.7"/>
						</defs>
						<clipPath id="SVGID_20_">
							<use xlink:href="#SVGID_19_" overflow="visible"/>
						</clipPath>
						<path clip-path="url(#SVGID_20_)" fill-rule="evenodd" clip-rule="evenodd" fill="#D19C24" d="M181.1,56.3        c-2.3,0.9-3.5,3.1-2.8,5c0.7,1.8,3.2,2.6,5.4,1.7c2.3-0.9,3.5-3.1,2.8-5C185.8,56.1,183.4,55.4,181.1,56.3"/>
					</g>
					<g>
						<defs>
							<path id="SVGID_21_" d="M184.7,48.2c-2.3,0.9-3.5,3.1-2.8,5c0.7,1.8,3.2,2.6,5.4,1.7c2.3-0.9,3.5-3.1,2.8-5         c-0.5-1.3-1.9-2.1-3.5-2.1C186.1,47.8,185.4,47.9,184.7,48.2"/>
						</defs>
						<clipPath id="SVGID_22_">
							<use xlink:href="#SVGID_21_" overflow="visible"/>
						</clipPath>
						<path clip-path="url(#SVGID_22_)" fill-rule="evenodd" clip-rule="evenodd" fill="#D19C24" d="M186.6,52.8        c-2.3,0.9-3.5,3.1-2.8,5c0.7,1.8,3.2,2.6,5.4,1.7c2.3-0.9,3.5-3.1,2.8-5C191.3,52.6,188.9,51.9,186.6,52.8"/>
					</g>
					<path fill="#D19C24" d="M178.7,58.7c-0.1,0.9-0.2,1.9-0.3,2.8c0,0.5,0.7,0.5,0.7,0c0.1-0.9,0.2-1.9,0.3-2.8       C179.5,58.2,178.8,58.2,178.7,58.7"/>
					<path fill="#D19C24" d="M179.1,61.9c2.6-2,4.1-5,6.1-7.7c0.3-0.4-0.3-0.7-0.6-0.4c-1.9,2.6-3.4,5.5-5.9,7.5       C178.2,61.7,178.7,62.2,179.1,61.9"/>
					<path fill="#D19C24" d="M179.8,52.8c0,1.6,0.1,3.3,0,4.9c0,1,0,2.6-0.8,3.4c-0.3,0.3,0.2,0.8,0.5,0.5c0.8-0.8,0.9-2.1,1-3.2       c0.1-1.9,0.1-3.8,0.1-5.7C180.5,52.3,179.8,52.3,179.8,52.8"/>
					<path fill="#D19C24" d="M173.2,53.1c1.4,3.2,2.9,6.4,5.4,9l0.5-0.5c-2.4-2.3-4.9-4.6-7.2-6.9c-0.3-0.3-0.8,0.2-0.5,0.5       c2.4,2.3,4.9,4.6,7.2,6.9c0.3,0.3,0.8-0.2,0.5-0.5c-2.4-2.5-3.9-5.7-5.3-8.8C173.6,52.3,173,52.6,173.2,53.1"/>
					<path fill="#D19C24" d="M178.4,61.7c0.2,2.9-0.2,5.8-0.2,8.7c0,0.5,0.7,0.5,0.7,0c0.1-2.9,0.4-5.8,0.2-8.7       C179.1,61.2,178.4,61.2,178.4,61.7"/>
					<path fill="#D19C24" d="M175.6,71.4c0.1-2.2,1.2-5.6,3.4-6.6c-0.1-0.1-0.3-0.1-0.4-0.2c1.3,2,3.2,4.6,2.6,7.1       c-0.1,0.5,0.6,0.7,0.7,0.2c0.6-2.7-1.3-5.5-2.7-7.6c-0.1-0.1-0.3-0.2-0.4-0.2c-2.6,1.1-3.8,4.7-4,7.3       C174.9,71.8,175.6,71.8,175.6,71.4"/>
					<path fill="#D19C24" d="M178.6,64.8c0.1,2.1,1.2,4,1.4,6.1c0,0.5,0.8,0.5,0.7,0c-0.2-2.1-1.3-4-1.4-6.1       C179.3,64.4,178.6,64.4,178.6,64.8"/>
				</g>
				<g>
					<g>
						<defs>
							<path id="SVGID_23_" d="M170.7,49.3c-1.6,1.1-1.8,3.7-0.4,5.7c1.4,2,3.8,2.7,5.5,1.6c1.6-1.1,1.8-3.7,0.4-5.7         c-0.9-1.4-2.4-2.1-3.7-2.1C171.8,48.8,171.2,48.9,170.7,49.3"/>
						</defs>
						<clipPath id="SVGID_24_">
							<use xlink:href="#SVGID_23_" overflow="visible"/>
						</clipPath>
						<path clip-path="url(#SVGID_24_)" fill-rule="evenodd" clip-rule="evenodd" fill="#D19C24" d="M172.1,53.7        c1.4,2,1.2,4.5-0.4,5.7c-1.6,1.1-4.1,0.4-5.5-1.6c-1.4-2-1.2-4.5,0.4-5.7C168.2,51,170.7,51.7,172.1,53.7"/>
					</g>
					<g>
						<defs>
							<path id="SVGID_25_" d="M172.3,46.3c-1.6,1.1-1.8,3.7-0.4,5.7c1.4,2,3.8,2.7,5.5,1.6c1.6-1.1,1.8-3.7,0.4-5.7         c-0.9-1.4-2.4-2.1-3.7-2.1C173.4,45.7,172.8,45.9,172.3,46.3"/>
						</defs>
						<clipPath id="SVGID_26_">
							<use xlink:href="#SVGID_25_" overflow="visible"/>
						</clipPath>
						<path clip-path="url(#SVGID_26_)" fill-rule="evenodd" clip-rule="evenodd" fill="#D19C24" d="M173.6,50.7        c1.4,2,1.2,4.5-0.4,5.7c-1.6,1.1-4.1,0.4-5.5-1.6c-1.4-2-1.2-4.5,0.4-5.7C169.8,48,172.2,48.7,173.6,50.7"/>
					</g>
					<g>
						<defs>
							<path id="SVGID_27_" d="M171.6,48.2c-1.4,2-1.2,4.5,0.4,5.7c1.6,1.1,4.1,0.4,5.5-1.6c1.4-2,1.2-4.5-0.4-5.7         c-0.5-0.4-1.1-0.5-1.8-0.5C174,46.1,172.6,46.9,171.6,48.2"/>
						</defs>
						<clipPath id="SVGID_28_">
							<use xlink:href="#SVGID_27_" overflow="visible"/>
						</clipPath>
						<path clip-path="url(#SVGID_28_)" fill-rule="evenodd" clip-rule="evenodd" fill="#D19C24" d="M175.7,51.1        c-1.4,2-1.2,4.5,0.4,5.7c1.6,1.1,4.1,0.4,5.5-1.6c1.4-2,1.2-4.5-0.4-5.7C179.5,48.3,177.1,49,175.7,51.1"/>
					</g>
					<g>
						<defs>
							<path id="SVGID_29_" d="M169.5,50.6c-1.4,2-1.2,4.5,0.4,5.7c1.6,1.1,4.1,0.4,5.5-1.6c1.4-2,1.2-4.5-0.4-5.7         c-0.5-0.4-1.1-0.5-1.8-0.5C171.9,48.5,170.5,49.3,169.5,50.6"/>
						</defs>
						<clipPath id="SVGID_30_">
							<use xlink:href="#SVGID_29_" overflow="visible"/>
						</clipPath>
						<path clip-path="url(#SVGID_30_)" fill-rule="evenodd" clip-rule="evenodd" fill="#D19C24" d="M173.6,53.5        c-1.4,2-1.2,4.5,0.4,5.7c1.6,1.1,4.1,0.4,5.5-1.6c1.4-2,1.2-4.5-0.4-5.7C177.5,50.8,175,51.5,173.6,53.5"/>
					</g>
				</g>
			</g>
			<g>
				<path fill="#FFFFFF" d="M222.2,220.8c0,9.9-8,17.8-17.8,17.8c-9.9,0-17.8-8-17.8-17.8c0-9.9,8-17.8,17.8-17.8      C214.2,202.9,222.2,210.9,222.2,220.8"/>
				<g>
					<path fill-rule="evenodd" clip-rule="evenodd" fill="#D19C24" d="M209,217.9c0.1,0.1-0.3,0.4,0.1,0.3c0.3-0.1,0.4,0,0.6,0.2       c-0.1,0.2-0.3,0.2-0.4,0.2c0.1,0.1,0.2,0,0.3,0.1c0.3,0,0-0.2,0.2-0.3c0.2,0.1,0.4,0.2,0.4,0.4c0.1,0.2,0.2,0.2,0.3,0.1       c0.2-0.1,0.3,0,0.3,0.1c0,0.2,0.1,0.5-0.1,0.6l-0.1,0l-0.1,0c-0.1-0.1-0.1-0.2-0.2-0.3c0,0-0.1,0-0.1,0s0,0,0,0.1       c0,0.3-0.1,0.5-0.3,0.7c-0.2,0.2-0.5,0.1-0.7,0.3c0,0-0.1,0.1-0.1,0.1c-0.2,0.2-0.4,0.1-0.7,0.1c-0.1,0,0,0.1,0,0c0,0,0,0,0,0       c0.2,0,0.4-0.1,0.5,0.1c-0.2,0.2-0.8,0-0.7,0.4c0,0.3,0.6,0.1,0.9,0.2c0.4,0.1,0.8-0.3,1.2,0c-0.1,0.2-0.3,0.2-0.4,0.2       c-0.3,0.1-0.7,0.1-1,0.1c-0.1,0-0.1,0-0.2,0c-0.1,0-0.1,0.1,0,0c0-0.1,0.1,0.1,0.1,0c0.4,0,0.7,0.1,1.1,0c0.2,0,0.3,0,0.5,0       c0.2,0.1,0.4-0.1,0.5-0.1c0.2,0,0.4,0,0.7,0c0.1,0,0.1,0.1,0.1,0.1c0,0.2-0.1,0.4,0,0.6c0,0.2-0.1,0.2-0.2,0.3       c-0.1,0.1-0.2,0.2-0.3,0.3c0,0-0.1,0.1-0.1,0.1c-0.4,0.4-0.4,1-0.9,1.3c-0.1,0.1-0.1,0.2,0,0.3c-0.2,0.2-0.4,0.2-0.7,0.3       c-0.3-0.3-0.5,0.1-0.7,0.2c-0.4,0.1-0.7,0.3-1,0.2c-0.2,0-0.1,0.2-0.1,0.1c0,0,0-0.1,0-0.1c0.2,0,0.4-0.2,0.4,0.2l0,0       c-0.2,0.1-0.4,0-0.6,0.1c-0.1,0-0.3,0.1-0.4,0.1c-0.1,0-0.1,0-0.2,0c-0.1,0-0.1,0-0.2,0c-0.1,0-0.3-0.1-0.4-0.2       c-0.1-0.1-0.2-0.2-0.2-0.3c-0.1-0.2-0.3-0.3-0.5-0.4c-0.1-0.1-0.2,0-0.2,0.1c-0.4,0.1-0.2,0.4-0.2,0.6c0,2.2,0,4.3,0,6.5       c0,0.2,0.1,0.4-0.2,0.5c-0.2-0.2-0.1-0.5-0.1-0.8c0-2,0-3.9,0-5.6c0,1.8,0,3.9,0,6.1c0,0.1-0.1,0.1-0.2,0.2       c-0.3,0-0.6,0-0.7-0.4c-0.1-1.6,0-3.1-0.1-4.7c0-0.7,0-1.3,0-2c-0.1-0.2-0.3-0.1-0.4-0.2c0-0.4-0.4-0.2-0.5-0.3       c-0.1-0.1-0.1-0.1,0-0.2c0,0,0.1-0.1,0.1-0.1c0,0-0.1,0.1-0.1,0.1c-0.2,0.1-0.3,0.2-0.5,0.2c-0.4,0-0.8-0.1-1.1,0       c-0.3,0.1-0.6,0-0.8,0.1c-0.3,0.2-0.6,0.1-0.8,0c0.3,0.4,0.7-0.1,1.1,0.2c0,0.1,0,0.1,0,0.2c-0.6,0.2-1.2,0.1-1.8-0.3       c-0.4-0.2-0.8-0.2-1.2-0.4c0.1-0.1,0.2-0.2,0.3-0.2c0.2,0,0.4-0.1,0.4-0.4c0.1,0,0.1,0,0.2,0c0.1,0.2,0,0.4,0.1,0.6       c0-0.3,0-0.5,0.1-0.6c0,0,0.1-0.1,0.2-0.1c0.1,0,0.2,0.3,0.4,0.1c0.5-0.1,0.3-0.4,0.1-0.6c-0.1-0.1-0.1-0.1-0.1-0.2       c0-0.5-0.4-0.5-0.7-0.6c-0.3,0-0.5,0.1-0.8-0.1h0c0-0.1,0-0.1,0-0.2c0.1-0.1,0.2-0.1,0.3-0.1c0.2,0,0.5,0,0.8,0.1       c-0.4-0.1-0.7-0.1-0.9-0.2c-0.1,0-0.2-0.1-0.2-0.2c0-0.2,0.1-0.2,0.3-0.3c0.2,0,0.2-0.3,0.4-0.3c0.1,0,0.1,0,0.2,0       c0,0,0,0.1,0.1,0.1c0,0,0,0,0-0.1c0.1-0.1,0.2-0.2,0.3-0.3c0.1,0,0.2,0,0.3,0c0.1,0,0.2-0.1,0.3-0.1c0.2,0,0.2-0.1,0.1-0.2       c-0.1-0.1-0.2-0.2-0.3-0.3c-0.1,0-0.1-0.1-0.2-0.2c-0.1-0.1-0.2-0.2-0.2-0.3c0.1-0.1,0.2-0.2,0.3-0.2c0.2-0.2,0-0.3-0.1-0.4       c-0.1-0.2-0.4-0.3-0.5-0.5l0,0c0,0,0-0.1,0-0.1c0,0,0,0,0,0c0.3,0.1,0.4-0.1,0.4-0.4c0-0.2-0.1-0.4,0-0.7       c0.4-0.6,0.4-0.6,1.1-0.3c0.2,0.1,0.3,0.4,0.5,0.1c0.1-0.2-0.1-0.3-0.2-0.5c0-0.1-0.1-0.2-0.1-0.2c0.1-0.1,0.1-0.3,0-0.4       c-0.1-0.2-0.3-0.3-0.4-0.5c0.1-0.1,0.1-0.3,0.3-0.4c0.1,0,0.2,0,0.3,0.1c0,0,0.1,0.2,0.1,0c-0.1-0.2-0.4-0.3-0.3-0.6       c0.3,0,0.5-0.7,0.9-0.2c0,0,0,0.1,0.1,0c0-0.1-0.2-0.3-0.1-0.4c0-0.1,0.1-0.2,0.2-0.3c0.3-0.2,0-0.3-0.1-0.5       c0-0.2,0.1-0.4,0.4-0.3c0.6,0.1,0.4-0.4,0.4-0.7c0,0,0.1,0,0.1,0c0.1,0,0.2,0.1,0.2,0.1c0,0,0,0.1,0.1,0.1c0-0.1,0-0.1-0.1-0.2       c-0.3-0.4-0.1-0.7,0.1-1c0.1-0.2,0.3,0.2,0.3-0.1c0-0.1,0-0.2,0.1-0.3c0.2-0.4-0.1-0.9,0.2-1.3c0-0.1,0.1,0,0.2-0.1       c-0.1,0-0.1,0-0.2,0c-0.1,0-0.1-0.1-0.1-0.1c0.1-0.3,0-0.7,0.5-0.8c0.1-0.2,0.2-0.5,0.3-0.7c0.1,0,0.1,0.1,0.1,0.2       c0,0.2,0,0.4,0,0.6c0,0.1-0.1,0.2-0.1,0.2c0.1-0.1,0.1-0.2,0.1-0.3c0-0.2,0-0.4,0-0.5c0.1-0.2,0.2-0.5,0.2-0.7       c0-0.1,0-0.1-0.1-0.2c-0.1,0-0.1,0-0.1-0.1c0.1-0.6,0.5-0.7,1-0.8c0.1,0,0.1,0,0.1,0.1c0,0.1,0,0.3,0,0.4       c0,0.1-0.1,0.1-0.1,0.1c-0.1,0.1,0,0.3-0.1,0.5c0.1-0.2,0-0.4,0.1-0.5c0.2,0,0.2,0.2,0.3,0.4c0,0.2,0.1,0.4,0,0.7       c-0.2,0.1-0.1,0.3-0.1,0.5c0-0.1,0-0.2,0-0.4c0.1-0.1,0.2-0.1,0.3,0c0.1,0.1,0.1,0.1,0.2,0.2c0.1,0.2,0.1,0.3,0.1,0.5       c0.1,0.2,0.1,0.5,0.4,0.3c0.1,0.4,0.1,0.8,0.3,1.2l0,0c0.1,0.1,0.1,0.2,0.1,0.3c-0.4,0.1-0.3-0.3-0.4-0.4       c0.2,0.2,0.1,0.6,0.5,0.6c0.1,0,0.1,0,0.1,0.1c0,0,0.1,0.1,0.1,0.1c0.1,0,0.2,0.1,0.2,0.2c0,0.1,0,0.2,0.1,0.1       c0.1,0,0.1,0,0.1,0.1c-0.1,0.3,0.1,0.4,0.4,0.4c0.1,0,0.1,0.1,0.1,0.1c-0.2,0.4-0.4,0.8-0.3,1.3c0,0.2,0,0.5-0.1,0.7       c0,0-0.1,0.1-0.1,0.1c-0.2,0.2-0.1,0.4,0,0.6c0,0.1,0,0.2,0,0.3c0,0.6,0.6,0.5,0.9,0.7c0.2,0.2,0.3,0.1,0.5,0       c0,0,0.1-0.1,0.1-0.1c0.2-0.1,0.1-0.3,0.1-0.4c0.3-0.2,0.4,0,0.5,0.3c0,0.2,0.6-0.1,0.3,0.4c-0.1,0.1-0.2,0.1-0.3,0.2       c0,0-0.1,0.1-0.1,0.1c-0.1,0.2-0.1,0.4-0.1,0.5C209.1,217.7,209.1,217.7,209,217.9L209,217.9c-0.1-0.1-0.2,0-0.2,0       C208.8,217.9,208.9,217.8,209,217.9z"/>
					<path fill-rule="evenodd" clip-rule="evenodd" fill="#D19C24" d="M203.5,225.3c0.2,0.1,0.4-0.1,0.5-0.3       c0.1,0.4,0.1,0.9,0.1,1.4c0,1.9,0,3.8,0,5.8c0,0.1,0,0.3,0,0.4c-0.3,0-0.2-0.2-0.2-0.3c0-2.1,0-4.1,0-6.2c0,2.1,0,4.1,0,6.2       c0,0.1-0.1,0.1-0.2,0.1c0-1.7,0-3.3,0-5C203.5,226.6,203.5,226,203.5,225.3z"/>
					<path fill-rule="evenodd" clip-rule="evenodd" fill="#D19C24" d="M204.8,232.5c0-2.5,0-4.9,0-7.4c0.1,0,0.2,0,0.3,0       c0,2.5,0,5,0,7.6c0,0-0.1,0.1-0.1,0.1C204.8,232.7,204.8,232.6,204.8,232.5z"/>
					<path fill-rule="evenodd" clip-rule="evenodd" fill="#D19C24" d="M210.6,219.2c0,0.2,0,0.3,0,0.5c-0.3,0.6,0.1,0.4,0.4,0.3       c0.2,0,0.3-0.1,0.4,0.1c0.1,0.1,0,0.2-0.2,0.2c-0.1-0.1-0.2-0.1-0.3-0.1c0.1,0,0.2,0,0.3,0.1c-0.7,0.3-1.5,0.4-2.2,0.4       c-0.2-0.1-0.5,0.1-0.7-0.2c0.3-0.1,0.6,0,0.8-0.2c0,0,0.1-0.1,0.2-0.1c0.2,0,0.4,0.1,0.6,0.1c0-0.1-0.1-0.1-0.1-0.2       c0-0.1,0-0.1,0.1-0.2c0.4-0.1,0.2-0.4,0.3-0.7C210.3,219.3,210.4,219.2,210.6,219.2z"/>
					<path fill-rule="evenodd" clip-rule="evenodd" fill="#D19C24" d="M200.2,216.3c0.2,0.2,0.4,0.4,0.6,0.7       c0.1,0.1,0.2,0.2,0.1,0.3c-0.1,0.1-0.2,0-0.4,0c-0.3-0.4-0.7-0.7-0.9-1.2c0.1-0.1,0.2-0.1,0.3,0c0,0,0.1,0.1,0.1,0.1       C200.1,216.2,200.1,216.3,200.2,216.3z"/>
					<path fill-rule="evenodd" clip-rule="evenodd" fill="#D19C24" d="M211.6,221.9c0,0,0-0.1,0-0.1c-0.2-0.2-0.5-0.1-0.7-0.1       c-0.1,0-0.2,0-0.2,0.1c-0.1,0-0.1,0-0.1-0.1c0.7-0.5,1.2-0.3,1.3,0.5c0,0.1,0.1,0.3,0.2,0.4c0,0.2-0.2,0.2-0.3,0.3       c-0.1,0-0.3,0-0.4-0.1c0.1-0.1,0.2-0.2,0.3-0.3C211.4,222.2,211.6,222,211.6,221.9z"/>
					<path fill-rule="evenodd" clip-rule="evenodd" fill="#D19C24" d="M199.1,220.4c0.1,0.1,0.2,0.2,0.3,0.3       c-0.1,0.2-0.2,0.3-0.1,0.5c0.1,0.2,0.1,0.4,0,0.5c-0.1-0.1-0.2-0.2-0.3-0.3c-0.1,0-0.2,0-0.3-0.1c-0.1-0.1-0.1-0.2-0.1-0.3       c-0.1-0.2,0.3-0.3,0.2-0.5c-0.1-0.1-0.1-0.3,0-0.4C199,220,199.1,220.2,199.1,220.4z"/>
					<path fill-rule="evenodd" clip-rule="evenodd" fill="#D19C24" d="M210,224.5c0.4-0.4,0.5-1.1,1.1-1.4c0.1,0.1,0.1,0.2,0,0.3       c0,0.1-0.1,0.2-0.1,0.3c-0.1,0-0.1,0.1-0.1,0.2c0,0.2,0.1,0.4-0.2,0.6c-0.2,0.1-0.3,0.3-0.5,0.3       C210.1,224.6,210.1,224.6,210,224.5z"/>
					<path fill-rule="evenodd" clip-rule="evenodd" fill="#D19C24" d="M208.1,216.7c-0.3-0.2-0.7-0.1-0.9-0.4       c-0.1-0.1-0.2-0.2,0-0.4c0,0,0.1-0.1,0.2,0c0.2,0.1,0.3,0.3,0.6,0.3c0.3,0,0.5,0.3,0.7,0.1c0,0,0.1-0.1,0.1-0.1       c0,0,0,0,0.1,0.1c0.1,0.1,0,0.2-0.1,0.3l0,0C208.5,216.8,208.3,216.8,208.1,216.7z"/>
					<path fill-rule="evenodd" clip-rule="evenodd" fill="#D19C24" d="M208.1,225.7c-0.1-0.2-0.4-0.1-0.6-0.2c0.5,0,0.9-0.4,1.4-0.3       c0.1,0,0.1,0,0.2,0c0,0.3-0.3,0.4-0.6,0.5C208.3,225.7,208.2,225.7,208.1,225.7z"/>
					<path fill-rule="evenodd" clip-rule="evenodd" fill="#D19C24" d="M200.7,225.4c0-0.1,0-0.1,0-0.2c0.3-0.3,0.6-0.1,0.9-0.2       c0.3-0.1,0.5-0.1,0.8,0c0.1,0,0.1,0.1,0.1,0.1C202,225.4,201.3,225.5,200.7,225.4z"/>
					<path fill-rule="evenodd" clip-rule="evenodd" fill="#D19C24" d="M201.5,214.9c-0.1,0-0.1,0-0.2-0.1c0-0.1,0.2-1,0.3-1.1       c0.2-0.1,0.3-0.1,0.4,0.1c-0.2,0-0.3,0.2-0.3,0.4c0.1,0.1,0.1,0.3,0,0.4C201.6,214.7,201.5,214.8,201.5,214.9z"/>
					<path fill-rule="evenodd" clip-rule="evenodd" fill="#D19C24" d="M198.6,224.2c0,0-0.1,0-0.1,0c-0.1-0.1-0.2-0.3-0.3-0.4       c-0.1-0.4-0.1-0.7,0.4-0.5c0,0.1,0.1,0.1,0.1,0.2c0,0.1,0,0.3,0,0.4C198.7,224.1,198.7,224.2,198.6,224.2z"/>
					<path fill-rule="evenodd" clip-rule="evenodd" fill="#D19C24" d="M204.8,232.5c0.1,0.1,0.1,0.2,0.1,0.3c-0.4,0.2-0.7,0.3-1.1,0       c0-0.1,0.2-0.2,0.3-0.2c0.2,0,0.4-0.1,0.5,0C204.7,232.5,204.7,232.5,204.8,232.5z"/>
					<path fill-rule="evenodd" clip-rule="evenodd" fill="#D19C24" d="M202.3,213.2c-0.3-0.5,0-0.9,0-1.4c0-0.2,0.2-0.2,0.4-0.1       c0,0.1,0,0.1,0,0.1c-0.1,0.1-0.1,0.2-0.1,0.4C202.6,212.5,202.5,212.9,202.3,213.2L202.3,213.2z"/>
					<path fill-rule="evenodd" clip-rule="evenodd" fill="#D19C24" d="M203.1,211.5c-0.1-0.4,0.1-0.7,0.1-1.1c0,0,0.1,0,0.1,0       c0,0,0,0,0,0.1c0,0,0,0,0,0c-0.2,0.4,0,0.9-0.3,1.3c-0.1,0.1-0.2,0.1-0.2,0.1c-0.1,0-0.2-0.1-0.2-0.2c0,0,0,0,0.1-0.1       C202.9,211.7,203.1,211.8,203.1,211.5z"/>
					<path fill-rule="evenodd" clip-rule="evenodd" fill="#D19C24" d="M198.1,224.6c-0.1,0.1-0.2,0.1-0.3,0.2       c-0.2,0-0.5-0.1-0.4-0.4c0.1-0.2,0.3,0,0.5,0C197.9,224.5,198,224.6,198.1,224.6z"/>
					<path fill-rule="evenodd" clip-rule="evenodd" fill="#D19C24" d="M209.1,225.2c0,0-0.1,0-0.1,0c0,0-0.1,0-0.1,0       c0.1-0.3,0.3-0.4,0.6-0.4c0.2,0,0,0.2,0,0.3C209.4,225.1,209.3,225.2,209.1,225.2z"/>
					<path fill-rule="evenodd" clip-rule="evenodd" fill="#D19C24" d="M205.7,224.9c0.2,0.2,0.5,0.2,0.5,0.5c-0.2-0.1-0.2,0-0.3,0.1       c-0.1-0.1-0.3-0.3-0.4-0.4C205.5,225,205.6,225,205.7,224.9z"/>
					<path fill-rule="evenodd" clip-rule="evenodd" fill="#D19C24" d="M210.8,223.7c0,0.4,0.4,0.2,0.5,0.4c-0.2,0.1-0.4,0.3-0.6,0.3       C210.9,224.2,210.6,223.9,210.8,223.7z"/>
					<path fill-rule="evenodd" clip-rule="evenodd" fill="#D19C24" d="M206.9,225.8c0,0,0.1,0,0.1,0c0.1,0,0.2,0.1,0.2,0.1       c0,0.1,0,0.1,0,0.2c-0.1,0.1-0.2,0.2-0.3,0.4C206.4,226.2,206.4,226.2,206.9,225.8z"/>
					<path fill-rule="evenodd" clip-rule="evenodd" fill="#D19C24" d="M209.3,216.9c0.1-0.2,0.3-0.1,0.4-0.1       c-0.3,0.2,0.1,0.6-0.3,0.8C209.2,217.3,209.1,217.1,209.3,216.9z"/>
					<path fill-rule="evenodd" clip-rule="evenodd" fill="#D19C24" d="M206.9,225.8c0,0.2-0.5,0.4,0,0.7c-0.4,0.2-0.4-0.2-0.5-0.4       c0-0.2,0.2-0.2,0.4-0.3C206.8,225.8,206.8,225.8,206.9,225.8z"/>
					<path fill-rule="evenodd" clip-rule="evenodd" fill="#D19C24" d="M204,208c0,0,0.1,0,0.1,0c0.1,0.1,0.1,0.2,0.1,0.3       c0,0.3,0,0.5-0.4,0.7c0-0.1,0-0.1,0-0.2C203.9,208.5,203.8,208.3,204,208z"/>
					<path fill-rule="evenodd" clip-rule="evenodd" fill="#D19C24" d="M209.3,216.9c0,0.2,0.1,0.4,0.1,0.6c-0.1,0.1-0.1,0.4-0.4,0.3       c0-0.1,0-0.2,0-0.3c0.2-0.2,0-0.5,0.1-0.7C209.2,216.9,209.2,216.9,209.3,216.9z"/>
					<path fill-rule="evenodd" clip-rule="evenodd" fill="#D19C24" d="M198.2,222c0,0,0-0.1,0-0.1c0-0.1,0-0.2,0-0.3       c-0.1-0.1-0.1-0.3,0.1-0.3c0.2,0,0.3,0,0.4,0.2c0,0.1-0.1,0.2-0.2,0.2c-0.1,0.1-0.2,0.3-0.3,0.4       C198.1,222.1,198.1,222.1,198.2,222C198.2,222,198.2,222,198.2,222z"/>
					<path fill-rule="evenodd" clip-rule="evenodd" fill="#D19C24" d="M202.6,225.2c0,0-0.1,0-0.1,0c-0.1,0-0.1-0.1-0.1-0.2       c0,0,0,0,0.1-0.1c0.2-0.1,0.3-0.2,0.5-0.1l0,0c0,0.1,0,0.2,0,0.2C202.8,225,202.7,225.1,202.6,225.2z"/>
					<path fill-rule="evenodd" clip-rule="evenodd" fill="#D19C24" d="M206.8,225.8c-0.1,0.1-0.2,0.2-0.4,0.3       c-0.2-0.1-0.3-0.2-0.3-0.4c0.1-0.1,0.2,0,0.3,0C206.5,225.7,206.6,225.8,206.8,225.8z"/>
					<path fill-rule="evenodd" clip-rule="evenodd" fill="#D19C24" d="M204.1,232.7c-0.1,0-0.2,0.1-0.3,0.1       c-0.2-0.1-0.3-0.3-0.3-0.5c0,0,0.1,0,0.1,0c0-0.1,0.1-0.1,0.1,0c0,0.1,0,0.2,0.1,0.3C204.1,232.5,204.2,232.5,204.1,232.7z"/>
					<path fill-rule="evenodd" clip-rule="evenodd" fill="#D19C24" d="M209,217.9c-0.2,0.2-0.4,0.3-0.7,0.6       C208.5,218,208.7,217.8,209,217.9C209,217.8,209,217.9,209,217.9z"/>
					<path fill-rule="evenodd" clip-rule="evenodd" fill="#D19C24" d="M207.2,226.1c0-0.1,0-0.1,0-0.1c0-0.2,0.2-0.2,0.3-0.3       c0.2,0,0.4,0,0.7,0C207.8,225.8,207.4,225.9,207.2,226.1z"/>
					<path fill-rule="evenodd" clip-rule="evenodd" fill="#D19C24" d="M199.2,219.8c-0.1,0-0.2-0.1-0.2-0.1       c-0.1-0.1-0.2-0.1-0.1-0.3c0.2,0.1,0.6,0,0.6,0.4C199.4,219.8,199.3,219.8,199.2,219.8z"/>
					<path fill-rule="evenodd" clip-rule="evenodd" fill="#D19C24" d="M211.1,223.3c0-0.1,0-0.2,0-0.3h0c0.2-0.2,0.4-0.3,0.7-0.2       c0.1,0,0.1,0.1,0.1,0.1C211.7,223.1,211.4,223.2,211.1,223.3z"/>
					<path fill-rule="evenodd" clip-rule="evenodd" fill="#D19C24" d="M200.3,215.7c0,0,0.1,0,0.1,0c0.1,0.1,0.1,0.3,0,0.4       c-0.1,0.1-0.2,0.2-0.2,0.3c0,0-0.1-0.1-0.1-0.1C200.1,216,200.2,215.9,200.3,215.7z"/>
					<path fill-rule="evenodd" clip-rule="evenodd" fill="#D19C24" d="M210.3,221.9c-0.1,0-0.3-0.1-0.4-0.1c0,0-0.1,0-0.1-0.1       c0,0,0,0,0,0c0.1,0,0.3-0.1,0.4-0.1c0.1,0,0.2,0.1,0.3,0.1c0,0,0,0,0,0.1C210.6,221.8,210.4,221.7,210.3,221.9z"/>
					<path fill-rule="evenodd" clip-rule="evenodd" fill="#D19C24" d="M206.4,225.7c-0.1,0.1-0.2,0-0.3,0c0,0-0.1-0.1-0.1-0.1       c0-0.2,0.1-0.2,0.3-0.1C206.3,225.5,206.3,225.6,206.4,225.7z"/>
					<path fill-rule="evenodd" clip-rule="evenodd" fill="#D19C24" d="M198.9,219.2c0,0,0,0.1,0,0.1c-0.1,0-0.3,0-0.3-0.2       c0,0,0.1-0.1,0.1-0.1C198.8,219,198.9,219.1,198.9,219.2z"/>
					<path fill-rule="evenodd" clip-rule="evenodd" fill="#D19C24" d="M210.8,218.7c0.1,0.1,0.1,0.3,0,0.4l0,0c0,0-0.1,0-0.1,0       c-0.1-0.1-0.2-0.1-0.3-0.2C210.5,218.8,210.7,218.8,210.8,218.7z"/>
					<path fill-rule="evenodd" clip-rule="evenodd" fill="#D19C24" d="M210,224.5c0.1,0.1,0.1,0.1,0.2,0.2c0,0,0,0.1,0,0.1       c-0.1,0-0.3,0-0.3-0.1C209.8,224.5,210,224.5,210,224.5z"/>
					<path fill-rule="evenodd" clip-rule="evenodd" fill="#D19C24" d="M205.7,224.9c0,0.1-0.1,0.2-0.1,0.3c0,0-0.1-0.1-0.1-0.1       c0-0.1-0.1-0.2-0.1-0.3C205.5,224.7,205.6,224.8,205.7,224.9z"/>
					<path fill-rule="evenodd" clip-rule="evenodd" fill="#D19C24" d="M199.9,216.1c-0.1,0-0.2,0-0.3,0c-0.1-0.1-0.2-0.2,0-0.2       C199.8,215.8,199.9,215.9,199.9,216.1z"/>
					<path fill-rule="evenodd" clip-rule="evenodd" fill="#D19C24" d="M212.2,222.5c0,0.2-0.1,0.3-0.2,0.3c-0.1,0-0.2,0-0.2-0.1       c0.1,0,0.2-0.1,0.3-0.1C212.1,222.5,212.1,222.5,212.2,222.5z"/>
					<path fill-rule="evenodd" clip-rule="evenodd" fill="#D19C24" d="M204,232.3c0-2.4,0-4.8,0-7.2c0.2,0.2,0.1,0.5,0.1,0.7       c0,2.2,0,4.4,0,6.6C204.1,232.3,204,232.3,204,232.3z"/>
					<path fill-rule="evenodd" clip-rule="evenodd" fill="#D19C24" d="M207.8,214.7C207.8,214.7,207.7,214.7,207.8,214.7       c-0.3,0.1-0.1,0.4-0.3,0.5c-0.1,0-0.2-0.1-0.2-0.1c0-0.1,0-0.1,0-0.2c0.2-0.6,0.1-1.2,0.1-1.8c0-0.4,0.3-0.1,0.4-0.2       c0.1,0.1,0.2,0.2,0.2,0.3C207.7,213.7,207.8,214.2,207.8,214.7z"/>
					<path fill-rule="evenodd" clip-rule="evenodd" fill="#D19C24" d="M201.7,225.2c-0.3,0.3-0.7,0.1-1.1,0.1       c-0.4,0-0.9,0.2-1.2-0.2c0.3-0.3,0.6,0.2,0.8-0.1c0.1-0.1,0.2-0.1,0.2,0c0.2,0.1,0.4,0.1,0.6,0c0.1,0,0.1,0,0.2-0.1       C201.5,224.9,201.6,225,201.7,225.2z"/>
					<path fill-rule="evenodd" clip-rule="evenodd" fill="#D19C24" d="M202.8,211.9c0.1,0,0.2,0,0.3,0c0,0.1,0,0.2,0,0.4       c-0.1,0.1-0.2,0.1-0.3,0c-0.2,0.3-0.3,0.7-0.1,1.1c0,0.1-0.1,0.1-0.1,0c-0.1,0-0.1-0.1-0.2-0.1c0-0.4,0.1-0.8,0.1-1.2       C202.5,211.8,202.7,211.9,202.8,211.9z"/>
					<path fill-rule="evenodd" clip-rule="evenodd" fill="#D19C24" d="M209.9,221.6c0,0,0,0.1,0,0.1c-0.4,0.2-0.9,0.2-1.3,0       c0-0.1,0-0.2,0.1-0.1C209.1,221.6,209.5,221.6,209.9,221.6z"/>
					<path fill-rule="evenodd" clip-rule="evenodd" fill="#D19C24" d="M199.2,221.7c0-0.2,0-0.4-0.1-0.5c0-0.2,0.2-0.3,0.4-0.4       c0.1,0,0.2,0.1,0.3,0.3c0.1,0.2,0,0.3-0.1,0.4C199.5,221.6,199.4,221.6,199.2,221.7z"/>
					<path fill-rule="evenodd" clip-rule="evenodd" fill="#D19C24" d="M199.5,223.6c0.2,0.1,0.3,0.3,0.3,0.5c0,0.2,0.1,0.4-0.1,0.5       c-0.2,0.1-0.3-0.2-0.4-0.2c-0.1,0-0.1-0.1-0.1-0.2C199.3,224,199.3,223.7,199.5,223.6z"/>
					<path fill-rule="evenodd" clip-rule="evenodd" fill="#D19C24" d="M206.6,211.6c0,0.1,0.1,0.2,0.1,0.3c0,0.2-0.2,0.2-0.2,0.1       c-0.2-0.4-0.4-0.7-0.4-1.2C206.4,211,206.3,211.4,206.6,211.6z"/>
					<path fill-rule="evenodd" clip-rule="evenodd" fill="#D19C24" d="M208.9,218.7c0.1-0.5,0.6-0.2,0.8-0.3l0,0       c0,0.2,0.3,0.3,0.2,0.4c0,0-0.2,0-0.3,0C209.3,218.7,209.1,218.9,208.9,218.7z"/>
					<path fill-rule="evenodd" clip-rule="evenodd" fill="#D19C24" d="M203.9,209c0.1-0.2,0.2-0.4,0.2-0.7c0.1,0,0.1,0,0.2,0       c0.1,0.2,0,0.4-0.2,0.6c0,0.2,0,0.4,0,0.7c-0.1,0.1-0.2,0.1-0.3,0C203.9,209.4,203.9,209.2,203.9,209z"/>
					<path fill-rule="evenodd" clip-rule="evenodd" fill="#D19C24" d="M198.6,224.2c0-0.1,0-0.2,0-0.3c0,0,0.1,0,0.2,0       c0.1,0.1,0.2,0.2,0.1,0.3c0,0.2-0.2,0.5,0.2,0.7C198.3,224.9,198.6,224.5,198.6,224.2z"/>
					<path fill-rule="evenodd" clip-rule="evenodd" fill="#D19C24" d="M199.6,219.3c-0.1-0.1-0.2-0.2-0.2-0.2c0-0.2-0.1-0.6,0.1-0.6       c0.4-0.1,0.1,0.2,0.1,0.4c0,0.1,0,0.1,0,0.2C199.6,219.1,199.6,219.2,199.6,219.3z"/>
					<path fill-rule="evenodd" clip-rule="evenodd" fill="#D19C24" d="M199.5,223.6c-0.1,0.2,0.2,0.6-0.2,0.7       c-0.2-0.1-0.1-0.3-0.2-0.4c0,0,0-0.1,0-0.1c0-0.1,0-0.1,0.1-0.1c0.1-0.1,0.2-0.1,0.3-0.1C199.4,223.5,199.5,223.5,199.5,223.6z       "/>
					<path fill-rule="evenodd" clip-rule="evenodd" fill="#D19C24" d="M208.1,216.7c0.2-0.2,0.4-0.1,0.7-0.1       C208.6,216.9,208.4,217.2,208.1,216.7z"/>
					<path fill-rule="evenodd" clip-rule="evenodd" fill="#D19C24" d="M198.1,222.3c0.3,0.1,0.5,0.2,0.8,0.3c0,0,0,0.1,0,0.1       c-0.3,0-0.5,0-0.8,0C198,222.5,198,222.4,198.1,222.3z"/>
					<path fill-rule="evenodd" clip-rule="evenodd" fill="#D19C24" d="M200.4,216.1c0-0.1,0-0.3,0-0.4c0,0,0.1-0.1,0.1-0.1       c0.2,0.2,0.3,0.3,0.5,0.5c-0.1,0.1-0.3,0.1-0.4,0.1C200.6,216.1,200.5,216.1,200.4,216.1z"/>
					<path fill-rule="evenodd" clip-rule="evenodd" fill="#D19C24" d="M199.2,219.8c0.1,0,0.2,0,0.3,0c0.1,0.2,0.3,0.3,0.2,0.5       c-0.1,0.1-0.2,0.1-0.2,0C199.5,220,199.4,219.9,199.2,219.8z"/>
					<path fill-rule="evenodd" clip-rule="evenodd" fill="#D19C24" d="M210.8,221.6c0.3-0.2,0.6-0.2,0.8,0.1c-0.3,0-0.5,0-0.8,0       C210.8,221.7,210.8,221.7,210.8,221.6C210.8,221.6,210.8,221.6,210.8,221.6z"/>
					<path fill-rule="evenodd" clip-rule="evenodd" fill="#D19C24" d="M211.8,222.6c0.1,0,0.1,0.1,0.2,0.1c0,0-0.1,0.1-0.1,0.1       c-0.3-0.1-0.5,0.1-0.7,0.1c0.1-0.1,0.2-0.3,0.3-0.4C211.5,222.6,211.6,222.6,211.8,222.6z"/>
					<path fill-rule="evenodd" clip-rule="evenodd" fill="#D19C24" d="M205.1,207.4c0.5,0.1,0.4,0.5,0.4,0.8c0,0.1,0,0.1,0,0.2       c-0.1,0-0.1,0-0.2,0c-0.1-0.2,0-0.5-0.2-0.7C205,207.5,204.9,207.4,205.1,207.4z"/>
					<path fill-rule="evenodd" clip-rule="evenodd" fill="#D19C24" d="M205.3,208.3c0,0,0.1,0,0.1,0c0.1,0.3,0.3,0.5,0.2,0.8       c-0.1,0-0.2-0.1-0.3-0.1v0c0-0.2-0.1-0.4-0.1-0.7C205.2,208.2,205.3,208.2,205.3,208.3z"/>
					<path fill-rule="evenodd" clip-rule="evenodd" fill="#D19C24" d="M201.6,214.6c0-0.1,0-0.3,0-0.4c0.1,0,0.2-0.3,0.3-0.1       C202.1,214.4,201.9,214.6,201.6,214.6z"/>
					<path fill-rule="evenodd" clip-rule="evenodd" fill="#D19C24" d="M201.2,224.9c0.4-0.2,0.8-0.2,1.2,0l0,0       C202.1,225.1,201.7,225,201.2,224.9C201.3,224.9,201.3,224.9,201.2,224.9z"/>
					<path fill-rule="evenodd" clip-rule="evenodd" fill="#D19C24" d="M205.9,209.7c0.1,0.1,0.2,0.2,0.4,0.3c0,0.1-0.1,0.2-0.1,0.3       C206,210.1,205.7,210.1,205.9,209.7z"/>
					<path fill-rule="evenodd" clip-rule="evenodd" fill="#D19C24" d="M203.9,209.6c0.1,0,0.2,0,0.3,0c0,0.1-0.1,0.1-0.1,0.2       c-0.1,0.1-0.1,0.3-0.3,0.3c-0.1,0-0.2-0.1-0.2-0.2C203.6,209.7,203.8,209.8,203.9,209.6z"/>
					<path fill-rule="evenodd" clip-rule="evenodd" fill="#D19C24" d="M199.6,221.5c0-0.1,0.1-0.3,0.1-0.4c0.2,0.1,0.3,0.2,0.2,0.4       C199.9,221.6,199.7,221.6,199.6,221.5z"/>
					<path fill-rule="evenodd" clip-rule="evenodd" fill="#D19C24" d="M205.6,209.1c-0.1-0.3-0.1-0.5-0.2-0.8c0-0.1,0-0.1,0-0.2       c0.1,0.2,0.2,0.4,0.2,0.6c0,0.2,0,0.3,0,0.5C205.7,209.2,205.6,209.1,205.6,209.1z"/>
					<path fill-rule="evenodd" clip-rule="evenodd" fill="#D19C24" d="M200.4,218.4c0-0.1-0.1-0.2,0-0.2c0.2,0,0.4-0.1,0.5,0.2       C200.8,218.5,200.6,218.6,200.4,218.4z"/>
					<path fill-rule="evenodd" clip-rule="evenodd" fill="#D19C24" d="M204,232.3c0,0,0.1,0,0.1,0c0.1,0.2,0.4,0,0.5,0.3       c-0.2,0.1-0.3,0.2-0.5,0.1c0,0-0.1-0.1-0.1-0.1C204,232.4,204,232.3,204,232.3z"/>
					<path fill-rule="evenodd" clip-rule="evenodd" fill="#D19C24" d="M207.3,214.9c0,0,0,0.1,0,0.1c0.1,0.2,0.2,0.5,0.1,0.7       c0,0.1-0.1,0.1-0.1,0.2c0,0-0.1,0-0.1,0c0-0.1,0-0.2,0-0.3c-0.1-0.3-0.1-0.5,0-0.8C207.2,214.9,207.2,214.9,207.3,214.9z"/>
					<path fill-rule="evenodd" clip-rule="evenodd" fill="#D19C24" d="M198.1,222.3c0,0.1,0,0.3,0,0.4c-0.1,0-0.2,0-0.3,0       c0-0.1-0.1-0.1-0.1-0.2c0,0,0-0.1,0-0.1c0,0,0.1-0.1,0.1-0.1C197.9,222.3,198,222.3,198.1,222.3z"/>
					<path fill-rule="evenodd" clip-rule="evenodd" fill="#D19C24" d="M208.7,216.3c0,0,0.1-0.1,0.1-0.1c0.1,0,0.2,0,0.2,0.2       c0,0.2-0.2,0.2-0.3,0.2C208.7,216.5,208.7,216.4,208.7,216.3z"/>
					<path fill-rule="evenodd" clip-rule="evenodd" fill="#D19C24" d="M197.8,222.3c0,0-0.1,0.1-0.1,0.1c-0.2-0.7,0.3-0.3,0.5-0.4       c0,0,0,0.1,0,0.1C198.1,222.1,197.9,222.1,197.8,222.3z"/>
					<path fill-rule="evenodd" clip-rule="evenodd" fill="#D19C24" d="M198.7,221.7c0,0.1,0.3,0.1,0.2,0.3c0,0-0.2,0.1-0.2,0       c-0.2-0.1-0.2-0.2-0.1-0.4C198.6,221.7,198.7,221.7,198.7,221.7z"/>
					<path fill-rule="evenodd" clip-rule="evenodd" fill="#D19C24" d="M199.5,220.8c-0.1,0.1-0.3,0.3-0.4,0.4       c-0.2-0.3,0-0.4,0.3-0.5C199.4,220.7,199.5,220.8,199.5,220.8z"/>
					<path fill-rule="evenodd" clip-rule="evenodd" fill="#D19C24" d="M198.7,221.7c0,0-0.1,0-0.1,0c0,0-0.1,0-0.1,0       c0,0,0.1-0.1,0.1-0.1c0.1,0,0.1-0.2,0.1-0.3c0.1,0,0.2,0.1,0.3,0.1C199,221.6,198.9,221.7,198.7,221.7z"/>
					<path fill-rule="evenodd" clip-rule="evenodd" fill="#D19C24" d="M200.6,225c-0.1,0-0.2,0-0.3,0c0.3-0.3,0.6-0.1,0.9-0.1l0,0       c0,0,0.1,0.1,0,0.1c0,0,0,0,0,0l0,0C201,225.1,200.8,225.1,200.6,225z"/>
					<path fill-rule="evenodd" clip-rule="evenodd" fill="#D19C24" d="M205,207.9c0,0.2,0,0.4,0,0.6c-0.1-0.3-0.2-0.5,0-0.8       C205.1,207.8,205.1,207.8,205,207.9C205.1,207.9,205.1,207.9,205,207.9z"/>
					<path fill-rule="evenodd" clip-rule="evenodd" fill="#D19C24" d="M202.9,224.8c0.1-0.3,0.2-0.3,0.5-0.1       C203.3,224.8,203.1,224.7,202.9,224.8L202.9,224.8z"/>
					<path fill-rule="evenodd" clip-rule="evenodd" fill="#D19C24" d="M205,207.9c0,0,0-0.1,0-0.1c0,0,0-0.1,0-0.1       c0.4,0.1,0.2,0.4,0.3,0.7c0,0-0.1,0-0.1,0C205.2,208.1,205.2,208,205,207.9z"/>
					<path fill-rule="evenodd" clip-rule="evenodd" fill="#D19C24" d="M207.2,212.2c0,0.1,0.1,0.1,0.1,0.2c0,0.1-0.1,0.1-0.1,0.2       c-0.1-0.1-0.1-0.1-0.2-0.2C206.9,212.3,207.1,212.3,207.2,212.2z"/>
					<path fill-rule="evenodd" clip-rule="evenodd" fill="#D19C24" d="M204.1,209c0-0.2,0.1-0.4,0.1-0.7c-0.1-0.1,0-0.2,0.1-0.1       C204.4,208.4,204.5,208.8,204.1,209z"/>
					<path fill-rule="evenodd" clip-rule="evenodd" fill="#D19C24" d="M200.4,218.4c0.2,0,0.4,0,0.5,0       C200.8,218.7,200.6,218.9,200.4,218.4z"/>
					<path fill-rule="evenodd" clip-rule="evenodd" fill="#D19C24" d="M209.9,220c0,0.1,0,0.2,0,0.3c-0.3,0.2-0.5,0.1-0.8,0       C209.3,220,209.7,220.2,209.9,220z"/>
					<path fill-rule="evenodd" clip-rule="evenodd" fill="#D19C24" d="M209.1,220.3c0.3,0,0.5,0,0.8,0c0,0,0.1,0.1,0.1,0.1       c-0.3,0.1-0.5,0.1-0.8,0c0,0-0.1,0-0.1,0C209.1,220.4,209.1,220.3,209.1,220.3z"/>
					<path fill-rule="evenodd" clip-rule="evenodd" fill="#D19C24" d="M200.7,216.2c0.1-0.2,0.3-0.1,0.4-0.1c0,0.1,0,0.3-0.1,0.3       C200.9,216.4,200.8,216.3,200.7,216.2z"/>
					<path fill-rule="evenodd" clip-rule="evenodd" fill="#D19C24" d="M208.7,221.6c0,0-0.1,0.1-0.1,0.1c-0.1,0-0.4,0.1-0.3-0.2       C208.4,221.4,208.6,221.4,208.7,221.6z"/>
					<path fill-rule="evenodd" clip-rule="evenodd" fill="#D19C24" d="M211.6,221.9c0.1,0.2-0.1,0.4,0,0.5       C211.2,222.2,211.5,222,211.6,221.9z"/>
					<path fill-rule="evenodd" clip-rule="evenodd" fill="#D19C24" d="M201.4,217.8c0,0.1-0.1,0.1-0.1,0.1c-0.1,0-0.1-0.1-0.1-0.1       c0,0,0.1-0.1,0.1-0.1C201.3,217.7,201.3,217.8,201.4,217.8z"/>
					<path fill-rule="evenodd" clip-rule="evenodd" fill="#D19C24" d="M204.4,208.2c0,0-0.1,0.1-0.1,0.1c0,0-0.1,0-0.1,0       c0-0.1,0-0.2,0-0.3c0-0.1,0.1-0.2,0.2-0.2C204.4,207.9,204.4,208.1,204.4,208.2z"/>
					<path fill-rule="evenodd" clip-rule="evenodd" fill="#D19C24" d="M203.3,210.5c0,0,0-0.1,0-0.1c0.1-0.1,0.2-0.1,0.2,0       c0,0.1,0.1,0.2,0,0.3C203.5,210.7,203.4,210.6,203.3,210.5z"/>
					<path fill-rule="evenodd" clip-rule="evenodd" fill="#D19C24" d="M207.1,214.9c0,0.3,0,0.5,0,0.8       C206.9,215.4,207,215.1,207.1,214.9z"/>
					<path fill-rule="evenodd" clip-rule="evenodd" fill="#D19C24" d="M200.5,222.8c0.1,0,0.1-0.1,0.2-0.1c0.1,0,0.1,0.1,0.1,0.2       c0,0-0.1,0.1-0.1,0.1C200.6,222.9,200.6,222.9,200.5,222.8z"/>
					<path fill-rule="evenodd" clip-rule="evenodd" fill="#D19C24" d="M202.8,212.2c0.1,0,0.2,0,0.3,0c0.1,0.2-0.1,0.3-0.2,0.3       C202.7,212.5,202.8,212.3,202.8,212.2z"/>
					<path fill-rule="evenodd" clip-rule="evenodd" fill="#D19C24" d="M210.8,221.6c0,0,0,0.1,0,0.1c-0.2,0.1-0.3,0.2-0.5,0.1       c0.1-0.1,0.2-0.2,0.3-0.2C210.7,221.6,210.7,221.6,210.8,221.6z"/>
					<path fill-rule="evenodd" clip-rule="evenodd" fill="#D19C24" d="M209.1,216.9c0,0.2,0.1,0.5-0.1,0.7       C209,217.3,208.9,217,209.1,216.9z"/>
					<path fill-rule="evenodd" clip-rule="evenodd" fill="#D19C24" d="M202.5,213.3c0,0,0.1,0,0.1,0c0,0.2,0.1,0.4-0.2,0.4       C202.5,213.6,202.5,213.4,202.5,213.3z"/>
					<path fill-rule="evenodd" clip-rule="evenodd" fill="#D19C24" d="M208.9,218.7c0.2,0,0.5-0.1,0.7,0.1       C209.3,218.8,209,218.9,208.9,218.7z"/>
					<path fill-rule="evenodd" clip-rule="evenodd" fill="#D19C24" d="M210.6,219.2c-0.1,0-0.3,0.1-0.4,0.1       C210.2,219.1,210.4,219,210.6,219.2z"/>
					<path fill-rule="evenodd" clip-rule="evenodd" fill="#D19C24" d="M207.4,225.7c-0.1,0.1-0.2,0.2-0.3,0.3c0,0-0.1-0.1-0.1-0.1       C207.1,225.7,207.3,225.7,207.4,225.7z"/>
					<path fill-rule="evenodd" clip-rule="evenodd" fill="#D19C24" d="M205.3,209c0,0.2,0,0.3,0,0.6       C205.1,209.3,205.1,209.1,205.3,209L205.3,209z"/>
					<path fill-rule="evenodd" clip-rule="evenodd" fill="#D19C24" d="M201.5,215.4c0,0.1,0.1,0.2-0.1,0.3c0,0-0.1,0-0.2-0.1       C201.3,215.4,201.4,215.4,201.5,215.4L201.5,215.4z"/>
					<path fill-rule="evenodd" clip-rule="evenodd" fill="#D19C24" d="M203.9,232.3c0,0-0.1,0-0.1,0c0-2.1,0-4.2,0-6.3       c0,0,0.1,0,0.1,0C203.9,228.1,203.9,230.2,203.9,232.3z"/>
					<path fill-rule="evenodd" clip-rule="evenodd" fill="#D19C24" d="M209.3,220.4c0.3,0,0.5,0,0.8,0       C209.8,220.7,209.5,220.6,209.3,220.4z"/>
					<path fill-rule="evenodd" clip-rule="evenodd" fill="#D19C24" d="M211.2,220.4c-0.2,0-0.3,0-0.5,0       C210.9,220.4,211.1,220,211.2,220.4L211.2,220.4z"/>
					<path fill-rule="evenodd" clip-rule="evenodd" fill="#D19C24" d="M207.3,215.9c0,0,0-0.1,0-0.1c0.2-0.2,0-0.5,0.1-0.7       c0.1-0.1,0.2-0.3,0.3-0.4c0,0.4,0,0.7-0.2,1.1c-0.2,0.4,0.2,0.4,0.3,0.5C207.6,216.4,207.3,216.3,207.3,215.9z"/>
					<path fill-rule="evenodd" clip-rule="evenodd" fill="#D19C24" d="M201.2,225c0,0,0-0.1,0-0.1c0.4,0,0.8,0,1.2,0       c0,0.1,0,0.2,0,0.3c-0.2,0.1-0.5-0.1-0.7,0C201.6,225.1,201.4,225.1,201.2,225z"/>
					<path fill-rule="evenodd" clip-rule="evenodd" fill="#D19C24" d="M202.8,211.9c-0.1,0.1-0.2,0.1-0.4,0.1c0-0.2,0.1-0.2,0.2-0.2       C202.7,211.8,202.7,211.8,202.8,211.9z"/>
					<path fill-rule="evenodd" clip-rule="evenodd" fill="#D19C24" d="M207.4,215.1c0,0.2,0.1,0.5-0.1,0.7c0-0.3,0-0.5,0-0.8       C207.3,215.1,207.4,215.1,207.4,215.1z"/>
					<path fill-rule="evenodd" clip-rule="evenodd" fill="#D19C24" d="M200.6,225c0.2,0,0.4,0,0.7,0       C201,225.2,200.8,225.2,200.6,225z"/>
				</g>
			</g>
			<path fill-rule="evenodd" clip-rule="evenodd" fill="#494846" d="M151.7,83.2c-34.9,0-63.2,28.3-63.2,63.2s28.3,63.2,63.2,63.2     s63.2-28.3,63.2-63.2S186.6,83.2,151.7,83.2z M151.7,195.8c-27.3,0-49.5-22.1-49.5-49.5s22.1-49.5,49.5-49.5s49.5,22.1,49.5,49.5     S179.1,195.8,151.7,195.8z"/>
			<g>
				<defs>
					<polygon id="SVGID_31_" points="151.7,77.3 151.7,146.4 207.3,102      "/>
				</defs>
				<clipPath id="SVGID_32_">
					<use xlink:href="#SVGID_31_" overflow="visible"/>
				</clipPath>
				<path clip-path="url(#SVGID_32_)" fill-rule="evenodd" clip-rule="evenodd" fill="#08B900" d="M151.7,83.2      c-34.9,0-63.2,28.3-63.2,63.2s28.3,63.2,63.2,63.2s63.2-28.3,63.2-63.2S186.6,83.2,151.7,83.2z M151.7,195.8      c-27.3,0-49.5-22.1-49.5-49.5s22.1-49.5,49.5-49.5s49.5,22.1,49.5,49.5S179.1,195.8,151.7,195.8z"/>
			</g>
			<g>
				<path fill-rule="evenodd" clip-rule="evenodd" fill="#8F8F8F" d="M154.1,96.5c0.2,0,0.4,0.1,0.6,0.1c2.7,0.4,5.5,0.6,8.2,1.1      c3.6,0.8,7.1,2,10.4,3.6c3.4,1.7,6.7,3.7,9.6,6.1c1.7,1.4,3.4,3,4.9,4.7c3.1,3.7,6.1,7.5,8.2,11.9c3,6,4.8,12.4,5.3,19.1      c0.7,10.9-1.8,21.1-7.7,30.2c-7.4,11.4-17.8,18.6-31,21.6c-2.3,0.5-4.8,0.7-7.2,1.1c-0.2,0-0.5,0.1-0.7,0.1c-1.9,0-3.8,0-5.7,0      c-0.3-0.1-0.5-0.1-0.8-0.2c-3-0.5-6-0.8-8.9-1.5c-10-2.6-18.4-7.9-25.1-15.7c-6.3-7.4-10.1-15.9-11.4-25.5      c-0.2-1.3-0.3-2.6-0.5-3.9c0-1.9,0-3.8,0-5.7c0-0.2,0.1-0.5,0.1-0.7c0.3-2.4,0.6-4.8,1-7.2c0.8-4,2.2-7.7,4-11.4      c1.8-3.6,4-7,6.7-10.1c2.6-3.1,5.7-5.7,8.9-8.2c3.2-2.4,6.8-4,10.2-5.9c3-1.7,6.5-2.5,10-3c2.1-0.3,4.2-0.6,6.4-0.9      C151,96.5,152.5,96.5,154.1,96.5z M182.5,121.7L182.5,121.7c-0.2-0.4-0.3-1-0.7-1.2c-1.2-0.6-1.3-1.7-1.6-2.8      c-0.2-0.8-0.4-1.7-0.8-2.4c-0.5-0.9-1.1-1.7-1.3-2.8c0-0.2-0.2-0.4-0.4-0.5c-0.8-0.4-1.7-0.9-2.5-1.3c-0.2-0.1-0.4,0-0.8-0.1      c0.3,0.4,0.5,0.7,0.7,0.9c-0.3,0.3-0.5,0.5-0.7,0.7c1.5,1.1,3,2.3,4.5,3.4c-0.7,0.5-1.6,0.5-1.9,1.5c0,0.1-0.3,0.2-0.4,0.1      c-1.3-0.3-2.6-0.6-3.3-1.9c-0.5-1.1-1.4-1.9-2.6-2.4c-0.6-0.3-1.2-0.7-1.8-0.9c-1.1-0.4-1.7-1.3-2.2-2.2c1-1.1,2.3-1,3.5-1.3      c-0.1-0.9-0.6-1.3-1-0.9c-0.6,0.7-1.3,0.2-2,0.4c0.1-0.5,0.1-0.8,0.1-0.9c-0.8-0.7-1.4-1.3-2-1.8c-1.1-0.8-2.4-1.5-3.5-2.4      c-0.6-0.4-1-0.4-1.4,0.2c-0.5,0.6-1.3,0.8-2.2,0.5c-1.2-0.4-2.5-0.6-3.7,0c-1.6,0.8-3.1,0.8-4.8,0.4c-0.7-0.2-1.3-0.4-1.3-1.3      c-0.9,0-1.7-0.3-2.4,0.5c-0.1,0.1-0.5,0.1-0.7,0.2c-1,0.1-2.1,0.3-3.1,0.4c-0.1,1.2-0.4,1.6-1.4,1.7c-0.3,0.1-0.7,0.1-1,0.1      c-0.4,0.1-0.8,0.3-1.3,0.4c0.3,1.2,0,1.5-1,1.7c-0.5,0.1-1,0.1-1.5,0.2c-0.2,0.1-0.5,0.3-0.5,0.5c0,1-0.5,1.7-1.3,2.3      c-0.9,0.7-1.7,1.7-2.6,2.5c-0.6,0.4-1.3,0.6-2,0.9c-0.1-0.1-0.1-0.2-0.2-0.3c0.3-0.4,0.5-0.8,0.8-1.3c0.4-0.7,0.3-0.9-0.5-1      c-0.3,0-0.7-0.3-0.9-0.5c-0.3-0.3-0.5-0.7-0.7-1.1c-0.1-0.1-0.2-0.4-0.1-0.5c0.7-0.7,1.3-1.4,2.1-1.9c0.8-0.4,1.5-1.1,1.2-1.9      c-0.3-1,0.1-1.5,1-1.7c0.2-0.1,0.4-0.2,0.6-0.3c0.8-0.2,1-0.8,1-1.5c0-1-0.7-1.5-1.6-1.1c-5.3,2.2-10.1,5.3-14.2,9.2      c-9.3,8.7-14.7,19.4-15.8,32.2c-0.8,9.9,1,19.3,5.9,27.9c7.6,13.5,19.1,21.8,34.3,24.7c7.2,1.4,14.4,1.1,21.5-0.8      c11.7-3.1,21-9.7,28-19.6c4.8-6.9,7.7-14.6,8.5-23c0.5-5,0.3-9.9-0.7-14.8c-0.4-2.1-1-4.1-1.6-6.2c-0.1,0-0.1,0-0.2,0.1      c0,0.1,0,0.2,0,0.3c1.7,5.7,2.2,11.6,1.7,17.5c-0.1,0.7-0.2,1.1-0.9,1.4c-0.2,0.1-0.4,0.3-0.5,0.5c-0.5,0.7-0.9,1.4-1.3,2      c-0.1,0.2-0.4,0.4-0.6,0.4c-0.9-0.2-1.8-0.4-2.5-1.2c-1.1-1.2-1.7-2.7-2.2-4.1c-1.1-2.7-1.2-5.5-1-8.4c0.1-1.1-0.1-2.2-0.6-3.2      c-0.5-1.1-1.2-2.3-0.5-3.7c-0.4,0.3-0.7,0.6-1.1,0.8c-0.2,0.1-0.5,0.2-0.6,0.1c-0.7-0.5-1.8-0.6-1.7-1.9c0-0.1-0.2-0.3-0.3-0.4      c-1-1-1.1-1.6-0.1-2.7c0.6-0.7,0.3-1.5-0.5-1.8c-0.3-0.1-0.6-0.2-0.9-0.2c-1.3-0.2-1.6-0.5-1.5-1.8      C183.2,123.4,183.3,122.4,182.5,121.7z M188.8,114c0,0.7,0,1.1,0,1.6c0,1,0.2,1.9,1.2,2.4c0.2,0.1,0.4,0.6,0.4,0.9      c0,0.9-0.8,0.8-1.4,0.9c-0.4,0.1-0.8,0.1-1.1,0.2c0,0.1,0,0.1,0,0.2c0.4,0.2,0.8,0.3,1.2,0.6c0.2,0.1,0.5,0.5,0.4,0.6      c-0.1,0.3-0.4,0.5-0.7,0.6c-0.4,0.1-0.8,0-1.3,0c0.1,0.5,0.2,0.8,0.2,1.1c0.1,0.6,0.4,1.2,0.4,1.8c0.1,1.6,1.1,2.8,2,4      c0.1,0.1,0.2,0.1,0.4,0.2c0-0.4,0-0.7,0-1c0-0.9,0-1.8,0-2.8c0-1.2,0.2-1.3,1.3-1.1c0.1,0,0.2,0,0.3,0c0.6-1.9-1.2-2.8-1.6-4      c0.4-0.4,0.8-0.6,0.8-0.9c0-0.9,0-1.9-0.4-2.7C190.5,115.8,189.6,114.9,188.8,114z"/>
				<path opacity="0.8" fill-rule="evenodd" clip-rule="evenodd" fill="#C9C9C9" d="M182.5,121.7c0.8,0.7,0.7,1.6,0.6,2.5      c-0.1,1.3,0.2,1.6,1.5,1.8c0.3,0,0.6,0.1,0.9,0.2c0.8,0.2,1.1,1.1,0.5,1.8c-0.9,1.1-0.9,1.7,0.1,2.7c0.1,0.1,0.3,0.3,0.3,0.4      c-0.1,1.3,1,1.4,1.7,1.9c0.1,0.1,0.5,0,0.6-0.1c0.3-0.2,0.6-0.5,1.1-0.8c-0.7,1.4,0,2.6,0.5,3.7c0.5,1,0.7,2.1,0.6,3.2      c-0.2,2.9-0.1,5.7,1,8.4c0.6,1.5,1.1,2.9,2.2,4.1c0.7,0.8,1.6,1,2.5,1.2c0.2,0,0.5-0.2,0.6-0.4c0.5-0.7,0.9-1.4,1.3-2      c0.1-0.2,0.3-0.5,0.5-0.5c0.7-0.2,0.8-0.7,0.9-1.4c0.5-5.9,0-11.8-1.7-17.5c0-0.1,0-0.2,0-0.3c0.1,0,0.1,0,0.2-0.1      c0.5,2.1,1.1,4.1,1.6,6.2c1,4.9,1.2,9.8,0.7,14.8c-0.9,8.4-3.7,16.1-8.5,23c-7,9.9-16.3,16.5-28,19.6      c-7.1,1.9-14.3,2.2-21.5,0.8c-15.2-3-26.7-11.3-34.3-24.7c-4.9-8.6-6.8-18-5.9-27.9c1.1-12.8,6.4-23.5,15.8-32.2      c4.2-3.9,9-6.9,14.2-9.2c0.9-0.4,1.5,0.1,1.6,1.1c0,0.8-0.2,1.3-1,1.5c-0.2,0.1-0.4,0.2-0.6,0.3c-0.9,0.3-1.3,0.7-1,1.7      c0.2,0.9-0.5,1.5-1.2,1.9c-0.8,0.5-1.4,1.2-2.1,1.9c-0.1,0.1,0,0.4,0.1,0.5c0.2,0.4,0.4,0.8,0.7,1.1c0.2,0.2,0.6,0.5,0.9,0.5      c0.8,0.1,0.9,0.3,0.5,1c-0.3,0.4-0.5,0.8-0.8,1.3c0.1,0.1,0.1,0.2,0.2,0.3c0.7-0.3,1.5-0.4,2-0.9c0.9-0.7,1.7-1.7,2.6-2.5      c0.8-0.6,1.3-1.3,1.3-2.3c0-0.2,0.3-0.4,0.5-0.5c0.5-0.1,1-0.1,1.5-0.2c1-0.2,1.3-0.5,1-1.7c0.4-0.1,0.8-0.3,1.3-0.4      c0.3-0.1,0.7-0.1,1-0.1c1-0.2,1.4-0.6,1.4-1.7c1-0.1,2-0.3,3.1-0.4c0.2,0,0.6,0,0.7-0.2c0.7-0.8,1.5-0.5,2.4-0.5      c0,0.9,0.6,1.1,1.3,1.3c1.6,0.4,3.2,0.4,4.8-0.4c1.2-0.6,2.4-0.4,3.7,0c0.8,0.3,1.6,0.2,2.2-0.5c0.5-0.6,0.8-0.6,1.4-0.2      c1.1,0.8,2.4,1.5,3.5,2.4c0.7,0.5,1.3,1.2,2,1.8c0,0.1-0.1,0.4-0.1,0.9c0.7-0.1,1.4,0.3,2-0.4c0.4-0.4,0.9,0,1,0.9      c-1.2,0.3-2.6,0.3-3.5,1.3c0.6,0.9,1.1,1.8,2.2,2.2c0.6,0.2,1.2,0.6,1.8,0.9c1.1,0.5,2,1.2,2.6,2.4c0.7,1.4,2,1.7,3.3,1.9      c0.1,0,0.4-0.1,0.4-0.1c0.2-1,1.2-1,1.9-1.5c-1.5-1.1-3-2.3-4.5-3.4c0.2-0.2,0.4-0.4,0.7-0.7c-0.2-0.3-0.4-0.5-0.7-0.9      c0.4,0,0.6,0,0.8,0.1c0.9,0.4,1.7,0.8,2.5,1.3c0.2,0.1,0.4,0.3,0.4,0.5c0.2,1.1,0.8,1.9,1.3,2.8c0.4,0.7,0.6,1.6,0.8,2.4      c0.2,1.1,0.4,2.1,1.6,2.8C182.2,120.7,182.3,121.3,182.5,121.7c-1-0.5-2.1-1-3.2-1.5c-0.6-0.3-1.2-0.5-1.6-1      c-0.6-0.6-1-0.5-1.5-0.1c0.6,1.6,1.2,3.1,1.8,4.5c0.3,0.7,1.6,1.3,2.7,1.3c-0.6-0.8-1.2-1.4-1.9-2.3c1.3,0.6,2.3,1,3.5,1.5      C182.4,123.2,182.5,122.5,182.5,121.7z M160,145.2c1-0.6,1.9-1.2,2.9-1.8c0.4-0.2,0.5-0.5,0.3-0.9c-0.2-0.5-0.5-0.5-0.9-0.4      c-0.5,0-1.1,0.5-1.4-0.4c-0.3-0.9-0.9-1.2-1.7-0.6c-0.4,0.3-0.8,0.5-1.2,0.8c0-0.1-0.1-0.1-0.1-0.2c0.8-1,1.8-1.7,3.2-1.9      c0.8-0.2,1.5-0.6,2.2-0.8c0.5,1.7,1.7,3.4,4.1,2.5c-0.3-0.4-0.5-0.8-0.9-1.2c-1.3-1.3-3.1-2.1-3.9-4c0,0-0.1-0.1-0.1-0.1      c-1-0.9-2-1.9-3-2.7c-0.4-0.4-1.1-0.5-1.6-0.6c-0.5-0.2-1.3-0.1-1.5-0.5c-0.8-1.1-2-1.4-3.1-1.8c-0.3-0.1-1.2,0.3-1.2,0.5      c0,1.5-0.4,3,0.5,4.1c-0.3,1.4-0.6,2.7-0.8,4.1c-0.8-0.5-1.5-1.3-1.6-2.2c0-1.1-0.6-1.4-1.4-1.7c-0.4-0.1-0.9-0.3-1.3-0.3      c-0.7-0.1-1.1-0.6-1.1-1.1c0-0.9,0-1.8,0.4-2.6c0.7-1.6,2.1-2.7,3.5-3.7c0.5-0.4,1.1-0.8,1.6-1.2c-0.1-0.1-0.2-0.2-0.3-0.3      c-0.2-0.2-0.4-0.5-0.6-0.8c1,0.3,2.1,0.3,2.4,1.4c0.5,1.4-0.5,2.1-1.5,2.8c1.2,0.4,2.4,0.8,3.5,1.1c0.5,0.1,1,0.1,1.4,0.1      c0.2,0,1.4-2.3,1.3-2.5c-0.4-0.7-0.7-1.5-1.6-1.7c-0.8-0.2-1.3-0.7-1.5-1.5c-0.1-0.3-0.2-0.6-0.5-0.8c-1.4-0.7-2.8-1.3-4.2-2      c-0.8-0.4-1.2,0.2-1.6,0.7c-0.1,0.2,0.1,0.7,0.4,1c0.3,0.5,0.8,0.9,1.4,1.5c-0.7,0-1.5,0.1-1.7-0.1c-0.5-0.7-0.6-1.6-0.9-2.4      c-0.5-0.1-1,0-1,0.8c0,0.2,0,0.5-0.1,0.6c-0.2,0.3-0.5,0.5-0.7,0.7c-0.2-0.3-0.5-0.6-0.4-0.8c0.5-2.2-1.5-3.1-2.5-4.5      c-0.1-0.1-0.3-0.1-0.4-0.1c-0.8,0-1.6,0.2-2,1c0.4,0.5,0.8,0.8,1,1.3c0.2,0.6,0.4,1.1,0.9,1.4c0.5,0.3,0.5,0.7,0.2,1.3      c-1.9-1.6-3.7-3-5.5-4.6c-0.7-0.6-1.2-1.4-1.1-2.5c0-0.4-0.2-0.8-0.2-1.2c0-0.9-0.6-1.3-1.5-1.2c-1.1,0-2.2,0.1-3.3,0.3      c-0.3,0-0.5,0.4-0.6,0.7c-0.3,0.6-0.5,1-1.3,0.8c-1.1-0.3-1.9,0.2-2.4,1.2c-0.3,0.6-0.5,1.2-0.8,1.9c-0.7-0.3-1.3-0.7-2-1      c0.1,0.8,0.3,1.5,1.2,1.8c0.8,0.2,1.6,0.6,2.3,0.9c1.2,0.4,2.2,1.1,2.2,2.5c0.1,0.9,0.1,1.8-0.1,2.7c-0.2,1.2-0.6,2.4-0.9,3.5      c-0.4,1.7-0.6,3.4-0.2,5.1c0.1,0.3,0,0.6-0.2,0.8c-2.2,2.5-3.2,5.5-3.4,8.8c-0.1,1.1-0.4,2.2-0.1,3.2c0.7,2.7,1.6,5.3,2.4,8      c0.3,1.1,1.5,1.9,2.2,1.8c-0.4-0.9-0.9-1.7-1.2-2.7c-0.7-2.5-0.6-2.5-0.1-2.8c0,0.1,0.1,0.1,0.1,0.2c0.6,2.2,1.3,4.4,2.4,6.5      c0.3,0.5,0.3,1.2,0.3,1.8c-0.1,0.9,0.1,2,1,2.3c1.4,0.5,2.3,1.6,3.4,2.5c0.4,0.4,0.9,0.7,1.4,0.9c1.8,0.7,3.7,1.3,5.5,2.1      c1.9,0.8,3.5,1.9,4.1,4c0.1,0.3,0.2,0.7,0.5,0.8c1.4,0.5,2.7,1.5,4.3,1.2c0.6-0.1,1.2,0,1.8,0c0,0.9,0,1.6,0,2.3      c0,0.8-0.3,1.5-1.3,1.7c-0.4,0.1-0.9,0.4-1.1,0.8c-0.9,1.5-1.1,3.3,1.1,4.4c1.8,0.9,3.2,2.4,4.5,3.8c0.5,0.6,1,1.3,2.2,1.1      c-0.2,0.8-0.3,1.5-0.5,2.1c-0.3,0.8,0,1.5,0.7,1.3c3.2-0.8,6.5-1.4,9.6-2.5c5.1-1.8,9.8-4.5,14-7.9c0.2-0.2,0.5-0.5,0.5-0.8      c0.1-1.7,0.8-3,1.8-4.3c0.5-0.7,1-1.4,1.5-2.2c-0.8-0.5-1.3-1.4-2.4-1c-1.5,0.5-2.9,0.9-4.4,1.3c-2.3,0.5-2.4,0.5-3.9-1.3      c-0.1-0.1-0.1-0.1-0.2-0.2c-0.3-0.5-0.7-0.6-1.3-0.6c-2.6,0.2-5-0.1-7.4-1.3c-0.2-0.1-0.5-0.2-0.8-0.1c-1.6,0.1-3.1,0.3-4.7,0.5      c-0.2,0-0.5,0.1-0.7,0.2c-0.6,0.4-1.3,0.4-1.9,0.1c-1.2-0.7-2.2-0.2-3.2,0.6c-0.5,0.3-0.9,0.8-1.3,1.1c-0.2,0.2-0.5,0.2-0.8,0.2      c-0.6,0-1.3,0-1.8-0.2c-0.7-0.3-1.5-0.7-2.1-1.3c-0.2-0.2,0-1,0.1-1.5c0.4-1.6,0.3-1.8-1.3-2.5c-0.7-0.3-1.5-0.3-2.2-0.3      c-0.9,0-1-0.3-0.7-1.1c0.2-0.6,0.4-1.3,0.5-2c0-0.2-0.2-0.6-0.4-0.8c-0.8-0.6-1.9-0.3-2.4,0.5c-0.4,0.8-1.1,1-1.8,0.6      c-0.8-0.4-1.6-1-2.3-1.6c-0.1-0.1-0.2-0.3-0.2-0.5c0-0.8-0.1-1.6,0-2.3c0.5-2.6,2.6-3.7,5-2.8c0.5,0.2,1.2,0.2,1.6,0      c1.5-0.6,3.3-0.1,4.2,1.2c0.3,0.4,0.6,0.9,0.9,1.3c0.4,0.7,0.9,0.9,1.7,0.3c-0.2-0.6-0.3-1.3-0.6-1.9c-0.5-0.9-0.4-1.8,0.2-2.6      c0.5-0.8,1.3-1.4,2.1-2c0.9-0.7,1.5-1.3,1.5-2.6c0.1-1.5,0.5-3.1,2.1-3.9c0.1-0.1,0.2-0.3,0.3-0.5c0.2-0.4,0.4-0.8,0.7-1.2      C158.8,144.8,159.1,144.7,160,145.2z M150.2,115.8c-0.2,1-0.2,1.6-0.4,2.3c-0.3,0.9-0.2,1.5,0.6,2.2c0.4,0.3,0.9,0.6,1.4,0.9      c0.4-1,0.7-2,1.1-3c0.1,0,0.2,0,0.3,0.1c0.2,1.3,1,2.1,2,2.7c1.2,0.8,2.3,1.6,3.5,2.4c0.8,0.6,1.2,1.4,1.2,2.4      c0,0.8,0.1,1.6,1.1,1.9c0.1,0,0.2,0.1,0.2,0.2c0.2,1.3,1.5,1.5,2.3,2.2c0.2,0.1,0.4,0.2,0.6,0.2c1.2-0.4,2.4-0.8,3.7-1.2      c-0.5-0.4-1-0.6-1.5-0.8c-0.8-0.3-1.2-1-1.1-1.7c0.1-1.1,0.2-2.2,0.2-3.2c0-0.7,0.2-1.3,0.8-1.7c0.6-0.5,0.6-2,0-2.5      c-0.8-0.7-1.5-1.6-2.5-2.1c-1.7-1-3.5-1.8-5.2-2.7c0,0-0.1,0-0.2,0c-1.6-0.1-3.3-0.2-4.5,1.4c-0.1,0.2-0.6,0-1,0.1      c0-0.6-0.4-0.5-0.8-0.5C151.5,115.4,150.7,115.6,150.2,115.8z M168.1,120.9c-0.1,0-0.2,0-0.3,0.1c0.3,0.8,0.5,1.6,0.9,2.2      c0.3,0.4,0.9,0.9,1.4,0.4c1-0.8,1.5-1.8,1.7-3.1c0-0.1,0-0.3-0.1-0.4c-0.5-0.8-1.9-0.9-2.6-0.2      C168.8,120.3,168.4,120.6,168.1,120.9z M148,163.5c0,0.1,0,0.2,0,0.3c2.1,0.2,4,0.8,5.7,2.2c0.7,0.6,2.1-0.1,2.3-1      c-0.2-0.1-0.3-0.2-0.5-0.3c-2.1-0.5-4.2-1.1-6.3-1.6C149,163,148.5,163.4,148,163.5z M161,166.6c-0.5-0.4-1.2-0.6-1.3-0.9      c-0.2-0.8-0.8-0.7-1.3-0.6c-0.5,0-1,0.1-1.5,0.3c-0.2,0.1-0.5,0.3-0.5,0.5c0,0.2,0.2,0.5,0.4,0.6      C158.2,167.2,159.5,167,161,166.6z"/>
				<path opacity="0.8" fill-rule="evenodd" clip-rule="evenodd" fill="#C9C9C9" d="M188.8,114c0.8,1,1.7,1.8,2.2,2.8      c0.4,0.8,0.4,1.8,0.4,2.7c0,0.2-0.4,0.5-0.8,0.9c0.4,1.2,2.2,2.1,1.6,4c-0.1,0-0.2,0-0.3,0c-1.2-0.2-1.3-0.1-1.3,1.1      c0,0.9,0,1.8,0,2.8c0,0.3,0,0.6,0,1c-0.2-0.1-0.4-0.1-0.4-0.2c-0.9-1.2-1.9-2.4-2-4c0-0.6-0.3-1.2-0.4-1.8      c-0.1-0.3-0.1-0.6-0.2-1.1c0.5,0,0.9,0.1,1.3,0c0.3-0.1,0.6-0.4,0.7-0.6c0.1-0.1-0.2-0.5-0.4-0.6c-0.4-0.2-0.8-0.4-1.2-0.6      c0-0.1,0-0.2,0-0.2c0.4-0.1,0.8-0.1,1.1-0.2c0.6-0.2,1.4,0,1.4-0.9c0-0.3-0.2-0.8-0.4-0.9c-1-0.5-1.2-1.4-1.2-2.4      C188.8,115.1,188.8,114.6,188.8,114z"/>
				<path fill-rule="evenodd" clip-rule="evenodd" fill="#8F8F8F" d="M160,145.2c-1-0.4-1.2-0.4-1.9,0.7c-0.2,0.4-0.4,0.8-0.7,1.2      c-0.1,0.2-0.2,0.4-0.3,0.5c-1.6,0.8-2,2.4-2.1,3.9c-0.1,1.3-0.7,1.9-1.5,2.6c-0.7,0.6-1.5,1.2-2.1,2c-0.5,0.7-0.6,1.7-0.2,2.6      c0.3,0.6,0.4,1.3,0.6,1.9c-0.8,0.6-1.3,0.4-1.7-0.3c-0.3-0.5-0.6-0.9-0.9-1.3c-0.9-1.3-2.7-1.8-4.2-1.2c-0.5,0.2-1.2,0.2-1.6,0      c-2.5-0.9-4.5,0.2-5,2.8c-0.2,0.7,0,1.5,0,2.3c0,0.2,0.1,0.4,0.2,0.5c0.8,0.5,1.5,1.1,2.3,1.6c0.7,0.4,1.4,0.2,1.8-0.6      c0.5-0.8,1.7-1.1,2.4-0.5c0.2,0.2,0.4,0.5,0.4,0.8c-0.1,0.7-0.3,1.4-0.5,2c-0.3,0.8-0.2,1.1,0.7,1.1c0.7,0,1.5,0.1,2.2,0.3      c1.6,0.6,1.7,0.9,1.3,2.5c-0.1,0.5-0.3,1.2-0.1,1.5c0.6,0.6,1.3,1,2.1,1.3c0.5,0.2,1.2,0.2,1.8,0.2c0.3,0,0.6-0.1,0.8-0.2      c0.5-0.3,0.9-0.8,1.3-1.1c1-0.7,2-1.3,3.2-0.6c0.6,0.4,1.3,0.4,1.9-0.1c0.2-0.1,0.5-0.2,0.7-0.2c1.6-0.2,3.1-0.3,4.7-0.5      c0.3,0,0.6,0,0.8,0.1c2.3,1.2,4.8,1.6,7.4,1.3c0.5,0,1,0.1,1.3,0.6c0,0.1,0.1,0.1,0.2,0.2c1.6,1.8,1.6,1.9,3.9,1.3      c1.5-0.3,2.9-0.8,4.4-1.3c1.1-0.3,1.6,0.5,2.4,1c-0.5,0.8-1,1.5-1.5,2.2c-1,1.3-1.6,2.7-1.8,4.3c0,0.3-0.3,0.6-0.5,0.8      c-4.3,3.4-8.9,6.1-14,7.9c-3.1,1.1-6.4,1.7-9.6,2.5c-0.6,0.2-1-0.5-0.7-1.3c0.2-0.6,0.3-1.2,0.5-2.1c-1.2,0.3-1.7-0.5-2.2-1.1      c-1.3-1.5-2.6-3-4.5-3.8c-2.2-1.1-2-2.9-1.1-4.4c0.2-0.4,0.7-0.7,1.1-0.8c0.9-0.3,1.2-0.9,1.3-1.7c0-0.7,0-1.4,0-2.3      c-0.6,0-1.2-0.1-1.8,0c-1.6,0.3-2.9-0.7-4.3-1.2c-0.2-0.1-0.4-0.5-0.5-0.8c-0.7-2.1-2.3-3.2-4.1-4c-1.8-0.8-3.6-1.3-5.5-2.1      c-0.5-0.2-1-0.5-1.4-0.9c-1.1-0.9-2-1.9-3.4-2.5c-0.8-0.3-1.1-1.4-1-2.3c0.1-0.6,0-1.3-0.3-1.8c-1.1-2-1.8-4.2-2.4-6.5      c0-0.1-0.1-0.1-0.1-0.2c-0.6,0.2-0.6,0.3,0.1,2.8c0.3,1,0.8,1.8,1.2,2.7c-0.7,0-1.8-0.8-2.2-1.8c-0.9-2.6-1.7-5.3-2.4-8      c-0.3-1,0.1-2.2,0.1-3.2c0.2-3.3,1.2-6.3,3.4-8.8c0.2-0.2,0.2-0.6,0.2-0.8c-0.3-1.7-0.2-3.4,0.2-5.1c0.3-1.2,0.7-2.3,0.9-3.5      c0.2-0.9,0.2-1.8,0.1-2.7c-0.1-1.4-1-2-2.2-2.5c-0.8-0.3-1.5-0.6-2.3-0.9c-0.9-0.3-1.2-0.9-1.2-1.8c0.7,0.3,1.3,0.7,2,1      c0.3-0.8,0.6-1.4,0.8-1.9c0.5-1.1,1.3-1.5,2.4-1.2c0.8,0.2,1.1-0.1,1.3-0.8c0.1-0.3,0.4-0.7,0.6-0.7c1.1-0.2,2.2-0.3,3.3-0.3      c1,0,1.5,0.3,1.5,1.2c0,0.4,0.3,0.8,0.2,1.2c-0.1,1.1,0.4,1.9,1.1,2.5c1.8,1.6,3.6,3.1,5.5,4.6c0.4-0.6,0.3-1-0.2-1.3      c-0.5-0.3-0.8-0.8-0.9-1.4c-0.1-0.5-0.6-0.9-1-1.3c0.4-0.8,1.1-1,2-1c0.1,0,0.3,0,0.4,0.1c0.9,1.4,3,2.3,2.5,4.5      c-0.1,0.2,0.3,0.6,0.4,0.8c0.2-0.2,0.5-0.4,0.7-0.7c0.1-0.2,0.1-0.4,0.1-0.6c0-0.8,0.4-0.9,1-0.8c0.3,0.9,0.5,1.7,0.9,2.4      c0.2,0.3,1,0.1,1.7,0.1c-0.6-0.6-1-1-1.4-1.5c-0.2-0.3-0.5-0.8-0.4-1c0.4-0.5,0.8-1.1,1.6-0.7c1.4,0.7,2.8,1.3,4.2,2      c0.2,0.1,0.4,0.5,0.5,0.8c0.3,0.8,0.8,1.3,1.5,1.5c0.9,0.2,1.2,1,1.6,1.7c0.1,0.2-1,2.5-1.3,2.5c-0.5,0-1,0-1.4-0.1      c-1.1-0.3-2.3-0.7-3.5-1.1c1-0.7,2-1.4,1.5-2.8c-0.4-1.1-1.4-1.1-2.4-1.4c0.2,0.3,0.4,0.6,0.6,0.8c0.1,0.1,0.2,0.2,0.3,0.3      c-0.5,0.4-1.1,0.8-1.6,1.2c-1.4,1-2.8,2.1-3.5,3.7c-0.4,0.8-0.4,1.7-0.4,2.6c0,0.5,0.4,1,1.1,1.1c0.4,0.1,0.9,0.2,1.3,0.3      c0.8,0.3,1.4,0.6,1.4,1.7c0,0.9,0.7,1.6,1.6,2.2c0.3-1.3,0.5-2.6,0.8-4.1c-0.9-1.1-0.5-2.7-0.5-4.1c0-0.2,0.9-0.6,1.2-0.5      c1.1,0.4,2.3,0.7,3.1,1.8c0.2,0.3,1,0.3,1.5,0.5c0.6,0.2,1.2,0.3,1.6,0.6c1.1,0.8,2,1.8,3,2.7c0,0,0.1,0.1,0.1,0.1      c0.7,1.9,2.5,2.7,3.9,4c0.3,0.3,0.6,0.8,0.9,1.2c-2.4,0.9-3.7-0.9-4.1-2.5c-0.7,0.3-1.5,0.7-2.2,0.8c-1.3,0.3-2.4,0.9-3.2,1.9      c0,0.1,0.1,0.1,0.1,0.2c0.4-0.3,0.8-0.5,1.2-0.8c0.8-0.6,1.4-0.4,1.7,0.6c0.2,0.8,0.9,0.4,1.4,0.4c0.4,0,0.7-0.1,0.9,0.4      c0.2,0.4,0.1,0.7-0.3,0.9C162,143.9,161.1,144.5,160,145.2z"/>
				<path fill-rule="evenodd" clip-rule="evenodd" fill="#8F8F8F" d="M150.2,115.8c0.5-0.1,1.3-0.4,2.1-0.6c0.3-0.1,0.8-0.1,0.8,0.5      c0.3,0,0.8,0.1,1-0.1c1.2-1.6,2.8-1.4,4.5-1.4c0.1,0,0.1,0,0.2,0c1.7,0.9,3.5,1.7,5.2,2.7c0.9,0.5,1.7,1.4,2.5,2.1      c0.6,0.5,0.6,2,0,2.5c-0.5,0.5-0.8,1-0.8,1.7c0,1.1-0.1,2.2-0.2,3.2c-0.1,0.8,0.3,1.5,1.1,1.7c0.5,0.2,1,0.4,1.5,0.8      c-1.2,0.4-2.4,0.8-3.7,1.2c-0.2,0.1-0.4-0.1-0.6-0.2c-0.9-0.6-2.1-0.8-2.3-2.2c0-0.1-0.1-0.2-0.2-0.2c-1-0.3-1.1-1.1-1.1-1.9      c0-1-0.4-1.8-1.2-2.4c-1.2-0.8-2.3-1.6-3.5-2.4c-1-0.7-1.8-1.5-2-2.7c-0.1,0-0.2,0-0.3-0.1c-0.4,1-0.7,1.9-1.1,3      c-0.5-0.3-1-0.6-1.4-0.9c-0.8-0.6-0.9-1.2-0.6-2.2C150,117.4,150.1,116.7,150.2,115.8z"/>
				<path fill-rule="evenodd" clip-rule="evenodd" fill="#8F8F8F" d="M182.5,121.7c0,0.7-0.1,1.5-0.1,2.4c-1.2-0.5-2.2-1-3.5-1.5      c0.7,0.8,1.2,1.5,1.9,2.3c-1.1,0.1-2.4-0.5-2.7-1.3c-0.6-1.5-1.2-3-1.8-4.5c0.4-0.4,0.9-0.5,1.5,0.1c0.4,0.4,1,0.7,1.6,1      C180.4,120.8,181.5,121.2,182.5,121.7C182.5,121.8,182.5,121.7,182.5,121.7z"/>
				<path fill-rule="evenodd" clip-rule="evenodd" fill="#8F8F8F" d="M168.1,120.9c0.3-0.3,0.7-0.6,1-0.9c0.7-0.7,2-0.6,2.6,0.2      c0.1,0.1,0.1,0.3,0.1,0.4c-0.2,1.2-0.7,2.3-1.7,3.1c-0.6,0.5-1.2,0-1.4-0.4c-0.4-0.7-0.6-1.5-0.9-2.2      C167.9,120.9,168,120.9,168.1,120.9z"/>
				<path fill-rule="evenodd" clip-rule="evenodd" fill="#8F8F8F" d="M148,163.5c0.5-0.1,0.9-0.5,1.3-0.4c2.1,0.5,4.2,1,6.3,1.6      c0.2,0,0.3,0.2,0.5,0.3c-0.2,0.9-1.6,1.6-2.3,1c-1.7-1.3-3.6-2-5.7-2.2C148.1,163.7,148,163.6,148,163.5z"/>
				<path fill-rule="evenodd" clip-rule="evenodd" fill="#8F8F8F" d="M161,166.6c-1.5,0.4-2.8,0.6-4.1-0.1c-0.2-0.1-0.4-0.4-0.4-0.6      c0-0.2,0.3-0.5,0.5-0.5c0.5-0.2,1-0.3,1.5-0.3c0.5,0,1.1-0.1,1.3,0.6C159.8,166,160.5,166.2,161,166.6z"/>
			</g>
			<path id="SVGID_x5F_33_x5F_" fill="none" d="M151.7,273.1c-70,0-126.7-56.7-126.7-126.7c0-70,56.7-126.7,126.7-126.7     c70,0,126.7,56.7,126.7,126.7C278.5,216.4,221.7,273.1,151.7,273.1z"/>
			<text>			<textPath xlink:href="#SVGID_x5F_33_x5F_" startOffset="50%">
<tspan id="country" fill="#FFFFFF" font-family="'Helvetica-Bold'" font-size="19.7151">UNITED STATES</tspan>			</textPath>
</text>
		</g>
	</g>
</g>
</svg>